<?xml version="1.0" encoding="UTF-8" standalone="no"?>
<!-- John Grümph
     https://legrumph.org/Terrier/public/chibi/de-chorographia
     CC BY-NC 3.0
     https://creativecommons.org/licenses/by-nc/3.0/fr/ -->
<!-- Created with Inkscape (http://www.inkscape.org/) -->

<svg
   version="1.1"
   id="svg2"
   width="23.526672"
   height="14.648927"
   viewBox="0 0 23.526672 14.648926"
   xmlns="http://www.w3.org/2000/svg"
   xmlns:svg="http://www.w3.org/2000/svg">
  <defs
     id="defs6" />
  <g
     id="g10"
     transform="matrix(1.3333333,0,0,-1.3333333,-567.9253,94.817657)">
    <g
       id="g12"
       transform="scale(0.1)">
      <path
         d="m 4435.89,646.164 c -4.5,1.949 -9.32,3.41 -13.45,5.961 -10.3,6.328 -20.39,5.719 -30.59,0.156 -8.01,-4.347 -15.96,-8.808 -23.27,-12.859 -26.6,8.383 -49.88,22.691 -77.39,25.371 -3.21,-9.391 1.6,-20.871 -9.18,-26.531 -3.57,-1.879 -7.2,-3.637 -11.62,-5.867 -2.44,10.089 4.6,13.859 7.98,19.808 0.56,7.309 1.15,15.102 1.78,23.34 16.62,3.891 30.11,-3.391 44.96,-7.34 10.47,9.52 20.82,19.469 31.79,28.692 6.22,5.23 13.46,9.23 20.93,14.238 15.48,-12.32 32.92,-19.481 41.72,-37.051 -15.99,2.57 -25.64,15.77 -40.12,22.691 -16.62,-6.16 -24.48,-23.921 -42.37,-32.742 10.79,-5.398 19.15,-9.59 27.66,-13.847 16.45,9.379 31.32,23.191 52.08,16.078 10.84,-3.707 17.59,-10.071 19.09,-20.098"
         style="fill:#231f20;fill-opacity:1;fill-rule:nonzero;stroke:none"
         id="path7250" />
      <path
         d="m 4259.44,604.941 c 2.06,2.454 3.6,5.43 6.04,7.032 14.33,9.398 28.52,19.082 43.43,27.468 12.97,7.293 26,5.332 38.38,-3.046 9.86,-6.68 20.27,-12.5 30.29,-18.93 1.72,-1.102 2.74,-3.301 4.08,-4.992 -0.41,-0.942 -0.82,-1.879 -1.24,-2.809 -5.01,1.258 -10.46,1.699 -14.94,3.988 -5.98,3.071 -11.49,7.243 -16.72,11.52 -11.61,9.519 -24.21,10.5 -36.8,3.422 -12.83,-7.223 -24.91,-15.789 -37.29,-23.821 -7.21,-4.679 -7.18,-4.73 -15.23,0.168"
         style="fill:#231f20;fill-opacity:1;fill-rule:nonzero;stroke:none"
         id="path7252" />
    </g>
  </g>
</svg>
