<?xml version="1.0" encoding="UTF-8" standalone="no"?>
<!-- Created with Inkscape (http://www.inkscape.org/) -->

<svg
   version="1.1"
   id="svg2"
   width="30.20401"
   height="10.461182"
   viewBox="0 0 30.20401 10.461181"
   xmlns="http://www.w3.org/2000/svg"
   xmlns:svg="http://www.w3.org/2000/svg">
  <defs
     id="defs6" />
  <g
     id="g10"
     transform="matrix(1.3333333,0,0,-1.3333333,-455.34265,45.274198)">
    <g
       id="g12"
       transform="scale(0.1)">
      <path
         d="m 3552.55,306.543 c 0.94,7.723 1.77,14.672 2.89,23.98 -13.83,-2.168 -26.21,-3.859 -38.49,-6.128 -12.53,-2.321 -24.93,-5.45 -37.48,-7.75 -4.24,-0.77 -8.76,-0.122 -14.46,-0.122 7.4,11.211 68.95,25.282 94.92,22.731 1.43,-1.699 3.96,-4.699 6.46,-7.66 32.11,10.922 41.9,7.519 58.17,-20.16 5.11,-5.039 16.16,-3.071 17.04,-15.09 -12.9,3.73 -25.58,4.871 -31.44,19.058 -3.16,7.661 -10.47,11.75 -18.54,10.121 -8.44,-1.687 -16.53,-5.41 -24.54,-8.781 -1.52,-0.648 -1.93,-3.906 -2.74,-5.726 7.58,-7.813 21.67,-6.864 24.63,-22.641 -13.84,5.27 -25.86,9.809 -36.42,18.168"
         style="fill:#231f20;fill-opacity:1;fill-rule:nonzero;stroke:none"
         id="path7216" />
      <path
         d="m 3523.73,293.41 c -6.05,-12.871 3.95,-21.941 0.02,-32.312 -13.57,8.613 -17.16,28.191 -7.93,44.191 -5.24,-0.871 -9.33,-1.59 -13.42,-2.25 -22,-3.578 -43.99,-7.25 -66.02,-10.621 -4.29,-0.66 -8.93,-0.898 -13.08,0.062 -3.02,0.708 -5.51,3.7 -8.23,5.688 0.37,0.801 0.74,1.602 1.11,2.41 14.07,1.922 28.17,3.652 42.19,5.832 14.95,2.32 29.83,5.059 44.73,7.649 1.97,0.351 3.86,1.109 5.83,1.332 6.39,0.738 13.07,1.699 17.14,-5 4.59,-7.571 1.28,-13.692 -2.34,-16.981"
         style="fill:#231f20;fill-opacity:1;fill-rule:nonzero;stroke:none"
         id="path7218" />
    </g>
  </g>
</svg>
