<?xml version="1.0" encoding="UTF-8" standalone="no"?>
<!-- John Grümph
     https://legrumph.org/Terrier/public/chibi/de-chorographia
     CC BY-NC 3.0
     https://creativecommons.org/licenses/by-nc/3.0/fr/ -->
<!-- Created with Inkscape (http://www.inkscape.org/) -->

<svg
   version="1.1"
   id="svg2"
   width="26.812012"
   height="7.42981"
   viewBox="0 0 26.812012 7.4298097"
   xmlns="http://www.w3.org/2000/svg"
   xmlns:svg="http://www.w3.org/2000/svg">
  <defs
     id="defs6" />
  <g
     id="g10"
     transform="matrix(1.3333333,0,0,-1.3333333,-462.75998,312.83994)">
    <g
       id="g12"
       transform="scale(0.1)">
      <path
         d="m 3470.7,2295.66 c 13.9,5.47 21.74,15.3 29.26,25.82 14.8,20.73 36.17,27.8 60.12,23.71 10.27,-1.76 19.46,-9.87 31.31,-16.27 16.36,10.69 33.41,3.69 50.09,-7.62 7.91,-5.35 16.4,-9.86 24.45,-15.01 2.09,-1.33 3.57,-3.61 5.86,-6.02 -7.35,-5.15 -13.19,-2.49 -18.66,0.62 -7.98,4.56 -15.59,9.75 -23.53,14.37 -10.97,6.4 -14.54,6.54 -29.15,1.86 6.07,-6.19 11.89,-12.09 17.7,-18 -0.65,-1.21 -1.31,-2.42 -1.95,-3.64 -4.04,1.16 -8.82,1.31 -11.94,3.68 -8.54,6.48 -16.97,13.36 -24.4,21.09 -19.72,20.55 -53.03,18.82 -71.07,-3.79 -6.44,-8.03 -13.69,-15.54 -21.35,-22.41 -4.44,-3.98 -10.43,-5.82 -16.74,1.61"
         style="fill:#231f20;fill-opacity:1;fill-rule:nonzero;stroke:none"
         id="path7150" />
    </g>
  </g>
</svg>
