<?xml version="1.0" encoding="UTF-8" standalone="no"?>
<!-- John Grümph
     https://legrumph.org/Terrier/public/chibi/de-chorographia
     CC BY-NC 3.0
     https://creativecommons.org/licenses/by-nc/3.0/fr/ -->
<!-- Created with Inkscape (http://www.inkscape.org/) -->

<svg
   version="1.1"
   id="svg2"
   width="42.789307"
   height="11.832032"
   viewBox="0 0 42.789306 11.832032"
   xmlns="http://www.w3.org/2000/svg"
   xmlns:svg="http://www.w3.org/2000/svg">
  <defs
     id="defs6" />
  <g
     id="g10"
     transform="matrix(1.3333333,0,0,-1.3333333,-602.70532,70.329253)">
    <g
       id="g12"
       transform="scale(0.1)">
      <path
         d="m 4757.98,503.086 c 38.43,20.832 71.66,19.973 83.23,-4.02 -5.32,1.372 -9.57,1.571 -12.82,3.461 -15.93,9.301 -44.07,5.7 -62.7,-9.621 6.57,-2.218 11.78,-4.48 17.23,-5.738 10.49,-2.43 21.17,-4.02 31.65,-6.5 7.16,-1.691 7.06,-2.102 10.54,-11.473 -3.96,0.25 -7.24,0.141 -10.39,0.711 -11.39,2.032 -22.97,3.473 -34,6.742 -7.37,2.18 -14.37,6.438 -20.74,10.911 -7.78,5.468 -14.5,12.418 -22.11,18.179 -6.45,4.891 -13.91,5.809 -21.58,2.629 -9.19,-3.808 -18.63,-7.14 -27.44,-11.672 -15.92,-8.187 -31.46,-17.136 -47.81,-26.129 19.36,-7.531 37.83,-14.668 56.21,-22 1.12,-0.449 1.61,-2.507 3.66,-5.937 -5.52,0 -9.66,-0.922 -13.16,0.168 -11.81,3.68 -23.22,8.738 -35.14,11.949 -6.61,1.789 -14.36,2.609 -20.87,0.981 -16.61,-4.18 -32.82,-9.969 -49.2,-15.122 -8.97,-2.82 -8.97,-2.82 -17.79,2.5 15.33,10.731 32.96,14.352 50.78,21.524 -18.23,11.726 -35.58,16.777 -54.85,7.406 -9.7,-4.707 -19.18,-9.867 -28.94,-14.469 -3.3,-1.558 -7.11,-2.039 -11.45,-1.339 13.67,12.808 28.51,23.761 46.41,28.742 19.33,5.398 36.92,-2.043 53.9,-11.852 21.36,11.66 42.33,23.192 63.4,34.551 5.94,3.211 12.19,5.891 18.3,8.809 19.64,9.421 36.38,3.949 51.48,-10.032 1.15,-1.066 2.45,-1.968 4.2,-3.359"
         style="fill:#231f20;fill-opacity:1;fill-rule:nonzero;stroke:none"
         id="path7356" />
      <path
         d="m 4667.29,501.27 c -2.75,0.312 -5.75,0.043 -8.2,1.043 -6.27,2.578 -12.61,5.218 -18.34,8.757 -12.7,7.852 -24.89,7 -37.16,-0.621 -3.32,-2.058 -6.79,-3.847 -10.8,-6.097 -1.81,3.121 -3.08,5.339 -4.2,7.308 12.5,14.973 31.45,19.801 47.71,12.371 7.99,-3.64 15.91,-7.48 23.56,-11.781 3.37,-1.91 5.94,-5.23 8.87,-7.898 -0.48,-1.032 -0.96,-2.051 -1.44,-3.082"
         style="fill:#231f20;fill-opacity:1;fill-rule:nonzero;stroke:none"
         id="path7358" />
    </g>
  </g>
</svg>
