<?xml version="1.0" encoding="UTF-8" standalone="no"?>
<!-- Created with Inkscape (http://www.inkscape.org/) -->

<svg
   version="1.1"
   id="svg2"
   width="65.825317"
   height="14.41681"
   viewBox="0 0 65.825317 14.416809"
   xmlns="http://www.w3.org/2000/svg"
   xmlns:svg="http://www.w3.org/2000/svg">
  <defs
     id="defs6" />
  <g
     id="g10"
     transform="matrix(1.3333333,0,0,-1.3333333,-686.11865,151.3392)">
    <g
       id="g12"
       transform="scale(0.1)">
      <path
         d="m 5507.45,1092.77 c 11.96,10.75 22.13,18.96 35.83,8.16 2.72,2.34 5.06,4.48 7.54,6.43 16.8,13.27 25.4,13.55 42.97,1.28 5.23,-3.66 10.56,-7.28 15.28,-11.55 2.55,-2.3 3.91,-5.93 5.8,-8.96 -0.89,-0.83 -1.79,-1.63 -2.68,-2.45 -5.52,3.98 -10.95,8.11 -16.59,11.93 -5.89,4.03 -11.98,7.78 -19.27,12.46 -8.26,-4.39 -16.44,-8.75 -26.19,-13.96 8.92,-7.22 15.91,-12.86 23.99,-19.4 23.88,7.81 40.58,-8.53 58.66,-20.69 2.83,-1.91 4.55,-5.47 6.79,-8.27 -0.67,-1 -1.35,-2.02 -2.02,-3.02 -4.09,1.45 -8.52,2.32 -12.22,4.45 -5.88,3.37 -11.28,7.55 -16.88,11.39 -13.56,9.29 -27.41,8.48 -40.35,-0.46 -13.46,-9.27 -26.09,-19.79 -39.11,-29.73 -3.84,-2.95 -7.73,-6.24 -12.94,0.48 11.47,18.03 30.21,28.39 46.04,41.66 -9.5,7.77 -18.36,15 -26.97,22.03 -9.13,-0.92 -18.11,-6.64 -37.77,-23.78 1.14,-5.68 10.47,-8.84 4.41,-18.11 -3.73,2.84 -7.53,5.29 -10.81,8.29 -9.36,8.6 -14.97,9.23 -25.41,1.91 -5.89,-4.13 -11.32,-8.95 -17.31,-12.88 -2.9,-1.93 -6.63,-2.59 -11.26,-4.28 5.93,20.39 29.86,35 49.76,31.39 3.3,2.7 7.13,5.84 10.83,8.87 -12.01,8.81 -23.37,17.18 -34.77,25.5 -10.48,7.65 -22.01,7.99 -32.89,2.24 -12.28,-6.49 -23.78,-14.52 -35.48,-22.09 -3.62,-2.34 -6.81,-5.38 -11.14,-8.86 -2.74,2.41 -5.16,4.54 -8.81,7.75 6.18,6.55 11.45,12.13 16.71,17.7 -21.2,19.19 -45.61,19.75 -69.46,1.23 -1.76,2.14 -3.54,4.3 -5.5,6.68 10.65,15.89 25.85,21.35 42.19,17.98 15.22,-3.16 29.51,-10.82 44.22,-16.5 -0.2,-0.73 -0.4,-1.48 -0.59,-2.23 4.54,2.48 9.12,4.87 13.61,7.43 21.56,12.23 41.12,8.71 59.81,-6.63 10.05,-8.25 20.98,-15.41 31.98,-23.39"
         style="fill:#231f20;fill-opacity:1;fill-rule:nonzero;stroke:none"
         id="path7062" />
      <path
         d="m 5156.8,1084.07 c 30.3,40.1 58.62,37.42 98.88,4.68 3.74,2.7 7.56,5.47 11.37,8.23 15.16,10.99 28.29,7.74 42.47,-3.66 4.35,-3.5 7.9,-7.99 12.28,-11.42 4.27,-3.34 8.92,-6.43 13.84,-8.66 4.54,-2.05 8.65,-3.68 8.97,-11.34 -10.44,-1.01 -18.8,1.75 -25.99,8.59 -5.21,4.95 -10.1,10.25 -15.46,15.02 -8.71,7.71 -16.4,8.76 -26.04,2.22 -6.83,-4.64 -12.57,-10.91 -18.74,-16.5 -5.01,-4.55 -9.94,-9.19 -15.67,-14.5 6.6,-6.51 13.08,-12.88 19.79,-19.5 -7.03,-5.37 -10.73,-1.42 -14.31,1.42 -6.55,5.2 -13.18,10.37 -19.11,16.23 -6.58,6.46 -14.14,8.15 -21.86,4.31 -8.05,-4.01 -15.39,-9.51 -22.76,-14.76 -6.77,-4.82 -12.73,-10.97 -19.88,-15.04 -5.67,-3.23 -12.75,-4.85 -18.69,5.22 18.04,1.2 25.75,15.55 37.35,24.91 14.6,11.78 30.92,16.51 49.91,5.5 6.09,5.77 12.28,11.63 18.86,17.86 -10.29,5.93 -19.08,11.41 -28.24,16.17 -13.94,7.25 -27.59,6.83 -40.51,-2.9 -4.77,-3.6 -9.53,-7.36 -14.75,-10.22 -2.66,-1.47 -6.32,-1.1 -11.71,-1.86"
         style="fill:#231f20;fill-opacity:1;fill-rule:nonzero;stroke:none"
         id="path7134" />
    </g>
  </g>
</svg>
