<?xml version="1.0" encoding="UTF-8" standalone="no"?>
<!-- Created with Inkscape (http://www.inkscape.org/) -->

<svg
   version="1.1"
   id="svg2"
   width="46.184021"
   height="16.758301"
   viewBox="0 0 46.184021 16.7583"
   xmlns="http://www.w3.org/2000/svg"
   xmlns:svg="http://www.w3.org/2000/svg">
  <defs
     id="defs6" />
  <g
     id="g10"
     transform="matrix(1.3333333,0,0,-1.3333333,-693.05463,51.570829)">
    <g
       id="g12"
       transform="scale(0.1)">
      <path
         d="m 5491.71,289.414 c 32.69,6.801 46.03,4.762 52.58,-10.16 -27.28,5.93 -51.97,1.391 -75.11,-13.488 -1.87,3.418 -3.05,5.55 -4.64,8.449 5.88,3.941 11.07,7.41 17.49,11.699 -18.13,13.59 -32.23,30.902 -54.64,36.941 -4.77,1.29 -9.64,5.692 -12.52,9.969 -8.41,12.531 -15.86,25.711 -24.86,40.582 -4.7,0.821 -11.15,1.949 -16.87,2.938 -16.73,-24.207 -32.58,-47.149 -49.01,-70.918 7.5,-5.141 15.85,-10.86 24.74,-16.973 32.45,0.344 51.86,-6.469 55.67,-19.637 -16.41,2.739 -33.14,8.559 -49.34,7.348 -16.12,-1.211 -31.7,-9.48 -48.76,-15.07 -5.1,3.812 -2.45,7.91 2.72,10.832 8.31,4.679 17,8.687 26.9,13.66 -10.59,6.738 -20.41,13.91 -31.08,19.469 -6.79,3.539 -12.79,-1.61 -18.57,-5.379 -17.37,-11.321 -34.86,-22.461 -52.43,-33.449 -3.33,-2.082 -7.19,-3.614 -11.01,-4.563 -2.11,-0.527 -4.65,0.652 -7,1.07 -0.19,0.84 -0.37,1.692 -0.56,2.539 3.1,2.204 6.15,4.454 9.3,6.59 18.46,12.582 37.23,24.742 55.33,37.832 10.37,7.508 20.37,10.828 33.12,2.77 20.56,22.051 34.7,48.488 51.64,72.898 20.16,4.293 30.97,-0.937 39.87,-18.718 2.83,-5.668 6.62,-10.848 9.96,-16.25 3.14,-5.079 6.28,-10.149 10.19,-16.469 26.78,-5.91 44.62,-27.512 66.89,-44.512"
         style="fill:#231f20;fill-opacity:1;fill-rule:nonzero;stroke:none"
         id="path7364" />
      <path
         d="m 5268.35,311.055 c -11.34,1.59 -22.13,4.691 -32.72,4.152 -10.35,-0.543 -20.49,-4.781 -32.84,-7.949 -0.47,0.597 -2.44,3.109 -4.88,6.207 16.38,14.883 34.5,16.062 53.4,11.973 7.2,-1.563 16.21,-2.583 17.04,-14.383"
         style="fill:#231f20;fill-opacity:1;fill-rule:nonzero;stroke:none"
         id="path7366" />
    </g>
  </g>
</svg>
