<?xml version="1.0" encoding="UTF-8" standalone="no"?>
<!-- John Grümph
     https://legrumph.org/Terrier/public/chibi/de-chorographia
     CC BY-NC 3.0
     https://creativecommons.org/licenses/by-nc/3.0/fr/ -->
<!-- Created with Inkscape (http://www.inkscape.org/) -->

<svg
   version="1.1"
   id="svg2"
   width="23.09375"
   height="8.3823853"
   viewBox="0 0 23.09375 8.3823849"
   xmlns="http://www.w3.org/2000/svg"
   xmlns:svg="http://www.w3.org/2000/svg">
  <defs
     id="defs6" />
  <g
     id="g10"
     transform="matrix(1.3333333,0,0,-1.3333333,-532.24756,313.79167)">
    <g
       id="g12"
       transform="scale(0.1)">
      <path
         d="m 4165.06,2292.57 c -8.96,-2.55 -13.93,3.69 -19.45,7.56 -11.11,7.76 -21.37,16.77 -32.76,24.07 -18.23,11.69 -36.11,8.57 -51.29,-7.81 5.42,-4.6 10.87,-9.22 16.32,-13.84 -0.6,-1.17 -1.2,-2.33 -1.8,-3.51 -12.24,2.54 -22.81,11.34 -36.48,9.55 -13.99,-1.84 -24.11,-9.43 -34.02,-18.02 -6.52,4.99 -3.18,9.08 -0.14,12.62 7.33,8.53 16.79,13.35 27.98,14.49 3.53,0.36 7.14,0.06 10.15,0.06 4.76,5.87 8.96,11.04 13.15,16.19 -13.76,13.55 -33.74,11.28 -59.34,-6.58 -6.96,4.77 -7.22,7.16 -1.47,13.24 13.52,14.27 46.02,17.32 62.36,5.77 2.9,-2.05 5.61,-4.39 9,-7.05 27.58,13.84 48.06,-1.79 68.18,-17.46 9.72,-7.57 18.48,-16.36 27.55,-24.72 1.01,-0.94 1.25,-2.7 2.06,-4.56"
         style="fill:#231f20;fill-opacity:1;fill-rule:nonzero;stroke:none"
         id="path7142" />
    </g>
  </g>
</svg>
