<?xml version="1.0" encoding="UTF-8" standalone="no"?>
<!-- Created with Inkscape (http://www.inkscape.org/) -->

<svg
   version="1.1"
   id="svg2"
   width="39.700012"
   height="15.434144"
   viewBox="0 0 39.700012 15.434143"
   xmlns="http://www.w3.org/2000/svg"
   xmlns:svg="http://www.w3.org/2000/svg">
  <defs
     id="defs6" />
  <g
     id="g10"
     transform="matrix(1.3333333,0,0,-1.3333333,-683.09198,123.92789)">
    <g
       id="g12"
       transform="scale(0.1)">
      <path
         d="m 5310.76,917.813 c -9.82,-0.188 -11.55,-5.45 -13.71,-10.161 -3.48,-7.629 -6.94,-15.269 -10.33,-22.949 -3.38,-7.629 -6.65,-15.308 -10.25,-23.598 6.02,-14.39 24.48,-16.121 34.61,-28.652 -8.21,-4.277 -14.47,-1.129 -19.12,2.422 -11.32,8.668 -22.54,17.738 -32.29,28.07 -8.86,9.348 -12.88,11.578 -23.17,3.84 -9.74,-7.351 -18.44,-16.09 -27.58,-24.191 6.88,-8.231 19.59,-5.391 22.87,-17.559 -3.02,-0.551 -5.82,-1.98 -7.9,-1.269 -11.28,3.859 -22.92,7.238 -33.43,12.738 -12.11,6.332 -22.99,6.082 -33.66,-1.719 -6.76,-4.922 -12.81,-10.82 -19.35,-16.062 -4.34,-3.481 -8.92,-7.481 -14.26,-1.289 18.38,31.839 42.39,40.789 73.84,27.511 8.2,9 16.47,18.078 24.74,27.16 -20.88,19.637 -34.25,21.231 -55.08,8.848 -4.46,-2.629 -8.27,-6.34 -12.75,-8.937 -2.97,-1.743 -6.59,-2.391 -11.01,-3.911 3.41,15.5 21.45,28.637 40.3,31.27 19.75,2.77 32.44,-10.891 48.2,-20.352 11.89,5.102 23.88,3.77 34.37,-6.578 6.28,14.578 13.29,28.078 17.92,42.36 5.28,16.289 28.24,20.449 38.16,5.039 4.68,-7.25 8.84,-14.91 12.56,-22.711 2.74,-5.738 5,-11.848 6.38,-18.039 3.72,-16.649 13.12,-26.578 29.62,-32.559 14.85,-5.383 28.32,-14.64 42.2,-22.543 3.19,-1.808 5.55,-5.066 8.3,-7.656 -0.49,-0.871 -0.97,-1.75 -1.46,-2.633 -3.51,1.082 -7.22,1.77 -10.52,3.332 -18.4,8.688 -36.7,17.61 -55.04,26.438 -8.98,4.34 -15.77,10.75 -19.29,20.312 -4,10.867 -7.7,21.867 -12.28,32.5 -3.21,7.449 -7.67,14.367 -11.59,21.528"
         style="fill:#231f20;fill-opacity:1;fill-rule:nonzero;stroke:none"
         id="path7064" />
    </g>
  </g>
</svg>
