<?xml version="1.0" encoding="UTF-8" standalone="no"?>
<!-- John Grümph
     https://legrumph.org/Terrier/public/chibi/de-chorographia
     CC BY-NC 3.0
     https://creativecommons.org/licenses/by-nc/3.0/fr/ -->
<!-- Created with Inkscape (http://www.inkscape.org/) -->

<svg
   version="1.1"
   id="svg2"
   width="32.570618"
   height="11.47339"
   viewBox="0 0 32.570618 11.473389"
   xmlns="http://www.w3.org/2000/svg"
   xmlns:svg="http://www.w3.org/2000/svg">
  <defs
     id="defs6" />
  <g
     id="g10"
     transform="matrix(1.3333333,0,0,-1.3333333,-542.68268,46.285917)">
    <g
       id="g12"
       transform="scale(0.1)">
      <path
         d="m 4217.59,315.91 c -14.99,-2.902 -30.58,-6.019 -46.2,-8.883 -9.02,-1.66 -18.09,-3.347 -27.21,-4.129 -3.54,-0.308 -7.29,1.821 -10.96,2.84 0.06,0.91 0.13,1.821 0.19,2.731 2.77,1.832 5.56,3.672 8.36,5.531 -17.66,17.82 -30.1,17.438 -50.44,6.07 -3.84,-2.14 -7.65,-4.382 -11.66,-6.132 -4.95,-2.161 -8.52,-0.848 -9.55,4.871 25.32,28.039 53.24,26.871 84.76,-3.629 23.74,2.258 46.65,12.679 71.25,10.449 2.38,-4.43 4.22,-7.852 6.07,-11.281 9.32,1.382 18.6,2.761 28.62,4.25 6.73,-10.489 12.84,-20.02 18.95,-29.547 -0.93,-0.813 -1.86,-1.633 -2.79,-2.442 -11.14,1.352 -13.01,13.5 -21.27,20.852 -6.99,-1.461 -15,-3.152 -22.7,-4.773 -1.96,-12.93 -0.97,-14.79 8.64,-19.95 4.34,-2.328 8.31,-5.328 13.19,-8.5 -7.99,-4.879 -23.61,-0.488 -28.13,8.782 -4.55,9.328 -5.8,20.257 -9.12,32.89"
         style="fill:#231f20;fill-opacity:1;fill-rule:nonzero;stroke:none"
         id="path7300" />
      <path
         d="m 4186.05,281.934 c -5.46,-0.411 -12.19,-1.168 -18.94,-1.348 -18.73,-0.473 -37.5,-0.922 -56.25,-0.84 -3.84,0.02 -7.66,2.399 -11.52,3.688 0.14,1.011 0.25,2.011 0.37,3 2.84,0.613 5.68,1.582 8.54,1.75 21.93,1.222 43.89,1.769 65.77,3.621 10.48,0.89 18.75,-0.801 25.32,-9.481 2.87,-3.758 7.23,-6.347 10.34,-9.949 2.64,-3.039 4.45,-6.789 5.46,-11.281 -13.05,1.883 -18.43,13.691 -29.09,20.84"
         style="fill:#231f20;fill-opacity:1;fill-rule:nonzero;stroke:none"
         id="path7302" />
      <path
         d="m 4312.45,311.789 c -4,3.129 -8,6.277 -13.72,10.758 -1.32,0.07 -4.76,0.25 -9.19,0.48 1.32,-5.211 2.4,-9.48 4.13,-16.308 -16.86,4.82 -16.13,22.929 -31.14,30.679 -6.88,-1.152 -16.89,-3.039 -26.97,-4.402 -6.65,-0.887 -14.25,-3.59 -19.25,7.563 16.44,1.711 30.98,8.839 46.35,5.871 6.97,-1.352 12.92,-7.981 21.61,-13.703 20.46,-0.071 24.65,-2.387 30.13,-18.457 -0.65,-0.821 -1.3,-1.653 -1.95,-2.481"
         style="fill:#231f20;fill-opacity:1;fill-rule:nonzero;stroke:none"
         id="path7304" />
    </g>
  </g>
</svg>
