<?xml version="1.0" encoding="UTF-8" standalone="no"?>
<!-- John Grümph
     https://legrumph.org/Terrier/public/chibi/de-chorographia
     CC BY-NC 3.0
     https://creativecommons.org/licenses/by-nc/3.0/fr/ -->
<!-- Created with Inkscape (http://www.inkscape.org/) -->

<svg
   version="1.1"
   id="svg2"
   width="39.513306"
   height="10.98645"
   viewBox="0 0 39.513306 10.98645"
   xmlns="http://www.w3.org/2000/svg"
   xmlns:svg="http://www.w3.org/2000/svg">
  <g transform="matrix(1.3333333,0,0,-1.3333333,-415.25067,316.39579)">
    <g transform="scale(0.1)">
      <path d="m 3114.38,2295.02 c 24.37,8.77 39.64,28.98 58.53,44.65 1.84,1.53 3.61,3.18 5.57,4.54 18.63,12.89 30.97,21.46 58.52,4.64 15.71,14.43 32.84,26.97 56.07,23.55 22.54,-3.32 37.32,-18.56 51,-35.82 3.07,0.27 6.18,0.73 9.29,0.75 5.16,0.04 11.02,1.3 15.39,-0.63 14.27,-6.35 28.02,-13.91 41.98,-21 -0.07,-1.03 -0.14,-2.06 -0.21,-3.08 -2.61,-0.73 -5.63,-2.69 -7.72,-1.96 -6.32,2.24 -12.71,4.84 -18.25,8.53 -16.46,10.95 -35.25,11.04 -51.09,-0.53 -1.91,-1.39 -3.82,-2.8 -5.66,-4.17 -6.59,5.84 -6.59,5.84 6.08,19.44 -25.83,33.67 -56.15,36.49 -86.38,6.3 9.86,-6.36 19.04,-13.24 29.05,-18.46 9.49,-4.95 19.93,-8.05 29.81,-12.26 2.96,-1.26 5.5,-3.51 9.1,-5.89 -7.23,-6.08 -13.37,-3.92 -19.26,-2.06 -18.11,5.72 -34.24,15.11 -49.41,26.38 -6.74,5 -13.88,9.42 -20.58,14.44 -8.71,6.51 -18.25,7.19 -26.94,1.72 -13.11,-8.24 -25.43,-17.77 -37.97,-26.91 -10.57,-7.73 -20.73,-16.06 -31.64,-23.28 -3.66,-2.43 -9.05,-2.3 -13.64,-3.34 -0.54,1.48 -1.09,2.97 -1.64,4.45" style="fill:#231f20;fill-opacity:1;fill-rule:nonzero;stroke:none" />
    </g>
  </g>
</svg>
