<?xml version="1.0" encoding="UTF-8" standalone="no"?>
<!-- John Grümph
     https://legrumph.org/Terrier/public/chibi/de-chorographia
     CC BY-NC 3.0
     https://creativecommons.org/licenses/by-nc/3.0/fr/ -->
<!-- Created with Inkscape (http://www.inkscape.org/) -->

<svg
   version="1.1"
   id="svg2"
   width="31.665314"
   height="11.305543"
   viewBox="0 0 31.665314 11.305542"
   xmlns="http://www.w3.org/2000/svg"
   xmlns:svg="http://www.w3.org/2000/svg">
  <defs
     id="defs6" />
  <g
     id="g10"
     transform="matrix(1.3333333,0,0,-1.3333333,-496.72,316.7161)">
    <g
       id="g12"
       transform="scale(0.1)">
      <path
         d="m 3725.4,2296.58 c 16.55,13.25 32.34,25.89 48.67,38.96 -10.64,5.03 -17.68,3.9 -36.82,-5.43 -1.81,2.04 -3.89,4.38 -5.83,6.58 12.61,14.59 32.08,17.44 55.95,8.64 13.85,9.31 29.4,14.69 47.17,9.1 10.14,11.26 21.97,18.52 37.07,20.5 12.96,1.7 23.87,-1.44 32.69,-10.84 8.73,-9.33 16.49,-19.6 25.56,-28.55 8.44,-8.34 17.96,-15.59 27.18,-23.1 1.48,-1.2 3.88,-1.29 5.85,-1.89 -1.13,-1.57 -2.27,-3.15 -3.41,-4.72 -4,1.51 -8.74,2.14 -11.89,4.7 -11.76,9.55 -23.04,19.7 -34.42,29.72 -2.98,2.65 -5.65,5.66 -8.5,8.46 -17.44,17.17 -35.52,17.26 -55.42,-0.63 18.93,-15.36 37.71,-30.6 57.75,-46.86 -10.15,-3.48 -15.88,1.58 -21.41,5.38 -10.86,7.46 -21.28,15.58 -31.74,23.6 -21.76,16.7 -35.03,17.5 -57.74,2.5 -7.97,-5.26 -15.22,-11.61 -22.96,-17.25 -10.32,-7.52 -20.5,-15.3 -31.29,-22.07 -7.15,-4.5 -8.54,-3.68 -16.46,3.2"
         style="fill:#231f20;fill-opacity:1;fill-rule:nonzero;stroke:none"
         id="path7104" />
    </g>
  </g>
</svg>
