<?xml version="1.0" encoding="UTF-8" standalone="no"?>
<!-- Created with Inkscape (http://www.inkscape.org/) -->

<svg
   version="1.1"
   id="svg2"
   width="22.954712"
   height="12.203858"
   viewBox="0 0 22.954712 12.203858"
   xmlns="http://www.w3.org/2000/svg"
   xmlns:svg="http://www.w3.org/2000/svg">
  <defs
     id="defs6" />
  <g
     id="g10"
     transform="matrix(1.3333333,0,0,-1.3333333,-746.45996,47.016996)">
    <g
       id="g12"
       transform="scale(0.1)">
      <path
         d="m 5602.38,311.348 c -4.84,5.082 -2.74,9.492 1.1,11.613 6.46,3.539 13.51,7.199 20.63,8.019 11.4,1.321 23.06,0.348 36.81,0.348 12.3,17.301 32.31,22.082 54.44,21.199 4.73,-0.187 9.78,-0.699 14.03,-2.578 3.2,-1.398 5.36,-5.211 7.27,-9.519 -23,1.121 -45.4,4.148 -64.36,-13.18 5.92,-5.18 11.21,-9.812 17.59,-15.391 12.86,1.129 26.82,0.879 37.7,-8.851 31.15,4.211 41.38,0.82 43.02,-16.02 -20.05,10.723 -37.97,6.2 -54.81,-7.269 -2.52,3.179 -4.34,5.48 -6.3,7.949 2.5,3.512 4.52,6.352 7.2,10.121 -19.28,6.461 -35.25,-0.629 -51.84,-8.789 5.95,-8.332 21.13,-4.621 21.12,-20.172 -4.16,0.871 -7.48,1.313 -10.62,2.281 -6.5,1.989 -12.76,4.879 -19.36,6.301 -14.22,3.07 -27.8,1.559 -39.86,-7.57 -3.76,-2.86 -7.76,-5.402 -12.62,-8.742 -1.87,3.019 -3.35,5.422 -5.07,8.191 13.36,13.828 27.4,23.52 45.65,21.149 11.7,6.64 22.31,12.671 32.93,18.703 -14.65,14.117 -48.72,15.297 -74.65,2.207"
         style="fill:#231f20;fill-opacity:1;fill-rule:nonzero;stroke:none"
         id="path7118" />
    </g>
  </g>
</svg>
