<?xml version="1.0" encoding="UTF-8" standalone="no"?>
<!-- Created with Inkscape (http://www.inkscape.org/) -->

<svg
   version="1.1"
   id="svg2"
   width="42.589294"
   height="13.983888"
   viewBox="0 0 42.589294 13.983887"
   xmlns="http://www.w3.org/2000/svg"
   xmlns:svg="http://www.w3.org/2000/svg">
  <defs
     id="defs6" />
  <g
     id="g10"
     transform="matrix(1.3333333,0,0,-1.3333333,-723.92133,198.85233)">
    <g
       id="g12"
       transform="scale(0.1)">
      <path
         d="m 5585.86,1423.81 c 12.44,-12.88 31.36,-10.66 42.15,-23.98 -5.65,-5.87 -10.71,-4.06 -15.42,-2.14 -12.93,5.27 -25.87,10.58 -38.57,16.38 -18.77,8.57 -36.97,7.96 -55.35,-1.33 -15.33,-7.75 -31.11,-14.58 -46.54,-22.14 -11.03,-5.4 -22.62,-4.13 -34.13,-3.46 -2.18,0.13 -4.23,2.35 -8.59,4.96 5.35,1.11 7.91,2.2 10.41,2.07 13.71,-0.67 25.82,4.09 37.67,10.25 13.12,6.81 26.6,12.95 39.55,20.06 15.69,8.62 31.75,9.94 48.61,4.61 1.86,-0.58 3.79,-0.98 6.3,-1.63 12.08,12.79 23.84,25.77 36.24,38.12 7.05,6.99 14.6,13.72 22.86,19.17 14.94,9.85 25.47,8.53 39.29,-2.53 12.77,-10.21 22.2,-22.89 28.86,-37.65 6.92,-15.34 17.79,-24.69 34.99,-27.37 10.78,-1.69 10.6,-2.84 14.64,-10.25 -1.27,-0.78 -2.68,-2.4 -3.83,-2.24 -19.82,2.76 -38.45,7.64 -49.41,26.96 -5.9,10.38 -11.76,20.97 -19.09,30.33 -16.28,20.83 -25.36,22.33 -45.65,5.44 -15.9,-13.22 -29.84,-28.78 -44.99,-43.63"
         style="fill:#231f20;fill-opacity:1;fill-rule:nonzero;stroke:none"
         id="path7368" />
      <path
         d="m 5510.5,1445.45 c 0.68,3.17 0.26,7.51 2.21,9.35 22.14,20.98 40.24,21.28 65.48,4.94 1.67,-1.08 2.29,-3.76 4.97,-8.42 -6.01,0.88 -10.16,0.33 -12.81,2.07 -16.93,11.15 -32.3,8.3 -47.17,-3.95 -2.68,-2.2 -5.99,-3.65 -9.01,-5.45 -1.22,0.49 -2.45,0.98 -3.67,1.46"
         style="fill:#231f20;fill-opacity:1;fill-rule:nonzero;stroke:none"
         id="path7370" />
    </g>
  </g>
</svg>
