<?xml version="1.0" encoding="UTF-8" standalone="no"?>
<!-- John Grümph
     https://legrumph.org/Terrier/public/chibi/de-chorographia
     CC BY-NC 3.0
     https://creativecommons.org/licenses/by-nc/3.0/fr/ -->
<!-- Created with Inkscape (http://www.inkscape.org/) -->

<svg
   version="1.1"
   id="svg2"
   width="17.351685"
   height="27.834642"
   viewBox="0 0 17.351685 27.834641"
   xmlns="http://www.w3.org/2000/svg"
   xmlns:svg="http://www.w3.org/2000/svg">
  <defs
     id="defs6" />
  <g
     id="g10"
     transform="matrix(1.3333333,0,0,-1.3333333,-543.64002,891.77465)">
    <g
       id="g12"
       transform="scale(0.1)">
      <path
         d="m 4084.92,6483.3 h 106.25 c 0,0 -20.62,25.63 -8.12,98.75 -27.9,26.3 -66.88,-3.12 -66.88,-3.12 l -10,-18.13 c 0,0 -2.5,-53.12 -21.25,-77.5"
         style="fill:#ffffff;fill-opacity:1;fill-rule:nonzero;stroke:none"
         id="path3918" />
      <path
         d="m 4084.92,6483.3 v -3.75 H 4199 l -4.91,6.1 -0.76,-0.61 0.77,0.6 -0.01,0.01 -0.76,-0.61 0.77,0.6 c -0.21,0.3 -11.31,14.74 -11.33,52.83 0,11.91 1.1,26.13 3.97,42.95 l 0.34,1.98 -1.47,1.38 c -9.31,8.82 -20.11,11.98 -30.11,11.95 -22.39,-0.11 -41.28,-14.67 -41.6,-14.81 l -0.63,-0.48 -10.81,-19.59 -0.04,-0.87 c 0,-0.01 -0.15,-3.21 -0.66,-8.49 -0.79,-7.93 -2.4,-20.41 -5.52,-33.06 -3.1,-12.64 -7.8,-25.44 -14.3,-33.84 l -4.64,-6.04 h 7.62 v 3.75 l 2.97,-2.29 c 10.06,13.18 15.31,32.92 18.38,49.51 3.01,16.59 3.64,30 3.64,30.1 l -3.74,0.18 3.28,-1.81 10,18.12 -3.28,1.82 2.26,-3 0.73,0.53 c 3.53,2.53 19.7,12.85 36.34,12.77 8.51,-0.03 17.06,-2.48 24.97,-9.9 l 2.58,2.72 -3.71,0.63 c -2.94,-17.19 -4.07,-31.84 -4.07,-44.21 -0.02,-40.83 12.45,-56.89 12.98,-57.52 l 2.92,2.35 v 3.75 h -106.25 v -3.75 l 2.97,-2.29"
         style="fill:#231f20;fill-opacity:1;fill-rule:nonzero;stroke:none"
         id="path3920" />
      <path
         d="m 4084.92,6590.18 13.75,-36.88 c 0,0 96.88,0 103.13,6.88 6.25,6.87 5.62,30 5.62,30 0,0 -26.25,5 -34.37,23.13 -8.13,18.12 -14.38,75 -14.38,75 0,0 -6.88,-68.13 -73.75,-98.13"
         style="fill:#231f20;fill-opacity:1;fill-rule:nonzero;stroke:none"
         id="path3922" />
      <path
         d="m 4135.02,6513.62 c -3.81,0 -6.9,-3.09 -6.9,-6.89 v -20.8 h 13.79 v 20.8 c 0,3.8 -3.09,6.89 -6.89,6.89"
         style="fill:#231f20;fill-opacity:1;fill-rule:nonzero;stroke:none"
         id="path3924" />
      <path
         d="m 4115.76,6531.89 h 3.5352 v 12.5 h -3.5352 z"
         style="fill:#231f20;fill-opacity:1;fill-rule:nonzero;stroke:none"
         id="path3926" />
      <path
         d="m 4154.58,6499.78 h 3.5352 v 12.5 h -3.5352 z"
         style="fill:#231f20;fill-opacity:1;fill-rule:nonzero;stroke:none"
         id="path3928" />
      <path
         d="m 4159.58,6499.78 h 3.5352 v 12.5 h -3.5352 z"
         style="fill:#231f20;fill-opacity:1;fill-rule:nonzero;stroke:none"
         id="path3930" />
      <path
         d="m 4164.51,6499.78 h 3.5352 v 12.5 h -3.5352 z"
         style="fill:#231f20;fill-opacity:1;fill-rule:nonzero;stroke:none"
         id="path3932" />
      <path
         d="m 4150.36,6531.89 h 3.543 v 12.5 h -3.543 z"
         style="fill:#231f20;fill-opacity:1;fill-rule:nonzero;stroke:none"
         id="path3934" />
      <path
         d="m 4155.28,6531.89 h 3.5391 v 12.5 h -3.5391 z"
         style="fill:#231f20;fill-opacity:1;fill-rule:nonzero;stroke:none"
         id="path3936" />
    </g>
  </g>
</svg>
