<?xml version="1.0" encoding="UTF-8" standalone="no"?>
<!-- Created with Inkscape (http://www.inkscape.org/) -->

<svg
   version="1.1"
   id="svg2"
   width="23.041321"
   height="23.337343"
   viewBox="0 0 23.041321 23.337342"
   xmlns="http://www.w3.org/2000/svg"
   xmlns:svg="http://www.w3.org/2000/svg">
  <defs
     id="defs6" />
  <g
     id="g10"
     transform="matrix(1.3333333,0,0,-1.3333333,-726.00666,762.67596)">
    <g
       id="g12"
       transform="scale(0.1)">
      <path
         d="m 5548.53,5581.21 h -3.5391 v 12.5 h 3.5391 z m -4.93,0 h -3.543 v 12.5 h 3.543 z m -13.13,-22.03 h -3.5391 v 12.5 h 3.5391 z m -4.92,0 h -3.5391 v 12.5 h 3.5391 z m -5,0 h -3.5391 v 12.5 h 3.5391 z m 3.23,34.53 h 3.5391 v -12.5 h -3.5391 z m 55.52,4.13 -67.02,2.15 v -47.45 h 43.05 v 16.93 c 0,3.81 3.09,6.89 6.9,6.89 3.81,0 6.89,-3.08 6.89,-6.89 v -16.93 h 14.54 c -2.64,6.48 -6.5,17.99 -6.53,30.65 0,4.8 0.68,9.78 2.17,14.65"
         style="fill:#ffffff;fill-opacity:1;fill-rule:nonzero;stroke:none"
         id="path3460" />
      <path
         d="m 5497.21,5643.79 h 3.5391 v -12.5 h -3.5391 z m -6.01,18.97 h -3.5391 v 12.5 h 3.5391 z m -1.74,-103.75 h -3.5391 v 12.5 h 3.5391 z m -4.92,0 h -3.5391 v 12.5 h 3.5391 z m -5,0 h -3.5391 v 12.5 h 3.5391 z m -0.35,54.86 h 3.5391 v -12.5 h -3.5391 z m 4.92,0 h 3.5391 v -12.5 h -3.5391 z m -17.89,-54.69 h -3.5391 v 12.5 h 3.5391 z m -4.92,0 h -3.5391 v 12.5 h 3.5391 z m 45.98,78.36 h 0.14 l -2.37,55.6 h -21.18 c -0.6,-5.1 -1.47,-12.51 -2.45,-21.1 -1.83,-15.96 -4.03,-35.67 -5.48,-50.63 -0.98,-9.94 -1.62,-17.92 -1.61,-20.84 l 0.02,-0.71 0.64,-2.48 -15.05,-9.41 -0.44,-0.42 c -0.54,-0.6 -1.49,-1.91 -2.54,-4.5 -1.93,-4.79 -4.07,-14.04 -4.35,-30.51 h 54.67"
         style="fill:#ffffff;fill-opacity:1;fill-rule:nonzero;stroke:none"
         id="path3462" />
      <path
         d="m 5456.96,5583.05 c 1.04,2.58 2,3.9 2.54,4.5 l 0.44,0.42 15.05,9.41 -0.65,2.48 -0.02,0.7 c -0.01,2.92 0.64,10.91 1.61,20.84 1.46,14.97 3.66,34.68 5.48,50.64 0.99,8.59 1.86,16 2.45,21.1 h 21.19 l 2.37,-55.6 h -0.15 v -85 h -54.67 c 0.29,16.47 2.43,25.72 4.36,30.51 m 112.17,-30.51 v 16.93 c 0,3.8 -3.1,6.89 -6.91,6.89 -3.8,0 -6.89,-3.09 -6.89,-6.89 v -16.93 h -43.06 v 47.45 l 67.02,-2.15 c -1.48,-4.88 -2.16,-9.85 -2.16,-14.65 0.03,-12.66 3.88,-24.17 6.53,-30.65 z m 23.3,-1.38 c -1.53,3.13 -7.84,17.37 -7.8,32.03 0,4.9 0.75,9.79 2.44,14.4 l 30.79,-0.99 c 0,0 -48.52,54.18 -103.34,50.49 l -1.96,46.05 h 6.09 c 0,14.87 -11.19,26.93 -25,26.93 -13.81,0 -25,-12.06 -25,-26.93 h 7.67 c -0.99,-8.41 -2.63,-22.45 -4.27,-37.17 -1.3,-11.69 -2.6,-23.81 -3.58,-33.84 -0.93,-9.66 -1.57,-17.16 -1.63,-21 l -10.66,-6.66 0.02,-0.02 c -1.29,-0.72 -3.9,-2.83 -6.19,-8.6 -2.61,-6.49 -4.95,-17.54 -4.96,-37.06 v -3.75 h 3.75 146.79 l -2.84,5.48"
         style="fill:#231f20;fill-opacity:1;fill-rule:nonzero;stroke:none"
         id="path3464" />
      <path
         d="m 5540.07,5581.21 h 3.5391 v 12.5 h -3.5391 z"
         style="fill:#231f20;fill-opacity:1;fill-rule:nonzero;stroke:none"
         id="path3466" />
      <path
         d="m 5544.99,5581.21 h 3.5352 v 12.5 h -3.5352 z"
         style="fill:#231f20;fill-opacity:1;fill-rule:nonzero;stroke:none"
         id="path3468" />
      <path
         d="m 5523.77,5581.21 h 3.5391 v 12.5 h -3.5391 z"
         style="fill:#231f20;fill-opacity:1;fill-rule:nonzero;stroke:none"
         id="path3470" />
      <path
         d="m 5457.76,5559.18 h 3.5352 v 12.5 h -3.5352 z"
         style="fill:#231f20;fill-opacity:1;fill-rule:nonzero;stroke:none"
         id="path3472" />
      <path
         d="m 5462.69,5559.18 h 3.5391 v 12.5 h -3.5391 z"
         style="fill:#231f20;fill-opacity:1;fill-rule:nonzero;stroke:none"
         id="path3474" />
      <path
         d="m 5487.66,5662.76 h 3.5391 v 12.5 h -3.5391 z"
         style="fill:#231f20;fill-opacity:1;fill-rule:nonzero;stroke:none"
         id="path3476" />
      <path
         d="m 5476,5559.01 h 3.5391 v 12.5 H 5476 Z"
         style="fill:#231f20;fill-opacity:1;fill-rule:nonzero;stroke:none"
         id="path3478" />
      <path
         d="m 5481.01,5559.01 h 3.5352 v 12.5 h -3.5352 z"
         style="fill:#231f20;fill-opacity:1;fill-rule:nonzero;stroke:none"
         id="path3480" />
      <path
         d="m 5485.93,5559.01 h 3.5391 v 12.5 h -3.5391 z"
         style="fill:#231f20;fill-opacity:1;fill-rule:nonzero;stroke:none"
         id="path3482" />
      <path
         d="m 5479.19,5601.37 h 3.5391 v 12.5 h -3.5391 z"
         style="fill:#231f20;fill-opacity:1;fill-rule:nonzero;stroke:none"
         id="path3484" />
      <path
         d="m 5484.12,5601.37 h 3.5391 v 12.5 h -3.5391 z"
         style="fill:#231f20;fill-opacity:1;fill-rule:nonzero;stroke:none"
         id="path3486" />
      <path
         d="m 5497.21,5631.29 h 3.5391 v 12.5 h -3.5391 z"
         style="fill:#231f20;fill-opacity:1;fill-rule:nonzero;stroke:none"
         id="path3488" />
      <path
         d="m 5517,5559.18 h 3.5391 v 12.5 H 5517 Z"
         style="fill:#231f20;fill-opacity:1;fill-rule:nonzero;stroke:none"
         id="path3490" />
      <path
         d="m 5522,5559.18 h 3.5391 v 12.5 H 5522 Z"
         style="fill:#231f20;fill-opacity:1;fill-rule:nonzero;stroke:none"
         id="path3492" />
      <path
         d="m 5526.92,5559.18 h 3.5352 v 12.5 h -3.5352 z"
         style="fill:#231f20;fill-opacity:1;fill-rule:nonzero;stroke:none"
         id="path3494" />
    </g>
  </g>
</svg>
