<?xml version="1.0" encoding="UTF-8" standalone="no"?>
<!-- Created with Inkscape (http://www.inkscape.org/) -->

<svg
   version="1.1"
   id="svg2"
   width="21.776855"
   height="37.221313"
   viewBox="0 0 21.776855 37.221312"
   xmlns="http://www.w3.org/2000/svg"
   xmlns:svg="http://www.w3.org/2000/svg">
  <defs
     id="defs6" />
  <g
     id="g10"
     transform="matrix(1.3333333,0,0,-1.3333333,-454.91794,715.33065)">
    <g
       id="g12"
       transform="scale(0.1)">
      <path
         d="m 3500.38,5224.76 h 39.03 l -0.02,2.39 h -38.58 z"
         style="fill:#ffffff;fill-opacity:1;fill-rule:nonzero;stroke:none"
         id="path2582" />
      <path
         d="m 3543.96,5131.13 h -3.5391 v 12.5 h 3.5391 z m -10.44,69.24 h -3.5391 v 12.5 h 3.5391 z m -4.93,0 h -3.5391 v 12.5 h 3.5391 z m -0.77,-99.11 h -3.5391 v 12.5 h 3.5391 z m -4.23,99.11 h -3.5391 v 12.5 h 3.5391 z m -0.69,-99.11 h -3.5391 v 12.5 h 3.5391 z m -41.1,0 h -3.5391 v 12.5 h 3.5391 z m -4.93,0 h -3.5391 v 12.5 h 3.5391 z m -5,0 h -3.5391 v 12.5 h 3.5391 z m -35.33,0 h -3.5391 v 12.5 h 3.5391 z m 80.36,56.85 h -3.5391 v 12.5 h 3.5391 z m -4.92,0 h -3.5391 v 12.5 h 3.5391 z m 32.81,6.6 c -1.57,5.98 -2.67,13.01 -3.46,20.44 -1.24,11.55 -1.72,23.99 -1.88,34.61 h -39.96 l -8.88,-49.5 c 0.62,-4.85 2.9,-10.88 8.81,-17.78 15.22,-17.71 20.63,-21.25 20.63,-21.25 0,0 4.17,-18.75 -50,-5.83 -3.71,-1.95 -31.16,-4.09 -46.99,-2.12 -2.41,-3.78 -3.24,-7.52 -3.28,-11.17 -0.08,-8.12 4.62,-15.83 6.72,-18.79 h 20.81 v 17.03 c 0,3.81 3.1,6.89 6.91,6.89 3.8,0 6.89,-3.08 6.89,-6.89 v -17.03 h 94.13 c 0.3,1.75 0.67,4.16 1.05,7.08 0.8,6.11 1.6,14.27 1.59,22.37 0.01,5.82 -0.41,11.6 -1.46,16.48 -1.05,4.9 -2.77,8.82 -4.93,11.07 -3.2,3.47 -5.1,8.41 -6.7,14.39"
         style="fill:#ffffff;fill-opacity:1;fill-rule:nonzero;stroke:none"
         id="path2584" />
      <path
         d="m 3520.05,5239.98 h -24.29 l -1.98,-7.83 h 45.62 c 0.02,3.07 0.05,5.7 0.09,7.83"
         style="fill:#ffffff;fill-opacity:1;fill-rule:nonzero;stroke:none"
         id="path2586" />
      <path
         d="m 3493.78,5232.15 1.98,7.83 h 43.73 c -0.04,-2.13 -0.08,-4.75 -0.09,-7.83 z m 45.62,-5 0.01,-2.39 h -39.03 l 0.43,2.39 z m 18.48,-104.38 c 0.01,-8.1 -0.79,-16.26 -1.59,-22.37 -0.38,-2.92 -0.75,-5.33 -1.05,-7.08 h -94.13 v 17.03 c 0,3.81 -3.09,6.89 -6.89,6.89 -3.81,0 -6.9,-3.08 -6.9,-6.89 v -17.03 h -20.82 c -2.09,2.96 -6.8,10.67 -6.72,18.79 0.04,3.65 0.88,7.39 3.28,11.17 15.83,-1.97 43.28,0.17 46.99,2.12 54.17,-12.92 50,5.83 50,5.83 0,0 -5.41,3.54 -20.63,21.25 -5.91,6.9 -8.19,12.93 -8.81,17.78 l 8.88,49.5 h 39.96 c 0.16,-10.62 0.64,-23.06 1.88,-34.61 0.79,-7.43 1.89,-14.46 3.46,-20.44 1.6,-5.98 3.5,-10.92 6.7,-14.39 2.16,-2.25 3.88,-6.17 4.93,-11.07 1.05,-4.88 1.47,-10.66 1.46,-16.48 m 0.92,140.55 c 26.25,5.83 17.92,41.66 -3.33,48.75 -21.25,7.08 -35.42,52.91 -35.42,52.91 0,0 -14.16,-45.83 -35.41,-52.91 -21.25,-7.09 -29.59,-42.92 -3.34,-48.75 26.25,-5.84 -7.5,-23.34 -7.5,-23.34 h 14.23 l -4.03,-15.83 h 8.66 l -7.13,-39.72 c -16.65,-6.76 -75.29,-49.42 -73.61,-56.74 0.27,-1.13 1.54,-2.02 3.44,-2.74 -2.21,-4.31 -3.11,-8.71 -3.08,-12.84 0.12,-14.04 9.31,-24.64 9.49,-24.96 l 1.12,-1.33 h 138.59 l 0.59,3.02 c 0.02,0.14 3.31,16.79 3.31,33.93 0,6.17 -0.42,12.4 -1.63,18.06 -1.23,5.65 -3.21,10.8 -6.81,14.64 -1.63,1.66 -3.52,5.73 -4.9,11.14 -4.3,16.32 -5.18,44.07 -5.16,61.76 0,4.72 0.05,8.69 0.11,11.61 h 19.31 c 0,0 -33.75,17.5 -7.5,23.34"
         style="fill:#231f20;fill-opacity:1;fill-rule:nonzero;stroke:none"
         id="path2588" />
      <path
         d="m 3468.33,5101.26 h 3.5352 v 12.5 h -3.5352 z"
         style="fill:#231f20;fill-opacity:1;fill-rule:nonzero;stroke:none"
         id="path2590" />
      <path
         d="m 3473.33,5101.26 h 3.5352 v 12.5 h -3.5352 z"
         style="fill:#231f20;fill-opacity:1;fill-rule:nonzero;stroke:none"
         id="path2592" />
      <path
         d="m 3478.25,5101.26 h 3.5391 v 12.5 h -3.5391 z"
         style="fill:#231f20;fill-opacity:1;fill-rule:nonzero;stroke:none"
         id="path2594" />
      <path
         d="m 3519.37,5101.26 h 3.5391 v 12.5 h -3.5391 z"
         style="fill:#231f20;fill-opacity:1;fill-rule:nonzero;stroke:none"
         id="path2596" />
      <path
         d="m 3524.29,5101.26 h 3.5391 v 12.5 h -3.5391 z"
         style="fill:#231f20;fill-opacity:1;fill-rule:nonzero;stroke:none"
         id="path2598" />
      <path
         d="m 3520.05,5200.37 h 3.5391 v 12.5 h -3.5391 z"
         style="fill:#231f20;fill-opacity:1;fill-rule:nonzero;stroke:none"
         id="path2600" />
      <path
         d="m 3525.05,5200.37 h 3.5391 v 12.5 h -3.5391 z"
         style="fill:#231f20;fill-opacity:1;fill-rule:nonzero;stroke:none"
         id="path2602" />
      <path
         d="m 3529.97,5200.37 h 3.543 v 12.5 h -3.543 z"
         style="fill:#231f20;fill-opacity:1;fill-rule:nonzero;stroke:none"
         id="path2604" />
      <path
         d="m 3508.44,5158.11 h 3.5391 v 12.5 h -3.5391 z"
         style="fill:#231f20;fill-opacity:1;fill-rule:nonzero;stroke:none"
         id="path2606" />
      <path
         d="m 3513.36,5158.11 h 3.5391 v 12.5 h -3.5391 z"
         style="fill:#231f20;fill-opacity:1;fill-rule:nonzero;stroke:none"
         id="path2608" />
      <path
         d="m 3433.01,5101.26 h 3.5391 v 12.5 h -3.5391 z"
         style="fill:#231f20;fill-opacity:1;fill-rule:nonzero;stroke:none"
         id="path2610" />
      <path
         d="m 3540.42,5131.13 h 3.5352 v 12.5 h -3.5352 z"
         style="fill:#231f20;fill-opacity:1;fill-rule:nonzero;stroke:none"
         id="path2612" />
    </g>
  </g>
</svg>
