<?xml version="1.0" encoding="UTF-8" standalone="no"?>
<!-- John Grümph
     https://legrumph.org/Terrier/public/chibi/de-chorographia
     CC BY-NC 3.0
     https://creativecommons.org/licenses/by-nc/3.0/fr/ -->
<!-- Created with Inkscape (http://www.inkscape.org/) -->

<svg
   version="1.1"
   id="svg2"
   width="10.314636"
   height="49.277348"
   viewBox="0 0 10.314636 49.277345"
   xmlns="http://www.w3.org/2000/svg"
   xmlns:svg="http://www.w3.org/2000/svg">
  <defs
     id="defs6" />
  <g
     id="g10"
     transform="matrix(1.3333333,0,0,-1.3333333,-703.65601,788.60266)">
    <g
       id="g12"
       transform="scale(0.1)">
      <path
         d="m 5332.59,5590.18 h -3.5391 v 12.5 h 3.5391 z m -5.11,77.68 h -3.5391 v 12.5 h 3.5391 z m -4.92,0 h -3.5391 v 12.5 h 3.5391 z m -8.18,45 h -3.5391 v 12.5 h 3.5391 z m -0.68,-96.67 h -3.5391 v 12.5 h 3.5391 z m -4.24,96.67 h -3.5391 v 12.5 h 3.5391 z m -0.68,-96.67 h -3.543 v 12.5 h 3.543 z m -5,0 h -3.543 v 12.5 h 3.543 z m -3.58,-52.33 h -3.5391 v 12.5 h 3.5391 z m 44.08,1.28 c 1.52,8.83 3.01,19.75 3.01,27.57 0,3.05 -0.25,5.64 -0.68,7.19 -1.69,6.3 -4.34,14.91 -6.59,23.07 -2.24,8.22 -4.12,15.76 -4.16,21.03 0.01,1.73 -0.67,10.27 -1.69,21.47 -1.03,11.26 -2.39,25.47 -3.76,39.41 -1.15,11.71 -2.29,23.19 -3.24,32.61 h -25.2 c -1.58,-18.93 -3.85,-45.01 -5.79,-63.69 -1.14,-10.95 -2.11,-19.1 -2.93,-22.56 -1,-4.07 -3.04,-18.43 -4.72,-34.37 -1.7,-15.98 -3.13,-33.88 -3.12,-45.58 -0.01,-3.11 0.1,-5.78 0.3,-7.78 0.17,-1.97 0.6,-3.36 0.64,-3.36 2.85,-5.32 4.87,-7.16 5.61,-7.71 h 17.49 v 17.03 c 0,3.81 3.09,6.89 6.9,6.89 3.81,0 6.89,-3.08 6.89,-6.89 v -17.03 h 18.64 l 0.32,1.55 c 0.56,2.8 1.33,6.72 2.08,11.15"
         style="fill:#ffffff;fill-opacity:1;fill-rule:nonzero;stroke:none"
         id="path3436" />
      <path
         d="m 5326.67,5742.49 c -0.5,4.96 -0.92,9.07 -1.22,12.04 h -10.53 -11.54 c -0.25,-3.22 -0.59,-7.25 -0.99,-12.04"
         style="fill:#ffffff;fill-opacity:1;fill-rule:nonzero;stroke:none"
         id="path3438" />
      <path
         d="m 5314.92,5754.52 h 10.53 c 0.3,-2.96 0.72,-7.08 1.22,-12.04 h -24.28 c 0.4,4.79 0.73,8.83 0.99,12.04 z m 8.32,-202.08 v 17.03 c 0,3.8 -3.09,6.89 -6.89,6.89 -3.81,0 -6.9,-3.09 -6.9,-6.89 v -17.03 h -17.49 c -0.74,0.55 -2.76,2.39 -5.61,7.71 -0.04,0 -0.47,1.39 -0.64,3.35 -0.2,2.01 -0.31,4.68 -0.3,7.78 -0.01,11.71 1.41,29.6 3.11,45.59 1.69,15.94 3.72,30.3 4.73,34.36 0.82,3.47 1.79,11.62 2.93,22.57 1.94,18.68 4.21,44.75 5.79,63.68 h 25.2 c 0.94,-9.41 2.09,-20.89 3.24,-32.6 1.37,-13.94 2.73,-28.15 3.76,-39.42 1.01,-11.19 1.7,-19.73 1.69,-21.46 0.04,-5.28 1.92,-12.81 4.16,-21.04 2.24,-8.16 4.9,-16.77 6.59,-23.06 0.43,-1.56 0.68,-4.14 0.67,-7.19 0.01,-7.82 -1.48,-18.74 -3,-27.57 -0.76,-4.43 -1.52,-8.35 -2.08,-11.16 l -0.32,-1.54 z m 30.62,49.4 c -1.75,6.52 -4.41,15.1 -6.62,23.11 -2.21,7.95 -3.92,15.57 -3.88,19.05 -0.01,2.64 -0.7,10.78 -1.73,22.15 -2.5,27.52 -7.03,72.47 -8.64,88.37 h 1.41 l 18.02,25 c 0,0 -16.07,5.42 -25.81,18.75 -9.74,13.33 -11.69,116.25 -11.69,116.25 0,0 -1.94,-102.92 -11.69,-116.25 -9.74,-13.33 -25.81,-18.75 -25.81,-18.75 l 18.02,-25 h 0.42 c -0.76,-9.31 -2.11,-25.68 -3.63,-42.73 -1.14,-13.02 -2.38,-26.39 -3.5,-37.22 -1.11,-10.75 -2.18,-19.24 -2.77,-21.56 -1.22,-5.07 -3.16,-19.14 -4.89,-35.35 -1.72,-16.15 -3.16,-34.12 -3.16,-46.38 0,-3.27 0.1,-6.13 0.34,-8.53 0.28,-2.43 0.54,-4.28 1.49,-6.15 4.94,-9.23 8.81,-11.11 10.15,-11.51 l 0.52,-0.15 h 57.52 l 0.65,2.93 c 0.01,0.14 6.17,27.55 6.2,44.84 -0.01,3.43 -0.23,6.48 -0.92,9.13"
         style="fill:#231f20;fill-opacity:1;fill-rule:nonzero;stroke:none"
         id="path3440" />
      <path
         d="m 5300.23,5616.19 h 3.5391 v 12.5 h -3.5391 z"
         style="fill:#231f20;fill-opacity:1;fill-rule:nonzero;stroke:none"
         id="path3442" />
      <path
         d="m 5305.23,5616.19 h 3.5391 v 12.5 h -3.5391 z"
         style="fill:#231f20;fill-opacity:1;fill-rule:nonzero;stroke:none"
         id="path3444" />
      <path
         d="m 5310.16,5616.19 h 3.5391 v 12.5 h -3.5391 z"
         style="fill:#231f20;fill-opacity:1;fill-rule:nonzero;stroke:none"
         id="path3446" />
      <path
         d="m 5319.01,5667.86 h 3.5352 v 12.5 h -3.5352 z"
         style="fill:#231f20;fill-opacity:1;fill-rule:nonzero;stroke:none"
         id="path3448" />
      <path
         d="m 5323.94,5667.86 h 3.5391 v 12.5 h -3.5391 z"
         style="fill:#231f20;fill-opacity:1;fill-rule:nonzero;stroke:none"
         id="path3450" />
      <path
         d="m 5329.04,5590.18 h 3.5391 v 12.5 h -3.5391 z"
         style="fill:#231f20;fill-opacity:1;fill-rule:nonzero;stroke:none"
         id="path3452" />
      <path
         d="m 5305.93,5712.86 h 3.5391 v 12.5 h -3.5391 z"
         style="fill:#231f20;fill-opacity:1;fill-rule:nonzero;stroke:none"
         id="path3454" />
      <path
         d="m 5310.85,5712.86 h 3.5391 v 12.5 h -3.5391 z"
         style="fill:#231f20;fill-opacity:1;fill-rule:nonzero;stroke:none"
         id="path3456" />
      <path
         d="m 5296.65,5563.86 h 3.543 v 12.5 h -3.543 z"
         style="fill:#231f20;fill-opacity:1;fill-rule:nonzero;stroke:none"
         id="path3458" />
    </g>
  </g>
</svg>
