<?xml version="1.0" encoding="UTF-8" standalone="no"?>
<!-- John Grümph
     https://legrumph.org/Terrier/public/chibi/de-chorographia
     CC BY-NC 3.0
     https://creativecommons.org/licenses/by-nc/3.0/fr/ -->
<!-- Created with Inkscape (http://www.inkscape.org/) -->

<svg
   version="1.1"
   id="svg2"
   width="19.333313"
   height="30.056002"
   viewBox="0 0 19.333313 30.056"
   xmlns="http://www.w3.org/2000/svg"
   xmlns:svg="http://www.w3.org/2000/svg">
  <defs
     id="defs6" />
  <g
     id="g10"
     transform="matrix(1.3333333,0,0,-1.3333333,-671.14533,769.38128)">
    <g
       id="g12"
       transform="scale(0.1)">
      <path
         d="m 5156.02,5558.93 h -3.5391 v 12.5 h 3.5391 z m 1.38,12.5 h 3.543 v -12.5 h -3.543 z m -6.38,-12.5 h -3.5391 v 12.5 h 3.5391 z m -38.19,31.67 h -3.5469 v 12.5 h 3.5469 z m -4.92,0 h -3.5391 v 12.5 h 3.5391 z m -5,0 h -3.5391 v 12.5 h 3.5391 z m -49.59,-31.67 h -3.5391 v 12.5 h 3.5391 z m 89.59,54.27 -2.47,0.64 c -1.49,-1.09 -3.17,-2.17 -5.27,-3.17 l -29.07,-0.01 -29.06,0.01 c -2.13,1.02 -3.83,2.1 -5.34,3.22 -5.66,-1.55 -11.02,-3.81 -15.06,-7.08 -3.49,-2.79 -6.07,-6.16 -7.51,-10.53 -6.66,-20.43 -7.83,-36.91 -8,-43.84 h 20.18 v 17.03 c 0,3.81 3.08,6.89 6.89,6.89 3.81,0 6.9,-3.08 6.9,-6.89 v -17.03 h 31 64.96 c -0.16,6.93 -1.33,23.41 -7.99,43.84 -1.44,4.37 -4.03,7.74 -7.51,10.53 -3.49,2.77 -7.88,4.87 -12.65,6.39"
         style="fill:#ffffff;fill-opacity:1;fill-rule:nonzero;stroke:none"
         id="path3418" />
      <path
         d="m 5171.06,5552.44 h -95.97 v 17.03 c 0,3.81 -3.07,6.9 -6.89,6.9 -3.81,0 -6.9,-3.09 -6.9,-6.9 v -17.03 h -20.17 c 0.16,6.93 1.34,23.41 8,43.84 1.43,4.37 4.02,7.75 7.51,10.53 4.04,3.28 9.4,5.53 15.06,7.08 1.51,-1.11 3.21,-2.2 5.34,-3.22 l 29.07,-0.01 29.05,0.01 c 2.11,1 3.79,2.08 5.27,3.17 l 2.48,-0.63 c 4.77,-1.53 9.16,-3.63 12.64,-6.4 3.49,-2.78 6.08,-6.16 7.51,-10.53 6.66,-20.43 7.83,-36.91 8,-43.84 m -0.86,46.16 -3.57,-1.16 3.57,1.16 c -1.91,5.91 -5.56,10.58 -9.98,14.08 -4.22,3.3 -9.15,5.61 -14.24,7.33 4.7,9.88 -6.77,20.58 -16.12,24.1 -9.02,3.38 -17.34,14.82 -21.3,20.98 l -2.45,105.27 -2.48,-105.29 c -3.97,-6.15 -12.27,-17.58 -21.27,-20.96 -9.36,-3.52 -20.82,-14.21 -16.15,-24.08 -5.08,-1.71 -10.01,-4.01 -14.24,-7.35 -4.43,-3.5 -8.06,-8.17 -9.97,-14.08 -7.75,-23.76 -8.39,-42.49 -8.41,-48.24 0,-1.15 0.04,-1.78 0.04,-1.84 l 0.14,-3.58 h 72.34 72.3 l 0.16,3.59 c 0,0.05 0.02,0.68 0.02,1.83 0,5.75 -0.66,24.47 -8.39,48.24"
         style="fill:#231f20;fill-opacity:1;fill-rule:nonzero;stroke:none"
         id="path3420" />
      <path
         d="m 5099.37,5590.6 h 3.5391 v 12.5 h -3.5391 z"
         style="fill:#231f20;fill-opacity:1;fill-rule:nonzero;stroke:none"
         id="path3422" />
      <path
         d="m 5104.37,5590.6 h 3.5391 v 12.5 h -3.5391 z"
         style="fill:#231f20;fill-opacity:1;fill-rule:nonzero;stroke:none"
         id="path3424" />
      <path
         d="m 5109.29,5590.6 h 3.5391 v 12.5 h -3.5391 z"
         style="fill:#231f20;fill-opacity:1;fill-rule:nonzero;stroke:none"
         id="path3426" />
      <path
         d="m 5049.78,5558.93 h 3.5391 v 12.5 h -3.5391 z"
         style="fill:#231f20;fill-opacity:1;fill-rule:nonzero;stroke:none"
         id="path3428" />
      <path
         d="m 5147.48,5558.93 h 3.5391 v 12.5 h -3.5391 z"
         style="fill:#231f20;fill-opacity:1;fill-rule:nonzero;stroke:none"
         id="path3430" />
      <path
         d="m 5152.48,5558.93 h 3.5391 v 12.5 h -3.5391 z"
         style="fill:#231f20;fill-opacity:1;fill-rule:nonzero;stroke:none"
         id="path3432" />
      <path
         d="m 5157.4,5558.93 h 3.543 v 12.5 h -3.543 z"
         style="fill:#231f20;fill-opacity:1;fill-rule:nonzero;stroke:none"
         id="path3434" />
    </g>
  </g>
</svg>
