<?xml version="1.0" encoding="UTF-8" standalone="no"?>
<!-- John Grümph
     https://legrumph.org/Terrier/public/chibi/de-chorographia
     CC BY-NC 3.0
     https://creativecommons.org/licenses/by-nc/3.0/fr/ -->
<!-- Created with Inkscape (http://www.inkscape.org/) -->

<svg
   version="1.1"
   id="svg2"
   width="35.304134"
   height="38.112"
   viewBox="0 0 35.304134 38.111998"
   xmlns="http://www.w3.org/2000/svg"
   xmlns:svg="http://www.w3.org/2000/svg">
  <defs
     id="defs6" />
  <g
     id="g10"
     transform="matrix(1.3333333,0,0,-1.3333333,-20.8412,884.70529)">
    <g
       id="g12"
       transform="scale(0.1)">
      <path
         d="m 367.734,6448.29 -3.171,74.33 h -2.379 l -0.52,-71.56 c 1.988,-0.94 4.02,-1.86 6.07,-2.77"
         style="fill:#ffffff;fill-opacity:1;fill-rule:nonzero;stroke:none"
         id="path334" />
      <path
         d="m 316.719,6413.97 h -3.53906 v 12.5 h 3.53906 z m 30.511,-8.92 h 3.53906 v -12.5 H 347.23 Z m 3.192,25.25 h 3.53906 v -12.5 H 350.422 Z m 5,0 h 3.53906 v -12.5 H 355.422 Z m 4.918,0 h 3.53906 v -12.5 H 360.34 Z m 0.351,-37.75 h -3.54297 v 12.5 h 3.54297 z m -4.921,0 h -3.53906 v 12.5 H 355.77 Z m -43.969,21.42 h -3.53906 v 12.5 h 3.53906 z m -7.082,48.74 h 3.54297 v -12.5 H 304.719 Z m -1.391,-12.5 h -3.53906 v 12.5 h 3.53906 z m 14.992,13.93 -5.789,5.8 h -14.672 l -6.578,-6.59 v -9.33 h -4.73 l 6.769,-14.42 -3.398,-1.6 -3.391,-1.59 -4.261,9.09 -7.661,-34.7 c 2.141,-0.18 7.032,-0.6 13.102,-1.02 l 1.68,-0.11 v 10.49 c 0,2.15 1.75,3.89 3.898,3.89 2.152,0 3.902,-1.74 3.902,-3.89 v -10.95 c 5.899,-0.31 12.028,-0.56 17.379,-0.56 4.828,0 9.032,0.2 11.59,0.65 l 1.59,0.28 20.539,-30.27 25.902,2.55 c -2.511,3.09 -6.113,8.06 -8.293,13.63 l -0.828,2.18 1.578,1.71 c 3.481,3.67 4.911,10.18 4.883,17.01 0.008,7.44 -1.562,14.81 -2.511,18.57 h -50.7"
         style="fill:#ffffff;fill-opacity:1;fill-rule:nonzero;stroke:none"
         id="path336" />
      <path
         d="m 408.328,6363.09 -9.398,16.88 -19.442,-2.57 0.012,-0.04 -1.16,-0.11 h -0.02 l -32.5,-3.2 -20.468,30.16 c -2.961,-0.37 -6.551,-0.55 -10.782,-0.55 -17.09,0 -41.558,2.27 -41.601,2.27 v 0.07 l -18.899,3.71 c -2.14,-3.01 -5.531,-7.12 -8.84,-8.39 -5.421,-2.08 -5,-6.25 -5,-6.25 l 6.879,-6.46 21.012,-18.96 1.309,-3.88 3.441,-2.68"
         style="fill:#ffffff;fill-opacity:1;fill-rule:nonzero;stroke:none"
         id="path338" />
      <path
         d="m 214.609,6495.48 -4.171,11.68 -0.418,3.7 3.359,12.44 8.719,12.56 20.73,-8.29 h 7.199 l 10.352,-25.36 -2.649,-14.64 c 0,0 -6.453,-9.37 -11.871,-11.04 -5.421,-1.67 -10,-6.46 -10,-6.46 l -2.289,4.16 z m -32.468,24.09 c -1.09,0 -1.911,0.21 -2.364,0.48 -1.539,0.84 -4.289,4.41 -6.218,7.64 -0.989,1.61 -1.86,3.17 -2.469,4.29 l -0.422,0.82 2.391,5.25 c 5.511,-2.46 11.039,-7.02 15.269,-11.39 1.492,-1.52 2.742,-2.95 3.883,-4.27 l -0.75,-0.34 c -1.871,-0.85 -6.313,-2.52 -9.32,-2.48 m -20.203,30.96 -0.629,1.18 v 0.02 c 0.3,1.81 1.07,6.68 1.941,12.14 l 25.07,-21.21 -0.39,-8.68 c -3.75,3.38 -8.11,6.5 -12.821,8.61 l 0.008,0.03 -2.359,1 c 0,0 -0.738,0.32 -1.899,0.88 -1.75,0.87 -4.39,2.28 -6.461,3.8 -1.031,0.77 -1.918,1.56 -2.46,2.23 m 7.113,36.25 19.828,-31.89 -0.281,-5.91 -24.43,20.66 c 1.02,6.45 1.973,12.52 2.312,14.59 0.52,0.52 1.348,1.34 2.571,2.55 m 8.769,8.84 11.508,-30.82 -0.051,-1.09 -16.589,26.7 c 0.871,0.87 1.73,1.75 2.652,2.66 z m 6.707,7.15 0.672,0.91 c 1,-0.09 3.18,-0.54 5.739,-1.31 1.57,-0.46 3.41,-1.09 5.21,-1.71 l 3.512,-22 3.867,-44.75 -9.527,23.57 0.367,8.11 -12.707,34.03 0.43,0.45 c 0.969,1.02 1.801,1.93 2.437,2.7 m 25.262,-7.45 -5.09,-16.94 -0.082,0.9 -3.097,19.43 c 1.468,-0.55 2.98,-1.09 4.339,-1.66 1.442,-0.59 2.719,-1.17 3.93,-1.73 m 9.852,-8.37 c 1.636,-2.11 2.757,-4.31 2.75,-6.7 l -0.043,-0.79 c -0.168,-1.75 -0.25,-4.51 -0.289,-7.75 l -14.801,-22.83 -1.391,16 8.41,28.01 0.153,-0.1 0.109,-0.09 c 1.469,-1.83 3.481,-3.65 5.102,-5.75 m 5.808,11.05 8.531,-3.54 -0.011,-0.17 c 0.019,-2.63 0.769,-6.4 1.742,-10.41 l -0.012,0.01 -3.09,-10.89 -6.191,12.14 h -0.008 c -0.73,1.84 -1.742,3.48 -2.832,4.88 l -2.09,2.39 z m 36.891,32.29 0.219,-0.01 c 0.5,-0.19 1.519,-0.69 2.839,-1.37 l 2.352,-26.34 -12.973,24.54 c 3.203,1.94 6.512,3.27 7.563,3.18 m 31,-20.04 0.39,-0.48 c 0.071,-0.24 0.231,-1.7 0.27,-3.56 l 0.059,-2.5 -8.282,-7.3 2.641,18 c 1.18,-0.88 2.25,-1.71 3.109,-2.45 z m -8.039,-59.61 c -0.543,-1.59 -1.184,-2.23 -1.922,-2.46 -2.039,-0.65 -3.621,-1.29 -4.961,-1.89 l 1.262,8.6 6.218,4.7 c 0.082,-0.98 0.153,-2.04 0.153,-3.18 0,-2.07 -0.223,-4.23 -0.75,-5.77 m -57.91,-6.41 16.668,-4.78 3.5,-6.88 h -3.77 l -18.769,7.5 2.39,3.43 z m 10.839,30.27 c 1.708,-5.86 3.29,-10.66 3.29,-10.68 l 0.359,-1.05 4.871,-2.11 -2.34,-10.88 -1.371,2.72 -0.301,0.7 0.11,-0.34 -6.91,13.59 z m 5.258,16.66 7.02,-26.68 -4.578,1.98 c -0.621,1.91 -1.969,6.17 -3.34,10.95 -1.852,6.39 -3.66,13.91 -3.621,16.88 l 0.031,0.65 0.02,0.11 0.578,1.75 z m -0.648,25.95 23.699,-53.06 -2.172,-34.91 -7.976,32.81 -0.043,0.01 -8.25,31.32 -7.078,10.29 -0.012,-0.02 c 0.512,3.13 0.992,6.48 1.34,9.38 0.211,1.62 0.371,3.03 0.492,4.18 m 29,-4.04 -1.16,12.84 c 1.55,-0.91 3.179,-1.88 4.871,-2.93 z m -3.813,-89.37 0.571,-0.04 -0.481,-2.18 0.012,1.09 z m -12.597,3.87 h 0.418 l 2.941,3.34 3.641,-14.98 0.781,-0.45 -0.641,-5.41 z m -3.313,30.77 5.231,-21.52 -3.75,-4.25 h -0.438 l -5.14,10.14 3.41,15.93 z m -24.84,-8.86 c -0.058,2.71 -0.129,6.21 -0.179,9.91 l 8.902,-4.09 4.961,-9.75 z m 45.453,-7.48 -3.531,-15.7 4.27,68.47 -0.68,7.55 0.309,-0.11 6.761,18.02 c 1.36,-0.87 2.7,-1.75 3.981,-2.61 z m 21.258,45.61 -10.98,-10.06 1.652,11.2 9.438,8.32 c -0.02,-3.09 -0.059,-6.32 -0.11,-9.46 m -0.328,-14.2 -5.801,-6.04 -7.148,-5.42 1.148,7.76 11.989,10.99 c -0.078,-3.29 -0.149,-5.93 -0.188,-7.29 m -25.441,17.57 -1,-16.18 -20.828,46.61 c 1.25,0.96 2.617,1.93 4.168,2.98 z m -35.891,-28.5 -5.277,2.43 c 0,0.98 -0.012,1.96 -0.012,2.89 0,1.79 0.012,3.47 0.039,5.02 z m -23.098,-36.39 -1.281,14.69 14.121,21.76 c 0.071,-7.6 0.25,-15.15 0.297,-17.52 z m -3.542,-10.88 -0.008,-0.12 -3.18,4.3 -0.473,0.64 -0.738,0.25 -1.301,0.43 c -1.008,1.38 -3.847,5.07 -7.937,9.29 l 0.699,-0.04 0.711,15.52 z m 69.8,-65.62 -2.078,4.44 h 3.059 z m 96.039,-33.2 c 0.032,-6.82 -1.398,-13.34 -4.879,-17 l -1.578,-1.71 0.828,-2.2 c 2.18,-5.57 5.782,-10.53 8.29,-13.61 l -25.899,-2.55 -20.539,30.25 -1.59,-0.27 c -2.562,-0.44 -6.762,-0.66 -11.59,-0.64 -5.351,0 -11.48,0.23 -17.382,0.55 v 10.95 c 0,2.16 -1.75,3.89 -3.899,3.89 -2.148,0 -3.891,-1.73 -3.891,-3.89 v -10.48 l -1.679,0.11 c -6.078,0.42 -10.969,0.83 -13.11,1.01 l 7.661,34.7 4.257,-9.09 3.391,1.59 3.402,1.59 -6.769,14.44 h 4.726 v 9.31 l 6.582,6.6 h 14.668 l 5.793,-5.8 v -29.18 h 50.7 c 0.949,-3.75 2.519,-11.12 2.507,-18.57 m 5.211,18.57 h 4.59 l -3.527,-5.3 c -0.352,2.02 -0.711,3.8 -1.063,5.3 m -12.179,87.66 3.179,-74.32 c -2.058,0.91 -4.09,1.83 -6.078,2.77 l 0.528,71.55 z m -96.43,-152.96 -21.02,18.95 -6.871,6.46 c 0,0 -0.418,4.16 5,6.25 3.313,1.27 6.692,5.38 8.832,8.39 l 18.899,-3.71 v -0.07 c 0.039,0 24.511,-2.27 41.601,-2.27 4.231,0 7.821,0.18 10.778,0.55 l 20.472,-30.16 32.5,3.2 h 0.02 l 1.16,0.11 -0.012,0.03 19.442,2.59 9.398,-16.89 H 272.867 l -3.437,2.68 z m 152.961,-14.07 -3.102,5.57 -14.988,26.91 -21.801,-2.87 c -1.82,2.1 -5.289,6.57 -7.5,11.34 4.09,5.8 5.301,13.05 5.328,19.85 l -0.047,1.52 11.36,17.05 h 10.629 c 0,0 -12.059,4.38 -25.578,10.04 l -3.641,85.12 h -13.281 -3.719 l -0.57,-75.41 c -6.52,3.34 -11.86,6.61 -14.313,9.32 -9.367,10.36 -21.719,35.56 -21.719,35.56 l -13.75,61.94 c 0,0 -9.769,-49.35 -14.988,-61.05 h -16.262 v -33.23 c -4.281,-5.73 -9.98,-10.71 -17.808,-13.22 h 9.777 l 7.711,-16.46 -5.051,-22.91 -21.429,4.21 -2.571,19.13 6.25,19.57 c 0,0 12.703,7.5 9.161,14.16 -3.54,6.68 1.671,8.97 5.21,12.14 1.18,1.04 1.981,5.67 2.52,11.34 l 3.84,15.88 0.121,-0.06 1.851,8.18 0.04,0.18 h -0.012 l 4.672,20.73 c 0.929,0.63 3.168,1.93 7.449,3.29 2.851,0.89 4.41,3.32 5.172,5.64 0.789,2.39 0.988,4.98 1,7.36 -0.012,2.75 -0.301,5.14 -0.492,6.54 l 0.64,0.67 0.09,0.07 -0.012,0.02 7.352,7.67 v 1 c 0,0.08 0.48,15.3 0.48,26.53 -0.011,2.82 -0.039,5.41 -0.109,7.48 -0.09,2.14 -0.152,3.56 -0.441,4.75 -0.469,1.47 -1.231,2.16 -2.161,3.16 -3.289,3.23 -9.968,7.79 -16.578,11.95 -6.64,4.14 -12.812,7.68 -15.511,8.71 l -1.969,0.33 c -2.34,-0.04 -4.602,-0.99 -7.102,-2.22 -3.711,-1.87 -7.699,-4.57 -10.84,-6.87 -1.578,-1.15 -2.91,-2.2 -3.89,-3 l -1.188,-1.02 -0.441,-0.43 -0.27,-0.32 -0.23,-0.38 -0.238,-1.03 -0.024,0.01 c -0.019,-0.32 -0.539,-5.37 -1.25,-10.6 -0.367,-2.64 -0.789,-5.38 -1.219,-7.64 l -0.519,-2.4 -11.469,4.77 -5.609,-7.97 -2.102,1.59 c -3.449,2.04 -9.769,4.67 -16,6.9 -3.09,1.1 -6.148,2.09 -8.761,2.82 -2.637,0.71 -4.708,1.2 -6.411,1.21 l -1.386,-0.17 c -0.481,-0.15 -1.293,-0.52 -1.813,-1.49 h -0.019 l -1.02,-1.26 c -2.148,-2.47 -6.73,-7.17 -10.719,-11.17 -4,-4.03 -7.429,-7.39 -7.441,-7.39 l -0.578,-0.59 -0.141,-0.82 c 0,-0.02 -4.461,-28.36 -5.281,-33.27 l -0.07,-0.84 c 0.058,-2.37 1.379,-4.02 2.761,-5.44 2.809,-2.72 6.891,-4.93 9.418,-6.16 l -2.859,-6.34 -0.488,-1.08 0.507,-1.05 c 0.02,-0.05 1.52,-3.1 3.653,-6.57 2.187,-3.48 4.726,-7.32 7.91,-9.3 1.559,-0.93 3.277,-1.2 4.93,-1.2 4.668,0.05 9.539,2.09 11.539,3 l 5.269,-1.77 3.371,-4.57 4.368,-10.75 c 0,0 -0.618,-12.7 2.921,-14.78 3.539,-2.08 25.418,-27.09 22.61,-27.5 -2.821,-0.42 -4.489,-14.17 -4.489,-14.17 0,0 -9.582,-30.62 -17.703,-31.05 -8.129,-0.41 -16.047,-11.45 -16.047,-11.45 l -16.25,1.25 -13.542,-7.5 -7.079,-12.5 c 4.168,4.79 15,12.29 20,13.75 5,1.45 25,-1.67 25,-1.67 l 7.5,-2.31 c 0,0 1.25,3.77 9.168,3.56 7.911,-0.2 9.793,-16.45 9.793,-16.45 l 0.207,-9.38 c 0,0 6.461,-8.12 -3.957,-20.83 10.418,1.03 13.957,16.46 13.957,16.46 0,0 -5.629,9.16 -3.539,11.66 2.082,2.5 10.621,-10.84 15.832,-11.66 2.059,-0.34 5.7,-1.45 9.348,-2.64 l 9.883,-7.68"
         style="fill:#231f20;fill-opacity:1;fill-rule:nonzero;stroke:none"
         id="path340" />
      <path
         d="m 350.422,6417.8 h 3.53906 v 12.5 H 350.422 Z"
         style="fill:#231f20;fill-opacity:1;fill-rule:nonzero;stroke:none"
         id="path342" />
      <path
         d="m 355.422,6417.8 h 3.53906 v 12.5 H 355.422 Z"
         style="fill:#231f20;fill-opacity:1;fill-rule:nonzero;stroke:none"
         id="path344" />
      <path
         d="m 360.34,6417.8 h 3.53906 v 12.5 H 360.34 Z"
         style="fill:#231f20;fill-opacity:1;fill-rule:nonzero;stroke:none"
         id="path346" />
      <path
         d="m 347.23,6392.55 h 3.53906 v 12.5 H 347.23 Z"
         style="fill:#231f20;fill-opacity:1;fill-rule:nonzero;stroke:none"
         id="path348" />
      <path
         d="m 352.23,6392.55 h 3.53906 v 12.5 H 352.23 Z"
         style="fill:#231f20;fill-opacity:1;fill-rule:nonzero;stroke:none"
         id="path350" />
      <path
         d="m 357.148,6392.55 h 3.54297 v 12.5 H 357.148 Z"
         style="fill:#231f20;fill-opacity:1;fill-rule:nonzero;stroke:none"
         id="path352" />
      <path
         d="m 299.789,6450.21 h 3.53906 v 12.5 H 299.789 Z"
         style="fill:#231f20;fill-opacity:1;fill-rule:nonzero;stroke:none"
         id="path354" />
      <path
         d="m 304.711,6450.21 h 3.53906 v 12.5 H 304.711 Z"
         style="fill:#231f20;fill-opacity:1;fill-rule:nonzero;stroke:none"
         id="path356" />
      <path
         d="m 283.379,6548.17 v 0 l -0.078,-0.02"
         style="fill:#231f20;fill-opacity:1;fill-rule:nonzero;stroke:none"
         id="path358" />
      <path
         d="m 308.25,6413.97 h 3.53906 v 12.5 H 308.25 Z"
         style="fill:#231f20;fill-opacity:1;fill-rule:nonzero;stroke:none"
         id="path360" />
      <path
         d="m 313.172,6413.97 h 3.53906 v 12.5 H 313.172 Z"
         style="fill:#231f20;fill-opacity:1;fill-rule:nonzero;stroke:none"
         id="path362" />
    </g>
  </g>
</svg>
