<?xml version="1.0" encoding="UTF-8" standalone="no"?>
<!-- John Grümph
     https://legrumph.org/Terrier/public/chibi/de-chorographia
     CC BY-NC 3.0
     https://creativecommons.org/licenses/by-nc/3.0/fr/ -->
<!-- Created with Inkscape (http://www.inkscape.org/) -->

<svg
   version="1.1"
   id="svg2"
   width="37.944"
   height="23.944002"
   viewBox="0 0 37.944 23.944001"
   xmlns="http://www.w3.org/2000/svg"
   xmlns:svg="http://www.w3.org/2000/svg">
  <defs
     id="defs6" />
  <g
     id="g10"
     transform="matrix(1.3333333,0,0,-1.3333333,-348.58133,762.61996)">
    <g
       id="g12"
       transform="scale(0.1)">
      <path
         d="m 2846.37,5556.02 h -3.543 v 12.5 h 3.543 z m -4.92,0 h -3.5391 v 12.5 h 3.5391 z m -5,0 h -3.5391 v 12.5 h 3.5391 z m -11.97,24.34 h -3.5391 v 7.8125 h 3.5391 z m -2.69,-24.34 h -3.5391 v 12.5 h 3.5391 z m -4.92,0 h -3.5391 v 12.5 h 3.5391 z m -5,0 h -3.5391 v 12.5 h 3.5391 z m -7.4,24.34 h -3.5391 v 7.8125 h 3.5391 z m 36.47,7.81 h 3.5391 v -7.8125 h -3.5391 z m -59.98,-14.06 h -3.5391 v 12.5 h 3.5391 z m -4.92,0 h -3.5391 v 12.5 h 3.5391 z m -12.65,-22.28 h -3.5391 v 12.5 h 3.5391 z m -4.92,0 h -3.5391 v 12.5 h 3.5391 z m -4,18.53 h -3.5391 v 7.8125 h 3.5391 z m -1,-18.53 h -3.5391 v 12.5 h 3.5391 z m -19,18.53 h -3.5391 v 7.8125 h 3.5391 z m -20,0 h -3.5391 v 7.8125 h 3.5391 z m -20,0 h -3.5391 v 7.8125 h 3.5391 z m -12.35,-18.53 h -3.5391 v 12.5 h 3.5391 z m -4.92,0 h -3.5391 v 12.5 h 3.5391 z m -6.27,26.34 h 3.5391 v -7.8125 h -3.5391 z m 180.4,16 c -13.82,-0.02 -26.29,0.03 -30.29,0.27 -8.45,0.51 -15.17,11.16 -17.45,15.22 l -1.06,-14.03 -7.48,0.56 1.1,14.48 -12.71,-1.25 4.39,-13.87 -7.15,-2.27 -4.87,15.38 -2.69,-0.26 c 0,0 -2.5,-27.09 -7.92,-27.09 -3.6,0 -68.78,-1.65 -112.28,-2.76 l -0.13,-0.8 11.87,-17.57 -3.12,-2.1 -3.1,-2.1 -7.39,10.95 -3.11,-19.37 h 139.72 v 17.46 c 0,3.81 3.08,6.9 6.89,6.9 3.81,0 6.9,-3.09 6.9,-6.9 v -17.46 h 61.26 l -6.54,10.82"
         style="fill:#ffffff;fill-opacity:1;fill-rule:nonzero;stroke:none"
         id="path2274" />
      <path
         d="m 2749.92,5551.83 h 3.5352 v 12.5 h -3.5352 z"
         style="fill:#231f20;fill-opacity:1;fill-rule:nonzero;stroke:none"
         id="path2276" />
      <path
         d="m 2754.92,5551.83 h 3.5352 v 12.5 h -3.5352 z"
         style="fill:#231f20;fill-opacity:1;fill-rule:nonzero;stroke:none"
         id="path2278" />
      <path
         d="m 2759.84,5551.83 h 3.5391 v 12.5 h -3.5391 z"
         style="fill:#231f20;fill-opacity:1;fill-rule:nonzero;stroke:none"
         id="path2280" />
      <path
         d="m 2832.91,5556.02 h 3.5391 v 12.5 h -3.5391 z"
         style="fill:#231f20;fill-opacity:1;fill-rule:nonzero;stroke:none"
         id="path2282" />
      <path
         d="m 2837.91,5556.02 h 3.5391 v 12.5 h -3.5391 z"
         style="fill:#231f20;fill-opacity:1;fill-rule:nonzero;stroke:none"
         id="path2284" />
      <path
         d="m 2842.83,5556.02 h 3.543 v 12.5 h -3.543 z"
         style="fill:#231f20;fill-opacity:1;fill-rule:nonzero;stroke:none"
         id="path2286" />
      <path
         d="m 2772.49,5574.11 h 3.543 v 12.5 h -3.543 z"
         style="fill:#231f20;fill-opacity:1;fill-rule:nonzero;stroke:none"
         id="path2288" />
      <path
         d="m 2777.41,5574.11 h 3.5391 v 12.5 h -3.5391 z"
         style="fill:#231f20;fill-opacity:1;fill-rule:nonzero;stroke:none"
         id="path2290" />
      <path
         d="m 2808.32,5556.02 h 3.5391 v 12.5 h -3.5391 z"
         style="fill:#231f20;fill-opacity:1;fill-rule:nonzero;stroke:none"
         id="path2292" />
      <path
         d="m 2813.32,5556.02 h 3.5391 v 12.5 h -3.5391 z"
         style="fill:#231f20;fill-opacity:1;fill-rule:nonzero;stroke:none"
         id="path2294" />
      <path
         d="m 2818.24,5556.02 h 3.543 v 12.5 h -3.543 z"
         style="fill:#231f20;fill-opacity:1;fill-rule:nonzero;stroke:none"
         id="path2296" />
      <path
         d="m 2673.65,5551.83 h 3.543 v 12.5 h -3.543 z"
         style="fill:#231f20;fill-opacity:1;fill-rule:nonzero;stroke:none"
         id="path2298" />
      <path
         d="m 2678.57,5551.83 h 3.5391 v 12.5 h -3.5391 z"
         style="fill:#231f20;fill-opacity:1;fill-rule:nonzero;stroke:none"
         id="path2300" />
      <path
         d="m 2690.93,5570.36 h 3.5391 v 7.8125 h -3.5391 z"
         style="fill:#231f20;fill-opacity:1;fill-rule:nonzero;stroke:none"
         id="path2302" />
      <path
         d="m 2670.93,5570.36 h 3.5391 v 7.8125 h -3.5391 z"
         style="fill:#231f20;fill-opacity:1;fill-rule:nonzero;stroke:none"
         id="path2304" />
      <path
         d="m 2710.93,5570.36 h 3.5391 v 7.8125 h -3.5391 z"
         style="fill:#231f20;fill-opacity:1;fill-rule:nonzero;stroke:none"
         id="path2306" />
      <path
         d="m 2730.93,5570.36 h 3.5391 v 7.8125 h -3.5391 z"
         style="fill:#231f20;fill-opacity:1;fill-rule:nonzero;stroke:none"
         id="path2308" />
      <path
         d="m 2750.93,5570.36 h 3.5391 v 7.8125 h -3.5391 z"
         style="fill:#231f20;fill-opacity:1;fill-rule:nonzero;stroke:none"
         id="path2310" />
      <path
         d="m 2800.94,5580.36 h 3.5391 v 7.8125 h -3.5391 z"
         style="fill:#231f20;fill-opacity:1;fill-rule:nonzero;stroke:none"
         id="path2312" />
      <path
         d="m 2820.94,5580.36 h 3.5391 v 7.8125 h -3.5391 z"
         style="fill:#231f20;fill-opacity:1;fill-rule:nonzero;stroke:none"
         id="path2314" />
      <path
         d="m 2840.94,5580.36 h 3.5391 v 7.8125 h -3.5391 z"
         style="fill:#231f20;fill-opacity:1;fill-rule:nonzero;stroke:none"
         id="path2316" />
      <path
         d="m 2644.92,5576.02 -1.46,-9.01 -7.5,11.11 c 2.35,0.06 4.81,0.13 7.41,0.19 z m 213.96,18.17 c 3.7,0.01 7.37,0.03 10.93,0.05 l -9.48,-10.72 z m -57.44,-46.62 v 17.45 c 0,3.81 -3.08,6.9 -6.89,6.9 -3.81,0 -6.9,-3.09 -6.9,-6.9 v -17.45 h -139.71 l 3.11,19.36 7.39,-10.94 3.1,2.09 3.12,2.1 -11.87,17.57 0.13,0.8 c 43.49,1.12 108.68,2.77 112.27,2.77 5.42,0 7.92,27.08 7.92,27.08 l 2.7,0.27 4.87,-15.38 7.15,2.26 -4.39,13.87 12.71,1.25 -1.1,-14.47 7.48,-0.57 1.06,14.04 c 2.28,-4.07 9,-14.72 17.44,-15.23 4.01,-0.24 16.48,-0.29 30.3,-0.27 l 4.84,-35.79 6.54,-10.81 z m 78.04,46.73 c 11.16,0.06 19.46,0.14 19.46,0.14 0,0 -88.75,24.38 -104.16,73.55 -6.07,-13.83 -24.97,-36.93 -37.69,-40.15 l -3.61,-0.28 c -1.52,0.15 -2.93,0.63 -4.12,1.68 0,0 -37.08,49.16 -50.42,90.41 -3.75,-33.75 -30.83,-92.5 -30.83,-92.5 0,0 -38.75,-26.25 -53.75,-49.58 0,0 4.84,0.12 12.72,0.32 l 14.65,-21.7 -2.6,-16.12 h 4.4 232.49 l -12.62,20.86 -1.73,12.77 18.04,20.4"
         style="fill:#231f20;fill-opacity:1;fill-rule:nonzero;stroke:none"
         id="path2318" />
    </g>
  </g>
</svg>
