<?xml version="1.0" encoding="UTF-8" standalone="no"?>
<!-- Created with Inkscape (http://www.inkscape.org/) -->

<svg
   version="1.1"
   id="svg2"
   width="16.76535"
   height="23.707979"
   viewBox="0 0 16.76535 23.707978"
   xmlns="http://www.w3.org/2000/svg"
   xmlns:svg="http://www.w3.org/2000/svg">
  <defs
     id="defs6" />
  <g
     id="g10"
     transform="matrix(1.3333333,0,0,-1.3333333,-472.98398,887.64798)">
    <g
       id="g12"
       transform="scale(0.1)">
      <path
         d="m 3579.25,6595.8 -6.25,-73.12 -13.75,-39.38 h 109.38 l -13.13,71.88 -46.87,12.49 -3.75,34.84"
         style="fill:#ffffff;fill-opacity:1;fill-rule:nonzero;stroke:none"
         id="path3894" />
      <path
         d="m 3579.25,6595.8 -3.74,0.32 -6.21,-72.65 -15.33,-43.92 h 119.15 l -14.36,78.64 -46.69,12.45 -3.93,36.61 -32.41,-8.49 -0.22,-2.64 3.74,-0.32 0.95,-3.62 21.41,5.6 3.56,-33.06 47.07,-12.55 11.88,-65.12 h -99.59 l 12.16,34.84 6.29,73.59 -3.73,0.32 0.95,-3.62"
         style="fill:#231f20;fill-opacity:1;fill-rule:nonzero;stroke:none"
         id="path3896" />
      <path
         d="m 3547.38,6518.93 h 51.86 l 9.39,7.5 h 18.75 c 0,0 0.62,11.87 8.12,13.13 7.5,1.25 36.88,3.35 36.88,3.35 l -21.25,31.64 -21.25,62.51 -25.64,-68.13"
         style="fill:#231f20;fill-opacity:1;fill-rule:nonzero;stroke:none"
         id="path3898" />
      <path
         d="m 3564.88,6585.8 h 63.75 c 0,0 -12.5,-10.64 -28.75,71.56 -10,-47.81 -35,-71.56 -35,-71.56"
         style="fill:#231f20;fill-opacity:1;fill-rule:nonzero;stroke:none"
         id="path3900" />
      <path
         d="m 3580.08,6496.28 h 3.5352 v 12.5 h -3.5352 z"
         style="fill:#231f20;fill-opacity:1;fill-rule:nonzero;stroke:none"
         id="path3902" />
      <path
         d="m 3590.02,6571.74 h 3.5391 v 12.5 h -3.5391 z"
         style="fill:#231f20;fill-opacity:1;fill-rule:nonzero;stroke:none"
         id="path3904" />
      <path
         d="m 3606.25,6496.28 h 3.5391 v 12.5 h -3.5391 z"
         style="fill:#231f20;fill-opacity:1;fill-rule:nonzero;stroke:none"
         id="path3906" />
      <path
         d="m 3611.25,6496.28 h 3.5391 v 12.5 h -3.5391 z"
         style="fill:#231f20;fill-opacity:1;fill-rule:nonzero;stroke:none"
         id="path3908" />
      <path
         d="m 3616.18,6496.28 h 3.5391 v 12.5 h -3.5391 z"
         style="fill:#231f20;fill-opacity:1;fill-rule:nonzero;stroke:none"
         id="path3910" />
      <path
         d="m 3641.59,6523.39 h 3.5391 v 12.5 h -3.5391 z"
         style="fill:#231f20;fill-opacity:1;fill-rule:nonzero;stroke:none"
         id="path3912" />
      <path
         d="m 3646.51,6523.39 h 3.5391 v 12.5 h -3.5391 z"
         style="fill:#231f20;fill-opacity:1;fill-rule:nonzero;stroke:none"
         id="path3914" />
      <path
         d="m 3633.67,6510.98 c -3.81,0 -6.89,-3.09 -6.89,-6.89 v -20.79 h 13.78 v 20.79 c 0,3.8 -3.08,6.89 -6.89,6.89"
         style="fill:#231f20;fill-opacity:1;fill-rule:nonzero;stroke:none"
         id="path3916" />
    </g>
  </g>
</svg>
