<?xml version="1.0" encoding="UTF-8" standalone="no"?>
<!-- Created with Inkscape (http://www.inkscape.org/) -->

<svg
   version="1.1"
   id="svg2"
   width="18.917328"
   height="18.220001"
   viewBox="0 0 18.917328 18.22"
   xmlns="http://www.w3.org/2000/svg"
   xmlns:svg="http://www.w3.org/2000/svg">
  <defs
     id="defs6" />
  <g
     id="g10"
     transform="matrix(1.3333333,0,0,-1.3333333,-507.46665,882.18396)">
    <g
       id="g12"
       transform="scale(0.1)">
      <path
         d="m 3823.5,6483.48 h 110 l -15,51.25 -75.63,3.75 z"
         style="fill:#ffffff;fill-opacity:1;fill-rule:nonzero;stroke:none"
         id="path3938" />
      <path
         d="m 3823.5,6483.48 v -3.75 h 115 l -17.15,58.61 -81.08,4.03 -22.07,-62.64 h 5.3 v 3.75 l 3.54,-1.25 18.44,52.37 70.16,-3.48 12.84,-43.89 H 3823.5 v -3.75 l 3.54,-1.25"
         style="fill:#231f20;fill-opacity:1;fill-rule:nonzero;stroke:none"
         id="path3940" />
      <path
         d="m 3806,6515.98 h 141.88 l -20.63,22.5 -11.87,33.75 v 25.63 h -67.51 l -14.37,-55"
         style="fill:#231f20;fill-opacity:1;fill-rule:nonzero;stroke:none"
         id="path3942" />
      <path
         d="m 3881.44,6616.38 -2.78,-20.42 h 5.55"
         style="fill:#231f20;fill-opacity:1;fill-rule:nonzero;stroke:none"
         id="path3944" />
      <path
         d="m 3912.46,6616.38 -2.79,-20.42 h 5.57"
         style="fill:#231f20;fill-opacity:1;fill-rule:nonzero;stroke:none"
         id="path3946" />
      <path
         d="m 3850.41,6616.38 -2.78,-20.42 h 5.56"
         style="fill:#231f20;fill-opacity:1;fill-rule:nonzero;stroke:none"
         id="path3948" />
      <path
         d="m 3904.44,6494.42 h 3.5391 v 12.5 h -3.5391 z"
         style="fill:#231f20;fill-opacity:1;fill-rule:nonzero;stroke:none"
         id="path3950" />
      <path
         d="m 3848.64,6494.42 h 3.5391 v 12.5 h -3.5391 z"
         style="fill:#231f20;fill-opacity:1;fill-rule:nonzero;stroke:none"
         id="path3952" />
      <path
         d="m 3853.64,6494.42 h 3.5391 v 12.5 h -3.5391 z"
         style="fill:#231f20;fill-opacity:1;fill-rule:nonzero;stroke:none"
         id="path3954" />
      <path
         d="m 3858.56,6494.42 h 3.543 v 12.5 h -3.543 z"
         style="fill:#231f20;fill-opacity:1;fill-rule:nonzero;stroke:none"
         id="path3956" />
      <path
         d="m 3878.5,6510.98 c -3.81,0 -6.89,-3.09 -6.89,-6.89 v -20.79 h 13.78 v 20.79 c 0,3.8 -3.09,6.89 -6.89,6.89"
         style="fill:#231f20;fill-opacity:1;fill-rule:nonzero;stroke:none"
         id="path3958" />
    </g>
  </g>
</svg>
