<?xml version="1.0" encoding="UTF-8" standalone="no"?>
<!-- John Grümph
     https://legrumph.org/Terrier/public/chibi/de-chorographia
     CC BY-NC 3.0
     https://creativecommons.org/licenses/by-nc/3.0/fr/ -->
<!-- Created with Inkscape (http://www.inkscape.org/) -->

<svg
   version="1.1"
   id="svg2"
   width="11.22147"
   height="21.735992"
   viewBox="0 0 11.22147 21.735992"
   xmlns="http://www.w3.org/2000/svg"
   xmlns:svg="http://www.w3.org/2000/svg">
  <defs
     id="defs6" />
  <g
     id="g10"
     transform="matrix(1.3333333,0,0,-1.3333333,-37.981198,653.45998)">
    <g
       id="g12"
       transform="scale(0.1)">
      <path
         d="m 346.184,4871.11 1.019,-1.47 5.11,5.32 -1.422,2.7 c -1.02,1.59 -2.161,2.86 -3.27,4.22 l -4.437,-8.04 c 1.109,-0.79 2.129,-1.7 3,-2.73"
         style="fill:#ffffff;fill-opacity:1;fill-rule:nonzero;stroke:none"
         id="path4536" />
      <path
         d="m 347.383,4810.88 c 3.012,-2.52 5.66,-4.68 7.512,-6.17 2.457,5.49 4.257,11.77 5.367,18.53 l -17.489,19.13 c -2.378,-1.63 -5.171,-2.68 -8.218,-2.67 l -1.551,0.18 -0.359,-1.04 c -0.711,-2.39 -1.403,-5.57 -1.403,-8.46 0,-2.7 0.602,-5.01 1.93,-6.5 2.769,-3.17 8.891,-8.54 14.211,-13"
         style="fill:#ffffff;fill-opacity:1;fill-rule:nonzero;stroke:none"
         id="path4538" />
      <path
         d="m 349.59,4864.93 c 0.699,-2.09 1.101,-4.34 1.101,-6.69 -0.011,-4.76 -1.582,-9.12 -4.23,-12.48 l 14.578,-15.95 c 0.211,2.51 0.481,4.99 0.481,7.6 0.011,12.35 -2.559,23.7 -6.739,32.91"
         style="fill:#ffffff;fill-opacity:1;fill-rule:nonzero;stroke:none"
         id="path4540" />
      <path
         d="m 319.094,4783.02 7.859,-1.59 7.668,1.5 c 6.031,2.27 11.66,7.05 16.27,14.22 0.589,0.92 1.062,2.06 1.621,3.06 -1.809,1.44 -4.84,3.9 -8.34,6.83 -5.41,4.55 -11.539,9.89 -14.762,13.54 -2.469,2.85 -3.156,6.44 -3.168,9.8 0.02,4.1 1.02,8.08 1.91,10.83 -1.23,0.61 -2.332,1.42 -3.371,2.31 l -1.769,-10.69 -2.41,0.33 -0.442,0.04 -1.289,0.05 c -1.199,0 -2.801,-0.12 -4.141,-0.59 -1.359,-0.46 -2.328,-1.14 -2.867,-2.18 -1.312,-2.48 -4.793,-9.78 -7.91,-16.37 -1.89,-4 -3.57,-7.59 -4.672,-9.93 1.153,-2.48 2.352,-4.91 3.723,-7.03 4.559,-7.09 10.117,-11.84 16.09,-14.13"
         style="fill:#ffffff;fill-opacity:1;fill-rule:nonzero;stroke:none"
         id="path4542" />
      <path
         d="m 307.434,4832.8 c 1.32,2.52 3.597,3.91 5.699,4.6 2.121,0.71 4.18,0.85 5.711,0.85 l 1.777,10.71 c -1.391,2.77 -2.211,5.91 -2.219,9.28 0,1.91 0.321,3.74 0.801,5.49 l -12.992,7.69 -1.859,7.99 -1.348,-1.75 c -6.492,-10.09 -10.652,-24.4 -10.641,-40.26 -0.011,-9.76 1.707,-18.79 4.438,-26.75 3.512,7.47 8.812,18.68 10.633,22.15"
         style="fill:#ffffff;fill-opacity:1;fill-rule:nonzero;stroke:none"
         id="path4544" />
      <path
         d="m 308.32,4884.47 2.282,-9.84 10.457,-6.2 c 0.543,0.95 1.16,1.86 1.851,2.68 2.82,3.38 6.969,5.68 11.641,5.66 1.461,0 2.828,-0.28 4.16,-0.69 l 5.34,9.69 c -5.199,4.88 -11.039,7.69 -17.11,7.68 -6.652,0.01 -13.07,-3.16 -18.621,-8.98"
         style="fill:#ffffff;fill-opacity:1;fill-rule:nonzero;stroke:none"
         id="path4546" />
      <path
         d="m 343.418,4769.8 v 0 l -1.988,-0.34 -2.731,0.73 -1.859,1.93 c -0.711,1.34 -0.793,2.45 -0.82,3.43 l -9.082,-1.76 -9.481,1.9 v -5.74 l 30.512,-4.16 c -0.86,1.05 -1.789,2.09 -2.692,2.84 l -1.847,1.17"
         style="fill:#ffffff;fill-opacity:1;fill-rule:nonzero;stroke:none"
         id="path4548" />
      <path
         d="m 357.461,4746.15 -61.371,2.97 -0.969,-0.12 v -3.57 h 62.34"
         style="fill:#ffffff;fill-opacity:1;fill-rule:nonzero;stroke:none"
         id="path4550" />
      <path
         d="m 311.191,4765.75 0.02,0.13 -6.109,-0.74 -2.43,-11.33 47.598,-2.31 v 8.92"
         style="fill:#ffffff;fill-opacity:1;fill-rule:nonzero;stroke:none"
         id="path4552" />
      <path
         d="m 347.969,4765.79 -30.508,4.16 v 5.74 l 9.469,-1.9 9.09,1.77 c 0.031,-0.99 0.097,-2.1 0.82,-3.44 l 1.859,-1.94 2.731,-0.72 1.988,0.34 0.012,-0.01 1.84,-1.16 c 0.91,-0.76 1.839,-1.8 2.699,-2.84 m -48.692,38.38 c 1.102,2.35 2.782,5.94 4.684,9.94 3.109,6.6 6.598,13.89 7.906,16.38 0.531,1.03 1.5,1.71 2.871,2.17 1.34,0.46 2.942,0.6 4.129,0.6 l 1.301,-0.05 0.441,-0.04 2.399,-0.33 1.781,10.68 c 1.031,-0.89 2.141,-1.69 3.371,-2.3 -0.89,-2.75 -1.902,-6.73 -1.922,-10.84 0.012,-3.35 0.7,-6.96 3.18,-9.8 3.223,-3.65 9.34,-8.98 14.75,-13.53 3.512,-2.93 6.531,-5.39 8.34,-6.84 -0.559,-0.99 -1.02,-2.13 -1.617,-3.06 -4.614,-7.16 -10.231,-11.95 -16.274,-14.22 l -7.668,-1.49 -7.859,1.58 c -5.961,2.3 -11.531,7.04 -16.09,14.13 -1.371,2.13 -2.57,4.54 -3.723,7.02 m 3.723,73.5 1.359,1.74 1.852,-7.99 12.988,-7.69 c -0.48,-1.75 -0.801,-3.57 -0.801,-5.49 0.012,-3.37 0.832,-6.51 2.231,-9.28 l -1.789,-10.7 c -1.52,-0.01 -3.582,-0.15 -5.699,-0.85 -2.102,-0.7 -4.391,-2.08 -5.711,-4.61 -1.813,-3.47 -7.121,-14.68 -10.629,-22.15 -2.731,7.96 -4.453,16.99 -4.442,26.76 -0.011,15.86 4.149,30.16 10.641,40.26 m 35.711,-1.58 c -1.332,0.4 -2.703,0.69 -4.16,0.69 -4.672,0.01 -8.821,-2.28 -11.641,-5.67 -0.691,-0.83 -1.312,-1.73 -1.84,-2.67 l -10.472,6.2 -2.278,9.84 c 5.547,5.82 11.969,8.99 18.618,8.97 6.07,0.02 11.91,-2.8 17.113,-7.68 z m 22.328,-46.28 -14.578,15.95 c 2.648,3.36 4.219,7.72 4.227,12.48 0,2.35 -0.399,4.6 -1.098,6.69 l 5.187,5.39 c 4.184,-9.21 6.75,-20.56 6.743,-32.91 0,-2.61 -0.27,-5.09 -0.481,-7.6 m -32.391,20.38 c -1.64,1.96 -2.75,4.82 -2.75,8.05 0,3.23 1.11,6.09 2.75,8.05 1.672,1.97 3.711,2.99 5.903,2.99 2.179,0 4.219,-1.02 5.887,-2.99 1.64,-1.96 2.75,-4.82 2.75,-8.05 0,-3.23 -1.11,-6.09 -2.75,-8.05 -1.668,-1.96 -3.708,-2.98 -5.887,-2.99 -2.192,0.01 -4.231,1.03 -5.903,2.99 m 18.969,31.69 c 1.113,-1.36 2.25,-2.63 3.274,-4.21 l 1.429,-2.7 -5.121,-5.32 -1.019,1.46 c -0.871,1.04 -1.891,1.94 -3,2.74 z m -14.969,-43.03 0.352,1.04 1.551,-0.19 c 3.058,0 5.84,1.05 8.219,2.68 l 17.488,-19.14 c -1.11,-6.76 -2.91,-13.04 -5.367,-18.52 -1.84,1.48 -4.5,3.64 -7.512,6.16 -5.32,4.46 -11.43,9.84 -14.199,13.01 -1.332,1.48 -1.942,3.79 -1.942,6.49 0,2.9 0.692,6.07 1.41,8.47 m -29.968,-85.04 2.418,11.34 6.113,0.73 -0.023,-0.12 39.082,-5.33 v -8.93 z m -7.563,-4.81 0.981,0.12 61.363,-2.97 v -0.72 h -62.344 z m 62.653,14.87 v 1.07 l -0.551,0.9 c -0.071,0.1 -1.629,2.63 -3.918,5.31 -1.16,1.34 -2.492,2.72 -4.031,3.89 -1.481,1.07 -3.231,2.06 -5.551,2.19 l 0.101,0.67 0.231,0.89 0.097,0.3 0.122,0.35 c 4.96,3.35 9.339,8.05 12.941,13.66 7.387,11.56 11.797,27.14 11.809,44.31 -0.012,17.16 -4.422,32.75 -11.809,44.3 -7.363,11.5 -18,19.22 -30.273,19.24 -12.258,-0.02 -22.911,-7.74 -30.258,-19.24 -7.391,-11.55 -11.813,-27.14 -11.821,-44.3 0.008,-17.17 4.43,-32.75 11.821,-44.31 3.668,-5.75 8.168,-10.55 13.281,-13.92 v -5.89 l -8.41,-1.02 -2.66,-0.31 -3.282,-15.34 -4.711,-0.6 -3.281,-0.42 v -17.67 h 77.344 v 17.19 h -7.191"
         style="fill:#231f20;fill-opacity:1;fill-rule:nonzero;stroke:none"
         id="path4554" />
    </g>
  </g>
</svg>
