<?xml version="1.0" encoding="UTF-8" standalone="no"?>
<!-- Created with Inkscape (http://www.inkscape.org/) -->

<svg
   version="1.1"
   id="svg2"
   width="20.597351"
   height="17.777344"
   viewBox="0 0 20.597351 17.777343"
   xmlns="http://www.w3.org/2000/svg"
   xmlns:svg="http://www.w3.org/2000/svg">
  <defs
     id="defs6" />
  <g
     id="g10"
     transform="matrix(1.3333333,0,0,-1.3333333,-141.20532,649.50134)">
    <g
       id="g12"
       transform="scale(0.1)">
      <path
         d="m 1163.48,4785.62 -5.81,14.05 -1.81,8.03 -5.22,3.2 c 0,0 -8.02,3.22 -21.07,9.64 -13.03,6.42 -4,14.65 -4,14.65 l 4,7.42 c 0,0 1.81,4.42 1,7.82 -0.27,1.18 0.12,2.7 0.72,4.19 -6.97,-3.29 -12.76,-6.7 -15.65,-8.84 l -1.44,-1.15 c -0.18,-0.48 -0.5,-1.4 -0.86,-2.6 -0.47,-1.53 -0.99,-3.37 -1.49,-5.15 -1,-3.55 -1.87,-6.79 -1.87,-6.8 l -0.47,-1.85 -1.8,-0.69 c 0,0 -0.76,-0.29 -2.1,-0.88 -1.34,-0.58 -3.2,-1.44 -5.29,-2.51 -4.14,-2.13 -9.13,-5.2 -12.28,-8.39 -2.13,-2.13 -3.25,-4.2 -3.35,-5.68 -0.96,-9.66 -5.98,-15.25 -8.64,-17.58 l -0.95,-21.24 1.25,-1.06 c 1.45,-1.14 3.47,-2.35 5.45,-2.82 3.45,-0.81 5.41,-3.35 6.29,-5.36 0.48,-1.07 0.73,-2.03 0.87,-2.74 l 7.86,-6.22 -3.11,-3.91 -9.5,7.51 -0.07,1.1 -0.01,0.11 -0.08,0.48 -0.52,1.61 c -0.57,1.2 -1.33,2.17 -2.9,2.56 -3.62,0.92 -6.42,2.91 -8.19,4.45 l -0.48,-0.21 -1.92,-0.98 c -1.45,-0.79 -3.01,-2.04 -3.38,-2.69 l -0.09,-0.17 c 1.81,-4.89 2.02,-10.48 2.06,-12.3 l 1.67,-5.2 h 29.91 l 1.07,12.11 1.2,6.01 2.62,7.43 10.63,3.21 0.48,-0.02 -3.98,6.98 v 0.67 9.04 c -1.25,0.28 -2.84,0.65 -4.13,0.97 -1.05,0.3 -1.55,0.76 -2.14,1.24 l -1.68,1.71 c -1.12,1.27 -2.3,2.83 -3.42,4.36 -2.2,3.06 -4.07,5.99 -4.09,6.02 l 4.21,2.68 c 0,0 0.9,-1.4 2.18,-3.26 1.27,-1.86 2.91,-4.17 4.32,-5.87 0.9,-1.1 1.79,-1.94 2.03,-2.07 2.35,-0.59 5.76,-1.34 5.76,-1.34 l 1.96,-0.44 v -2 -10.38 l 4.48,-7.84 c 2.25,1.41 4.77,2.35 7.48,2.43 l 1.34,7.4 4.92,-0.89 -1.32,-7.25 c 1.66,-0.56 3.24,-1.35 4.64,-2.41 2.67,-2 4.89,-4.72 6.71,-7.92 3.18,-5.56 5.14,-12.7 5.75,-20.57 h 34.65"
         style="fill:#ffffff;fill-opacity:1;fill-rule:nonzero;stroke:none"
         id="path4696" />
      <path
         d="m 1151.24,4745.43 c -0.62,7.87 -2.59,15 -5.75,20.55 -1.84,3.22 -4.05,5.94 -6.72,7.93 -1.41,1.05 -2.98,1.86 -4.64,2.41 l 1.32,7.25 -4.92,0.89 -1.34,-7.39 c -2.72,-0.09 -5.23,-1.02 -7.48,-2.44 l -4.48,7.85 v 10.37 2.01 l -1.97,0.43 c 0,0 -3.4,0.76 -5.76,1.34 -0.23,0.14 -1.12,0.98 -2.01,2.08 -1.42,1.7 -3.07,4 -4.34,5.86 -1.28,1.86 -2.16,3.27 -2.16,3.27 l -4.22,-2.7 c 0.02,-0.01 1.88,-2.95 4.09,-6 1.11,-1.53 2.29,-3.09 3.42,-4.37 l 1.68,-1.7 c 0.58,-0.5 1.1,-0.95 2.14,-1.25 1.29,-0.32 2.89,-0.68 4.13,-0.97 v -9.05 -0.66 l 3.99,-6.98 -0.49,0.03 -10.63,-3.21 -2.61,-7.43 -1.21,-6.02 -1.08,-12.1 h -29.9 l -1.68,5.2 c -0.04,1.82 -0.24,7.41 -2.05,12.3 l 0.09,0.17 c 0.36,0.63 1.92,1.9 3.38,2.69 l 1.91,0.98 0.48,0.21 c 1.79,-1.54 4.57,-3.54 8.19,-4.46 1.58,-0.39 2.34,-1.36 2.91,-2.56 l 0.51,-1.6 0.09,-0.49 0.01,-0.11 0.08,-1.1 9.49,-7.52 3.11,3.93 -7.87,6.22 c -0.13,0.71 -0.39,1.67 -0.86,2.74 -0.88,2.01 -2.85,4.54 -6.29,5.36 -1.99,0.46 -4,1.68 -5.45,2.81 l -1.25,1.06 0.95,21.25 c 2.67,2.31 7.69,7.92 8.64,17.56 0.09,1.5 1.22,3.57 3.35,5.69 3.14,3.2 8.13,6.27 12.28,8.4 2.08,1.07 3.95,1.91 5.29,2.51 1.33,0.58 2.1,0.87 2.1,0.87 l 1.79,0.69 0.49,1.84 c 0,0.02 0.86,3.27 1.86,6.82 0.49,1.77 1.02,3.62 1.49,5.14 0.36,1.2 0.67,2.11 0.86,2.6 l 1.43,1.15 c 2.9,2.15 8.69,5.56 15.66,8.84 -0.61,-1.48 -0.99,-3 -0.71,-4.18 0.8,-3.41 -1,-7.82 -1,-7.82 l -4.01,-7.43 c 0,0 -9.04,-8.23 4.01,-14.65 13.04,-6.42 21.06,-9.63 21.06,-9.63 l 5.22,-3.21 1.81,-8.03 5.82,-14.04 22.39,-40.2 z m 57.04,41.95 -2.92,-2.36 2.92,2.36 c -6.12,7.58 -9.42,11.97 -11.02,14.58 -0.81,1.32 -1.17,2.14 -1.33,2.67 l -0.2,1.53 c -0.01,2.28 -0.5,5.86 -0.97,9.2 -0.16,1.1 -0.31,2.09 -0.45,2.99 1.3,0.5 2.83,1.11 4.46,1.95 1.93,1 3.94,2.22 5.67,3.89 1.69,1.63 3.29,3.95 3.31,6.99 l -0.44,2.64 c -2.5,7.44 -6.95,13.57 -7.64,14.53 -0.45,0.81 -3.36,5.88 -8.95,11.26 -5.92,5.69 -15,11.65 -26.95,11.65 l -2.55,-0.09 c -12.18,-0.88 -24.85,-5.67 -34.79,-10.5 -4.98,-2.44 -9.23,-4.87 -12.4,-6.91 -1.58,-1.03 -2.88,-1.94 -3.89,-2.73 l -1.36,-1.18 c -0.41,-0.44 -0.78,-0.73 -1.29,-1.76 -0.43,-0.99 -0.82,-2.24 -1.33,-3.88 -1.02,-3.36 -2.26,-7.93 -2.94,-10.41 -2.32,-0.98 -6.61,-2.93 -11.1,-5.63 -3.27,-1.98 -6.64,-4.35 -9.42,-7.13 -2.73,-2.79 -5.05,-6.11 -5.48,-10.24 -0.47,-4.84 -2.27,-8.14 -3.93,-10.32 -0.83,-1.07 -1.62,-1.85 -2.19,-2.34 l -0.62,-0.51 -0.14,-0.1 -1.61,-1.05 -1.05,-23.47 c -0.8,-0.4 -1.69,-0.88 -2.66,-1.5 -1.25,-0.81 -2.57,-1.8 -3.72,-3.12 -1.12,-1.28 -2.24,-3.09 -2.26,-5.45 l 0.48,-2.55 c 0.73,-1.85 1.2,-4.57 1.41,-6.71 0.1,-1.08 0.16,-2.02 0.19,-2.7 l 0.02,-1 v -0.59 l 2.86,-8.86 0.84,-2.6 h 50.22 l 0.08,3.67 c 0.15,8.26 2.14,15.65 5.04,20.67 1.43,2.52 3.07,4.43 4.69,5.62 1.63,1.22 3.16,1.74 4.71,1.74 1.55,0 3.08,-0.52 4.71,-1.74 4.95,-3.52 9.56,-13.89 9.73,-26.29 l 0.08,-3.67 h 58.26 l 1.11,1.78 c 0.08,0.29 9.93,15.72 10.05,31.46 0.01,5.56 -1.34,11.38 -5.24,16.21"
         style="fill:#231f20;fill-opacity:1;fill-rule:nonzero;stroke:none"
         id="path4698" />
    </g>
  </g>
</svg>
