<?xml version="1.0" encoding="UTF-8" standalone="no"?>
<!-- John Grümph
     https://legrumph.org/Terrier/public/chibi/de-chorographia
     CC BY-NC 3.0
     https://creativecommons.org/licenses/by-nc/3.0/fr/ -->
<!-- Created with Inkscape (http://www.inkscape.org/) -->

<svg
   version="1.1"
   id="svg2"
   width="60.196938"
   height="19"
   viewBox="0 0 60.196937 18.999999"
   xmlns="http://www.w3.org/2000/svg"
   xmlns:svg="http://www.w3.org/2000/svg">
  <defs
     id="defs6" />
  <g
     id="g10"
     transform="matrix(1.3333333,0,0,-1.3333333,-79.215065,650.72399)">
    <g
       id="g12"
       transform="scale(0.1)">
      <path
         d="M 696.609,4829.18 H 675.48 l 2.262,-48.13 h 3.059 c 1.058,0 2.39,0 3.672,0 l 7.828,24.36"
         style="fill:#ffffff;fill-opacity:1;fill-rule:nonzero;stroke:none"
         id="path4664" />
      <path
         d="m 901.418,4830.82 -0.191,0.19 c -0.719,0.66 -1.762,1.59 -3.071,2.6 -2.621,2.02 -6.269,4.38 -10.261,5.7 -1.071,0.38 -3.809,0.66 -7.188,0.65 -7.312,0 -17.883,-1.02 -26.57,-2.05 -5.801,-0.68 -10.711,-1.35 -13.36,-1.73 v -7 h -0.3 l 2.468,-17.15 56.121,5.42"
         style="fill:#ffffff;fill-opacity:1;fill-rule:nonzero;stroke:none"
         id="path4666" />
      <path
         d="m 740,4800.39 c -3.57,0.62 -12.48,2.62 -19.98,8.73 -3.79,3.09 -5.079,7.37 -5.04,11.14 0.008,3.37 0.899,6.52 1.809,8.92 h -15.09 l -4.527,-24.98 -7.442,-23.15 c 13.641,-0.01 34.559,-0.06 56.36,-0.22"
         style="fill:#ffffff;fill-opacity:1;fill-rule:nonzero;stroke:none"
         id="path4668" />
      <path
         d="m 739.512,4860.45 c -18.418,-4.4 -32.621,-11.51 -56.731,-26.27 h 152.992 v 6.31 l 2.129,0.32 c 0.071,0.01 27.411,4.13 42.801,4.14 3.629,-0.02 6.539,-0.18 8.777,-0.9 7.762,-2.62 13.641,-7.93 15.653,-9.87 h 60.09 l -1.27,2.17 c -3.32,5.04 -8.633,10.78 -16.5,16.2 -15.723,10.82 -41.672,20.38 -82.223,20.39 -8.187,0 -16.988,-0.4 -26.41,-1.25 -51.918,-4.68 -78.609,-6.27 -99.308,-11.24"
         style="fill:#ffffff;fill-opacity:1;fill-rule:nonzero;stroke:none"
         id="path4670" />
      <path
         d="m 928.352,4777.95 -11.422,0.31 5.359,-32.83 h 19.301 z"
         style="fill:#ffffff;fill-opacity:1;fill-rule:nonzero;stroke:none"
         id="path4672" />
      <path
         d="m 805.676,4788.73 -8.793,3.52 -15.09,36.6 0.801,0.32 h -60.371 l -0.731,-1.69 c -0.789,-2.05 -1.519,-4.72 -1.519,-7.22 0.043,-2.81 0.781,-5.24 3.222,-7.28 6.008,-4.96 13.809,-6.97 17.25,-7.6 1.141,-0.22 1.739,-0.28 1.739,-0.28 l 1.629,-0.18 7.519,-24.13 c 19.57,-0.16 39.191,-0.4 54.344,-0.8"
         style="fill:#ffffff;fill-opacity:1;fill-rule:nonzero;stroke:none"
         id="path4674" />
      <path
         d="m 971.563,4776.77 -37.75,1.03 12.691,-31.17 1.418,-1.2 h 72.208"
         style="fill:#ffffff;fill-opacity:1;fill-rule:nonzero;stroke:none"
         id="path4676" />
      <path
         d="m 955.762,4782.2 15.011,-0.42 c -0.242,3.2 -0.652,8.73 -1.05,14.99 l -15.121,1.81"
         style="fill:#ffffff;fill-opacity:1;fill-rule:nonzero;stroke:none"
         id="path4678" />
      <path
         d="m 967.578,4829.18 h -31.59 v -23.34 l 33.418,-3.99 c -0.5,8.24 -0.918,16.95 -0.918,22.95 0.02,1 -0.289,2.54 -0.91,4.38"
         style="fill:#ffffff;fill-opacity:1;fill-rule:nonzero;stroke:none"
         id="path4680" />
      <path
         d="m 819.082,4745.43 5.781,28.82 c -3.543,0.21 -8.14,0.42 -13.722,0.6 -12.059,0.36 -28.098,0.63 -44.938,0.81 -33.691,0.36 -70.601,0.39 -85.402,0.39 h -2.821 l 0.032,-0.48 -3.09,-0.68 c -0.012,0 -2.219,-0.5 -5.942,-1.44 -3.726,-0.97 -8.929,-2.38 -14.82,-4.22 -11.758,-3.64 -26.269,-9.02 -36.906,-15.5 -4.363,-2.64 -7.891,-5.48 -10.461,-8.3"
         style="fill:#ffffff;fill-opacity:1;fill-rule:nonzero;stroke:none"
         id="path4682" />
      <path
         d="m 856.191,4808.28 -14.082,-1.36 2.274,-61.5 h 11.808 z"
         style="fill:#ffffff;fill-opacity:1;fill-rule:nonzero;stroke:none"
         id="path4684" />
      <path
         d="m 810.676,4779.86 c 4.976,-0.15 9.367,-0.32 12.847,-0.51 4.192,-0.24 7.059,-0.47 8.75,-0.83 l 1.52,-0.57 c 1.512,-0.96 2.762,-1.18 3.762,-1.19 l 0.668,0.09 -1.278,34.59 1.02,0.1 -2.531,17.64 h -48.36 l 13.629,-33.07 9.973,-3.99 v -1.69"
         style="fill:#ffffff;fill-opacity:1;fill-rule:nonzero;stroke:none"
         id="path4686" />
      <path
         d="m 909.18,4794.78 -6.739,17.97 -10.543,-1.02 9.071,-66.31 h 16.25"
         style="fill:#ffffff;fill-opacity:1;fill-rule:nonzero;stroke:none"
         id="path4688" />
      <path
         d="m 839.387,4745.43 -0.981,26.46 -0.851,-0.12 c -1.75,-0.01 -3.942,0.49 -6.16,1.83 l -0.008,-0.01 -0.184,0.05 -1.117,0.18 -0.211,0.02 -5.691,-28.41"
         style="fill:#ffffff;fill-opacity:1;fill-rule:nonzero;stroke:none"
         id="path4690" />
      <path
         d="m 914.031,4796.07 2.09,-12.78 34.621,-0.96 -1.199,16.85 -18.559,2.22 v 27.78 h -24.769 l -1.981,-11.23 1.547,0.15"
         style="fill:#ffffff;fill-opacity:1;fill-rule:nonzero;stroke:none"
         id="path4692" />
      <path
         d="m 891.902,4811.73 10.543,1.02 6.739,-17.96 8.031,-49.36 h -16.25 z m -47.519,-66.3 -2.27,61.5 14.082,1.36 v -62.86 z m -227.129,8.3 c 10.641,6.48 25.148,11.86 36.91,15.5 5.879,1.84 11.09,3.25 14.82,4.22 3.719,0.96 5.93,1.44 5.942,1.44 l 3.078,0.68 -0.031,0.48 h 2.832 c 14.8,0 51.711,-0.03 85.398,-0.39 16.832,-0.18 32.883,-0.45 44.942,-0.82 5.57,-0.18 10.168,-0.38 13.718,-0.59 l -5.777,-28.82 H 606.793 c 2.57,2.82 6.102,5.66 10.461,8.3 m 318.73,52.11 v 23.34 h 31.59 c 0.629,-1.84 0.93,-3.38 0.91,-4.38 0,-5.98 0.418,-14.71 0.918,-22.96 z m 34.789,-24.05 -15.007,0.41 -1.161,16.37 15.11,-1.8 c 0.398,-6.27 0.808,-11.79 1.058,-14.98 m -64.558,47.39 h 24.769 v -27.79 l 18.559,-2.21 1.199,-16.84 -34.617,0.95 -2.09,12.78 -8.25,22.02 -1.562,-0.13 z m -76.34,-55.34 0.211,-0.02 1.117,-0.18 0.18,-0.05 0.012,0.02 c 2.218,-1.36 4.41,-1.86 6.16,-1.84 l 0.847,0.12 0.981,-26.46 h -15.188 z m -29.172,22.27 -13.629,33.07 h 48.36 l 2.531,-17.63 -1.02,-0.1 1.278,-34.59 -0.668,-0.09 c -1,0 -2.25,0.23 -3.77,1.19 l -1.512,0.56 c -1.687,0.36 -4.558,0.59 -8.75,0.82 -3.488,0.2 -7.871,0.37 -12.847,0.52 v 10.57 1.7 z m -49.367,-15.31 -7.523,24.13 -1.629,0.16 c 0,0 -0.598,0.07 -1.739,0.29 -3.441,0.64 -11.25,2.64 -17.25,7.6 -2.441,2.04 -3.179,4.48 -3.222,7.29 0,2.5 0.73,5.16 1.519,7.21 l 0.731,1.7 h 60.371 l -0.801,-0.34 15.09,-36.59 8.793,-3.52 V 4780 c -15.153,0.39 -34.774,0.64 -54.34,0.8 m -54.172,23.4 4.531,24.98 h 15.09 c -0.91,-2.41 -1.793,-5.55 -1.801,-8.91 -0.039,-3.77 1.25,-8.06 5.039,-11.16 7.5,-6.11 16.403,-8.11 19.981,-8.72 l 6.09,-19.55 c -21.809,0.14 -42.731,0.2 -56.371,0.21 z m -16.359,-23.15 h -3.063 l -2.269,48.13 h 21.14 l -4.308,-23.77 -7.832,-24.36 c -1.278,0 -2.61,0 -3.668,0 m 162.14,30.97 -2.472,17.16 h 0.3 v 7 c 2.653,0.37 7.571,1.05 13.372,1.73 8.679,1.02 19.25,2.05 26.558,2.05 3.383,0 6.121,-0.28 7.199,-0.66 3.981,-1.32 7.633,-3.66 10.25,-5.69 1.313,-1.02 2.352,-1.95 3.082,-2.61 l 0.18,-0.18 -2.351,-13.37 z m 79.34,-66.59 -5.351,32.84 11.421,-0.31 13.239,-32.53 z m 25.641,0 -1.422,1.2 -12.699,31.17 37.758,-1.03 48.567,-31.34 z m -0.473,107.12 c 7.871,-5.41 13.18,-11.16 16.5,-16.19 l 1.27,-2.18 h -60.098 c -2,1.95 -7.883,7.25 -15.641,9.87 -2.242,0.72 -5.148,0.88 -8.781,0.91 -15.39,-0.03 -42.738,-4.14 -42.801,-4.14 l -2.129,-0.32 v -6.32 H 682.785 c 24.11,14.77 38.309,21.87 56.731,26.28 20.699,4.95 47.386,6.54 99.297,11.24 9.429,0.85 18.23,1.23 26.421,1.23 40.551,0 66.489,-9.55 82.219,-20.38 m 30.883,-71.23 c -0.223,2.84 -0.672,8.68 -1.113,15.52 -0.618,9.57 -1.239,20.96 -1.239,27.96 -0.039,4.41 -1.89,9.72 -5.769,15.68 -11.68,17.75 -42.422,39.98 -104.981,39.95 -8.441,0 -17.449,-0.39 -27.089,-1.27 -51.832,-4.7 -78.571,-6.23 -100.372,-11.41 -21.859,-5.21 -38.16,-14.14 -68.16,-32.89 l -1.847,-1.16 2.449,-52.22 c -5.563,-1.35 -17.93,-4.57 -31.07,-9.41 -8.852,-3.25 -18.04,-7.23 -25.782,-11.93 -7.711,-4.75 -14.148,-10.12 -17.09,-17.03 l -2.16,-5.18 h 5.621 445.856"
         style="fill:#231f20;fill-opacity:1;fill-rule:nonzero;stroke:none"
         id="path4694" />
    </g>
  </g>
</svg>
