<?xml version="1.0" encoding="UTF-8" standalone="no"?>
<!-- John Grümph
     https://legrumph.org/Terrier/public/chibi/de-chorographia
     CC BY-NC 3.0
     https://creativecommons.org/licenses/by-nc/3.0/fr/ -->
<!-- Created with Inkscape (http://www.inkscape.org/) -->

<svg
   version="1.1"
   id="svg2"
   width="21.089466"
   height="31.17734"
   viewBox="0 0 21.089466 31.177338"
   xmlns="http://www.w3.org/2000/svg"
   xmlns:svg="http://www.w3.org/2000/svg">
  <defs
     id="defs6" />
  <g
     id="g10"
     transform="matrix(1.3333333,0,0,-1.3333333,-56.002667,662.90133)">
    <g
       id="g12"
       transform="scale(0.1)">
      <path
         d="m 456.113,4777.56 78.91,-11.11 v 10.09 c -1.621,-0.1 -3.441,-0.19 -5.039,-0.2 -1.32,0.03 -2.312,0.01 -3.613,0.32 -0.469,0.16 -1.027,0.22 -2.019,1.1 -0.481,0.42 -0.969,1.35 -1.098,2.39 l -0.07,-0.02 -0.012,0.04 -0.141,0.56 -0.59,2.11 c -0.507,1.73 -1.187,3.96 -1.867,6.16 -0.429,1.37 -0.84,2.67 -1.222,3.88 -3.309,-2.29 -6.868,-4.2 -10.637,-5.76 l -5.223,-3.03 -6.179,-0.44 c -3.329,-0.61 -6.75,-0.98 -10.258,-0.98 l -2.043,0.1 -0.969,-0.07 -0.559,0.15 c -7.363,0.45 -14.332,2.27 -20.679,5.24 l -6.692,-3.84"
         style="fill:#ffffff;fill-opacity:1;fill-rule:nonzero;stroke:none"
         id="path4556" />
      <path
         d="m 427.52,4745.43 h 113.75 v 4.0625 H 427.52 Z"
         style="fill:#ffffff;fill-opacity:1;fill-rule:nonzero;stroke:none"
         id="path4558" />
      <path
         d="m 535.02,4754.49 v 6.91 l -84.059,11.84 h -11.723 v -18.75"
         style="fill:#ffffff;fill-opacity:1;fill-rule:nonzero;stroke:none"
         id="path4560" />
      <path
         d="M 541.27,4745.43 H 427.52 v 4.0586 h 113.75 z m -90.309,27.81 84.059,-11.84 v -6.91 h -95.782 v 18.75 z m 32.527,9.61 0.551,-0.15 0.973,0.07 2.039,-0.1 c 3.519,0 6.929,0.37 10.258,0.98 l 6.191,0.44 5.211,3.03 c 3.769,1.56 7.328,3.47 10.648,5.76 0.379,-1.21 0.789,-2.51 1.219,-3.88 0.672,-2.2 1.352,-4.43 1.863,-6.16 l 0.598,-2.11 0.133,-0.56 0.008,-0.04 0.07,0.02 c 0.129,-1.04 0.629,-1.97 1.109,-2.39 0.981,-0.88 1.551,-0.94 2.02,-1.1 1.301,-0.31 2.281,-0.29 3.601,-0.32 1.598,0.01 3.418,0.1 5.04,0.2 v -10.09 l -78.911,11.11 v 6.69 l 6.692,3.84 c 6.347,-2.97 13.32,-4.79 20.687,-5.24 m -16.597,39.72 c 4.929,-5.64 12.078,-9.28 20.16,-9.28 6.64,0 12.629,2.5 17.32,6.48 l 5.469,-7.25 -17.641,-9.28 5.621,-11.75 c -3.48,-0.78 -7.05,-1.32 -10.769,-1.32 -13.821,0 -26.289,5.59 -35.352,14.64 -1.73,1.73 -3.187,3.68 -4.66,5.64 z m -2.93,4.07 -19.672,-12.01 c -0.93,1.53 -1.828,3.09 -2.578,4.73 l 20.73,10.07 c 0.43,-0.98 0.981,-1.88 1.52,-2.79 m 42.469,13.53 c -0.02,-10.71 -8.68,-19.36 -19.379,-19.38 -10.699,0.02 -19.352,8.67 -19.371,19.38 0.019,10.7 8.679,19.35 19.371,19.37 10.699,-0.02 19.359,-8.67 19.379,-19.37 m -7.641,-39.12 18.59,9.79 -9.481,12.55 c 1.223,1.52 2.293,3.16 3.161,4.93 l 17.011,-16.27 c -6.082,-8.94 -14.898,-15.82 -25.308,-19.31 z m 38.102,40.55 0.078,-2.46 17.062,-6.83 -18.82,-4.79 -0.609,-2.01 c -0.993,-3.18 -2.364,-6.16 -3.922,-9.04 l -17.711,16.94 c 0.57,2.17 0.961,4.41 0.961,6.76 0,7.96 -3.532,15.03 -9.032,19.95 l 14.582,17.65 c 10.301,-8.81 17,-21.62 17.411,-36.17 m -49.469,48.44 8.367,34.99 3.172,-36.49 2.437,-0.73 c 5.133,-1.55 9.903,-3.91 14.204,-6.9 l -14.723,-17.8 c -4.051,2.44 -8.75,3.93 -13.828,3.93 -11.262,0 -20.86,-6.93 -24.86,-16.75 l -3.632,1.55 4.75,15 -9.508,10.27 c 8.289,7.4 18.937,12.21 30.808,12.79 z m -50.371,-49.87 c 0.008,12.97 5.058,24.61 13.16,33.45 l 7.461,-8.04 -5.25,-16.57 8.289,-3.53 c -0.34,-1.71 -0.531,-3.49 -0.531,-5.31 0,-2.05 0.269,-4.03 0.711,-5.94 l -20.95,-10.17 c -1.742,5.08 -2.89,10.43 -2.89,16.11 m 105.469,-55.48 -4.09,-0.37 c 0,0 -1.282,-0.12 -2.989,-0.24 -1.722,-0.12 -3.871,-0.24 -5.461,-0.24 l -0.031,0.01 c -0.597,2.16 -1.539,5.19 -2.469,8.21 -0.71,2.29 -1.39,4.39 -1.851,5.88 6.851,6.35 12.152,14.29 15.32,23.3 l 37.242,9.49 -10.679,4.27 -23.391,9.36 c -1.711,23.17 -17.051,42.27 -38.101,49.67 l -6.758,77.73 -17.891,-74.78 c -13.672,-1.37 -26.019,-7.29 -35.172,-16.49 -10.277,-10.32 -16.648,-24.58 -16.648,-40.32 0,-19.95 10.168,-37.52 25.597,-47.83 l -6.539,-3.75 v -7.85 h -13.121 -3.75 v -22.5 h -7.968 -3.75 v -20.31 h 128.75 v 20.31 h -6.25"
         style="fill:#231f20;fill-opacity:1;fill-rule:nonzero;stroke:none"
         id="path4562" />
      <path
         d="m 460.176,4840.17 c 0,1.82 0.199,3.6 0.539,5.32 l -8.289,3.53 5.242,16.56 -7.453,8.04 c -8.11,-8.84 -13.16,-20.48 -13.168,-33.45 0,-5.67 1.16,-11.03 2.898,-16.11 l 20.942,10.17 c -0.442,1.92 -0.711,3.89 -0.711,5.94"
         style="fill:#ffffff;fill-opacity:1;fill-rule:nonzero;stroke:none"
         id="path4564" />
      <path
         d="m 513.926,4840.17 c 0,-2.35 -0.391,-4.58 -0.961,-6.75 l 17.723,-16.95 c 1.546,2.88 2.929,5.86 3.91,9.04 l 0.617,2.01 18.82,4.79 -17.058,6.83 -0.082,2.46 c -0.411,14.55 -7.118,27.36 -17.411,36.18 l -14.578,-17.65 c 5.489,-4.93 9.02,-12 9.02,-19.96"
         style="fill:#ffffff;fill-opacity:1;fill-rule:nonzero;stroke:none"
         id="path4566" />
      <path
         d="m 463.313,4866.84 -4.75,-15 3.628,-1.55 c 4,9.82 13.602,16.75 24.86,16.75 5.082,0 9.781,-1.49 13.832,-3.94 l 14.719,17.81 c -4.301,2.99 -9.071,5.34 -14.2,6.9 l -2.441,0.73 -3.168,36.49 -8.371,-34.99 -2.813,-0.14 c -11.867,-0.58 -22.519,-5.39 -30.808,-12.79"
         style="fill:#ffffff;fill-opacity:1;fill-rule:nonzero;stroke:none"
         id="path4568" />
      <path
         d="m 487.051,4790.17 c 3.719,0 7.289,0.54 10.769,1.32 l -5.621,11.75 17.641,9.28 -5.481,7.25 c -4.679,-3.98 -10.668,-6.47 -17.308,-6.47 -8.078,0 -15.231,3.63 -20.16,9.27 l -19.848,-12.12 c 1.469,-1.95 2.93,-3.91 4.656,-5.64 9.063,-9.05 21.531,-14.64 35.352,-14.64"
         style="fill:#ffffff;fill-opacity:1;fill-rule:nonzero;stroke:none"
         id="path4570" />
      <path
         d="m 444.285,4814.63 19.672,12.01 c -0.539,0.91 -1.09,1.81 -1.519,2.79 l -20.731,-10.06 c 0.75,-1.64 1.648,-3.21 2.578,-4.74"
         style="fill:#ffffff;fill-opacity:1;fill-rule:nonzero;stroke:none"
         id="path4572" />
      <path
         d="m 528.066,4812.05 -17,16.27 c -0.878,-1.77 -1.949,-3.4 -3.171,-4.92 l 9.492,-12.56 -18.602,-9.79 3.981,-8.31 c 10.41,3.49 19.23,10.37 25.3,19.31"
         style="fill:#ffffff;fill-opacity:1;fill-rule:nonzero;stroke:none"
         id="path4574" />
    </g>
  </g>
</svg>
