<?xml version="1.0" encoding="UTF-8" standalone="no"?>
<!-- Created with Inkscape (http://www.inkscape.org/) -->

<svg
   version="1.1"
   id="svg2"
   width="18.695999"
   height="23.666658"
   viewBox="0 0 18.695999 23.666657"
   xmlns="http://www.w3.org/2000/svg"
   xmlns:svg="http://www.w3.org/2000/svg">
  <defs
     id="defs6" />
  <g
     id="g10"
     transform="matrix(1.3333333,0,0,-1.3333333,-190.19066,654.87331)">
    <g
       id="g12"
       transform="scale(0.1)">
      <path
         d="m 1542.29,4788.53 -17.5,2.18 -4.38,-6.7 15.39,-19.99 6.36,5.88 6.64,19.95"
         style="fill:#ffffff;fill-opacity:1;fill-rule:nonzero;stroke:none"
         id="path4708" />
      <path
         d="m 1464.79,4751.11 2.5,9.94 -3.75,17.59 -16.88,15.41 21.88,-10.03 13.75,-9.84 c 0,0 3.75,-8.25 6.25,-8.88 2.5,-0.62 10.62,5.27 10.62,5.27 l -5,9.84 c 0,0 -3.75,12 2.5,18.45 6.25,6.44 0,27.69 0,27.69 l -17.5,5.13 c 0,0 -22.5,16.75 -22.5,19.25 0,2.5 21.39,-10.63 21.39,-10.63 0,0 -3.26,-1.32 10.49,2.16 13.75,3.47 23.12,7.52 23.12,7.52 l -4.37,25.32 4.14,28.75 h -8.18 l -7.43,-26.62 -2.55,-0.25 c -0.02,0 -2,-0.18 -5.25,-0.63 -3.27,-0.44 -7.77,-1.14 -12.68,-2.14 -9.79,-1.98 -21.34,-5.41 -27.41,-9.93 -2.27,-1.68 -3.68,-3.71 -4.63,-6.19 -0.94,-2.49 -1.34,-5.43 -1.34,-8.56 0,-4.46 0.81,-9.25 1.65,-13.5 0.84,-4.32 1.77,-7.87 1.8,-10.93 0,-4.89 0.27,-14.07 0.27,-20.34 0,-1.57 -0.02,-2.96 -0.05,-4.1 -0.08,-1.22 -0.06,-1.88 -0.38,-3.09 -0.36,-1.04 -0.68,-1.47 -1.09,-2.16 l -1.5,-2.15 c -1.12,-1.57 -2.53,-3.39 -3.91,-5.12 -1.73,-2.18 -3.34,-4.14 -4.36,-5.39 l 3.25,-20.15 24.79,-21.25 h 9.53"
         style="fill:#ffffff;fill-opacity:1;fill-rule:nonzero;stroke:none"
         id="path4710" />
      <path
         d="m 1462.42,4741.55 -24.79,21.25 -3.25,20.14 c 1.02,1.25 2.63,3.21 4.36,5.39 1.39,1.75 2.79,3.57 3.92,5.12 l 1.49,2.15 c 0.42,0.7 0.74,1.12 1.09,2.17 0.32,1.2 0.31,1.88 0.38,3.09 0.04,1.14 0.06,2.53 0.06,4.1 0,6.26 -0.28,15.45 -0.28,20.34 -0.03,3.07 -0.96,6.61 -1.79,10.93 -0.85,4.25 -1.66,9.04 -1.65,13.49 -0.01,3.14 0.39,6.08 1.34,8.56 0.95,2.49 2.35,4.52 4.64,6.2 6.05,4.51 17.6,7.94 27.4,9.92 4.91,1.02 9.41,1.72 12.68,2.16 3.26,0.44 5.23,0.63 5.24,0.63 l 2.57,0.24 7.42,26.62 h 8.17 l -4.14,-28.75 4.37,-25.31 c 0,0 -9.37,-4.06 -23.12,-7.54 -13.75,-3.47 -10.49,-2.15 -10.49,-2.15 0,0 -21.39,13.13 -21.39,10.63 0,-2.5 22.5,-19.25 22.5,-19.25 l 17.5,-5.13 c 0,0 6.25,-21.25 0,-27.7 -6.25,-6.44 -2.5,-18.44 -2.5,-18.44 l 5,-9.84 c 0,0 -8.12,-5.89 -10.62,-5.27 -2.5,0.63 -6.25,8.89 -6.25,8.89 l -13.75,9.83 -21.88,10.03 16.88,-15.41 3.75,-17.6 -2.5,-9.93 7.18,-9.56 z m 73.37,22.48 -15.39,19.99 4.38,6.7 17.5,-2.19 6.53,1.33 -6.65,-19.96 z m 30.15,54.94 c -2.85,9.55 -14.32,36.79 -29.94,59.83 -13.15,19.26 -14.49,26.74 -14.46,27.92 l 2.26,4.83 h -26.24 l -7.58,-27.18 c -3.25,-0.39 -9.24,-1.2 -16.15,-2.62 -10.28,-2.16 -22.33,-5.43 -30.33,-11.21 -3.52,-2.57 -5.87,-5.99 -7.22,-9.61 -1.37,-3.63 -1.82,-7.46 -1.82,-11.21 0,-5.32 0.92,-10.55 1.8,-14.96 0.89,-4.35 1.69,-8.12 1.64,-9.46 0,-5.11 0.28,-14.25 0.28,-20.34 0,-1.51 -0.02,-2.82 -0.06,-3.8 l -0.07,-1.12 V 4800 l -0.02,-0.05 c -0.77,-1.31 -3.51,-4.9 -5.91,-7.89 -2.42,-3.04 -4.59,-5.64 -4.59,-5.65 l -1.1,-1.31 4.24,-26.21 28.98,-24.84 h 1.38 53.34 l 34.29,31.65 8.97,26.92 c 0.33,0.64 2.27,4.57 4.32,9.1 1.11,2.46 2.23,5.05 3.1,7.33 0.43,1.15 0.8,2.22 1.08,3.2 0.28,1.01 0.51,1.85 0.52,3.02 -0.04,1.37 -0.31,2.24 -0.71,3.7"
         style="fill:#231f20;fill-opacity:1;fill-rule:nonzero;stroke:none"
         id="path4712" />
    </g>
  </g>
</svg>
