<?xml version="1.0" encoding="UTF-8" standalone="no"?>
<!-- John Grümph
     https://legrumph.org/Terrier/public/chibi/de-chorographia
     CC BY-NC 3.0
     https://creativecommons.org/licenses/by-nc/3.0/fr/ -->
<!-- Created with Inkscape (http://www.inkscape.org/) -->

<svg
   version="1.1"
   id="svg2"
   width="41.752533"
   height="28.139956"
   viewBox="0 0 41.752533 28.139954"
   xmlns="http://www.w3.org/2000/svg"
   xmlns:svg="http://www.w3.org/2000/svg">
  <defs
     id="defs6" />
  <g
     id="g10"
     transform="matrix(1.3333333,0,0,-1.3333333,-118.7448,620.54534)">
    <g
       id="g12"
       transform="scale(0.1)">
      <path
         d="m 1167.4,4486.98 h -3.5391 v 12.5 h 3.5391 z m -4.92,0 h -3.5391 v 12.5 h 3.5391 z m -5,0 h -3.5391 v 12.5 h 3.5391 z m -23.1,-12.5 h -3.5391 v 12.5 h 3.5391 z m -4.93,0 h -3.5391 v 12.5 h 3.5391 z m -189.47,2.65 h -3.53906 v 12.5 H 939.98 Z m -11.25,24.93 h -3.53906 v 12.5 H 928.73 Z m 242.5,-7.66 c -2.81,3.44 0,10 -7.19,10.94 -7.18,0.94 -12.81,-4.38 -12.81,-4.38 l -2.81,-8.75 -28.19,0.24 1.32,-27.67 -2.44,-0.17 c -0.02,0 -13.29,-0.93 -24.01,-2.37 -0.95,-0.13 -1.89,-0.19 -2.81,-0.19 -6.8,0.06 -12.12,3.16 -15.22,5.52 l -0.12,-0.34 -2.83,2.93 c -17.03,17.83 -53.96,22.98 -72.72,22.89 l -1.19,-0.01 c -6.319,-0.04 -15.421,-3.11 -24.062,-7.05 -8.66,-3.92 -16.949,-8.64 -22.187,-11.77 -3.481,-2.1 -5.582,-3.47 -5.582,-3.47 l -3.75,-2.45 -0.399,15.32 -0.23,1.25 c -2.648,14.49 -3.789,29.27 -4.27,39.02 -2.71,0.3 -5.05,0.51 -6.308,0.51 -1.684,0 -5.801,-0.73 -10.363,-1.66 l -2.438,-6.59 0.867,-52.46 -21.258,-1.28 -1.281,-11.87 h 64.813 c 12.386,18.04 29.867,29.79 49.658,29.8 19.78,-0.01 37.25,-11.76 49.66,-29.8 h 111.64 l 0.2,0.92 c 0.53,2.39 1.24,5.78 1.95,9.74 1.41,7.93 2.81,18.19 2.81,27.26 0,1.14 -0.09,2.18 -0.14,3.27 -4.17,0.75 -7.47,1.64 -8.31,2.67"
         style="fill:#ffffff;fill-opacity:1;fill-rule:nonzero;stroke:none"
         id="path4636" />
      <path
         d="m 1096.63,4533.25 h 3.543 v -12.5 h -3.543 z m 4.23,43.93 h 3.5391 v -12.5 h -3.5391 z m 4.24,-56.43 h -3.543 v 12.5 h 3.543 z m -12.81,-53.7 2.14,0.14 c 1.41,0.19 2.86,0.37 4.31,0.54 v 10.67 c 0,2.15 1.75,3.9 3.9,3.9 2.15,0 3.89,-1.75 3.89,-3.9 v -9.84 c 4.04,0.39 7.57,0.68 9.8,0.86 l -1.11,23.08 -3.36,0.03 c -0.3,0.68 0.49,2.85 1.86,5.77 l -4.63,85.73 c -2.28,0.22 -4.31,0.37 -5.67,0.37 -1.94,0 -5.39,-0.6 -9.07,-1.38 -0.33,-8.03 -0.86,-19.39 -1.68,-31.79 -1.57,-23.36 -4,-49.69 -8.11,-63.28 -1.02,-3.11 -1.92,-5.59 -3.55,-7.6 -0.8,-2.98 -1.57,-5.63 -2.23,-7.72 0.71,-0.62 1.77,-1.46 3.08,-2.29 2.64,-1.69 6.31,-3.3 10.43,-3.29"
         style="fill:#ffffff;fill-opacity:1;fill-rule:nonzero;stroke:none"
         id="path4638" />
      <path
         d="m 965.422,4486.34 c 11.117,5.7 24.449,11.54 34.738,11.7 l 1.24,0.01 c 18.59,-0.09 53.3,-4.44 73.24,-21.84 l 0.62,2.15 -0.87,1.02 c -16.63,19.75 -37.51,26.25 -57.93,26.3 -23.132,0.02 -45.44,-8.73 -57.659,-16.23 -4.051,-2.48 -7,-4.88 -8.281,-6.36 l -1.239,-1.43 0.11,-4.37 c 3.57,2.17 9.339,5.59 16.031,9.05"
         style="fill:#ffffff;fill-opacity:1;fill-rule:nonzero;stroke:none"
         id="path4640" />
      <path
         d="m 1176.86,4461.2 c -0.7,-3.96 -1.41,-7.35 -1.93,-9.75 l -0.22,-0.91 h -111.64 c -12.39,18.03 -29.87,29.79 -49.66,29.8 -19.773,-0.01 -37.254,-11.77 -49.656,-29.8 h -64.809 l 1.289,11.87 21.262,1.28 -0.883,52.46 2.442,6.59 c 4.558,0.93 8.679,1.66 10.359,1.66 1.262,0 3.609,-0.22 6.313,-0.51 0.488,-9.76 1.617,-24.53 4.277,-39.02 l 0.223,-1.25 0.398,-15.33 3.75,2.46 c 0,0 2.102,1.37 5.59,3.46 5.23,3.14 13.531,7.86 22.191,11.78 8.641,3.94 17.731,7.01 24.054,7.05 l 1.18,0.01 c 18.77,0.09 55.7,-5.06 72.74,-22.89 l 2.82,-2.93 0.12,0.34 c 3.09,-2.36 8.41,-5.47 15.23,-5.53 0.91,0 1.86,0.06 2.79,0.2 10.73,1.44 24,2.36 24.02,2.37 l 2.44,0.17 -1.32,27.67 28.18,-0.24 2.82,8.75 c 0,0 5.63,5.31 12.82,4.38 7.18,-0.94 4.36,-7.5 7.18,-10.94 0.84,-1.04 4.15,-1.93 8.32,-2.67 0.04,-1.09 0.13,-2.13 0.13,-3.27 0,-9.08 -1.39,-19.34 -2.82,-27.26 m -226.344,21.88 c 1.281,1.49 4.23,3.89 8.281,6.36 12.219,7.51 34.527,16.27 57.663,16.23 20.42,-0.04 41.31,-6.54 57.93,-26.29 l 0.88,-1.03 -0.63,-2.14 c -19.94,17.4 -54.66,21.75 -73.25,21.84 l -1.23,-0.01 c -10.285,-0.17 -23.613,-6.01 -34.746,-11.71 -6.68,-3.45 -12.461,-6.86 -16.019,-9.05 l -0.122,4.38 z M 1081,4480.35 c 1.64,2.01 2.54,4.49 3.57,7.59 4.11,13.6 6.54,39.93 8.09,63.28 0.82,12.41 1.36,23.77 1.68,31.8 3.68,0.77 7.14,1.38 9.07,1.38 1.36,0 3.39,-0.15 5.68,-0.37 l 4.64,-85.74 c -1.37,-2.91 -2.16,-5.08 -1.87,-5.77 l 3.37,-0.03 1.09,-23.08 c -2.21,-0.17 -5.75,-0.47 -9.78,-0.86 v 9.85 c 0,2.15 -1.75,3.89 -3.9,3.89 -2.16,0 -3.89,-1.74 -3.89,-3.89 v -10.67 c -1.46,-0.17 -2.91,-0.35 -4.32,-0.54 l -2.13,-0.15 c -4.12,0 -7.8,1.61 -10.44,3.3 -1.31,0.83 -2.36,1.67 -3.09,2.29 0.68,2.09 1.43,4.74 2.23,7.72 m 122.73,8.74 c 0,0 -30.32,44.37 -31.57,45.62 -0.98,1 -2.96,10.18 -3.73,13.95 l -2.59,19.03 -2.36,-17.35 h -21.8 l -2.36,17.35 -2.37,-17.35 h -0.09 c 0,0 -2.41,-20.46 -3.45,-20 -0.66,0.29 -7.16,-9.61 -12.86,-19.38 l -3.89,72.2 c 4.97,-0.63 9.25,-1.26 9.25,-1.26 0,0 -12.18,19.69 -14.05,28.12 -1.88,8.44 -9.22,44.07 -9.22,44.07 l -15.09,-55.63 h -0.17 l -0.02,-0.76 -0.81,-2.99 -7.19,-15.31 c 0,0 3.25,0.88 7.41,1.89 -0.04,-0.93 -0.09,-1.88 -0.11,-2.88 -0.68,-14.86 -1.93,-37.36 -4,-56.83 -1.05,-9.73 -2.3,-18.7 -3.77,-25.48 -0.71,-3.35 -1.48,-6.16 -2.25,-8.18 -17.64,18.67 -39.57,25.3 -60.18,25.25 -16.675,0 -32.554,-4.1 -45.226,-9.22 -6.339,-2.56 -11.89,-5.38 -16.347,-8.12 -1.742,-1.07 -3.172,-2.09 -4.563,-3.12 -1.488,9.74 -2.371,19.33 -2.84,26.92 -0.078,1.22 -0.129,2.22 -0.187,3.33 5.238,-0.69 9.867,-1.37 9.867,-1.37 0,0 -14.68,24.37 -15.93,34.68 -1.25,10.32 -7.82,53.75 -7.82,53.75 0,0 -10.309,-51.87 -12.18,-56.56 -1.879,-4.69 -15.937,-34.69 -15.937,-34.69 0,0 4.047,0.97 9.066,2.1 l -1.269,-3.43 0.781,-46.7 -20.41,-1.22 -2.879,-26.48 h 77.109 l 1.11,1.7 c 11.582,17.6 27.429,28.11 44.605,28.1 17.2,0.01 33.04,-10.5 44.61,-28.1 l 1.12,-1.7 h 121.47 l 0.71,2.83 c 0.02,0.15 5.84,23 5.86,42.59 l -0.09,2.17 c 8.27,-1.01 16.64,-1.54 16.64,-1.54"
         style="fill:#231f20;fill-opacity:1;fill-rule:nonzero;stroke:none"
         id="path4642" />
      <path
         d="m 1096.64,4520.75 h 3.5391 v 12.5 h -3.5391 z"
         style="fill:#231f20;fill-opacity:1;fill-rule:nonzero;stroke:none"
         id="path4644" />
      <path
         d="m 1101.55,4520.75 h 3.5391 v 12.5 h -3.5391 z"
         style="fill:#231f20;fill-opacity:1;fill-rule:nonzero;stroke:none"
         id="path4646" />
      <path
         d="m 936.441,4477.13 h 3.53906 v 12.5 H 936.441 Z"
         style="fill:#231f20;fill-opacity:1;fill-rule:nonzero;stroke:none"
         id="path4648" />
      <path
         d="m 1153.94,4486.98 h 3.5391 v 12.5 h -3.5391 z"
         style="fill:#231f20;fill-opacity:1;fill-rule:nonzero;stroke:none"
         id="path4650" />
      <path
         d="m 1158.94,4486.98 h 3.5391 v 12.5 h -3.5391 z"
         style="fill:#231f20;fill-opacity:1;fill-rule:nonzero;stroke:none"
         id="path4652" />
      <path
         d="m 1163.86,4486.98 h 3.5391 v 12.5 h -3.5391 z"
         style="fill:#231f20;fill-opacity:1;fill-rule:nonzero;stroke:none"
         id="path4654" />
      <path
         d="m 1125.92,4474.48 h 3.5391 v 12.5 h -3.5391 z"
         style="fill:#231f20;fill-opacity:1;fill-rule:nonzero;stroke:none"
         id="path4656" />
      <path
         d="m 1130.84,4474.48 h 3.5391 v 12.5 h -3.5391 z"
         style="fill:#231f20;fill-opacity:1;fill-rule:nonzero;stroke:none"
         id="path4658" />
      <path
         d="m 1100.86,4564.68 h 3.5391 v 12.5 h -3.5391 z"
         style="fill:#231f20;fill-opacity:1;fill-rule:nonzero;stroke:none"
         id="path4660" />
      <path
         d="m 925.191,4502.06 h 3.53906 v 12.5 H 925.191 Z"
         style="fill:#231f20;fill-opacity:1;fill-rule:nonzero;stroke:none"
         id="path4662" />
    </g>
  </g>
</svg>
