<?xml version="1.0" encoding="UTF-8" standalone="no"?>
<!-- Created with Inkscape (http://www.inkscape.org/) -->

<svg
   version="1.1"
   id="svg2"
   width="12.150665"
   height="35.532013"
   viewBox="0 0 12.150665 35.532011"
   xmlns="http://www.w3.org/2000/svg"
   xmlns:svg="http://www.w3.org/2000/svg">
  <defs
     id="defs6" />
  <g
     id="g10"
     transform="matrix(1.3333333,0,0,-1.3333333,-170.51334,667.25601)">
    <g
       id="g12"
       transform="scale(0.1)">
      <path
         d="m 1349.24,4764.29 c 1.87,2.09 3.68,4.03 5.26,5.52 1.19,1.11 2.11,2.88 2.7,5.12 l 0.25,1.45 -8.21,4.46"
         style="fill:#ffffff;fill-opacity:1;fill-rule:nonzero;stroke:none"
         id="path4700" />
      <path
         d="m 1311.25,4774.59 21.25,8.75 -8.09,24.58 -13.58,2.92 -7.65,26.57 -7.2,-5.33 c -0.99,-6.44 -4.96,-31.93 -9,-49.17 -0.44,-1.87 -0.63,-3.79 -0.63,-5.75 -0.13,-12.89 9.1,-27.05 12.43,-31.53"
         style="fill:#ffffff;fill-opacity:1;fill-rule:nonzero;stroke:none"
         id="path4702" />
      <path
         d="m 1315.41,4820.84 5,5.83 4,37.09 h 9.34 l 2.08,27.5 6.39,19.43 -0.23,2.52 c -1.43,15.72 -3.46,32.65 -5.6,40.38 -2.28,8.27 -4.97,17.09 -7.1,23.83 -1.51,4.78 -2.7,8.4 -3.27,10.17 l -5.87,3.84 -14.32,-132.46 v -19.6 l -1.7,-1.25"
         style="fill:#ffffff;fill-opacity:1;fill-rule:nonzero;stroke:none"
         id="path4704" />
      <path
         d="m 1305.83,4858.98 14.32,132.46 5.87,-3.84 c 0.57,-1.77 1.76,-5.4 3.27,-10.17 2.13,-6.75 4.82,-15.56 7.1,-23.83 2.14,-7.73 4.17,-24.67 5.6,-40.39 l 0.23,-2.52 -6.39,-19.42 -2.08,-27.5 h -9.34 l -4,-37.09 -5,-5.83 -11.28,17.27 1.7,1.26 z m -18.85,-76.07 c 4.04,17.23 8.01,42.73 9,49.18 l 7.2,5.33 7.65,-26.57 13.58,-2.92 8.09,-24.58 -21.25,-8.75 -12.47,-28.96 c -3.33,4.47 -12.56,18.64 -12.43,31.53 0,1.96 0.19,3.88 0.63,5.74 m 70.22,-7.97 c -0.59,-2.24 -1.52,-4.02 -2.7,-5.12 -1.58,-1.49 -3.4,-3.44 -5.26,-5.52 v 16.55 l 8.21,-4.47 z m 12.78,74.11 c -0.03,14.73 -8.5,25.8 -18.02,31.83 -0.33,5.82 -1.21,18.97 -2.5,33.01 -1.48,15.95 -3.42,32.77 -5.85,41.7 -4.62,16.8 -10.88,35.58 -10.89,35.61 l -0.42,1.24 -18.3,11.98 -15.67,-145.03 v -16.25 l -9.32,-6.87 -0.22,-1.54 c 0,-0.02 -1.14,-7.68 -2.85,-17.79 -1.72,-10.11 -4.01,-22.68 -6.26,-32.32 -0.59,-2.49 -0.83,-4.99 -0.83,-7.45 0.02,-9.88 3.92,-19.21 7.69,-26.19 3.79,-6.95 7.53,-11.55 7.63,-11.68 l 1.12,-1.37 h 1.79 40.18 l 1.12,1.46 c 0.01,0 3.51,4.54 7.96,9.97 4.42,5.41 9.84,11.74 13.31,15.01 2.58,2.43 3.98,5.56 4.8,8.67 0.82,3.12 1.06,6.31 1.07,9.21 -0.01,5.8 -1,10.46 -1.02,10.61 l -0.04,0.19 -5.06,15.95 c 1.83,4.34 7.9,19.45 10.14,34.21 0.29,2 0.44,3.95 0.44,5.84"
         style="fill:#231f20;fill-opacity:1;fill-rule:nonzero;stroke:none"
         id="path4706" />
    </g>
  </g>
</svg>
