<?xml version="1.0" encoding="UTF-8" standalone="no"?>
<!-- John Grümph
     https://legrumph.org/Terrier/public/chibi/de-chorographia
     CC BY-NC 3.0
     https://creativecommons.org/licenses/by-nc/3.0/fr/ -->
<!-- Created with Inkscape (http://www.inkscape.org/) -->

<svg
   version="1.1"
   id="svg2"
   width="42.487999"
   height="20.533325"
   viewBox="0 0 42.487999 20.533324"
   xmlns="http://www.w3.org/2000/svg"
   xmlns:svg="http://www.w3.org/2000/svg">
  <defs
     id="defs6" />
  <g
     id="g10"
     transform="matrix(1.3333333,0,0,-1.3333333,-49.148934,573.49462)">
    <g
       id="g12"
       transform="scale(0.1)">
      <path
         d="m 450.078,4214.34 0.25,-1.4 c 0,-0.01 0.539,-2.93 1.371,-6.81 0.469,-2.21 1.039,-4.67 1.641,-7.1 l 12.187,1.29 c 2.411,7.17 7.379,22.01 8.403,25.33 1.347,4.43 -2.09,13.65 -2.09,13.65 v 3.5 l -2.582,4.43 c -0.969,0.87 -4.488,4.04 -8.828,7.68 -3.973,3.36 -8.59,6.95 -11.762,8.97 -0.461,-1.68 -0.879,-4.22 -1.18,-7.28 -0.648,-6.6 -0.851,-15.31 -0.851,-23 0,-7.41 0.179,-13.85 0.281,-16.8 1.191,-0.92 2.031,-1.58 2.031,-1.58"
         style="fill:#ffffff;fill-opacity:1;fill-rule:nonzero;stroke:none"
         id="path4822" />
      <path
         d="m 449.746,4271.91 h 0.012"
         style="fill:#231f20;fill-opacity:1;fill-rule:nonzero;stroke:none"
         id="path4824" />
      <path
         d="m 566.105,4215.12 c -0.589,4.16 -1.281,8.84 -1.941,12.92 l -0.91,0.2 -0.488,-6.64 -0.731,-10.2 -6.152,-0.49 0.64,-2.46 8.391,0.39 c 0.5,2.53 0.922,4.73 1.191,6.28"
         style="fill:#ffffff;fill-opacity:1;fill-rule:nonzero;stroke:none"
         id="path4826" />
      <path
         d="m 536.223,4210.29 c 0,0.37 3.449,11.92 6.636,12.35 3.192,0.43 4.422,-0.68 4.422,-0.68 v -8.71 c 0,0 3.071,-1.09 3.571,0 0.488,1.09 2.078,7.11 2.078,7.11 l -2.207,4.18 0.859,6.05 c 0.117,0.45 1.75,20.64 -9.641,42.93 -2.082,0.77 -4.789,1.38 -7.441,1.84 l -0.07,-0.05 -1.137,-1.06 c -0.973,-1.14 -2.102,-3 -3.082,-5.18 -1.981,-4.3 -3.359,-9.89 -3.34,-13.21 l 0.129,-1.61 0.242,-2.62 c -0.051,-5.34 -2.133,-11.86 -4.121,-17.48 -1.371,-3.81 -2.699,-6.97 -3.422,-8.65 l 5.942,-18.5 10.851,0.52"
         style="fill:#ffffff;fill-opacity:1;fill-rule:nonzero;stroke:none"
         id="path4828" />
      <path
         d="m 535.488,4282.8 h 0.02"
         style="fill:#231f20;fill-opacity:1;fill-rule:nonzero;stroke:none"
         id="path4830" />
      <path
         d="m 641.406,4188.85 0.16,0.24 c 0.93,1.71 1.86,4.16 1.86,7.2 0.012,3.39 -0.629,8.06 -1.289,11.78 -0.442,2.52 -0.871,4.53 -1.102,5.62 -1.808,-1.8 -3.437,-3.52 -3.437,-3.52 0,0 -0.133,-16.71 1.718,-18.8"
         style="fill:#ffffff;fill-opacity:1;fill-rule:nonzero;stroke:none"
         id="path4832" />
      <path
         d="m 627.996,4179.92 c -0.418,0.62 -1.019,1.16 -2.199,1.25 -3.43,0.24 -3.93,1.23 -4.18,0.24 l -0.219,-1.7 c 1.11,0.1 2.129,0.27 3.45,0.28 1.011,-0.01 2.082,-0.03 3.148,-0.07"
         style="fill:#ffffff;fill-opacity:1;fill-rule:nonzero;stroke:none"
         id="path4834" />
      <path
         d="m 617.527,4286.01 0.243,-0.7 0.3,-0.8 -0.082,-0.85 c -0.008,-0.01 -0.629,-6.54 -1.25,-14.58 -0.629,-8.02 -1.238,-17.58 -1.238,-23.34 -0.012,-2.03 0.098,-3.67 0.199,-4.13 0.301,-1.54 0.391,-3.11 0.399,-4.67 -0.028,-6.69 -1.879,-13.45 -1.91,-13.62 l -0.04,-0.13 -4.3,-12.27 c 1.179,-4.98 2.632,-11.38 3.55,-16.51 0.532,-2.99 0.903,-5.48 0.922,-7.47 -0.031,-2.18 -0.519,-4.87 -1.172,-7.7 1.11,0.01 2.301,0.01 3.192,0.06 l 0.558,0.03 -0.558,6.88 4.051,5.28 0.859,5.92 5.539,6.36 v 6.27 l 1.961,4.92 0.859,30.35 2.219,2.58 1.473,10.2 -3.071,3.93 1.598,9.59 c -0.129,0.73 -1.73,8.11 -4.68,12.16 -2.949,4.06 -4.3,6.63 -4.3,7.13 l 0.39,2.19 -1.828,0.62 -0.672,-0.07 -0.238,-0.06 -0.262,-0.03 -0.328,-0.04 -1,-0.16 c -1.031,-0.15 -2.41,-0.61 -3.031,-0.95 0.371,-2.34 1.219,-5.14 1.648,-6.39"
         style="fill:#ffffff;fill-opacity:1;fill-rule:nonzero;stroke:none"
         id="path4836" />
      <path
         d="m 617.52,4300.73 h 0.011"
         style="fill:#231f20;fill-opacity:1;fill-rule:nonzero;stroke:none"
         id="path4838" />
      <path
         d="m 439.023,4194.32 -4.671,4.18 c 0,0 0.992,10.57 0,16.46 -0.137,0.88 -0.539,1.86 -1.047,2.87 -3.934,2.99 -7.801,5.9 -9.133,6.79 -1.809,1.27 -5.07,2.05 -7.359,2.17 l -0.168,-1.62 c -0.231,-2.69 -0.321,-6.47 -0.321,-10.32 0,-7.25 0.297,-14.74 0.379,-16.66 l 2.399,-7.45 2.5,-18.5 18.871,2.48"
         style="fill:#ffffff;fill-opacity:1;fill-rule:nonzero;stroke:none"
         id="path4840" />
      <path
         d="m 514.082,4155.61 9.191,0.32 0.098,1.35 -5.578,5.83 z"
         style="fill:#ffffff;fill-opacity:1;fill-rule:nonzero;stroke:none"
         id="path4842" />
      <path
         d="m 508.945,4162.99 0.5,7.73 2.211,19.92 c 0,0 1.719,13.26 1.59,15.72 -0.133,2.46 -7.621,28.38 -7.621,28.38 l 0.531,1.59 c -1.383,1.01 -2.89,2.06 -4.23,2.79 l -0.25,0.12 c -0.403,-1.61 -0.852,-3.82 -1.34,-6.55 -1.09,-6.04 -2.289,-14.26 -3.461,-22.79 -2.352,-17.12 -4.559,-35.36 -5.648,-41.12 l -0.524,-2.06 h 0.012 l -0.02,-0.3 c -0.031,-0.89 0.442,-3.04 1.168,-5.19 0.723,-2.17 1.633,-4.44 2.332,-6.22 l 0.039,-0.1 11.61,0.4"
         style="fill:#ffffff;fill-opacity:1;fill-rule:nonzero;stroke:none"
         id="path4844" />
      <path
         d="m 563.777,4169.16 21.352,-0.68 2.461,4.33 0.238,6.64 c 0,0 4.551,11.8 5.77,13.52 1.23,1.72 -3.797,4.91 -3.758,4.91 l -2.621,6.88 1.101,7.25 4.418,3.81 -1.468,5.41 1.718,1.41 c 0,0 1.602,6.08 0,13.09 -0.847,3.72 -2.75,6.71 -4.359,8.76 -0.77,-1.31 -2.262,-3.87 -4.102,-7.13 -2.629,-4.69 -5.847,-10.65 -8.117,-15.58 -1.531,-3.24 -2.621,-6.18 -2.812,-7.39 -1.231,-6.87 -5.489,-27.94 -6.899,-34.23 -0.219,-0.97 -0.308,-1.4 -0.511,-2.02 l 0.011,0.01 c -0.14,-0.42 -1.121,-4.02 -1.961,-7.21"
         style="fill:#ffffff;fill-opacity:1;fill-rule:nonzero;stroke:none"
         id="path4846" />
      <path
         d="m 455.906,4189.69 v 0 0.01 z m 165.711,-8.27 c 0.25,0.98 0.75,0 4.18,-0.25 1.18,-0.08 1.781,-0.62 2.203,-1.25 -1.07,0.04 -2.141,0.06 -3.152,0.07 -1.321,-0.01 -2.34,-0.17 -3.45,-0.27 z m 15.981,28.75 c 0,0 1.629,1.72 3.441,3.52 0.231,-1.09 0.66,-3.1 1.098,-5.62 0.652,-3.72 1.301,-8.39 1.293,-11.78 0,-3.04 -0.93,-5.49 -1.871,-7.2 l -0.153,-0.24 -2.09,2.52 c -1.847,2.09 -1.718,18.8 -1.718,18.8 m -18.692,83.19 1,0.16 0.344,0.04 0.25,0.02 0.238,0.06 0.668,0.07 1.832,-0.62 -0.39,-2.19 c 0,-0.49 1.351,-3.07 4.3,-7.13 2.95,-4.05 4.551,-11.42 4.68,-12.16 l -1.601,-9.59 3.07,-3.93 -1.469,-10.2 -2.219,-2.58 -0.859,-30.35 -1.961,-4.91 v -6.27 l -5.539,-6.37 -0.863,-5.91 -4.047,-5.29 0.558,-6.88 -0.558,-0.03 c -0.891,-0.05 -2.082,-0.05 -3.192,-0.06 0.649,2.83 1.141,5.53 1.168,7.71 -0.019,1.99 -0.386,4.47 -0.918,7.47 -0.921,5.12 -2.371,11.52 -3.539,16.51 l 4.289,12.26 0.04,0.14 c 0.031,0.16 1.89,6.92 1.921,13.62 -0.011,1.55 -0.109,3.12 -0.41,4.66 -0.101,0.47 -0.211,2.1 -0.199,4.13 0,5.76 0.617,15.32 1.238,23.34 0.629,8.04 1.239,14.57 1.25,14.58 l 0.078,0.85 -0.289,0.81 -0.25,0.69 c -0.429,1.25 -1.277,4.05 -1.648,6.39 0.629,0.34 2,0.81 3.027,0.96 m -62.379,-84.92 -0.648,2.47 6.148,0.49 0.743,10.2 0.48,6.63 0.906,-0.19 c 0.672,-4.08 1.364,-8.77 1.953,-12.92 -0.281,-1.55 -0.703,-3.75 -1.203,-6.28 z m -36.828,17.05 c 0.719,1.69 2.051,4.85 3.43,8.67 1.98,5.61 4.059,12.14 4.109,17.47 l -0.238,2.63 -0.121,1.61 c -0.031,3.3 1.348,8.9 3.34,13.21 0.969,2.16 2.109,4.04 3.07,5.16 l 1.149,1.08 0.062,0.03 c 2.648,-0.44 5.367,-1.05 7.449,-1.82 11.379,-22.29 9.75,-42.5 9.629,-42.94 l -0.859,-6.04 2.211,-4.18 c 0,0 -1.59,-6.02 -2.082,-7.11 -0.5,-1.09 -3.559,0 -3.559,0 v 8.71 c 0,0 -1.23,1.1 -4.43,0.67 -3.191,-0.43 -6.64,-11.98 -6.64,-12.34 l 0.281,-2.79 -10.852,-0.51 z m 3.668,-68.21 -0.097,-1.35 -9.192,-0.32 3.711,7.5 z m -76.73,76.32 c 0,7.69 0.203,16.4 0.851,22.99 0.301,3.07 0.719,5.6 1.18,7.29 3.172,-2.02 7.789,-5.62 11.762,-8.97 4.34,-3.64 7.859,-6.81 8.828,-7.69 l 2.582,-4.42 v -3.51 c 0,0 3.437,-9.21 2.09,-13.64 -1.024,-3.32 -5.992,-18.16 -8.403,-25.34 l -12.187,-1.28 c -0.602,2.43 -1.172,4.89 -1.641,7.1 -0.832,3.88 -1.371,6.8 -1.371,6.81 l -0.25,1.4 -1.129,0.88 c 0,0 -0.84,0.66 -2.031,1.58 -0.102,2.95 -0.281,9.38 -0.281,16.8 m -27.539,-42.87 -2.399,7.46 c -0.082,1.92 -0.371,9.41 -0.371,16.66 0,3.85 0.09,7.63 0.309,10.32 l 0.179,1.62 c 2.282,-0.12 5.551,-0.9 7.352,-2.17 1.34,-0.89 5.211,-3.8 9.129,-6.8 0.512,-1 0.91,-1.98 1.062,-2.86 0.981,-5.9 0,-16.46 0,-16.46 l 4.668,-4.18 1.442,-19.6 -18.871,-2.48 z m 75.101,-35.72 c -0.703,1.78 -1.609,4.05 -2.332,6.22 -0.738,2.15 -1.199,4.3 -1.168,5.19 l 0.008,0.3 h -0.008 l 0.52,2.06 c 1.097,5.76 3.301,24 5.66,41.12 1.168,8.54 2.367,16.75 3.449,22.79 0.488,2.73 0.949,4.94 1.352,6.55 l 0.25,-0.12 c 1.328,-0.73 2.847,-1.78 4.218,-2.78 l -0.519,-1.6 c 0,0 7.488,-25.92 7.609,-28.38 0.141,-2.46 -1.59,-15.72 -1.59,-15.72 l -2.199,-19.91 -0.5,-7.74 -3.101,-7.68 -11.61,-0.4 z m 71.989,23.14 c 0.199,0.61 0.289,1.04 0.511,2.01 1.41,6.29 5.668,27.36 6.91,34.23 0.18,1.21 1.27,4.15 2.797,7.39 2.274,4.93 5.5,10.89 8.121,15.58 1.84,3.27 3.332,5.83 4.102,7.13 1.621,-2.05 3.508,-5.03 4.359,-8.76 1.602,-7.01 0,-13.09 0,-13.09 l -1.718,-1.41 1.48,-5.41 -4.434,-3.81 -1.097,-7.25 2.629,-6.88 c -0.051,0 4.992,-3.19 3.761,-4.91 -1.23,-1.72 -5.781,-13.51 -5.781,-13.51 l -0.238,-6.64 -2.461,-4.34 -21.352,0.68 0.461,1.78 c 0.84,3.19 1.821,6.8 1.961,7.22 z m 114.421,-8.25 -0.722,0.63 h -14.598 l -21.66,6.21 2.141,5.3 c 1.347,1.54 5.109,6.38 5.16,14.25 -0.024,7.34 -2.141,17.07 -2.68,19.46 0.066,1.21 0.328,5.62 0.59,10.43 0.297,5.66 0.609,11.31 0.609,12.62 l -0.133,1.34 c -0.5,3.06 -2.476,12.23 -4.386,20.85 -1.891,8.59 -3.68,16.48 -3.68,16.48 l -0.094,0.4 -4.066,8.67 c -0.211,0.51 -1.434,3.52 -3.703,6.82 -1.207,1.76 -2.707,3.6 -4.649,5.11 -1.91,1.5 -4.398,2.74 -7.332,2.74 l -1.84,-0.21 v 0.03 c -0.089,-0.01 -0.898,-0.09 -2.039,-0.3 -1.359,-0.26 -3.168,-0.67 -5,-1.6 -0.918,-0.48 -1.859,-1.1 -2.718,-2.09 -0.852,-0.97 -1.559,-2.48 -1.539,-4.09 l 0.046,-0.79 c 0.454,-3.51 1.59,-7.05 2.122,-8.6 -0.399,-4.38 -2.43,-26.68 -2.438,-37.82 0.008,-2.27 0.059,-4.01 0.34,-5.54 0.18,-0.91 0.269,-2.04 0.269,-3.25 0,-2.64 -0.41,-5.62 -0.832,-7.89 -0.218,-1.14 -0.429,-2.1 -0.589,-2.77 l -0.219,-0.91 -0.332,-0.94 c -0.559,2.25 -1.207,4.8 -1.867,7.34 -0.731,2.8 -1.454,5.51 -2.02,7.58 -0.293,1.04 -0.543,1.92 -0.75,2.6 l -0.281,0.9 -0.16,0.42 -0.422,0.8 c -0.11,0.18 -1.59,2.54 -3.52,4.8 -1,1.16 -2.109,2.34 -3.437,3.35 -1.332,0.98 -2.883,1.97 -5.18,2.02 -1.492,0.03 -3.191,-0.65 -4.293,-1.76 -0.957,-0.94 -1.539,-2.07 -2.008,-3.29 -0.371,-0.62 -3.84,-6.47 -7.531,-13.3 -1.25,-2.3 -2.379,-4.65 -3.559,-7 l -0.402,2.51 c -0.57,3.34 -1.039,5.89 -1.551,7.54 -1.457,4.65 -6.129,19.62 -6.136,19.64 l -0.211,0.68 -0.442,0.54 c 0,0.01 -2.359,2.98 -4.91,6.37 -1.269,1.69 -2.578,3.49 -3.629,5.03 -1.058,1.51 -1.89,2.91 -2,3.23 -1.59,3.41 -4.539,4.84 -7.461,6.02 -2.98,1.13 -6.289,1.82 -9.367,2.34 l -1.07,0.09 c -3.203,-0.09 -5.211,-1.93 -6.84,-3.78 -2.453,-2.91 -4.363,-6.83 -5.82,-10.99 -1.442,-4.17 -2.372,-8.47 -2.391,-12.25 0,-1.04 0.07,-2.04 0.258,-3.04 l 0.101,-1.2 c 0.051,-3.28 -1.761,-9.69 -3.66,-14.89 l -0.57,1.78 -0.82,0.69 c -0.051,0.04 -2.309,1.94 -5.098,3.91 -1.402,0.99 -2.942,1.99 -4.481,2.81 -1.589,0.79 -3.031,1.52 -5.179,1.59 l -1.293,-0.14 -0.008,-0.01 c -1.691,-0.48 -2.172,-1.33 -2.539,-1.79 -0.652,-0.98 -0.863,-1.69 -1.172,-2.62 -1.031,-3.33 -2.059,-9.12 -3.211,-16.4 -0.187,-1.29 -0.398,-2.73 -0.598,-4.09 l -0.601,3.16 -15.352,26.36 -0.418,0.39 c -0.031,0.02 -4.3,3.92 -9.492,8.28 -5.269,4.38 -11.168,9.12 -15.488,11.25 l -2.238,0.53 c -1.043,0.01 -2.082,-0.37 -2.793,-0.87 -1.36,-0.96 -1.93,-2.05 -2.418,-3.1 -0.821,-1.87 -1.289,-3.99 -1.711,-6.54 -1.18,-7.57 -1.45,-18.69 -1.461,-28.33 0,-4.06 0.062,-7.81 0.121,-10.89 -4.418,3.39 -8.969,6.84 -10.93,8.15 -3.961,2.57 -8.629,3.43 -12.269,3.48 l -2.52,-0.2 c -0.961,-0.18 -1.699,-0.67 -2.152,-1.11 l -1.309,-2.08 c -0.672,-1.97 -0.84,-4.08 -1.039,-6.88 -0.16,-2.75 -0.211,-5.97 -0.211,-9.22 0,-8.62 0.399,-17.47 0.399,-17.5 l 0.031,-0.5 v -0.03 h -17.59 l -23.051,-12.04 2.321,-4.44 21.96,11.48 h 17.969 l 0.891,-2.75 3.41,-25.25 25.531,3.37 22.481,-3.55 v 4.39 13.02 1.14 l -0.633,0.95 c -0.18,0.16 -2.41,3.69 -6.09,6.14 -0.148,0.2 -0.57,1.13 -1.039,2.43 l 31.91,3.37 c -0.211,-1.58 -0.422,-3.22 -0.629,-4.74 -0.75,-5.73 -1.422,-10.86 -1.98,-14.7 -0.27,-1.91 -0.52,-3.5 -0.711,-4.65 l -0.262,-1.35 -0.078,-0.32 -0.012,-0.03 0.032,-0.01 c -0.379,-1.02 -0.489,-1.97 -0.489,-2.86 0.039,-3.36 1.25,-6.77 2.399,-9.96 0.582,-1.57 1.16,-3.03 1.621,-4.18 l 0.551,-1.46 0.148,-0.45 0.039,-0.11 0.672,-3.05 3.117,0.12 38.512,1.33 2.25,30.43 -4.078,19.29 -0.403,1.23 35.391,1.65 c -0.379,-1.88 -0.77,-3.79 -1.148,-5.65 -0.782,-3.89 -1.563,-7.58 -2.141,-10.38 -0.301,-1.4 -0.563,-2.58 -0.75,-3.44 l -0.242,-1.02 -0.071,-0.27 -0.007,-0.05 c -0.352,-1.1 -1.2,-4.31 -2.071,-7.6 -0.859,-3.26 -1.66,-6.33 -1.66,-6.34 l -1.18,-4.54 53.442,-1.71 0.879,2.64 c 0.008,0.04 1.328,4.01 2.699,8.8 h 0.059 c 1.98,0 3.851,0.03 5.453,0.1 1.617,0.09 2.859,0.17 4.078,0.44 h 0.012 c 0.418,0.13 2.148,0.26 4.078,0.25 2.82,0 6.32,-0.19 9.09,-0.39 2.761,-0.18 4.769,-0.38 4.781,-0.38 l 2.789,-0.26 0.25,0.62 22.832,-6.55 H 678 l 5.969,-5.26 3.308,3.75"
         style="fill:#231f20;fill-opacity:1;fill-rule:nonzero;stroke:none"
         id="path4848" />
    </g>
  </g>
</svg>
