<?xml version="1.0" encoding="UTF-8" standalone="no"?>
<!-- John Grümph
     https://legrumph.org/Terrier/public/chibi/de-chorographia
     CC BY-NC 3.0
     https://creativecommons.org/licenses/by-nc/3.0/fr/ -->
<!-- Created with Inkscape (http://www.inkscape.org/) -->

<svg
   version="1.1"
   id="svg2"
   width="34.497478"
   height="14.660035"
   viewBox="0 0 34.497478 14.660035"
   xmlns="http://www.w3.org/2000/svg"
   xmlns:svg="http://www.w3.org/2000/svg">
  <defs
     id="defs6" />
  <g
     id="g10"
     transform="matrix(1.3333333,0,0,-1.3333333,-19.392134,606.98266)">
    <g
       id="g12"
       transform="scale(0.1)">
      <path
         d="m 257.645,4510.46 -22.731,2.18 -6.098,8.04 c -16,-10.54 -28.429,-26.61 -34.921,-45.72 l 26.8,-4.1 c 6.719,17.37 21.762,30.59 40.282,34.68"
         style="fill:#ffffff;fill-opacity:1;fill-rule:nonzero;stroke:none"
         id="path4604" />
      <path
         d="m 351.594,4477.31 -25.332,-8.11 0.621,-1.69 27.039,2.58 c -0.68,2.45 -1.449,4.86 -2.328,7.22"
         style="fill:#ffffff;fill-opacity:1;fill-rule:nonzero;stroke:none"
         id="path4606" />
      <path
         d="m 219.07,4466.05 -26.668,4.09 c -1.429,-5.09 -2.41,-10.36 -2.968,-15.78 h 27.636 c 0.262,4.02 0.942,7.94 2,11.69"
         style="fill:#ffffff;fill-opacity:1;fill-rule:nonzero;stroke:none"
         id="path4608" />
      <path
         d="m 180.176,4464.33 c -0.379,-3.78 -0.699,-7.37 -0.942,-9.98 h 5.172 c 4.621,47.5 42.469,84.72 88.77,84.74 46.308,-0.02 84.129,-37.25 88.75,-84.74 h 5.14 c -0.218,2.19 -0.519,5.03 -0.921,8.15 -0.579,4.6 -1.387,9.71 -2.25,13.47 l -0.457,1.78 -0.403,1.36 -0.84,2.28 c -1.398,3.51 -3.437,7.88 -5.218,11.55 -1.282,2.64 -2.372,4.78 -3.032,6.1 -3.98,6.62 -8.668,12.78 -14.109,18.21 -17.07,17.07 -40.621,27.62 -66.66,27.62 -26.051,0 -49.578,-10.55 -66.649,-27.62 -13.261,-13.25 -22.5,-30.44 -26.011,-49.65 -0.121,-1.09 -0.231,-2.19 -0.34,-3.27"
         style="fill:#ffffff;fill-opacity:1;fill-rule:nonzero;stroke:none"
         id="path4610" />
      <path
         d="m 299.656,4500.28 0.723,2.1 -4.941,8.52 4.691,18.43 c -8.481,3.03 -17.52,4.76 -26.949,4.76 -14.512,0 -28.133,-3.95 -40.063,-10.81 l 4.449,-5.87 22.903,-2.19 5.929,-8.77 c 2.219,0.27 4.481,0.45 6.782,0.45 9.578,0 18.578,-2.41 26.476,-6.62"
         style="fill:#ffffff;fill-opacity:1;fill-rule:nonzero;stroke:none"
         id="path4612" />
      <path
         d="m 355.203,4465.19 -27.039,-2.58 c 0.582,-2.68 0.941,-5.44 1.121,-8.25 h 27.621 c -0.371,3.68 -0.91,7.3 -1.703,10.83"
         style="fill:#ffffff;fill-opacity:1;fill-rule:nonzero;stroke:none"
         id="path4614" />
      <path
         d="m 304.043,4497.66 c 8.852,-5.82 15.941,-14.07 20.359,-23.8 l 25.379,8.13 c -8.949,20.63 -25.078,37.01 -44.949,45.57 l -4.039,-15.91 5.059,-8.74 -0.368,-1.08"
         style="fill:#ffffff;fill-opacity:1;fill-rule:nonzero;stroke:none"
         id="path4616" />
      <path
         d="m 153.684,4530.54 c -0.563,-2.5 -0.75,-6.09 -0.743,-8.97 0,-1.48 0.051,-2.78 0.09,-3.72 l 0.012,-0.22 5.219,-5.89 h 31.672 l 0.277,0.86 0.043,0.64 c 0.039,2.39 -1.184,8.3 -2.441,13.17 -0.622,2.47 -1.25,4.75 -1.719,6.4 -4.332,-0.04 -12.903,-0.11 -20.321,-0.11 -4.793,0 -8.921,0.03 -11.312,0.12 -0.219,-0.39 -0.551,-1.18 -0.777,-2.28"
         style="fill:#ffffff;fill-opacity:1;fill-rule:nonzero;stroke:none"
         id="path4618" />
      <path
         d="m 175.313,4483.77 c 0.832,2.59 2.769,6.06 5.058,10.15 l -22.066,-3.13 c -0.231,-2.12 -0.5,-4.37 -0.84,-6.74 l 17.406,-2.29"
         style="fill:#ffffff;fill-opacity:1;fill-rule:nonzero;stroke:none"
         id="path4620" />
      <path
         d="m 159.277,4504.34 c 0,-1.25 -0.011,-2.46 -0.07,-3.45 -0.059,-0.72 -0.18,-2.54 -0.398,-4.97 l 24.668,3.49 c 1.48,2.61 2.871,5.1 4.05,7.34 h -28.269"
         style="fill:#ffffff;fill-opacity:1;fill-rule:nonzero;stroke:none"
         id="path4622" />
      <path
         d="m 171.672,4453.88 c 0.418,4.89 1.328,14.86 2.269,22.1 l 0.118,0.84 -17.379,2.29 c -0.59,-3.37 -1.301,-6.68 -2.16,-9.55 -0.282,-0.91 -0.411,-1.87 -0.411,-2.88 -0.019,-3.06 1.282,-6.63 2.903,-9.59 1.097,-2.04 2.297,-3.75 3.168,-4.91"
         style="fill:#ffffff;fill-opacity:1;fill-rule:nonzero;stroke:none"
         id="path4624" />
      <path
         d="m 396.672,4508.35 c 0,1.15 -0.223,2.85 -1.352,4.75 -1.121,1.9 -3.191,4.11 -7.379,6.16 -2.769,1.35 -6.089,1.92 -9.601,1.92 -7.57,0.02 -15.762,-2.72 -19.871,-4.31 l -0.778,-0.32 c 0.129,-1.84 0.649,-4.96 1.207,-7.66 0.512,-2.48 1.012,-4.61 1.223,-5.45 0.598,-1.18 2.891,-5.64 5.289,-10.73 l 21.309,2.38 4.472,6.82 0.207,0.23 5.243,5.7"
         style="fill:#ffffff;fill-opacity:1;fill-rule:nonzero;stroke:none"
         id="path4626" />
      <path
         d="m 390.41,4479.93 v 0 l -0.769,2.21 -17.43,-9.49 c 0.508,-3.01 0.969,-6.17 1.367,-9.2 0.492,-3.85 0.844,-7.22 1.082,-9.54 l 20,-2.74 c -0.172,1.41 -0.351,2.97 -0.582,4.78 -0.656,5.43 -1.539,12.15 -2.348,17.24 -0.519,3.33 -1.101,6.17 -1.32,6.74"
         style="fill:#ffffff;fill-opacity:1;fill-rule:nonzero;stroke:none"
         id="path4628" />
      <path
         d="m 367.59,4487.91 c 0.828,-1.89 1.617,-3.75 2.25,-5.39 0.488,-1.35 0.918,-2.98 1.328,-4.74 l 16.781,9.13 c -0.441,1.24 -0.832,2.32 -1.133,3.15"
         style="fill:#ffffff;fill-opacity:1;fill-rule:nonzero;stroke:none"
         id="path4630" />
      <path
         d="m 391.191,4501.92 -4.468,-6.84 -21.313,-2.38 c -2.398,5.09 -4.687,9.56 -5.289,10.73 -0.211,0.84 -0.711,2.97 -1.219,5.47 -0.562,2.69 -1.082,5.81 -1.222,7.66 l 0.793,0.31 c 4.109,1.59 12.297,4.32 19.867,4.3 3.5,0.01 6.82,-0.57 9.601,-1.92 4.192,-2.04 6.258,-4.26 7.379,-6.15 1.121,-1.9 1.352,-3.61 1.352,-4.75 l -0.031,-0.51 -5.239,-5.69 z m -63.031,-39.31 27.039,2.58 c 0.793,-3.53 1.332,-7.16 1.703,-10.84 h -27.613 c -0.187,2.81 -0.547,5.57 -1.129,8.26 m -27.371,49.04 4.043,15.91 c 19.879,-8.56 36,-24.94 44.949,-45.58 l -25.379,-8.13 c -4.422,9.74 -11.511,17.99 -20.363,23.81 l 1.441,4.17 0.372,1.08 z m -34.387,-5.2 -5.929,8.77 -22.903,2.19 -4.461,5.87 c 11.942,6.86 25.563,10.81 40.063,10.81 9.437,0 18.48,-1.73 26.961,-4.76 l -4.692,-18.43 4.942,-8.52 -0.723,-2.1 c -7.898,4.21 -16.91,6.62 -26.488,6.62 -2.289,0 -4.551,-0.18 -6.77,-0.45 m -45.711,-35.59 -26.789,4.11 c 6.489,19.1 18.911,35.16 34.918,45.7 l 6.09,-8.03 22.742,-2.18 3.328,-4.92 c -18.519,-4.1 -33.57,-17.31 -40.289,-34.68 m -28.289,-0.73 26.668,-4.08 c -1.058,-3.76 -1.738,-7.67 -2,-11.7 h -27.64 c 0.562,5.42 1.55,10.7 2.972,15.78 m -35.39,-13.04 c -1.621,2.96 -2.922,6.53 -2.903,9.59 0,1.01 0.133,1.97 0.411,2.88 0.863,2.87 1.57,6.17 2.16,9.55 l 17.383,-2.29 -0.133,-0.84 c -0.93,-7.24 -1.84,-17.21 -2.258,-22.1 l -11.5,-1.71 c -0.859,1.17 -2.07,2.88 -3.16,4.92 m 1.289,33.7 22.07,3.13 c -2.289,-4.09 -4.23,-7.56 -5.058,-10.15 l -0.442,-2.01 -17.41,2.29 c 0.34,2.37 0.609,4.62 0.84,6.74 m 25.179,8.62 -24.667,-3.5 c 0.207,2.44 0.339,4.26 0.398,4.97 0.059,1 0.07,2.21 0.07,3.46 l -0.019,2.4 h 28.269 c -1.179,-2.23 -2.57,-4.73 -4.051,-7.33 m 142.782,-30.21 25.328,8.11 c 0.883,-2.36 1.652,-4.77 2.332,-7.22 l -27.039,-2.58 z m 60.558,20.86 c 0.301,-0.83 0.692,-1.91 1.129,-3.15 l -16.777,-9.13 c -0.41,1.76 -0.84,3.39 -1.34,4.74 -0.621,1.65 -1.41,3.5 -2.242,5.39 z m -113.648,54.81 c 26.051,0 49.59,-10.55 66.66,-27.61 5.438,-5.44 10.129,-11.59 14.109,-18.22 0.668,-1.31 1.75,-3.46 3.032,-6.1 1.789,-3.67 3.816,-8.04 5.226,-11.55 l 0.84,-2.28 0.402,-1.36 0.461,-1.78 c 0.848,-3.76 1.661,-8.87 2.239,-13.47 0.398,-3.11 0.699,-5.96 0.929,-8.15 h -5.148 c -4.621,47.5 -42.442,84.72 -88.75,84.74 -46.301,-0.02 -84.152,-37.23 -88.77,-84.74 h -5.16 c 0.231,2.61 0.547,6.2 0.93,9.98 0.109,1.09 0.23,2.18 0.348,3.27 3.5,19.21 12.742,36.4 26,49.66 17.07,17.06 40.613,27.61 66.652,27.61 m -87.082,-12.06 c 0.473,-1.65 1.101,-3.93 1.723,-6.4 1.257,-4.87 2.476,-10.78 2.437,-13.17 l -0.039,-0.64 -0.281,-0.86 h -31.668 l -5.223,5.89 -0.008,0.22 c -0.039,0.93 -0.09,2.24 -0.09,3.72 -0.011,2.88 0.18,6.48 0.739,8.97 0.23,1.1 0.562,1.9 0.781,2.28 2.391,-0.09 6.519,-0.12 11.309,-0.12 7.421,0 15.992,0.07 20.32,0.11 m 208.57,-81.64 -20,2.74 c -0.238,2.33 -0.59,5.7 -1.078,9.54 -0.402,3.03 -0.859,6.19 -1.371,9.2 l 17.43,9.49 0.769,-2.2 v -0.01 c 0.223,-0.57 0.801,-3.41 1.32,-6.74 0.809,-5.09 1.692,-11.81 2.352,-17.24 0.231,-1.81 0.41,-3.37 0.578,-4.78 m 7.121,65.75 c -1.922,3.26 -5.289,6.53 -10.57,9.08 -4.121,1.99 -8.57,2.67 -12.871,2.67 -6.18,0 -12.129,-1.39 -16.77,-2.8 -2.308,-0.71 -4.3,-1.43 -5.789,-2 -1.449,-0.55 -2.601,-1.03 -2.601,-1.02 -1.059,-0.35 -1.797,-1.11 -2.18,-1.68 -1,-1.78 -0.801,-2.61 -0.867,-3.68 l 0.027,-0.46 c -18.66,21.6 -46.187,35.34 -76.988,35.34 -30.223,0 -57.289,-13.26 -75.942,-34.19 -0.5,3.21 -1.308,6.74 -2.14,10.08 -1.301,5.12 -2.59,9.38 -2.598,9.41 l -0.82,2.7 -2.813,-0.03 c -0.019,0 -12.769,-0.14 -23.089,-0.14 -5.137,0 -9.739,0.04 -11.598,0.13 l -0.332,0.01 c -2.52,0.04 -4.578,-1.62 -5.52,-3.16 -1.519,-2.36 -2.019,-4.96 -2.418,-7.69 -0.363,-2.72 -0.461,-5.53 -0.461,-7.92 0,-3.24 0.18,-5.67 0.18,-5.73 l 0.102,-1.26 6.027,-6.8 c 0.012,-0.92 0.031,-2.18 0.031,-3.44 0,-1.17 -0.019,-2.31 -0.058,-2.99 -0.133,-2.34 -1.453,-20.05 -4.383,-29.61 -0.52,-1.7 -0.731,-3.41 -0.731,-5.06 0.043,-5.74 2.422,-10.84 4.641,-14.64 2.23,-3.78 4.422,-6.25 4.531,-6.37 l 1.352,-1.52 2,0.29 16.297,2.41 h 48.941 v 3.75 c 0,13.49 5.461,25.67 14.301,34.51 8.84,8.83 21.019,14.29 34.5,14.29 13.488,0 25.668,-5.46 34.508,-14.29 8.84,-8.84 14.293,-21.02 14.293,-34.51 v -3.75 h 48.976 l 32.262,-4.43 -0.539,4.79 c 0,0.01 -0.84,7.42 -1.883,15.46 -0.519,4.02 -1.09,8.19 -1.648,11.7 -0.59,3.55 -1.051,6.21 -1.649,8.03 -1.16,3.34 -2.703,7.65 -3.551,10.02 l 3.192,4.88 5.828,6.33 0.609,0.67 0.25,0.89 c 0.071,0.24 0.352,1.39 0.352,3.16 0.008,2.16 -0.461,5.3 -2.391,8.57"
         style="fill:#231f20;fill-opacity:1;fill-rule:nonzero;stroke:none"
         id="path4632" />
      <path
         d="m 397.48,4482.44 0.008,-0.04 v 0"
         style="fill:#231f20;fill-opacity:1;fill-rule:nonzero;stroke:none"
         id="path4634" />
    </g>
  </g>
</svg>
