<?xml version="1.0" encoding="UTF-8" standalone="no"?>
<!-- John Grümph
     https://legrumph.org/Terrier/public/chibi/de-chorographia
     CC BY-NC 3.0
     https://creativecommons.org/licenses/by-nc/3.0/fr/ -->
<!-- Created with Inkscape (http://www.inkscape.org/) -->

<svg
   version="1.1"
   id="svg2"
   width="22.054703"
   height="25.015993"
   viewBox="0 0 22.054703 25.015992"
   xmlns="http://www.w3.org/2000/svg"
   xmlns:svg="http://www.w3.org/2000/svg">
  <defs
     id="defs6" />
  <g
     id="g10"
     transform="matrix(1.3333333,0,0,-1.3333333,-215.09996,656.22265)">
    <g
       id="g12"
       transform="scale(0.1)">
      <path
         d="m 1694.88,4887.22 c -5.04,0 -9.13,4.09 -9.13,9.13 0,5.04 4.09,9.13 9.13,9.13 5.04,0 9.12,-4.09 9.12,-9.13 0,-5.04 -4.08,-9.13 -9.12,-9.13 m -29.08,-49.8 c -5.04,0 -9.12,4.08 -9.12,9.12 0,5.04 4.08,9.13 9.12,9.13 5.05,0 9.13,-4.09 9.13,-9.13 0,-5.04 -4.08,-9.12 -9.13,-9.12 m 58.15,18.25 c 5.04,0 9.13,-4.09 9.13,-9.13 0,-5.04 -4.09,-9.12 -9.13,-9.12 -5.04,0 -9.13,4.08 -9.13,9.12 0,5.04 4.09,9.13 9.13,9.13 m 33.08,-23.09 c -2.39,1.9 -4.64,2.74 -6.56,2.73 l -0.85,-0.05 -0.16,-0.02 c -8.57,-15.1 -21.82,-18.82 -31.2,-18.72 -7.06,0.01 -12.12,1.79 -12.29,1.85 l 1.67,4.71 0.72,-0.22 c 0.49,-0.14 1.25,-0.34 2.2,-0.54 1.9,-0.4 4.59,-0.8 7.7,-0.8 8.34,0.09 19.19,2.78 26.85,16.19 l 0.33,1.91 c 0.45,2.55 0.67,4.94 0.67,7.18 -0.04,6.28 -1.68,11.16 -5.63,15.63 -3.97,4.46 -10.58,8.52 -20.71,11.93 l -2.94,1 0.43,3.08 c 0.43,3.09 0.63,5.91 0.63,8.47 -0.07,12.66 -4.49,18.92 -8.99,22.62 -4.4,3.56 -9.19,4.46 -10.25,4.6 l -8.87,-0.89 c -2.84,-0.97 -6.66,-2.88 -9.8,-6.66 -3.24,-3.92 -5.96,-9.87 -5.98,-19.66 0,-2.57 0.19,-5.38 0.63,-8.48 l 0.42,-3.08 -2.94,-1 c -10.12,-3.41 -16.73,-7.47 -20.71,-11.93 -3.95,-4.47 -5.59,-9.36 -5.63,-15.64 0,-2.23 0.22,-4.62 0.67,-7.17 l 0.45,-2.63 c 0.87,-1.77 1.94,-3.72 3.45,-5.76 4.1,-5.44 10.37,-10.63 20.37,-10.65 3.69,0 7.93,0.72 12.81,2.49 l 1.71,-4.69 c -5.34,-1.95 -10.17,-2.8 -14.52,-2.8 -11.9,-0.02 -19.79,6.45 -24.37,12.67 -1.89,2.52 -3.17,4.92 -4.17,7.01 l -0.76,0.05 c -1.92,0.01 -4.16,-0.83 -6.56,-2.73 -2.38,-1.89 -4.81,-4.8 -6.92,-8.46 -4.25,-7.3 -7.21,-17.5 -7.19,-28.08 0.02,-12.98 4.31,-26.38 15.6,-36.69 10.82,-9.87 28.55,-17.08 56.03,-17.68 -5.78,22.49 -15.21,35.24 -23.71,42.41 -9.05,7.63 -17.12,9.12 -18.67,9.35 l -0.26,0.03 0.46,4.98 c 0.32,-0.03 9.26,-0.92 19.72,-8.95 8.98,-6.88 18.95,-19.1 25.52,-40.11 3.94,14.7 13.07,26.79 21.98,35.63 11.15,11.06 21.94,17.21 22.06,17.29 l 2.48,-4.35 c 0,0 -0.61,-0.34 -1.74,-1.05 -1.13,-0.72 -2.76,-1.79 -4.72,-3.2 -3.94,-2.8 -9.22,-6.94 -14.56,-12.24 -9.89,-9.79 -19.72,-23.49 -22,-39.81 27.83,0.51 45.72,7.76 56.61,17.7 11.3,10.31 15.59,23.71 15.61,36.69 0.09,15.87 -6.84,30.89 -14.12,36.54"
         style="fill:#ffffff;fill-opacity:1;fill-rule:nonzero;stroke:none"
         id="path4714" />
      <path
         d="m 1698.94,4741.65 c 2.27,16.32 12.11,30.02 22,39.81 5.33,5.3 10.61,9.44 14.54,12.25 1.98,1.4 3.61,2.47 4.73,3.19 1.14,0.71 1.75,1.05 1.75,1.05 l -2.48,4.35 c -0.12,-0.07 -10.91,-6.23 -22.06,-17.29 -8.91,-8.84 -18.04,-20.93 -21.99,-35.63 -6.56,21.02 -16.54,33.23 -25.51,40.11 -10.46,8.03 -19.41,8.92 -19.72,8.95 l -0.47,-4.98 0.25,-0.03 c 1.57,-0.23 9.63,-1.72 18.69,-9.35 8.49,-7.17 17.93,-19.92 23.71,-42.41 -27.49,0.6 -45.22,7.81 -56.04,17.68 -11.29,10.31 -15.57,23.71 -15.59,36.69 -0.02,10.58 2.94,20.79 7.18,28.09 2.11,3.65 4.55,6.56 6.93,8.45 2.4,1.9 4.64,2.74 6.56,2.73 l 0.76,-0.05 c 1,-2.09 2.28,-4.48 4.16,-7.01 4.59,-6.22 12.46,-12.69 24.37,-12.67 4.34,0 9.18,0.86 14.52,2.8 l -1.7,4.7 c -4.89,-1.78 -9.12,-2.5 -12.82,-2.5 -10,0.02 -16.26,5.21 -20.36,10.65 -1.53,2.04 -2.58,3.99 -3.46,5.76 l -0.44,2.63 c -0.45,2.55 -0.67,4.94 -0.67,7.17 0.04,6.29 1.68,11.17 5.63,15.64 3.98,4.46 10.59,8.52 20.7,11.93 l 2.94,1 -0.42,3.08 c -0.44,3.1 -0.62,5.92 -0.62,8.48 0.02,9.79 2.72,15.74 5.97,19.66 3.15,3.78 6.97,5.69 9.81,6.66 l 8.87,0.89 c 1.05,-0.14 5.85,-1.03 10.25,-4.6 4.48,-3.7 8.91,-9.96 8.98,-22.62 0,-2.55 -0.19,-5.38 -0.62,-8.47 l -0.43,-3.08 2.94,-1 c 10.13,-3.41 16.74,-7.47 20.7,-11.92 3.96,-4.48 5.59,-9.36 5.64,-15.64 0,-2.23 -0.23,-4.63 -0.68,-7.18 l -0.32,-1.91 c -7.66,-13.41 -18.51,-16.09 -26.85,-16.19 -3.11,0 -5.81,0.4 -7.7,0.8 -0.96,0.2 -1.71,0.4 -2.21,0.54 l -0.72,0.23 -1.66,-4.72 c 0.16,-0.05 5.23,-1.84 12.29,-1.85 9.37,-0.09 22.62,3.62 31.19,18.72 l 0.16,0.02 0.84,0.05 c 1.93,0.01 4.18,-0.83 6.58,-2.73 7.28,-5.65 14.19,-20.67 14.12,-36.54 -0.02,-12.98 -4.31,-26.38 -15.61,-36.69 -10.91,-9.94 -28.79,-17.19 -56.61,-17.7 m 71.51,86.24 c -2.49,4.28 -5.42,7.9 -8.75,10.56 -2.56,2.03 -5.42,3.5 -8.47,4.08 0.12,1.42 0.39,2.88 0.39,4.27 0.02,7.66 -2.3,14.8 -7.55,20.63 -4.75,5.31 -11.78,9.5 -21.15,12.99 0.21,2.22 0.47,4.49 0.47,6.49 0.07,15.47 -6.38,24.72 -13.01,29.4 -6.59,4.72 -12.94,5.28 -13.31,5.33 l -0.36,0.03 -10.16,-1.02 -0.41,-0.04 -0.38,-0.12 c -3.78,-1.24 -9.12,-3.81 -13.55,-9.11 -4.42,-5.29 -7.73,-13.26 -7.7,-24.46 0,-2.01 0.25,-4.27 0.47,-6.5 -9.37,-3.49 -16.41,-7.68 -21.16,-12.99 -5.25,-5.83 -7.57,-12.97 -7.54,-20.64 0,-1.38 0.26,-2.84 0.39,-4.26 -3.06,-0.58 -5.92,-2.05 -8.48,-4.08 -9.84,-7.99 -16.87,-24.47 -16.94,-42.41 -0.04,-14.6 4.96,-30.32 18.04,-42.23 13.07,-11.92 33.85,-19.77 64.66,-19.76 30.8,-0.01 51.58,7.84 64.66,19.76 13.08,11.91 18.07,27.63 18.05,42.23 -0.02,11.96 -3.27,23.27 -8.21,31.85"
         style="fill:#231f20;fill-opacity:1;fill-rule:nonzero;stroke:none"
         id="path4716" />
      <path
         d="m 1694.88,4905.48 c -5.04,0 -9.13,-4.09 -9.13,-9.14 0,-5.04 4.09,-9.13 9.13,-9.13 5.04,0 9.12,4.09 9.12,9.13 0,5.05 -4.08,9.14 -9.12,9.14"
         style="fill:#231f20;fill-opacity:1;fill-rule:nonzero;stroke:none"
         id="path4718" />
      <path
         d="m 1665.8,4855.66 c -5.04,0 -9.12,-4.09 -9.12,-9.12 0,-5.04 4.08,-9.13 9.12,-9.13 5.05,0 9.13,4.09 9.13,9.13 0,5.03 -4.08,9.12 -9.13,9.12"
         style="fill:#231f20;fill-opacity:1;fill-rule:nonzero;stroke:none"
         id="path4720" />
      <path
         d="m 1723.95,4837.41 c 5.05,0 9.14,4.09 9.14,9.13 0,5.04 -4.09,9.12 -9.14,9.12 -5.04,0 -9.13,-4.08 -9.13,-9.12 0,-5.04 4.09,-9.13 9.13,-9.13"
         style="fill:#231f20;fill-opacity:1;fill-rule:nonzero;stroke:none"
         id="path4722" />
    </g>
  </g>
</svg>
