<?xml version="1.0" encoding="UTF-8" standalone="no"?>
<!-- Created with Inkscape (http://www.inkscape.org/) -->

<svg
   version="1.1"
   id="svg2"
   width="38.778671"
   height="31.155947"
   viewBox="0 0 38.778671 31.155945"
   xmlns="http://www.w3.org/2000/svg"
   xmlns:svg="http://www.w3.org/2000/svg">
  <defs
     id="defs6" />
  <g
     id="g10"
     transform="matrix(1.3333333,0,0,-1.3333333,-205.19466,623.56133)">
    <g
       id="g12"
       transform="scale(0.1)">
      <path
         d="m 1767.27,4508.53 0.05,-0.34 -0.02,-0.34 -0.76,-7.58 10.32,1.81 2.09,52.46 c -0.22,0.59 -0.56,1.52 -1.13,2.93 -0.81,2.05 -1.95,4.63 -3.02,6.56 l -0.44,0.73 c -1.73,-1.73 -3.67,-3.45 -5.6,-5 -2.72,-2.2 -5.05,-3.9 -5.08,-3.92 l -2.05,-1.49 -0.1,-2.04 c -0.01,-5.43 1.41,-16.52 2.86,-26.07 1.43,-9.58 2.88,-17.69 2.88,-17.71"
         style="fill:#ffffff;fill-opacity:1;fill-rule:nonzero;stroke:none"
         id="path4788" />
      <path
         d="m 1801.38,4485.46 c -3.76,-2.69 -7.68,-5.46 -9.36,-6.41 l -0.98,-0.41 -0.8,-0.09 c -1.85,0.02 -11.52,0.77 -24.85,1.5 -13.26,0.75 -29.93,1.5 -45.03,1.5 -15.02,0.02 -28.66,-0.8 -35.23,-2.87 -22.24,-6.93 -49.51,-12.57 -53.52,-13.48 -0.87,-0.2 -2.5,-0.38 -5.25,-0.68 -2.71,-0.29 -6.35,-0.63 -10.59,-1.04 -8.48,-0.8 -19.4,-1.77 -30.19,-2.73 -16.27,-1.43 -32.24,-2.79 -39.11,-3.39 v -6.81 h 11.32 l 167.4,16.75 78.65,7.52 18.47,-1.3 v 15.36 h -16.21 c -1.28,-0.93 -2.95,-2.15 -4.72,-3.42"
         style="fill:#ffffff;fill-opacity:1;fill-rule:nonzero;stroke:none"
         id="path4790" />
      <path
         d="m 1739.35,4641.38 26.34,2.97 -2.1,11.71 c -1.09,0.36 -2.54,0.85 -4.43,1.45 -4.07,1.3 -9.84,3.04 -16.54,4.78 -13.41,3.48 -30.6,6.93 -45.35,6.92 -7.08,0.01 -13.57,-0.8 -18.72,-2.62 -20.93,-7.36 -39.1,-12.44 -48.7,-14.57 -1.85,-0.39 -3.24,-0.66 -4.47,-0.86 l -0.08,-1.1 c -0.11,-2.53 -0.16,-5.89 -0.16,-8.9 l 0.02,-2.01 30.8,2.23"
         style="fill:#ffffff;fill-opacity:1;fill-rule:nonzero;stroke:none"
         id="path4792" />
      <path
         d="m 1610.16,4493.87 0.07,1.2 c 0,0.03 1.4,24.76 2.11,37.83 0.23,4.26 0.39,7.5 0.37,7.63 v 0.07 l -0.02,0.43 -0.12,1.5 c -0.11,1.25 -0.25,2.96 -0.43,4.97 -0.34,4.02 -0.82,9.22 -1.28,14.37 -0.57,6.36 -1.15,12.61 -1.51,16.49 l -10.5,-1.5 -3.23,-86.35 6.18,0.23"
         style="fill:#ffffff;fill-opacity:1;fill-rule:nonzero;stroke:none"
         id="path4794" />
      <path
         d="m 1725.74,4462.34 -117.77,-11.79 h 214.33 v 17.97 l -18.41,1.3"
         style="fill:#ffffff;fill-opacity:1;fill-rule:nonzero;stroke:none"
         id="path4796" />
      <path
         d="m 1636.63,4492.39 1.27,-0.16 15.56,2.23 c -0.64,3.76 -1,7.72 -1,11.82 0.02,17.7 4.92,37.41 7.61,46.94 l 9.66,51.85 -6.87,31.31 h -6.72 l -7.87,-0.57 -0.16,-1.49 c 0,-0.02 -0.75,-7.14 -1.87,-18.22 -1.11,-11.09 -2.61,-26.13 -4.1,-41.92 -2.99,-31.52 -5.98,-66.25 -5.97,-77.85 -0.02,-1.69 0.1,-2.94 0.13,-3"
         style="fill:#ffffff;fill-opacity:1;fill-rule:nonzero;stroke:none"
         id="path4798" />
      <path
         d="m 1662.09,4540.96 -0.08,-0.35 c -2.28,-9.91 -4.55,-22.77 -4.55,-34.34 0,-3.94 0.34,-7.64 0.94,-11.11 l 22.18,3.17 -2.34,32.67 -9.62,9.96"
         style="fill:#ffffff;fill-opacity:1;fill-rule:nonzero;stroke:none"
         id="path4800" />
      <path
         d="m 1577.12,4465.03 c 18.48,1.61 39.33,3.48 48.71,4.47 2.63,0.28 4.53,0.53 4.66,0.57 4.13,0.95 31.22,6.56 53.15,13.39 7.83,2.4 21.45,3.08 36.72,3.09 15.27,0 32,-0.75 45.31,-1.5 12.49,-0.7 22.07,-1.41 24.16,-1.48 l 0.34,0.21 1.97,1.29 c 1.58,1.07 3.6,2.5 5.59,3.93 l 1.66,1.2 v 2.43 8.35 l -42.7,-7.52 h -34.6 -40.23 l -43.91,-6.26 -23.67,2.87 -11.48,-4.3 -36.18,-1.35 -1.38,-11.03 0.82,-9.32 c 3.51,0.31 7.2,0.63 11.06,0.96"
         style="fill:#ffffff;fill-opacity:1;fill-rule:nonzero;stroke:none"
         id="path4802" />
      <path
         d="m 1739.63,4636.38 h -10.75 l 0.04,-0.19 c 0,-0.02 1.9,-10.93 3.82,-23.69 1.91,-12.81 3.83,-27.29 3.85,-35.12 0,-1.14 -0.04,-2.16 -0.14,-3.09 -0.39,-3.3 -0.54,-8.86 -0.54,-14.65 0,-9.84 0.39,-20.36 0.52,-23.4 l 6.81,-2.98 -0.16,-1.8 c 0,-0.01 -0.41,-4.34 -0.41,-10.04 -0.01,-4.49 0.26,-9.82 1.16,-14.31 0.77,-4.13 2.25,-7.31 3.8,-8.65 h 8.62 l 5.18,0.91 0.86,8.64 c -0.59,3.38 -5.75,32.89 -5.77,44.31 0,3.91 0.29,7.35 0.67,10.29 l -10.03,74.62"
         style="fill:#ffffff;fill-opacity:1;fill-rule:nonzero;stroke:none"
         id="path4804" />
      <path
         d="m 1738.92,4506.13 c -1,5.02 -1.25,10.59 -1.25,15.3 0,3.78 0.17,6.84 0.29,8.68 l -3.16,1.38 -1.86,-0.11 -10.64,-0.63 v -32.29 h 19.2 c -1.2,2.27 -1.99,4.9 -2.58,7.67"
         style="fill:#ffffff;fill-opacity:1;fill-rule:nonzero;stroke:none"
         id="path4806" />
      <path
         d="m 1822.3,4473.52 -18.46,1.3 -78.66,-7.52 -167.39,-16.76 h -11.33 v 6.82 c 6.88,0.59 22.84,1.96 39.11,3.39 10.79,0.95 21.72,1.93 30.2,2.73 4.25,0.4 7.87,0.76 10.59,1.05 2.75,0.29 4.37,0.47 5.25,0.66 4,0.93 31.28,6.56 53.52,13.49 6.57,2.08 20.21,2.89 35.23,2.87 15.09,0 31.77,-0.74 45.03,-1.49 13.34,-0.75 23,-1.5 24.84,-1.51 l 0.81,0.09 0.98,0.42 c 1.68,0.93 5.59,3.71 9.36,6.4 1.76,1.27 3.44,2.48 4.71,3.42 h 16.21 z m 0,-22.98 h -214.34 l 117.79,11.79 78.14,7.48 18.41,-1.3 z m -255.67,33.88 36.17,1.35 11.47,4.3 23.68,-2.88 43.91,6.27 h 40.23 34.59 l 42.71,7.51 v -8.34 -2.44 l -1.66,-1.2 c -1.98,-1.41 -4,-2.84 -5.59,-3.92 l -1.98,-1.3 -0.32,-0.2 c -2.09,0.07 -11.68,0.78 -24.16,1.48 -13.32,0.75 -30.05,1.5 -45.32,1.5 -15.27,-0.02 -28.9,-0.7 -36.72,-3.1 -21.94,-6.82 -49.03,-12.43 -53.16,-13.39 -0.12,-0.04 -2.03,-0.29 -4.64,-0.56 -9.39,-0.99 -30.25,-2.86 -48.73,-4.48 -3.84,-0.33 -7.54,-0.65 -11.06,-0.95 l -0.82,9.32 z m 32.21,92.44 10.5,1.5 c 0.36,-3.88 0.95,-10.13 1.52,-16.49 0.46,-5.15 0.94,-10.36 1.28,-14.38 0.18,-2 0.34,-3.71 0.43,-4.97 l 0.11,-1.5 0.03,-0.42 v -0.08 c 0.02,-0.13 -0.14,-3.36 -0.37,-7.62 -0.7,-13.07 -2.11,-37.8 -2.11,-37.84 l -0.07,-1.19 -8.36,-3.13 -6.19,-0.24 z m 43.3,-2.68 c 1.5,15.79 2.99,30.82 4.11,41.91 1.11,11.09 1.86,18.21 1.86,18.23 l 0.16,1.49 7.87,0.57 h 6.72 l 6.87,-31.31 -9.66,-51.85 c -2.68,-9.53 -7.59,-29.25 -7.61,-46.95 0,-4.1 0.36,-8.05 0.99,-11.81 l -15.54,-2.23 -1.27,0.16 -0.34,0.93 c -0.03,0.06 -0.14,1.32 -0.12,3 -0.02,11.6 2.98,46.34 5.96,77.86 m -16.98,64.97 -0.02,2 c 0,3.01 0.04,6.38 0.16,8.9 l 0.08,1.11 c 1.23,0.19 2.62,0.47 4.46,0.86 9.61,2.12 27.77,7.2 48.71,14.57 5.15,1.82 11.63,2.62 18.72,2.62 14.75,0.01 31.94,-3.44 45.34,-6.92 6.71,-1.74 12.48,-3.48 16.57,-4.79 1.87,-0.59 3.32,-1.08 4.41,-1.45 l 2.09,-11.7 -26.34,-2.97 h -83.39 z m 97.14,-108.39 10.63,0.62 1.87,0.11 3.15,-1.38 c -0.11,-1.84 -0.29,-4.9 -0.29,-8.69 0,-4.7 0.27,-10.26 1.25,-15.29 0.59,-2.78 1.39,-5.4 2.59,-7.67 h -19.2 z m -41.73,-32.43 -22.18,-3.17 c -0.59,3.46 -0.93,7.17 -0.93,11.11 0,11.57 2.27,24.43 4.56,34.34 l 0.07,0.35 h 6.54 l 9.62,-9.96 z m -8.77,50.13 h -4.98 l 10.57,56.73 -5.84,26.6 h 50.5 c 0.7,-4.08 1.97,-11.77 3.27,-20.41 1.89,-12.62 3.79,-27.23 3.77,-34.01 0,-0.94 -0.04,-1.72 -0.09,-2.23 -0.45,-3.92 -0.59,-9.57 -0.59,-15.51 0,-7.99 0.25,-16.33 0.41,-20.97 l -14.02,-0.83 v -36.45 h -26.92 l -2.36,32.87 z m 85.38,14.14 c -0.38,-2.93 -0.66,-6.37 -0.66,-10.29 0.03,-11.42 5.18,-40.92 5.77,-44.3 l -0.86,-8.64 -5.18,-0.91 h -8.62 c -1.56,1.33 -3.04,4.52 -3.81,8.64 -0.89,4.5 -1.16,9.82 -1.16,14.32 0,5.69 0.41,10.02 0.41,10.03 l 0.18,1.81 -6.82,2.97 c -0.13,3.05 -0.52,13.57 -0.52,23.4 0,5.79 0.14,11.36 0.54,14.65 0.1,0.94 0.14,1.95 0.14,3.09 -0.02,7.84 -1.95,22.31 -3.86,35.12 -1.91,12.77 -3.82,23.68 -3.82,23.7 l -0.03,0.19 h 10.75 l 7.53,0.85 z m 4.45,-8.25 2.05,1.49 c 0.02,0.02 2.36,1.72 5.09,3.92 1.91,1.55 3.86,3.27 5.59,5 l 0.44,-0.73 c 1.06,-1.93 2.2,-4.51 3.02,-6.56 0.57,-1.41 0.91,-2.34 1.13,-2.93 l -2.09,-52.46 -10.32,-1.81 0.76,7.58 0.02,0.34 -0.05,0.34 c 0,0.02 -1.45,8.13 -2.88,17.71 -1.46,9.55 -2.87,20.64 -2.87,26.07 z m -141.4,97.24 -0.02,0.01 z m 186.66,-155.21 v 14.92 l -22.32,-4.13 1.93,48.52 -0.23,0.67 c -0.02,0.06 -1.34,3.8 -3.09,7.66 -0.88,1.94 -1.88,3.9 -2.98,5.58 l -1.95,2.35 c -0.79,0.68 -1.87,1.56 -3.79,1.61 -1.62,0.04 -3.19,-0.99 -3.87,-1.97 -0.96,-1.27 -3.77,-3.78 -6.27,-5.78 l -0.59,4.46 0.18,0.66 -0.28,0.09 -8.33,61.95 19.75,1.68 -4.87,27.02 -2.02,0.73 c -0.21,0.04 -39.23,14.25 -70.89,14.31 -7.64,-0.01 -14.88,-0.83 -21.22,-3.05 -13.76,-4.84 -26.35,-8.69 -35.94,-11.32 -4.79,-1.32 -8.84,-2.33 -11.88,-2.99 -2.98,-0.68 -5.23,-1 -5.41,-0.97 v -0.07 l -0.59,0.18 -2.21,-0.7 c -0.97,-0.73 -1.18,-1.3 -1.36,-1.68 l -0.48,-1.58 c -0.25,-1.54 -0.36,-3.5 -0.43,-5.9 -0.07,-2.37 -0.11,-5.03 -0.11,-7.48 0,-4.21 0.07,-7.75 0.07,-7.76 l 0.09,-3.88 22.4,1.22 c -0.95,-9.15 -3.24,-31.58 -5.54,-55.84 -2.98,-31.5 -5.93,-65.72 -5.98,-78.32 l -10.77,1.51 c 0.23,4.12 0.64,11.37 1.05,18.78 0.31,5.61 0.63,11.27 0.86,15.64 0.23,4.43 0.39,7.29 0.39,8.04 -0.01,0.62 -0.07,1.25 -0.16,2.59 -0.73,8.92 -3.6,39.83 -3.6,39.84 l -0.36,3.92 -24.5,-3.49 -3.32,-88.79 -28.04,-0.83 -2.53,-20.25 0.53,-5.99 -19.27,-0.41 v -24.09 h 290.84 v 53.34"
         style="fill:#231f20;fill-opacity:1;fill-rule:nonzero;stroke:none"
         id="path4808" />
    </g>
  </g>
</svg>
