<?xml version="1.0" encoding="UTF-8" standalone="no"?>
<!-- Created with Inkscape (http://www.inkscape.org/) -->

<svg
   version="1.1"
   id="svg2"
   width="42.485207"
   height="22.374697"
   viewBox="0 0 42.485206 22.374696"
   xmlns="http://www.w3.org/2000/svg"
   xmlns:svg="http://www.w3.org/2000/svg">
  <defs
     id="defs6" />
  <g
     id="g10"
     transform="matrix(1.3333333,0,0,-1.3333333,-101.52813,575.35064)">
    <g
       id="g12"
       transform="scale(0.1)">
      <path
         d="m 858.176,4161.4 1.59,-0.02 c 0.007,0 4.398,-0.05 11.449,-0.05 18.488,0 55.308,0.38 78.258,3.06 7.621,0.87 13.769,2.06 16.793,3.36 14.5,6.12 45.474,19 57.374,23.94 v 0.63 l -0.01,0.61 -0.09,1.85 c -0.09,1.58 -0.27,3.8 -0.66,6.3 -0.74,4.91 -2.31,10.88 -4.95,15.05 -10.59,-26.92 -36.754,-46 -67.446,-46 -22.492,0 -42.589,10.25 -55.879,26.33 l -72.222,-24.8 -9.559,-7.84 -1.379,0.56 -5.73,2.35 -1.36,-0.04 c -4.363,-0.07 -10.972,-1.82 -17.23,-4.07 -6.293,-2.24 -12.359,-4.91 -16.172,-6.69 l -2,-0.96 v -0.15 h 86.063"
         style="fill:#ffffff;fill-opacity:1;fill-rule:nonzero;stroke:none"
         id="path4850" />
      <path
         d="m 811.406,4203.66 c -1.929,-4 -3.129,-8.29 -3.859,-12.4 l 77.699,19.91 c -1.699,3.53 -3.16,7.18 -4.281,10.99 h -46.258 l -3.371,-1.07 c -10.281,-3.31 -16.231,-9.85 -19.93,-17.43"
         style="fill:#ffffff;fill-opacity:1;fill-rule:nonzero;stroke:none"
         id="path4852" />
      <path
         d="m 865.535,4249.02 -2.328,45.48 h -4.961 l -5.07,-46.59 z"
         style="fill:#ffffff;fill-opacity:1;fill-rule:nonzero;stroke:none"
         id="path4854" />
      <path
         d="m 877.988,4242.63 0.129,2.5 -44.918,-4.05 -0.14,-0.34 c -0.903,-2.56 -1.743,-5.91 -1.731,-8.62 0.012,-2.32 0.559,-3.88 1.488,-4.78 l 0.192,-0.18 h 46.68 c -1.079,4.99 -1.7,10.16 -1.7,15.47"
         style="fill:#ffffff;fill-opacity:1;fill-rule:nonzero;stroke:none"
         id="path4856" />
      <path
         d="m 1050.27,4237.88 c 4.23,-0.59 10.19,-1.84 14.97,-4.67 1.22,-0.75 2.22,-1.4 3.13,-2.03 1.01,4.82 1.94,9.06 2.57,11.96 l -19.26,2.24"
         style="fill:#ffffff;fill-opacity:1;fill-rule:nonzero;stroke:none"
         id="path4858" />
      <path
         d="m 806.965,4175.21 c 0.18,-1.51 0.469,-2.66 0.566,-2.91 l 0.793,-1.23 3.629,-1.49 7.949,6.52 71.539,24.56 c -1.359,1.93 -2.636,3.91 -3.82,5.97 l -80.789,-20.71 c -0.129,-1.71 -0.211,-3.35 -0.211,-4.85 0,-2.3 0.141,-4.31 0.344,-5.86"
         style="fill:#ffffff;fill-opacity:1;fill-rule:nonzero;stroke:none"
         id="path4860" />
      <path
         d="m 1048.72,4164.26 -2.4,25.1 -6.7,1.58 -9.25,-1.85 0.01,-0.02 c -0.03,-0.01 -11.02,-4.57 -24.3,-10.09 -13.279,-5.53 -28.818,-12.01 -37.881,-15.84 -4.019,-1.68 -10.308,-2.8 -18.148,-3.72 -7.821,-0.91 -17.11,-1.56 -26.719,-2.02 -19.223,-0.9 -39.742,-1.07 -52.121,-1.07 -4.699,0 -8.07,0.02 -9.91,0.04 l -0.738,-1.55 h 205.557 c -0.4,2.59 -0.94,6.11 -1.49,10.05"
         style="fill:#ffffff;fill-opacity:1;fill-rule:nonzero;stroke:none"
         id="path4862" />
      <path
         d="m 1063.98,4208.79 -16.91,11.97 -4.75,-25.32 8.63,-2.04 2.3,-23.97 10.7,0.41 c -1.13,8.31 -2.18,17.07 -2.18,22.16 0,3.11 0.66,7.79 1.61,13.47 0.17,1.04 0.39,2.22 0.6,3.32"
         style="fill:#ffffff;fill-opacity:1;fill-rule:nonzero;stroke:none"
         id="path4864" />
      <path
         d="m 1062.67,4228.92 c -3.79,2.32 -9.38,3.49 -13.31,4.03 l -1.27,-6.78 16.87,-11.95 c 0.59,3.18 1.25,6.42 1.88,9.58 l 0.42,2.01 c -1.05,0.82 -2.47,1.84 -4.59,3.11"
         style="fill:#ffffff;fill-opacity:1;fill-rule:nonzero;stroke:none"
         id="path4866" />
      <path
         d="m 1068.37,4231.18 c -0.91,0.62 -1.9,1.28 -3.12,2.03 -4.79,2.83 -10.75,4.08 -14.98,4.67 l 1.41,7.5 19.27,-2.24 c -0.64,-2.9 -1.56,-7.14 -2.58,-11.96 m -207.811,-76.36 0.742,1.55 c 1.847,-0.02 5.207,-0.04 9.91,-0.04 12.379,0 32.898,0.17 52.117,1.08 9.61,0.45 18.902,1.1 26.723,2.01 7.84,0.93 14.129,2.04 18.148,3.72 9.059,3.83 24.602,10.31 37.881,15.84 13.29,5.53 24.27,10.09 24.3,10.1 l -0.01,0.02 9.25,1.84 6.7,-1.58 2.4,-25.1 15.91,0.61 c 0.56,-3.94 1.09,-7.45 1.49,-10.05 z m 204.401,59.41 -16.87,11.95 1.27,6.78 c 3.92,-0.54 9.52,-1.72 13.31,-4.04 2.12,-1.27 3.55,-2.29 4.59,-3.11 l -0.42,-2 c -0.64,-3.17 -1.28,-6.41 -1.88,-9.58 m -1.01,-44.38 -10.7,-0.41 -2.29,23.96 -8.64,2.04 4.75,25.32 16.91,-11.97 c -0.2,-1.1 -0.42,-2.27 -0.6,-3.32 -0.95,-5.68 -1.6,-10.36 -1.61,-13.46 0.01,-5.1 1.05,-13.86 2.18,-22.16 m -176.321,36.77 c 1.172,-2.05 2.449,-4.03 3.82,-5.96 l -71.551,-24.56 -7.949,-6.53 -3.629,1.5 -0.793,1.23 c -0.097,0.25 -0.386,1.39 -0.566,2.91 -0.191,1.55 -0.344,3.56 -0.344,5.86 0,1.5 0.082,3.15 0.223,4.85 z m -56.289,14.47 3.371,1.07 h 46.258 c 1.121,-3.81 2.582,-7.46 4.281,-10.98 l -77.699,-19.92 c 0.719,4.11 1.918,8.4 3.859,12.4 3.699,7.58 9.649,14.12 19.93,17.43 m 75.66,69.75 c 0.738,-1.55 1.609,-3.43 2.57,-5.41 1.09,-2.26 2.25,-4.56 3.25,-6.42 0.5,-0.94 0.969,-1.76 1.391,-2.44 l 1.449,-1.81 1.77,-1.45 c -5.082,-6.86 -8.192,-15.26 -8.192,-24.45 0,-13.14 6.27,-24.71 15.84,-32.27 -3.07,-3.12 -8.41,-8.31 -13.238,-12.96 -2.871,-2.76 -5.449,-5.22 -7.289,-6.98 l -0.024,0.02 c -11.769,11.78 -19.039,28 -19.039,45.96 0,17.96 7.27,34.18 19.039,45.96 z m 60.73,6.17 c 2.219,-3.61 6.887,-6.17 11.188,-8.46 2.281,-1.17 4.391,-2.12 5.91,-2.78 l -3.527,-9.74 c -7.563,8.57 -18.492,14.08 -30.813,14.08 -11.789,0 -22.347,-5.01 -29.871,-12.94 l -1.699,1.38 c -0.168,0.15 -1.07,1.6 -1.969,3.33 -2,3.77 -4.59,9.28 -5.969,12.28 10.95,8.42 24.618,13.47 39.508,13.47 5.711,0 11.231,-0.81 16.5,-2.19 -0.34,-1.02 -0.597,-2.15 -0.621,-3.46 0,-1.56 0.391,-3.3 1.363,-4.97 m 47.54,-58.69 -4.27,-1.08 -0.73,-0.18 -8.56,-9.28 -12.683,6.74 c 1.672,4.49 2.711,9.28 2.711,14.34 0,8.35 -2.519,16.08 -6.777,22.58 l 6.207,17.16 -2.258,0.89 c 0,0 -0.902,0.35 -2.332,0.97 -2.148,0.93 -5.449,2.46 -8.41,4.18 -2.938,1.67 -5.559,3.76 -6.109,4.86 -0.532,0.92 -0.68,1.71 -0.692,2.48 l 0.422,2.01 c 9.359,-3.25 17.789,-8.52 24.672,-15.4 11.759,-11.77 19.029,-28 19.029,-45.96 0,-1.45 -0.12,-2.88 -0.22,-4.31 m -11.15,-32.39 -21.792,17 c 1.781,2.18 3.332,4.52 4.633,7.03 l 15.799,-8.41 10.18,11.03 1.77,0.45 c -1.48,-9.95 -5.15,-19.17 -10.59,-27.1 m -74.901,7.75 c 6.23,-3.77 13.461,-6.07 21.269,-6.07 6.172,0 11.973,1.45 17.231,3.87 1.691,-1.47 4.09,-3.6 6.601,-5.97 2.168,-2.06 4.348,-4.24 5.918,-6.04 l 1.782,-2.3 0.371,-0.64 0.019,-0.07 c 0.051,-2.24 0.629,-5.15 1.188,-7.76 l 0.39,-1.69 c -9.777,-5.91 -21.218,-9.38 -33.5,-9.38 -16.14,0.01 -30.859,5.92 -42.23,15.65 2.472,2.36 6.191,5.92 9.961,9.57 3.23,3.11 6.461,6.26 8.922,8.72 z m -12.481,35.18 c 0.039,18.64 15.121,33.71 33.75,33.75 18.641,-0.04 33.723,-15.11 33.75,-33.75 -0.027,-18.64 -15.109,-33.72 -33.75,-33.75 -18.629,0.03 -33.711,15.11 -33.75,33.75 m 84.382,-46.94 c -1.472,-1.83 -3.003,-3.59 -4.659,-5.25 -2.473,-2.47 -5.172,-4.68 -8,-6.73 -0.563,2.49 -1.094,5.45 -1.07,6.75 -0.063,1.46 -0.59,2.23 -1.161,3.19 -2.031,3.11 -6.281,7.22 -10.152,10.83 -1.348,1.24 -2.57,2.33 -3.68,3.31 2.379,1.51 4.602,3.2 6.622,5.14 z m -168.112,25.24 -0.188,0.18 c -0.929,0.9 -1.48,2.46 -1.492,4.78 -0.008,2.71 0.832,6.06 1.731,8.62 l 0.129,0.34 44.929,4.05 -0.129,-2.5 c 0,-5.31 0.61,-10.48 1.7,-15.47 z m 30.191,67.35 2.34,-45.49 -12.371,-1.12 5.082,46.61 z m -94.238,-139.54 2,0.96 c 3.809,1.78 9.867,4.45 16.156,6.69 6.274,2.25 12.871,4 17.242,4.07 l 1.352,0.04 5.738,-2.35 1.371,-0.56 9.559,7.84 72.219,24.8 c 13.293,-16.08 33.402,-26.33 55.89,-26.33 30.68,0 56.842,19.08 67.432,46 2.66,-4.17 4.23,-10.14 4.95,-15.05 0.39,-2.5 0.58,-4.72 0.68,-6.3 l 0.08,-1.85 0.01,-0.61 v -0.63 c -11.89,-4.94 -42.882,-17.82 -57.382,-23.94 -3.02,-1.3 -9.168,-2.49 -16.789,-3.36 -22.949,-2.68 -59.758,-3.06 -78.258,-3.06 -7.051,0 -11.434,0.05 -11.441,0.05 l -1.602,0.02 -3.16,-6.58 h -86.047 z m 276.639,98.67 -10.49,-55.95 -4.19,-0.84 c -0.25,2.93 -0.74,6.98 -1.8,11.29 -1.03,4.13 -2.56,8.49 -5.05,12.33 -0.95,1.48 -2.14,2.84 -3.43,4.1 1.48,5.78 2.35,11.81 2.35,18.06 0,40.04 -32.451,72.5 -72.502,72.5 -36.418,0 -66.48,-26.88 -71.629,-61.87 h -6.031 l -2.5,48.75 H 851.52 l -5.622,-51.57 h -16.769 l -1.031,-2.07 c -0.071,-0.26 -4.188,-8.1 -4.27,-16.25 0,-1.86 0.281,-3.85 1,-5.75 -9.84,-4.36 -16.418,-11.59 -20.18,-19.45 -4.328,-9.01 -5.519,-18.59 -5.531,-25.85 0,-2.88 0.203,-5.38 0.492,-7.4 -6.941,-1.06 -14.691,-3.74 -21.441,-6.43 -8.199,-3.3 -14.59,-6.54 -14.66,-6.57 l -2.047,-1.05 v -8.55 -3.75 h 3.75 309.719 l -0.71,4.35 c -0.01,0.02 -1.25,7.62 -2.49,16.52 -1.24,8.85 -2.48,19.16 -2.46,23.82 -0.02,2.05 0.57,6.74 1.5,12.22 1.4,8.27 3.5,18.62 5.25,26.89 1.75,8.26 3.15,14.42 3.15,14.43 l 0.93,4.07"
         style="fill:#231f20;fill-opacity:1;fill-rule:nonzero;stroke:none"
         id="path4868" />
      <path
         d="m 979.023,4219.16 c -2.019,-1.94 -4.25,-3.64 -6.621,-5.14 1.102,-0.98 2.321,-2.08 3.672,-3.32 3.879,-3.61 8.129,-7.72 10.16,-10.83 0.559,-0.95 1.09,-1.73 1.161,-3.18 -0.024,-1.3 0.507,-4.27 1.058,-6.75 2.84,2.04 5.531,4.26 8,6.73 1.66,1.66 3.199,3.42 4.667,5.24"
         style="fill:#ffffff;fill-opacity:1;fill-rule:nonzero;stroke:none"
         id="path4870" />
      <path
         d="m 950.488,4307.63 c -14.89,0 -28.55,-5.05 -39.511,-13.47 1.382,-3 3.972,-8.51 5.972,-12.28 0.899,-1.73 1.797,-3.18 1.969,-3.33 l 1.699,-1.38 c 7.52,7.93 18.082,12.94 29.871,12.94 12.321,0 23.25,-5.51 30.809,-14.08 l 3.543,9.74 c -1.531,0.66 -3.641,1.61 -5.922,2.78 -4.301,2.29 -8.969,4.85 -11.191,8.46 -0.969,1.66 -1.36,3.41 -1.36,4.97 0.02,1.31 0.281,2.44 0.621,3.46 -5.269,1.38 -10.789,2.19 -16.5,2.19"
         style="fill:#ffffff;fill-opacity:1;fill-rule:nonzero;stroke:none"
         id="path4872" />
      <path
         d="m 908.262,4193.28 c 11.371,-9.74 26.082,-15.64 42.23,-15.65 12.281,0 23.719,3.46 33.5,9.37 l -0.39,1.7 c -0.559,2.61 -1.141,5.52 -1.192,7.75 l -0.019,0.07 -0.368,0.65 -1.793,2.3 c -1.558,1.8 -3.738,3.97 -5.917,6.04 -2.512,2.36 -4.911,4.5 -6.602,5.97 -5.25,-2.43 -11.051,-3.88 -17.219,-3.88 -7.82,0 -15.039,2.3 -21.269,6.08 l -2.082,-2.12 c -2.457,-2.45 -5.7,-5.6 -8.918,-8.72 -3.77,-3.65 -7.493,-7.21 -9.961,-9.56"
         style="fill:#ffffff;fill-opacity:1;fill-rule:nonzero;stroke:none"
         id="path4874" />
      <path
         d="m 971.785,4303.99 -0.418,-2.01 c 0.012,-0.77 0.168,-1.56 0.692,-2.48 0.546,-1.1 3.168,-3.2 6.117,-4.86 2.961,-1.72 6.262,-3.25 8.402,-4.18 1.43,-0.62 2.328,-0.97 2.328,-0.97 l 2.262,-0.89 -6.211,-17.16 c 4.262,-6.5 6.781,-14.24 6.781,-22.59 0,-5.06 -1.031,-9.85 -2.703,-14.33 l 12.675,-6.75 8.57,9.29 0.72,0.18 4.28,1.08 c 0.09,1.43 0.21,2.85 0.21,4.31 0,17.96 -7.26,34.19 -19.033,45.96 -6.879,6.87 -15.301,12.15 -24.672,15.4"
         style="fill:#ffffff;fill-opacity:1;fill-rule:nonzero;stroke:none"
         id="path4876" />
      <path
         d="m 1014.71,4233.02 -1.77,-0.45 -10.17,-11.03 -15.801,8.42 c -1.313,-2.51 -2.864,-4.85 -4.633,-7.03 l 21.784,-17 c 5.44,7.93 9.12,17.14 10.59,27.09"
         style="fill:#ffffff;fill-opacity:1;fill-rule:nonzero;stroke:none"
         id="path4878" />
      <path
         d="m 885.488,4242.63 c 0,-17.96 7.282,-34.18 19.039,-45.96 l 0.02,-0.02 c 1.84,1.76 4.422,4.22 7.293,6.98 4.828,4.65 10.168,9.84 13.238,12.96 -9.57,7.56 -15.84,19.13 -15.84,32.27 0,9.19 3.121,17.59 8.192,24.45 l -1.774,1.45 -1.449,1.81 c -0.418,0.68 -0.891,1.5 -1.391,2.44 -1,1.86 -2.148,4.16 -3.25,6.42 -0.949,1.98 -1.828,3.86 -2.57,5.41 l -2.469,-2.25 c -11.757,-11.78 -19.039,-28 -19.039,-45.96"
         style="fill:#ffffff;fill-opacity:1;fill-rule:nonzero;stroke:none"
         id="path4880" />
    </g>
  </g>
</svg>
