<?xml version="1.0" encoding="UTF-8" standalone="no"?>
<!-- Created with Inkscape (http://www.inkscape.org/) -->

<svg
   version="1.1"
   id="svg2"
   width="42.212006"
   height="26.209352"
   viewBox="0 0 42.212005 26.209351"
   xmlns="http://www.w3.org/2000/svg"
   xmlns:svg="http://www.w3.org/2000/svg">
  <defs
     id="defs6" />
  <g
     id="g10"
     transform="matrix(1.3333333,0,0,-1.3333333,-154.45999,579.18395)">
    <g
       id="g12"
       transform="scale(0.1)">
      <path
         d="m 1353.14,4228.59 h -3.5391 v 12.5 h 3.5391 z m -4.92,0 h -3.5391 v 12.5 h 3.5391 z m -31.93,35.6 h -3.5391 v 12.5 h 3.5391 z m -4.92,0 h -3.543 v 12.5 h 3.543 z m 19.9,16.51 -0.16,0.68 h -6.86 l -3.75,10.94 c 0,0 -11.28,0.07 -24.41,0.36 l -6.86,-120.21 h 38.06 l 12.16,-2.33 9.46,0.25 v 19.66 c 0,3.81 3.09,6.89 6.9,6.89 3.8,0 6.9,-3.08 6.9,-6.89 v -19.29 l 12.94,0.34 -4.8,11.75 0.29,0.88 2.34,7 -7.48,81.5 -10.19,3.52 0.36,0.71"
         style="fill:#ffffff;fill-opacity:1;fill-rule:nonzero;stroke:none"
         id="path4882" />
      <path
         d="m 1376.59,4211.5 1.73,-18.8 13.74,-1.57 10.61,4.92 2.1,-4.54 -11.88,-5.5 -15.15,1.72 -1.56,-4.7 4.82,-11.78 72.46,1.93 -5.45,60.8 h -1.93 l -8.19,-13.99 3.18,-15.5 -4.38,-28.73 -15.8,1.44 -4.27,48.99 -5.97,3.1 -19.7,-22.57"
         style="fill:#ffffff;fill-opacity:1;fill-rule:nonzero;stroke:none"
         id="path4884" />
      <path
         d="m 1207.69,4246.15 h -3.543 v 12.5 h 3.543 z m 10.56,-30.66 10.18,-24.22 24.04,2.87 3.66,36.73 -26.95,12.29 -14.42,25.58 -4.89,-1.74 -12.15,0.61 -3.21,-46.41"
         style="fill:#ffffff;fill-opacity:1;fill-rule:nonzero;stroke:none"
         id="path4886" />
      <path
         d="m 1464.49,4154.82 -4.39,12.63 -2.04,0.87 -119.02,-3.19 -12.23,2.35 h -39.38 l -54.46,-2.35 -50.31,3.23 -13.82,-2.57 -1.66,-10.97"
         style="fill:#ffffff;fill-opacity:1;fill-rule:nonzero;stroke:none"
         id="path4888" />
      <path
         d="m 1259.46,4213.82 27.22,1.7 1.1,19.29 h -16.27 l -10.51,-5.45"
         style="fill:#ffffff;fill-opacity:1;fill-rule:nonzero;stroke:none"
         id="path4890" />
      <path
         d="m 1286.39,4210.5 -27.43,-1.71 -1.91,-19.13 -26.61,-3.19 6.79,-16.16 46.98,2.03"
         style="fill:#ffffff;fill-opacity:1;fill-rule:nonzero;stroke:none"
         id="path4892" />
      <path
         d="m 1192.55,4172.73 v 8.28 c 0,2.16 1.74,3.9 3.9,3.9 2.14,0 3.89,-1.74 3.89,-3.9 v -8.78 l 31.52,-2.02 -17.24,41.02 -20.82,5 -1.81,-0.73 -3.94,-1.57 -0.77,-40.86"
         style="fill:#ffffff;fill-opacity:1;fill-rule:nonzero;stroke:none"
         id="path4894" />
      <path
         d="m 1182.67,4168.35 50.29,-3.22 54.48,2.34 h 39.38 l 12.23,-2.34 119.02,3.18 2.03,-0.87 4.4,-12.63 h -297.32 l 1.66,10.97 z m 9.33,47.15 1.8,0.73 20.82,-5.01 17.24,-41.01 -31.51,2.02 v 8.78 c 0,2.15 -1.75,3.89 -3.9,3.89 -2.16,0 -3.9,-1.74 -3.9,-3.89 v -8.29 l -5.27,0.35 0.77,40.85 z m 95.79,19.31 -1.11,-19.29 -27.22,-1.7 1.55,15.53 10.51,5.46 z m -50.56,-64.5 -6.79,16.16 26.61,3.18 1.91,19.13 27.43,1.71 -2.18,-38.15 z m 128.77,101.92 7.48,-81.5 -2.34,-7 -0.29,-0.88 4.81,-11.75 -12.95,-0.34 v 19.29 c 0,3.81 -3.1,6.89 -6.91,6.89 -3.79,0 -6.89,-3.08 -6.89,-6.89 v -19.66 l -9.45,-0.25 -12.16,2.33 h -38.07 l 6.87,120.21 c 13.11,-0.29 24.4,-0.37 24.4,-0.37 l 3.75,-10.93 h 6.87 l 0.15,-0.68 24.91,-4.24 -0.38,-0.71 z m 50.63,-46.04 4.26,-48.99 15.8,-1.44 4.38,28.73 -3.18,15.5 8.2,13.99 h 1.92 l 5.45,-60.8 -72.45,-1.93 -4.82,11.78 1.56,4.69 15.14,-1.71 11.89,5.5 -2.1,4.54 -10.63,-4.92 -13.73,1.57 -1.72,18.8 14.35,-4.78 19.71,22.57 z m -206.75,40.81 4.88,1.74 14.42,-25.58 26.96,-12.29 -3.68,-36.73 -24.03,-2.87 -10.17,24.22 -23.74,5.71 3.21,46.41 z m 256.22,-93.97 -5.3,2.26 -5.93,66.19 h -13.08 l -11.83,-20.18 3.5,-17 -3.11,-20.43 -2.53,0.23 -4.09,46.84 -14.85,7.73 -20.29,-23.26 -9.04,3.01 -4.07,50.52 12.82,-4.44 -5.92,12.5 -18.13,15.31 -4.52,-8.85 -21.11,3.6 5.63,17.13 -18.75,16.56 0.94,23.13 -28.14,-29.69 -39.36,-19.69 c 5.45,-0.77 17,-1.28 28.63,-1.61 l -3.02,-50.58 h -14.87 l -9.61,-5 -25.55,11.66 -12.59,22.32 6.37,2.27 -9.36,17.5 -9.39,26.57 -16.25,-26.88 -20.92,-21.87 17.85,-0.9 -3.2,-46.39 -4.07,-1.63 -2.32,-0.92 -0.82,-43.59 -17.59,-3.26 -3.78,-24.88 h 4.37 312.22"
         style="fill:#231f20;fill-opacity:1;fill-rule:nonzero;stroke:none"
         id="path4896" />
      <path
         d="m 1344.68,4228.59 h 3.5391 v 12.5 h -3.5391 z"
         style="fill:#231f20;fill-opacity:1;fill-rule:nonzero;stroke:none"
         id="path4898" />
      <path
         d="m 1349.6,4228.59 h 3.5391 v 12.5 H 1349.6 Z"
         style="fill:#231f20;fill-opacity:1;fill-rule:nonzero;stroke:none"
         id="path4900" />
      <path
         d="m 1307.82,4264.19 h 3.5391 v 12.5 h -3.5391 z"
         style="fill:#231f20;fill-opacity:1;fill-rule:nonzero;stroke:none"
         id="path4902" />
      <path
         d="m 1312.74,4264.19 h 3.543 v 12.5 h -3.543 z"
         style="fill:#231f20;fill-opacity:1;fill-rule:nonzero;stroke:none"
         id="path4904" />
      <path
         d="m 1204.15,4246.15 h 3.543 v 12.5 h -3.543 z"
         style="fill:#231f20;fill-opacity:1;fill-rule:nonzero;stroke:none"
         id="path4906" />
    </g>
  </g>
</svg>
