<?xml version="1.0" encoding="UTF-8" standalone="no"?>
<!-- Created with Inkscape (http://www.inkscape.org/) -->

<svg
   version="1.1"
   id="svg2"
   width="10.952133"
   height="32.797333"
   viewBox="0 0 10.952133 32.797331"
   xmlns="http://www.w3.org/2000/svg"
   xmlns:svg="http://www.w3.org/2000/svg">
  <defs
     id="defs6" />
  <g
     id="g10"
     transform="matrix(1.3333333,0,0,-1.3333333,-20.411467,664.52133)">
    <g
       id="g12"
       transform="scale(0.1)">
      <path
         d="m 204.836,4790.58 0.25,0.9 c 1.066,3.91 2.5,9.61 3.937,16.72 2.872,14.23 5.743,34.1 5.743,56.56 0,13.38 -1.024,27.67 -3.653,42.24 -5.828,32.29 -8.75,48.43 -10.211,56.5 -1.078,5.97 -1.347,7.51 -1.429,7.92 l -0.09,0.32 -0.399,1.19 c -0.351,0.96 -0.91,2.15 -1.441,2.86 l -0.109,0.12 c -0.551,-1.95 -1.469,-5.29 -2.7,-10.08 -1.961,-7.61 -4.582,-18.39 -7.191,-31.03 -5.23,-25.26 -10.438,-57.98 -10.43,-87.46 -0.05,-22.55 3.18,-43.07 11.11,-56.76"
         style="fill:#ffffff;fill-opacity:1;fill-rule:nonzero;stroke:none"
         id="path4526" />
      <path
         d="m 215.715,4767.65 -44.992,-4.21 -0.86,-0.37 -3.281,-1.4 -0.551,-5.09 51.434,-3.2 v 12.53"
         style="fill:#ffffff;fill-opacity:1;fill-rule:nonzero;stroke:none"
         id="path4528" />
      <path
         d="m 224.219,4747.94 -59.059,3.69 -1.09,-0.73 -3.48,-2.33 v -3.14 h 64.418"
         style="fill:#ffffff;fill-opacity:1;fill-rule:nonzero;stroke:none"
         id="path4530" />
      <path
         d="m 215.508,4783.08 h -42.539 l -2.84,-7.18 1.648,-7.35 41.911,3.93"
         style="fill:#ffffff;fill-opacity:1;fill-rule:nonzero;stroke:none"
         id="path4532" />
      <path
         d="m 166.035,4756.58 0.551,5.09 3.277,1.4 0.864,0.37 44.988,4.21 1.75,-1.74 v -12.53 z m 21.5,178.22 c 2.621,12.64 5.238,23.43 7.199,31.04 1.231,4.79 2.153,8.12 2.7,10.08 l 0.113,-0.12 c 0.527,-0.72 1.09,-1.91 1.437,-2.86 l 0.403,-1.19 0.09,-0.33 c 0.078,-0.4 0.347,-1.95 1.429,-7.91 1.457,-8.07 4.379,-24.22 10.207,-56.51 2.633,-14.57 3.653,-28.86 3.653,-42.24 0,-22.46 -2.871,-42.33 -5.743,-56.55 -1.437,-7.11 -2.867,-12.82 -3.937,-16.72 l -0.25,-0.91 h -16.609 c -7.93,13.7 -11.161,34.21 -11.122,56.77 -0.011,29.47 5.211,62.19 10.43,87.45 m -17.41,-158.89 2.84,7.17 h 42.539 l -1.809,-10.6 -41.922,-3.92 z m -9.539,-27.33 3.488,2.32 1.082,0.73 59.059,-3.69 0.789,-2.51 h -64.418 z m 68.848,7.79 h -4.469 v 12.64 l -3.641,3.63 3.082,17.94 h -11.801 c 3.411,12.68 9.649,40.46 9.661,74.18 0,13.76 -1.039,28.5 -3.77,43.58 l -11.672,64.58 -0.019,0.12 -0.032,0.12 c -0.046,0.15 -0.558,2.31 -1.769,4.72 -0.609,1.21 -1.379,2.51 -2.551,3.7 -1.148,1.16 -2.949,2.33 -5.258,2.33 -1.949,0.01 -3.789,-0.87 -5.25,-2.14 l -0.84,-0.73 -0.308,-1.07 c -0.031,-0.17 -21.16,-72 -21.192,-132.62 0.032,-21.41 2.641,-41.44 10.161,-56.77 h -11.879 l -0.942,-2.36 -4.648,-11.7 1.758,-7.78 -2.442,-1.04 -2.027,-0.86 -1.141,-10.67 -3.691,-2.47 -1.668,-1.11 v -10.91 -3.75 h 82.141"
         style="fill:#231f20;fill-opacity:1;fill-rule:nonzero;stroke:none"
         id="path4534" />
    </g>
  </g>
</svg>
