<?xml version="1.0" encoding="UTF-8" standalone="no"?>
<!-- Created with Inkscape (http://www.inkscape.org/) -->

<svg
   version="1.1"
   id="svg2"
   width="13.442665"
   height="31.805361"
   viewBox="0 0 13.442665 31.805359"
   xmlns="http://www.w3.org/2000/svg"
   xmlns:svg="http://www.w3.org/2000/svg">
  <defs
     id="defs6" />
  <g
     id="g10"
     transform="matrix(1.3333333,0,0,-1.3333333,-24.780266,577.72399)">
    <g
       id="g12"
       transform="scale(0.1)">
      <path
         d="m 277.734,4202.49 -27.218,-4.14 -4.243,-7.29 -8.828,-7.12 c 0.059,-0.72 0.098,-1.62 0.098,-2.86 0,-2.89 -0.27,-7.3 -1.32,-13.56 -1.02,-6.18 -4.11,-9.91 -7.239,-11.75 l -2.14,-1.03 10.39,-18.35 c 1.411,0.86 3.102,1.95 4.852,3.31 4.117,3.1 7.949,7.49 8.379,10.91 0.508,3.2 0.699,6.63 0.699,9.76 0,4.7 -0.41,8.71 -0.609,10.37 l -0.102,0.83 -0.32,2.24 1.832,1.33 c 0,0 0.93,0.66 2.488,1.88 1.563,1.22 3.731,2.97 6.141,5.05 4.808,4.15 10.57,9.72 14.179,14.88 1.45,2.02 2.352,3.88 2.961,5.54"
         style="fill:#ffffff;fill-opacity:1;fill-rule:nonzero;stroke:none"
         id="path4810" />
      <path
         d="m 203.516,4168.07 c 17.129,-7.11 19.609,-8.34 19.832,-8.45 l 0.929,-0.47 2.129,0.9 c 1.942,1.21 4,3.32 4.879,8.3 1.02,6.03 1.262,10.16 1.262,12.74 0,2.24 -0.18,3.31 -0.199,3.41 l -0.321,1.49 10.387,8.39 4.992,8.55 24.551,3.74 c -2.062,0.56 -3.652,0.95 -3.66,0.95 l -2.602,0.62 -0.019,0.13 -50.012,-5.45 -17.758,1.36 -0.261,-0.08 c -1.438,-0.28 -2.719,-0.45 -3.86,-0.58 l -0.051,-0.4 c -0.187,-2.11 -0.386,-5.07 -0.386,-8.39 0,-5.24 0.507,-11.4 2.148,-16.45 1.649,-5.1 4.219,-8.75 8.02,-10.31"
         style="fill:#ffffff;fill-opacity:1;fill-rule:nonzero;stroke:none"
         id="path4812" />
      <path
         d="m 221.32,4242.37 h 3.53906 v -12.5 H 221.32 Z m -13.519,-33.84 7.789,-0.59 28.75,3.13 v 20.14 c 0,3.81 3.09,6.89 6.898,6.89 3.801,0 6.891,-3.08 6.891,-6.89 v -18.64 l 7.082,0.78 -3.582,37.22 c -21.68,3.04 -37.617,2.33 -48.539,0.63 -0.18,-0.87 -0.36,-1.64 -0.539,-2.58 -1.582,-8.04 -3.153,-18.43 -3.153,-27.51 0,-3.02 0.18,-5.9 0.563,-8.46 l 0.25,-1.64 -1.051,-1.29"
         style="fill:#ffffff;fill-opacity:1;fill-rule:nonzero;stroke:none"
         id="path4814" />
      <path
         d="m 193.352,4194.82 c 0,3.32 0.199,6.29 0.386,8.39 l 0.051,0.41 c 1.133,0.13 2.41,0.29 3.859,0.58 l 0.262,0.08 17.75,-1.35 50.012,5.44 0.019,-0.14 2.598,-0.61 c 0.012,0 1.602,-0.39 3.66,-0.94 l -24.551,-3.75 -4.988,-8.55 -10.39,-8.4 0.32,-1.48 c 0.019,-0.11 0.211,-1.16 0.211,-3.41 0,-2.59 -0.242,-6.71 -1.262,-12.73 -0.879,-4.99 -2.937,-7.09 -4.879,-8.31 l -2.129,-0.89 -0.929,0.46 c -0.223,0.11 -2.711,1.34 -19.832,8.45 -3.801,1.56 -6.372,5.21 -8.02,10.31 -1.641,5.05 -2.148,11.21 -2.148,16.44 m 16.609,17.82 c -0.383,2.57 -0.563,5.45 -0.563,8.47 0,9.07 1.571,19.46 3.153,27.52 0.179,0.92 0.359,1.69 0.539,2.57 10.922,1.69 26.859,2.42 48.539,-0.63 l 3.582,-37.23 -7.07,-0.77 v 18.64 c 0,3.81 -3.102,6.9 -6.903,6.9 -3.808,0 -6.898,-3.09 -6.898,-6.9 v -20.14 l -28.75,-3.12 -7.789,0.59 1.359,1.19 1.051,1.27 z m 50.641,-30.57 c -2.422,-2.07 -4.582,-3.82 -6.153,-5.04 -1.558,-1.23 -2.488,-1.89 -2.488,-1.89 l -1.82,-1.34 0.32,-2.23 0.098,-0.82 c 0.191,-1.66 0.601,-5.68 0.601,-10.37 0,-3.15 -0.18,-6.58 -0.691,-9.77 -0.43,-3.43 -4.27,-7.81 -8.391,-10.91 -1.75,-1.36 -3.437,-2.45 -4.84,-3.31 l -10.386,18.34 2.128,1.05 c 3.129,1.83 6.231,5.56 7.239,11.75 1.062,6.26 1.332,10.67 1.332,13.56 0,1.23 -0.051,2.14 -0.11,2.84 l 8.829,7.14 4.25,7.29 27.21,4.14 c -0.601,-1.66 -1.511,-3.52 -2.949,-5.54 -3.621,-5.17 -9.383,-10.73 -14.179,-14.89 m 24.867,27.27 -1.309,0.87 c -1.219,0.79 -2.43,1.25 -3.91,1.77 -2.52,0.9 -5.488,1.72 -7.602,2.27 l -3.367,35.09 c 5.5,-0.93 11.219,-2.04 17.391,-3.5 -13.344,26.68 -28.531,48.75 -28.531,48.75 l -2.012,17.93 h -0.027 l -2.793,20.41 -2.778,-20.41 h -20.922 l -2.789,20.41 -2.789,-20.41 h -0.07 l -1.461,-20 c 0,0 -15.422,-18.34 -28.328,-46.68 0,0 3.527,1.96 10.937,3.8 -1.597,-8.26 -3.187,-18.82 -3.211,-28.53 0,-2.56 0.243,-5.02 0.5,-7.43 l -1.628,-0.84 c -1.989,-0.81 -4.7,-1.36 -6.829,-1.66 -1.082,-0.13 -2.011,-0.22 -2.66,-0.27 l -0.992,-0.07 -3.109,-0.11 -0.469,-3.07 c -0.02,-0.12 -0.859,-5.61 -0.859,-12.84 0.007,-5.69 0.507,-12.48 2.5,-18.73 1.968,-6.18 5.648,-12.18 12.289,-14.95 8.539,-3.55 13.41,-5.62 16.148,-6.8 1.051,-0.46 1.723,-0.75 2.211,-0.97 l 15.328,-27.05 3.184,1.59 c 0.129,0.07 4.457,2.23 9.16,5.87 4.629,3.65 9.957,8.65 11.199,15.65 0.598,3.73 0.777,7.53 0.789,10.95 -0.012,4.3 -0.301,7.83 -0.519,10.01 2.539,1.95 7.539,5.93 12.648,10.82 3.621,3.47 7.281,7.38 10.133,11.43 2.808,4.07 5,8.27 5.058,12.89 l -0.218,2.27"
         style="fill:#231f20;fill-opacity:1;fill-rule:nonzero;stroke:none"
         id="path4816" />
      <path
         d="m 221.32,4229.87 h 3.53906 v 12.5 H 221.32 Z"
         style="fill:#231f20;fill-opacity:1;fill-rule:nonzero;stroke:none"
         id="path4818" />
      <path
         d="m 210,4098.14 c 7.711,-2.95 15.422,-3.62 23.129,-3.75 7.699,0.11 15.41,0.79 23.121,3.75 -7.711,2.97 -15.422,3.64 -23.121,3.75 -7.707,-0.12 -15.418,-0.8 -23.129,-3.75"
         style="fill:#231f20;fill-opacity:1;fill-rule:nonzero;stroke:none"
         id="path4820" />
    </g>
  </g>
</svg>
