<?xml version="1.0" encoding="UTF-8" standalone="no"?>
<!-- Created with Inkscape (http://www.inkscape.org/) -->

<svg
   version="1.1"
   id="svg2"
   width="46.394798"
   height="17.528015"
   viewBox="0 0 46.394798 17.528014"
   xmlns="http://www.w3.org/2000/svg"
   xmlns:svg="http://www.w3.org/2000/svg">
  <defs
     id="defs6" />
  <g
     id="g10"
     transform="matrix(1.3333333,0,0,-1.3333333,-63.169731,609.93462)">
    <g
       id="g12"
       transform="scale(0.1)">
      <path
         d="M 782.473,4524.63 H 512.902 l -0.543,-3.38 H 783.23 Z"
         style="fill:#ffffff;fill-opacity:1;fill-rule:nonzero;stroke:none"
         id="path4576" />
      <path
         d="m 782.961,4567 v -21.91 l 19.906,-87.96 h 9.703 l 1.61,37.79 c -0.742,1.9 -2.903,7.43 -4.422,11.05 -0.598,1.44 -1.168,2.69 -1.238,2.82 l 0.019,0.01 c -0.578,0.97 -0.648,1.6 -0.762,2.17 l -0.089,1.78 c 0.023,3.93 0.902,11.06 1.531,21.56 l 0.019,0.82 c 0.063,4.88 -2.648,12.21 -5.879,18.55 -2.961,5.88 -6.191,10.91 -7.8,13.32"
         style="fill:#ffffff;fill-opacity:1;fill-rule:nonzero;stroke:none"
         id="path4578" />
      <path
         d="m 660.781,4450.54 h 5.301 v 1.59 h -33.75 v -1.59 h 5.301"
         style="fill:#ffffff;fill-opacity:1;fill-rule:nonzero;stroke:none"
         id="path4580" />
      <path
         d="m 811.711,4510.75 -1.742,-1.17 v 0.01 l -1.379,-0.92 z"
         style="fill:#ffffff;fill-opacity:1;fill-rule:nonzero;stroke:none"
         id="path4582" />
      <path
         d="m 726.504,4503.34 v 12.91 h -95.328 v -33.09 l -6.41,-3.95 c 6.289,-5.87 11.207,-13.19 14.058,-21.51 l 0.211,-0.58 h 20.34 l 0.211,0.58 c 2.609,7.65 6.949,14.5 12.519,20.12 l -8.902,8.61 3.481,3.59 9.199,-8.9 c 8.711,7.27 19.742,11.78 31.953,12.1 l 2.738,7.87"
         style="fill:#ffffff;fill-opacity:1;fill-rule:nonzero;stroke:none"
         id="path4584" />
      <path
         d="m 753.27,4452.13 v -1.58 h 59.011 l 0.071,1.58 z"
         style="fill:#ffffff;fill-opacity:1;fill-rule:nonzero;stroke:none"
         id="path4586" />
      <path
         d="M 784.363,4516.25 H 731.504 V 4499 l -17.207,-2.43 -1.242,-3.54 c 13.371,-0.99 25.269,-6.89 33.949,-15.99 l 45.312,4.1"
         style="fill:#ffffff;fill-opacity:1;fill-rule:nonzero;stroke:none"
         id="path4588" />
      <path
         d="m 531.445,4482.95 -0.211,1.21 -1.531,8.39 -21.637,1.46 -5.832,-36.89 h 37.141 l 0.191,0.58 c 2.071,6.01 5.278,11.46 9.207,16.28"
         style="fill:#ffffff;fill-opacity:1;fill-rule:nonzero;stroke:none"
         id="path4590" />
      <path
         d="m 495.77,4450.54 h 49.371 v 1.59 h -61.989 l 0.071,-1.59"
         style="fill:#ffffff;fill-opacity:1;fill-rule:nonzero;stroke:none"
         id="path4592" />
      <path
         d="m 759.043,4457.13 h 38.699 l -4.32,19.1 -42.41,-3.85 c 3.32,-4.42 6,-9.34 7.82,-14.67"
         style="fill:#ffffff;fill-opacity:1;fill-rule:nonzero;stroke:none"
         id="path4594" />
      <path
         d="m 620.77,4482.63 5.402,3.33 v 30.29 H 511.57 l -2.718,-17.28 25.07,-1.69 0.359,-1.91 1.649,-9.11 16.203,-8.39 c 5.976,6.03 13.43,10.54 21.758,13.09 l -5.629,13.14 4.597,1.97 5.954,-13.89 c 3.367,0.68 6.808,1.15 10.386,1.15 11.922,0 22.813,-4.02 31.571,-10.7"
         style="fill:#ffffff;fill-opacity:1;fill-rule:nonzero;stroke:none"
         id="path4596" />
      <path
         d="M 778.867,4540.54 H 515.406 l -1.718,-10.91 h 267.648 z"
         style="fill:#ffffff;fill-opacity:1;fill-rule:nonzero;stroke:none"
         id="path4598" />
      <path
         d="m 493.547,4556.36 c -3.781,-6.91 -7.352,-15.64 -7.281,-21.23 l 0.019,-0.82 c 0.641,-10.51 1.52,-17.65 1.539,-21.56 l -0.097,-1.78 c -0.114,-0.57 -0.18,-1.2 -0.75,-2.17 l 0.019,-0.01 -0.051,-0.09 -0.25,-0.5 -0.769,-1.81 c -0.61,-1.44 -1.36,-3.3 -2.09,-5.1 -1.051,-2.65 -2.051,-5.18 -2.512,-6.38 l 1.61,-37.78 h 14.242 l 15.371,97.32 V 4567 h -12.594 l -1.25,-1.89 c -1.406,-2.2 -3.289,-5.27 -5.156,-8.75"
         style="fill:#ffffff;fill-opacity:1;fill-rule:nonzero;stroke:none"
         id="path4600" />
      <path
         d="m 480.676,4512.84 v -0.01 z m 312.75,-36.61 4.316,-19.1 h -38.699 l -0.207,0.57 c -1.82,5.34 -4.5,10.26 -7.82,14.68 z m -214.621,15.95 -5.942,13.89 -4.597,-1.97 5.617,-13.14 c -8.32,-2.55 -15.77,-7.06 -21.75,-13.09 l -16.207,8.39 -1.653,9.11 -0.347,1.91 -25.082,1.69 2.73,17.28 h 114.602 v -30.29 l -5.403,-3.33 c -8.757,6.68 -19.648,10.7 -31.57,10.7 -3.578,0 -7.027,-0.47 -10.398,-1.15 m -39.231,-34.48 -0.199,-0.57 h -37.141 l 5.829,36.88 21.64,-1.45 1.531,-8.4 0.211,-1.21 17.34,-8.97 c -3.941,-4.82 -7.152,-10.27 -9.211,-16.28 m 5.571,-5.57 v -1.58 h -4.372 -24.468 -20.532 -12.55 l -0.071,1.58 z m -32.59,114.88 v -12.57 l -15.379,-97.31 h -14.231 l -1.621,37.79 c 0.461,1.19 1.461,3.72 2.512,6.37 0.727,1.81 1.477,3.66 2.09,5.1 l 0.777,1.8 0.242,0.51 0.047,0.09 -0.019,0.01 c 0.57,0.98 0.64,1.6 0.75,2.18 l 0.101,1.77 c -0.019,3.92 -0.898,11.06 -1.531,21.56 l -0.02,0.83 c -0.078,5.59 3.493,14.31 7.27,21.22 1.871,3.48 3.75,6.55 5.16,8.75 l 1.25,1.9 z m 2.859,-26.46 h 263.449 l 2.473,-10.92 H 513.695 Z m -3.051,-19.3 0.539,3.38 h 269.571 l 0.761,-3.38 z m 200.692,-28.22 1.238,3.54 17.211,2.43 v 17.25 h 52.859 l 7.95,-35.1 -45.309,-4.12 c -8.68,9.12 -20.578,15.01 -33.949,16 m 96.179,42.11 -0.019,-0.82 c -0.629,-10.5 -1.512,-17.63 -1.531,-21.56 l 0.101,-1.78 c 0.11,-0.58 0.18,-1.2 0.75,-2.18 l -0.019,-0.01 c 0.078,-0.12 0.648,-1.37 1.238,-2.81 1.531,-3.63 3.68,-9.16 4.43,-11.06 l -1.621,-37.79 h -9.688 l -19.91,87.97 v 21.91 h 12.59 c 1.609,-2.42 4.847,-7.45 7.808,-13.33 3.231,-6.34 5.93,-13.67 5.871,-18.54 m 0.739,-25.55 1.742,1.17 -3.121,-2.09 z m -177.637,-57.46 h 33.75 v -1.582 h -33.75 z m 43.547,28.99 -9.199,8.91 -3.481,-3.6 8.902,-8.61 c -5.57,-5.61 -9.91,-12.47 -12.519,-20.12 l -0.211,-0.57 h -20.34 l -0.211,0.57 c -2.851,8.32 -7.769,15.65 -14.058,21.52 l 6.41,3.94 v 33.09 h 95.328 v -12.91 l -15.93,-2.25 -2.738,-7.87 c -12.211,-0.32 -23.242,-4.83 -31.953,-12.1 m 126.762,-30.57 h -23.43 -21.582 -4.36 v 1.58 h 59.082 l -0.07,-1.58 z m 18.808,46.35 c 0,0.01 -1.359,3.51 -2.82,7.18 -0.731,1.83 -1.5,3.71 -2.141,5.22 l -0.859,2 -0.418,0.8 -0.031,0.66 c -0.02,2.91 0.871,10.5 1.531,21.11 l 0.019,1.27 c -0.058,8.25 -4.211,17.33 -8.16,24.77 -3.98,7.39 -7.91,12.93 -7.969,13.01 l -1.121,1.59 h -24.019 v -26.46 h -255.41 v 26.46 h -24.032 l -1.121,-1.59 c -0.058,-0.08 -3.988,-5.62 -7.968,-13.01 -3.95,-7.44 -8.098,-16.52 -8.161,-24.77 l 0.032,-1.28 c 0.648,-10.61 1.531,-18.21 1.519,-21.11 l -0.031,-0.65 -0.418,-0.8 c -1.699,-3.76 -5.801,-14.35 -5.82,-14.4 l -0.282,-0.73 2.262,-53.12 h 19.738 20.532 24.468 8.122 3.75 v 17.18 h -3.84 c 7.308,15.12 22.5,25.61 40.398,25.6 17.902,0.01 33.09,-10.48 40.391,-25.6 h -1.008 -3.75 v -17.18 h 12.789 23.16 9.051 3.75 v 17.18 h -4.773 c 7.3,15.12 22.5,25.61 40.402,25.6 17.89,0.01 33.09,-10.48 40.39,-25.6 h -0.082 -3.75 v -17.18 h 11.86 21.582 23.43 13.238 3.59 l 2.261,53.12"
         style="fill:#231f20;fill-opacity:1;fill-rule:nonzero;stroke:none"
         id="path4602" />
    </g>
  </g>
</svg>
