<?xml version="1.0" encoding="UTF-8" standalone="no"?>
<!-- Created with Inkscape (http://www.inkscape.org/) -->

<svg
   version="1.1"
   id="svg2"
   width="32.169331"
   height="22.942629"
   viewBox="0 0 32.16933 22.942628"
   xmlns="http://www.w3.org/2000/svg"
   xmlns:svg="http://www.w3.org/2000/svg">
  <defs
     id="defs6" />
  <g
     id="g10"
     transform="matrix(1.3333333,0,0,-1.3333333,-28.8932,438.84001)">
    <g
       id="g12"
       transform="scale(0.1)">
      <path
         d="M 406.137,3192.93 H 395.68 c 8.578,-15.42 16.488,-29.63 24.386,-43.85 l 0.153,0.25 c -4.27,5.36 -8.762,10.56 -12.723,16.14 -4.058,5.71 -7.59,11.81 -12.098,18.92 -2.699,-3.55 -4.449,-5.84 -6.082,-7.98 8.012,-13.25 15.774,-25.66 23.024,-38.35 2.008,-3.53 2.476,-7.93 3.656,-11.94 l 0.301,-0.1 c -10.059,15.95 -20.109,31.91 -30.16,47.87 -1.328,-0.53 -2.66,-1.06 -3.989,-1.58 0.442,-2.79 0.141,-6.02 1.469,-8.3 5.02,-8.61 10.742,-16.82 15.852,-25.4 1.777,-2.99 2.539,-6.61 3.769,-9.94 -1.101,-0.53 -2.211,-1.08 -3.308,-1.62 -9.024,14.2 -18.043,28.4 -26.703,42.03 1.031,2.41 1.191,4.01 2,4.49 18.812,11.33 18.671,28.66 13.32,46.32 -4.43,14.6 -8.039,30.11 -21.25,42.11 -5.051,-10.73 -9.731,-20.67 -14.117,-30.01 5.976,-7.46 11.578,-14.42 18.687,-23.29 -8.687,-4.36 -15.187,-7.64 -24.48,-12.31 -9.809,-11.22 -21.797,-24.94 -35.469,-40.6 8.121,-2.19 13.988,-4.73 20.039,-5.23 19.461,-1.61 35.602,-11.05 51.691,-20.76 1.168,-0.71 1.711,-2.45 1.559,-5.58 -2.609,0.91 -5.43,1.45 -7.809,2.78 -15.339,8.6 -30.558,16.73 -48.871,18.07 -7.418,0.55 -14.5,5.75 -23.418,9.55 -9.312,-5.31 -20.41,-11.47 -31.312,-17.95 -10.527,-6.26 -20.289,-14.05 -32.109,-17.44 -0.641,1.11 -1.282,2.24 -1.918,3.36 3.097,2.09 6.089,4.37 9.32,6.25 20.008,11.59 40.348,22.65 59.957,34.88 6.223,3.88 10.473,10.85 15.742,16.29 3.617,3.72 7.438,7.23 11.168,10.83 l -0.09,0.63 -0.109,-0.95 c -16.949,-7.52 -33.961,-14.92 -50.82,-22.64 -3.879,-1.77 -7.258,-4.62 -11.848,-7.61 3.238,10.13 6.887,12.38 42.387,28.3 15.761,7.07 31.363,14.48 49.132,22.7 -6.531,7.02 -12.531,13.49 -18.339,19.74 5.57,11.37 11.148,22.79 17.128,35.03 -3.359,3.92 -6.609,7.72 -10.652,12.46 -9.289,-5.89 -18.297,-10.98 -26.527,-17.12 -3.231,-2.41 -5.102,-6.99 -6.891,-10.89 -3.32,-7.24 -6.23,-14.67 -9.129,-22.09 -11.261,-28.84 -31.429,-49.47 -55.961,-62.44 -7.929,-13.32 -14.179,-24.8 -21.429,-35.59 -3.461,-5.15 -8.7,-9.47 -16.11,-4.87 8.008,15.07 15.719,29.58 24.457,46.01 8.242,6.13 18.942,13.62 29.141,21.74 17.281,13.77 26.98,33.29 32.941,53.31 7.489,25.17 27.282,33.59 48.969,44.74 5.723,-5.16 11.641,-10.16 17.16,-15.55 11.821,-11.54 21.563,-24.25 26.629,-40.55 1.973,-6.32 7.863,-11.54 12.371,-16.92 3.301,-3.94 8.43,-6.72 10.723,-11.08 12.769,-24.37 24.949,-49.05 37.207,-73.66 1.012,-2.03 1.141,-4.48 1.672,-6.66 -9.129,-3.23 -15.981,1.2 -19.012,11.71 l -0.309,-0.17 c 0,0.97 -0.011,1.94 -0.011,2.91 l 0.312,-0.15 c -11.281,24.94 -22.011,50.2 -40.051,71.32 -1.878,-8.48 -1.832,-15.96 7.25,-19.68"
         style="fill:#231f20;fill-opacity:1;fill-rule:nonzero;stroke:none"
         id="path5546" />
      <path
         d="m 420.68,3141.86 c 2.449,-1.94 4.898,-3.88 7.347,-5.81 -0.359,-0.41 -0.718,-0.83 -1.078,-1.24 -2.07,2.4 -4.14,4.81 -6.219,7.22"
         style="fill:#231f20;fill-opacity:1;fill-rule:nonzero;stroke:none"
         id="path5548" />
      <path
         d="m 420.73,3142.02 c -0.167,2.43 -0.347,4.86 -0.519,7.3 l -0.141,-0.24 c 0.203,-2.41 0.403,-4.81 0.614,-7.23"
         style="fill:#231f20;fill-opacity:1;fill-rule:nonzero;stroke:none"
         id="path5550" />
      <path
         d="m 415.098,3177.13 c 0.129,0.1 0.261,0.21 0.39,0.3"
         style="fill:#231f20;fill-opacity:1;fill-rule:nonzero;stroke:none"
         id="path5552" />
      <path
         d="m 411.824,3179.38 c -0.527,1.6 -1.058,3.22 -1.597,4.83 l -0.301,-0.3 c 0.519,-1.61 1.039,-3.2 1.558,-4.8"
         style="fill:#231f20;fill-opacity:1;fill-rule:nonzero;stroke:none"
         id="path5554" />
      <path
         d="m 406.152,3192.82 c 0.11,-2.26 0.219,-4.52 0.328,-6.78 l 0.411,0.3 c -0.25,2.19 -0.508,4.39 -0.75,6.59"
         style="fill:#231f20;fill-opacity:1;fill-rule:nonzero;stroke:none"
         id="path5556" />
      <path
         d="m 411.484,3179.1 c 1.211,-0.65 2.411,-1.31 3.61,-1.97 l 0.39,0.3 c -1.218,0.64 -2.441,1.29 -3.66,1.95"
         style="fill:#231f20;fill-opacity:1;fill-rule:nonzero;stroke:none"
         id="path5558" />
      <path
         d="m 410.23,3184.22 c -1.113,0.7 -2.23,1.41 -3.339,2.12 l -0.411,-0.29 3.45,-2.14"
         style="fill:#231f20;fill-opacity:1;fill-rule:nonzero;stroke:none"
         id="path5560" />
      <path
         d="m 415.996,3126.13 0.942,0.21 -0.641,-0.32"
         style="fill:#231f20;fill-opacity:1;fill-rule:nonzero;stroke:none"
         id="path5562" />
      <path
         d="m 438.953,3138.59 c -0.258,0.59 -0.617,1.16 -0.75,1.77 -0.047,0.21 0.481,0.53 0.742,0.82 l -0.308,0.14 c 0.008,-0.96 0.008,-1.93 0.008,-2.91"
         style="fill:#231f20;fill-opacity:1;fill-rule:nonzero;stroke:none"
         id="path5564" />
    </g>
  </g>
</svg>
