<?xml version="1.0" encoding="UTF-8" standalone="no"?>
<!-- Created with Inkscape (http://www.inkscape.org/) -->

<svg
   version="1.1"
   id="svg2"
   width="24.449776"
   height="19.649353"
   viewBox="0 0 24.449776 19.649352"
   xmlns="http://www.w3.org/2000/svg"
   xmlns:svg="http://www.w3.org/2000/svg">
  <defs
     id="defs6" />
  <g
     id="g10"
     transform="matrix(1.3333333,0,0,-1.3333333,-109.55688,322.29734)">
    <g
       id="g12"
       transform="scale(0.1)">
      <path
         d="m 886.84,2363.69 c -4.5,-11.3 -1.617,-26.2 7.019,-33.58 2.43,-2.08 4.922,-7.36 9.481,-2.42 6.93,-6.7 11.262,-16.88 24.359,-15.86 -5.957,6.55 -11.918,13.1 -20.289,22.28 -2.359,6.9 -5.769,17.48 -9.609,27.89 -3.738,10.13 -6.84,20.8 -17.41,27.44 -0.211,-1.97 -0.692,-3.25 -0.379,-4.28 2.179,-7.18 4.527,-14.31 6.828,-21.47 m 89.121,-69.64 c 3.469,-7.42 6.941,-14.85 10.461,-22.35 -8.461,1.87 -12.063,7.67 -23.859,38.48 -2.243,0.18 -4.813,0.38 -9.372,0.73 6.219,-14.21 11.809,-26.98 17.399,-39.74 -0.949,-0.44 -1.891,-0.88 -2.828,-1.31 -9.371,11.8 -13.711,26.25 -19.102,40.44 -2.621,2.03 -5.398,4.2 -8.187,6.36 l -0.75,-0.5 0.988,0.42 c 0.148,-2.59 -0.25,-5.36 0.559,-7.72 3.742,-10.81 7.832,-21.52 12.293,-33.63 -7.981,5.43 -7.18,5.69 -9.43,13.19 -3.531,11.75 -8.043,23.23 -12.711,34.59 -0.801,1.94 -4.481,2.7 -9.192,5.32 4.981,-11.64 9.211,-20.06 12.2,-28.91 2.859,-8.5 4.453,-17.44 4.57,-27.02 -3.07,5.68 -6.129,11.38 -9.59,17.77 -2.48,-1.67 -4.289,-2.88 -6.148,-4.13 2.328,-4.59 4.418,-8.72 6.519,-12.86 -0.679,-0.49 -1.371,-0.96 -2.058,-1.45 -2.602,3.45 -5.203,6.91 -8.063,10.74 -8.949,-0.83 -12.16,-17.17 -26.5,-9.22 10.91,9.36 20.879,17.91 32.461,27.84 -14.91,6.13 -26.238,-0.03 -37.879,-4.26 -11.531,-4.18 -14.902,-19.12 -27.902,-21.22 10.121,18.58 25,31.07 48.39,35.48 -6.648,4.83 -11.078,8.06 -15.519,11.27 -8.852,6.41 -14.481,14.67 -15.25,25.88 -0.981,14.31 -1.66,28.65 -3.352,42.88 -0.597,5.01 -3.808,9.72 -5.82,14.56 -1.156,0.17 -2.309,0.33 -3.469,0.5 -4.949,-6.21 -9.898,-12.42 -14.64,-18.36 2.261,-4.66 3.429,-7.62 5.031,-10.31 3.449,-5.77 2.75,-10.76 -0.57,-16.72 -9.129,-16.39 -16.371,-33.6 -18.782,-53.61 3.672,0.37 6.891,0.69 10.582,1.06 7.321,-6.79 10.442,-15.27 11.508,-24.68 l -2.418,-1.55 c -3.66,5.53 -7.308,11.05 -11.73,17.73 -3.25,-2.09 -6.352,-4.1 -9.051,-5.84 -0.551,-6.52 -1.008,-11.97 -1.59,-19 -4.289,0.95 -7.437,1.63 -10.859,2.38 -3.481,34.96 8.039,65.17 23.48,94.54 -7.468,24.04 -5.308,29.51 18.961,45.41 30.309,-17.92 45.258,-46.75 53.25,-80.82 13.731,1.8 23.59,-3.01 30.469,-15.42 21.121,3.66 31.648,-9.85 41.09,-25.76 4.14,-6.98 10.082,-12.89 15.499,-19.66 -6.218,-5.18 -10.191,-3.06 -13.609,0.68 -5.378,5.89 -10.492,12.03 -15.718,18.07 -0.071,0.1 -0.141,0.22 -0.223,0.33 0.152,-0.2 0.301,-0.4 0.461,-0.6"
         style="fill:#231f20;fill-opacity:1;fill-rule:nonzero;stroke:none"
         id="path5934" />
      <path
         d="m 896.371,2341.69 c -1.699,4.2 -3.391,8.4 -5.09,12.6 1.699,-4.2 3.391,-8.4 5.09,-12.6"
         style="fill:#231f20;fill-opacity:1;fill-rule:nonzero;stroke:none"
         id="path5936" />
      <path
         d="m 891.602,2353.76 c -1.711,3.36 -3.43,6.73 -5.149,10.09 1.719,-3.36 3.438,-6.73 5.149,-10.09"
         style="fill:#231f20;fill-opacity:1;fill-rule:nonzero;stroke:none"
         id="path5938" />
      <path
         d="m 901.195,2332.14 c -1.711,3.37 -3.429,6.74 -5.148,10.1 1.719,-3.36 3.437,-6.73 5.148,-10.1"
         style="fill:#231f20;fill-opacity:1;fill-rule:nonzero;stroke:none"
         id="path5940" />
      <path
         d="m 903.563,2327.32 c -0.911,1.79 -1.821,3.56 -2.727,5.35 0.906,-1.78 1.816,-3.56 2.727,-5.35"
         style="fill:#231f20;fill-opacity:1;fill-rule:nonzero;stroke:none"
         id="path5942" />
    </g>
  </g>
</svg>
