<?xml version="1.0" encoding="UTF-8" standalone="no"?>
<!-- Created with Inkscape (http://www.inkscape.org/) -->

<svg
   version="1.1"
   id="svg2"
   width="29.709322"
   height="19.980591"
   viewBox="0 0 29.709322 19.98059"
   xmlns="http://www.w3.org/2000/svg"
   xmlns:svg="http://www.w3.org/2000/svg">
  <defs
     id="defs6" />
  <g
     id="g10"
     transform="matrix(1.3333333,0,0,-1.3333333,-31.077608,404.7512)">
    <g
       id="g12"
       transform="scale(0.1)">
      <path
         d="m 351.313,2921.89 c -4.18,7.32 -7.848,13.73 -11.598,20.28 -7.57,-3.42 -3.801,-7.56 -2.332,-11.23 2.219,-5.55 4.121,-11.73 13.93,-9.05 m 22.71,61.9 c 1.891,-7.49 3.258,-15.16 5.77,-22.44 4.871,-14.12 10.391,-28.01 15.648,-42.01 l 0.211,0.29 c -2.718,3.72 -5.57,7.33 -8.121,11.16 -2.547,3.8 -4.789,7.78 -7.168,11.69 -3.91,12.11 -7.808,24.21 -11.718,36.29 -1.043,-0.38 -2.082,-0.76 -3.114,-1.14 4.211,-11.96 7.121,-24.42 15.071,-34.95 0.711,-4.83 1.429,-9.67 2.16,-14.5 l 0.312,0.18 c -2.691,2.68 -5.383,5.35 -8.07,8.02 v 1.39 c 0,0.01 -0.082,-0.61 -0.152,-1.23 0.07,-1.28 0.14,-2.58 0.211,-3.86 -0.879,-0.26 -1.75,-0.54 -2.629,-0.79 -4.711,11.43 -9.422,22.88 -14.243,34.57 -5.628,-4.94 -5.929,-6.19 -3.578,-13.19 2.852,-8.51 5.739,-17.01 8.61,-25.52 l 0.211,0.35 c -4.02,7.36 -8.039,14.74 -12.493,22.88 -2.597,-2.84 -4.386,-4.78 -6.507,-7.11 3.828,-7.19 7.507,-14.09 11.168,-20.95 4.281,0.22 8.113,0.42 10.98,0.56 7.711,-5.94 14.539,-11.2 21.371,-16.46 0.469,-2.02 0.949,-4.06 1.43,-6.08 0.18,0.02 0.359,0.06 0.539,0.09 -0.277,0.08 -0.559,0.15 -0.84,0.22 -0.48,1.82 -0.949,3.68 -1.43,5.51 -0.73,4.79 -1.449,9.59 -2.179,14.38 l -0.309,-0.3 c 5.109,-9.77 10.231,-19.52 15.52,-29.61 -6.871,-2.64 -11.411,0.84 -15.813,5.79 -6.058,6.8 -12.488,13.28 -18.406,19.53 -5.152,-0.42 -9.113,-0.75 -13.543,-1.11 -6.57,-8.84 -10.551,-20.32 -23.84,-26.3 -0.519,11.91 11.383,15.38 12.289,22.48 -5.617,9.84 -10.629,18.64 -16.207,28.41 -1.422,-0.07 -4.051,-0.21 -6.312,-0.33 -20.481,-33.27 -37.95,-49.58 -53.707,-48.78 20.218,15.46 36.707,32.81 48.269,54.11 10.188,4.47 23.52,-0.61 31.078,12.13 -0.219,3.36 -0.488,7.64 -0.777,12.14 4.879,2.33 9.769,4.65 14.238,6.77 3.93,17.75 -5.539,31.64 -8.75,48.84 -21.601,-14.77 -34.301,-34.59 -48.711,-53.68 -0.66,-5.75 -1.39,-12.04 -2.269,-19.69 -8.578,-2.77 -17.149,-5.56 -26.461,-8.56 -9.707,-19.11 -19.559,-38.47 -29.09,-57.2 -8.84,0.6 -11.168,4.06 -8.617,9.7 7.879,17.47 15.66,35 24.578,51.95 2.25,4.26 8.332,6.94 13.172,9.26 4.168,2.01 9.09,2.45 14.297,3.75 0.543,6.09 1.019,11.54 1.5,17.02 -0.457,0.45 -0.93,0.9 -1.399,1.36 15.32,16.66 30.059,33.95 46.168,49.82 12.211,12.03 29.672,7.91 37.332,-7.52 3.36,-6.78 5.551,-14.16 9.141,-20.78 4.699,-8.65 10.57,-16.64 15.359,-25.25 4.219,-7.58 7.649,-15.61 12.231,-25.11 16.238,1.02 22.757,-11.62 29.039,-25.25 4.148,-9.02 9.871,-17.29 14.922,-25.89 1.726,-2.97 3.527,-5.89 5.507,-9.2 -6.64,-4.41 -10.531,-1.73 -14.16,2.52 -2.769,3.25 -5.679,6.38 -8.527,9.57 -0.942,1.32 -1.883,2.66 -2.82,4 -0.571,2.16 -1.141,4.3 -1.704,6.46 -0.136,0.07 -0.277,0.15 -0.418,0.23 0.219,-0.19 0.43,-0.38 0.649,-0.57 l 1.621,-5.87 c 0.969,-1.34 1.941,-2.69 2.898,-4.05 0.461,-3.39 0.911,-6.79 1.372,-10.18 l -1.532,-0.96 c -2.058,3.26 -4.527,6.35 -6.097,9.84 -4.571,10.17 -8.539,20.6 -13.25,30.69 -1.61,3.44 -4.75,6.16 -7.192,9.2 -1.199,-0.7 -2.398,-1.39 -3.597,-2.1 6.988,-15.05 13.976,-30.1 20.968,-45.15 -0.75,-0.39 -1.5,-0.79 -2.25,-1.16 -2.14,3.48 -4.691,6.8 -6.359,10.5 -9.281,20.64 -17.941,41.56 -27.731,61.94 -3.339,6.98 -9.332,12.66 -14.109,18.96 -1.101,1.22 -2.199,2.45 -3.301,3.69 -0.57,2.08 -1.148,4.17 -1.73,6.26 -0.828,2.17 -1.668,4.33 -2.5,6.49 -0.512,2.03 -1.031,4.08 -1.551,6.12 -2.098,3.23 -4.211,6.46 -6.309,9.69 -0.058,0.7 -0.109,1.38 -0.16,2.1 -0.019,0 -0.031,0 -0.039,-0.01 0.047,-0.6 0.098,-1.21 0.141,-1.8 2.168,-3.27 4.328,-6.54 6.488,-9.8 l 1.762,-6.02 c 0.797,-2.18 1.609,-4.34 2.406,-6.5 0.563,-2.06 1.121,-4.12 1.684,-6.2 1.16,-1.24 2.308,-2.49 3.468,-3.74"
         style="fill:#231f20;fill-opacity:1;fill-rule:nonzero;stroke:none"
         id="path5908" />
      <path
         d="m 395.438,2919.34 c 2.992,-6.64 5.992,-13.28 8.992,-19.92 l 0.23,0.21 c -3,6.67 -6,13.33 -9.012,20"
         style="fill:#231f20;fill-opacity:1;fill-rule:nonzero;stroke:none"
         id="path5910" />
      <path
         d="m 404.43,2899.41 c 2.429,-2.34 4.859,-4.68 7.289,-7.02 -0.942,-0.68 -1.871,-1.34 -2.809,-1.98 l -4.25,9.22"
         style="fill:#231f20;fill-opacity:1;fill-rule:nonzero;stroke:none"
         id="path5912" />
      <path
         d="m 382.758,2928.18 c 0.801,-2.45 1.601,-4.91 2.402,-7.34 l 0.309,0.3 c -0.789,2.41 -1.59,4.81 -2.391,7.22"
         style="fill:#231f20;fill-opacity:1;fill-rule:nonzero;stroke:none"
         id="path5914" />
      <path
         d="m 363.223,2927.75 0.66,0.41 -0.449,-0.07"
         style="fill:#231f20;fill-opacity:1;fill-rule:nonzero;stroke:none"
         id="path5916" />
    </g>
  </g>
</svg>
