<?xml version="1.0" encoding="UTF-8" standalone="no"?>
<!-- John Grümph
     https://legrumph.org/Terrier/public/chibi/de-chorographia
     CC BY-NC 3.0
     https://creativecommons.org/licenses/by-nc/3.0/fr/ -->
<!-- Created with Inkscape (http://www.inkscape.org/) -->

<svg
   version="1.1"
   id="svg2"
   width="25.078674"
   height="22.697329"
   viewBox="0 0 25.078674 22.697328"
   xmlns="http://www.w3.org/2000/svg"
   xmlns:svg="http://www.w3.org/2000/svg">
  <defs
     id="defs6" />
  <g
     id="g10"
     transform="matrix(1.3333333,0,0,-1.3333333,-254.75733,438.59471)">
    <g
       id="g12"
       transform="scale(0.1)">
      <path
         d="m 1972.89,3209.51 c -1.33,0.46 -2.66,0.91 -3.98,1.37 -1.54,-4.39 -3.09,-8.77 -4.62,-13.16 6.44,2.44 12.5,4.89 8.6,11.79 m 37.79,-27.75 c 0.51,-14.43 1.91,-16.03 11.03,-14.98 -3.88,5.28 -7.46,10.13 -11.03,14.98 m 22.04,45.21 c -0.25,10.57 -1.68,19.77 -10.12,28.16 -0.02,-11.4 0.43,-20.94 10.12,-28.16 m 0.48,-64.11 0.06,-0.62 -0.37,0.36 c -5.85,16.53 -9.59,20.98 -17.24,20.4 3.17,-5.06 5.95,-10.36 9.59,-14.96 1.86,-2.36 5.26,-3.5 7.96,-5.18 m -8.29,94.59 c 0.2,0.07 0.4,0.14 0.6,0.19 -0.3,0.03 -0.58,0.06 -0.87,0.08 2.37,7.57 0.14,13.85 -5.44,21.27 -2.47,-9.84 2.48,-15.44 5.71,-21.54 m 21.7,-59.71 c 0.09,0.08 0.19,0.16 0.28,0.25 0.61,-0.53 1.21,-1.07 0.29,-0.25 z m -15.96,-3.9 c -2.05,-2.59 -4.1,-5.19 -5.14,-6.5 11.24,-22.59 21.68,-43.56 32.16,-64.61 h -13.39 c -5.34,9.52 -1.99,23.86 -13.26,31.32 -3.74,2.48 -8.68,3.12 -12.67,4.46 -10.67,-12.13 -11.26,-29.79 -26.86,-39.28 -1.26,9.93 5.28,14.6 7.91,20.77 2.65,6.23 5.74,12.27 9.3,19.79 -2.26,4.97 -4.96,10.92 -7.66,16.87 -0.89,0.37 -1.78,0.75 -2.67,1.12 -11.5,-24.47 -30.33,-41.57 -52.49,-55.29 -0.47,-0.29 -1.91,0.98 -4.65,2.47 6.52,5.57 12.29,10.69 18.27,15.55 8.98,7.28 18.72,13.8 23.54,24.97 5.25,12.18 14.28,19.8 27.14,23.11 3.41,0.88 6.67,2.39 11.1,4.04 -2.38,25.28 -4.75,50.42 -7.11,75.55 -0.61,-0.01 -1.23,-0.01 -1.84,-0.02 -8.72,-23.76 -17.44,-47.51 -25.68,-69.97 -9.8,-6.53 -18.08,-12.05 -28.03,-18.68 0.33,-26.4 -18.8,-41.3 -40.93,-55.18 -0.3,0.05 -1.89,0.08 -3.32,0.58 -1.48,0.52 -2.79,1.49 -3.69,2 0.91,2.66 0.96,4.12 1.72,4.81 6.22,5.58 12.35,11.32 18.96,16.43 6.56,5.09 11.09,11 12.99,19.32 3.01,13.2 6.68,26.27 10.24,39.34 2.76,10.12 5.54,12.57 17.88,16.14 2.71,-1.94 5.86,-4.19 10.63,-7.59 6,18.18 12.3,35.69 17.5,53.53 4.39,15 4.93,16.26 21.2,20.57 7.76,-2.44 8.91,-9.75 10.49,-16.07 5.05,-20.08 9.48,-40.33 14.54,-62.16 12.59,-1.24 15.22,-11.79 17.84,-23.3 4.11,-18.02 10.54,-35.08 24.98,-48.05 3.89,-3.49 6.13,-8.81 9.12,-13.29 -0.55,-0.93 -1.09,-1.85 -1.64,-2.77 -5.69,1.11 -11.37,2.21 -15.86,3.08 -5.05,7.78 -9.71,14.64 -14.06,21.71 -3.11,5.06 -5.93,10.32 -8.67,15.6 -6.23,11.96 -12.35,23.96 -18.47,35.97 -3.06,6.04 -5.82,12.23 -9.1,18.15 -1.33,2.39 -3.68,4.22 -5.57,6.31 l 0.32,0.74 0.01,-0.58 c -1.98,-10.92 0.61,-21.17 4.68,-31.2"
         style="fill:#231f20;fill-opacity:1;fill-rule:nonzero;stroke:none"
         id="path5016" />
      <path
         d="m 2062.16,3136.52 c -1.82,1.82 -4.24,3.32 -5.36,5.5 -8.85,17.21 -17.46,34.53 -26.14,51.82 l -0.24,-0.23 c 1.89,-1.77 4.45,-3.2 5.56,-5.36 8.81,-17.23 17.33,-34.61 25.94,-51.93"
         style="fill:#231f20;fill-opacity:1;fill-rule:nonzero;stroke:none"
         id="path5018" />
      <path
         d="m 2061.91,3136.32 c 1.63,-3.11 3.25,-6.2 4.88,-9.31 l -2.54,-0.85 c -0.7,3.46 -1.39,6.92 -2.1,10.37"
         style="fill:#231f20;fill-opacity:1;fill-rule:nonzero;stroke:none"
         id="path5020" />
    </g>
  </g>
</svg>
