<?xml version="1.0" encoding="UTF-8" standalone="no"?>
<!-- Created with Inkscape (http://www.inkscape.org/) -->

<svg
   version="1.1"
   id="svg2"
   width="33.0513"
   height="23.273378"
   viewBox="0 0 33.0513 23.273377"
   xmlns="http://www.w3.org/2000/svg"
   xmlns:svg="http://www.w3.org/2000/svg">
  <defs
     id="defs6" />
  <g
     id="g10"
     transform="matrix(1.3333333,0,0,-1.3333333,-198.68799,257.52134)">
    <g
       id="g12"
       transform="scale(0.1)">
      <path
         d="m 1561.84,1788.08 c -0.13,-0.33 -0.25,-0.67 -0.38,-1.01 0.7,-0.14 1.4,-0.28 4.49,-0.9 -2.9,1.34 -3.5,1.63 -4.11,1.91 m -13.36,22.52 c 4.71,-5.37 9.41,-10.75 15.34,-17.53 -0.39,13.73 -3.79,17.9 -15.34,17.53 m 39.88,59.57 c 4.3,-7.52 8.53,-14.89 12.78,-22.28 -0.88,-0.49 -1.75,-1 -2.62,-1.5 -3.81,4.13 -7.61,8.26 -11.99,13.01 -8.42,-16.9 -16.35,-32.82 -23.46,-47.11 2.53,-10.05 4.73,-18.74 7.21,-28.52 11.04,6.56 22.22,13.17 33.95,20.13 2.18,6.65 3.68,13.77 6.82,20.08 2.86,5.72 6.45,12.1 11.52,15.5 15.07,10.11 25.14,22.98 28.18,42.14 -5.99,12.65 -12.36,26.06 -18.68,39.39 -28.93,-13.4 -41.7,-28.77 -43.71,-50.84 m 39.6,-57.27 c 0.56,-1.84 1.11,-3.69 1.68,-5.53 1.99,-12.36 8.66,-22.09 17.18,-30.8 0.06,-0.95 0.11,-1.9 0.03,-0.61 0.91,-1 0.29,-0.31 -0.33,0.37 -5.72,10.29 -11.41,20.56 -17.13,30.83 -0.57,1.83 -1.16,3.65 -1.75,5.47 -1.25,2.32 -2.5,4.62 -3.76,6.93 -0.81,-2.1 -0.51,-3.73 0.42,-4.79 0.86,-0.96 2.41,-1.27 3.66,-1.87 m -72.12,-17.43 c -0.98,1.02 -1.97,2.02 -2.95,3.04 -3.71,4.38 -7.43,8.77 -11.13,13.14 0.86,-8.84 1.56,-9.55 11.1,-12.94 1.08,-1.07 2.15,-2.15 3.23,-3.24 z m 117.93,-18.14 c -8.18,14.24 -16.47,28.42 -24.47,42.75 -3.05,5.45 -5.48,11.24 -8.61,17.78 -3.12,-2.25 -5.14,-3.72 -7.23,-5.24 9.68,-20.05 19.05,-39.42 28.42,-58.81 -0.75,-0.33 -1.5,-0.67 -2.24,-1.01 l -8.68,10.4 -1.76,5.53 c -0.72,1.74 -1.41,3.49 -2.13,5.24 -0.71,1.74 -1.43,3.48 -2.14,5.21 -0.79,1.55 -1.55,3.09 -2.32,4.64 -4.22,8.02 -8.45,16.05 -12.65,24.06 -0.68,-0.38 -1.36,-0.77 -2.05,-1.16 4.21,-8.01 5.19,-17.95 14.75,-22.79 -0.18,-1.03 -0.36,-2.04 -0.57,-3.2 1,-0.48 1.91,-0.93 2.82,-1.37 0.75,-1.71 1.53,-3.41 2.3,-5.11 0.74,-1.76 1.48,-3.51 2.22,-5.26 0.59,-1.87 1.19,-3.73 1.78,-5.61 -0.37,-4.28 -0.73,-8.57 -1.37,-15.93 -3.9,3.48 -6.74,5.03 -8.13,7.42 -7,12.07 -13.6,24.35 -21.25,38.2 -2.11,-4.2 -3.73,-7.42 -5.23,-10.39 4.29,-7.84 8.21,-15.04 12.13,-22.23 -0.79,-0.51 -1.58,-1.02 -2.38,-1.54 -4.22,5.81 -8.46,11.61 -13.41,18.41 -3.52,-1.88 -7.25,-3.83 -10.94,-5.84 -14.37,-7.84 -28.61,-15.93 -43.17,-23.41 -4.66,-2.39 -10.12,-3.2 -16.66,-5.17 1.32,11.96 11.74,12.39 16.52,19.58 -7.06,6.45 -14.27,13.03 -22.34,20.41 -5.88,-8.42 -11.09,-16.31 -16.73,-23.86 -4.77,-6.4 -9.82,-12.62 -15.2,-18.52 -3.92,-4.3 -8.57,-4.91 -12.89,-1.25 15.52,21.86 30.45,42.92 46.04,64.88 5.73,-0.55 11.96,-1.16 19.66,-1.91 1.43,3.02 3.15,6.43 4.68,9.91 1.76,4.03 2.56,8.73 5.16,12.06 9.35,11.96 10.26,26.51 13.71,40.34 1.41,5.64 3.16,12.3 7.09,15.98 12.14,11.37 25.43,21.52 36.75,30.89 12.35,-1.12 17.63,-7.13 21.82,-14.9 3.32,-6.15 7.23,-12 12.18,-20.13 3.01,-9.12 6.87,-20.8 10.71,-32.48 0.8,0.48 1.59,0.95 2.38,1.43 5.89,-6.82 12.59,-13.11 17.51,-20.56 11.91,-18.1 24.16,-35.62 41.33,-49.41 9.09,-7.31 9.8,-11.5 8.18,-21.72 -14.4,1.65 -13.25,21.33 -27.85,22.97 2.78,-6.65 5.45,-13.03 8.42,-20.1 -7.32,-1.57 -7.7,4.35 -9.68,8 -10.7,19.62 -21.11,39.42 -32.06,58.89 -2.23,3.93 -6.43,6.73 -9.73,10.05 -0.93,0.63 -1.85,1.25 -2.78,1.87 -0.93,0.65 -1.86,1.3 -2.79,1.95 -1.3,0.81 -2.61,1.63 -3.93,2.45 0.07,0.61 0.13,1.2 0.15,1.35 0.02,-0.17 0.08,-0.8 0.14,-1.43 1.3,-0.72 2.6,-1.43 3.89,-2.16 0.93,-0.7 1.89,-1.41 2.82,-2.12 0.95,-0.63 1.89,-1.25 2.83,-1.88 1.15,-3.45 1.83,-7.15 3.53,-10.29 9.48,-17.48 19.52,-34.67 28.73,-52.3 3.33,-6.38 4.9,-13.7 5.55,-21.34 -13.53,30.3 -30.64,58.26 -48.98,86.7 -1.8,-2.41 -2.82,-3.52 -3.53,-4.81 -0.75,-1.37 -1.23,-2.89 -1.93,-4.61 12.61,-20.17 26.87,-39.51 32.23,-63.33 l 0.25,0.21 c -6.2,10.37 -12.19,20.85 -18.64,31.05 -5.62,8.89 -11.75,17.45 -17.65,26.15 l -0.46,0.29 0.68,0.01 c 4.82,-11.15 9.72,-22.27 14.44,-33.47 4.29,-10.18 8.38,-20.44 12.56,-30.67"
         style="fill:#231f20;fill-opacity:1;fill-rule:nonzero;stroke:none"
         id="path6788" />
      <path
         d="m 1682.38,1783.5 c 1.54,-3.6 3.08,-7.22 4.62,-10.83 -0.84,-0.21 -1.69,-0.41 -2.53,-0.63 -0.62,3.9 -1.23,7.79 -1.84,11.67"
         style="fill:#231f20;fill-opacity:1;fill-rule:nonzero;stroke:none"
         id="path6790" />
      <path
         d="m 1673.57,1777.07 c 0.25,-1.61 0.52,-3.23 0.77,-4.84 h -1.36 l 0.79,5.09"
         style="fill:#231f20;fill-opacity:1;fill-rule:nonzero;stroke:none"
         id="path6792" />
      <path
         d="m 1618.52,1859.89 c -3.41,4.81 -6.84,9.63 -11.73,16.54 10.91,-3.44 11.91,-4.79 11.73,-16.54"
         style="fill:#231f20;fill-opacity:1;fill-rule:nonzero;stroke:none"
         id="path6794" />
    </g>
  </g>
</svg>
