<?xml version="1.0" encoding="UTF-8" standalone="no"?>
<!-- John Grümph
     https://legrumph.org/Terrier/public/chibi/de-chorographia
     CC BY-NC 3.0
     https://creativecommons.org/licenses/by-nc/3.0/fr/ -->
<!-- Created with Inkscape (http://www.inkscape.org/) -->

<svg
   version="1.1"
   id="svg2"
   width="33.258667"
   height="20.887207"
   viewBox="0 0 33.258667 20.887206"
   xmlns="http://www.w3.org/2000/svg"
   xmlns:svg="http://www.w3.org/2000/svg">
  <defs
     id="defs6" />
  <g
     id="g10"
     transform="matrix(1.3333333,0,0,-1.3333333,-315,468.52531)">
    <g
       id="g12"
       transform="scale(0.1)">
      <path
         d="m 2538.94,3485.33 c -2.8,-18.52 -5.44,-36.12 -8.08,-53.63 4.09,-5.76 7.87,-11.11 12.28,-17.34 10.12,24.96 10.41,48.73 5.55,73.78 -3.42,-0.98 -6.66,-1.92 -9.75,-2.81 m 53.95,-94.31 0.46,-0.2 -0.76,0.14 c -0.07,0.67 -0.14,1.31 -0.06,0.53 -0.48,0.62 -0.07,0.08 0.36,-0.47 m -75.36,15.68 c -3.48,7.28 -7.07,14.51 -10.4,21.85 -4.06,8.94 -7.92,17.97 -11.86,26.96 -0.99,-0.28 -1.97,-0.54 -2.95,-0.81 v -18.07 c -1.29,-1.97 -3.39,-5.19 -6.55,-10.04 4.26,-4.91 7.96,-10.62 13,-14.65 11.07,-8.84 18.65,-19.68 21.66,-33.44 0.89,-4.08 0.14,-8.52 0.14,-12.99 -6.46,-1.59 -8.86,1.07 -9,6.48 -0.45,15.46 -7.44,27.14 -19.69,36.39 -4.62,3.5 -7.9,8.78 -11.78,13.25 -8.72,-4.78 -8.96,-5.92 -4.42,-21.55 6.64,-5.07 18.14,-2.04 22.12,-14.62 -8.66,-9.16 -17.82,-18.66 -28.69,-26.22 -1.15,1.14 -2.27,2.25 -3.4,3.39 8.05,8.12 16.11,16.25 25.27,25.47 -8.09,2.89 -15.02,5.37 -21.84,7.81 -22.89,-8.12 -46.57,-13.5 -64.68,-30.8 -1.78,-1.72 -5.01,-1.93 -8.27,-1.29 16.66,24.62 44.57,29.34 69.79,39.49 v 19.18 c 5.97,4.9 11.47,9.42 16.39,13.47 3.25,26.47 1.74,44.42 -4.98,60 -9.88,-0.89 -10.02,-9.49 -10.91,-15.82 -2.62,-18.55 -9.43,-35.44 -18.07,-51.75 -2.41,-4.55 -5.27,-8.86 -8.03,-13.46 h -14.92 c -10.37,-12.15 -20.48,-24.51 -31.18,-36.3 -6.14,-6.77 -12.98,-13 -20.09,-18.72 -4.99,-4 -5.44,-3.44 -11.69,1.77 18.87,21.37 37.73,42.76 56.77,64.34 h 12.5 c 16.84,21.79 21.73,48.66 27.85,75.36 6.97,4.22 13.72,8.33 20.67,12.56 16.35,-5.5 27.15,-15.83 31.38,-32.15 2.19,-8.48 2.97,-17.31 4.61,-25.93 0.54,-2.86 1.77,-5.6 4.7,-8.09 2.78,15.59 5.56,31.18 8.48,47.51 10.39,3.27 20.16,6.35 28.86,9.1 10.22,-4.36 11.89,-12.44 12.96,-20.32 2.02,-15.04 4.11,-30.16 4.64,-45.3 0.33,-9.62 3.83,-16.92 10.03,-23.48 3.57,-3.76 7.19,-7.52 11.16,-10.86 13.84,-11.65 9.35,-28.17 14.83,-44.94 -6.67,2.17 -9.91,3.22 -12.78,4.15 -3.03,8.22 -5.09,16.02 -8.68,23.01 -5.09,9.84 -10.95,19.34 -17.16,28.52 -5.31,7.85 -8.48,15.82 -8.82,25.53 -0.57,16.15 -2.43,32.27 -3.74,48.39 -1.08,-0.05 -2.15,-0.1 -3.22,-0.14 0,-5.96 -0.68,-12.02 0.13,-17.87 2.27,-16.54 0.31,-32.53 -3.85,-48.6 -1.36,-5.26 -0.55,-11.81 1.34,-17.01 3.11,-8.58 8.23,-16.41 11.91,-24.82 2.16,-5 3.16,-10.51 4.7,-15.81 -0.82,-0.22 -1.65,-0.44 -2.48,-0.65 -6.54,13.7 -13.08,27.39 -19.61,41.09 -1.05,-0.3 -2.11,-0.61 -3.16,-0.92 -7.41,-13.85 10.85,-24.14 7.68,-38.24 -14.04,19.3 -12.63,45.02 -30.33,64.14 1.08,-25.21 13.49,-44.27 21.52,-64.71 -0.98,-0.41 -1.96,-0.83 -2.93,-1.25 -5.55,13.47 -11.79,26.7 -16.44,40.47 -4.56,13.54 -5.92,28.28 -16.48,39.24 -0.81,0.82 -1.78,1.47 -2.68,2.19 -1.88,11.37 -1.82,23.36 -10.5,32.54 l -0.08,-0.16 c 1.76,0.39 3.51,0.78 5.66,1.26 -2.16,8.89 -6.35,15.42 -15.01,19.24 2.42,-30.44 5.32,-37.94 20.19,-52.66 3.41,-13.33 6.82,-26.65 10.23,-39.97"
         style="fill:#231f20;fill-opacity:1;fill-rule:nonzero;stroke:none"
         id="path5838" />
      <path
         d="m 2588.88,3361.16 c -6.24,12.51 -11.35,22.47 -16.2,32.57 -4.79,9.95 -9.31,20.02 -13.99,30.15 1.03,0.04 2.25,0.36 2.4,0.07 8.89,-15.95 17.95,-31.82 26.31,-48.07 1.76,-3.42 0.92,-8.19 1.48,-14.72"
         style="fill:#231f20;fill-opacity:1;fill-rule:nonzero;stroke:none"
         id="path5840" />
      <path
         d="m 2517.35,3406.45 c 2.85,-5.64 5.39,-11.47 8.63,-16.88 5.3,-8.82 7.02,-14.17 5.8,-24.77 -1.65,15.11 -17.38,25.05 -14.25,41.9"
         style="fill:#231f20;fill-opacity:1;fill-rule:nonzero;stroke:none"
         id="path5842" />
      <path
         d="m 2497.41,3427.49 c -0.37,0.46 -0.74,0.93 -0.96,1.2 0.15,-0.35 0.39,-0.93 0.63,-1.5"
         style="fill:#231f20;fill-opacity:1;fill-rule:nonzero;stroke:none"
         id="path5844" />
      <path
         d="m 2497.08,3427.19 c 0.57,-0.62 1.13,-1.22 0.57,-0.62 0.21,-0.78 -0.01,0.07 -0.24,0.92"
         style="fill:#231f20;fill-opacity:1;fill-rule:nonzero;stroke:none"
         id="path5846" />
      <path
         d="m 2495.43,3485.68 c 0.28,-2.36 0.57,-4.73 0.84,-7.11 l 0.09,0.16 -0.65,6.68"
         style="fill:#231f20;fill-opacity:1;fill-rule:nonzero;stroke:none"
         id="path5848" />
      <path
         d="m 2495.71,3485.41 c -0.3,0.04 -0.61,0.08 -0.92,0.11 0.21,0.06 0.42,0.11 0.63,0.16"
         style="fill:#231f20;fill-opacity:1;fill-rule:nonzero;stroke:none"
         id="path5850" />
    </g>
  </g>
</svg>
