<?xml version="1.0" encoding="UTF-8" standalone="no"?>
<!-- John Grümph
     https://legrumph.org/Terrier/public/chibi/de-chorographia
     CC BY-NC 3.0
     https://creativecommons.org/licenses/by-nc/3.0/fr/ -->
<!-- Created with Inkscape (http://www.inkscape.org/) -->

<svg
   version="1.1"
   id="svg2"
   width="27.057327"
   height="21.632141"
   viewBox="0 0 27.057327 21.63214"
   xmlns="http://www.w3.org/2000/svg"
   xmlns:svg="http://www.w3.org/2000/svg">
  <defs
     id="defs6" />
  <g
     id="g10"
     transform="matrix(1.3333333,0,0,-1.3333333,-185.44,437.52928)">
    <g
       id="g12"
       transform="scale(0.1)">
      <path
         d="m 1508.49,3176.39 c -1.18,0.04 -2.35,0.09 -3.53,0.13 -0.75,-3.43 -1.49,-6.86 -2.31,-10.64 4.62,-1.72 8.03,-2.99 13.19,-4.91 -3.04,6.38 -5.2,10.9 -7.35,15.42 m 26.15,-47.83 c -6.14,22.39 -11.85,43.24 -18.06,65.89 -2.63,-4.83 -4.45,-8.17 -6.11,-11.22 8.6,-18.11 8.21,-39.13 24.17,-54.67 m -46.83,66.42 c -3.08,-0.21 -6.6,-0.45 -10.11,-0.69 -24,-26.76 -48.18,-53.3 -79.83,-73.66 -2.52,1.8 -5.09,3.61 -7.07,5.02 27.92,26.69 54.9,52.48 81.88,78.27 -0.44,0.6 -0.89,1.21 -1.34,1.83 3.46,0.43 6.92,0.85 9.85,1.23 13.19,14.53 12.63,33.63 18.42,50.88 12.99,7.77 25.97,15.53 39.48,23.61 11.27,-5.85 20.7,-12.71 22.51,-26.06 2.83,-20.93 5.31,-41.92 8.11,-64.29 15.49,-3.79 16.4,-18.47 19,-31.5 2.47,-12.38 3.34,-25.08 5.02,-38.48 -6.57,-1.83 -9.84,2.25 -11,8.09 -1.86,9.38 -2.86,18.92 -4.41,28.35 -0.96,5.89 -1.94,11.81 -3.58,17.52 -0.61,2.16 -3.08,3.8 -5.64,5.2 -1.37,-20.52 8.03,-38.68 10.05,-58.3 -15.5,44.16 -24.27,90.06 -36.66,135.02 1,0.28 1.98,0.56 2.97,0.84 0.98,-3.72 1.88,-7.46 2.96,-11.14 1.07,-3.65 2.32,-7.24 4.48,-10.51 0.47,11.34 2.52,23.12 -10.52,32.51 0,-14.34 0.66,-26.89 -0.16,-39.35 -1.18,-18.05 5.28,-34.19 10.46,-50.84 5.46,-17.52 9.85,-35.37 14.58,-53.11 0.32,-1.17 -0.41,-2.61 -2.07,-3.98 -8.7,29.62 -17.39,59.23 -26.49,90.26 -3.67,-2.13 -6.44,-3.75 -9.71,-5.64 2.79,-10.57 5.37,-20.41 7.97,-30.26 -0.77,-0.24 -1.54,-0.48 -2.31,-0.73 -3.34,9.02 -6.68,18.03 -10.43,28.13 -4.97,-11.4 11.49,-70.67 21.69,-79.12 -1.29,10.95 -2.47,20.97 -3.65,30.99 0.42,0.1 0.83,0.19 1.24,0.28 2.88,-11.25 5.75,-22.5 8.63,-33.77 -12.45,-4.85 -20.12,-2.37 -27.22,9.06 -4.43,7.12 -8.53,14.45 -13.2,21.42 -1.97,2.95 -5.01,5.19 -8.16,8.34 -5.25,-15.49 -16.03,-29.44 -29.64,-38.84 -1.07,8.08 5.31,11.33 9.06,15.57 12.06,13.63 12.23,13.49 13.53,33.47 -27.42,-7.51 -40.68,-34.1 -64.86,-48.6 5.07,15.29 42.09,45.74 68.67,57.83 4.25,7.38 7.71,16.34 13.72,22.99 5.98,6.63 14.51,10.95 22.44,16.67 v 44.86 c -17.5,-2.6 -28.8,-13.42 -31.57,-29.69 -2.7,-15.8 -7.15,-26.23 -17.09,-39.68"
         style="fill:#231f20;fill-opacity:1;fill-rule:nonzero;stroke:none"
         id="path5002" />
    </g>
  </g>
</svg>
