<?xml version="1.0" encoding="UTF-8" standalone="no"?>
<!-- John Grümph
     https://legrumph.org/Terrier/public/chibi/de-chorographia
     CC BY-NC 3.0
     https://creativecommons.org/licenses/by-nc/3.0/fr/ -->
<!-- Created with Inkscape (http://www.inkscape.org/) -->

<svg
   version="1.1"
   id="svg2"
   width="30.463989"
   height="20.080505"
   viewBox="0 0 30.463989 20.080505"
   xmlns="http://www.w3.org/2000/svg"
   xmlns:svg="http://www.w3.org/2000/svg">
  <defs
     id="defs6" />
  <g
     id="g10"
     transform="matrix(1.3333333,0,0,-1.3333333,-328.81333,322.72849)">
    <g
       id="g12"
       transform="scale(0.1)">
      <path
         d="m 2599.11,2344.05 c -0.7,0.18 -1.4,0.34 -2.1,0.52 -0.96,-3.23 -1.91,-6.44 -3.17,-10.69 3.86,-0.84 6.51,-1.41 10.05,-2.17 -1.96,5.08 -3.37,8.72 -4.78,12.34 m 26.84,-36.56 c 0.85,1.17 1.69,2.35 3.28,4.56 4.09,-8.62 7.69,-16.26 10.84,-22.92 7,-3.34 12.86,-6.13 18.72,-8.93 l -0.2,0.25 c -2.11,-5.45 -6.14,-4.02 -9.93,-2.61 -5.18,1.93 -10.27,4.11 -15.04,6.04 -3.91,-3.11 -7.32,-5.84 -10.73,-8.57 l -3.34,1.8 c 1.48,7.34 2.96,14.68 4.61,22.87 -2.59,2.36 -5.47,4.99 -8.39,7.66 -13.93,-8.84 -27.43,-17.43 -40.92,-26.01 -0.67,0.91 -1.33,1.8 -1.99,2.71 9.97,15.54 30.37,19.84 41.03,36.27 -9.14,3.48 -17.86,6.77 -26.52,10.05 -9.53,-2.23 -14.78,-8.16 -18.68,-16.94 -7.96,-17.92 -25.81,-22.47 -40.4,-31.33 -0.85,1.24 -1.7,2.49 -2.55,3.72 5.53,3.61 10.92,7.48 16.63,10.8 9.83,5.72 17.31,12.41 21.91,23.9 3.16,7.91 12.52,13.34 19.11,19.87 0.73,-0.61 1.45,-1.23 2.18,-1.84 1.16,3.29 2.34,6.59 3.57,10.07 8.28,4.2 16.44,8.34 26.32,13.36 -1.55,13.78 -3.19,28.19 -5.01,44.27 -5.93,-2.8 -9.76,-4.59 -14.22,-6.7 -4.52,-12.66 -9.34,-25.32 -13.53,-38.2 -2.63,-8.09 -7.22,-12.05 -15.92,-13.78 -9.89,-1.97 -19.27,-6.52 -27.18,-9.36 -9.68,-28.04 -31.77,-52.03 -48.16,-50.86 7.9,8.42 14.69,15.66 23.45,24.99 -19.7,-2.36 -29.95,-20.56 -46.95,-21.84 -0.61,1.09 -1.23,2.17 -1.84,3.26 2.53,2.1 4.92,4.4 7.63,6.25 6.59,4.51 13.4,8.72 19.98,13.24 8,5.46 16.24,8.64 27.08,2.34 2.55,6.6 6.35,12.28 6.69,18.17 0.7,12.41 8.81,17.36 18.39,20.95 7.02,2.63 14.57,3.93 22.39,5.95 4.65,12.73 9.59,25.34 13.88,38.16 5.02,15 18.34,18.54 30.93,20.96 11.66,2.22 20.39,-5.23 26.18,-15.36 3.73,-6.55 7.23,-13.25 10.71,-19.65 1.02,-0.49 1.72,-1.13 2.43,-1.15 25.05,-0.51 25.55,-9.53 28.54,-27.18 3.99,-23.58 8.46,-47.05 12.69,-70.59 0.48,-2.68 0.64,-5.41 0.96,-8.3 -7.09,-3.77 -9.47,0.52 -11.99,5.5 -1.61,3.18 -4.2,5.88 -6.33,8.8 v -0.3 c 0.86,1.7 2.65,3.52 2.43,5.05 -3.46,23.17 -7.14,46.29 -10.83,69.42 -0.24,1.53 -0.87,2.99 -1.24,4.21 -1.04,0.61 -1.76,1.43 -2.37,1.34 -16.84,-2.16 -25.47,6.57 -30.77,21.52 -2.5,7.07 -5.84,15.28 -17.07,14.96 2.12,-17.64 4.18,-34.85 6.3,-52.48 -3.48,-1.55 -6.2,-2.75 -10.53,-4.66 2.71,-7.11 5.44,-14.27 8.16,-21.43 -0.56,-0.25 -1.11,-0.52 -1.66,-0.79 -3.07,6.27 -6.13,12.54 -9.6,19.67 -1.73,-0.56 -3.75,-1.2 -7.21,-2.31 2.71,-6.32 5.11,-11.98 6.84,-16.03 6.36,-3.7 10.96,-6.38 16.17,-9.41 -2.38,-3.81 -3.99,-6.41 -5.92,-9.52 2.55,-1.43 4.9,-2.75 7.24,-4.08 0.12,-0.12 0.24,-0.23 0.35,-0.34 -0.19,0.18 -0.41,0.35 -0.6,0.53"
         style="fill:#231f20;fill-opacity:1;fill-rule:nonzero;stroke:none"
         id="path5780" />
      <path
         d="m 2647.86,2335.68 c 2.82,-5.5 6.09,-10.82 8.37,-16.54 5.87,-14.71 11.33,-29.55 16.86,-44.39 0.49,-1.3 0.29,-2.86 0.46,-4.89 -6.18,4.16 -20.38,41.91 -25.44,66.12"
         style="fill:#231f20;fill-opacity:1;fill-rule:nonzero;stroke:none"
         id="path5782" />
      <path
         d="m 2623.98,2398.26 c 4.98,-10.85 9.97,-21.71 14.95,-32.56 -0.91,-0.37 -1.84,-0.74 -2.75,-1.1 -5.86,10.58 -10.29,21.72 -11.91,33.95"
         style="fill:#231f20;fill-opacity:1;fill-rule:nonzero;stroke:none"
         id="path5784" />
      <path
         d="m 2676.25,2292.14 c -0.09,0.67 -0.2,1.35 0,-0.02 v -0.27"
         style="fill:#231f20;fill-opacity:1;fill-rule:nonzero;stroke:none"
         id="path5786" />
      <path
         d="m 2624.28,2398.55 c -0.46,0.43 -0.91,0.87 -0.53,0.5 -0.12,0.41 0.05,-0.18 0.23,-0.78"
         style="fill:#231f20;fill-opacity:1;fill-rule:nonzero;stroke:none"
         id="path5788" />
      <path
         d="m 2648.11,2335.98 c -0.27,0.54 -0.56,1.08 -0.66,1.3 0.07,-0.29 0.23,-0.94 0.41,-1.59"
         style="fill:#231f20;fill-opacity:1;fill-rule:nonzero;stroke:none"
         id="path5790" />
      <path
         d="m 2664.1,2329.52 -0.31,-0.69 -0.21,0.75"
         style="fill:#231f20;fill-opacity:1;fill-rule:nonzero;stroke:none"
         id="path5792" />
      <path
         d="m 2647.71,2365.25 c -0.1,-0.02 -0.21,-0.05 -0.3,-0.07"
         style="fill:#231f20;fill-opacity:1;fill-rule:nonzero;stroke:none"
         id="path5794" />
      <path
         d="m 2650.64,2362.93 c -0.98,0.77 -1.94,1.54 -2.93,2.32 l -0.3,-0.07 c 1.16,-0.79 2.34,-1.59 3.5,-2.37"
         style="fill:#231f20;fill-opacity:1;fill-rule:nonzero;stroke:none"
         id="path5796" />
      <path
         d="m 2650.91,2362.81 c -0.05,-0.22 -0.1,-0.45 -0.15,-0.68 -0.04,0.26 -0.07,0.52 -0.11,0.8"
         style="fill:#231f20;fill-opacity:1;fill-rule:nonzero;stroke:none"
         id="path5798" />
      <path
         d="m 2658.79,2280.21 c -0.18,0.21 -0.36,0.41 -0.54,0.62 0.12,-0.12 0.23,-0.25 0.33,-0.38"
         style="fill:#231f20;fill-opacity:1;fill-rule:nonzero;stroke:none"
         id="path5800" />
    </g>
  </g>
</svg>
