<?xml version="1.0" encoding="UTF-8" standalone="no"?>
<!-- Created with Inkscape (http://www.inkscape.org/) -->

<svg
   version="1.1"
   id="svg2"
   width="19.799637"
   height="15.778687"
   viewBox="0 0 19.799637 15.778687"
   xmlns="http://www.w3.org/2000/svg"
   xmlns:svg="http://www.w3.org/2000/svg">
  <defs
     id="defs6" />
  <g
     id="g10"
     transform="matrix(1.3333333,0,0,-1.3333333,-182.14569,375.83336)">
    <g
       id="g12"
       transform="scale(0.1)">
      <path
         d="m 1444.57,2743.2 c 0.72,0.62 1.44,1.26 2.15,1.91 -2.95,5.21 -5.9,10.41 -9.83,17.34 -1.96,-4.72 -2.94,-7.06 -4.01,-9.65 4.29,-3.53 7.99,-6.57 11.69,-9.6 m 26.9,6.43 c 4.59,-19.33 10.3,-29.29 20.93,-37.06 -4.17,23.97 -10.64,36 -20.93,37.06 m -52.78,-13.95 c -1.01,0.71 -2.03,1.41 -3.05,2.12 9.18,22.97 21.4,44.9 28.08,70.63 -5.26,-1.16 -8.23,-1.8 -10.48,-2.3 -9.49,-21.2 -18.9,-41.38 -27.37,-61.95 -1.45,-3.52 -0.15,-9.57 2.13,-12.91 4.14,-6.09 9.98,-11.02 16.03,-17.39 7.49,5.39 15.6,11.21 24.68,17.76 -7.16,5.93 -12.58,10.41 -17.73,14.66 -4.69,-4.05 -8.49,-7.34 -12.29,-10.62 m 52.45,-5.34 c 0.15,0.04 0.3,0.05 0.44,0.09 l -0.77,0.23 c -2.12,20.64 -11.87,37.7 -24.17,53.54 -0.9,-0.45 -1.81,-0.9 -2.71,-1.34 9.07,-17.5 18.14,-35 27.21,-52.52 m -12.36,7.62 c 0.18,0.04 0.37,0.09 0.55,0.13 -0.27,-0.13 -0.55,-0.27 -0.82,-0.41 -2.72,13.66 -9.98,25.2 -16.99,36.84 -1.29,-15.59 6.58,-26.75 17.26,-36.56 m 27.44,9.86 c 5.19,-15.16 10.38,-30.28 15.93,-46.5 h -12.71 c -10.63,10.84 -20.26,20.66 -29.88,30.48 1.15,-12.64 11.39,-19.82 16.39,-29.94 -0.68,-0.48 -1.36,-0.97 -2.04,-1.45 -6.05,7.55 -12.1,15.09 -18.49,23.05 -8.15,-7.66 5.18,-11.03 2.27,-18.64 -3.12,4.38 -5.88,8.27 -9.86,13.86 -3.74,-4.89 -5.57,-7.29 -7.49,-9.79 -6.54,-2.01 -13.83,-4.26 -20.11,-6.21 -6.46,9.23 -13.57,16.61 -17.28,25.41 -3.76,8.93 -4.12,19.29 -6.07,29 -0.8,4.02 -1.85,8 -2.78,12 l -2.67,0.25 c -1.33,-2.57 -3.1,-5 -3.93,-7.71 -4.71,-15.67 -9.16,-31.4 -13.82,-47.06 -1.04,-3.5 -2.59,-6.84 -5.65,-9.8 -5,12.55 0.93,23.68 3.76,35.03 2.98,11.93 6.68,23.7 10.24,36.13 5.09,0.73 10.1,1.46 16.23,2.32 2.44,-4 4.84,-7.93 8.01,-13.14 6.95,16.84 13.58,32.93 20.59,49.91 6.35,1.12 12.88,2.27 21.19,3.73 2.23,-5.73 5.02,-10.5 5.92,-15.62 3.42,-19.43 7.95,-29.04 22.37,-44.24 4.99,-0.55 10.51,-1.16 17.22,-1.89 12.97,-14.11 19.36,-31.34 21.03,-50.89 -8.79,-2.84 -9.43,3.18 -11.11,7.85 -3.34,9.34 -6.46,18.77 -10.09,27.99 -1.03,2.6 -3.55,4.62 -5.38,6.91 -0.6,-0.34 -1.19,-0.7 -1.79,-1.04"
         style="fill:#231f20;fill-opacity:1;fill-rule:nonzero;stroke:none"
         id="path5004" />
    </g>
  </g>
</svg>
