<?xml version="1.0" encoding="UTF-8" standalone="no"?>
<!-- John Grümph
     https://legrumph.org/Terrier/public/chibi/de-chorographia
     CC BY-NC 3.0
     https://creativecommons.org/licenses/by-nc/3.0/fr/ -->
<!-- Created with Inkscape (http://www.inkscape.org/) -->

<svg
   version="1.1"
   id="svg2"
   width="29.82399"
   height="17.178711"
   viewBox="0 0 29.82399 17.17871"
   xmlns="http://www.w3.org/2000/svg"
   xmlns:svg="http://www.w3.org/2000/svg">
  <defs
     id="defs6" />
  <g
     id="g10"
     transform="matrix(1.3333333,0,0,-1.3333333,-182.80133,350.41337)">
    <g
       id="g12"
       transform="scale(0.1)">
      <path
         d="m 1455.63,2574.09 c -0.9,-0.28 -1.8,-0.58 -2.7,-0.86 1.19,-3.8 2.39,-7.6 3.58,-11.41 0.85,0.28 1.69,0.54 2.54,0.81 -1.14,3.81 -2.28,7.64 -3.42,11.46 m 33.15,-26.45 c -2.08,-3.35 -3.13,-5.06 -4.55,-7.36 3.55,-1.35 6.19,-2.34 11.07,-4.19 -2.64,4.67 -4.03,7.13 -6.52,11.55 m -54.16,56.24 c 1.14,-16.84 9.25,-31.25 16.59,-45.97 -4.71,15.61 -4.15,33.05 -16.59,45.97 m 110.8,-88.96 c -4.35,9.04 -8.71,18.09 -13.05,27.14 -5.74,11.99 -11.48,23.99 -17.87,37.36 -5.5,-7.46 -9.55,-12.97 -13.35,-18.13 2.24,-5.27 4.08,-9.57 5.92,-13.88 -2.9,3.09 -5.8,6.16 -10.41,11.06 -0.76,-5.25 -2.72,-9.37 -1.43,-11.48 6.6,-10.67 12.18,-22.42 24.46,-30.19 -4.74,11.3 -8.89,21.18 -13.04,31.06 8.14,-14.77 16.27,-29.53 24.43,-44.34 -7.5,-5.89 -9.75,-0.08 -12.38,3.17 -8.66,10.7 -18.4,19.99 -31.16,25.62 -1.78,0.78 -3.72,1.2 -4.56,1.47 -15.99,-15.75 -34.41,-25.53 -53.62,-33.99 -0.64,0.96 -1.27,1.91 -1.91,2.85 2.27,1.75 4.41,3.74 6.85,5.2 10.62,6.36 21.4,12.46 31.97,18.9 2.63,1.6 6.04,3.74 6.78,6.3 4.34,15.23 18.12,22.94 26.76,34.69 2.59,3.52 5.66,6.67 8.26,9.69 v 37.05 c -0.92,0.41 -1.84,0.81 -2.76,1.22 -5.82,-10.37 -11.64,-20.74 -16.73,-29.81 -9.73,-4.61 -19.71,7.18 -27.2,-4.16 1.98,-8.41 4.02,-17.07 6.28,-26.68 -19.41,-6.36 -29.68,-20.05 -38.31,-35.83 -3.15,-5.76 -8.53,-10.6 -13.72,-14.86 -3.23,-2.66 -7.99,-3.46 -12.06,-5.09 -0.44,0.82 -0.88,1.64 -1.32,2.46 13.92,17.6 27.84,35.22 42.4,53.64 -4.21,10.78 -8.81,22.54 -14.39,36.79 -0.63,-8.98 -1.09,-15.47 -1.57,-22.46 -23.81,-14.42 -28.37,-43.49 -48.16,-62.94 -2.41,1.5 -5.12,3.18 -9.52,5.91 17.37,20.83 24.11,47.32 46.51,63.45 2.36,13.2 -3.74,29.35 12.59,39.63 14.81,0.98 16.41,-14.26 23.8,-21.25 8.94,0.67 17.41,1.33 27.66,2.11 4.4,8.28 9.6,18.03 15.11,28.39 5.92,1.01 11.71,2 18.26,3.11 17.34,-18.6 26.27,-40.99 33.34,-64.16 20.76,-7.83 42.46,-32.29 46.41,-52.56 -3.16,-1.2 -6.41,-2.42 -10.95,-4.12 -5.66,10.65 -11.36,21.38 -17.07,32.12 -0.17,-0.03 -0.34,-0.06 -0.5,-0.08 0.28,-0.07 0.55,-0.15 0.83,-0.24 1.95,-9.15 3.91,-18.29 5.86,-27.43 -0.62,-0.28 -1.25,-0.55 -1.88,-0.81 -0.9,2.09 -1.87,4.15 -2.68,6.28 -3.36,8.87 -6.27,17.96 -10.19,26.58 -1.49,3.26 -5.28,5.49 -9.51,9.65 -1.1,-6.33 -1.71,-9.75 -2.31,-13.18 l 0.3,-0.3 c -5.54,12.26 -11.13,24.48 -16.59,36.76 -5.43,12.19 -10.75,24.42 -17.2,36.44 -1.29,-11.77 -2.61,-22.77 4.23,-34.42 10.02,-17.08 17.77,-35.5 26.18,-53.49 1.45,-3.1 1.34,-6.95 1.94,-10.44"
         style="fill:#231f20;fill-opacity:1;fill-rule:nonzero;stroke:none"
         id="path5566" />
      <path
         d="m 1515.96,2565.32 c 7.49,-16.78 14.98,-33.56 22.47,-50.34 -1.06,-0.49 -2.12,-0.97 -3.18,-1.46 -7.48,16.91 -14.95,33.81 -22.43,50.72 1.05,0.36 2.09,0.72 3.14,1.08"
         style="fill:#231f20;fill-opacity:1;fill-rule:nonzero;stroke:none"
         id="path5568" />
      <path
         d="m 1551.25,2532.94 c 3.04,-8.54 6.07,-17.09 9.13,-25.64 -1,-0.32 -1.99,-0.64 -2.97,-0.96 l -8.34,25.93 c 0.73,0.22 1.45,0.45 2.18,0.67"
         style="fill:#231f20;fill-opacity:1;fill-rule:nonzero;stroke:none"
         id="path5570" />
      <path
         d="m 1545.15,2514.7 1.64,-3.49 c -0.46,-0.11 -0.91,-0.23 -1.37,-0.35 v 4.06"
         style="fill:#231f20;fill-opacity:1;fill-rule:nonzero;stroke:none"
         id="path5572" />
      <path
         d="m 1546.29,2540.16 c 0.3,-0.05 0.59,-0.11 0.87,-0.17 -0.19,-0.04 -0.37,-0.08 -0.57,-0.13"
         style="fill:#231f20;fill-opacity:1;fill-rule:nonzero;stroke:none"
         id="path5574" />
    </g>
  </g>
</svg>
