<?xml version="1.0" encoding="UTF-8" standalone="no"?>
<!-- John Grümph
     https://legrumph.org/Terrier/public/chibi/de-chorographia
     CC BY-NC 3.0
     https://creativecommons.org/licenses/by-nc/3.0/fr/ -->
<!-- Created with Inkscape (http://www.inkscape.org/) -->

<svg
   version="1.1"
   id="svg2"
   width="31.566666"
   height="21.885925"
   viewBox="0 0 31.566666 21.885924"
   xmlns="http://www.w3.org/2000/svg"
   xmlns:svg="http://www.w3.org/2000/svg">
  <defs
     id="defs6" />
  <g
     id="g10"
     transform="matrix(1.3333333,0,0,-1.3333333,-94.33693,290.31467)">
    <g
       id="g12"
       transform="scale(0.1)">
      <path
         d="m 884.629,2081.44 -0.301,0.8 -0.269,-0.81 z m -108.578,-9.68 -1.41,-1.81 c 5.289,-4.75 10.578,-9.51 15.859,-14.25 0.688,0.53 1.367,1.07 2.051,1.61 -1.934,4.08 -3.863,8.15 -5.774,12.18 -3.949,0.84 -7.339,1.55 -10.726,2.27 m 27.66,-25.65 c -0.922,15.38 -3.691,20.3 -13.203,23.07 4.953,-8.67 9.082,-15.87 13.203,-23.07 m 74.68,46.24 c -3.141,8.25 -0.391,19.15 -11.633,24.39 v -15.45 c 3.672,-2.82 7.652,-5.89 11.633,-8.94 m -23.293,-10.77 c 7.312,26.25 8.57,50.2 -6.879,73.55 -13.18,-19.52 -26.231,-38.86 -39.602,-58.65 0.512,-3.09 1.082,-6.56 1.684,-10.25 -2.223,-3.21 -4.442,-6.41 -6.903,-9.95 5.442,-11.32 10.77,-22.45 16.11,-33.58 0.98,-0.22 1.961,-0.43 2.941,-0.64 -0.66,23.54 16.571,31.39 32.649,39.52 m -38.321,-44.37 -0.449,-0.82 0.481,0.57 c -0.758,0.7 -1.52,1.41 -0.289,0.27 -1.672,0.08 -0.7,0.03 0.257,-0.02 m 114.731,-0.98 c -0.707,-1.32 -1.43,-2.64 -1.969,-3.65 -7.43,16.47 -14.781,32.76 -22.129,49.04 l -1.992,5.77 -0.617,-0.09 0.887,-0.21 2.082,-5.18 c 3.48,-12.11 6.847,-24.27 10.5,-36.33 1.32,-4.35 3.339,-8.48 5.039,-12.69 -0.918,-0.38 -1.829,-0.76 -2.75,-1.13 -3.43,7.79 -7.168,15.44 -10.219,23.36 -4.871,12.64 -9.141,25.5 -13.949,38.17 -4.121,10.84 -4.801,11.27 -17.661,16.83 6.508,-31.17 26.458,-56.9 31.59,-88.08 -6.5,15.7 -12.992,31.4 -19.492,47.11 -0.898,-0.35 -1.808,-0.68 -2.699,-1.01 4.48,-15.3 8.98,-30.62 13.82,-47.14 -9.07,2.03 -9.332,8.9 -10.988,14 -4.691,14.41 -8.652,29.06 -12.981,43.58 -2.089,7 -4.769,13.63 -13.621,16.54 -3.73,-10.67 -5.742,-21.44 -2.761,-32.3 2.691,-9.84 1.34,-17.55 -6.008,-25.06 -5.082,-5.18 -8.422,-12.06 -13.442,-19.53 -2.539,8.24 0.969,13.37 4.461,18.19 3.7,5.11 8.008,9.78 12.11,14.72 -1.559,6.9 -2.93,12.98 -4.59,20.35 -7.379,-4.33 -13.481,-7.9 -19.371,-11.36 -3.481,-13.64 -6.809,-26.7 -10.18,-39.89 -8.687,-2.71 -15.769,-11.62 -28.859,-4.03 6.781,3.89 11.539,6.65 17.09,9.85 -12.668,20.48 -37.02,27.49 -50.801,47.85 -16.09,-19.3 -31.008,-37.18 -46.457,-55.7 -3.321,2.98 -5.223,4.67 -8.024,7.18 4.703,5.62 9.082,10.67 13.243,15.9 9.21,11.57 18.57,23.02 27.32,34.93 4.359,5.92 9.527,7.95 16.488,7.12 8.313,-0.99 16.66,-1.75 26.281,-2.76 2.469,2.43 5.258,5.17 8.258,8.1 -3.59,10 1.043,16.51 6.051,23.68 12.801,18.3 24.672,37.24 36.891,55.95 1.921,2.93 3.699,5.96 5.601,9.05 7.18,-1.28 7.957,-6.47 9.528,-11.39 4.203,-13.24 8.722,-26.38 12.722,-38.34 8.36,-4.53 14.93,-8.27 21.66,-11.71 16.5,-8.44 22.848,-25.11 31.797,-39.5 6.922,-11.15 12.594,-23.12 18.301,-34.98 1.75,-3.65 1.781,-8.13 2.609,-12.26 -8.316,-2.96 -9.957,3.17 -13.117,6.72 -0.281,1.02 -0.562,2.02 -0.23,0.82 -0.852,0.76 -0.129,0.13 0.578,-0.49"
         style="fill:#231f20;fill-opacity:1;fill-rule:nonzero;stroke:none"
         id="path6004" />
    </g>
  </g>
</svg>
