<?xml version="1.0" encoding="UTF-8" standalone="no"?>
<!-- John Grümph
     https://legrumph.org/Terrier/public/chibi/de-chorographia
     CC BY-NC 3.0
     https://creativecommons.org/licenses/by-nc/3.0/fr/ -->
<!-- Created with Inkscape (http://www.inkscape.org/) -->

<svg
   version="1.1"
   id="svg2"
   width="32.86676"
   height="20.768921"
   viewBox="0 0 32.86676 20.76892"
   xmlns="http://www.w3.org/2000/svg"
   xmlns:svg="http://www.w3.org/2000/svg">
  <defs
     id="defs6" />
  <g
     id="g10"
     transform="matrix(1.3333333,0,0,-1.3333333,-329.44931,289.19828)">
    <g
       id="g12"
       transform="scale(0.1)">
      <path
         d="m 2688.21,2036.86 c -1.56,23.7 -11.5,45.15 -24.05,55.19 8.01,-18.4 16.03,-36.79 24.05,-55.19 m -64.93,18.73 c 0.71,0.51 1.43,1.03 2.14,1.53 -5.58,18.04 -11.16,36.08 -17.23,55.71 -2.83,-4.5 -4.68,-7.44 -6.39,-10.16 7.32,-16.05 14.4,-31.57 21.48,-47.08 m -10.65,2.09 c 0.99,0.64 1.96,1.3 2.94,1.94 -5.94,13.84 -11.89,27.68 -18.28,42.54 -3.2,-1.51 -5.67,-2.69 -9.31,-4.42 10.67,-12.87 11.74,-30.22 24.65,-40.06 m -0.74,84.36 c -0.81,-0.31 -1.61,-0.6 -2.42,-0.9 0.31,-23.87 17.99,-84.52 27.79,-94.46 0.13,1.89 0.6,3.5 0.28,4.93 -5.79,25.97 -11.45,51.98 -17.78,77.83 -1.12,4.56 -5.17,8.42 -7.87,12.6 m -12.01,-72.8 c 0.41,-3.35 0.81,-6.7 1.21,-10.06 0.66,0.13 1.32,0.26 1.98,0.39 l -3.16,9.43 c -4.76,9.39 -9.51,18.78 -14.22,28.09 -8.56,-3.82 -14.25,-13.2 -11.79,-19.29 h 9.7 c -0.9,3.53 -1.59,6.26 -1.87,7.35 5.64,-4.94 11.9,-10.42 18.15,-15.91 m 43.77,21.29 c 5,-20.28 9.99,-40.56 15.41,-62.54 -7.78,3.75 -8.29,10.03 -9.57,15.27 -4.57,18.54 -8.46,37.25 -12.99,55.81 -1.09,4.46 -3.7,8.56 -5.6,12.83 -0.16,0 -0.32,0.01 -0.47,0.01 0.24,-0.11 0.48,-0.23 0.72,-0.34 0.28,-3.84 0.15,-7.77 0.91,-11.52 4.23,-20.67 8.67,-41.31 13.05,-62.03 -9.05,-6.65 -17.27,-12.68 -26.86,-19.72 -2.32,2.21 -3.92,3.75 -6.82,6.53 7.47,5.5 13.04,9.61 20.97,15.45 -9.65,4.45 -17.55,8.1 -25.26,11.67 -12.4,-6.04 -23.63,-12.14 -35.36,-17.05 -13.57,-5.68 -27.53,-10.51 -41.49,-15.21 -2.83,-0.95 -6.42,0.34 -10.08,2.67 24.77,12.12 52.75,17.26 72.5,41.68 -7.29,2.34 -13.76,4.41 -22.27,7.15 -21.96,-16.13 -44.48,-32.66 -67,-49.19 -0.53,0.63 -1.06,1.26 -1.58,1.88 1.35,1.74 2.42,3.84 4.1,5.16 15.73,12.3 31.14,25.08 47.55,36.4 7.46,5.15 12.28,10.74 14.44,19.37 1.53,6.14 4.05,12.04 6.25,18.38 4.52,1.99 8.84,3.95 13.21,5.83 11.8,5.06 14.25,8.81 14.07,22.02 -0.04,2.78 -0.08,5.65 -0.76,8.32 -1.26,5 -3,9.88 -4.74,15.47 -15.05,2.05 -27.25,-4.01 -39.4,-11.32 -0.84,-10.33 -1.65,-20.21 -2.48,-30.35 -3.18,-2.29 -6.03,-4.33 -9.38,-6.72 -1.72,-5.94 -4.05,-12.32 -5.38,-18.92 -2.87,-14.16 -10.31,-23.79 -22.92,-31.68 -9.38,-5.86 -15.95,-16.33 -23.47,-25.02 -4.6,-5.31 -8.63,-11.11 -13.62,-17.6 -3.45,2.97 -5.61,4.83 -8.46,7.28 12.25,19.08 21.74,38.76 42.02,50.55 6.11,3.55 10.52,11.65 13.48,18.61 3.54,8.31 4.68,17.63 7.01,27.11 2.6,1.67 5.57,3.58 9.55,6.13 0.29,5.8 1.13,12.13 0.8,18.42 -0.43,8.34 3.19,14.13 10.34,17.23 8.75,3.79 17.73,7.43 26.97,9.6 10.17,2.38 19.2,-0.31 27.32,-8.15 10.45,-10.09 19.88,-20.52 26.41,-33.72 2.04,-4.12 6.79,-8.2 11.18,-9.64 25.46,-8.41 39.76,-26.86 48.07,-51.15 3.6,-10.54 7.22,-21.1 11.04,-32.28 5.02,-2.25 14.19,-1.25 11.97,-12.19 -9.42,-4.5 -18.3,-3.11 -28.94,4.44 -1.93,3.6 -5.49,9.37 -8.21,15.52 -7.75,17.49 -15.03,35.2 -22.82,52.68 -1.39,3.12 -4.3,5.58 -8.03,7.51 9.73,-24.13 18.33,-48.3 25.47,-72.94 -1.01,-0.43 -2.02,-0.85 -3.03,-1.28 -1.85,4.09 -3.94,8.1 -5.52,12.3 -5.61,14.94 -10.89,30.01 -16.67,44.89 -0.95,2.43 -3.79,4.13 -5.76,6.17 0.24,1.91 0.47,3.84 0.71,5.76 -0.39,0 -0.79,-0.01 -1.18,-0.01 0.2,-1.85 0.4,-3.68 0.6,-5.53"
         style="fill:#231f20;fill-opacity:1;fill-rule:nonzero;stroke:none"
         id="path5988" />
    </g>
  </g>
</svg>
