<?xml version="1.0" encoding="UTF-8" standalone="no"?>
<!-- Created with Inkscape (http://www.inkscape.org/) -->

<svg
   version="1.1"
   id="svg2"
   width="47.365067"
   height="21.742371"
   viewBox="0 0 47.365066 21.74237"
   xmlns="http://www.w3.org/2000/svg"
   xmlns:svg="http://www.w3.org/2000/svg">
  <defs
     id="defs6" />
  <g
     id="g10"
     transform="matrix(1.3333333,0,0,-1.3333333,-22.607332,117.54013)">
    <g
       id="g12"
       transform="scale(0.1)">
      <path
         d="m 298.152,784.629 c -3.257,5.101 -5.968,9.332 -8.679,13.551 l -1.731,-0.989 V 784.52 c 2.031,-0.43 3.492,-0.961 4.953,-0.981 1.399,-0.008 2.797,0.52 5.457,1.09 m 31.114,70.812 c 7.828,-14.351 14.918,-27.312 22.929,-41.98 1.141,18.09 -6.472,41.738 -14.382,45.117 -2.188,-0.808 -5.04,-1.848 -8.547,-3.137 m -31.731,-7.91 c 6.949,-12.543 13.348,-24.09 19.789,-35.691 4.051,2.672 6.84,4.531 9.52,6.308 -14.27,30.332 -16.719,32.993 -29.309,29.383 m 55.16,-45.761 c -9.14,17.16 -18.293,34.32 -27.562,51.71 -3.758,-1.851 -5.59,-2.589 -7.238,-3.621 -0.942,-0.578 -1.582,-1.648 -3.141,-3.347 12.43,-15.082 14.07,-38.313 37.941,-44.742 m -66.101,34.82 c -2.918,-0.52 -5.852,-1.051 -10.602,-1.91 9.524,-18.66 17.891,-35.071 26.071,-51.121 h 14.113 c 0,7.121 2.039,14.89 -0.41,20.793 -5.731,13.808 -13.621,26.718 -20.864,40.437 -4.566,-2.027 -9.668,-2.027 -8.609,-8.527 z m 92.922,-93 c 0.179,0.019 0.359,0.039 0.539,0.058 -0.282,0.09 -0.571,0.172 -0.86,0.25 -4.3,12.711 -7.601,15.383 -16.402,13.043 5.652,-4.5 11.18,-8.921 16.723,-13.351 m 117,-11.449 c -7.153,7.398 -14.192,14.929 -21.524,22.168 -3.769,3.722 -8.058,6.921 -12.109,10.363 l -2.379,-2.203 c 8.051,-11.719 16.09,-23.449 24.351,-35.5 -8.351,3.703 -9.261,4.781 -16.492,15.742 -4.597,6.969 -9.121,14.109 -14.609,20.348 -5.059,5.761 -11.379,10.41 -18.91,17.132 -0.801,-0.25 -4.008,-1.191 -8.051,-2.402 13.949,-18.699 27.293,-36.59 40.621,-54.48 -0.98,-0.77 -1.961,-1.547 -2.941,-2.329 -13.66,17.961 -27.321,35.93 -41.258,54.25 -3.512,-1.839 -5.781,-3.019 -8.473,-4.429 9.852,-14.231 19.274,-27.84 28.703,-41.442 -0.609,-0.507 -1.211,-1.007 -1.82,-1.519 -13.031,10.41 -17.121,28.371 -31.312,39.191 -1.5,-0.601 -3.879,-1.562 -8.079,-3.242 9.45,-12.668 18.289,-24.539 27.149,-36.418 -0.707,-0.57 -1.418,-1.16 -2.129,-1.742 -5.93,7.43 -11.539,15.152 -17.891,22.191 -5.949,6.602 -7.777,17.981 -20.988,18.61 5.5,-8.758 10.348,-16.481 15.199,-24.192 l 0.192,0.203 c -4.121,4 -8.442,7.809 -12.321,12.028 -4.73,5.14 -9.101,10.621 -13.871,16.25 -5.429,-6.321 -2.629,-9.891 0.418,-13.848 6.832,-8.851 13.391,-17.922 19.883,-27.031 1.461,-2.059 2.18,-4.629 3.25,-6.981 -0.73,-0.789 -1.461,-1.589 -2.191,-2.379 -15.68,11.54 -31.371,23.079 -47.239,34.758 -9.172,-1.679 -17.64,-3.238 -26.711,-4.886 3.84,-6.891 7.102,-12.743 11.68,-20.973 -10.601,-2.668 -18.488,-4.82 -26.449,-6.598 -7.02,-1.562 -14.09,-2.953 -21.199,-3.929 -4.18,-0.582 -9.161,-1.512 -10.524,6.449 15.121,3.07 30.293,6.14 47.332,9.59 -6.699,7.148 -11.648,12.449 -18.961,20.25 20.93,4.828 38.93,8.98 57.082,13.168 1.598,4.019 3.039,7.632 4.821,12.089 10.668,-2.41 20.988,-4.738 30.129,-6.808 11.3,5.961 21.429,11.301 33.589,17.719 -9.582,9.82 -18.679,19.152 -29.101,29.839 -2.66,-9.597 -4.61,-16.648 -6.867,-24.769 -16.973,2.301 -21.692,18.891 -35.532,26.551 v -35.45 c -14.14,2.629 -22.148,12.77 -33.711,17.29 -1.738,-10.508 -3.39,-20.45 -5.097,-30.77 -14.871,0.801 -27.84,1.488 -42.274,2.27 -2.566,20.55 2.481,41.96 -13.648,60.3 11.309,7.871 20.898,14.551 30.988,21.571 -1.879,2.468 -3.469,4.57 -5.508,7.25 -4.769,-4.411 -9.082,-8.403 -14.179,-13.09 -4.532,0.75 -9.5,1.578 -15.442,2.558 -3.937,-12.621 -8.308,-25.32 -11.8,-38.238 -3.848,-14.262 -6.637,-28.793 -10.458,-43.043 -1.3,-4.879 -3.152,-10.769 -6.769,-13.656 -17.141,-13.641 -34.973,-26.402 -53.031,-39.832 -3.922,2.289 -6.762,3.969 -10.5,6.172 2.179,3.16 3.25,5.847 5.218,7.367 12.301,9.582 24.422,19.48 37.36,28.133 9.383,6.269 13.883,14.347 16.461,25.066 6.191,25.582 13.41,50.922 20.32,76.344 0.602,2.207 2.02,4.199 3.649,7.488 5.863,-1.25 11.511,-2.461 17.16,-3.66 0.652,-0.75 1.3,-1.5 1.953,-2.238 4.207,6.25 8.429,12.508 11.316,16.789 16.403,0.078 17.711,-14.121 26.41,-18.692 11.743,4.692 23.192,9.262 33.481,13.371 9.652,-1.96 12.109,-8.449 13.019,-15.32 2.641,-19.769 15.371,-32.629 30.75,-45.832 2.25,7.992 4.313,15.25 6.293,22.281 13.641,-0.629 37.207,-23.961 58.707,-57.05 41.09,-15.579 71.551,-39.348 73.141,-57.418 -6.16,-3.852 -8.93,0.961 -12.551,4.64 -6.406,6.5 -13.097,12.77 -20.039,18.707 -1.848,1.582 -5.008,1.633 -7.57,2.371 0.121,0.192 0.242,0.371 0.359,0.539 -0.219,-0.058 -0.449,-0.117 -0.668,-0.168 3.949,-5.691 7.899,-11.359 11.852,-17.05"
         style="fill:#231f20;fill-opacity:1;fill-rule:nonzero;stroke:none"
         id="path6656" />
      <path
         d="m 406.418,739.961 c 2.828,-3.258 5.668,-6.52 8.5,-9.789 -0.973,-0.609 -1.934,-1.219 -2.891,-1.828 -1.761,3.969 -3.511,7.949 -5.25,11.918"
         style="fill:#231f20;fill-opacity:1;fill-rule:nonzero;stroke:none"
         id="path6658" />
      <path
         d="m 403.57,742.238 c 0.95,-0.761 1.899,-1.511 2.848,-2.281 l 0.352,0.313 c -1,0.718 -2,1.449 -3,2.179"
         style="fill:#231f20;fill-opacity:1;fill-rule:nonzero;stroke:none"
         id="path6660" />
      <path
         d="m 496.176,731.934 3.211,-1.899 0.301,0.301 c -1.059,0.598 -2.11,1.199 -3.172,1.809"
         style="fill:#231f20;fill-opacity:1;fill-rule:nonzero;stroke:none"
         id="path6662" />
      <path
         d="m 499.387,730.031 c 0.476,-0.261 0.968,-0.519 0.937,-0.511 0.031,-0.028 -0.308,0.39 -0.64,0.812"
         style="fill:#231f20;fill-opacity:1;fill-rule:nonzero;stroke:none"
         id="path6664" />
      <path
         d="m 297.152,813.32 c 1.903,-2 3.801,-4 5.7,-6.007 l -0.02,0.269 c -1.801,2.012 -3.598,4.012 -5.391,6.012"
         style="fill:#231f20;fill-opacity:1;fill-rule:nonzero;stroke:none"
         id="path6666" />
      <path
         d="m 294.371,824.902 c -2.391,1.563 -4.781,3.121 -7.172,4.692 l -0.039,-0.071 c 2.352,-1.589 4.699,-3.179 7.051,-4.789"
         style="fill:#231f20;fill-opacity:1;fill-rule:nonzero;stroke:none"
         id="path6668" />
      <path
         d="m 286.293,836.262 c 0.293,-2.25 0.582,-4.492 0.871,-6.742 l 0.039,0.07 c -0.199,2.332 -0.41,4.672 -0.609,7"
         style="fill:#231f20;fill-opacity:1;fill-rule:nonzero;stroke:none"
         id="path6670" />
      <path
         d="m 295.969,819.316 c -0.531,1.864 -1.063,3.723 -1.602,5.59 l -0.16,-0.168 c 0.512,-1.871 1.02,-3.742 1.531,-5.621"
         style="fill:#231f20;fill-opacity:1;fill-rule:nonzero;stroke:none"
         id="path6672" />
      <path
         d="m 297.441,813.594 c -0.492,1.902 -0.98,3.82 -1.468,5.722 l -0.243,-0.191 1.422,-5.801"
         style="fill:#231f20;fill-opacity:1;fill-rule:nonzero;stroke:none"
         id="path6674" />
      <path
         d="m 302.855,807.316 0.333,-0.519 -0.352,0.777"
         style="fill:#231f20;fill-opacity:1;fill-rule:nonzero;stroke:none"
         id="path6676" />
    </g>
  </g>
</svg>
