<?xml version="1.0" encoding="UTF-8" standalone="no"?>
<!-- Created with Inkscape (http://www.inkscape.org/) -->

<svg
   version="1.1"
   id="svg2"
   width="29.459061"
   height="23.491274"
   viewBox="0 0 29.459061 23.491273"
   xmlns="http://www.w3.org/2000/svg"
   xmlns:svg="http://www.w3.org/2000/svg">
  <defs
     id="defs6" />
  <g
     id="g10"
     transform="matrix(1.3333333,0,0,-1.3333333,-108.62866,439.38823)">
    <g
       id="g12"
       transform="scale(0.1)">
      <path
         d="m 963.297,3206.12 c -5.371,-17.66 5.328,-27.05 15.418,-36.73 l 2.793,1.43 c -6.07,11.77 -12.141,23.54 -18.211,35.3 m 12.07,-51.05 c 1.039,0.88 2.09,1.73 3.129,2.61 -2.672,3.94 -4.73,8.53 -8.121,11.68 -12.25,11.44 -18.527,24.77 -15.461,41.76 0.352,1.92 0.133,3.97 -0.047,5.93 -0.062,0.59 -0.859,1.11 -1.64,2.04 -2.832,-0.68 -5.872,-1.43 -8.911,-2.16 0.508,-0.64 1.02,-1.31 1.52,-1.97 -4.371,-4.55 -8.148,-9.98 -13.262,-13.44 -5.398,-3.61 -12.078,-5.36 -20.937,-9.06 18.109,-21.25 39.16,-32.21 63.73,-37.39 m 3.778,88.73 c 0.5,0.4 0.992,0.81 1.48,1.22 l -1.559,1.23 -3.519,8.41 c -0.18,-0.07 -0.359,-0.12 -0.551,-0.2 0.262,0 0.52,-0.01 0.77,-0.03 -2.758,-6.73 -2.11,-13.16 1.492,-19.47 1.59,-2.75 2.918,-5.69 4.078,-8.66 6.691,-17.03 12.578,-34.39 20.164,-51 5.3,-11.64 12.89,-22.23 19.46,-33.28 -0.8,18.98 -8.59,34.93 -20.26,48.82 -7.313,8.71 -10.794,18.29 -12.024,29.32 -0.961,8.63 -1.531,17.72 -9.531,23.64 m 11.98,-89.03 c 2.77,-5.18 5.57,-10.36 8.289,-15.56 2.296,-4.42 4.476,-8.89 6.716,-13.32 -1.1,-0.64 -2.19,-1.27 -3.28,-1.91 -3.873,6.81 -7.752,13.59 -11.623,20.4 -0.84,-0.38 -1.672,-0.74 -2.5,-1.11 2.128,-7.41 4.269,-14.84 6.418,-22.34 -7.29,-1.05 -7.29,-1.05 -17.129,26.41 -10.399,2.62 -21.758,5.48 -33.168,8.36 -5.782,-25.63 -18.313,-40.49 -31.203,-35.52 5.769,6.28 12.519,11.59 16.453,18.48 4,7.04 5.226,15.64 7.699,23.63 -9.352,6.08 -17.641,11.46 -26.289,17.08 -20.434,-23.91 -43.231,-44.87 -72.352,-57.32 -0.672,0.9 -1.351,1.79 -2.031,2.7 6.402,4.41 13.109,8.41 19.121,13.3 14.219,11.57 28.852,22.79 41.781,35.7 5.731,5.71 7.758,15.14 13.258,26.66 4.352,2.02 12.57,5.86 21.481,10.02 1.281,3.5 2.761,7.55 4.468,12.23 3.922,1.25 8.024,2.59 12.153,3.84 12.551,3.84 19.59,16.39 14.597,28.02 -4.726,11.03 -11.339,21.11 -21.918,27.71 -1.968,1.23 -4.32,2.36 -6.57,2.54 -11.84,0.94 -30.422,-16.07 -30.641,-28.07 -0.199,-11.2 -0.378,-22.41 0.04,-33.58 0.312,-8.53 -2.508,-14.26 -10.348,-18.37 -11.313,-5.93 -22.09,-12.84 -33.25,-19.43 -4.242,-22.91 -20.063,-39.02 -34.371,-55.98 -2.891,-3.43 -6.738,-7.75 -12.211,-1.05 7.121,9.87 14.09,19.92 21.473,29.67 7.539,9.97 15.136,19.79 13.089,33.16 14.93,8.79 28.981,17.06 44.078,25.97 0,11.98 -0.007,23.87 0.012,35.79 0.039,21.71 15.559,40.28 36.899,42.46 5.32,0.55 11.922,-2.14 16.5,-5.38 11.39,-8.05 22.332,-16.83 32.75,-26.12 12.691,-11.29 20.019,-25.61 21.444,-42.88 0.79,-9.66 4.09,-18.26 10.81,-25.96 14.02,-16.07 22.02,-35.05 23.8,-56.43 0.31,-3.71 -0.28,-7.5 -0.53,-12.95 -5.77,1.54 -9.81,2.61 -12.99,3.45 -9.41,18.04 -18.93,34.98 -27.175,52.56 -7.969,16.98 -14.609,34.58 -23.527,51.3 -2.313,-13.84 7.629,-23.8 11.308,-35.7 4.008,-12.96 7.52,-26.25 13.219,-38.44 5.445,-11.63 13.445,-22.06 20.335,-33.02 -1.09,-0.79 -2.18,-1.56 -3.27,-2.34 -1.49,2.23 -2.92,4.5 -4.48,6.68 -5.84,8.16 -11.726,16.28 -17.585,24.43 -2.23,24.89 -14.898,45.51 -27.23,66.35 -0.239,-3.98 0.601,-7.59 2.121,-10.89 5.531,-11.96 11.379,-23.77 16.941,-35.71 2.988,-6.42 5.629,-13 8.418,-19.52"
         style="fill:#231f20;fill-opacity:1;fill-rule:nonzero;stroke:none"
         id="path5904" />
      <path
         d="m 979.375,3246.46 c -0.012,-0.95 -0.012,-1.89 -0.02,-2.85 0.008,0.96 0.008,1.9 0.02,2.85"
         style="fill:#231f20;fill-opacity:1;fill-rule:nonzero;stroke:none"
         id="path5906" />
    </g>
  </g>
</svg>
