<?xml version="1.0" encoding="UTF-8" standalone="no"?>
<!-- Created with Inkscape (http://www.inkscape.org/) -->

<svg
   version="1.1"
   id="svg2"
   width="30.869415"
   height="27.083864"
   viewBox="0 0 30.869415 27.083863"
   xmlns="http://www.w3.org/2000/svg"
   xmlns:svg="http://www.w3.org/2000/svg">
  <defs
     id="defs6" />
  <g
     id="g10"
     transform="matrix(1.3333333,0,0,-1.3333333,-292.93067,122.88175)">
    <g
       id="g12"
       transform="scale(0.1)">
      <path
         d="m 2393.07,801.543 c -3.2,1.281 -5.86,2.34 -8.52,3.422 -0.55,-0.512 -1.11,-1.02 -1.67,-1.531 1.92,-3.848 3.83,-7.711 6.6,-13.258 1.59,5.027 2.5,7.937 3.59,11.367 m -27.71,60.922 c -1.29,-0.231 -2.59,-0.461 -3.9,-0.692 0.49,-5.8 0.97,-11.589 1.45,-17.39 l 3.6,0.32 c -0.38,5.922 -0.76,11.84 -1.15,17.762 m 18.99,-89.61 c 4.41,10.719 -0.65,27.879 -11.47,38.208 4.12,-13.727 7.47,-24.868 11.47,-38.208 m -57.3,18.438 c -1,-0.301 -1.98,-0.598 -2.98,-0.891 -3.52,-8.589 2.77,-22.668 16.47,-34.25 -5.02,13.082 -9.25,24.102 -13.49,35.141 m 53.43,-58.457 c 0.14,0.008 0.29,0.008 0.44,0.008 -0.25,0.07 -0.5,0.14 -0.75,0.199 -0.58,3.781 -0.35,7.93 -1.87,11.281 -8.8,19.391 -13.73,39.762 -16.45,60.762 -0.24,1.937 -1.47,3.75 -3.05,7.598 -1.66,-4.18 -3.66,-6.641 -3.12,-8.301 7.62,-24.059 9.61,-50.117 24.8,-71.547 m 8.41,34.977 c 5.09,-13.618 10.13,-27.27 15.31,-40.86 0.92,-2.398 2.44,-4.578 3.68,-6.867 -0.86,-0.531 -1.72,-1.07 -2.59,-1.602 -3.69,6.02 -8.53,11.629 -10.9,18.141 -11.26,31.008 -21.84,62.27 -31.68,90.598 2,-35.27 12.54,-71.528 31.18,-107.399 -5.72,3.442 -9.6,5.762 -13.5,8.102 -15.48,20.828 -21.09,46.129 -27.66,73 -3.35,-4.153 -5.23,-6.481 -7.14,-8.832 6.37,-21.391 12.62,-42.309 19.02,-63.781 -1.72,0.453 -3.66,0.96 -5.61,1.48 -0.27,2.582 -0.54,5.16 -0.8,7.75 -1.79,3.902 -4.13,7.641 -5.28,11.73 -3.1,11.071 -5.67,22.29 -8.53,33.422 -0.28,1.11 -1.14,2.047 -2.1,3.688 -2.7,0.601 -5.77,1.269 -10.01,2.203 5.6,-15.453 10.17,-29.383 15.88,-42.844 1.48,-3.488 6.55,-5.449 9.97,-8.117 0.29,-2.539 0.56,-5.102 0.85,-7.652 -2,-6.328 -4.62,-1.93 -6.29,-0.059 -5.05,5.641 -9.73,11.578 -15.81,18.922 -7.86,-9.281 -15.18,-17.91 -22.99,-27.121 -5.3,8.711 -5.28,8.699 2.93,18.789 4.02,4.941 7.94,9.941 12.16,15.25 -4.36,8.269 -8.59,16.269 -12.95,24.488 -8.82,-8.558 -17.52,-17.019 -26.23,-25.469 -8.02,-7.789 -14.66,-17.5 -24.88,-22.25 l -3.58,4.161 c 19.12,20.41 38.23,40.82 58.57,62.531 5.3,-0.973 11.39,-2.082 18.32,-3.34 10.57,9.969 18.27,21.469 17.52,37.848 -0.61,13.132 1.05,26.351 0.95,39.519 -0.06,5.551 -2.08,11.082 -4.47,16.473 -6.72,-20.512 -2.22,-42.891 -12.68,-62.02 -6.69,-1.472 -8.57,2.297 -9.14,7.078 -0.78,6.321 -1.18,12.692 -1.73,19.04 -0.36,4.113 -0.67,8.222 -2.57,12.871 -7.97,-39.598 -34.99,-64.551 -64.1,-87.692 -0.53,-1.359 -1.33,-2.476 -1.3,-3.578 0.32,-16.019 -9.96,-23.141 -23.12,-28.101 -8.97,-3.379 -17.7,-7.43 -26.7,-10.661 -4.88,-1.75 -10.28,-2.867 -13.91,5.332 16.32,7.661 32.64,15.329 48.48,22.758 0.89,2.512 1.83,3.981 1.88,5.473 0.41,11.777 7.01,18.961 15.8,26.39 13.32,11.29 27.14,23.36 36.28,37.899 8.65,13.781 11.56,31.16 16.95,46.98 1.47,4.352 2.7,8.77 4.27,13.961 14.07,-3.609 11.3,-16.172 17.66,-26.461 1.16,18.329 2.16,34.34 3.32,52.629 13.34,-8.23 15.02,-21.449 20.8,-31.539 5.88,-10.308 11.03,-21.582 13.65,-33.07 2.73,-11.899 2.05,-24.57 2.91,-37.801 5.53,-2.359 10.97,-4.629 16.38,-7 9.35,-4.09 11.14,-7.949 8.58,-17.961 -1.87,-7.308 -3.64,-14.637 -5.43,-21.847 12.25,-14.622 31.2,-24.391 29.93,-49.141 -3.51,1.781 -5.56,2.809 -7.62,3.851 -1.25,0.618 -2.5,1.258 -3.75,1.879 -0.65,2.43 -1.29,4.86 -1.93,7.289 -1.34,3.153 -2.66,6.313 -3.98,9.461 -0.86,-0.531 -1.7,-1.058 -2.54,-1.582 2.25,-2.547 4.51,-5.097 6.77,-7.636 0.65,-2.411 1.31,-4.813 1.96,-7.231 1.24,-0.711 2.49,-1.43 3.72,-2.14 -0.95,-1.602 -1.93,-3.192 -3.11,-5.153 -9.93,15.582 -19.66,30.852 -29.41,46.121 -0.16,-0.039 -0.34,-0.07 -0.5,-0.109 0.27,-0.051 0.57,-0.121 0.84,-0.191"
         style="fill:#231f20;fill-opacity:1;fill-rule:nonzero;stroke:none"
         id="path5990" />
    </g>
  </g>
</svg>
