<?xml version="1.0" encoding="UTF-8" standalone="no"?>
<!-- Created with Inkscape (http://www.inkscape.org/) -->

<svg
   version="1.1"
   id="svg2"
   width="25.94133"
   height="15.237123"
   viewBox="0 0 25.94133 15.237122"
   xmlns="http://www.w3.org/2000/svg"
   xmlns:svg="http://www.w3.org/2000/svg">
  <defs
     id="defs6" />
  <g
     id="g10"
     transform="matrix(1.3333333,0,0,-1.3333333,-159.84267,400.00639)">
    <g
       id="g12"
       transform="scale(0.1)">
      <path
         d="m 1371.63,2924.23 c 2.65,-4.37 5.3,-8.75 7.94,-13.13 -0.65,5.55 1.81,12.67 -7.94,13.13 m -26.43,-34.39 c -4.18,3.89 -8.45,7.71 -12.5,11.74 -2.28,2.27 -4.19,4.91 -6.27,7.38 -0.79,-0.41 -1.55,-0.82 -2.33,-1.23 l 1.94,-10.76 0.25,0.22 c -2.01,1.78 -4.01,3.55 -7.72,6.83 -0.98,-4.31 -1.75,-7.65 -2.62,-11.47 -15.24,7.9 -29.59,-8.16 -47.82,-6.56 5.4,8.61 12.35,11.45 18.98,12.42 12.94,1.89 22.93,8.01 31.87,16.96 3.32,3.31 7.53,5.73 11.32,8.56 -4.39,18.16 5.37,30.09 17.84,40.93 2.24,1.95 3.77,4.71 5.62,7.09 -0.55,0.64 -1.1,1.27 -1.66,1.91 -7.94,-6.51 -15.89,-13.02 -25.6,-20.98 3.2,13.76 14.05,18.26 21.6,26.98 -3.46,3.21 -6.78,6.29 -10.78,10 -5.65,-1.07 -11.36,-2.15 -17.34,-3.3 -1.6,-7.54 -3,-14.13 -4.81,-22.69 -6.14,-2.53 -13.12,-6.54 -20.63,-8.3 -15.67,-3.65 -26.2,-13.31 -33.65,-26.65 -5.68,-10.14 -14.09,-15.23 -24.73,-19.19 -8.25,-3.07 -15.16,-9.66 -22.75,-14.57 -3.98,-2.58 -7.49,-8.01 -14.59,-1.82 7.87,11.08 16,21.79 29.47,25.68 10.69,3.08 18.17,8.29 23.78,18.1 7.95,13.87 19.31,24.22 35.78,27.87 5.74,1.28 11.13,4.14 16.66,6.27 2.19,8.13 4.24,15.72 6.04,22.38 18.32,9.41 26.25,8.54 40.06,-3.16 10.58,-8.96 19.66,-18.34 19.62,-33.81 0,-6.57 2.93,-13.15 4.62,-20.1 22.29,-9.86 17.79,-29.64 18.53,-50.8 -4.79,2.85 -8.56,3.79 -9.99,6.15 -10.46,17.37 -20.46,35.02 -30.55,52.6 -0.57,0.99 -0.59,2.28 -0.86,3.42 3.07,-2.5 6.16,-5.01 11.32,-9.2 -1.88,7.66 -3.1,12.66 -4.34,17.67 -0.98,0.06 -1.94,0.11 -2.93,0.16 -1.21,-3.01 -2.43,-6.03 -3.65,-9.05 -2.35,-0.82 -4.71,-1.65 -8.08,-2.83 11.77,-16.5 23.63,-31.39 28.16,-50.5 -9.48,15.12 -18.96,30.24 -28.44,45.35 -1.14,-0.58 -2.27,-1.18 -3.41,-1.77 -0.43,-8.74 7.78,-13.84 11.27,-20.91 3.6,-7.36 7.87,-14.38 11.83,-21.55 -0.84,-0.5 -1.7,-1.01 -2.55,-1.51 -5.68,9.44 -11.34,18.9 -17.02,28.35 -0.84,-0.36 -1.69,-0.72 -2.55,-1.08 -0.81,-10.83 11.07,-17.1 10.71,-28.33 -5.12,7.47 -10.25,14.94 -15.66,22.83 -1.93,-1.39 -3.43,-2.44 -4.7,-3.36 4.56,-7.97 8.79,-15.33 13.02,-22.7"
         style="fill:#231f20;fill-opacity:1;fill-rule:nonzero;stroke:none"
         id="path5188" />
      <path
         d="m 1295.43,2940.79 c 8.48,3.65 16.96,7.3 25.44,10.96 0.47,-1.07 0.94,-2.12 1.41,-3.19 -8.4,-3.8 -16.79,-7.59 -25.18,-11.39 -0.56,1.21 -1.11,2.41 -1.67,3.62"
         style="fill:#231f20;fill-opacity:1;fill-rule:nonzero;stroke:none"
         id="path5190" />
      <path
         d="m 1326.04,2896.97 c 1.56,-1.42 3.12,-2.84 4.68,-4.26 -0.66,-0.41 -1.33,-0.82 -1.98,-1.23 -0.83,1.91 -1.64,3.81 -2.46,5.7"
         style="fill:#231f20;fill-opacity:1;fill-rule:nonzero;stroke:none"
         id="path5192" />
      <path
         d="m 1344.95,2889.51 0.76,0.06 -0.52,0.26"
         style="fill:#231f20;fill-opacity:1;fill-rule:nonzero;stroke:none"
         id="path5194" />
    </g>
  </g>
</svg>
