<?xml version="1.0" encoding="UTF-8" standalone="no"?>
<!-- Created with Inkscape (http://www.inkscape.org/) -->

<svg
   version="1.1"
   id="svg2"
   width="28.923386"
   height="19.481689"
   viewBox="0 0 28.923386 19.481689"
   xmlns="http://www.w3.org/2000/svg"
   xmlns:svg="http://www.w3.org/2000/svg">
  <defs
     id="defs6" />
  <g
     id="g10"
     transform="matrix(1.3333333,0,0,-1.3333333,-209.48328,322.13102)">
    <g
       id="g12"
       transform="scale(0.1)">
      <path
         d="m 1746.02,2324.79 c -2.29,3.56 -5.45,6.85 -6.72,10.75 -4.41,13.51 -8.18,27.23 -11.91,39.87 1.61,-1.72 4.11,-4.43 6.61,-7.12 0.21,-0.62 0.41,-1.24 0.28,-0.83 0.38,-0.34 -0.1,0.09 -0.57,0.52 -3.52,12.73 -4.14,26.78 -14.52,36.37 -1.07,-0.25 -2.14,-0.5 -3.21,-0.74 0,-2.9 -0.52,-5.9 0.09,-8.63 2.05,-9.34 4.59,-18.54 6.78,-27.84 2.34,-9.94 4.49,-19.93 6.72,-29.91 l 0.23,0.27 c -3.09,-1.43 -6.19,-2.87 -8.92,-4.14 8.73,-21.4 17.03,-41.77 25.35,-62.13 -1.09,-0.46 -2.18,-0.91 -3.27,-1.36 -6.39,15.84 -12.8,31.71 -19.45,48.16 -2.94,-0.58 -5.47,-1.08 -9.42,-1.87 6.19,-13.28 11.98,-25.73 17.78,-38.18 -11.12,10.43 -13.23,26.64 -23.86,37.11 l -3.64,-2.02 c 5.11,-10.09 10.4,-20.07 15.22,-30.27 1.71,-3.64 2.3,-7.82 3.39,-11.76 l 0.25,-0.18 c -7.1,13.16 -14.2,26.3 -21.47,39.78 -8.73,-6.43 -2.21,-11.22 -0.03,-16.03 2.43,-5.31 5.37,-10.4 8.07,-15.57 l -2.39,-1.56 c -4.45,7.19 -8.89,14.37 -13.55,21.89 -2.2,-1.41 -3.43,-2.2 -5.2,-3.33 2.32,-5.15 4.5,-9.96 6.69,-14.77 -0.66,-0.4 -1.33,-0.79 -1.99,-1.18 -2.86,4.3 -5.72,8.61 -9.95,14.93 -1.98,-3.65 -3.36,-6.2 -4.75,-8.74 l 0.23,0.18 c -7.07,-2.78 -14.14,-5.58 -22.48,-8.87 -4.86,2.39 -11.22,5.49 -18.14,8.87 -1.88,-3.66 -3.38,-6.6 -4.88,-9.54 l -2.55,0.38 c 0.32,6.59 0.62,13.2 1.01,21.11 -15.24,-1.13 -21.82,-17.96 -36.53,-17.47 12.31,8.29 19.72,25.19 38.87,22.2 2.16,-4.09 3.97,-7.54 5.95,-11.29 5.25,-2.49 10.64,-5.05 16.82,-8 11.04,7.68 22.27,15.49 33.5,23.31 -0.36,0.69 -0.73,1.37 -1.08,2.05 -7.06,-0.98 -14.11,-1.98 -21.17,-2.96 -0.27,1.37 -0.53,2.76 -0.8,4.14 14.86,4.25 29.71,8.54 45.37,13.04 -0.77,3.01 -1.6,6.28 -2.57,10.05 3.27,3.7 6.65,7.53 10.86,12.29 -4.84,18.76 -9.79,37.92 -14.75,57.14 -30,-3.95 -40.5,-28.45 -53.36,-52.33 6.11,-6.79 12.56,-13.96 20.58,-22.9 -15.65,1.34 -18.45,16.37 -29.81,20.15 -17.66,-5.54 -33.43,-13.42 -42.59,-31.53 -6.6,-13.07 -14.96,-25.26 -23.02,-38.63 -5.78,0.84 -8.32,4.51 -6.32,10.59 1.86,5.65 4.09,11.32 7.08,16.44 5.82,10.01 11.53,20.23 18.63,29.32 12.15,15.56 29.4,22.4 49.31,26.03 6,10.37 11.75,22.31 19.34,32.91 10.36,14.43 26.52,20.56 43.19,22.68 14.43,1.86 21.01,-3.82 25.97,-17.94 4.63,-13.18 8.5,-26.62 12.72,-39.94 1.07,-3.41 2.12,-6.82 3.42,-10.97 17.43,-5.75 21.79,-21.49 26.73,-36.79 2.33,-7.2 4.67,-14.42 6.77,-21.7 1.18,-4.04 1.9,-8.21 3.09,-13.5 h -10.34 c -5.27,14.02 -9.85,27.66 -15.57,40.79 -4.23,9.78 -8.38,20 -18.05,26.2 -0.13,0.1 -0.25,0.19 -0.38,0.29 0.22,-0.17 0.43,-0.33 0.63,-0.48 0.48,-5.67 0.96,-11.33 1.45,-17"
         style="fill:#231f20;fill-opacity:1;fill-rule:nonzero;stroke:none"
         id="path5648" />
      <path
         d="m 1748.04,2319.62 c 10.13,-12.54 14.45,-27.53 17.29,-43.19 -1.07,2.27 -2.29,4.5 -3.19,6.84 -4.66,12.17 -9.24,24.36 -13.85,36.55"
         style="fill:#231f20;fill-opacity:1;fill-rule:nonzero;stroke:none"
         id="path5650" />
      <path
         d="m 1749.09,2291.71 c -0.74,0.14 -2,0.07 -2.14,0.43 -5.78,15.1 -11.45,30.22 -17.14,45.36 l -0.24,-0.26 19.28,-45.74"
         style="fill:#231f20;fill-opacity:1;fill-rule:nonzero;stroke:none"
         id="path5652" />
      <path
         d="m 1680.84,2281.19 c 1.52,-1.58 3.05,-3.17 4.57,-4.77 -0.73,-0.39 -1.46,-0.79 -2.18,-1.19 l -2.16,6.16"
         style="fill:#231f20;fill-opacity:1;fill-rule:nonzero;stroke:none"
         id="path5654" />
      <path
         d="m 1745.78,2324.6 c 0.75,-1.66 1.51,-3.32 2.26,-4.98 l 0.25,0.19 c -0.76,1.67 -1.52,3.32 -2.28,4.98"
         style="fill:#231f20;fill-opacity:1;fill-rule:nonzero;stroke:none"
         id="path5656" />
      <path
         d="m 1681.07,2281.39 c -0.73,1.69 -1.46,3.39 -2.18,5.08 l -0.23,-0.19 c 0.73,-1.7 1.45,-3.39 2.18,-5.09"
         style="fill:#231f20;fill-opacity:1;fill-rule:nonzero;stroke:none"
         id="path5658" />
      <path
         d="m 1748.85,2291.5 -0.46,-0.41 0.7,0.62"
         style="fill:#231f20;fill-opacity:1;fill-rule:nonzero;stroke:none"
         id="path5660" />
      <path
         d="m 1722.99,2271.04 0.91,0.33 -0.68,-0.51"
         style="fill:#231f20;fill-opacity:1;fill-rule:nonzero;stroke:none"
         id="path5662" />
    </g>
  </g>
</svg>
