<?xml version="1.0" encoding="UTF-8" standalone="no"?>
<!-- John Grümph
     https://legrumph.org/Terrier/public/chibi/de-chorographia
     CC BY-NC 3.0
     https://creativecommons.org/licenses/by-nc/3.0/fr/ -->
<!-- Created with Inkscape (http://www.inkscape.org/) -->

<svg
   version="1.1"
   id="svg2"
   width="31.674683"
   height="24.93799"
   viewBox="0 0 31.674682 24.937989"
   xmlns="http://www.w3.org/2000/svg"
   xmlns:svg="http://www.w3.org/2000/svg">
  <defs
     id="defs6" />
  <g
     id="g10"
     transform="matrix(1.3333333,0,0,-1.3333333,-310.14798,259.18601)">
    <g
       id="g12"
       transform="scale(0.1)">
      <path
         d="m 2482.57,1910.18 c 0.91,0.35 1.82,0.71 2.73,1.06 0.6,6.62 0.23,12.83 -9.84,17.71 2.91,-7.7 5.01,-13.23 7.11,-18.77 m -119.75,-80.68 c -1.05,0.09 -2.1,0.18 -3.15,0.28 -0.85,-9.15 -1.7,-18.29 -2.56,-27.43 1.07,-0.1 2.14,-0.2 3.21,-0.29 5.04,8.78 1.74,18.29 2.5,27.44 m 116.91,24.14 c 0.1,-0.57 0.2,-1.14 0.11,-0.63 -0.23,-0.6 -0.02,-0.06 0.19,0.49 -5.18,11.91 -10.36,23.84 -15.54,35.75 -0.76,-0.36 -1.53,-0.72 -2.29,-1.08 2.61,-13.02 5.94,-25.7 17.53,-34.53 m 3.68,25.87 c 2.11,21.2 1.71,14.05 -12.16,48.05 -2.1,-9.78 -3.78,-17.56 -5.92,-27.51 9.11,-22.26 18.91,-46.21 28.59,-69.86 -6.4,-0.84 -8.12,0.2 -17.49,13.72 -4.87,7.01 -9.15,14.44 -15.91,21.16 v -20.31 c -10.59,-9.44 -20.23,-18.04 -31.16,-27.78 -0.53,2.09 -2.44,5.42 -1.5,6.8 3.28,4.85 7.24,9.35 11.53,13.36 3.75,3.52 8.27,6.2 11.31,8.42 3.77,28.35 7.37,55.39 11.2,84.13 -15.46,-5.94 -29.81,-11.44 -45.84,-17.59 -2.8,-33.42 -5.64,-67.51 -8.85,-105.86 -11.73,-12.12 -26.34,-27.29 -41.13,-42.28 -0.44,-0.45 -2.63,0.82 -6.12,2.01 14.58,16.36 28.22,31.66 41.9,47.01 v 46.55 l -2.24,1.02 c -1.6,-2.58 -4.1,-4.97 -4.63,-7.75 -2.76,-14.48 -4.58,-29.14 -7.73,-43.53 -0.86,-3.97 -4.49,-9.22 -8,-10.36 -8.26,-2.7 -12.57,-8.27 -17.79,-14.64 -7.96,-9.7 -18.38,-17.37 -29.41,-27.41 -1.94,2.29 -3.36,3.97 -5.95,7.04 6.4,7.38 12.02,13.86 18.33,21.14 1.82,14.98 3.8,31.18 6.1,50.06 4.04,2.2 9.56,5.2 17.12,9.3 3.65,-7.57 6.38,-13.23 9.81,-20.32 3.04,14.86 5.8,28.36 8.61,42.13 5.91,3.52 11.71,6.99 18.7,11.16 2.6,14.41 5.36,29.65 8.33,46.12 15.34,10.4 33.37,16.79 52.21,20.14 13.39,2.38 29.45,-11.69 31.04,-25.74 0.81,-7.12 1.17,-14.44 0.49,-21.56 -2.45,-25.52 7.61,-47.58 18.01,-69.93 3.77,-0.56 7.53,-0.46 10.72,-1.77 3.45,-1.42 7.58,-3.46 9.32,-6.45 9.2,-15.87 17.82,-32.08 26.43,-48.28 1.33,-2.51 1.55,-5.62 2.34,-8.68 -8.41,-2.46 -11.55,2.08 -14.37,7.08 -7.65,13.54 -15.24,27.11 -23.38,41.62 -2.94,-2.49 -5.48,-4.64 -8.61,-7.3 7.43,-13.22 14.57,-25.9 21.7,-38.57 -0.78,-0.48 -1.55,-0.95 -2.32,-1.42 -9.53,10.19 -14.64,23.33 -22.2,37.42 -3.31,-3.4 -5.86,-6.02 -9.04,-9.29 6.8,-9.36 12.84,-17.67 18.88,-25.99 -10.66,4.77 -15.48,14.55 -22.09,24.71 -4.61,0.95 -10.21,2.12 -18.45,3.83 7.38,-10.58 13.15,-18.85 18.91,-27.12 -0.82,-0.64 -1.64,-1.27 -2.46,-1.91 -6.36,8.17 -12.71,16.33 -19.77,25.4 -2.14,-0.48 -5.03,-1.11 -9.81,-2.17 6.37,-8.21 11.83,-15.24 19,-24.49 -12.92,4.76 -15.75,15.6 -22.84,23.31 -5.47,-2.11 -10.89,-4.19 -17.73,-6.82 4.32,-5.57 7.89,-10.15 11.45,-14.74 -0.65,-0.55 -1.3,-1.09 -1.96,-1.64 -3.97,4.7 -7.94,9.38 -12.41,14.67 -2.19,-0.63 -4.72,-1.35 -8.3,-2.38 2.43,-4.16 4.47,-7.62 6.49,-11.09 -0.61,-0.52 -1.22,-1.03 -1.83,-1.55 -2.92,3.32 -5.85,6.65 -9.21,10.47 -1.9,-0.19 -4.17,-0.41 -6.9,-0.69 0.5,-3.01 0.92,-5.52 1.53,-9.19 -3.4,2.72 -5.83,4.66 -8,6.4 -12.75,-1.35 -23.97,-9.01 -36.67,-7.47 l -0.79,2.55 c 2.58,1.23 5.08,2.75 7.78,3.65 27.24,9.12 54.4,18.51 81.85,26.99 8.81,2.74 18.37,3.05 27.59,4.48 0.35,-0.98 0.7,-1.95 1.05,-2.92 4.5,5.51 8.99,11.04 12.69,15.58 -3.79,5.55 -9.26,11.71 -12.62,18.86 -9.48,20.18 -18.2,40.73 -26.98,61.23 -1.99,4.65 -3.03,9.7 -4.51,14.57 0.73,0.26 1.45,0.54 2.18,0.8 3.96,-9.52 7.93,-19.05 11.89,-28.58"
         style="fill:#231f20;fill-opacity:1;fill-rule:nonzero;stroke:none"
         id="path6514" />
      <path
         d="m 2463.8,1771.78 c 2.17,-1.26 4.33,-2.51 6.5,-3.77 -0.31,-0.44 -0.63,-0.88 -0.95,-1.33 -1.83,1.76 -3.67,3.51 -5.51,5.26"
         style="fill:#231f20;fill-opacity:1;fill-rule:nonzero;stroke:none"
         id="path6516" />
      <path
         d="m 2462.56,1778.57 c 0.41,-2.27 0.83,-4.52 1.24,-6.79 l 0.04,0.16 c -0.34,2.1 -0.68,4.2 -1.02,6.29"
         style="fill:#231f20;fill-opacity:1;fill-rule:nonzero;stroke:none"
         id="path6518" />
      <path
         d="m 2462.82,1778.23 c -0.2,0.18 -0.41,0.34 -0.61,0.51 0.12,-0.06 0.23,-0.11 0.35,-0.18"
         style="fill:#231f20;fill-opacity:1;fill-rule:nonzero;stroke:none"
         id="path6520" />
    </g>
  </g>
</svg>
