<?xml version="1.0" encoding="UTF-8" standalone="no"?>
<!-- John Grümph
     https://legrumph.org/Terrier/public/chibi/de-chorographia
     CC BY-NC 3.0
     https://creativecommons.org/licenses/by-nc/3.0/fr/ -->
<!-- Created with Inkscape (http://www.inkscape.org/) -->

<svg
   version="1.1"
   id="svg2"
   width="34.487061"
   height="20.186707"
   viewBox="0 0 34.48706 20.186706"
   xmlns="http://www.w3.org/2000/svg"
   xmlns:svg="http://www.w3.org/2000/svg">
  <defs
     id="defs6" />
  <g
     id="g10"
     transform="matrix(1.3333333,0,0,-1.3333333,-227.39826,404.95604)">
    <g
       id="g12"
       transform="scale(0.1)">
      <path
         d="m 1940.8,2918.4 1.91,2.02 c -5.98,12.66 -17.66,18.76 -28.48,25.85 -0.68,-0.77 -1.36,-1.54 -2.05,-2.31 9.53,-8.52 19.08,-17.04 28.62,-25.56 m -32.12,38.13 c -3.43,22.46 -6.74,44.23 -10.2,66.87 -26.52,-19.65 -40.16,-52.44 -36.27,-85.59 5.27,-3.93 10.98,-8.18 15.11,-11.27 18.04,21.14 14.34,47.07 17.84,71.64 2.04,-13.26 3.23,-26.43 1.7,-39.28 -1.54,-12.87 -5.81,-25.41 -8.88,-38.1 1.04,-0.42 2.07,-0.84 3.11,-1.26 5.8,12.2 11.6,24.41 17.59,36.99 m -102.43,-49.07 c -3.11,2.12 -6.04,4.56 -9.36,6.26 -3.11,1.59 -6.62,2.4 -11.23,1.59 l 6.12,-10.25 0.27,0.24 c -3.14,2.11 -6.64,3.85 -9.35,6.42 -4.27,4.06 -8.72,4.83 -15.15,2.58 6.08,-7.07 11.61,-13.51 17.16,-19.95 -0.26,-0.26 -0.52,-0.5 -0.78,-0.75 -6.27,7.23 -12.54,14.46 -19.04,21.94 -6.66,-3.93 -9.77,-5.77 -13.8,-8.15 5.46,-5.91 9.93,-10.74 14.39,-15.56 -0.6,-0.66 -1.19,-1.32 -1.79,-1.97 -4.94,4.58 -9.89,9.17 -15.46,14.35 -2.16,-1.32 -4.38,-2.68 -7.29,-4.44 1.77,-2.6 3.24,-4.74 5.94,-8.68 -4.08,2.45 -6.51,3.91 -9.27,5.56 -5.15,-3.67 -10.2,-7.27 -15.26,-10.88 -0.69,0.72 -1.37,1.44 -2.05,2.16 3.89,8.83 12.68,13.34 20.05,18.87 8.19,6.16 15.59,14.06 26.88,14.7 9.9,0.55 19.8,1.18 31.29,1.86 1.35,8.81 2.55,16.64 4.18,27.26 5.4,3.15 13.51,7.9 22.19,12.99 -1.61,8.9 0.46,18.55 -8.23,25.46 -14.34,-3.88 -27.02,-9.65 -33.63,-24.24 -4.16,-9.16 -11.65,-14.93 -20.44,-19.43 -9.23,-4.72 -18.23,-9.89 -27.36,-14.88 -7.87,-14.95 -15.64,-29.7 -23.57,-44.75 -6.59,1.02 -7.15,5.08 -5.16,9.5 6.07,13.42 12.23,26.82 19.07,39.86 1.68,3.16 5.93,5.19 9.32,7.19 7.59,4.44 15.73,8 22.97,12.92 5.44,3.71 11.66,8.06 14.42,13.67 9.23,18.7 25.08,27.04 44.15,31.8 19.12,-8.87 16.96,-28.1 21.58,-44.74 2.9,-1.91 6.15,-4.03 9.68,-6.35 4.63,17.01 8.75,33.41 13.68,49.56 1.66,5.46 4.5,11.09 8.29,15.28 7.63,8.43 16.3,15.93 23.38,22.71 11.46,-1.91 15.85,-6.98 17.08,-15.66 2.68,-18.98 5.68,-37.91 8.72,-56.85 0.62,-3.91 1.89,-7.71 3.12,-12.59 27.02,-11.94 36.77,-35.96 42.18,-62.94 -6.18,-3.4 -10.91,-1.42 -12.11,3.86 -3.71,16.37 -17.23,24.37 -27.96,34.77 -4.53,4.39 -9.18,8.68 -13.7,12.94 -5.66,-11.63 -11.07,-22.8 -16.5,-33.96 l 0.34,0.2 c -11.19,8.13 -22.3,16.39 -33.64,24.3 -3.22,2.25 -6.46,6.77 -11.31,2.43 l 0.15,0.16 c -7.47,6.41 -14.93,12.82 -22.87,19.64 -5.04,-2.74 -10.16,-5.51 -16.97,-9.2 2.09,-3.66 3.57,-7.59 6.18,-10.51 12.1,-13.59 24.52,-26.91 36.82,-40.33 -0.79,-0.74 -1.57,-1.49 -2.36,-2.23 -12.86,14.11 -25.71,28.22 -38.57,42.33 -0.91,-0.26 -1.8,-0.5 -2.69,-0.76 -0.47,-3.95 -0.94,-7.91 -1.42,-11.86 l 0.32,0.28 c -2.98,-0.85 -5.96,-1.7 -9.44,-2.69 3.12,-4.6 5.38,-7.91 7.63,-11.23"
         style="fill:#231f20;fill-opacity:1;fill-rule:nonzero;stroke:none"
         id="path5576" />
      <path
         d="m 1854.05,2928.85 c 11.5,-10.91 23,-21.83 34.5,-32.73 -0.98,-0.95 -1.97,-1.89 -2.95,-2.83 -10.45,11.92 -20.91,23.84 -31.36,35.76 l -0.19,-0.2"
         style="fill:#231f20;fill-opacity:1;fill-rule:nonzero;stroke:none"
         id="path5578" />
      <path
         d="m 1807.53,2920.91 c 3.03,-1.29 6.98,-1.79 8.91,-4.02 5.07,-5.91 9.27,-12.57 13.81,-18.93 l 0.26,0.24 c -3.62,3.27 -7.41,6.35 -10.81,9.83 -4.13,4.21 -7.92,8.76 -11.85,13.16"
         style="fill:#231f20;fill-opacity:1;fill-rule:nonzero;stroke:none"
         id="path5580" />
      <path
         d="m 1845.08,2922.16 c 6.07,-7.47 12.14,-14.94 18.21,-22.4 l 0.3,0.3 c -6.46,7.14 -16.71,11.19 -18.18,22.38"
         style="fill:#231f20;fill-opacity:1;fill-rule:nonzero;stroke:none"
         id="path5582" />
      <path
         d="m 1806.04,2907.27 c 4.67,-4.72 9.32,-9.43 13.98,-14.15 l -3.02,-2.37 c -3.59,5.57 -7.18,11.15 -10.75,16.72"
         style="fill:#231f20;fill-opacity:1;fill-rule:nonzero;stroke:none"
         id="path5584" />
      <path
         d="m 1839.87,2926.71 -12.96,10.81 -0.17,-0.25 c 7.66,0.38 10.26,-5.23 12.85,-10.85 0,0.01 0.28,0.29 0.28,0.29"
         style="fill:#231f20;fill-opacity:1;fill-rule:nonzero;stroke:none"
         id="path5586" />
      <path
         d="m 1897.31,2904.58 c 2.99,-2.76 5.98,-5.52 8.97,-8.27 -0.68,-0.57 -1.36,-1.14 -2.05,-1.71 -2.21,3.42 -4.43,6.84 -6.65,10.25"
         style="fill:#231f20;fill-opacity:1;fill-rule:nonzero;stroke:none"
         id="path5588" />
      <path
         d="m 1798.98,2960.17 c 1.26,2.33 2.53,4.67 3.8,7 l 2.1,-1.73 c -2.05,-1.69 -4.1,-3.39 -6.14,-5.08"
         style="fill:#231f20;fill-opacity:1;fill-rule:nonzero;stroke:none"
         id="path5590" />
      <path
         d="m 1865.93,2897.49 c 1.66,-0.81 3.32,-1.62 4.98,-2.43 -0.39,-0.46 -0.77,-0.92 -1.15,-1.38 -1.2,1.35 -2.4,2.7 -3.6,4.04"
         style="fill:#231f20;fill-opacity:1;fill-rule:nonzero;stroke:none"
         id="path5592" />
      <path
         d="m 1830.25,2897.96 c 1.64,-2.39 3.27,-4.79 4.9,-7.18 l 0.32,0.26 c -1.65,2.39 -3.31,4.78 -4.95,7.16"
         style="fill:#231f20;fill-opacity:1;fill-rule:nonzero;stroke:none"
         id="path5594" />
      <path
         d="m 1914.06,2904.98 c -1.6,0.85 -3.19,1.71 -4.79,2.56 0.86,0.67 1.73,1.34 2.59,2.01 0.66,-1.6 1.31,-3.21 1.96,-4.81"
         style="fill:#231f20;fill-opacity:1;fill-rule:nonzero;stroke:none"
         id="path5596" />
      <path
         d="m 1826.9,2937.52 c -1.65,1.68 -3.29,3.37 -4.95,5.05 l 0.3,-0.31 c 4.45,1 5.22,-1.32 4.48,-4.99"
         style="fill:#231f20;fill-opacity:1;fill-rule:nonzero;stroke:none"
         id="path5598" />
      <path
         d="m 1921.59,2898.14 c -1.45,1.66 -2.89,3.31 -4.33,4.96 l -0.37,-0.34 c 1.49,-1.62 2.98,-3.24 4.46,-4.87"
         style="fill:#231f20;fill-opacity:1;fill-rule:nonzero;stroke:none"
         id="path5600" />
      <path
         d="m 1797.06,2954.84 1.92,5.32 -0.25,0.2 c -0.64,-1.73 -1.29,-3.47 -1.94,-5.2"
         style="fill:#231f20;fill-opacity:1;fill-rule:nonzero;stroke:none"
         id="path5602" />
      <path
         d="m 1945.61,2896.27 c 0.1,-0.1 0.21,-0.21 0.34,-0.31"
         style="fill:#231f20;fill-opacity:1;fill-rule:nonzero;stroke:none"
         id="path5604" />
      <path
         d="m 1924.13,2895.59 c 0.14,-0.44 0.28,-0.88 0.26,-0.82 0,0.03 0.06,0.59 0.11,1.14"
         style="fill:#231f20;fill-opacity:1;fill-rule:nonzero;stroke:none"
         id="path5606" />
      <path
         d="m 1945.94,2895.96 c -0.27,0.08 -0.54,0.16 -0.82,0.22 0.17,0.03 0.32,0.06 0.48,0.09"
         style="fill:#231f20;fill-opacity:1;fill-rule:nonzero;stroke:none"
         id="path5608" />
      <path
         d="m 1921.35,2897.88 c 0.93,-0.76 1.86,-1.53 2.78,-2.29 l 0.37,0.32 c -0.97,0.74 -1.94,1.48 -2.91,2.22"
         style="fill:#231f20;fill-opacity:1;fill-rule:nonzero;stroke:none"
         id="path5610" />
      <path
         d="m 1937.84,2899.13 c 0.21,-0.13 0.43,-0.25 0.65,-0.38 -0.19,0.22 -0.37,0.44 -0.56,0.66"
         style="fill:#231f20;fill-opacity:1;fill-rule:nonzero;stroke:none"
         id="path5612" />
      <path
         d="m 1866.16,2897.73 c -0.86,0.78 -1.71,1.56 -2.57,2.32 l -0.3,-0.29 c 0.88,-0.76 1.76,-1.51 2.64,-2.26"
         style="fill:#231f20;fill-opacity:1;fill-rule:nonzero;stroke:none"
         id="path5614" />
      <path
         d="m 1935.39,2901.98 c 0.82,-0.94 1.64,-1.89 2.45,-2.85 l 0.09,0.28 c -0.95,0.95 -1.9,1.9 -2.86,2.84"
         style="fill:#231f20;fill-opacity:1;fill-rule:nonzero;stroke:none"
         id="path5616" />
      <path
         d="m 1935.08,2902.26 c 0.17,0.15 0.33,0.28 0.5,0.42 -0.06,-0.22 -0.12,-0.46 -0.18,-0.69"
         style="fill:#231f20;fill-opacity:1;fill-rule:nonzero;stroke:none"
         id="path5618" />
      <path
         d="m 1913.82,2904.74 c 1.03,-0.65 2.05,-1.32 3.07,-1.98 l 0.37,0.34 c -1.07,0.63 -2.14,1.26 -3.2,1.88"
         style="fill:#231f20;fill-opacity:1;fill-rule:nonzero;stroke:none"
         id="path5620" />
      <path
         d="m 1791.78,2905.06 c 0.27,-0.36 0.54,-0.71 0.49,-0.65 0.01,-0.05 -0.1,0.42 -0.21,0.89"
         style="fill:#231f20;fill-opacity:1;fill-rule:nonzero;stroke:none"
         id="path5622" />
      <path
         d="m 1893.86,2906.74 c 1.15,-0.72 2.3,-1.45 3.45,-2.16 l 0.27,0.28 -3.37,2.08"
         style="fill:#231f20;fill-opacity:1;fill-rule:nonzero;stroke:none"
         id="path5624" />
      <path
         d="m 1929.84,2912.79 -0.71,-0.52 c 0.27,0.11 0.55,0.21 0.82,0.32"
         style="fill:#231f20;fill-opacity:1;fill-rule:nonzero;stroke:none"
         id="path5626" />
      <path
         d="m 1929.96,2912.6 c -1.26,0.49 -2.53,0.99 -3.79,1.47 l -0.05,-0.27 c 1.24,-0.33 2.48,-0.67 3.73,-1"
         style="fill:#231f20;fill-opacity:1;fill-rule:nonzero;stroke:none"
         id="path5628" />
      <path
         d="m 1923.92,2917.82 c 0.73,-1.34 1.46,-2.68 2.19,-4.02 l 0.05,0.27 c -0.63,1.15 -1.27,2.29 -1.91,3.45"
         style="fill:#231f20;fill-opacity:1;fill-rule:nonzero;stroke:none"
         id="path5630" />
      <path
         d="m 1924.25,2917.52 c -0.26,0.08 -0.52,0.17 -0.78,0.24 0.15,0.02 0.3,0.04 0.45,0.06"
         style="fill:#231f20;fill-opacity:1;fill-rule:nonzero;stroke:none"
         id="path5632" />
      <path
         d="m 1835.16,2890.78 c 0.22,-0.46 0.44,-0.91 0.38,-0.77 0,-0.11 -0.03,0.46 -0.06,1.02"
         style="fill:#231f20;fill-opacity:1;fill-rule:nonzero;stroke:none"
         id="path5634" />
      <path
         d="m 1796.79,2955.16 c -0.42,-0.2 -0.83,-0.39 -0.68,-0.32 h 0.95"
         style="fill:#231f20;fill-opacity:1;fill-rule:nonzero;stroke:none"
         id="path5636" />
      <path
         d="m 1821.96,2942.57 c 0.23,0.11 0.46,0.22 0.69,0.33 l -0.4,-0.64"
         style="fill:#231f20;fill-opacity:1;fill-rule:nonzero;stroke:none"
         id="path5638" />
      <path
         d="m 1851.82,2931.45 c -0.81,0.79 -1.61,1.58 -2.42,2.38 0.01,0 -0.14,-0.15 -0.14,-0.15 0.78,-0.81 1.58,-1.61 2.37,-2.43"
         style="fill:#231f20;fill-opacity:1;fill-rule:nonzero;stroke:none"
         id="path5640" />
      <path
         d="m 1851.63,2931.25 c 0.81,-0.8 1.62,-1.6 2.42,-2.4 0,0 0.18,0.19 0.19,0.19 l -2.42,2.41"
         style="fill:#231f20;fill-opacity:1;fill-rule:nonzero;stroke:none"
         id="path5642" />
      <path
         d="m 1842.29,2924.43 -2.43,2.28 c 0,0 -0.27,-0.28 -0.27,-0.3 0.82,-0.73 1.66,-1.46 2.48,-2.2"
         style="fill:#231f20;fill-opacity:1;fill-rule:nonzero;stroke:none"
         id="path5644" />
      <path
         d="m 1845.41,2922.44 c -1.03,0.66 -2.09,1.33 -3.12,1.98 l -0.22,-0.22 c 1,-0.69 2,-1.36 3.02,-2.04"
         style="fill:#231f20;fill-opacity:1;fill-rule:nonzero;stroke:none"
         id="path5646" />
    </g>
  </g>
</svg>
