<?xml version="1.0" encoding="UTF-8" standalone="no"?>
<!-- Created with Inkscape (http://www.inkscape.org/) -->

<svg
   version="1.1"
   id="svg2"
   width="42.113998"
   height="28.867006"
   viewBox="0 0 42.113998 28.867005"
   xmlns="http://www.w3.org/2000/svg"
   xmlns:svg="http://www.w3.org/2000/svg">
  <defs
     id="defs6" />
  <g
     id="g10"
     transform="matrix(1.3333333,0,0,-1.3333333,-131.774,503.51366)">
    <g
       id="g12"
       transform="scale(0.1)">
      <path
         d="m 1205.61,3596.58 c -5.13,7.47 -10.43,14.84 -15.34,22.45 -8.75,13.6 -17.29,27.35 -26.68,42.24 -3.02,-3.89 -4.84,-6.23 -6.54,-8.41 9.22,-15.93 18.04,-31.07 26.7,-46.32 1.3,-2.29 1.75,-5.09 2.59,-7.65 l 0.2,0.18 c -3.95,5.15 -8.25,10.07 -11.79,15.5 -5.34,8.2 -10.14,16.75 -16.14,26.78 v -22.89 c 3.25,-6.06 7.37,-13.73 11.48,-21.38 l 0.27,0.31 c -2.52,1.99 -5.59,3.58 -7.43,6.07 -3.02,4.09 -5.25,8.76 -8.38,14.14 -2.53,-2.75 -4.25,-4.61 -5.96,-6.47 7.32,-12.25 14.34,-23.97 21.36,-35.69 l -2.5,-1.61 c -7.06,10.61 -14.13,21.22 -22.84,34.3 -1.79,-5.36 -2.86,-8.57 -3.93,-11.77 l 0.23,0.19 c -2.77,-1.42 -5.55,-2.83 -8.34,-4.27 4.13,-7.68 7.45,-13.89 10.77,-20.09 -0.66,-0.46 -1.32,-0.92 -1.98,-1.38 -3.43,5.2 -6.86,10.41 -10.88,16.51 -2.71,-2.07 -5,-3.82 -7.25,-5.53 1.63,-4.7 3,-8.65 5.29,-15.2 -4.93,3.77 -7.61,5.82 -10.59,8.09 -2.41,-2.99 -4.61,-5.73 -8.11,-10.05 -4.16,6.08 -7.75,11.37 -11.91,17.47 -19.02,-6.59 -35.37,-20.61 -56.62,-22.25 19.37,9.53 38.73,19.05 58.48,28.76 3.73,-5.09 6.48,-8.86 10.12,-13.85 14.77,17.68 29.16,34.9 42.88,51.32 -2.25,10.06 -4.14,18.56 -5.7,25.47 5.38,10.43 10.81,18.92 14.13,28.16 2,5.54 2.03,12.58 0.62,18.38 -4.14,17.01 -9.43,33.73 -16.43,50.91 -7.37,-23.74 -14.73,-47.48 -22.64,-72.95 -5.36,2.58 -10,4.83 -14.41,6.94 -7.18,-16.24 -14.18,-32.74 -21.8,-48.95 -2.68,-5.7 -5.99,-11.68 -10.54,-15.84 -21.57,-19.68 -44,-38.32 -70.79,-50.78 -8.144,-3.79 -8.733,-3.51 -16.905,3 3.789,2.57 7.211,4.8 10.55,7.17 20.165,14.27 40.915,27.8 60.255,43.13 15.5,12.32 21.64,31.24 28.59,49.13 4.05,10.37 7.82,20.85 12.3,32.88 5.25,-2.01 9.73,-3.72 15.32,-5.85 8.84,26.17 17.88,52.98 26.79,79.37 10.34,0.97 11.46,-5.09 12.98,-10.94 5.18,-20.06 10.43,-40.1 15.73,-60.13 0.38,-1.49 1.29,-2.85 2.13,-4.65 3.93,-0.3 7.85,-0.59 13.25,-1 13.85,-15.06 22.46,-34.44 32.25,-51.88 37.84,-9.39 59.87,-34.47 73.84,-67.7 4.1,-3 7.82,-5.71 11.87,-8.67 -9.84,-6.34 -17.96,-3.78 -23.78,6.24 -6.79,11.68 -13.65,23.33 -20.88,34.72 -2.2,3.43 -5.8,5.96 -10.2,7.77 2.97,-7.09 5.95,-14.18 8.91,-21.27 l 0.24,0.22 c -4.38,6.97 -9.09,13.75 -13.07,20.93 -5.38,9.67 -12.11,16.85 -24.18,16.32 -7.59,-0.33 -11.25,4.3 -14.43,10.4 -7.5,14.44 -15.43,28.68 -23.25,43.15 h -12.36 c 2.84,-14.19 15.73,-22.12 17.77,-36.01 -5.88,8.02 -11.75,16.02 -18.68,25.49 -1.95,-5.17 -3.3,-8.75 -4.59,-12.22 15.09,-22.89 30.18,-45.23 39.66,-70.69"
         style="fill:#231f20;fill-opacity:1;fill-rule:nonzero;stroke:none"
         id="path5742" />
      <path
         d="m 1248.48,3584.26 c -10.19,15.43 -20.39,30.87 -30.59,46.31 0.38,0.4 0.75,0.8 1.12,1.21 2.13,-1.84 4.75,-3.34 6.35,-5.57 9.37,-13.11 19.68,-25.78 22.84,-42.27"
         style="fill:#231f20;fill-opacity:1;fill-rule:nonzero;stroke:none"
         id="path5744" />
      <path
         d="m 1217.38,3608.26 c 6.46,-9.52 12.92,-19.04 19.38,-28.56 l -2.69,-1.62 c -6,9.84 -14.68,18.09 -16.44,30.39"
         style="fill:#231f20;fill-opacity:1;fill-rule:nonzero;stroke:none"
         id="path5746" />
      <path
         d="m 1187.93,3592.79 c 9.59,-5 11.45,-15.06 16.25,-23.18 l -2.43,-1.5 c -4.57,8.28 -9.16,16.57 -13.75,24.87"
         style="fill:#231f20;fill-opacity:1;fill-rule:nonzero;stroke:none"
         id="path5748" />
      <path
         d="m 1170.1,3597.08 c 4.45,-6.44 8.91,-12.86 13.36,-19.3 -0.79,-0.49 -1.58,-0.99 -2.37,-1.5 -4.92,6.2 -9.73,12.46 -10.72,21.11"
         style="fill:#231f20;fill-opacity:1;fill-rule:nonzero;stroke:none"
         id="path5750" />
      <path
         d="m 1140.69,3596.36 c 2.49,-2.89 4.97,-5.77 7.46,-8.66 l -2.52,-1.61 c -1.58,3.48 -3.15,6.98 -4.73,10.47"
         style="fill:#231f20;fill-opacity:1;fill-rule:nonzero;stroke:none"
         id="path5752" />
      <path
         d="m 1205.33,3596.33 c 2.05,-2.8 4.1,-5.61 6.15,-8.41 l 0.13,0.13 c -2,2.84 -4,5.68 -6,8.53"
         style="fill:#231f20;fill-opacity:1;fill-rule:nonzero;stroke:none"
         id="path5754" />
      <path
         d="m 1264.11,3590.75 c -1.89,2.73 -3.77,5.47 -5.66,8.21 l -0.24,-0.22 c 1.98,-2.74 3.95,-5.47 5.93,-8.2"
         style="fill:#231f20;fill-opacity:1;fill-rule:nonzero;stroke:none"
         id="path5756" />
      <path
         d="m 1212.36,3581.64 c 1.73,-2.25 3.46,-4.49 5.19,-6.75 l 0.26,0.24 c -1.73,2.23 -3.46,4.48 -5.19,6.72"
         style="fill:#231f20;fill-opacity:1;fill-rule:nonzero;stroke:none"
         id="path5758" />
      <path
         d="m 1154.77,3575.64 c 0.99,-1.3 1.98,-2.61 2.96,-3.91 -0.41,-0.43 -0.8,-0.84 -1.2,-1.25 -1.19,1.12 -2.39,2.22 -3.58,3.32 0.6,0.62 1.21,1.23 1.82,1.84"
         style="fill:#231f20;fill-opacity:1;fill-rule:nonzero;stroke:none"
         id="path5760" />
      <path
         d="m 1217.55,3574.89 c 0.81,-1.26 1.62,-2.53 2.43,-3.8 -0.55,-0.21 -1.09,-0.41 -1.64,-0.62 -0.17,1.55 -0.35,3.1 -0.53,4.66"
         style="fill:#231f20;fill-opacity:1;fill-rule:nonzero;stroke:none"
         id="path5762" />
      <path
         d="m 1206.48,3628.89 c -0.68,0.21 -1.36,0.41 -0.86,0.26 -0.4,0.33 0.14,-0.11 0.69,-0.56"
         style="fill:#231f20;fill-opacity:1;fill-rule:nonzero;stroke:none"
         id="path5764" />
      <path
         d="m 1206.31,3628.59 c 0.29,-2.18 0.58,-4.36 0.86,-6.54 l 0.35,-0.28 c -0.35,2.37 -0.69,4.75 -1.04,7.12"
         style="fill:#231f20;fill-opacity:1;fill-rule:nonzero;stroke:none"
         id="path5766" />
      <path
         d="m 1212.62,3581.86 c -0.34,2.06 -0.67,4.12 -1.02,6.19 l -0.13,-0.13 c 0.3,-2.09 0.59,-4.19 0.89,-6.27"
         style="fill:#231f20;fill-opacity:1;fill-rule:nonzero;stroke:none"
         id="path5768" />
      <path
         d="m 1264.14,3590.54 v -2.84 c -0.08,0 -0.16,0 -0.24,0.01 0.07,1.01 0.14,2.03 0.21,3.04"
         style="fill:#231f20;fill-opacity:1;fill-rule:nonzero;stroke:none"
         id="path5770" />
      <path
         d="m 1186.34,3598.9 c 0.53,-2.03 1.06,-4.07 1.6,-6.1 l 0.07,0.18 c -0.49,2.03 -0.98,4.06 -1.47,6.1"
         style="fill:#231f20;fill-opacity:1;fill-rule:nonzero;stroke:none"
         id="path5772" />
      <path
         d="m 1217.63,3608.48 -0.3,0.34 c -0.12,1.43 -0.04,0.44 0.05,-0.55"
         style="fill:#231f20;fill-opacity:1;fill-rule:nonzero;stroke:none"
         id="path5774" />
      <path
         d="m 1248.19,3583.94 c 0.56,-0.04 1.11,-0.08 1.14,-0.09 0.03,-0.01 -0.41,0.2 -0.85,0.41"
         style="fill:#231f20;fill-opacity:1;fill-rule:nonzero;stroke:none"
         id="path5776" />
      <path
         d="m 1207.18,3622.04 c 0.3,-0.02 0.6,-0.04 0.9,-0.06 -0.18,-0.07 -0.37,-0.15 -0.55,-0.21"
         style="fill:#231f20;fill-opacity:1;fill-rule:nonzero;stroke:none"
         id="path5778" />
    </g>
  </g>
</svg>
