<?xml version="1.0" encoding="UTF-8" standalone="no"?>
<!-- John Grümph
     https://legrumph.org/Terrier/public/chibi/de-chorographia
     CC BY-NC 3.0
     https://creativecommons.org/licenses/by-nc/3.0/fr/ -->
<!-- Created with Inkscape (http://www.inkscape.org/) -->

<svg
   version="1.1"
   id="svg2"
   width="31.349457"
   height="32.228577"
   viewBox="0 0 31.349457 32.228575"
   xmlns="http://www.w3.org/2000/svg"
   xmlns:svg="http://www.w3.org/2000/svg">
  <defs
     id="defs6" />
  <g
     id="g10"
     transform="matrix(1.3333333,0,0,-1.3333333,-96.9068,506.87596)">
    <g
       id="g12"
       transform="scale(0.1)">
      <path
         d="m 864.082,3649.72 c -6.25,16.92 -11.988,32.49 -17.961,48.67 -2.379,-1.38 -4.25,-2.46 -7.508,-4.34 5.821,-15.53 11.469,-30.62 17.168,-45.86 3.571,0.65 5.442,1 8.301,1.53 m 25.18,-26.49 c -11.219,27.59 -21.899,53.85 -33.008,81.18 -1.383,-2.24 -4.25,-4.88 -3.742,-6.33 6.218,-17.68 6.582,-37.85 21.539,-51.89 1.441,-6.16 2.871,-12.31 4.383,-18.82 3.488,-1.33 6.718,-2.57 10.828,-4.14 m -42.739,32.92 c 0.129,-0.12 0.27,-0.24 0.399,-0.36 -0.219,0.17 -0.449,0.33 -0.668,0.48 l -9.672,35.48 c -1.059,-0.19 -2.121,-0.38 -3.191,-0.57 1.422,-10.04 2.839,-20.09 4.261,-30.2 3.418,-1.86 6.141,-3.35 8.871,-4.83 m 17.887,49.56 c 0.094,-0.6 0.192,-1.2 0.102,-0.64 -0.231,-0.65 -0.032,-0.09 0.172,0.49 -0.68,1.55 -1.352,3.12 -2.032,4.68 -0.519,-0.31 -1.039,-0.6 -1.558,-0.9 1.109,-1.21 2.207,-2.42 3.316,-3.63 m 85.742,-112.01 c -0.992,-0.87 -2.769,-2.59 -2.859,-2.51 -2.012,1.87 -4.16,3.73 -5.633,6 -14.656,22.8 -30.078,45.24 -37.219,71.93 -0.41,1.51 -1.429,2.85 -2.41,4.74 -1.539,0.59 -3.328,1.36 -5.168,1.93 -1.769,0.56 -3.609,0.91 -7.621,1.9 6.078,-16.16 11.43,-30.42 16.789,-44.68 -0.968,-0.38 -1.937,-0.76 -2.898,-1.15 -4.563,11.54 -9.789,22.87 -13.481,34.68 -3.109,9.96 -8.32,16.78 -20.398,19.91 2.316,-7.72 3.476,-14.85 6.5,-21.07 13.238,-27.27 27.09,-54.24 40.527,-81.42 2.289,-4.63 7.129,-9.04 2.231,-16.87 -13.571,13.69 -18.61,31.54 -29.059,47.85 -3.711,1.68 -8.711,3.95 -14.269,6.47 -8.391,-3.76 -16.704,-7.48 -24.793,-11.1 -16.129,-32.85 -35.438,-52.27 -51.418,-50.32 21.078,13.59 35.418,31.63 44.968,54.52 7.59,3.64 15.813,7.58 24.93,11.97 -0.508,4.28 -1,8.44 -1.609,13.56 -16.719,-3.84 -24.032,11.36 -36.961,15.95 -15.891,-9.31 -27.188,-22.12 -31.75,-40.95 -3.707,-15.34 -23.449,-31.05 -39.84,-31.01 3,1.82 5.992,3.67 9,5.48 12.992,7.8 23.98,16.91 26.922,33.18 2.469,13.67 11.32,23.49 22.121,31.69 3.476,2.63 6.848,5.45 10.879,8.67 -1.32,11.5 -2.66,23.22 -4.063,35.46 9.813,5.08 18.59,9.63 27.442,14.21 4.82,10.65 4.441,20.49 -1.719,30.78 -7.539,12.6 -13.852,25.92 -21.941,41.3 -8.879,-22.96 -16.801,-43.45 -25.059,-64.85 -2.211,-0.72 -5.121,-1.68 -8.801,-2.88 -5.332,-13.13 -10.32,-27.05 -16.558,-40.39 -10.641,-22.75 -22,-45.17 -33.262,-67.64 -1.578,-3.16 -4.031,-5.98 -6.488,-8.56 -3.723,-3.88 -7.602,-3.88 -10.383,-0.41 19.679,43.69 39.101,86.82 58.531,129.94 -0.711,0.5 -1.41,0.99 -2.109,1.49 3.281,1.02 6.558,2.05 10.019,3.12 9.168,21.4 18.379,42.87 28.711,66.95 5.32,-4.92 9.367,-7.39 11.66,-10.99 6.848,-10.76 13.047,-21.95 19.45,-33.01 10.39,-17.93 21.238,-35.65 24.628,-56.63 0.313,-1.94 1.172,-3.82 1.93,-5.65 0.461,-1.09 1.242,-2.03 2.461,-3.97 6.02,-1.97 12.738,-4.46 19.621,-6.34 7.16,-1.95 11.93,-6.07 14.391,-13.06 1.859,-5.27 4.066,-10.41 5.91,-15.69 6.297,-18 15.598,-34.02 29.777,-47.1 3.582,-3.31 6.082,-7.79 10.141,-13.12 -5.5,-1.14 -8.801,-1.84 -12.109,-2.53 l 0.339,0.67"
         style="fill:#231f20;fill-opacity:1;fill-rule:nonzero;stroke:none"
         id="path5148" />
      <path
         d="m 912.109,3618.81 c 7.481,-14.66 14.969,-29.31 22.731,-44.52 -11.621,4.78 -23.11,28.06 -22.442,44.19"
         style="fill:#231f20;fill-opacity:1;fill-rule:nonzero;stroke:none"
         id="path5150" />
      <path
         d="m 912.398,3618.48 c -0.23,0.13 -0.46,0.25 -0.679,0.38 0.129,-0.02 0.258,-0.03 0.386,-0.05"
         style="fill:#231f20;fill-opacity:1;fill-rule:nonzero;stroke:none"
         id="path5152" />
    </g>
  </g>
</svg>
