<?xml version="1.0" encoding="UTF-8" standalone="no"?>
<!-- John Grümph
     https://legrumph.org/Terrier/public/chibi/de-chorographia
     CC BY-NC 3.0
     https://creativecommons.org/licenses/by-nc/3.0/fr/ -->
<!-- Created with Inkscape (http://www.inkscape.org/) -->

<svg
   version="1.1"
   id="svg2"
   width="27.964005"
   height="19.202026"
   viewBox="0 0 27.964004 19.202026"
   xmlns="http://www.w3.org/2000/svg"
   xmlns:svg="http://www.w3.org/2000/svg">
  <defs
     id="defs6" />
  <g
     id="g10"
     transform="matrix(1.3333333,0,0,-1.3333333,-191.61733,287.63139)">
    <g
       id="g12"
       transform="scale(0.1)">
      <path
         d="m 1560.91,2045.94 c 0.22,0.79 0.34,1.22 0.46,1.66 -0.25,-0.09 -0.7,-0.15 -0.72,-0.26 -0.04,-0.32 0.1,-0.66 0.26,-1.4 m 16.91,99.08 c -1.41,-0.76 -2.82,-1.51 -4.23,-2.26 1.76,-3.17 3.53,-6.32 5.3,-9.48 0.88,0.43 1.77,0.87 2.66,1.31 -1.24,3.48 -2.49,6.96 -3.73,10.43 m 50.36,-112.33 c -1.02,-1.7 -1.97,-3.29 -3.74,-6.24 -1.2,4.38 -2.09,7.61 -2.97,10.83 l -0.78,-0.59 c -4.88,7.15 -10.7,13.86 -14.36,21.59 -3.54,7.45 -4.83,15.96 -7.43,25.15 -11.26,5.73 -13.79,16.8 -15.87,29.24 -1.55,9.3 -7.28,17.9 -11.14,26.81 l -2.54,-0.24 c -2.55,-6.11 -5.11,-12.24 -7.81,-18.7 12.77,-31.3 25.47,-62.39 38.16,-93.48 -1.13,-0.47 -2.27,-0.93 -3.4,-1.4 -5.95,14.56 -11.86,29.14 -17.86,43.68 -5.91,14.34 -11.92,28.66 -18.41,44.24 -1.78,-2.31 -3.64,-4.72 -5.3,-6.88 12.18,-30.86 23.97,-60.74 35.76,-90.61 -1.29,-0.52 -2.58,-1.05 -3.87,-1.58 -11.4,28.27 -22.81,56.54 -34.4,85.24 -4.93,-5.81 -4.24,-11.04 -1.63,-16.99 8.46,-19.25 16.48,-38.69 24.67,-58.07 -0.77,-0.48 -1.53,-0.97 -2.29,-1.45 -2.28,2.48 -4.56,4.95 -6.75,7.32 -1.88,-3.99 -3.74,-7.97 -5.61,-11.94 -1.25,0.14 -2.5,0.29 -3.75,0.44 v 25.13 c -17.23,-11.26 -31.97,-20.9 -47.38,-30.97 -4.67,9.24 2.79,11.1 6.85,14.15 10.5,7.85 21.31,15.3 32.01,22.9 2.59,1.83 5.22,3.63 8.14,5.65 -3.67,6.58 -6.28,11.27 -9.95,17.84 -10.01,-20.84 -26.98,-29.91 -45.41,-35.62 -7.61,-7.38 -12.39,-17.07 -22.56,-19.84 -0.79,0.82 -1.59,1.65 -2.38,2.48 6.72,7.4 13.45,14.79 19.89,21.88 7.88,3.57 15.69,6.6 23,10.54 14.68,7.9 22.47,19.83 24.12,37.1 0.98,10.23 6.55,20.03 10.55,31.42 -6.89,-3.77 -13.51,-7.39 -19.37,-10.59 -7.64,-29.56 -7.64,-29.56 -34.48,-55.45 -4.85,-0.23 -10.76,-0.5 -15.86,-0.75 -13.55,-12.46 -26.67,-24.52 -39.75,-36.55 -2.93,1.81 -4.43,2.42 -5.48,3.48 -0.76,0.77 -0.9,2.14 -1.67,4.14 12.77,13.16 25.76,26.54 39.69,40.89 h 16.48 c 6.16,6.2 12.12,12.06 17.94,18.05 6.35,6.57 10.16,14.45 10.22,23.61 0.05,7.31 3.32,12.06 9.5,15.3 12.89,6.76 24.39,14.96 32.26,27.76 3.48,5.66 9.59,6.58 16.02,4.82 7.1,-1.94 10.56,-6.84 11.47,-13.76 1.58,-11.86 2.93,-23.74 4.5,-35.61 0.37,-2.73 1.23,-5.4 2.07,-8.99 10.97,-5.21 14.06,-15.71 16.35,-27.01 2.12,-10.44 7,-19.34 16.65,-25.19 4.4,-2.65 8.6,-6.03 11.95,-9.9 2.36,-2.74 3.14,-6.84 4.63,-10.33 -0.95,-0.72 -1.88,-1.44 -2.82,-2.15 -5.24,3.04 -10.48,6.07 -15.86,9.2"
         style="fill:#231f20;fill-opacity:1;fill-rule:nonzero;stroke:none"
         id="path6012" />
      <path
         d="m 1612.74,2020.05 c -15.94,36.72 -30.81,70.96 -45.67,105.2 15.18,-18.39 43.48,-84.72 45.67,-105.2"
         style="fill:#231f20;fill-opacity:1;fill-rule:nonzero;stroke:none"
         id="path6014" />
    </g>
  </g>
</svg>
