<?xml version="1.0" encoding="UTF-8" standalone="no"?>
<!-- Created with Inkscape (http://www.inkscape.org/) -->

<svg
   version="1.1"
   id="svg2"
   width="46.049347"
   height="26.414675"
   viewBox="0 0 46.049347 26.414674"
   xmlns="http://www.w3.org/2000/svg"
   xmlns:svg="http://www.w3.org/2000/svg">
  <defs
     id="defs6" />
  <g
     id="g10"
     transform="matrix(1.3333333,0,0,-1.3333333,-287.53998,501.06261)">
    <g
       id="g12"
       transform="scale(0.1)">
      <path
         d="m 2266.21,3661.95 c -0.45,0.75 -0.91,1.5 -1.38,2.26 -9.87,-1.05 -11.6,-2.35 -14.46,-12.8 6.3,4.2 11.07,7.38 15.84,10.54 m 62.95,-66.5 c 6.47,-3.82 12.94,-7.64 19.42,-11.45 0.24,-0.28 0.47,-0.57 0.72,-0.86 -0.34,0.2 -0.68,0.38 -1.02,0.57 -1.52,3.97 -3.05,7.94 -4.57,11.9 l -0.27,-0.27 c 5.69,-6.27 11.39,-12.52 17.08,-18.78 0.17,-0.11 0.34,-0.22 0.51,-0.34 -0.25,0.03 -0.5,0.07 -0.75,0.1 -1.9,5.06 -3.58,10.22 -5.77,15.15 -2.37,5.3 -5.21,10.37 -7.85,15.55 0.78,0.38 1.55,0.77 2.32,1.16 l 18.85,-35.84 c -0.57,-0.3 -1.15,-0.59 -1.72,-0.91 3.02,-2.84 6.03,-5.7 9.05,-8.54 -0.61,-0.93 -1.22,-1.85 -1.83,-2.76 -17.73,4.83 -30.03,20.1 -47.28,26.73 -13.98,-7.93 -28.26,-16.07 -42.63,-24.05 -0.33,-0.18 -1.63,1.42 -4.07,3.64 11.19,8.71 21.97,17.14 33.36,26.02 -10.66,8.16 -27.34,9.14 -28.69,26.58 -15.95,-8.59 -31.84,-15.34 -45.6,-25.08 -13.79,-9.75 -25.47,-22.5 -38.06,-33.93 -0.63,0.48 -1.24,0.96 -1.86,1.44 0.57,1.2 0.86,2.7 1.77,3.54 15.1,14.13 28.93,29.59 47.28,40.07 18.72,10.7 37.03,22.16 54.91,34.18 11.37,7.63 21.96,16.69 19.81,34.57 7.48,4.8 15.34,9.84 23.92,15.34 -6.35,15.89 -16.68,30.86 -11.89,50.04 -5.59,-4.27 -11.62,-8.09 -16.69,-12.91 -18.32,-17.38 -35.82,-35.18 -41.24,-61.56 -2.89,-14.07 -19.58,-22.03 -33.99,-17.6 -26.52,-28.93 -48.58,-62.26 -80.04,-86.85 -0.95,-0.74 -2.88,-0.26 -5.79,-0.44 1.21,3.02 1.65,5.2 2.82,6.85 3.01,4.22 6.16,8.38 9.56,12.31 18.28,21.11 36.68,42.14 55.02,63.2 2.63,3.03 5.39,5.93 7.81,9.12 13.58,17.88 16.95,20.48 37.2,28.16 16.09,33.91 42.09,58.5 71.8,78.47 12.35,-0.95 20.38,-6.32 26.38,-14.95 9.3,-13.34 21.02,-24 35.13,-32.04 11.01,-6.26 19.21,-14.98 26.27,-25.6 7.25,-10.93 16.15,-20.84 24.97,-30.61 7.31,-8.07 11.28,-17.09 12.29,-27.89 0.91,-9.91 2.68,-19.74 3.95,-28.77 9.89,-11.36 27.73,-12.54 32.17,-31.3 -4.94,0.35 -9.81,-0.77 -12.46,1.16 -11.41,8.32 -22.16,17.53 -34.25,27.3 -0.57,-9.02 -1.08,-17.56 -1.62,-26.09 l -2.7,-0.38 c -0.52,3.31 -1.35,6.63 -1.52,9.95 -0.94,18.71 -1.68,37.43 -2.58,56.15 -0.13,2.76 0.26,6.35 -1.25,8.14 -10.02,12.05 -20.51,23.71 -30.83,35.48 -0.35,2.09 -0.68,4.18 -1.02,6.27 -1.28,0.35 -2.57,0.71 -3.86,1.09 l -0.47,6.62 c -0.17,-0.04 -0.34,-0.07 -0.51,-0.1 0.27,-0.02 0.53,-0.06 0.79,-0.09 0.19,-2.02 0.37,-4.04 0.55,-6.06 1.27,-0.39 2.56,-0.75 3.83,-1.14 l 0.91,-6.3 c 7.75,-16.68 13.89,-33.74 15.45,-52.36 0.67,-8.25 4.1,-16.23 5.54,-24.45 1.12,-6.35 1.09,-12.89 -0.17,-19.61 -0.66,0.88 -1.75,1.66 -1.9,2.61 -2.07,13.29 -2.82,26.91 -6.25,39.84 -7.17,26.93 -14.71,54.04 -33.48,75.82 -4.85,5.64 -12.12,9.14 -17.36,14.52 -6.39,6.53 -11.59,14.2 -17.73,21 -3.48,3.84 -7.78,6.91 -12.75,9.27 3.24,-10.5 8.13,-19.47 17.36,-25.4 7.59,-4.87 12.57,-11.53 16.47,-19.9 4.31,-9.27 11.34,-17.25 16.27,-26.31 8.19,-15.04 14.98,-30.75 18.01,-47.79 0.4,-2.23 0.41,-4.53 0.62,-6.8 l -2.55,-0.91 c -1.25,3.23 -2.86,6.39 -3.71,9.75 -5.8,22.96 -17.21,43.09 -28.47,63.8 -9.42,17.36 -26.78,25.83 -35.98,42.65 -5.66,-12.52 -2,-29.57 8.16,-39.84 9.96,-10.06 17.13,-21.72 20.88,-35.41 l 0.07,0.25 c -3.03,3.37 -6.38,6.53 -9.03,10.19 -3.47,4.81 -6.4,10.02 -11.02,17.36 -2.54,-2.71 -4.26,-4.54 -5.52,-5.88 22.76,-42.92 36.84,-88.12 32.35,-106.58 -6.31,36.42 -14.82,72.03 -37.42,102.89 -2.07,-0.73 -4.04,-1.09 -5.67,-2.02 -2.39,-1.35 -4.55,-3.1 -6.83,-4.69 -1.24,-6.84 -2.43,-13.43 -3.63,-20.01 l 0.27,0.24 c -2.18,-1.43 -4.34,-2.9 -7.06,-4.7 4.19,-7.88 8.02,-15.02 11.83,-22.16 -0.77,-0.59 -1.54,-1.16 -2.32,-1.73 -1.95,2.75 -3.98,5.43 -5.84,8.23 -2.16,3.27 -4.17,6.62 -6.79,10.82 -2.77,-1.96 -5.09,-3.6 -7.35,-5.18 3.63,-6.89 6.85,-13.03 10.1,-19.17 l 0.27,0.19 c -4.71,5.16 -9.42,10.3 -14.46,15.84 -2.61,-1.73 -4.83,-3.18 -7.19,-4.73 3.94,-5.79 7.82,-10.84 10.86,-16.36 0.86,-1.55 -0.73,-4.45 -1.21,-6.73 -3.82,7.41 -6.99,15.36 -15.72,19.66 0.73,-14.75 2.24,-16.61 15.49,-19.89 4.44,-3.08 8.67,-6.59 13.43,-9.04 2.28,-1.16 5.6,-0.36 8.46,-0.45"
         style="fill:#231f20;fill-opacity:1;fill-rule:nonzero;stroke:none"
         id="path5254" />
      <path
         d="m 2347.21,3716.29 c 21.38,-20.06 35.19,-45.27 49.04,-70.45 -0.65,-0.44 -1.3,-0.88 -1.94,-1.32 -15.7,23.92 -31.4,47.84 -47.1,71.77"
         style="fill:#231f20;fill-opacity:1;fill-rule:nonzero;stroke:none"
         id="path5256" />
      <path
         d="m 2374.3,3652.36 c 3.41,-6.95 8.03,-13.59 10,-20.93 4.1,-15.36 6.88,-31.07 9.97,-46.7 0.4,-2 -0.65,-4.28 -1.03,-6.43 -0.9,-0.07 -1.8,-0.12 -2.7,-0.16 -0.9,8.29 -1.4,16.65 -2.83,24.84 -1.44,8.25 -3.65,16.36 -5.82,24.45 -2.28,8.45 -4.91,16.8 -7.38,25.2"
         style="fill:#231f20;fill-opacity:1;fill-rule:nonzero;stroke:none"
         id="path5258" />
      <path
         d="m 2357.36,3618.96 c -7.22,14.05 -14.43,28.12 -21.65,42.17 0.8,0.39 1.59,0.76 2.39,1.16 8.85,-13.12 19.57,-25.33 18.98,-43.06"
         style="fill:#231f20;fill-opacity:1;fill-rule:nonzero;stroke:none"
         id="path5260" />
      <path
         d="m 2418.58,3609.53 c 1.68,-9.64 3.36,-19.29 5.04,-28.94 l -4,-0.73 -5.27,28.89 c 1.41,0.26 2.82,0.53 4.23,0.78"
         style="fill:#231f20;fill-opacity:1;fill-rule:nonzero;stroke:none"
         id="path5262" />
      <path
         d="m 2326.64,3650.8 c 5.18,-8 10.37,-16.01 15.55,-24 -7.14,2.77 -9.9,8.09 -15.28,24.24"
         style="fill:#231f20;fill-opacity:1;fill-rule:nonzero;stroke:none"
         id="path5264" />
      <path
         d="m 2407.39,3598.03 c 0.5,-7.11 1,-14.21 1.5,-21.32 -1.03,-0.13 -2.05,-0.24 -3.08,-0.36 -0.83,7.15 -1.66,14.31 -2.49,21.46 1.36,0.07 2.71,0.15 4.07,0.22"
         style="fill:#231f20;fill-opacity:1;fill-rule:nonzero;stroke:none"
         id="path5266" />
      <path
         d="m 2398.33,3635.45 c 6.05,-7.93 7.42,-17.09 5.34,-27.17 -1.75,9.17 -3.49,18.33 -5.24,27.49"
         style="fill:#231f20;fill-opacity:1;fill-rule:nonzero;stroke:none"
         id="path5268" />
      <path
         d="m 2467.5,3579.57 c 0.18,-3.89 0.36,-7.77 0.54,-11.67 -0.93,-0.04 -1.86,-0.09 -2.79,-0.14 v 11.66 c 0.75,0.05 1.5,0.1 2.25,0.15"
         style="fill:#231f20;fill-opacity:1;fill-rule:nonzero;stroke:none"
         id="path5270" />
      <path
         d="m 2367.93,3579.64 c -0.72,3.85 -1.43,7.71 -2.16,11.56 0.28,0.06 0.57,0.11 0.86,0.17 1,-3.78 2,-7.57 3,-11.36 -0.56,-0.13 -1.13,-0.24 -1.7,-0.37"
         style="fill:#231f20;fill-opacity:1;fill-rule:nonzero;stroke:none"
         id="path5272" />
      <path
         d="m 2321.87,3612.26 4.76,-11.95 0.31,0.21 c -1.59,4.01 -3.19,8.01 -4.79,12.01"
         style="fill:#231f20;fill-opacity:1;fill-rule:nonzero;stroke:none"
         id="path5274" />
      <path
         d="m 2421.11,3566.15 c -1.26,0.83 -2.52,1.66 -3.79,2.5 0.6,0.84 1.56,2.48 1.72,2.39 1.32,-0.61 2.49,-1.56 3.7,-2.4"
         style="fill:#231f20;fill-opacity:1;fill-rule:nonzero;stroke:none"
         id="path5276" />
      <path
         d="m 2434.82,3567.86 c -0.86,1.09 -1.71,2.19 -2.58,3.28 0.53,0.42 1.07,0.84 1.6,1.26 0.86,-1.09 1.72,-2.2 2.59,-3.29 -0.55,-0.42 -1.07,-0.83 -1.61,-1.25"
         style="fill:#231f20;fill-opacity:1;fill-rule:nonzero;stroke:none"
         id="path5278" />
      <path
         d="m 2337.81,3601.74 c 1.87,-2.13 3.75,-4.27 5.62,-6.41 l 0.29,0.29 c -1.92,2.1 -3.84,4.2 -5.76,6.31"
         style="fill:#231f20;fill-opacity:1;fill-rule:nonzero;stroke:none"
         id="path5280" />
      <path
         d="m 2373.34,3659.29 c 0.32,-2.31 0.64,-4.63 0.96,-6.93 l 0.2,0.27 c -0.36,2.3 -0.73,4.6 -1.09,6.9"
         style="fill:#231f20;fill-opacity:1;fill-rule:nonzero;stroke:none"
         id="path5282" />
      <path
         d="m 2398.43,3635.77 c -0.1,0.54 -0.21,1.06 -0.41,2.09 0.15,-1.14 0.23,-1.78 0.31,-2.41"
         style="fill:#231f20;fill-opacity:1;fill-rule:nonzero;stroke:none"
         id="path5284" />
      <path
         d="m 2319.47,3617.15 c 0.8,-1.63 1.6,-3.26 2.4,-4.89 l 0.28,0.27 c -0.81,1.6 -1.61,3.2 -2.41,4.81"
         style="fill:#231f20;fill-opacity:1;fill-rule:nonzero;stroke:none"
         id="path5286" />
      <path
         d="m 2336.49,3607.91 c -0.48,0.59 -0.96,1.17 -0.51,0.62 -0.12,0.6 0.03,-0.15 0.18,-0.9"
         style="fill:#231f20;fill-opacity:1;fill-rule:nonzero;stroke:none"
         id="path5288" />
      <path
         d="m 2336.16,3607.63 c 0.55,-1.96 1.1,-3.93 1.65,-5.89 l 0.15,0.19 c -0.49,1.99 -0.98,3.99 -1.47,5.98"
         style="fill:#231f20;fill-opacity:1;fill-rule:nonzero;stroke:none"
         id="path5290" />
      <path
         d="m 2326.63,3600.3 c 0.84,-1.62 1.68,-3.24 2.52,-4.85 l 0.26,0.19 c -0.83,1.63 -1.65,3.25 -2.47,4.88"
         style="fill:#231f20;fill-opacity:1;fill-rule:nonzero;stroke:none"
         id="path5292" />
      <path
         d="m 2357.08,3619.23 c 0.21,-0.11 0.43,-0.21 0.64,-0.3 l -0.36,0.03"
         style="fill:#231f20;fill-opacity:1;fill-rule:nonzero;stroke:none"
         id="path5294" />
    </g>
  </g>
</svg>
