<?xml version="1.0" encoding="UTF-8" standalone="no"?>
<!-- Created with Inkscape (http://www.inkscape.org/) -->

<svg
   version="1.1"
   id="svg2"
   width="38.248032"
   height="23.850588"
   viewBox="0 0 38.248031 23.850587"
   xmlns="http://www.w3.org/2000/svg"
   xmlns:svg="http://www.w3.org/2000/svg">
  <defs
     id="defs6" />
  <g
     id="g10"
     transform="matrix(1.3333333,0,0,-1.3333333,-184.29199,119.64945)">
    <g
       id="g12"
       transform="scale(0.1)">
      <path
         d="m 1525.48,831.672 c 0.15,0.641 0.23,1.019 0.32,1.391 -0.2,-0.083 -0.57,-0.153 -0.57,-0.243 -0.02,-0.277 0.11,-0.558 0.25,-1.148 m 41.04,-49.379 c -0.46,8.227 0.24,16.988 -11.12,19.84 2.44,-8.153 1.89,-16.692 11.12,-19.84 m 4.03,12.117 c 1.1,-13.437 2.39,-14.75 13.69,-13.898 -1.84,4.41 -3.57,8.578 -5.34,12.828 -3.09,0.402 -5.62,0.723 -8.35,1.07 m 2.84,-42.68 -3.37,1.262 c -2.78,-5.762 -5.56,-11.519 -8.93,-18.531 h 19.34 c -2.58,6.32 -4.81,11.789 -7.04,17.269 m -110.25,90.84 c -7.03,-17.668 7.61,-28.949 6.25,-42.918 4.12,-2.75 7.85,-5.23 11.58,-7.711 0.9,0.629 1.8,1.25 2.71,1.891 -6.52,15.461 -13.03,30.93 -20.54,48.738 m 87.76,15.981 c -0.9,-0.071 -1.81,-0.141 -2.71,-0.211 -1.58,-25.367 -10.93,-51.297 6.62,-75.309 -2.54,14.512 -5.07,29.032 -7.6,43.539 l 2.34,0.532 c 0.83,-1.469 1.66,-2.961 2.49,-4.43 0.58,0.051 1.16,0.098 1.75,0.16 -0.97,11.91 -1.92,23.809 -2.89,35.719 M 1509.72,834 c 3.28,-22.277 9.58,-41.91 20.29,-62.527 2.41,5.418 3.9,8.757 5.39,12.097 -0.75,0.02 -1.5,0.051 -2.24,0.071 -3.88,15.699 -7.76,31.379 -11.68,47.281 -3.4,0.891 -6.79,1.789 -11.76,3.078 m -9.24,-51.879 c 2.74,-1.66 5.49,-3.308 9.67,-5.828 -0.2,3.207 -0.29,4.566 -0.37,5.937 2.23,-7.48 7.54,-10.187 16.14,-10.531 -14.69,28.563 -20.48,58.114 -23.05,88.512 -0.37,4.371 -2.46,8.582 -3.76,12.871 -1.05,-0.082 -2.11,-0.16 -3.16,-0.242 -0.91,-4.399 -3.07,-8.957 -2.51,-13.168 2.21,-16.52 4.82,-33.012 8.17,-49.34 1.99,-9.672 5.62,-19.012 8.51,-28.492 -13.28,22.75 -19.39,47.582 -22.18,74 -1.59,-3.449 -3.17,-6.891 -4.61,-10.047 1.46,-5.262 2.71,-9.852 4.01,-14.434 4.42,-15.636 8.87,-31.269 13.31,-46.898 -3.13,6.738 -6.84,13.269 -9.25,20.262 -3.1,8.949 -5.15,18.269 -8.02,28.797 -2.58,-5.707 -4.45,-9.829 -6.51,-14.399 2.73,-7.922 5.87,-16.09 8.34,-24.461 2.32,-7.859 7.05,-12.16 15.27,-12.539 M 1528.79,820 v 5 c -0.5,-0.109 -0.99,-0.207 -1.48,-0.309 0.57,-1.5 1.15,-2.98 1.73,-4.468 2.26,-9.942 4.2,-19.973 6.92,-29.774 1.14,-4.066 3.78,-8 9.35,-5.019 -1.81,9.332 -3.53,18.179 -5.23,26.953 -3.79,2.558 -7.54,5.09 -11.29,7.617 m -64.54,-13.93 0.49,-0.179 -0.74,-0.141 -3.21,13.27 -3.82,-1.61 z m -8.25,55.45 c 11.25,0.871 10.09,-9.489 15.97,-13.161 8.08,16.454 16.04,32.684 24.06,49.012 12.53,-3.68 9.06,-14.801 12.43,-22.121 3.64,-7.93 6.05,-16.41 9.03,-24.707 3.59,0.328 6.89,0.629 10.73,0.977 2.51,-4.438 4.81,-8.508 7.67,-13.54 6.37,17.629 0.95,34.52 0.09,51.27 l 2.3,1.582 c 2.9,-2.531 6.36,-4.652 8.62,-7.672 10.13,-13.488 15.09,-28.898 15.82,-45.711 0.27,-6.398 0.12,-12.828 0.83,-19.168 0.44,-3.98 2.12,-7.82 3.24,-11.73 1.16,0.07 2.31,0.14 3.46,0.199 1.83,13.102 3.65,26.199 5.53,39.672 11,2.18 10.76,-10.313 19.29,-13.981 3.34,13.43 6.62,26.602 9.96,40.032 7.86,1.679 8.02,-3.91 9.29,-8.953 6.44,-25.54 13.06,-51.028 19.69,-76.52 0.59,-2.277 1.63,-4.449 2.31,-6.27 19.7,-13.019 35.25,-40.628 32.39,-58.988 -15.89,6.141 -9.79,25.41 -21.98,34.129 2.18,-10.172 4.16,-19.398 6.13,-28.621 -0.73,-0.187 -1.46,-0.367 -2.19,-0.57 -1.62,6.211 -3.41,12.383 -4.8,18.633 -1.56,7 -2.75,14.07 -4.13,21.289 -4.02,2.168 -7.84,4.218 -13.14,7.078 4.11,-20.469 10.81,-38.18 23.32,-53.59 -0.81,-0.539 -1.61,-1.078 -2.41,-1.598 -2.74,3.18 -5.98,6.059 -8.14,9.598 -12.45,20.453 -17.9,43.43 -23.31,66.359 -3.18,13.473 -5.63,27.094 -10.48,40.864 -1.99,-5.551 -3.98,-11.114 -6.55,-18.27 -6.07,3.328 -10.75,5.898 -15.97,8.77 -5.45,-15.622 -4.13,-30.602 4.75,-45.09 v 35.558 c 3.08,-31.281 12.04,-60.968 24.27,-92.179 -15.15,12.269 -11.97,30.3 -20.13,43.39 -6.56,-6.769 -6.46,-7.191 7,-34.73 -7.14,3.09 -6.69,3.597 -15.63,29.039 -2.72,-1.692 -5.3,-3.301 -9.12,-5.692 4.43,-10.828 8.72,-21.316 13.97,-34.148 -12.92,1.262 -24.33,2.379 -35.61,3.48 -5.66,22.09 6.34,33.661 21.22,45.461 -10.76,1.457 -21.53,2.918 -32.72,4.438 -2.39,-4.738 -4.49,-8.91 -6.5,-12.891 -16.74,-2.969 -50.78,13.781 -82.39,40.91 -2.87,-7 -6.38,-13.218 -7.96,-19.886 -3.65,-15.383 -11.16,-27.903 -23.57,-37.774 -9.06,-7.199 -17.52,-15.168 -26.52,-22.469 -3.97,-3.218 -8.63,-6.437 -13.93,0.731 2.41,2.512 4.63,5.16 7.18,7.449 5.05,4.551 10.11,9.102 15.45,13.301 16.75,13.172 27.56,29.371 34.29,50.281 5.14,15.981 10.14,31.469 11.74,48.188 0.58,6.179 3.34,12.14 5.15,18.34"
         style="fill:#231f20;fill-opacity:1;fill-rule:nonzero;stroke:none"
         id="path6678" />
      <path
         d="m 1476.53,757.969 c -7.88,-18.59 -24.17,-27.321 -41.28,-35.008 -1.1,-0.492 -2.86,0.519 -7.29,1.469 17.64,12.031 33.25,22.66 48.86,33.3"
         style="fill:#231f20;fill-opacity:1;fill-rule:nonzero;stroke:none"
         id="path6680" />
      <path
         d="m 1620.37,753.672 c -10.95,15.531 -13.61,33.383 -14.41,51.769 4.74,-17.339 9.46,-34.66 14.2,-51.988"
         style="fill:#231f20;fill-opacity:1;fill-rule:nonzero;stroke:none"
         id="path6682" />
      <path
         d="m 1476.82,757.727 c 0.09,0.468 0.19,0.937 0.18,0.918 0.03,0.05 -0.22,-0.309 -0.47,-0.68"
         style="fill:#231f20;fill-opacity:1;fill-rule:nonzero;stroke:none"
         id="path6684" />
      <path
         d="m 1620.15,753.449 0.43,-0.269 -0.22,0.488"
         style="fill:#231f20;fill-opacity:1;fill-rule:nonzero;stroke:none"
         id="path6686" />
      <path
         d="m 1500.34,784.797 c 0.01,-0.992 0.01,-1.973 0.02,-2.949 -0.01,0.976 -0.01,1.957 -0.02,2.949"
         style="fill:#231f20;fill-opacity:1;fill-rule:nonzero;stroke:none"
         id="path6688" />
    </g>
  </g>
</svg>
