<?xml version="1.0" encoding="UTF-8" standalone="no"?>
<!-- Created with Inkscape (http://www.inkscape.org/) -->

<svg
   version="1.1"
   id="svg2"
   width="31.394684"
   height="20.948059"
   viewBox="0 0 31.394684 20.948058"
   xmlns="http://www.w3.org/2000/svg"
   xmlns:svg="http://www.w3.org/2000/svg">
  <defs
     id="defs6" />
  <g
     id="g10"
     transform="matrix(1.3333333,0,0,-1.3333333,-260.42398,289.37608)">
    <g
       id="g12"
       transform="scale(0.1)">
      <path
         d="m 2098.19,2095.82 c 1.37,0.52 2.73,1.04 4.09,1.55 -1.25,3.63 -2.5,7.26 -3.75,10.88 -1.28,-0.44 -2.55,-0.88 -3.82,-1.32 1.16,-3.7 2.32,-7.4 3.48,-11.11 m -16.87,-47.36 c -3.81,4.95 -6.22,8.09 -8.63,11.23 -0.55,-0.24 -1.1,-0.48 -1.66,-0.73 0.28,-3.6 0.54,-7.21 0.84,-11.18 3.1,0.23 4.98,0.35 9.45,0.68 m -44.56,31.68 c 1.44,0.19 2.89,0.39 4.33,0.58 -0.92,5.17 -1.84,10.32 -2.75,15.48 -1.1,-0.17 -2.19,-0.34 -3.27,-0.51 0.56,-5.18 1.12,-10.37 1.69,-15.55 m -7.13,4.69 v -18.15 c 8.35,6.2 4.03,12.19 0,18.15 m 12.72,38.68 c -4.4,-11.15 -0.59,-21.25 3.7,-32.87 6.84,12.77 -0.08,22.67 -3.7,32.87 m 50.18,-2.76 c -14.21,14.41 -25.77,28.06 -43.88,38.51 -1.48,-6.36 -3.92,-11.2 -3.35,-15.66 1.11,-8.52 3.16,-17.12 6.21,-25.15 6.13,-16.17 3.52,-30.49 -7.16,-43.62 -5.59,-6.87 -8.63,-16.05 -19.92,-21.63 v 30.08 c -1.48,0.47 -2.96,0.93 -4.44,1.4 -12.2,-12.55 -15.5,-30.93 -27.39,-44.71 5.51,-5.9 10.45,-11.19 14.07,-15.06 17.49,13.09 33.15,25.39 49.44,36.78 10.25,7.18 21.78,11.65 34.9,9.79 2.51,-0.35 5.19,0.5 9.16,0.96 -8.52,15.95 -19.57,30.64 -7.64,48.31 m -4.94,-71.12 c -0.83,0.81 -1.66,1.63 -2.49,2.44 -0.29,5.6 -3.03,9.26 -9.27,10.03 3.19,-3.24 6.37,-6.49 9.56,-9.74 0.82,-0.82 1.65,-1.63 2.48,-2.45 0.4,-0.31 0.8,-0.61 0.71,-0.55 0.07,-0.01 -0.46,0.13 -0.99,0.27 m 17.65,32.07 c 2.2,-5.77 4.4,-11.54 6.6,-17.32 l 0.25,0.23 h -13.65 c 13.38,-13.88 25.15,-26.08 36.9,-38.27 -0.51,-0.73 -1.04,-1.47 -1.56,-2.2 -2.99,2.3 -6.27,4.31 -8.91,6.95 -9.31,9.35 -18.26,19.06 -27.67,28.29 -2.68,2.63 -6.46,4.14 -10.52,5.08 6.88,-15.18 23.25,-22.69 27.76,-39.3 -3.56,3.37 -7.13,6.76 -10.93,10.37 -3.37,-8.79 -3.62,-18.79 -16.26,-22.32 3.34,9.08 6.15,16.75 9.77,26.6 -11,0.63 -19.54,1.12 -29.56,1.69 -1.44,4.85 -2.96,9.96 -5.08,17.08 -19.1,-12.29 -37.4,-25.01 -53.66,-42.93 -9.31,8.95 -17.76,17.05 -27.3,26.21 -7.07,-9.67 -13.28,-18.17 -20.17,-27.58 -2.99,2.35 -5.21,4.11 -8.07,6.36 6.43,10.24 12.33,19.62 18.24,29 4.98,0.56 9.29,1.05 15.39,1.74 7.26,13.32 15.03,27.56 22.67,41.57 4.53,1.4 8.29,2.56 13.25,4.09 3.27,15.68 6.71,31.98 10.03,48.29 0.55,2.74 0.43,5.6 0.93,8.34 3.13,17.16 15.13,21.79 28.15,10.44 11.14,-9.71 23.98,-18.57 31.94,-30.56 13.33,-20.04 33.8,-30.89 51.16,-45.68 15.97,-13.61 30.89,-27.88 40.01,-47.12 1.81,-3.83 2.4,-8.22 3.69,-12.84 -9.84,-1.49 -11.59,4.69 -13.89,9.35 -13.88,28.17 -38.68,45.13 -63.36,62.24 -0.94,0.66 -2.17,0.93 -3.3,1.29 -0.32,0.11 -0.75,-0.11 -3.5,-0.57 2.94,-3.41 4.74,-6.79 7.55,-8.58 20.5,-13.05 36.56,-30.84 52.5,-48.74 4.08,-4.58 7.18,-10.05 9.71,-15.95 -20.98,22.88 -40.37,47.2 -68.84,62.13 20.81,-21.77 41.62,-43.53 62.43,-65.31 -0.75,-0.88 -1.5,-1.76 -2.25,-2.64 -3.2,2.73 -6.62,5.23 -9.56,8.2 -17.11,17.3 -34.12,34.71 -51.16,52.1 -0.98,0.52 -1.97,1.05 -2.95,1.58 -0.11,0.07 -0.22,0.14 -0.32,0.21"
         style="fill:#231f20;fill-opacity:1;fill-rule:nonzero;stroke:none"
         id="path6050" />
      <path
         d="m 2136.02,2038.16 c -7.97,8.82 -15.95,17.64 -23.93,26.46 l -0.25,-0.23 24,-26.43"
         style="fill:#231f20;fill-opacity:1;fill-rule:nonzero;stroke:none"
         id="path6052" />
      <path
         d="m 2135.84,2037.96 c 6.21,-4.71 12.41,-9.42 18.62,-14.13 l -2.57,-2.81 -15.87,17.14"
         style="fill:#231f20;fill-opacity:1;fill-rule:nonzero;stroke:none"
         id="path6054" />
    </g>
  </g>
</svg>
