<?xml version="1.0" encoding="UTF-8" standalone="no"?>
<!-- John Grümph
     https://legrumph.org/Terrier/public/chibi/de-chorographia
     CC BY-NC 3.0
     https://creativecommons.org/licenses/by-nc/3.0/fr/ -->
<!-- Created with Inkscape (http://www.inkscape.org/) -->

<svg
   version="1.1"
   id="svg2"
   width="53.757336"
   height="34.377258"
   viewBox="0 0 53.757335 34.377257"
   xmlns="http://www.w3.org/2000/svg"
   xmlns:svg="http://www.w3.org/2000/svg">
  <defs
     id="defs6" />
  <g
     id="g10"
     transform="matrix(1.3333333,0,0,-1.3333333,-33.131199,509.02397)">
    <g
       id="g12"
       transform="scale(0.1)">
      <path
         d="m 440.492,3667.95 c -0.09,-0.29 -0.187,-0.59 -0.277,-0.88 0.258,-0.08 0.508,-0.16 0.758,-0.23 0.082,0.28 0.23,0.58 0.179,0.84 -0.031,0.12 -0.429,0.18 -0.66,0.27 m -46.379,45.43 c -0.441,-0.61 -0.871,-1.21 -1.308,-1.81 1.527,-2.05 3.058,-4.09 4.988,-6.68 1.398,1.96 2.262,3.17 3.609,5.05 -2.789,1.32 -5.039,2.38 -7.289,3.44 m 70.239,-56.8 c -6.68,10.15 -12.25,18.61 -18.887,28.7 -2.512,-18.06 1.566,-24.25 18.887,-28.7 m 15.5,-3.93 c -6.18,11.69 -12.348,23.38 -18.731,35.44 -3.297,-1.12 -5.719,-1.93 -10.058,-3.39 9.07,-12.29 12.121,-27.64 28.789,-32.05 m 28.769,-42.33 0.391,-0.1 -0.66,-0.15 c -4.649,6.69 -9.297,13.38 -13.938,20.07 -0.531,-0.37 -1.07,-0.74 -1.609,-1.13 v -10.49 c 5.488,-2.85 10.648,-5.52 15.816,-8.2 m 103.711,14.66 c -2.801,2.53 -6.008,4.73 -8.309,7.65 -8.769,11.15 -17.25,22.54 -25.07,32.83 -5.32,2.36 -9.539,4.24 -13.769,6.12 -0.2,-0.06 -0.391,-0.1 -0.582,-0.15 l 0.832,-0.12 c 1.218,-3.86 1.699,-8.19 3.8,-11.5 7.438,-11.72 15.43,-23.08 24.539,-36.55 -8.339,2.35 -10.73,7.82 -13.71,12.49 -14.418,22.55 -28.379,45.39 -43.282,67.62 -8.437,12.59 -18.226,24.29 -27.75,36.1 -1.797,2.22 -5.226,3.11 -7.91,4.62 -0.918,-0.94 -1.84,-1.88 -2.75,-2.82 21.524,-33.68 43.051,-67.36 64.594,-101.03 -1.043,-0.72 -2.082,-1.44 -3.113,-2.15 -9.207,9.75 -14.399,22.49 -22.071,33.39 -8.258,11.75 -16.539,23.52 -24.297,35.61 -7.421,11.54 -14.179,23.52 -23.632,34.92 -0.379,-4.02 -0.75,-8.04 -1.219,-13.15 14.281,-24.11 28.82,-48.67 43.371,-73.23 -20.82,19.59 -32.512,45.14 -45.242,70.2 -2.02,0 -3.571,0.19 -5.047,-0.07 -1.102,-0.18 -2.102,-0.95 -3.453,-1.61 10.48,-31.34 27.859,-58.94 44.121,-87.2 -22.969,24.77 -38.192,54.21 -49.801,85.84 -0.93,-0.03 -1.859,-0.05 -2.777,-0.07 -1.133,-3.73 -2.262,-7.47 -3.172,-10.47 11.781,-21.85 23.051,-42.72 34.32,-63.59 -0.941,-0.51 -1.879,-1.04 -2.82,-1.57 -10.59,19.14 -21.18,38.29 -31.781,57.43 -1.118,-0.32 -2.258,-0.64 -3.387,-0.95 0.598,-4.71 -0.024,-10.02 1.988,-14.03 14.141,-28.19 28.988,-55.9 50.809,-79.35 6.992,-7.51 15.621,-10.57 24.152,-14.57 6.43,-3.02 12.949,-5.83 20.777,-7.24 -11.238,12.69 -22.476,25.38 -33.707,38.07 0.821,0.72 1.637,1.44 2.469,2.16 14.371,-15.83 28.75,-31.67 43.309,-47.71 -4.289,-6.01 -9.481,-3.46 -14.449,-1.18 -24.622,11.25 -49.2,22.6 -73.051,35.84 -6.27,-1.09 -12.528,-2.16 -18.617,-3.21 -26.102,-20.99 -53.063,-40.38 -84.641,-52.5 29.789,15.32 54.519,37.35 78.641,58.47 7.789,2.01 14.597,3.77 22.527,5.82 -0.91,6.99 -1.649,12.71 -2.301,17.73 -16.457,6.38 -31.617,12.26 -47.719,18.51 -22.539,-39.04 -57.238,-64.37 -100.23,-78.98 21.742,13.25 42.769,27.51 62.23,44.19 20.563,17.62 29.43,42.35 42.219,65.63 4.442,1.22 9.391,2.59 14.781,4.06 3.34,11.12 6.762,22.46 10.379,34.47 5.801,1.79 11.391,3.53 18.532,5.76 -0.891,4.15 -0.84,8.64 -2.739,12.06 -8.703,15.66 -17.941,31.02 -27.89,48.05 -2.063,-5.1 -4.231,-9.9 -5.93,-14.85 -4.949,-14.34 -8.852,-29.13 -14.801,-43.04 -5.449,-12.76 -12.68,-24.8 -19.851,-36.72 -2.278,-3.8 -6.86,-6.22 -11.469,-10.21 -5.18,6.85 -9.578,12.68 -14.66,19.42 -2.891,-3.72 -5.41,-6.64 -7.59,-9.8 -27.352,-39.7 -63.102,-70.84 -101.328,-99.44 -4.481,-3.35 -8.922,-6.76 -13.434,-10.08 -4.308,-3.16 -8.449,-4.56 -12.887,3.21 6.629,5.28 13.25,10.69 20.02,15.9 38.769,29.87 75.559,61.69 102.43,103.34 3.019,4.67 5.859,9.43 9.8,15.82 8.27,-3.18 16.571,-6.38 26.137,-10.06 17.621,30.79 23.133,66.55 38.16,98.54 10.043,0.57 12.153,-7.14 15.231,-13.27 6.41,-12.86 12.312,-25.95 18.691,-38.82 1.918,-3.87 4.692,-7.33 7.699,-11.92 19.832,5.64 30.922,-6.93 41.731,-20.43 14.211,-17.75 28.699,-35.28 43.89,-53.91 17.602,6.62 25.84,-6.62 35.559,-17.97 11.43,-13.34 23.652,-26.01 35.512,-38.97 2.57,-2.79 5.109,-5.61 8.32,-9.14 -7.859,-5.28 -13.101,-1.77 -17.082,2.3 -12.539,12.86 -24.609,26.18 -36.758,39.41 -3.98,4.33 -7.672,8.93 -11.492,13.4 -0.801,-0.57 -1.598,-1.14 -2.398,-1.71 5.75,-7.92 11.691,-15.71 17.191,-23.81 3.957,-5.81 7.34,-12.03 10.977,-18.06"
         style="fill:#231f20;fill-opacity:1;fill-rule:nonzero;stroke:none"
         id="path5338" />
      <path
         d="m 583.203,3585.68 -29.711,30.73 c 0.77,0.73 1.539,1.48 2.313,2.2 9.66,-10.47 19.316,-20.95 28.988,-31.43 -0.531,-0.5 -1.059,-1 -1.59,-1.5"
         style="fill:#231f20;fill-opacity:1;fill-rule:nonzero;stroke:none"
         id="path5340" />
      <path
         d="m 580.602,3612.54 c -4.231,4.61 -8.461,9.22 -12.7,13.82 0.86,0.67 1.707,1.35 2.559,2.02 4.711,-4.4 10.23,-8.26 9.82,-16.14"
         style="fill:#231f20;fill-opacity:1;fill-rule:nonzero;stroke:none"
         id="path5342" />
      <path
         d="m 598.199,3618.34 14,-17.26 c -0.722,-0.54 -1.453,-1.09 -2.179,-1.63 -4.801,5.49 -10.204,10.53 -11.551,18.58"
         style="fill:#231f20;fill-opacity:1;fill-rule:nonzero;stroke:none"
         id="path5344" />
      <path
         d="m 547.668,3627.49 c -2.383,3.72 -4.773,7.45 -7.152,11.17 0.742,0.53 1.48,1.05 2.218,1.57 2.59,-3.49 5.161,-6.99 7.75,-10.48 -0.949,-0.76 -1.879,-1.51 -2.816,-2.26"
         style="fill:#231f20;fill-opacity:1;fill-rule:nonzero;stroke:none"
         id="path5346" />
      <path
         d="m 619.285,3612.71 c 3.274,-2.18 6.543,-4.36 9.813,-6.53 l -3.34,-3.2 c -2.051,3.34 -4.11,6.68 -6.172,10.03"
         style="fill:#231f20;fill-opacity:1;fill-rule:nonzero;stroke:none"
         id="path5348" />
      <path
         d="m 583.34,3610.37 c 3.488,-2.58 6.98,-5.16 10.469,-7.74 -5.868,0.06 -9.938,2.05 -10.278,7.94"
         style="fill:#231f20;fill-opacity:1;fill-rule:nonzero;stroke:none"
         id="path5350" />
      <path
         d="m 523.516,3615.38 c -3.36,3.8 -6.731,7.6 -10.098,11.39 l -0.313,-0.28 c 3.403,-3.78 6.801,-7.56 10.2,-11.32"
         style="fill:#231f20;fill-opacity:1;fill-rule:nonzero;stroke:none"
         id="path5352" />
      <path
         d="m 530.859,3608.1 0.711,-0.25 -0.332,0.6"
         style="fill:#231f20;fill-opacity:1;fill-rule:nonzero;stroke:none"
         id="path5354" />
      <path
         d="m 528.484,3610.61 c 0.793,-0.84 1.582,-1.67 2.371,-2.51 l 0.379,0.35 c -0.808,0.82 -1.609,1.65 -2.418,2.48"
         style="fill:#231f20;fill-opacity:1;fill-rule:nonzero;stroke:none"
         id="path5356" />
      <path
         d="m 580.277,3612.24 c 1.02,-0.62 2.039,-1.24 3.063,-1.87 l 0.187,0.2 c -0.98,0.65 -1.949,1.32 -2.929,1.97"
         style="fill:#231f20;fill-opacity:1;fill-rule:nonzero;stroke:none"
         id="path5358" />
      <path
         d="m 525.727,3612.77 c 0.921,-0.72 1.839,-1.45 2.761,-2.16 l 0.328,0.32 c -0.957,0.68 -1.91,1.37 -2.867,2.07"
         style="fill:#231f20;fill-opacity:1;fill-rule:nonzero;stroke:none"
         id="path5360" />
      <path
         d="m 619.59,3613.01 -0.371,0.07 0.07,-0.36"
         style="fill:#231f20;fill-opacity:1;fill-rule:nonzero;stroke:none"
         id="path5362" />
      <path
         d="m 525.945,3613 c -0.808,0.79 -1.617,1.59 -2.429,2.38 l -0.207,-0.21 c 0.796,-0.8 1.609,-1.6 2.418,-2.39"
         style="fill:#231f20;fill-opacity:1;fill-rule:nonzero;stroke:none"
         id="path5364" />
      <path
         d="m 598.473,3618.03 c -0.2,0.14 -0.403,0.27 -0.59,0.41 0.109,-0.04 0.211,-0.07 0.32,-0.1"
         style="fill:#231f20;fill-opacity:1;fill-rule:nonzero;stroke:none"
         id="path5366" />
      <path
         d="m 612.105,3624.75 c 0.54,-0.22 1.079,-0.44 1.618,-0.66 -0.457,0.3 -0.93,0.59 -1.387,0.89"
         style="fill:#231f20;fill-opacity:1;fill-rule:nonzero;stroke:none"
         id="path5368" />
      <path
         d="m 513.418,3626.77 c -0.102,-0.09 -0.211,-0.18 -0.309,-0.27"
         style="fill:#231f20;fill-opacity:1;fill-rule:nonzero;stroke:none"
         id="path5370" />
      <path
         d="m 508.871,3633.96 0.551,0.12 -0.84,0.12"
         style="fill:#231f20;fill-opacity:1;fill-rule:nonzero;stroke:none"
         id="path5372" />
      <path
         d="m 508.586,3634.2 c 0.109,0.19 0.207,0.37 0.316,0.55 l -0.027,-0.79"
         style="fill:#231f20;fill-opacity:1;fill-rule:nonzero;stroke:none"
         id="path5374" />
    </g>
  </g>
</svg>
