<?xml version="1.0" encoding="UTF-8" standalone="no"?>
<!-- Created with Inkscape (http://www.inkscape.org/) -->

<svg
   version="1.1"
   id="svg2"
   width="35.32666"
   height="20.494751"
   viewBox="0 0 35.32666 20.49475"
   xmlns="http://www.w3.org/2000/svg"
   xmlns:svg="http://www.w3.org/2000/svg">
  <defs
     id="defs6" />
  <g
     id="g10"
     transform="matrix(1.3333333,0,0,-1.3333333,-247.30533,323.14408)">
    <g
       id="g12"
       transform="scale(0.1)">
      <path
         d="m 1917.55,2338.03 -0.5,-2.67 c 5.33,-3.4 10.65,-6.81 15.97,-10.22 0.52,0.6 1.05,1.19 1.59,1.79 -2.41,3.81 -4.8,7.62 -7.27,11.56 -3.71,-0.18 -6.75,-0.31 -9.79,-0.46 m 146.29,-1.61 c -5.87,-10.6 -1.91,-18.06 12.43,-26.66 -4.06,8.7 -7.89,16.92 -12.43,26.66 m 8.21,70.39 c -2.85,-22.84 0.94,-39.5 8.99,-44.62 -3.11,15.42 -6.05,30.02 -8.99,44.62 m -44.46,-54.96 c 1.3,0.53 2.59,1.04 3.89,1.57 -5.28,13.75 -10.46,27.52 -16,41.16 -0.43,1.09 -3.21,1.21 -7.89,2.8 7.2,-17 9.84,-32.96 20,-45.53 m 19.7,-27.53 c 21.73,20.63 28.51,42.76 18.12,69.49 -1.01,-1.09 -2.03,-1.76 -2.43,-2.69 -5.46,-12.54 -8.82,-26.11 -21.28,-34.77 -2.82,-1.95 -3.86,-9.09 -2.93,-13.21 1.41,-6.26 5.27,-11.97 8.52,-18.82 m -27.13,30.67 -0.77,-0.37 0.41,0.28 c -4.37,12.08 -8.74,24.16 -13.37,36.99 -5.88,-11 2.25,-33.27 12.66,-37.31 0.25,-0.1 0.71,0.27 1.07,0.41 m -18.14,12.58 v 1.4 c 0,-0.04 -0.09,-0.63 -0.18,-1.2 1.82,-4.37 3.65,-8.73 5.5,-13.1 1,0.55 2,1.1 3,1.65 -2.78,3.75 -5.55,7.5 -8.32,11.25 m 27.19,8.42 c -0.32,0.52 -0.62,1.04 -0.39,0.63 -0.48,0.25 0.13,-0.05 0.72,-0.35 l 1.85,-7.41 0.5,-5.1 c 0.59,0.23 1.18,0.44 1.76,0.67 l -2.49,4.24 c -0.64,2.45 -1.3,4.88 -1.95,7.32 m 49.77,-101.04 c -12.23,16.57 -24.46,33.13 -36.68,49.69 3.51,-17.04 13.47,-31.24 21.77,-46.31 -12.14,9.1 -15.84,23.92 -24.86,35.42 -0.47,-13.45 9.6,-22.78 12.83,-35.39 -3.23,4.46 -6.7,8.77 -9.58,13.44 -2.87,4.67 -5.17,9.7 -8.99,16.94 -2.02,-4.25 -3.18,-6.67 -4.34,-9.1 l 0.26,0.26 c -4.74,-0.18 -7.83,-2 -7.39,-7.37 l 0.27,0.27 c -2.39,-0.5 -4.75,-1 -8.04,-1.67 1.45,-3.34 2.47,-5.67 3.47,-7.99 l 0.26,0.21 c -2.46,0.87 -4.92,1.74 -7.25,2.56 -7.33,-2.72 -11.87,-12.97 -23.76,-8.94 16.91,15.49 32.28,29.59 47.27,43.32 -0.49,7.86 -0.86,14.1 -1.2,19.54 -14.28,8.18 -24.91,7.29 -33,-0.54 -0.93,-9.31 0.8,-18.62 -2.97,-24.23 -8.1,-12.03 -17.37,-23.99 -32.56,-28.74 -5.28,-1.65 -10.13,-4.68 -15.4,-6.39 -3.1,-1 -6.63,-0.65 -10.7,1.04 19.91,11.88 43.22,18.49 53.72,43.42 -0.57,4.14 -1.39,10 -2.22,15.96 3.72,4.03 7.2,7.78 10.86,11.74 -1.44,4.76 -2.51,9.42 -4.25,13.81 -3.12,7.83 -3.39,15.41 0.38,23.12 4.34,8.87 2.16,16.23 -7.4,23.22 -5.07,-0.65 -11.64,-1.5 -19.64,-2.52 -12.82,-22.36 -25.7,-44.81 -38.23,-66.66 2.73,-10.45 12.52,-17.11 10.57,-29.64 -10.79,6.8 -20.46,12.9 -29.79,18.79 -12.14,-14.81 -23.73,-29.46 -35.94,-43.57 -4.81,-5.57 -10.52,-11.37 -21.66,-6.1 20.96,20.33 39.05,41.83 52.39,65.91 5.52,0.65 9.45,1.12 14.38,1.72 1.73,2.95 3.74,6.31 5.68,9.72 9.48,16.64 18.56,33.52 28.51,49.88 10.02,16.46 32.61,18.45 46.09,4.66 1.95,-2.01 3.84,-4.06 6.59,-6.96 22.16,3.22 25.95,-15.49 33.25,-31.37 11.38,12.34 11.12,27.73 15.13,41.13 15.49,5.71 23.42,2.06 26.62,-13.55 5.27,-25.76 9.61,-51.72 15.03,-81.42 9.79,-11.29 16.58,-28.4 21.28,-46.87 -6.77,-3.58 -9.88,-0.78 -11.93,4.28 -2.38,5.92 -3.81,12.37 -7.04,17.76 -4.98,8.29 -11.14,15.85 -16.79,23.73 l 0.41,-0.06 -0.12,-0.29 c -0.64,7.81 -0.82,15.7 -2.11,23.4 -0.73,4.5 -3.23,8.72 -5.62,14.82 -3.99,-7.18 -6.95,-12.55 -10.5,-18.93 10.7,-22.29 21.77,-45.36 32.85,-68.42 -0.91,-0.6 -1.8,-1.21 -2.71,-1.81 -2.44,2.67 -4.88,5.35 -7.3,8.02 l 0.28,-0.28 c -1.77,2.17 -3.53,4.35 -5.3,6.52 l 0.12,0.78 -0.03,-0.44 c 0.04,-1.47 0.07,-2.94 0.12,-4.42 l 0.24,0.26 c -4.08,6.64 -9.06,12.9 -12.02,20 -3.77,9.04 -10,15.23 -16.4,21.6 -1.03,-0.59 -2.05,-1.17 -3.08,-1.76 0.87,-2.63 1.19,-5.64 2.71,-7.79 5.05,-7.17 10.98,-13.76 15.71,-21.13 3.24,-5.06 5.06,-11.03 7.51,-16.6"
         style="fill:#231f20;fill-opacity:1;fill-rule:nonzero;stroke:none"
         id="path5670" />
      <path
         d="m 2038.62,2285.43 c -2.66,2.77 -5.32,5.54 -7.98,8.31 l -0.25,-0.27 c 2.68,-2.77 5.37,-5.52 8.06,-8.27"
         style="fill:#231f20;fill-opacity:1;fill-rule:nonzero;stroke:none"
         id="path5672" />
      <path
         d="m 2088.88,2277.89 c -0.44,-0.83 -0.89,-1.66 -1.34,-2.49 -1.07,1.63 -2.15,3.27 -3.23,4.9 l -0.23,-0.25 c 1.69,-0.81 3.39,-1.63 5.09,-2.44"
         style="fill:#231f20;fill-opacity:1;fill-rule:nonzero;stroke:none"
         id="path5674" />
      <path
         d="m 2023.78,2286.91 c -0.5,1.95 -1.01,3.93 -1.51,5.89 l -0.26,-0.26 c 0.49,-1.99 0.99,-3.99 1.48,-5.97"
         style="fill:#231f20;fill-opacity:1;fill-rule:nonzero;stroke:none"
         id="path5676" />
      <path
         d="m 2094.35,2300.51 c -0.6,0.38 -1.19,0.77 -0.64,0.42 -0.37,0.43 0.13,-0.17 0.61,-0.76"
         style="fill:#231f20;fill-opacity:1;fill-rule:nonzero;stroke:none"
         id="path5678" />
      <path
         d="m 2030.64,2293.74 c -0.43,2.05 -0.84,4.1 -1.25,6.15 l -0.26,-0.25 c 0.42,-2.06 0.83,-4.11 1.26,-6.17"
         style="fill:#231f20;fill-opacity:1;fill-rule:nonzero;stroke:none"
         id="path5680" />
      <path
         d="m 2094.32,2300.17 c 0.14,-0.54 0.27,-1.07 0.19,-0.71 0.03,-0.27 -0.06,0.4 -0.16,1.05"
         style="fill:#231f20;fill-opacity:1;fill-rule:nonzero;stroke:none"
         id="path5682" />
      <path
         d="m 2023.49,2286.56 c 0.66,0.14 1.33,0.28 0.67,0.14 0.6,-0.32 0.11,-0.06 -0.38,0.21"
         style="fill:#231f20;fill-opacity:1;fill-rule:nonzero;stroke:none"
         id="path5684" />
      <path
         d="m 2038.45,2285.2 0.33,-0.32 -0.16,0.55"
         style="fill:#231f20;fill-opacity:1;fill-rule:nonzero;stroke:none"
         id="path5686" />
      <path
         d="m 2017.7,2283.14 -0.48,-0.62 0.74,0.83"
         style="fill:#231f20;fill-opacity:1;fill-rule:nonzero;stroke:none"
         id="path5688" />
      <path
         d="m 2078.74,2274.63 c 0.34,0.17 0.68,0.33 1.02,0.5 l -0.78,-0.18"
         style="fill:#231f20;fill-opacity:1;fill-rule:nonzero;stroke:none"
         id="path5690" />
    </g>
  </g>
</svg>
