<?xml version="1.0" encoding="UTF-8" standalone="no"?>
<!-- Created with Inkscape (http://www.inkscape.org/) -->

<svg
   version="1.1"
   id="svg2"
   width="40.166687"
   height="31.000002"
   viewBox="0 0 40.166687 31.000001"
   xmlns="http://www.w3.org/2000/svg"
   xmlns:svg="http://www.w3.org/2000/svg">
  <defs
     id="defs6" />
  <g
     id="g10"
     transform="matrix(1.3333333,0,0,-1.3333333,-450.56531,770.32528)">
    <g
       id="g12"
       transform="scale(0.1)">
      <path
         d="m 3604.66,5560.1 h -3.5391 v 12.5 h 3.5391 z m -4.92,0 h -3.5391 v 12.5 h 3.5391 z m -5,0 h -3.5391 v 12.5 h 3.5391 z m -20.71,0 h -3.5391 v 12.5 h 3.5391 z m -37.44,0 h -3.5391 v 12.5 h 3.5391 z m -4.92,0 h -3.5469 v 12.5 h 3.5469 z m -5,0 h -3.5469 v 12.5 h 3.5469 z m -19.73,17.57 h -3.543 v 12.5 h 3.543 z m -11.62,20.6 h -3.5391 v 12.5 h 3.5391 z m -4.92,0 h -3.5391 v 12.5 h 3.5391 z m -5,0 h -3.5391 v 12.5 h 3.5391 z m -8.32,-38.17 h -3.5469 v 12.5 h 3.5469 z m -4.92,0 h -3.5391 v 12.5 h 3.5391 z m -25.31,16.97 h -3.543 v 12.5 h 3.543 z m 76.97,7.03 c -13.75,3.34 -13.33,24.17 -14.16,27.5 -0.84,3.34 -27.09,4.17 -37.09,2.09 -10,-2.09 -14.16,-21.67 -14.16,-21.67 h -40.52 c -0.71,-1.5 -1.21,-2.93 -1.16,-4.09 0.08,-1.89 0.59,-3.49 3.76,-5.71 15.09,-10.11 23.47,-20.86 26.53,-29.78 h 34.67 v 17.03 c 0,3.81 3.1,6.89 6.9,6.89 3.8,0 6.9,-3.08 6.9,-6.89 v -17.03 h 113.38 c 0.85,1.92 2.13,4.91 3.67,8.72 2.58,6.38 5.67,14.58 7.69,21.69 0.31,1.08 0.58,2.12 0.83,3.14 -41.02,-1.95 -89.52,-3.76 -97.24,-1.89"
         style="fill:#ffffff;fill-opacity:1;fill-rule:nonzero;stroke:none"
         id="path2550" />
      <path
         d="m 3612.54,5561.16 c -1.54,-3.8 -2.82,-6.8 -3.67,-8.72 h -113.38 v 17.03 c 0,3.81 -3.1,6.9 -6.9,6.9 -3.8,0 -6.9,-3.09 -6.9,-6.9 v -17.03 h -34.67 c -3.05,8.92 -11.44,19.67 -26.53,29.78 -3.16,2.22 -3.68,3.82 -3.76,5.71 -0.05,1.16 0.45,2.6 1.16,4.09 h 40.52 c 0,0 4.16,19.58 14.16,21.67 10,2.08 36.25,1.25 37.09,-2.09 0.83,-3.33 0.41,-24.16 14.16,-27.5 7.72,-1.87 56.22,-0.06 97.25,1.89 -0.26,-1.02 -0.53,-2.06 -0.83,-3.14 -2.03,-7.11 -5.12,-15.31 -7.7,-21.69 m 67.95,27.94 c 0,0 -57.08,25.61 -62.5,25.73 -5.42,0.11 -15.42,0.94 -27.08,16.36 -11.67,15.41 -53.75,146.25 -53.75,146.25 0,0 -44.17,-133.34 -50.84,-132.92 -6.66,0.42 -26.66,25.83 -26.66,25.83 0,0 -32.92,-49.16 -39.59,-49.58 -6.66,-0.42 -40.83,-22.08 -40.83,-28.75 h 30.68 c -0.36,-1.31 -0.66,-2.65 -0.69,-4.09 -0.08,-4.38 2.38,-8.91 7.1,-11.95 15.7,-10.4 22.97,-21.67 24.24,-28.06 l 0.62,-2.98 h 3.05 169.5 l 1,2.21 c 0.02,0.04 3.75,8.3 7.51,18.24 1.87,4.97 3.76,10.36 5.19,15.41 0.55,1.95 0.96,3.76 1.35,5.56 28.55,1.4 51.7,2.74 51.7,2.74"
         style="fill:#231f20;fill-opacity:1;fill-rule:nonzero;stroke:none"
         id="path2552" />
      <path
         d="m 3570.49,5560.1 h 3.5391 v 12.5 h -3.5391 z"
         style="fill:#231f20;fill-opacity:1;fill-rule:nonzero;stroke:none"
         id="path2554" />
      <path
         d="m 3481.86,5598.27 h 3.5391 v 12.5 h -3.5391 z"
         style="fill:#231f20;fill-opacity:1;fill-rule:nonzero;stroke:none"
         id="path2556" />
      <path
         d="m 3486.86,5598.27 h 3.5391 v 12.5 h -3.5391 z"
         style="fill:#231f20;fill-opacity:1;fill-rule:nonzero;stroke:none"
         id="path2558" />
      <path
         d="m 3491.78,5598.27 h 3.5391 v 12.5 h -3.5391 z"
         style="fill:#231f20;fill-opacity:1;fill-rule:nonzero;stroke:none"
         id="path2560" />
      <path
         d="m 3591.19,5560.1 h 3.5391 v 12.5 h -3.5391 z"
         style="fill:#231f20;fill-opacity:1;fill-rule:nonzero;stroke:none"
         id="path2562" />
      <path
         d="m 3596.19,5560.1 h 3.5391 v 12.5 h -3.5391 z"
         style="fill:#231f20;fill-opacity:1;fill-rule:nonzero;stroke:none"
         id="path2564" />
      <path
         d="m 3601.11,5560.1 h 3.5391 v 12.5 h -3.5391 z"
         style="fill:#231f20;fill-opacity:1;fill-rule:nonzero;stroke:none"
         id="path2566" />
      <path
         d="m 3468.61,5560.1 h 3.5391 v 12.5 h -3.5391 z"
         style="fill:#231f20;fill-opacity:1;fill-rule:nonzero;stroke:none"
         id="path2568" />
      <path
         d="m 3473.54,5560.1 h 3.5391 v 12.5 h -3.5391 z"
         style="fill:#231f20;fill-opacity:1;fill-rule:nonzero;stroke:none"
         id="path2570" />
      <path
         d="m 3503.41,5577.67 h 3.5391 v 12.5 h -3.5391 z"
         style="fill:#231f20;fill-opacity:1;fill-rule:nonzero;stroke:none"
         id="path2572" />
      <path
         d="m 3443.3,5577.07 h 3.5391 v 12.5 H 3443.3 Z"
         style="fill:#231f20;fill-opacity:1;fill-rule:nonzero;stroke:none"
         id="path2574" />
      <path
         d="m 3523.13,5560.1 h 3.5391 v 12.5 h -3.5391 z"
         style="fill:#231f20;fill-opacity:1;fill-rule:nonzero;stroke:none"
         id="path2576" />
      <path
         d="m 3528.13,5560.1 h 3.5391 v 12.5 h -3.5391 z"
         style="fill:#231f20;fill-opacity:1;fill-rule:nonzero;stroke:none"
         id="path2578" />
      <path
         d="m 3533.06,5560.1 h 3.543 v 12.5 h -3.543 z"
         style="fill:#231f20;fill-opacity:1;fill-rule:nonzero;stroke:none"
         id="path2580" />
    </g>
  </g>
</svg>
