<?xml version="1.0" encoding="UTF-8" standalone="no"?>
<!-- Created with Inkscape (http://www.inkscape.org/) -->

<svg
   version="1.1"
   id="svg2"
   width="43.255981"
   height="34.750671"
   viewBox="0 0 43.255981 34.75067"
   xmlns="http://www.w3.org/2000/svg"
   xmlns:svg="http://www.w3.org/2000/svg">
  <defs
     id="defs6" />
  <g
     id="g10"
     transform="matrix(1.3333333,0,0,-1.3333333,-394.716,773.42529)">
    <g
       id="g12"
       transform="scale(0.1)">
      <path
         d="m 3006.64,5564.36 h 29.2 l 0.53,1.33 -20.63,20.63 c -5.22,-5.97 -8.53,-13.56 -9.1,-21.96"
         style="fill:#ffffff;fill-opacity:1;fill-rule:nonzero;stroke:none"
         id="path2320" />
      <path
         d="m 3036.37,5558.03 -0.53,1.33 h -29.2 c 0.29,-4.22 1.5,-8.1 3.09,-11.79 h 16.18"
         style="fill:#ffffff;fill-opacity:1;fill-rule:nonzero;stroke:none"
         id="path2322" />
      <path
         d="m 3107.1,5561.78 -0.13,2.37 c 0.03,0.02 -0.32,1.37 -1.08,3.03 -0.75,1.7 -1.85,3.9 -3.16,6.38 -2.61,4.97 -6.11,11.09 -9.59,17.02 -5.7,9.69 -11.28,18.77 -13.18,21.82 h -52.7 l -27.18,-2.83 -2.94,-29.04 -3.34,-0.05 -0.16,-0.01 -0.73,-0.06 c -0.66,-0.08 -1.65,-0.22 -2.85,-0.51 -2.39,-0.59 -5.62,-1.73 -8.81,-3.96 -5.89,-4.16 -12.04,-11.97 -13.11,-28.38 h 30.71 c -1.47,4.54 -2.46,9.28 -2.46,14.29 0,26.11 21.24,47.35 47.34,47.35 26.1,0 47.34,-21.24 47.34,-47.35 0,-5.01 -1,-9.75 -2.46,-14.29 h 168.88 10.84 v 14.22"
         style="fill:#ffffff;fill-opacity:1;fill-rule:nonzero;stroke:none"
         id="path2324" />
      <path
         d="m 3192.52,5596.7 h -3.5391 v 12.5 h 3.5391 z m -4.92,0 h -3.543 v 12.5 h 3.543 z m -35.04,-19.6 h -3.5391 v 12.5 h 3.5391 z m -4.92,0 h -3.5391 v 12.5 h 3.5391 z m -21.92,0 h -3.5391 v 12.5 h 3.5391 z m -5.87,21.85 h -3.543 v 12.5 h 3.543 z m -3.58,49.57 h 3.5391 v -12.5 h -3.5391 z m -1.34,-49.57 h -3.5391 v 12.5 h 3.5391 z m -3.58,49.57 h 3.5391 v -12.5 h -3.5391 z m -1.42,-49.57 h -3.5391 v 12.5 h 3.5391 z m -22.38,23.78 h -3.5391 v 12.5 h 3.5391 z m -6.73,48.43 c -3.37,0 -6.09,2.73 -6.09,6.09 0,3.37 2.72,6.1 6.09,6.1 3.37,0 6.09,-2.73 6.09,-6.1 0,-3.36 -2.72,-6.09 -6.09,-6.09 m 1.81,-48.43 h -3.54 v 12.5 h 3.54 z m -5,0 h -3.5391 v 12.5 h 3.5391 z m -29.67,0 h -3.5391 v 12.5 h 3.5391 z m -4.92,0 h -3.5391 v 12.5 h 3.5391 z m -5,0 h -3.5391 v 12.5 h 3.5391 z m 163,-47.25 v 12.89 l 1.72,1.1 0.19,0.13 0.65,0.45 c 0.59,0.42 1.43,1.04 2.45,1.86 2.05,1.65 4.79,4.08 7.51,7.16 5.46,6.18 10.67,14.8 10.65,24.85 l -0.05,1.57 -0.17,0.82 h -89.2 c 0,0 0,26.88 -16.67,28.75 -16.66,1.88 -28.33,38.75 -28.33,38.75 h -21.25 l -10.63,-29.37 h -25.98 l -1.56,-2.9 -1.97,-44.13 h 29.76 v 9.24 c 0,2.15 1.75,3.9 3.9,3.9 2.15,0 3.9,-1.75 3.9,-3.9 v -9.24 h 16.77 l 0.74,-1.18 c 0.04,-0.07 21.27,-34.07 26.99,-47.04 0.39,-0.91 0.71,-1.68 0.97,-2.41 h 50.3 v 18.36 c 0,3.81 3.09,6.89 6.9,6.89 3.8,0 6.9,-3.08 6.9,-6.89 v -18.36 h 92.8 v 4.95 h -67.29"
         style="fill:#ffffff;fill-opacity:1;fill-rule:nonzero;stroke:none"
         id="path2326" />
      <path
         d="m 3041.23,5569.75 v 29.19 c -8.4,-0.56 -15.99,-3.87 -21.95,-9.09 l 20.62,-20.63"
         style="fill:#ffffff;fill-opacity:1;fill-rule:nonzero;stroke:none"
         id="path2328" />
      <path
         d="m 3080.82,5559.36 h -29.19 l -0.54,-1.33 10.46,-10.46 h 16.18 c 1.6,3.69 2.81,7.58 3.09,11.79"
         style="fill:#ffffff;fill-opacity:1;fill-rule:nonzero;stroke:none"
         id="path2330" />
      <path
         d="m 3080.82,5564.36 c -0.57,8.4 -3.88,15.99 -9.1,21.96 l -20.63,-20.63 0.54,-1.33"
         style="fill:#ffffff;fill-opacity:1;fill-rule:nonzero;stroke:none"
         id="path2332" />
      <path
         d="m 3041.23,5553.96 -1.33,0.53 -6.92,-6.93 h 8.25 z"
         style="fill:#ffffff;fill-opacity:1;fill-rule:nonzero;stroke:none"
         id="path2334" />
      <path
         d="m 3046.23,5547.57 h 8.25 l -6.92,6.93 -1.33,-0.54 z"
         style="fill:#ffffff;fill-opacity:1;fill-rule:nonzero;stroke:none"
         id="path2336" />
      <path
         d="m 3046.23,5569.75 1.33,-0.53 20.62,20.63 c -5.96,5.22 -13.55,8.53 -21.95,9.09"
         style="fill:#ffffff;fill-opacity:1;fill-rule:nonzero;stroke:none"
         id="path2338" />
      <path
         d="m 3106.39,5598.95 h 3.5391 v 12.5 h -3.5391 z"
         style="fill:#231f20;fill-opacity:1;fill-rule:nonzero;stroke:none"
         id="path2340" />
      <path
         d="m 3111.39,5598.95 h 3.5391 v 12.5 h -3.5391 z"
         style="fill:#231f20;fill-opacity:1;fill-rule:nonzero;stroke:none"
         id="path2342" />
      <path
         d="m 3116.31,5598.95 h 3.543 v 12.5 h -3.543 z"
         style="fill:#231f20;fill-opacity:1;fill-rule:nonzero;stroke:none"
         id="path2344" />
      <path
         d="m 3111.35,5636.02 h 3.5391 v 12.5 h -3.5391 z"
         style="fill:#231f20;fill-opacity:1;fill-rule:nonzero;stroke:none"
         id="path2346" />
      <path
         d="m 3116.27,5636.02 h 3.5391 v 12.5 h -3.5391 z"
         style="fill:#231f20;fill-opacity:1;fill-rule:nonzero;stroke:none"
         id="path2348" />
      <path
         d="m 3074.09,5622.73 h 3.5391 v 12.5 h -3.5391 z"
         style="fill:#231f20;fill-opacity:1;fill-rule:nonzero;stroke:none"
         id="path2350" />
      <path
         d="m 3079.09,5622.73 h 3.5391 v 12.5 h -3.5391 z"
         style="fill:#231f20;fill-opacity:1;fill-rule:nonzero;stroke:none"
         id="path2352" />
      <path
         d="m 3084.01,5622.73 h 3.5391 v 12.5 h -3.5391 z"
         style="fill:#231f20;fill-opacity:1;fill-rule:nonzero;stroke:none"
         id="path2354" />
      <path
         d="m 3144.09,5577.1 h 3.5391 v 12.5 h -3.5391 z"
         style="fill:#231f20;fill-opacity:1;fill-rule:nonzero;stroke:none"
         id="path2356" />
      <path
         d="m 3149.01,5577.1 h 3.5391 v 12.5 h -3.5391 z"
         style="fill:#231f20;fill-opacity:1;fill-rule:nonzero;stroke:none"
         id="path2358" />
      <path
         d="m 3034.5,5622.73 h 3.5391 v 12.5 H 3034.5 Z"
         style="fill:#231f20;fill-opacity:1;fill-rule:nonzero;stroke:none"
         id="path2360" />
      <path
         d="m 3039.5,5622.73 h 3.5391 v 12.5 H 3039.5 Z"
         style="fill:#231f20;fill-opacity:1;fill-rule:nonzero;stroke:none"
         id="path2362" />
      <path
         d="m 3044.42,5622.73 h 3.5352 v 12.5 h -3.5352 z"
         style="fill:#231f20;fill-opacity:1;fill-rule:nonzero;stroke:none"
         id="path2364" />
      <path
         d="m 3184.05,5596.7 h 3.5391 v 12.5 h -3.5391 z"
         style="fill:#231f20;fill-opacity:1;fill-rule:nonzero;stroke:none"
         id="path2366" />
      <path
         d="m 3188.97,5596.7 h 3.543 v 12.5 h -3.543 z"
         style="fill:#231f20;fill-opacity:1;fill-rule:nonzero;stroke:none"
         id="path2368" />
      <path
         d="m 3122.18,5577.1 h 3.5391 v 12.5 h -3.5391 z"
         style="fill:#231f20;fill-opacity:1;fill-rule:nonzero;stroke:none"
         id="path2370" />
      <path
         d="m 3022.95,5663.59 -0.04,-0.86 -0.24,-5.56 -8.23,7.27 h 8.97 z m 225.64,-84.36 h -40.05 v 5.15 c 2.22,1.63 6.34,4.87 10.64,9.72 6.12,6.94 12.5,17.12 12.53,29.82 l -0.05,1.96 -0.11,0.43 h 17.04 z m 7.5,47.08 h 6.47 l -6.47,-7.3 z m -205,-68.28 0.54,1.33 h 29.19 c -0.28,-4.22 -1.49,-8.1 -3.08,-11.8 h -16.19 z m -3.53,-3.54 6.92,-6.93 h -8.25 v 6.4 z m 24.16,31.82 c 5.22,-5.97 8.53,-13.55 9.1,-21.95 h -29.19 l -0.54,1.32 z m -24.16,-17.09 -1.33,0.53 v 29.2 c 8.4,-0.57 15.99,-3.88 21.95,-9.1 z m -7.66,-14.73 1.33,-0.53 v -6.4 h -8.25 z m -20.62,35.36 c 5.96,5.22 13.55,8.53 21.95,9.1 v -29.2 l -1.33,-0.53 z m 17.09,-24.17 -0.53,-1.32 h -29.2 c 0.57,8.4 3.88,15.98 9.1,21.95 z m -29.73,-6.32 h 29.2 l 0.53,-1.33 -10.46,-10.47 h -16.18 c -1.59,3.7 -2.81,7.58 -3.09,11.8 m 250.85,-11.8 h -168.88 c 1.46,4.54 2.46,9.28 2.46,14.3 0,26.1 -21.24,47.34 -47.34,47.34 -26.1,0 -47.34,-21.24 -47.34,-47.34 0,-5.02 0.99,-9.76 2.46,-14.3 h -30.71 c 1.07,16.41 7.22,24.22 13.11,28.38 3.19,2.23 6.42,3.38 8.81,3.96 1.2,0.29 2.19,0.44 2.85,0.51 l 0.73,0.06 0.16,0.01 3.34,0.05 2.94,29.04 27.18,2.84 h 52.7 c 1.9,-3.06 7.48,-12.14 13.18,-21.83 3.48,-5.93 6.98,-12.05 9.6,-17.02 1.3,-2.48 2.4,-4.68 3.15,-6.38 0.76,-1.66 1.11,-3.01 1.08,-3.02 l 0.13,-2.38 h 161.23 v -14.22 z m 10.84,19.22 h -92.8 v 18.36 c 0,3.81 -3.1,6.89 -6.9,6.89 -3.8,0 -6.9,-3.08 -6.9,-6.89 v -18.36 h -50.3 c -0.26,0.73 -0.58,1.5 -0.97,2.41 -5.72,12.97 -26.95,46.97 -26.99,47.04 l -0.73,1.18 h -16.78 v 9.24 c 0,2.15 -1.75,3.9 -3.9,3.9 -2.15,0 -3.9,-1.75 -3.9,-3.9 v -9.24 h -29.76 l 1.97,44.13 1.56,2.9 h 25.98 l 10.63,29.37 h 21.25 c 0,0 11.67,-36.87 28.33,-38.75 16.67,-1.87 16.67,-28.75 16.67,-28.75 h 89.2 l 0.17,-0.82 0.05,-1.57 c 0.02,-10.05 -5.19,-18.67 -10.64,-24.85 -2.73,-3.08 -5.47,-5.51 -7.51,-7.16 -1.03,-0.82 -1.87,-1.44 -2.46,-1.86 l -0.65,-0.45 -0.19,-0.13 -1.72,-1.1 v -12.89 -3.75 h 67.29 z m -12.24,40.9 16.48,18.63 h 12.22 c 0,0 -107.5,60 -145,67.5 -21.67,6.25 -55.63,106.88 -55.63,106.88 h -15 c 0,0 -23.75,-86.88 -29.37,-93.13 -5.63,-6.25 -56.88,-43.12 -56.88,-43.12 h 20.21 l 19.12,-16.9 -1.26,-28.25 -27.75,-2.89 -2.92,-28.79 c -3.17,-0.55 -8.19,-1.94 -13.35,-5.5 -8.36,-5.73 -16.41,-17.37 -16.55,-38.26 l -0.04,-3.79 h 297.12 18.34 v 39.17 h -19.74"
         style="fill:#231f20;fill-opacity:1;fill-rule:nonzero;stroke:none"
         id="path2372" />
      <path
         d="m 3086.91,5677.25 c 0,3.37 -2.71,6.09 -6.09,6.09 -3.37,0 -6.1,-2.72 -6.1,-6.09 0,-3.36 2.73,-6.09 6.1,-6.09 3.38,0 6.09,2.73 6.09,6.09"
         style="fill:#231f20;fill-opacity:1;fill-rule:nonzero;stroke:none"
         id="path2374" />
    </g>
  </g>
</svg>
