<?xml version="1.0" encoding="UTF-8" standalone="no"?>
<!-- John Grümph
     https://legrumph.org/Terrier/public/chibi/de-chorographia
     CC BY-NC 3.0
     https://creativecommons.org/licenses/by-nc/3.0/fr/ -->
<!-- Created with Inkscape (http://www.inkscape.org/) -->

<svg
   version="1.1"
   id="svg2"
   width="28.028015"
   height="26.692003"
   viewBox="0 0 28.028015 26.692002"
   xmlns="http://www.w3.org/2000/svg"
   xmlns:svg="http://www.w3.org/2000/svg">
  <defs
     id="defs6" />
  <g
     id="g10"
     transform="matrix(1.3333333,0,0,-1.3333333,-683.47199,927.78798)">
    <g
       id="g12"
       transform="scale(0.1)">
      <path
         d="m 5175.62,6770.24 h -3.5391 v 12.5 h 3.5391 z m 25.38,-4.52 c -4.54,8.03 -7.74,15.17 -9.88,21.46 h -35.28 c -0.37,-1.59 -0.74,-3.78 -0.74,-6.24 0.04,-4.85 1.41,-10.37 6.68,-15.22"
         style="fill:#ffffff;fill-opacity:1;fill-rule:nonzero;stroke:none"
         id="path1806" />
      <path
         d="m 5283.33,6792.02 h -3.5469 v 12.5 h 3.5469 z m -39.5,44.23 c -3.8,0 -6.88,3.07 -6.88,6.87 0,3.8 3.08,6.88 6.88,6.88 3.8,0 6.87,-3.08 6.87,-6.88 0,-3.8 -3.07,-6.87 -6.87,-6.87 m -8.55,-60.65 h -3.54 v 12.5 h 3.54 z m -4.92,0 h -3.5391 v 12.5 h 3.5391 z m -5,0 h -3.5391 v 12.5 h 3.5391 z m -12.6,30.5 h -3.5469 v 12.5 h 3.5469 z m -4.92,0 h -3.5391 v 12.5 h 3.5391 z m -5,0 h -3.5391 v 12.5 h 3.5391 z m 104.78,-34.37 c 1.99,4.89 3.95,11.72 3.95,19.36 -0.02,2.56 -0.31,5.24 -0.82,7.97 l -6.51,-18.7 -3.55,1.23 -3.54,1.23 9.21,26.45 h -4.78 l -10.07,-28.91 -3.54,1.23 -3.55,1.23 9.21,26.45 h -28.01 c 0,0 -0.83,42.08 -6.25,46.45 -5.41,4.38 -23.96,3.96 -27.91,0 -3.97,-3.95 -7.72,-22.5 -7.72,-22.5 0,0 -11.66,-0.46 -24.51,-2.1 l -6.88,-19.6 c -0.09,-1.04 -0.17,-2.1 -0.17,-3.29 0,-9.14 3.14,-23 14.58,-42.51 h 40.51 v 17.71 c 0,3.81 3.08,6.89 6.89,6.89 3.81,0 6.89,-3.08 6.89,-6.89 v -17.71 h 43.69 l 0.16,0.29 c 0.73,1.32 1.72,3.28 2.72,5.72"
         style="fill:#ffffff;fill-opacity:1;fill-rule:nonzero;stroke:none"
         id="path1808" />
      <path
         d="m 5199.31,6806.1 h 3.5391 v 12.5 h -3.5391 z"
         style="fill:#231f20;fill-opacity:1;fill-rule:nonzero;stroke:none"
         id="path1810" />
      <path
         d="m 5204.31,6806.1 h 3.5391 v 12.5 h -3.5391 z"
         style="fill:#231f20;fill-opacity:1;fill-rule:nonzero;stroke:none"
         id="path1812" />
      <path
         d="m 5209.23,6806.1 h 3.5391 v 12.5 h -3.5391 z"
         style="fill:#231f20;fill-opacity:1;fill-rule:nonzero;stroke:none"
         id="path1814" />
      <path
         d="m 5221.82,6775.6 h 3.5391 v 12.5 h -3.5391 z"
         style="fill:#231f20;fill-opacity:1;fill-rule:nonzero;stroke:none"
         id="path1816" />
      <path
         d="m 5226.82,6775.6 h 3.5391 v 12.5 h -3.5391 z"
         style="fill:#231f20;fill-opacity:1;fill-rule:nonzero;stroke:none"
         id="path1818" />
      <path
         d="m 5231.74,6775.6 h 3.5352 v 12.5 h -3.5352 z"
         style="fill:#231f20;fill-opacity:1;fill-rule:nonzero;stroke:none"
         id="path1820" />
      <path
         d="m 5279.79,6792.02 h 3.5391 v 12.5 h -3.5391 z"
         style="fill:#231f20;fill-opacity:1;fill-rule:nonzero;stroke:none"
         id="path1822" />
      <path
         d="m 5172.08,6770.24 h 3.5352 v 12.5 h -3.5352 z"
         style="fill:#231f20;fill-opacity:1;fill-rule:nonzero;stroke:none"
         id="path1824" />
      <path
         d="m 5261.05,6765.72 v 17.71 c 0,3.8 -3.09,6.89 -6.89,6.89 -3.8,0 -6.89,-3.09 -6.89,-6.89 v -17.71 h -40.52 c -11.43,19.51 -14.57,33.37 -14.57,42.51 0,1.2 0.07,2.25 0.18,3.29 l 6.87,19.61 c 12.86,1.64 24.52,2.09 24.52,2.09 0,0 3.75,18.55 7.71,22.5 3.95,3.96 22.5,4.39 27.91,0 5.42,-4.36 6.25,-46.45 6.25,-46.45 h 28.02 l -9.21,-26.45 3.53,-1.24 3.56,-1.22 10.07,28.91 h 4.77 l -9.22,-26.45 3.56,-1.24 3.53,-1.22 6.52,18.69 c 0.52,-2.72 0.8,-5.4 0.82,-7.97 0,-7.63 -1.96,-14.45 -3.95,-19.35 -0.99,-2.44 -1.98,-4.4 -2.71,-5.73 l -0.18,-0.28 z m -105.96,15.23 c 0,2.45 0.37,4.64 0.75,6.23 h 35.29 c 2.14,-6.29 5.33,-13.44 9.87,-21.46 h -39.22 c -5.26,4.85 -6.64,10.37 -6.69,15.23 m 160.54,28.32 h 4.46 l -2.34,-6.71 c -0.52,2.21 -1.23,4.46 -2.12,6.71 m -171.35,-22.09 h 3.95 c -0.2,-1.05 -0.34,-2.21 -0.44,-3.5 z m 183.76,22.09 h 8.21 c 0,0 -10.21,6.66 -26.88,19.37 -29.58,29.16 -38.12,111.88 -38.12,111.88 h -0.29 l -2.43,17.89 -2.46,-17.89 H 5231 l -2.45,17.89 -2.44,-17.89 h -0.07 c -12.29,-57.09 -17.7,-65.63 -17.7,-65.63 0,0 -19.8,-32.5 -36.25,-50 4.71,2.16 11.57,3.79 18.75,5 l -3.71,-10.59 -61.09,-32.12 h 7.62 l 15.52,-15.5 c 1.46,-4.36 4,-8.8 8.64,-12.61 l 1.04,-0.85 h 1.35 148.65 l 1.12,1.66 c 0.14,0.25 5.57,8.39 7.95,20.48 h 0.03"
         style="fill:#231f20;fill-opacity:1;fill-rule:nonzero;stroke:none"
         id="path1826" />
      <path
         d="m 5243.83,6850 c -3.8,0 -6.87,-3.09 -6.87,-6.87 0,-3.81 3.07,-6.88 6.87,-6.88 3.8,0 6.87,3.07 6.87,6.88 0,3.78 -3.07,6.87 -6.87,6.87"
         style="fill:#231f20;fill-opacity:1;fill-rule:nonzero;stroke:none"
         id="path1828" />
    </g>
  </g>
</svg>
