<?xml version="1.0" encoding="UTF-8" standalone="no"?>
<!-- John Grümph
     https://legrumph.org/Terrier/public/chibi/de-chorographia
     CC BY-NC 3.0
     https://creativecommons.org/licenses/by-nc/3.0/fr/ -->
<!-- Created with Inkscape (http://www.inkscape.org/) -->

<svg
   version="1.1"
   id="svg2"
   width="39.458649"
   height="29.290651"
   viewBox="0 0 39.458649 29.29065"
   xmlns="http://www.w3.org/2000/svg"
   xmlns:svg="http://www.w3.org/2000/svg">
  <defs
     id="defs6" />
  <g
     id="g10"
     transform="matrix(1.3333333,0,0,-1.3333333,-423.58133,585.01861)">
    <g
       id="g12"
       transform="scale(0.1)">
      <path
         d="m 3358.98,4298.86 -9.53,81.28 h -5.02 l -5.22,-80.37 c 6.38,-0.7 13.58,-0.91 19.77,-0.91"
         style="fill:#ffffff;fill-opacity:1;fill-rule:nonzero;stroke:none"
         id="path3960" />
      <path
         d="m 3346.58,4233.68 h -3.5391 v 12.5 h 3.5391 z m -4.92,0 h -3.5391 v 12.5 h 3.5391 z m -0.04,-53.04 h -3.543 v 12.5 h 3.543 z m -4.92,0 h -3.5391 v 12.5 h 3.5391 z m -3.58,65.54 h 3.5391 v -12.5 h -3.5391 z m -41.67,-47.74 h -3.5391 v 12.5 h 3.5391 z m -4.93,0 h -3.5391 v 12.5 h 3.5391 z m 81.39,20.14 h 3.5391 v -12.5 h -3.5391 z m 19.79,-43.12 c -0.11,2.56 -0.76,6.61 -3.32,12.18 -1.98,4.35 -2.91,10.93 -3.5,17.97 -0.58,7.02 -0.7,14.4 -0.7,19.85 v 1.14 l -14.57,0.42 -4.38,16.87 c -23.12,19.38 -47.81,0 -47.81,0 l -5,-15 h -23.92 c -2.76,-9.29 -9.83,-32.98 -16.15,-53.43 h 79.07 v 17.03 c 0,3.81 3.1,6.89 6.91,6.89 3.79,0 6.89,-3.08 6.89,-6.89 v -17.03"
         style="fill:#ffffff;fill-opacity:1;fill-rule:nonzero;stroke:none"
         id="path3962" />
      <path
         d="m 3244.98,4186.89 h -3.5391 v 12.5 h 3.5391 z m -4.92,0 h -3.5391 v 12.5 h 3.5391 z m 26.3,34.82 h 3.5391 v -12.5 h -3.5391 z m 8.32,-8.26 c 1.89,6.33 3.49,11.71 4.61,15.44 h -10.25 c 0,0 -4.68,-10 -9.37,-11.87 -2.38,-0.95 -23.49,-2.14 -43.81,-3.08 l -0.12,-2.16 12.18,-16.41 -3.01,-2.23 -3.01,-2.24 -7.24,9.76 c -0.43,-2.76 -0.78,-4.96 -1.82,-7 -0.33,-0.57 -0.73,-1.25 -1.69,-1.92 l -0.09,-0.09 -0.41,-0.44 -1.26,-1.7 c -0.96,-1.41 -2.08,-3.34 -3.12,-5.45 -1.38,-2.74 -2.57,-5.83 -3.32,-8.6 h 60.17 c 3.91,12.66 8.18,26.73 11.56,37.99"
         style="fill:#ffffff;fill-opacity:1;fill-rule:nonzero;stroke:none"
         id="path3964" />
      <path
         d="m 3272.17,4284.05 h 3.5352 v -12.5 h -3.5352 z m 7.25,-16.73 c 0,2.14 1.75,3.89 3.9,3.89 2.15,0 3.9,-1.75 3.9,-3.89 v -9.68 h 5.89 v 30 c 0,0 -17.38,-1.24 -35.42,-1.66 l 11.68,-15.73 -3.01,-2.24 -3.01,-2.24 -10.16,13.67 -2.12,-10.18 0.15,-0.2 -0.22,-0.17 -2.35,-11.25 h 30.77"
         style="fill:#ffffff;fill-opacity:1;fill-rule:nonzero;stroke:none"
         id="path3966" />
      <path
         d="m 3415.32,4209.21 h -3.5391 v 12.5 h 3.5391 z m -1.8,-28.57 h -3.5391 v 12.5 h 3.5391 z m -4.93,0 h -3.5391 v 12.5 h 3.5391 z m -5.01,0 h -3.5469 v 12.5 h 3.5469 z m -1.72,41.07 h 3.5391 v -12.5 h -3.5391 z m 5,0 h 3.5391 v -12.5 h -3.5391 z m 37.03,-22.7 c -0.66,3.37 -1.84,6.09 -2.11,6.22 l -1.47,1.89 -6.6,-8.24 -2.93,2.34 -2.93,2.34 9.43,11.76 c -0.24,0.92 -0.44,1.95 -0.66,2.93 l -15.08,-0.92 -1.56,8.13 -34.8,1 v -1 c 0,-5.37 0.12,-12.64 0.68,-19.44 0.54,-6.78 1.59,-13.19 3.06,-16.28 2.89,-6.26 3.67,-11.08 3.78,-14.28 h 53.95 c -0.1,1.63 -0.22,3.6 -0.42,5.91 -0.46,5.56 -1.22,12.51 -2.34,17.64"
         style="fill:#ffffff;fill-opacity:1;fill-rule:nonzero;stroke:none"
         id="path3968" />
      <path
         d="m 3246.86,4285.85 -1.77,-8.53 -6.39,8.63 c 2.6,-0.08 5.35,-0.1 8.16,-0.1 m 145.84,-110.39 c -0.11,3.2 -0.9,8.02 -3.79,14.27 -1.45,3.11 -2.52,9.52 -3.05,16.29 -0.56,6.8 -0.68,14.08 -0.68,19.44 v 1 l 34.8,-1 1.57,-8.14 15.08,0.93 c 0.21,-0.98 0.42,-2.02 0.64,-2.93 l -9.41,-11.77 2.93,-2.34 2.92,-2.33 6.61,8.24 1.45,-1.89 c 0.28,-0.13 1.46,-2.85 2.12,-6.22 1.11,-5.13 1.88,-12.07 2.34,-17.64 0.2,-2.3 0.32,-4.27 0.43,-5.91 z m -186.43,8.61 c 1.05,2.11 2.16,4.03 3.12,5.45 l 1.27,1.69 0.41,0.45 0.09,0.07 c 0.95,0.68 1.34,1.36 1.68,1.93 1.04,2.05 1.39,4.25 1.82,7 l 7.25,-9.77 3,2.25 3,2.24 -12.16,16.41 0.11,2.16 c 20.32,0.94 41.44,2.12 43.8,3.07 4.7,1.87 9.39,11.87 9.39,11.87 h 10.24 c -1.11,-3.73 -2.72,-9.1 -4.61,-15.43 -3.38,-11.26 -7.64,-25.34 -11.57,-38 h -60.16 c 0.76,2.77 1.94,5.86 3.32,8.61 m 1.78,25.48 c -0.23,-3.25 -0.57,-6.51 -0.98,-8.95 l -0.14,-0.73 -9.86,13.26 c 2.57,0.1 5.27,0.22 8.09,0.33 z m 42.95,59.34 0.23,0.16 -0.16,0.21 2.13,10.19 10.14,-13.67 3.02,2.23 3,2.24 -11.68,15.73 c 18.05,0.41 35.43,1.66 35.43,1.66 v -30 h -5.9 v 9.68 c 0,2.14 -1.75,3.89 -3.89,3.89 -2.14,0 -3.89,-1.75 -3.89,-3.89 v -9.68 h -30.77 z m 197.21,-59.87 -1.28,1.66 v 0 c -0.09,0.07 -0.61,0.89 -1.04,2.09 l -0.3,0.94 4.3,5.34 6.7,0.41 z m -98.75,171.12 9.52,-81.27 c -6.18,-0.01 -13.39,0.2 -19.77,0.91 l 5.22,80.36 z m 4.86,-180.75 c -3.8,0 -6.89,-3.09 -6.89,-6.89 v -17.04 h -79.09 c 6.32,20.45 13.39,44.14 16.16,53.43 h 23.91 l 5,15 c 0,0 24.7,19.38 47.82,0 l 4.38,-16.87 14.57,-0.42 v -1.14 c 0,-5.44 0.12,-12.83 0.7,-19.84 0.6,-7.05 1.53,-13.62 3.51,-17.98 2.56,-5.57 3.2,-9.62 3.31,-12.18 h -26.47 v 17.04 c 0,3.8 -3.1,6.89 -6.91,6.89 m 98.77,-10.91 c -0.48,4.18 -1.09,8.48 -1.91,12.25 l 15.5,19.36 6.12,0.37 c 0,0 -10.32,5.61 -14.69,15.61 -4.06,9.31 -24.04,77.39 -26.84,86.94 l -2.63,19.27 -2.46,-18.07 h -12.59 l -2.45,18.07 -2.5,-18.3 -23.98,-51.96 -11.25,27.19 c 0,0 -2.73,-0.16 -6.89,-0.25 l -10.38,88.68 h -18.73 l -5.62,-86.68 c -2.95,0.68 -5.41,1.52 -6.97,2.61 -9.21,6.57 -45.46,57.5 -50.16,76.57 -5.3,-41.87 -40.93,-90.62 -53.11,-92.5 1.86,-0.5 4.41,-0.88 7.4,-1.16 l 14.1,-18.98 -2.05,-9.86 h -11.64 l -5.63,-10 -46.87,-35.32 c 0,0 4.44,0.18 11.14,0.44 l 14.73,-19.81 c -3.46,-5.4 -7.43,-13.69 -8.05,-20.97 l -0.3,-4.02 h 4.03 256.11 l -0.16,3.9 c -0.02,0.05 -0.32,8 -1.27,16.62"
         style="fill:#231f20;fill-opacity:1;fill-rule:nonzero;stroke:none"
         id="path3970" />
      <path
         d="m 3282.98,4198.44 h 3.5391 v 12.5 h -3.5391 z"
         style="fill:#231f20;fill-opacity:1;fill-rule:nonzero;stroke:none"
         id="path3972" />
      <path
         d="m 3287.9,4198.44 h 3.543 v 12.5 h -3.543 z"
         style="fill:#231f20;fill-opacity:1;fill-rule:nonzero;stroke:none"
         id="path3974" />
      <path
         d="m 3401.86,4209.21 h 3.5391 v 12.5 h -3.5391 z"
         style="fill:#231f20;fill-opacity:1;fill-rule:nonzero;stroke:none"
         id="path3976" />
      <path
         d="m 3406.86,4209.21 h 3.5391 v 12.5 h -3.5391 z"
         style="fill:#231f20;fill-opacity:1;fill-rule:nonzero;stroke:none"
         id="path3978" />
      <path
         d="m 3411.78,4209.21 h 3.5391 v 12.5 h -3.5391 z"
         style="fill:#231f20;fill-opacity:1;fill-rule:nonzero;stroke:none"
         id="path3980" />
      <path
         d="m 3333.16,4180.64 h 3.5391 v 12.5 h -3.5391 z"
         style="fill:#231f20;fill-opacity:1;fill-rule:nonzero;stroke:none"
         id="path3982" />
      <path
         d="m 3338.09,4180.64 h 3.5391 v 12.5 h -3.5391 z"
         style="fill:#231f20;fill-opacity:1;fill-rule:nonzero;stroke:none"
         id="path3984" />
      <path
         d="m 3367.92,4206.08 h 3.5352 v 12.5 h -3.5352 z"
         style="fill:#231f20;fill-opacity:1;fill-rule:nonzero;stroke:none"
         id="path3986" />
      <path
         d="m 3400.05,4180.64 h 3.5391 v 12.5 h -3.5391 z"
         style="fill:#231f20;fill-opacity:1;fill-rule:nonzero;stroke:none"
         id="path3988" />
      <path
         d="m 3405.05,4180.64 h 3.5391 v 12.5 h -3.5391 z"
         style="fill:#231f20;fill-opacity:1;fill-rule:nonzero;stroke:none"
         id="path3990" />
      <path
         d="m 3409.97,4180.64 h 3.543 v 12.5 h -3.543 z"
         style="fill:#231f20;fill-opacity:1;fill-rule:nonzero;stroke:none"
         id="path3992" />
      <path
         d="m 3266.36,4209.21 h 3.5391 v 12.5 h -3.5391 z"
         style="fill:#231f20;fill-opacity:1;fill-rule:nonzero;stroke:none"
         id="path3994" />
      <path
         d="m 3333.12,4233.68 h 3.5391 v 12.5 h -3.5391 z"
         style="fill:#231f20;fill-opacity:1;fill-rule:nonzero;stroke:none"
         id="path3996" />
      <path
         d="m 3338.12,4233.68 h 3.5391 v 12.5 h -3.5391 z"
         style="fill:#231f20;fill-opacity:1;fill-rule:nonzero;stroke:none"
         id="path3998" />
      <path
         d="m 3343.05,4233.68 h 3.5391 v 12.5 h -3.5391 z"
         style="fill:#231f20;fill-opacity:1;fill-rule:nonzero;stroke:none"
         id="path4000" />
      <path
         d="m 3236.52,4186.89 h 3.5391 v 12.5 h -3.5391 z"
         style="fill:#231f20;fill-opacity:1;fill-rule:nonzero;stroke:none"
         id="path4002" />
      <path
         d="m 3241.45,4186.89 h 3.5391 v 12.5 h -3.5391 z"
         style="fill:#231f20;fill-opacity:1;fill-rule:nonzero;stroke:none"
         id="path4004" />
      <path
         d="m 3272.17,4271.55 h 3.5352 v 12.5 h -3.5352 z"
         style="fill:#231f20;fill-opacity:1;fill-rule:nonzero;stroke:none"
         id="path4006" />
    </g>
  </g>
</svg>
