<?xml version="1.0" encoding="UTF-8" standalone="no"?>
<!-- Created with Inkscape (http://www.inkscape.org/) -->

<svg
   version="1.1"
   id="svg2"
   width="43.557419"
   height="35.582672"
   viewBox="0 0 43.557419 35.582671"
   xmlns="http://www.w3.org/2000/svg"
   xmlns:svg="http://www.w3.org/2000/svg">
  <defs
     id="defs6" />
  <g
     id="g10"
     transform="matrix(1.3333333,0,0,-1.3333333,-184.19466,936.77063)">
    <g
       id="g12"
       transform="scale(0.1)">
      <path
         d="m 1644.39,6795.24 c -1.64,0.37 -2.73,0.88 -2.98,1.02 l -0.84,0.45 -15.75,24.77 h -26.86 l 11.31,-55.07 h 57.41 v 19.66 h -22.29 v 2.5"
         style="fill:#ffffff;fill-opacity:1;fill-rule:nonzero;stroke:none"
         id="path602" />
      <path
         d="m 1460.57,6815.48 h -3.5391 v 12.5 h 3.5391 z m -4.93,0 h -3.5391 v 12.5 h 3.5391 z m -5,0 h -3.5391 v 12.5 h 3.5391 z m 74.14,-49.07 6.48,36.79 h -61.97 v 5 h 62.86 l 0.38,2.17 h -63.47 v 23.85 h -11.98 c 0,0 -6.87,3.44 -15,3.12 -8.12,-0.31 -5.31,-26.25 -5.31,-26.25 h -15.95 l 13.42,-16.73 -5.85,-4.69 -17.19,21.42 h -3.99 l 13.41,-16.73 -5.84,-4.69 -10.41,12.99 c 0.02,-1.05 0.08,-2.14 0.16,-3.29 l 4.02,-5.01 -3.06,-2.46 c 1.33,-7.31 4.09,-15.99 9.18,-25.49 h 78.38 v 17.03 c 0,3.81 3.09,6.89 6.9,6.89 3.8,0 6.9,-3.08 6.9,-6.89 v -17.03"
         style="fill:#ffffff;fill-opacity:1;fill-rule:nonzero;stroke:none"
         id="path604" />
      <path
         d="m 1542.69,6872.28 h 3.5391 v -12.5 h -3.5391 z m 4.92,0 h 3.5391 v -12.5 h -3.5391 z m 5.35,-102.03 h -3.5391 v 12.5 h 3.5391 z m 6.81,77.72 h 3.5391 v -12.5 h -3.5391 z m 4.92,0 h 3.5391 v -12.5 h -3.5391 z m -16.65,-77.72 h -3.5391 v 12.5 h 3.5391 z m 43.41,102.03 h 3.5391 v -12.5 h -3.5391 z m -18.7,-64.11 h 3.5391 v -12.5 h -3.5391 z m 5.01,0 h 3.5391 v -12.5 h -3.5391 z m 4.93,0 h 3.5391 v -12.5 h -3.5391 z m -39.66,-37.92 h -3.543 v 12.5 h 3.543 z m 0.37,68.69 -0.2,-1.56 c -1.32,-10 -5.08,-24.14 -5.09,-24.22 l -0.03,-0.1 -8.23,-46.65 h 74.32 l -11.31,55.07 h -25.61 v 5 h 54.39 l -0.82,1.28 h -54.36 v 5 h 14.1 v 6.96 c 0,2.16 1.74,3.9 3.89,3.9 2.15,0 3.9,-1.74 3.9,-3.9 v -6.96 h 4.58 l 0.29,0.57 0.38,0.77 c 0.26,0.52 0.62,1.29 1.06,2.26 0.88,1.96 2.06,4.74 3.23,8 2.36,6.5 4.66,14.94 4.64,22.2 0.01,3.79 -0.67,7.15 -2,9.85 h -30.84 -28.66 c -0.3,-1.16 -0.64,-2.54 -0.99,-4.25 -0.9,-4.3 -1.79,-10.06 -1.79,-15.7 -0.03,-6.44 1.22,-12.57 4.18,-16.28"
         style="fill:#ffffff;fill-opacity:1;fill-rule:nonzero;stroke:none"
         id="path606" />
      <path
         d="m 1696.11,6771.73 h -3.5391 v 12.5 h 3.5391 z m -4.92,0 h -3.543 v 12.5 h 3.543 z m -5,0 h -3.543 v 12.5 h 3.543 z m -7.08,58.53 h 3.5391 v -12.5 h -3.5391 z m -1.39,-12.5 h -3.5391 v 12.5 h 3.5391 z m -5,0 h -3.5391 v 12.5 h 3.5391 z m 27.91,-36.43 c -0.04,3.94 -1.07,7.19 -4.34,9.87 -4.88,3.98 -7.43,9.81 -8.93,15.73 -1.47,5.95 -1.85,12.15 -1.85,17.3 0,3.43 0.17,6.35 0.34,8.43 h -13.77 -10.48 v -0.49 c -0.01,-6.35 -0.19,-17.79 -1.72,-25.9 -0.53,-2.74 -1.13,-5.09 -2.32,-7.16 -0.69,-1.14 -1.66,-2.42 -3.49,-3.11 -1.7,-0.6 -3.24,-0.87 -4.68,-1 v -3.93 h 22.3 v -24.66 h 24.74 c 0.46,0.91 1.03,2.08 1.62,3.51 1.32,3.23 2.59,7.52 2.58,11.41"
         style="fill:#ffffff;fill-opacity:1;fill-rule:nonzero;stroke:none"
         id="path608" />
      <path
         d="m 1671.69,6766.41 v 24.66 h -22.29 v 3.93 c 1.43,0.14 2.97,0.4 4.67,1 1.83,0.69 2.8,1.97 3.49,3.12 1.19,2.06 1.79,4.41 2.32,7.15 1.53,8.11 1.71,19.55 1.72,25.9 v 0.49 h 10.48 13.77 c -0.17,-2.08 -0.34,-5 -0.34,-8.42 0,-5.15 0.38,-11.36 1.85,-17.31 1.5,-5.92 4.05,-11.75 8.93,-15.73 3.27,-2.68 4.3,-5.92 4.35,-9.86 0.01,-3.9 -1.26,-8.19 -2.59,-11.42 -0.59,-1.43 -1.15,-2.6 -1.62,-3.51 z m -5,19.66 v -19.66 h -57.41 l -11.32,55.07 h 26.86 l 15.76,-24.76 0.83,-0.46 c 0.25,-0.14 1.33,-0.65 2.99,-1.02 v -6.67 -2.5 z m -126.65,86.1 c 0.35,1.7 0.69,3.08 0.99,4.24 h 28.66 30.84 c 1.33,-2.7 2.01,-6.05 2,-9.85 0.02,-7.25 -2.28,-15.7 -4.64,-22.2 -1.17,-3.26 -2.35,-6.04 -3.23,-7.99 -0.44,-0.98 -0.8,-1.75 -1.06,-2.27 l -0.38,-0.77 -0.29,-0.56 h -4.58 v 6.96 c 0,2.15 -1.75,3.89 -3.9,3.89 -2.14,0 -3.89,-1.74 -3.89,-3.89 v -6.96 h -14.1 v -5 h 54.36 l 0.82,-1.29 h -54.39 v -5 h 25.61 l 11.31,-55.07 h -74.32 l 8.23,46.66 0.03,0.09 c 0.02,0.08 3.78,14.23 5.09,24.23 l 0.2,1.55 -0.97,1.24 c -2.96,3.71 -4.21,9.84 -4.18,16.28 0,5.64 0.89,11.41 1.79,15.71 m -144.9,-61.07 h 2.04 l -0.19,-2.32 z m 104.81,-20.76 c -3.81,0 -6.9,-3.09 -6.9,-6.9 v -17.03 h -78.38 c -5.09,9.51 -7.85,18.18 -9.18,25.49 l 3.07,2.46 -4.03,5.01 c -0.08,1.16 -0.13,2.25 -0.16,3.29 l 10.41,-12.98 5.85,4.68 -13.42,16.74 h 3.99 l 17.19,-21.42 5.85,4.68 -13.42,16.74 h 15.95 c 0,0 -2.81,25.93 5.31,26.25 8.13,0.31 15,-3.13 15,-3.13 h 11.98 v -23.85 h 63.47 l -0.38,-2.17 h -62.86 v -5 h 61.97 l -6.48,-36.79 h -17.93 v 17.03 c 0,3.81 -3.1,6.9 -6.9,6.9 m 201.05,6.7 c -2.96,2.35 -5.11,6.63 -6.35,11.7 -1.26,5.05 -1.65,10.74 -1.64,15.5 0,3.07 0.14,5.75 0.3,7.66 l 0.08,0.76 h 7.44 c 0,0 -16.25,17.19 -16.56,18.13 -0.31,0.93 -12.19,58.12 -12.19,58.12 l -15.94,-60.94 -10,-15.31 h 7.96 v -0.49 c 0,-4.68 -0.12,-12.35 -0.8,-18.89 -0.33,-3.26 -0.81,-6.25 -1.4,-8.27 -0.27,-0.98 -0.58,-1.71 -0.79,-2.06 -1.32,-0.42 -2.47,-0.59 -3.38,-0.59 -0.91,0 -1.56,0.15 -2.03,0.28 l -20.83,32.73 h -22.48 c 2.98,6.91 7.58,19.34 7.64,31.19 0,3.38 -0.63,6.67 -1.63,9.85 h 8.79 c 0,0 -14.69,16.25 -12.81,22.5 0.93,3.14 -2.88,6.37 -6.89,8.79 1.17,0.87 1.98,2.2 1.98,3.75 0,2.62 -2.14,4.75 -4.75,4.75 h -0.08 c 1.99,2.6 4.19,6.62 5.99,13.02 4.37,15.63 -30.94,96.56 -30.94,96.56 0,0 -35.31,-80.93 -30.94,-96.56 1.79,-6.4 3.98,-10.42 5.98,-13.02 h -0.08 c -2.62,0 -4.76,-2.13 -4.76,-4.75 0,-1.55 0.81,-2.88 1.99,-3.75 -4.02,-2.42 -7.83,-5.65 -6.88,-8.79 1.88,-6.25 -12.81,-22.5 -12.81,-22.5 h 11.11 c -1.12,-4.73 -2.54,-12.18 -2.55,-19.95 0.02,-6.65 1.14,-13.58 4.82,-19.28 -0.64,-4.38 -1.71,-9.63 -2.71,-13.93 -0.5,-2.14 -0.94,-3.96 -1.3,-5.38 h -55 v 16.35 h 7.08 c 0,0 -18.12,39.07 -17.18,50.63 h -0.78 l -2.33,17.09 -2.33,-17.09 h -20.83 l -2.33,17.09 -2.33,-17.09 h -0.64 c 0,0 -3.43,-38.44 -53.43,-73.75 h 4.06 l 11.75,-14.65 c 1.03,-9.67 4.16,-21.97 11.86,-35.63 l 1.08,-1.91 h 2.18 288.35 l 1.11,1.79 c 0.09,0.29 6.19,9.83 6.29,20.64 0.04,5.37 -1.8,11.44 -7.14,15.7"
         style="fill:#231f20;fill-opacity:1;fill-rule:nonzero;stroke:none"
         id="path610" />
      <path
         d="m 1447.1,6815.48 h 3.5391 v 12.5 H 1447.1 Z"
         style="fill:#231f20;fill-opacity:1;fill-rule:nonzero;stroke:none"
         id="path612" />
      <path
         d="m 1452.1,6815.48 h 3.5391 v 12.5 H 1452.1 Z"
         style="fill:#231f20;fill-opacity:1;fill-rule:nonzero;stroke:none"
         id="path614" />
      <path
         d="m 1457.02,6815.48 h 3.5391 v 12.5 h -3.5391 z"
         style="fill:#231f20;fill-opacity:1;fill-rule:nonzero;stroke:none"
         id="path616" />
      <path
         d="m 1539.49,6770.25 h 3.543 v 12.5 h -3.543 z"
         style="fill:#231f20;fill-opacity:1;fill-rule:nonzero;stroke:none"
         id="path618" />
      <path
         d="m 1544.49,6770.25 h 3.543 v 12.5 h -3.543 z"
         style="fill:#231f20;fill-opacity:1;fill-rule:nonzero;stroke:none"
         id="path620" />
      <path
         d="m 1549.41,6770.25 h 3.5391 v 12.5 h -3.5391 z"
         style="fill:#231f20;fill-opacity:1;fill-rule:nonzero;stroke:none"
         id="path622" />
      <path
         d="m 1542.68,6859.78 h 3.5391 v 12.5 h -3.5391 z"
         style="fill:#231f20;fill-opacity:1;fill-rule:nonzero;stroke:none"
         id="path624" />
      <path
         d="m 1547.6,6859.78 h 3.5391 v 12.5 H 1547.6 Z"
         style="fill:#231f20;fill-opacity:1;fill-rule:nonzero;stroke:none"
         id="path626" />
      <path
         d="m 1559.77,6835.47 h 3.5391 v 12.5 h -3.5391 z"
         style="fill:#231f20;fill-opacity:1;fill-rule:nonzero;stroke:none"
         id="path628" />
      <path
         d="m 1564.69,6835.47 h 3.5391 v 12.5 h -3.5391 z"
         style="fill:#231f20;fill-opacity:1;fill-rule:nonzero;stroke:none"
         id="path630" />
      <path
         d="m 1591.45,6859.78 h 3.5391 v 12.5 h -3.5391 z"
         style="fill:#231f20;fill-opacity:1;fill-rule:nonzero;stroke:none"
         id="path632" />
      <path
         d="m 1669.19,6817.76 h 3.5391 v 12.5 h -3.5391 z"
         style="fill:#231f20;fill-opacity:1;fill-rule:nonzero;stroke:none"
         id="path634" />
      <path
         d="m 1674.19,6817.76 h 3.5391 v 12.5 h -3.5391 z"
         style="fill:#231f20;fill-opacity:1;fill-rule:nonzero;stroke:none"
         id="path636" />
      <path
         d="m 1679.11,6817.76 h 3.5391 v 12.5 h -3.5391 z"
         style="fill:#231f20;fill-opacity:1;fill-rule:nonzero;stroke:none"
         id="path638" />
      <path
         d="m 1682.65,6771.73 h 3.543 v 12.5 h -3.543 z"
         style="fill:#231f20;fill-opacity:1;fill-rule:nonzero;stroke:none"
         id="path640" />
      <path
         d="m 1687.65,6771.73 h 3.543 v 12.5 h -3.543 z"
         style="fill:#231f20;fill-opacity:1;fill-rule:nonzero;stroke:none"
         id="path642" />
      <path
         d="m 1692.57,6771.73 h 3.5391 v 12.5 h -3.5391 z"
         style="fill:#231f20;fill-opacity:1;fill-rule:nonzero;stroke:none"
         id="path644" />
      <path
         d="m 1572.76,6795.67 h 3.5391 v 12.5 h -3.5391 z"
         style="fill:#231f20;fill-opacity:1;fill-rule:nonzero;stroke:none"
         id="path646" />
      <path
         d="m 1577.76,6795.67 h 3.5391 v 12.5 h -3.5391 z"
         style="fill:#231f20;fill-opacity:1;fill-rule:nonzero;stroke:none"
         id="path648" />
      <path
         d="m 1582.68,6795.67 h 3.5391 v 12.5 h -3.5391 z"
         style="fill:#231f20;fill-opacity:1;fill-rule:nonzero;stroke:none"
         id="path650" />
    </g>
  </g>
</svg>
