<?xml version="1.0" encoding="UTF-8" standalone="no"?>
<!-- John Grümph
     https://legrumph.org/Terrier/public/chibi/de-chorographia
     CC BY-NC 3.0
     https://creativecommons.org/licenses/by-nc/3.0/fr/ -->
<!-- Created with Inkscape (http://www.inkscape.org/) -->

<svg
   version="1.1"
   id="svg2"
   width="30.722656"
   height="30.640001"
   viewBox="0 0 30.722656 30.64"
   xmlns="http://www.w3.org/2000/svg"
   xmlns:svg="http://www.w3.org/2000/svg">
  <defs
     id="defs6" />
  <g
     id="g10"
     transform="matrix(1.3333333,0,0,-1.3333333,-647.45868,931.73597)">
    <g
       id="g12"
       transform="scale(0.1)">
      <path
         d="m 4909.67,6819.24 h 3.5352 v -12.5 h -3.5352 z m 4.46,-34.79 h 3.5391 v -12.5 h -3.5391 z m 0.54,34.79 h 3.5352 v -12.5 h -3.5352 z m 4.46,-34.79 h 3.5391 v -12.5 h -3.5391 z m 0.46,34.79 h 3.5391 v -12.5 h -3.5391 z m 4.46,-34.79 h 3.5391 v -12.5 h -3.5391 z m 3.54,72.92 h 3.5391 v -12.5 h -3.5391 z m 5,0 h 3.5391 v -12.5 h -3.5391 z m 4.92,0 h 3.5352 v -12.5 h -3.5352 z m -48.13,-85.42 h -3.5391 v 12.5 h 3.5391 z m 67.61,33.93 h 3.5352 v -12.5 h -3.5352 z m 20,-21.43 h 3.5352 v -12.5 h -3.5352 z m 5,0 h 3.5352 v -12.5 h -3.5352 z m 4.92,0 h 3.5391 v -12.5 h -3.5391 z m 12.91,30.65 h 3.5391 v -12.5 h -3.5391 z m 5,0 h 3.5391 v -12.5 h -3.5391 z m 4.93,0 h 3.5391 v -12.5 h -3.5391 z m 41.97,-49.38 -4.65,38.51 -7.39,-9.32 -2.94,2.33 -2.94,2.34 12.01,15.12 -0.35,2.84 c -0.92,0 -1.85,0 -2.78,0 l -17.95,-22.63 -2.94,2.33 -2.94,2.34 14.25,17.95 c -31.61,-0.03 -66.29,-0.04 -70.28,0.07 -7.5,0.21 -7.28,22.5 -7.5,28.54 -0.2,6.04 -5,15.42 -5,15.42 0,0 -29.58,2.08 -34.37,0 -4.79,-2.09 -5.83,-21.46 -5.83,-21.46 h -19.88 c -1.52,-15.37 -4.17,-38.24 -7.85,-56.24 -1.46,-7.02 -3.02,-13.18 -4.87,-18.14 h 18.35 v 17.04 c 0,3.8 3.09,6.89 6.9,6.89 3.8,0 6.9,-3.09 6.9,-6.89 v -17.04"
         style="fill:#ffffff;fill-opacity:1;fill-rule:nonzero;stroke:none"
         id="path1766" />
      <path
         d="m 5030.86,6847.85 -1.11,84.55 h -4.53 l -7.1,-77.68 c 3.99,-2.14 8.27,-4.45 12.74,-6.87"
         style="fill:#ffffff;fill-opacity:1;fill-rule:nonzero;stroke:none"
         id="path1768" />
      <path
         d="m 4909.67,6806.74 h 3.5352 v 12.5 h -3.5352 z"
         style="fill:#231f20;fill-opacity:1;fill-rule:nonzero;stroke:none"
         id="path1770" />
      <path
         d="m 4914.67,6806.74 h 3.5352 v 12.5 h -3.5352 z"
         style="fill:#231f20;fill-opacity:1;fill-rule:nonzero;stroke:none"
         id="path1772" />
      <path
         d="m 4919.59,6806.74 h 3.5391 v 12.5 h -3.5391 z"
         style="fill:#231f20;fill-opacity:1;fill-rule:nonzero;stroke:none"
         id="path1774" />
      <path
         d="m 4977,6771.95 h 3.5391 v 12.5 H 4977 Z"
         style="fill:#231f20;fill-opacity:1;fill-rule:nonzero;stroke:none"
         id="path1776" />
      <path
         d="m 4982,6771.95 h 3.5391 v 12.5 H 4982 Z"
         style="fill:#231f20;fill-opacity:1;fill-rule:nonzero;stroke:none"
         id="path1778" />
      <path
         d="m 4986.92,6771.95 h 3.5352 v 12.5 h -3.5352 z"
         style="fill:#231f20;fill-opacity:1;fill-rule:nonzero;stroke:none"
         id="path1780" />
      <path
         d="m 4957,6793.38 h 3.5391 v 12.5 H 4957 Z"
         style="fill:#231f20;fill-opacity:1;fill-rule:nonzero;stroke:none"
         id="path1782" />
      <path
         d="m 4914.13,6771.95 h 3.543 v 12.5 h -3.543 z"
         style="fill:#231f20;fill-opacity:1;fill-rule:nonzero;stroke:none"
         id="path1784" />
      <path
         d="m 4919.13,6771.95 h 3.543 v 12.5 h -3.543 z"
         style="fill:#231f20;fill-opacity:1;fill-rule:nonzero;stroke:none"
         id="path1786" />
      <path
         d="m 4924.05,6771.95 h 3.5391 v 12.5 h -3.5391 z"
         style="fill:#231f20;fill-opacity:1;fill-rule:nonzero;stroke:none"
         id="path1788" />
      <path
         d="m 4999.82,6802.6 h 3.5391 v 12.5 h -3.5391 z"
         style="fill:#231f20;fill-opacity:1;fill-rule:nonzero;stroke:none"
         id="path1790" />
      <path
         d="m 5004.82,6802.6 h 3.5391 v 12.5 h -3.5391 z"
         style="fill:#231f20;fill-opacity:1;fill-rule:nonzero;stroke:none"
         id="path1792" />
      <path
         d="m 5009.74,6802.6 h 3.5352 v 12.5 h -3.5352 z"
         style="fill:#231f20;fill-opacity:1;fill-rule:nonzero;stroke:none"
         id="path1794" />
      <path
         d="m 4885.85,6771.95 h 3.5391 v 12.5 h -3.5391 z"
         style="fill:#231f20;fill-opacity:1;fill-rule:nonzero;stroke:none"
         id="path1796" />
      <path
         d="m 4927.59,6844.87 h 3.5391 v 12.5 h -3.5391 z"
         style="fill:#231f20;fill-opacity:1;fill-rule:nonzero;stroke:none"
         id="path1798" />
      <path
         d="m 4932.59,6844.87 h 3.5391 v 12.5 h -3.5391 z"
         style="fill:#231f20;fill-opacity:1;fill-rule:nonzero;stroke:none"
         id="path1800" />
      <path
         d="m 4937.51,6844.87 h 3.5352 v 12.5 h -3.5352 z"
         style="fill:#231f20;fill-opacity:1;fill-rule:nonzero;stroke:none"
         id="path1802" />
      <path
         d="m 4881.57,6829.43 -5.9,10.67 h 7.03 c -0.32,-3.28 -0.7,-6.87 -1.13,-10.67 m 172.05,-16.94 4.02,5.07 c 1.93,0 3.8,0 5.6,0 l -8.88,-11.18 z m -23.88,119.9 1.12,-84.54 c -4.48,2.41 -8.75,4.72 -12.75,6.86 l 7.1,77.68 z m -126.97,-142.74 c -3.81,0 -6.9,-3.09 -6.9,-6.89 v -17.04 h -18.35 c 1.84,4.96 3.41,11.12 4.87,18.14 3.68,18 6.33,40.87 7.85,56.24 h 19.87 c 0,0 1.05,19.37 5.84,21.46 4.79,2.08 34.37,0 34.37,0 0,0 4.79,-9.38 5,-15.42 0.21,-6.04 0,-28.33 7.5,-28.54 3.98,-0.11 38.67,-0.1 70.27,-0.07 l -14.24,-17.95 2.93,-2.34 2.94,-2.33 17.95,22.63 c 0.94,0 1.87,0 2.79,0 l 0.35,-2.84 -12.01,-15.12 2.94,-2.34 2.94,-2.33 7.39,9.32 4.65,-38.51 h -142.05 v 17.04 c 0,3.8 -3.1,6.89 -6.9,6.89 m 170.06,27.92 c 8.28,0.02 13.53,0.03 13.53,0.03 0,0 -24.49,13.44 -47.95,26.16 l -1.26,96.13 h -18.79 l -7.42,-81.34 c -7.47,3.97 -12.95,6.82 -14.37,7.38 -6.25,2.5 -25.41,26.04 -25.41,26.04 0,0 -27.5,9.59 -38.97,96.05 -8.75,-54.17 -38.53,-109.8 -38.53,-109.8 l -37.72,-38.12 h 11.16 l 12.95,-23.4 c -0.68,-5.26 -1.43,-10.63 -2.25,-15.89 -1.27,-8.05 -2.7,-15.82 -4.3,-22.34 -1.56,-6.5 -3.36,-11.82 -4.98,-14.65 l -3.18,-5.6 h 6.44 188.39 l -4.55,37.68"
         style="fill:#231f20;fill-opacity:1;fill-rule:nonzero;stroke:none"
         id="path1804" />
    </g>
  </g>
</svg>
