<?xml version="1.0" encoding="UTF-8" standalone="no"?>
<!-- Created with Inkscape (http://www.inkscape.org/) -->

<svg
   version="1.1"
   id="svg2"
   width="45.749359"
   height="31.625368"
   viewBox="0 0 45.749359 31.625367"
   xmlns="http://www.w3.org/2000/svg"
   xmlns:svg="http://www.w3.org/2000/svg">
  <defs
     id="defs6" />
  <g
     id="g10"
     transform="matrix(1.3333333,0,0,-1.3333333,-346.26398,932.72132)">
    <g
       id="g12"
       transform="scale(0.1)">
      <path
         d="m 2639.29,6788.31 h 3.5391 v -12.5 h -3.5391 z m 5,0 h 3.5391 v -12.5 h -3.5391 z m 4.92,0 h 3.5391 v -12.5 h -3.5391 z m 29.5,0 h 3.5391 v -12.5 h -3.5391 z m 5,0 h 3.5391 v -12.5 h -3.5391 z m 4.92,0 h 3.543 v -12.5 h -3.543 z m 27.52,0 h 3.543 v -12.5 h -3.543 z m 5,0 h 3.543 v -12.5 h -3.543 z m 4.92,0 h 3.5391 v -12.5 h -3.5391 z m -99.53,-22.58 h 143.51 v 0.04 c 0,4.2 -0.37,13.22 -0.75,21.11 -0.16,3.29 -0.32,6.35 -0.45,8.85 h -123.63 l -14.17,-4.01 -0.41,-0.78 c -0.69,-1.32 -1.63,-3.2 -2.54,-5.37 -1.87,-4.32 -3.63,-9.88 -3.6,-14.03 0,-1.61 0.26,-2.97 0.7,-3.99"
         style="fill:#ffffff;fill-opacity:1;fill-rule:nonzero;stroke:none"
         id="path1110" />
      <path
         d="m 2875.2,6775.81 h -3.5391 v 12.5 h 3.5391 z m -50.08,0.64 h -3.543 v 12.5 h 3.543 z m -4.92,0 h -3.5391 v 12.5 h 3.5391 z m -52.71,80.71 h -3.5391 v 12.5 h 3.5391 z m -4.92,0 h -3.5391 v 12.5 h 3.5391 z m -5,0 h -3.5391 v 12.5 h 3.5391 z m -7.7,-37.73 h -3.5391 v 12.5 h 3.5391 z m -81.33,14.63 h -3.5391 v 12.5 h 3.5391 z m -4.93,0 h -3.5391 v 12.5 h 3.5391 z m 32.11,31.25 h -3.5391 v 12.5 h 3.5391 z m 189.66,-57.65 -13.72,-9.04 -4.12,6.26 15.93,10.5 c -0.27,0.96 -0.5,1.75 -0.67,2.29 l -0.55,0.44 c -1.99,0 -3.99,0.01 -6.01,0.01 l -29.6,-19.5 -4.12,6.26 20.17,13.29 c -36.37,0.18 -73.32,0.74 -80.4,2.25 -14.69,3.12 -8.44,55.49 -8.44,55.49 h -28.13 l -0.99,-9.28 6.85,-17.13 -3.48,-1.39 -3.48,-1.39 -6,14.96 c -2.03,0.12 -4.48,0.28 -7.16,0.48 l 5.08,-12.66 -3.48,-1.39 -3.48,-1.39 -6.46,16.14 c -3.03,0.28 -6.01,0.59 -8.67,0.94 l 5.73,-14.3 -3.48,-1.39 -3.49,-1.39 -7.59,18.97 c -6.56,3.02 -3.65,17.54 -3.65,17.54 h -29.63 l 13.8,-11.04 -4.68,-5.86 -9.17,7.34 v -13.41 h 25 c 0,0 -19.07,-5.6 -25,-6.66 v -0.79 h -3.75 -11.25 v -37.12 c 22.3,9.35 40.93,18.37 40.93,18.37 l 96.25,-38.33 h -20.61 c 0.45,-8.59 1.19,-23.78 1.19,-29.96 v -0.04 h 62.63 v 17.03 c 0,3.8 3.09,6.89 6.9,6.89 3.8,0 6.89,-3.09 6.89,-6.89 v -17.03 h 29.7 l 0.06,-0.01 c 0.2,0.01 1.85,0.05 3.48,1.62 1.62,1.57 3.81,5.18 3.83,13.81 0,9.85 -1.6,19.45 -3.16,26.51"
         style="fill:#ffffff;fill-opacity:1;fill-rule:nonzero;stroke:none"
         id="path1112" />
      <path
         d="m 2864.38,6850.99 -10.52,67.86 h -5.63 l -1.59,-58.9 c 5.34,-2.88 11.36,-5.9 17.74,-8.96"
         style="fill:#ffffff;fill-opacity:1;fill-rule:nonzero;stroke:none"
         id="path1114" />
      <path
         d="m 2639.29,6775.81 h 3.5391 v 12.5 h -3.5391 z"
         style="fill:#231f20;fill-opacity:1;fill-rule:nonzero;stroke:none"
         id="path1116" />
      <path
         d="m 2644.29,6775.81 h 3.5391 v 12.5 h -3.5391 z"
         style="fill:#231f20;fill-opacity:1;fill-rule:nonzero;stroke:none"
         id="path1118" />
      <path
         d="m 2649.21,6775.81 h 3.5391 v 12.5 h -3.5391 z"
         style="fill:#231f20;fill-opacity:1;fill-rule:nonzero;stroke:none"
         id="path1120" />
      <path
         d="m 2678.72,6775.81 h 3.543 v 12.5 h -3.543 z"
         style="fill:#231f20;fill-opacity:1;fill-rule:nonzero;stroke:none"
         id="path1122" />
      <path
         d="m 2683.72,6775.81 h 3.543 v 12.5 h -3.543 z"
         style="fill:#231f20;fill-opacity:1;fill-rule:nonzero;stroke:none"
         id="path1124" />
      <path
         d="m 2688.64,6775.81 h 3.5391 v 12.5 h -3.5391 z"
         style="fill:#231f20;fill-opacity:1;fill-rule:nonzero;stroke:none"
         id="path1126" />
      <path
         d="m 2716.16,6775.81 h 3.5391 v 12.5 h -3.5391 z"
         style="fill:#231f20;fill-opacity:1;fill-rule:nonzero;stroke:none"
         id="path1128" />
      <path
         d="m 2721.16,6775.81 h 3.5391 v 12.5 h -3.5391 z"
         style="fill:#231f20;fill-opacity:1;fill-rule:nonzero;stroke:none"
         id="path1130" />
      <path
         d="m 2726.08,6775.81 h 3.5352 v 12.5 h -3.5352 z"
         style="fill:#231f20;fill-opacity:1;fill-rule:nonzero;stroke:none"
         id="path1132" />
      <path
         d="m 2660.07,6834.06 h 3.5391 v 12.5 h -3.5391 z"
         style="fill:#231f20;fill-opacity:1;fill-rule:nonzero;stroke:none"
         id="path1134" />
      <path
         d="m 2664.99,6834.06 h 3.543 v 12.5 h -3.543 z"
         style="fill:#231f20;fill-opacity:1;fill-rule:nonzero;stroke:none"
         id="path1136" />
      <path
         d="m 2692.18,6865.31 h 3.5391 v 12.5 h -3.5391 z"
         style="fill:#231f20;fill-opacity:1;fill-rule:nonzero;stroke:none"
         id="path1138" />
      <path
         d="m 2746.33,6819.43 h 3.5352 v 12.5 h -3.5352 z"
         style="fill:#231f20;fill-opacity:1;fill-rule:nonzero;stroke:none"
         id="path1140" />
      <path
         d="m 2754.02,6857.16 h 3.5391 v 12.5 h -3.5391 z"
         style="fill:#231f20;fill-opacity:1;fill-rule:nonzero;stroke:none"
         id="path1142" />
      <path
         d="m 2759.02,6857.16 h 3.5391 v 12.5 h -3.5391 z"
         style="fill:#231f20;fill-opacity:1;fill-rule:nonzero;stroke:none"
         id="path1144" />
      <path
         d="m 2763.95,6857.16 h 3.5391 v 12.5 h -3.5391 z"
         style="fill:#231f20;fill-opacity:1;fill-rule:nonzero;stroke:none"
         id="path1146" />
      <path
         d="m 2893.05,6807.68 c -0.33,1.59 -0.65,3.02 -0.99,4.37 l 9.18,6.05 c 2.65,0 5.19,0 7.65,0.01 z m -228.26,72 v -2.62 l -7.71,6.17 h 3.26 z m 189.07,39.17 10.52,-67.86 c -6.37,3.06 -12.39,6.08 -17.75,8.97 l 1.61,58.89 z m -229.35,-147.31 c -0.03,4.15 1.72,9.71 3.59,14.03 0.92,2.16 1.85,4.04 2.55,5.37 l 0.41,0.77 14.17,4.02 h 123.62 c 0.14,-2.5 0.29,-5.56 0.45,-8.85 0.38,-7.89 0.75,-16.91 0.75,-21.11 v -0.04 h -143.5 l -1.35,1.81 c -0.44,1.03 -0.69,2.39 -0.69,4 m 256.72,-5.82 -0.05,0.01 h -29.7 v 17.02 c 0,3.81 -3.1,6.9 -6.9,6.9 -3.81,0 -6.9,-3.09 -6.9,-6.9 v -17.02 h -62.63 v 0.04 c 0,6.18 -0.74,21.37 -1.19,29.96 h 20.62 l -96.25,38.33 c 0,0 -18.64,-9.03 -40.94,-18.37 v 37.12 h 11.25 3.75 v 0.79 c 5.94,1.06 25,6.66 25,6.66 h -25 v 13.41 l 9.17,-7.34 4.69,5.86 -13.8,11.04 h 29.63 c 0,0 -2.91,-14.52 3.64,-17.54 l 7.6,-18.98 3.48,1.39 3.48,1.4 -5.72,14.3 c 2.65,-0.35 5.63,-0.66 8.66,-0.94 l 6.46,-16.15 3.48,1.39 3.49,1.4 -5.08,12.66 c 2.67,-0.2 5.12,-0.36 7.16,-0.49 l 5.99,-14.96 3.48,1.39 3.49,1.4 -6.86,17.13 1,9.28 h 28.12 c 0,0 -6.25,-52.37 8.44,-55.5 7.08,-1.5 44.03,-2.07 80.4,-2.24 l -20.17,-13.29 4.12,-6.26 29.6,19.5 c 2.02,-0.01 4.03,-0.01 6.01,-0.02 l 0.56,-0.43 c 0.16,-0.55 0.4,-1.33 0.66,-2.29 l -15.93,-10.5 4.12,-6.26 13.72,9.04 c 1.57,-7.06 3.17,-16.66 3.16,-26.51 -0.02,-8.64 -2.21,-12.24 -3.83,-13.81 -1.63,-1.57 -3.28,-1.61 -3.48,-1.62 m 41.35,52.42 c 10.74,0.04 17.52,0.09 17.52,0.09 0,0 -7.67,3.03 -19.04,7.74 l -0.07,0.11 -0.07,-0.05 c -13.22,5.48 -31.39,13.21 -48.35,21.1 l -12.28,79.22 h -19.36 l -1.68,-62.24 c -5.42,3.2 -9.62,6.1 -11.96,8.49 -15.63,15.94 -56.56,122.81 -56.56,122.81 0,0 -32.19,-93.43 -44.07,-94.37 -11.87,-0.94 -23.75,33.12 -23.75,33.12 0,0 -45.62,-43.75 -67.18,-50.93 h 9.35 l 19.71,-15.77 v -7.15 h -11.25 -3.75 v -47.71 c -19.03,-7.72 -39.45,-15 -52.81,-16.87 h 27.73 c -0.75,-1.36 -2.1,-3.92 -3.52,-7.22 -2.02,-4.82 -4.16,-10.95 -4.18,-16.97 0,-2.35 0.34,-4.72 1.3,-6.96 0.95,-2.24 2.59,-4.31 4.87,-5.76 l 0.91,-0.59 h 256.95 l 0.18,-0.01 c 1.29,-0.01 5.16,0.32 8.69,3.71 3.53,3.4 6.15,9.38 6.13,19.22 -0.01,6.55 -0.68,12.83 -1.54,18.5"
         style="fill:#231f20;fill-opacity:1;fill-rule:nonzero;stroke:none"
         id="path1148" />
      <path
         d="m 2816.66,6776.45 h 3.5391 v 12.5 h -3.5391 z"
         style="fill:#231f20;fill-opacity:1;fill-rule:nonzero;stroke:none"
         id="path1150" />
      <path
         d="m 2821.58,6776.45 h 3.543 v 12.5 h -3.543 z"
         style="fill:#231f20;fill-opacity:1;fill-rule:nonzero;stroke:none"
         id="path1152" />
      <path
         d="m 2871.66,6775.81 h 3.5391 v 12.5 h -3.5391 z"
         style="fill:#231f20;fill-opacity:1;fill-rule:nonzero;stroke:none"
         id="path1154" />
    </g>
  </g>
</svg>
