<?xml version="1.0" encoding="UTF-8" standalone="no"?>
<!-- John Grümph
     https://legrumph.org/Terrier/public/chibi/de-chorographia
     CC BY-NC 3.0
     https://creativecommons.org/licenses/by-nc/3.0/fr/ -->
<!-- Created with Inkscape (http://www.inkscape.org/) -->

<svg
   version="1.1"
   id="svg2"
   width="33.710533"
   height="33.430664"
   viewBox="0 0 33.710533 33.430663"
   xmlns="http://www.w3.org/2000/svg"
   xmlns:svg="http://www.w3.org/2000/svg">
  <defs
     id="defs6" />
  <g
     id="g10"
     transform="matrix(1.3333333,0,0,-1.3333333,-67.069733,833.98798)">
    <g
       id="g12"
       transform="scale(0.1)">
      <path
         d="m 547.648,6052.73 h -3.53906 v 12.5 h 3.53906 z m -4.929,0 h -3.53906 v 12.5 h 3.53906 z m -5,0 h -3.53906 v 12.5 h 3.53906 z m -5.348,89.19 h 3.53906 v -12.5 H 532.371 Z m 5,0 h 3.53906 v -12.5 H 537.371 Z m 4.918,0 h 3.53906 v -12.5 H 542.289 Z m -17.961,-122.76 h -3.53906 v 12.5 h 3.53906 z m 33,94.61 h 3.54297 v -12.5 H 557.328 Z m 4.934,0 h 3.53906 v -12.5 H 562.262 Z m 8.449,-49.58 -6.441,13.66 c -9.829,-0.3 -18.59,0.09 -21.879,1.91 l 33.64,22.12 -3.312,48.97 H 550.211 527.27 l -0.071,-0.28 c -0.859,-4.01 -1.699,-9.11 -1.687,-13.04 -0.032,-2.42 0.386,-4.36 0.769,-4.97 l 0.168,-0.25 c 3.801,-3.18 5.571,-7.43 6.531,-10.78 0.95,-3.36 1.059,-5.95 1.071,-6.14 l 0.039,-0.69 -0.211,-0.65 c -0.008,-0.01 -1.258,-3.82 -3.168,-10.3 -1.891,-6.48 -4.43,-15.57 -6.973,-26.02 -4.879,-20.12 -9.636,-45.2 -9.968,-66.05 h 46.019"
         style="fill:#ffffff;fill-opacity:1;fill-rule:nonzero;stroke:none"
         id="path364" />
      <path
         d="m 639.602,6026.95 h 3.53906 v -12.5 H 639.602 Z m 5,0 h 3.53906 v -12.5 H 644.602 Z m 4.918,0 h 3.53906 v -12.5 H 649.52 Z m 28.89,24.22 h 3.53906 v -12.5 H 678.41 Z m 5,0 h 3.53906 v -12.5 H 683.41 Z m 4.918,0 h 3.54297 v -12.5 H 688.328 Z m 6.953,-24.22 h 3.53906 v -12.5 H 695.281 Z m 5,0 h 3.53906 v -12.5 H 700.281 Z m 4.93,0 h 3.53906 v -12.5 H 705.211 Z m -97.051,-12.5 h -3.53906 v 12.5 H 608.16 Z m -4.922,0 h -3.53906 v 12.5 h 3.53906 z m 21.512,65.57 h -3.53906 v 12.5 H 624.75 Z m -4.93,0 h -3.53906 v 12.5 H 619.82 Z m -5,0 h -3.53906 v 12.5 H 614.82 Z m -11.582,-17.35 h -3.53906 v 12.5 h 3.53906 z m -10.109,-17.75 h -3.53906 v 12.5 h 3.53906 z m -4.93,0 h -3.53906 v 12.5 h 3.53906 z m -5,0 h -3.53906 v 12.5 h 3.53906 z m 138.68,-33.24 -2.539,19.66 -17.281,4.04 h 16.761 l -1.16,8.99 -10.762,-8.63 -2.347,2.93 -2.34,2.92 14.309,11.49 -0.059,0.53 c -34.68,0.54 -79.691,1.35 -79.691,1.93 0,0.94 -6.25,32.19 -6.25,32.19 0,0 0,10.83 -9.059,11.04 -9.07,0.21 -11.883,2.86 -14.383,-3.78 -2.5,-6.64 -2.187,-12.26 -5.308,-13.51 -1.129,-0.45 -8,-1.43 -16.711,-2.26 l 6.832,-14.6 -6.782,-3.18 -6.828,14.56 -1.48,-7.12 2.64,-5.59 -4.222,-1.99 -5.008,-24.04 h 81.09 l -82.211,-5.43 -4.199,-20.15 h 59.859 v 7.99 c 0,2.15 1.738,3.9 3.891,3.9 2.148,0 3.898,-1.75 3.898,-3.9 v -7.99"
         style="fill:#ffffff;fill-opacity:1;fill-rule:nonzero;stroke:none"
         id="path366" />
      <path
         d="m 572.383,6078.23 0.871,-1.85 0.398,1.92"
         style="fill:#ffffff;fill-opacity:1;fill-rule:nonzero;stroke:none"
         id="path368" />
      <path
         d="m 724.504,6049.86 4.437,3.56 c 2.301,-0.03 4.493,-0.07 6.582,-0.1 l -10.39,-8.32 z m -152.121,28.37 1.269,0.07 -0.398,-1.92 z m -48.641,-0.5 c 2.539,10.45 5.078,19.54 6.969,26.02 1.91,6.48 3.16,10.29 3.172,10.3 l 0.211,0.65 -0.043,0.69 c -0.008,0.19 -0.129,2.78 -1.071,6.14 -0.957,3.35 -2.726,7.6 -6.539,10.78 l -0.16,0.26 c -0.379,0.6 -0.801,2.54 -0.769,4.96 -0.008,3.93 0.832,9.03 1.691,13.04 l 0.059,0.28 h 22.941 22.52 l 3.3,-48.97 -33.632,-22.12 c 3.293,-1.82 12.05,-2.21 21.882,-1.91 l 6.438,-13.66 -10.93,-52.51 h -46.008 c 0.329,20.85 5.09,45.93 9.969,66.05 m 104.899,-54.16 c -2.149,0 -3.899,-1.75 -3.899,-3.9 v -7.99 h -59.851 l 4.203,20.15 82.207,5.43 h -81.09 l 5.012,24.04 4.218,1.99 -2.648,5.59 1.488,7.12 6.832,-14.56 6.778,3.18 -6.828,14.6 c 8.71,0.84 15.578,1.81 16.71,2.26 3.118,1.25 2.809,6.87 5.309,13.51 2.5,6.64 5.309,3.99 14.371,3.78 9.07,-0.21 9.07,-11.04 9.07,-11.04 0,0 6.25,-31.25 6.25,-32.19 0,-0.58 45.008,-1.39 79.68,-1.93 l 0.07,-0.53 -14.312,-11.49 2.34,-2.92 2.351,-2.93 10.75,8.63 1.168,-8.99 h -16.757 l 17.269,-4.04 2.539,-19.66 h -89.328 v 7.99 c 0,2.15 -1.75,3.9 -3.902,3.9 m 127.211,29.47 -0.02,3.12 c 0,0 1.25,1.57 -17.809,5 -19.07,3.44 -38.441,27.58 -38.441,27.58 v 26.49 h -25 l -25.73,69.22 -2.508,18.43 -2.332,-17.03 h -25.489 l -2.32,17.03 -2.5,-18.37 -30.832,-72.61 -2.629,38.95 h 17.149 c -4.059,14.38 -8.75,18.75 -18.118,20.52 4.059,5.83 -4.07,24.79 -13.441,31.51 4.691,8.28 -15.629,52.03 -15.629,52.03 0,0 -20.312,-43.75 -15.621,-52.03 -9.379,-6.72 -17.5,-25.68 -13.441,-31.51 -9.368,-1.77 -14.059,-6.14 -18.118,-20.52 h 16.59 c -0.82,-4.07 -1.582,-8.93 -1.601,-13.32 0,-2.03 0.148,-3.98 0.629,-5.84 0.492,-1.83 1.3,-3.71 3.031,-5.16 2.031,-1.64 3.391,-4.49 4.09,-7.04 0.359,-1.26 0.57,-2.42 0.672,-3.23 l 0.07,-0.62 c -2.281,-7.2 -20.313,-64.5 -20.363,-106.41 v -1.33 l 0.043,-3.72 h 3.707 220.519 l -4.148,32.11 21.031,16.87 c 5.34,-0.08 8.559,-0.12 8.559,-0.12"
         style="fill:#231f20;fill-opacity:1;fill-rule:nonzero;stroke:none"
         id="path370" />
      <path
         d="m 532.371,6129.42 h 3.53906 v 12.5 H 532.371 Z"
         style="fill:#231f20;fill-opacity:1;fill-rule:nonzero;stroke:none"
         id="path372" />
      <path
         d="m 537.371,6129.42 h 3.53906 v 12.5 H 537.371 Z"
         style="fill:#231f20;fill-opacity:1;fill-rule:nonzero;stroke:none"
         id="path374" />
      <path
         d="m 542.289,6129.42 h 3.53906 v 12.5 H 542.289 Z"
         style="fill:#231f20;fill-opacity:1;fill-rule:nonzero;stroke:none"
         id="path376" />
      <path
         d="m 534.18,6052.73 h 3.53906 v 12.5 H 534.18 Z"
         style="fill:#231f20;fill-opacity:1;fill-rule:nonzero;stroke:none"
         id="path378" />
      <path
         d="m 539.18,6052.73 h 3.53906 v 12.5 H 539.18 Z"
         style="fill:#231f20;fill-opacity:1;fill-rule:nonzero;stroke:none"
         id="path380" />
      <path
         d="m 544.102,6052.73 h 3.53906 v 12.5 H 544.102 Z"
         style="fill:#231f20;fill-opacity:1;fill-rule:nonzero;stroke:none"
         id="path382" />
      <path
         d="m 639.602,6014.45 h 3.53906 v 12.5 H 639.602 Z"
         style="fill:#231f20;fill-opacity:1;fill-rule:nonzero;stroke:none"
         id="path384" />
      <path
         d="m 644.602,6014.45 h 3.53906 v 12.5 H 644.602 Z"
         style="fill:#231f20;fill-opacity:1;fill-rule:nonzero;stroke:none"
         id="path386" />
      <path
         d="m 649.531,6014.45 h 3.53906 v 12.5 H 649.531 Z"
         style="fill:#231f20;fill-opacity:1;fill-rule:nonzero;stroke:none"
         id="path388" />
      <path
         d="m 695.289,6014.45 h 3.53906 v 12.5 H 695.289 Z"
         style="fill:#231f20;fill-opacity:1;fill-rule:nonzero;stroke:none"
         id="path390" />
      <path
         d="m 700.289,6014.45 h 3.53906 v 12.5 H 700.289 Z"
         style="fill:#231f20;fill-opacity:1;fill-rule:nonzero;stroke:none"
         id="path392" />
      <path
         d="m 705.211,6014.45 h 3.53906 v 12.5 H 705.211 Z"
         style="fill:#231f20;fill-opacity:1;fill-rule:nonzero;stroke:none"
         id="path394" />
      <path
         d="m 678.41,6038.67 h 3.53906 v 12.5 H 678.41 Z"
         style="fill:#231f20;fill-opacity:1;fill-rule:nonzero;stroke:none"
         id="path396" />
      <path
         d="m 683.41,6038.67 h 3.53906 v 12.5 H 683.41 Z"
         style="fill:#231f20;fill-opacity:1;fill-rule:nonzero;stroke:none"
         id="path398" />
      <path
         d="m 688.34,6038.67 h 3.53906 v 12.5 H 688.34 Z"
         style="fill:#231f20;fill-opacity:1;fill-rule:nonzero;stroke:none"
         id="path400" />
      <path
         d="m 611.289,6080.02 h 3.53906 v 12.5 H 611.289 Z"
         style="fill:#231f20;fill-opacity:1;fill-rule:nonzero;stroke:none"
         id="path402" />
      <path
         d="m 616.289,6080.02 h 3.53906 v 12.5 H 616.289 Z"
         style="fill:#231f20;fill-opacity:1;fill-rule:nonzero;stroke:none"
         id="path404" />
      <path
         d="m 621.211,6080.02 h 3.53906 v 12.5 H 621.211 Z"
         style="fill:#231f20;fill-opacity:1;fill-rule:nonzero;stroke:none"
         id="path406" />
      <path
         d="m 579.66,6044.92 h 3.53906 v 12.5 H 579.66 Z"
         style="fill:#231f20;fill-opacity:1;fill-rule:nonzero;stroke:none"
         id="path408" />
      <path
         d="m 584.66,6044.92 h 3.53906 v 12.5 H 584.66 Z"
         style="fill:#231f20;fill-opacity:1;fill-rule:nonzero;stroke:none"
         id="path410" />
      <path
         d="m 589.578,6044.92 h 3.54297 v 12.5 H 589.578 Z"
         style="fill:#231f20;fill-opacity:1;fill-rule:nonzero;stroke:none"
         id="path412" />
      <path
         d="m 557.328,6101.27 h 3.54297 v 12.5 H 557.328 Z"
         style="fill:#231f20;fill-opacity:1;fill-rule:nonzero;stroke:none"
         id="path414" />
      <path
         d="m 562.25,6101.27 h 3.53906 v 12.5 H 562.25 Z"
         style="fill:#231f20;fill-opacity:1;fill-rule:nonzero;stroke:none"
         id="path416" />
      <path
         d="m 599.699,6014.45 h 3.53906 v 12.5 H 599.699 Z"
         style="fill:#231f20;fill-opacity:1;fill-rule:nonzero;stroke:none"
         id="path418" />
      <path
         d="m 604.621,6014.45 h 3.53906 v 12.5 H 604.621 Z"
         style="fill:#231f20;fill-opacity:1;fill-rule:nonzero;stroke:none"
         id="path420" />
      <path
         d="m 599.699,6062.67 h 3.53906 v 12.5 H 599.699 Z"
         style="fill:#231f20;fill-opacity:1;fill-rule:nonzero;stroke:none"
         id="path422" />
      <path
         d="m 520.781,6019.16 h 3.53906 v 12.5 H 520.781 Z"
         style="fill:#231f20;fill-opacity:1;fill-rule:nonzero;stroke:none"
         id="path424" />
    </g>
  </g>
</svg>
