<?xml version="1.0" encoding="UTF-8" standalone="no"?>
<!-- Created with Inkscape (http://www.inkscape.org/) -->

<svg
   version="1.1"
   id="svg2"
   width="29.350677"
   height="36.513336"
   viewBox="0 0 29.350677 36.513335"
   xmlns="http://www.w3.org/2000/svg"
   xmlns:svg="http://www.w3.org/2000/svg">
  <defs
     id="defs6" />
  <g
     id="g10"
     transform="matrix(1.3333333,0,0,-1.3333333,-503.788,775.83862)">
    <g
       id="g12"
       transform="scale(0.1)">
      <path
         d="m 3949.92,5552.44 -52.73,61.23 h -85.33 v 0.02 h -25.88 l -0.06,-2.2 c 0,-8.52 2.81,-28.18 22.63,-59.05"
         style="fill:#ffffff;fill-opacity:1;fill-rule:nonzero;stroke:none"
         id="path2614" />
      <path
         d="m 3949.85,5586.6 h -3.543 v 12.5 h 3.543 z m -4.92,0 h -3.5391 v 12.5 h 3.5391 z m -18.13,42.44 h -3.5391 v 12.5 h 3.5391 z m -4.93,0 h -3.5391 v 12.5 h 3.5391 z m -5,0 h -3.5391 v 12.5 h 3.5391 z m -8.5,33.52 h -3.5391 v 12.5 h 3.5391 z m -38.1,-33.52 h -3.5391 v 12.5 h 3.5391 z m -4.92,0 h -3.543 v 12.5 h 3.543 z m -5,0 h -3.543 v 12.5 h 3.543 z m -32.75,8.66 h -3.543 v 12.5 h 3.543 z m 116.25,22.97 h 3.5391 v -12.5 h -3.5391 z m 12.61,25.62 h 3.5391 v -12.5 h -3.5391 z m 5,0 h 3.5391 v -12.5 h -3.5391 z m 4.92,0 h 3.5391 v -12.5 h -3.5391 z m -9.63,-74.09 -26.03,8.45 h 26.02 c 0.24,1.74 0.62,3.39 1.27,4.92 5.66,13.14 17.98,32.96 17.92,54.16 0,4.26 -0.56,8.57 -1.67,12.91 -31.24,-0.03 -75.72,-4.47 -75.72,-4.47 0,0 -7.82,-20.32 -10.63,-27.19 -14.26,0 -45.46,-2.24 -68.95,-4.11 v -38.21 h 15.48 v 18.39 c 0,3.81 3.09,6.9 6.9,6.9 3.81,0 6.89,-3.09 6.89,-6.9 v -18.39 h 51.24 l 57.05,-66.22 h 16.89 c -1.83,4.63 -4.6,11.93 -7.4,20.3 -4.28,12.85 -8.43,27.7 -9.26,39.46"
         style="fill:#ffffff;fill-opacity:1;fill-rule:nonzero;stroke:none"
         id="path2616" />
      <path
         d="m 3956.52,5552.44 -57.05,66.23 h -51.24 v 18.38 c 0,3.81 -3.09,6.9 -6.9,6.9 -3.79,0 -6.89,-3.09 -6.89,-6.9 v -18.38 h -15.49 v 38.2 c 23.5,1.87 54.7,4.11 68.96,4.11 2.81,6.88 10.63,27.19 10.63,27.19 0,0 44.47,4.44 75.71,4.48 1.13,-4.35 1.67,-8.66 1.67,-12.92 0.06,-21.2 -12.25,-41.02 -17.92,-54.16 -0.64,-1.53 -1.02,-3.18 -1.27,-4.92 h -26.01 l 26.02,-8.45 c 0.83,-11.76 4.99,-26.61 9.26,-39.46 2.81,-8.37 5.58,-15.67 7.4,-20.3 z m -170.54,61.25 h 25.88 v -0.02 h 85.32 l 52.74,-61.23 h -141.37 c -19.82,30.87 -22.64,50.53 -22.64,59.05 z m 193.54,-56.28 c -2.62,6.77 -6.55,17.48 -9.82,28.5 -3.26,10.99 -5.81,22.42 -5.78,30.09 -0.02,2.94 0.38,5.27 0.98,6.64 5.1,12.2 18.48,33.12 18.52,57.09 0.01,4.19 -0.46,8.48 -1.42,12.81 6.8,-0.19 12.6,-0.66 16.54,-1.56 -5.95,20.55 -39.38,48.44 -39.38,48.44 l -40.32,79.37 c 0,0 -35,-111.56 -45.62,-109.06 -10.63,2.5 -20.63,45 -20.63,45 l -15.3,-40.31 c 0,0 -41.57,-47.19 -47.82,-60 0,0 9.16,0.81 21.98,1.85 v -35.08 h -31.61 l -0.75,-2.76 c -0.09,-0.31 -0.68,-2.63 -0.68,-6.94 -0.01,-10.34 3.41,-32.03 24.91,-64.86 l 1.1,-1.69 h 2.03 178.14 l -2.18,5.2 c 0,0.01 -1.15,2.75 -2.89,7.27"
         style="fill:#231f20;fill-opacity:1;fill-rule:nonzero;stroke:none"
         id="path2618" />
      <path
         d="m 3856.81,5629.04 h 3.543 v 12.5 h -3.543 z"
         style="fill:#231f20;fill-opacity:1;fill-rule:nonzero;stroke:none"
         id="path2620" />
      <path
         d="m 3861.81,5629.04 h 3.543 v 12.5 h -3.543 z"
         style="fill:#231f20;fill-opacity:1;fill-rule:nonzero;stroke:none"
         id="path2622" />
      <path
         d="m 3866.73,5629.04 h 3.5391 v 12.5 h -3.5391 z"
         style="fill:#231f20;fill-opacity:1;fill-rule:nonzero;stroke:none"
         id="path2624" />
      <path
         d="m 3824.05,5637.7 h 3.5391 v 12.5 h -3.5391 z"
         style="fill:#231f20;fill-opacity:1;fill-rule:nonzero;stroke:none"
         id="path2626" />
      <path
         d="m 3956.45,5673.79 h 3.5391 v 12.5 h -3.5391 z"
         style="fill:#231f20;fill-opacity:1;fill-rule:nonzero;stroke:none"
         id="path2628" />
      <path
         d="m 3961.45,5673.79 h 3.5391 v 12.5 h -3.5391 z"
         style="fill:#231f20;fill-opacity:1;fill-rule:nonzero;stroke:none"
         id="path2630" />
      <path
         d="m 3966.37,5673.79 h 3.5391 v 12.5 h -3.5391 z"
         style="fill:#231f20;fill-opacity:1;fill-rule:nonzero;stroke:none"
         id="path2632" />
      <path
         d="m 3941.39,5586.6 h 3.5391 v 12.5 h -3.5391 z"
         style="fill:#231f20;fill-opacity:1;fill-rule:nonzero;stroke:none"
         id="path2634" />
      <path
         d="m 3946.31,5586.6 h 3.543 v 12.5 h -3.543 z"
         style="fill:#231f20;fill-opacity:1;fill-rule:nonzero;stroke:none"
         id="path2636" />
      <path
         d="m 3904.83,5662.56 h 3.5352 v 12.5 h -3.5352 z"
         style="fill:#231f20;fill-opacity:1;fill-rule:nonzero;stroke:none"
         id="path2638" />
      <path
         d="m 3943.85,5648.17 h 3.5391 v 12.5 h -3.5391 z"
         style="fill:#231f20;fill-opacity:1;fill-rule:nonzero;stroke:none"
         id="path2640" />
      <path
         d="m 3913.33,5629.04 h 3.5352 v 12.5 h -3.5352 z"
         style="fill:#231f20;fill-opacity:1;fill-rule:nonzero;stroke:none"
         id="path2642" />
      <path
         d="m 3918.33,5629.04 h 3.5352 v 12.5 h -3.5352 z"
         style="fill:#231f20;fill-opacity:1;fill-rule:nonzero;stroke:none"
         id="path2644" />
      <path
         d="m 3923.25,5629.04 h 3.5391 v 12.5 h -3.5391 z"
         style="fill:#231f20;fill-opacity:1;fill-rule:nonzero;stroke:none"
         id="path2646" />
    </g>
  </g>
</svg>
