<?xml version="1.0" encoding="UTF-8" standalone="no"?>
<!-- Created with Inkscape (http://www.inkscape.org/) -->

<svg
   version="1.1"
   id="svg2"
   width="56.889282"
   height="41.056"
   viewBox="0 0 56.889282 41.055998"
   xmlns="http://www.w3.org/2000/svg"
   xmlns:svg="http://www.w3.org/2000/svg">
  <defs
     id="defs6" />
  <g
     id="g10"
     transform="matrix(1.3333333,0,0,-1.3333333,-718.75067,719.16531)">
    <g
       id="g12"
       transform="scale(0.1)">
      <path
         d="m 5555.64,5233.73 c 7.68,-1.06 19.38,-0.92 26.61,0.13 l -12.93,134.45 h -14.64 l -4.36,-130.44 c 2.29,-2.47 4.14,-3.98 5.32,-4.14"
         style="fill:#ffffff;fill-opacity:1;fill-rule:nonzero;stroke:none"
         id="path3848" />
      <path
         d="m 5753.27,5114.09 h 3.5391 v -12.5 h -3.5391 z m -1.39,-12.5 h -3.5391 v 12.5 h 3.5391 z m -65.07,0 h -3.543 v 12.5 h 3.543 z m -4.93,0 h -3.5391 v 12.5 h 3.5391 z m -94.78,34.6 h -3.543 v 12.5 h 3.543 z m -4.92,0 h -3.5391 v 12.5 h 3.5391 z m -5,0 h -3.5391 v 12.5 h 3.5391 z m -50.71,-12.5 h -3.5391 v 12.5 h 3.5391 z m -13.74,34.8 h -3.5391 v 12.5 h 3.5391 z m -4.92,0 h -3.5391 v 12.5 h 3.5391 z m -2.5,-56.9 h -3.5391 v 12.5 h 3.5391 z m -4.92,0 h -3.5391 v 12.5 h 3.5391 z m -3.58,116.89 h 3.5391 v -12.5 h -3.5391 z m -1.42,-116.89 h -3.5391 v 12.5 h 3.5391 z m 6.42,116.89 h 3.5391 v -12.5 h -3.5391 z m 4.92,0 h 3.5391 v -12.5 h -3.5391 z m -32.99,-74.04 h -3.5469 v 12.5 h 3.5469 z m -22.09,-42.85 h -3.5391 v 12.5 h 3.5391 z m -4.92,0 h -3.5391 v 12.5 h 3.5391 z m -5,0 h -3.5391 v 12.5 h 3.5391 z m 165.57,24.64 c -9.17,0.84 -7.5,28.34 -7.5,28.34 l -10,8.75 c 0,0 -44.58,-18.34 -50.83,20 -6.25,38.33 -20.42,38.33 -23.34,40 -2.91,1.66 -32.91,1.25 -38.75,-5 -5.83,-6.25 -6.66,-11.25 -9.16,-17.5 -0.82,-2.06 -9.51,-4.02 -20.72,-5.74 l 19.05,-22.94 -2.88,-2.4 -2.88,-2.4 -22.02,26.52 -0.67,-0.09 c -0.35,-1.21 -0.71,-2.44 -1.06,-3.77 -0.65,-2.47 -1.31,-5.23 -1.94,-8.13 l 12.24,-14.73 -2.88,-2.4 -2.89,-2.4 -8.33,10.03 c -1.95,-11.45 -3.38,-25.33 -3.38,-41.46 0,-11.4 0.83,-24.03 2.57,-37.59 h 40.04 v 20.07 c 0,3.81 3.09,6.89 6.9,6.89 3.81,0 6.89,-3.08 6.89,-6.89 v -20.07 h 288.58 l -11.51,38.2 c -60.18,-2.41 -149.48,-5.84 -155.53,-5.29"
         style="fill:#ffffff;fill-opacity:1;fill-rule:nonzero;stroke:none"
         id="path3850" />
      <path
         d="m 5485.76,5093.32 v 20.07 c 0,3.81 -3.09,6.9 -6.89,6.9 -3.81,0 -6.9,-3.09 -6.9,-6.9 v -20.07 h -40.04 c -1.75,13.56 -2.58,26.2 -2.58,37.59 0,16.13 1.44,30.01 3.39,41.46 l 8.33,-10.03 2.88,2.4 2.88,2.4 -12.23,14.73 c 0.63,2.9 1.29,5.66 1.94,8.13 0.35,1.34 0.7,2.56 1.06,3.77 l 0.67,0.09 22.02,-26.52 2.88,2.4 2.88,2.4 -19.05,22.95 c 11.21,1.71 19.9,3.67 20.72,5.73 2.5,6.25 3.33,11.25 9.16,17.5 5.84,6.25 35.84,6.67 38.75,5 2.92,-1.67 17.09,-1.67 23.34,-40 6.25,-38.33 50.83,-20 50.83,-20 l 10,-8.75 c 0,0 -1.67,-27.5 7.5,-28.33 6.05,-0.56 95.34,2.88 155.53,5.28 l 11.5,-38.2 z m -59.26,86.56 c -0.65,-3.26 -1.25,-6.81 -1.81,-10.52 l -17.57,21.16 c 3.02,0.27 6.33,0.59 9.78,0.93 z m 2.09,9.24 -2.71,3.27 c 1.22,0.13 2.43,0.27 3.65,0.4 -0.31,-1.16 -0.63,-2.41 -0.94,-3.67 m 140.72,179.2 12.94,-134.46 c -7.22,-1.04 -18.93,-1.18 -26.62,-0.12 -1.17,0.16 -3.01,1.67 -5.32,4.13 l 4.37,130.45 z m 247.99,-234.58 c 0,0 -40,14.58 -47.92,27.08 -7.4,11.7 -30.15,72.7 -33.02,80.43 l -2.55,18.71 -2.45,-17.89 h -37.48 l -2.45,17.89 -2.44,-17.89 h -0.02 c 0,0 -12.5,-64.58 -17.5,-64.58 -5,0 -38.75,140.41 -38.75,140.41 l -12.5,75.84 -8.34,-99.59 c 0,0 -14.51,-42.47 -22.53,-55.67 l -13.22,137.34 h -28.7 l -4.34,-129.2 c -17.8,23.38 -46.29,70.45 -46.29,70.45 l -26.58,-46.67 h -30 l 7.08,-34.58 c 0,0 -37.92,-34.17 -56.67,-46.67 0,0 2.85,0.21 7.4,0.58 l 24.69,-29.74 0.81,0.67 c -1.01,-8.91 -1.68,-18.8 -1.68,-29.75 0,-12.66 0.86,-26.65 2.99,-41.86 l 0.45,-3.23 h 3.26 355.88 l -13.86,46.01 c 27.18,1.09 46.73,1.91 46.73,1.91"
         style="fill:#231f20;fill-opacity:1;fill-rule:nonzero;stroke:none"
         id="path3852" />
      <path
         d="m 5438.18,5101.59 h 3.5391 v 12.5 h -3.5391 z"
         style="fill:#231f20;fill-opacity:1;fill-rule:nonzero;stroke:none"
         id="path3854" />
      <path
         d="m 5443.18,5101.59 h 3.5391 v 12.5 h -3.5391 z"
         style="fill:#231f20;fill-opacity:1;fill-rule:nonzero;stroke:none"
         id="path3856" />
      <path
         d="m 5448.11,5101.59 h 3.5391 v 12.5 h -3.5391 z"
         style="fill:#231f20;fill-opacity:1;fill-rule:nonzero;stroke:none"
         id="path3858" />
      <path
         d="m 5491.85,5101.59 h 3.5391 v 12.5 h -3.5391 z"
         style="fill:#231f20;fill-opacity:1;fill-rule:nonzero;stroke:none"
         id="path3860" />
      <path
         d="m 5496.85,5101.59 h 3.5391 v 12.5 h -3.5391 z"
         style="fill:#231f20;fill-opacity:1;fill-rule:nonzero;stroke:none"
         id="path3862" />
      <path
         d="m 5501.77,5101.59 h 3.5391 v 12.5 h -3.5391 z"
         style="fill:#231f20;fill-opacity:1;fill-rule:nonzero;stroke:none"
         id="path3864" />
      <path
         d="m 5504.27,5158.49 h 3.5391 v 12.5 h -3.5391 z"
         style="fill:#231f20;fill-opacity:1;fill-rule:nonzero;stroke:none"
         id="path3866" />
      <path
         d="m 5509.19,5158.49 h 3.5391 v 12.5 h -3.5391 z"
         style="fill:#231f20;fill-opacity:1;fill-rule:nonzero;stroke:none"
         id="path3868" />
      <path
         d="m 5573.63,5136.19 h 3.5391 v 12.5 h -3.5391 z"
         style="fill:#231f20;fill-opacity:1;fill-rule:nonzero;stroke:none"
         id="path3870" />
      <path
         d="m 5578.63,5136.19 h 3.5391 v 12.5 h -3.5391 z"
         style="fill:#231f20;fill-opacity:1;fill-rule:nonzero;stroke:none"
         id="path3872" />
      <path
         d="m 5583.55,5136.19 h 3.5391 v 12.5 h -3.5391 z"
         style="fill:#231f20;fill-opacity:1;fill-rule:nonzero;stroke:none"
         id="path3874" />
      <path
         d="m 5678.35,5101.59 h 3.5391 v 12.5 h -3.5391 z"
         style="fill:#231f20;fill-opacity:1;fill-rule:nonzero;stroke:none"
         id="path3876" />
      <path
         d="m 5683.27,5101.59 h 3.5391 v 12.5 h -3.5391 z"
         style="fill:#231f20;fill-opacity:1;fill-rule:nonzero;stroke:none"
         id="path3878" />
      <path
         d="m 5470.2,5144.44 h 3.5391 v 12.5 H 5470.2 Z"
         style="fill:#231f20;fill-opacity:1;fill-rule:nonzero;stroke:none"
         id="path3880" />
      <path
         d="m 5496.81,5205.98 h 3.543 v 12.5 h -3.543 z"
         style="fill:#231f20;fill-opacity:1;fill-rule:nonzero;stroke:none"
         id="path3882" />
      <path
         d="m 5501.81,5205.98 h 3.543 v 12.5 h -3.543 z"
         style="fill:#231f20;fill-opacity:1;fill-rule:nonzero;stroke:none"
         id="path3884" />
      <path
         d="m 5506.73,5205.98 h 3.5391 v 12.5 h -3.5391 z"
         style="fill:#231f20;fill-opacity:1;fill-rule:nonzero;stroke:none"
         id="path3886" />
      <path
         d="m 5748.35,5101.59 h 3.5391 v 12.5 h -3.5391 z"
         style="fill:#231f20;fill-opacity:1;fill-rule:nonzero;stroke:none"
         id="path3888" />
      <path
         d="m 5753.27,5101.59 h 3.5391 v 12.5 h -3.5391 z"
         style="fill:#231f20;fill-opacity:1;fill-rule:nonzero;stroke:none"
         id="path3890" />
      <path
         d="m 5522.93,5123.69 h 3.5391 v 12.5 h -3.5391 z"
         style="fill:#231f20;fill-opacity:1;fill-rule:nonzero;stroke:none"
         id="path3892" />
    </g>
  </g>
</svg>
