<?xml version="1.0" encoding="UTF-8" standalone="no"?>
<!-- Created with Inkscape (http://www.inkscape.org/) -->

<svg
   version="1.1"
   id="svg2"
   width="35.251984"
   height="26.306673"
   viewBox="0 0 35.251984 26.306672"
   xmlns="http://www.w3.org/2000/svg"
   xmlns:svg="http://www.w3.org/2000/svg">
  <defs
     id="defs6" />
  <g
     id="g10"
     transform="matrix(1.3333333,0,0,-1.3333333,-451.02933,927.40265)">
    <g
       id="g12"
       transform="scale(0.1)">
      <path
         d="m 3586.08,6771.28 h -3.5469 v 12.5 h 3.5469 z m -5.31,34.09 h 3.5391 v -12.5 h -3.5391 z m -1.38,-12.5 h -3.5391 v 12.5 h 3.5391 z m -5,0 h -3.5391 v 12.5 h 3.5391 z m -19.07,-21.59 h -3.5391 v 12.5 h 3.5391 z m -4.92,0 h -3.5391 v 12.5 h 3.5391 z m -34.13,0 h -3.5391 v 12.5 h 3.5391 z m -4.92,0 h -3.543 v 12.5 h 3.543 z m -5,0 h -3.543 v 12.5 h 3.543 z m -8.28,42.28 h -3.5391 v 12.5 h 3.5391 z m -4.93,0 h -3.5391 v 12.5 h 3.5391 z m -33.41,-14.44 h -3.5391 v 12.5 h 3.5391 z m -4.93,0 h -3.5391 v 12.5 h 3.5391 z m -5,0 h -3.5391 v 12.5 h 3.5391 z m -27.86,-27.84 h -3.543 v 12.5 h 3.543 z m -4.92,0 h -3.5391 v 12.5 h 3.5391 z m -5,0 h -3.5391 v 12.5 h 3.5391 z m 187.22,17.6 -5.63,4.97 13.76,15.55 c -34.28,0.28 -79.95,0.62 -90.69,0.49 -17.71,-0.21 -10.41,20 -10.41,20 l -34.8,1.46 4.38,11.04 -33.29,-0.68 -5.14,-30.15 -1.26,-0.97 6.98,-25.07 h -39.65 l -1.17,-0.89 4.24,-18.91 h 73.48 v 18.75 c 0,3.81 3.08,6.89 6.89,6.89 3.81,0 6.9,-3.08 6.9,-6.89 v -18.75 h 113.45 l 3.97,36.75"
         style="fill:#ffffff;fill-opacity:1;fill-rule:nonzero;stroke:none"
         id="path1206" />
      <path
         d="m 3433.18,6841.51 1.36,-2.22 -1,-5.84 -4.93,7.96 z m 186.36,-32.21 c 2.3,-0.02 4.5,-0.04 6.59,-0.06 l -7.52,-8.51 z m -125.72,-43.58 v 18.75 c 0,3.81 -3.07,6.89 -6.89,6.89 -3.8,0 -6.89,-3.08 -6.89,-6.89 v -18.75 h -73.48 l -4.24,18.91 1.16,0.89 h 39.66 l -6.98,25.07 1.27,0.97 5.12,30.15 33.31,0.68 -4.39,-11.04 34.8,-1.46 c 0,0 -7.3,-20.21 10.41,-20 10.75,0.13 56.41,-0.21 90.7,-0.49 l -13.77,-15.55 5.62,-4.97 12.02,13.59 -3.98,-36.75 z m 142.2,43.44 c 6.87,-0.06 11.09,-0.1 11.09,-0.1 0,0 -54.95,18.16 -80.43,30.56 v 41.1 h -43.43 c -6.66,8.72 -11.54,16.17 -12.2,18.75 -1.66,6.46 -11.25,56.05 -11.25,56.05 0,0 -11.03,-86.67 -18.75,-87.09 -7.69,-0.41 -23.12,28.96 -23.12,28.96 0,0 -24.16,-47.29 -52.5,-56.46 l 14.47,0.31 11.74,-18.96 -1.12,-6.56 -8.91,-6.85 -38.89,-23.35 h 11.73 l 6.09,-27.3 h 3.01 210.47 l 3.19,29.62 18.84,21.29"
         style="fill:#231f20;fill-opacity:1;fill-rule:nonzero;stroke:none"
         id="path1208" />
      <path
         d="m 3446.27,6799.12 h 3.5391 v 12.5 h -3.5391 z"
         style="fill:#231f20;fill-opacity:1;fill-rule:nonzero;stroke:none"
         id="path1210" />
      <path
         d="m 3451.27,6799.12 h 3.5391 v 12.5 h -3.5391 z"
         style="fill:#231f20;fill-opacity:1;fill-rule:nonzero;stroke:none"
         id="path1212" />
      <path
         d="m 3456.19,6799.12 h 3.5391 v 12.5 h -3.5391 z"
         style="fill:#231f20;fill-opacity:1;fill-rule:nonzero;stroke:none"
         id="path1214" />
      <path
         d="m 3408.48,6771.28 h 3.5391 v 12.5 h -3.5391 z"
         style="fill:#231f20;fill-opacity:1;fill-rule:nonzero;stroke:none"
         id="path1216" />
      <path
         d="m 3413.48,6771.28 h 3.5391 v 12.5 h -3.5391 z"
         style="fill:#231f20;fill-opacity:1;fill-rule:nonzero;stroke:none"
         id="path1218" />
      <path
         d="m 3418.4,6771.28 h 3.543 v 12.5 h -3.543 z"
         style="fill:#231f20;fill-opacity:1;fill-rule:nonzero;stroke:none"
         id="path1220" />
      <path
         d="m 3570.85,6792.87 h 3.5391 v 12.5 h -3.5391 z"
         style="fill:#231f20;fill-opacity:1;fill-rule:nonzero;stroke:none"
         id="path1222" />
      <path
         d="m 3575.85,6792.87 h 3.5391 v 12.5 h -3.5391 z"
         style="fill:#231f20;fill-opacity:1;fill-rule:nonzero;stroke:none"
         id="path1224" />
      <path
         d="m 3580.78,6792.87 h 3.5391 v 12.5 h -3.5391 z"
         style="fill:#231f20;fill-opacity:1;fill-rule:nonzero;stroke:none"
         id="path1226" />
      <path
         d="m 3502.8,6771.28 h 3.5391 v 12.5 H 3502.8 Z"
         style="fill:#231f20;fill-opacity:1;fill-rule:nonzero;stroke:none"
         id="path1228" />
      <path
         d="m 3507.8,6771.28 h 3.5391 v 12.5 H 3507.8 Z"
         style="fill:#231f20;fill-opacity:1;fill-rule:nonzero;stroke:none"
         id="path1230" />
      <path
         d="m 3512.72,6771.28 h 3.543 v 12.5 h -3.543 z"
         style="fill:#231f20;fill-opacity:1;fill-rule:nonzero;stroke:none"
         id="path1232" />
      <path
         d="m 3489.6,6813.56 h 3.5391 v 12.5 H 3489.6 Z"
         style="fill:#231f20;fill-opacity:1;fill-rule:nonzero;stroke:none"
         id="path1234" />
      <path
         d="m 3494.52,6813.56 h 3.5391 v 12.5 h -3.5391 z"
         style="fill:#231f20;fill-opacity:1;fill-rule:nonzero;stroke:none"
         id="path1236" />
      <path
         d="m 3546.86,6771.28 h 3.5391 v 12.5 h -3.5391 z"
         style="fill:#231f20;fill-opacity:1;fill-rule:nonzero;stroke:none"
         id="path1238" />
      <path
         d="m 3551.78,6771.28 h 3.5391 v 12.5 h -3.5391 z"
         style="fill:#231f20;fill-opacity:1;fill-rule:nonzero;stroke:none"
         id="path1240" />
      <path
         d="m 3582.54,6771.28 h 3.5391 v 12.5 h -3.5391 z"
         style="fill:#231f20;fill-opacity:1;fill-rule:nonzero;stroke:none"
         id="path1242" />
    </g>
  </g>
</svg>
