<?xml version="1.0" encoding="UTF-8" standalone="no"?>
<!-- Created with Inkscape (http://www.inkscape.org/) -->

<svg
   version="1.1"
   id="svg2"
   width="24.33728"
   height="41.031982"
   viewBox="0 0 24.33728 41.031981"
   xmlns="http://www.w3.org/2000/svg"
   xmlns:svg="http://www.w3.org/2000/svg">
  <defs
     id="defs6" />
  <g
     id="g10"
     transform="matrix(1.3333333,0,0,-1.3333333,-632.54401,841.5893)">
    <g
       id="g12"
       transform="scale(0.1)">
      <path
         d="m 4788.01,6140.19 c -1.57,-13.55 -2.96,-25.58 -3.92,-33.9 l 8.29,14.02 20.54,48.56 -0.03,0.56 c 0.01,0.97 0.09,2.17 0.16,3.49"
         style="fill:#ffffff;fill-opacity:1;fill-rule:nonzero;stroke:none"
         id="path3280" />
      <path
         d="m 4779.32,6132.16 -9.84,24.72 -0.35,-0.7 c -1.75,-3.63 -3.75,-8.18 -4.59,-11.42 v 0 l -0.04,-0.45 c -0.02,-1.05 0.52,-3.34 1.55,-6 1,-2.69 2.43,-5.85 4.02,-9.09 2.57,-5.2 5.55,-10.55 7.97,-14.76"
         style="fill:#ffffff;fill-opacity:1;fill-rule:nonzero;stroke:none"
         id="path3282" />
      <path
         d="m 4789.18,6241.61 6.54,-5.41 c 1.6,7.46 3.06,12.98 4.21,15.18 5.94,11.25 19.11,36.25 19.11,36.25 0,0 -9.89,-21.45 -15.29,-35.8 l 19.97,5.03 c -0.06,4.75 -1.21,13.8 -2.48,22.13 -1.28,8.5 -2.63,16.19 -2.97,18.39 l -5.2,6.98 -4.93,-4.8 -9.25,-39.64 -0.86,-0.54 -4.41,-2.84"
         style="fill:#ffffff;fill-opacity:1;fill-rule:nonzero;stroke:none"
         id="path3284" />
      <path
         d="m 4776.75,6200.79 9.97,-15.25 c 2.48,15.58 5.29,32.29 7.86,45.13 l -6.95,5.74 -0.2,-0.64 v -0.02 l -10.66,-34.77"
         style="fill:#ffffff;fill-opacity:1;fill-rule:nonzero;stroke:none"
         id="path3286" />
      <path
         d="m 4772.52,6162.75 7.8,-19.59 c 0.81,5.61 2.79,19.2 5.25,35 l -9.67,14.79 -3.22,-29.91"
         style="fill:#ffffff;fill-opacity:1;fill-rule:nonzero;stroke:none"
         id="path3288" />
      <path
         d="m 4819.67,6236.38 -1.03,4.66 0.47,0.84 0.52,0.97 c 0.33,0.66 0.79,1.61 1.29,2.78 0.68,1.61 1.38,3.68 1.96,5.85 l -21.13,-5.31 c -0.53,-1.62 -0.96,-3.07 -1.19,-4.18 -0.42,-1.98 -1.34,-8.67 -2.55,-18.13"
         style="fill:#ffffff;fill-opacity:1;fill-rule:nonzero;stroke:none"
         id="path3290" />
      <path
         d="M 4821.93,6212.48 4793.86,6190 c -1.56,-13 -3.2,-26.96 -4.72,-40.1 l 24.52,32.06 c 0.29,1.4 0.63,2.92 1.09,4.74 1.02,4.11 2.36,9.04 3.7,13.8 1.25,4.43 2.5,8.66 3.48,11.98"
         style="fill:#ffffff;fill-opacity:1;fill-rule:nonzero;stroke:none"
         id="path3292" />
      <path
         d="m 4797.23,6217.63 c -0.76,-6.16 -1.61,-13.11 -2.51,-20.55 l 28.56,22.87 -2.48,11.29"
         style="fill:#ffffff;fill-opacity:1;fill-rule:nonzero;stroke:none"
         id="path3294" />
      <path
         d="m 4759.7,6146.04 h 0.01"
         style="fill:#231f20;fill-opacity:1;fill-rule:nonzero;stroke:none"
         id="path3296" />
      <path
         d="m 4911.04,6047.25 h 3.5391 v -12.5 h -3.5391 z m -3.54,110.65 h 3.5391 v -12.5 H 4907.5 Z m -1.38,-12.5 h -3.5391 v 12.5 h 3.5391 z m -3.23,-77.47 h -3.5391 v 12.5 h 3.5391 z m -5.31,89.97 h 3.5352 v -12.5 h -3.5352 z m 16.9,5.91 h -24.1 l -5.28,-38.08 c 9.74,-8.49 15.77,-20.22 15.77,-33.17 h -9.44 l 11.15,-80.88 h 16.31"
         style="fill:#ffffff;fill-opacity:1;fill-rule:nonzero;stroke:none"
         id="path3298" />
      <path
         d="m 4783.35,6031.65 h 3.5391 v -12.5 h -3.5391 z m 4.92,0 h 3.5391 v -12.5 h -3.5391 z m 10.48,-19.97 -2.26,35.57 h -35.85 l -7.35,-35.57 h 9.52 v 17.03 c 0,3.81 3.1,6.9 6.91,6.9 3.8,0 6.89,-3.09 6.89,-6.9 v -17.03"
         style="fill:#ffffff;fill-opacity:1;fill-rule:nonzero;stroke:none"
         id="path3300" />
      <path
         d="m 4891.43,6092.56 h 9.44 c 0,12.95 -6.02,24.68 -15.77,33.17 l 5.29,38.08 h 24.1 l 4.4,-152.13 h -16.31 z m -121.72,-56.95 c -3.8,0 -6.89,-3.09 -6.89,-6.9 v -17.03 h -9.52 l 7.35,35.57 h 35.85 l 2.25,-35.57 h -22.13 v 17.03 c 0,3.81 -3.1,6.9 -6.91,6.9 m 36.55,-23.93 -2.65,42.01 -4.77,6.17 11.57,32.7 h 73.45 l 11.14,-80.88 z m -20.69,166.49 c -2.46,-15.8 -4.43,-29.4 -5.24,-35 l -7.81,19.59 0.16,0.28 3.22,29.91 z m 9.14,18.92 c 0.91,7.44 1.75,14.38 2.52,20.54 l 23.57,13.62 2.49,-11.29 z m 18.95,-15.14 -24.52,-32.05 c 1.53,13.14 3.16,27.09 4.73,40.1 l 28.07,22.48 c -0.98,-3.32 -2.23,-7.56 -3.48,-11.99 -1.35,-4.76 -2.69,-9.69 -3.71,-13.79 -0.45,-1.83 -0.8,-3.34 -1.09,-4.75 m -13.11,60.04 c 0.25,1.12 0.66,2.57 1.2,4.18 l 21.14,5.32 c -0.59,-2.18 -1.28,-4.25 -1.97,-5.86 -0.5,-1.17 -0.96,-2.12 -1.29,-2.77 l -0.51,-0.98 -0.47,-0.84 1.02,-4.67 -21.66,-12.51 c 1.2,9.47 2.13,16.15 2.54,18.13 m -13.11,-6.23 0.19,0.65 6.95,-5.74 c -2.56,-12.84 -5.38,-29.56 -7.87,-45.14 l -9.96,15.26 0.02,0.18 10.67,34.77 z m 25.48,-66.89 -20.53,-48.56 -8.29,-14.01 c 0.95,8.32 2.34,20.34 3.91,33.89 l 25.04,32.74 c -0.07,-1.33 -0.15,-2.53 -0.16,-3.5 z m -14.03,91.05 9.25,39.65 4.93,4.79 5.21,-6.99 c 0.34,-2.19 1.68,-9.88 2.96,-18.37 1.27,-8.34 2.43,-17.39 2.47,-22.15 l -19.96,-5.02 c 5.4,14.35 15.3,35.79 15.3,35.79 0,0 -13.18,-25 -19.11,-36.25 -1.16,-2.18 -2.61,-7.71 -4.21,-15.16 l -6.55,5.4 4.45,14.93 4.4,2.83 z m -32.84,-121.61 c -1.03,2.66 -1.57,4.95 -1.55,6 l 0.04,0.45 h 0.01 c 0.84,3.24 2.83,7.79 4.59,11.42 l 0.35,0.7 9.84,-24.72 -1.29,-17.7 c -2.42,4.21 -5.39,9.56 -7.96,14.76 -1.6,3.24 -3.03,6.4 -4.03,9.09 m 155.94,25.5 h 4.62 c 0,14.87 -11.2,26.93 -25,26.93 -13.81,0 -25,-12.06 -25,-26.93 h 6.21 l -4.61,-33.12 c -8.82,5.49 -19.56,8.8 -31.25,8.8 -29.76,0 -53.91,-21.01 -53.91,-46.93 h 9.41 l -6.61,-18.65 c -1.55,0.09 -3.06,0.27 -4.66,0.27 -3.1,0 -6.12,-0.19 -9.05,-0.52 l 0.6,20.52 14.12,23.87 21.37,50.54 -0.34,0.73 v 0.11 c 0,0.82 0.22,2.82 0.22,5.22 0,0.88 -0.03,1.84 -0.12,2.84 v 0.03 c -0.04,0.67 0.61,4.03 1.6,7.97 1.51,6.03 3.76,14.02 5.65,20.49 1.89,6.48 3.4,11.42 3.4,11.43 l 0.18,0.63 -4.89,22.24 c 1.03,1.97 3.53,7.2 4.62,13.26 0.15,0.86 0.19,1.78 0.19,2.86 -0.01,5.68 -1.41,15.94 -2.82,25.06 -0.69,4.55 -1.39,8.78 -1.91,11.92 -0.27,1.57 -0.48,2.87 -0.64,3.79 l -0.16,1.08 -0.04,0.23 v 0.7 l -9.49,12.74 -10.07,-9.78 -9.13,-39.11 -4.34,-2.78 -0.77,-0.51 -6.72,-22.55 v 0.02 l -10.8,-35.23 -4.03,-37.41 c -1.13,-2.07 -6.28,-11.67 -8.11,-18.52 l -0.21,-1.74 c 0.05,-3.01 1.32,-6.58 3.08,-10.8 4.42,-10.32 12.22,-23.52 14.82,-27.83 l -2.44,-33.26 c -17.86,-3.8 -30.66,-13.59 -30.66,-25.17 h 8.69 l -8.91,-43.07 h 55.15 104.38 23"
         style="fill:#231f20;fill-opacity:1;fill-rule:nonzero;stroke:none"
         id="path3302" />
      <path
         d="m 4879.78,6029.36 h 3.5391 v -12.5 h -3.5391 z m -1.38,-12.5 h -3.5391 v 12.5 h 3.5391 z m -7.08,51.38 h 3.5391 v -12.5 h -3.5391 z m -1.39,-12.5 h -3.5391 v 12.5 h 3.5391 z m -44.16,-32.63 h -3.5391 v 12.5 h 3.5391 z m -4.92,0 h -3.543 v 12.5 h 3.543 z m -5,0 h -3.543 v 12.5 h 3.543 z m -0.35,65.76 h 3.5391 v -12.5 H 4815.5 Z m 5,0 h 3.5391 v -12.5 H 4820.5 Z m 4.92,0 h 3.5352 v -12.5 h -3.5352 z m -15.01,3.69 -11.57,-32.7 4.76,-6.17 2.66,-42.01 H 4895 l -11.14,80.88"
         style="fill:#ffffff;fill-opacity:1;fill-rule:nonzero;stroke:none"
         id="path3304" />
      <path
         d="m 4783.35,6019.15 h 3.5391 v 12.5 h -3.5391 z"
         style="fill:#231f20;fill-opacity:1;fill-rule:nonzero;stroke:none"
         id="path3306" />
      <path
         d="m 4788.28,6019.15 h 3.5391 v 12.5 h -3.5391 z"
         style="fill:#231f20;fill-opacity:1;fill-rule:nonzero;stroke:none"
         id="path3308" />
      <path
         d="m 4812.31,6023.11 h 3.543 v 12.5 h -3.543 z"
         style="fill:#231f20;fill-opacity:1;fill-rule:nonzero;stroke:none"
         id="path3310" />
      <path
         d="m 4817.31,6023.11 h 3.543 v 12.5 h -3.543 z"
         style="fill:#231f20;fill-opacity:1;fill-rule:nonzero;stroke:none"
         id="path3312" />
      <path
         d="m 4822.24,6023.11 h 3.5352 v 12.5 h -3.5352 z"
         style="fill:#231f20;fill-opacity:1;fill-rule:nonzero;stroke:none"
         id="path3314" />
      <path
         d="m 4874.85,6016.86 h 3.5391 v 12.5 h -3.5391 z"
         style="fill:#231f20;fill-opacity:1;fill-rule:nonzero;stroke:none"
         id="path3316" />
      <path
         d="m 4879.78,6016.86 h 3.5391 v 12.5 h -3.5391 z"
         style="fill:#231f20;fill-opacity:1;fill-rule:nonzero;stroke:none"
         id="path3318" />
      <path
         d="m 4911.04,6034.75 h 3.5391 v 12.5 h -3.5391 z"
         style="fill:#231f20;fill-opacity:1;fill-rule:nonzero;stroke:none"
         id="path3320" />
      <path
         d="m 4897.58,6145.4 h 3.5352 v 12.5 h -3.5352 z"
         style="fill:#231f20;fill-opacity:1;fill-rule:nonzero;stroke:none"
         id="path3322" />
      <path
         d="m 4902.58,6145.4 h 3.5352 v 12.5 h -3.5352 z"
         style="fill:#231f20;fill-opacity:1;fill-rule:nonzero;stroke:none"
         id="path3324" />
      <path
         d="m 4907.5,6145.4 h 3.5391 v 12.5 H 4907.5 Z"
         style="fill:#231f20;fill-opacity:1;fill-rule:nonzero;stroke:none"
         id="path3326" />
      <path
         d="m 4866.4,6055.74 h 3.5391 v 12.5 H 4866.4 Z"
         style="fill:#231f20;fill-opacity:1;fill-rule:nonzero;stroke:none"
         id="path3328" />
      <path
         d="m 4871.31,6055.74 h 3.543 v 12.5 h -3.543 z"
         style="fill:#231f20;fill-opacity:1;fill-rule:nonzero;stroke:none"
         id="path3330" />
      <path
         d="m 4899.35,6067.93 h 3.5391 v 12.5 h -3.5391 z"
         style="fill:#231f20;fill-opacity:1;fill-rule:nonzero;stroke:none"
         id="path3332" />
      <path
         d="m 4815.5,6076.37 h 3.5391 v 12.5 H 4815.5 Z"
         style="fill:#231f20;fill-opacity:1;fill-rule:nonzero;stroke:none"
         id="path3334" />
      <path
         d="m 4820.5,6076.37 h 3.5391 v 12.5 H 4820.5 Z"
         style="fill:#231f20;fill-opacity:1;fill-rule:nonzero;stroke:none"
         id="path3336" />
      <path
         d="m 4825.42,6076.37 h 3.5352 v 12.5 h -3.5352 z"
         style="fill:#231f20;fill-opacity:1;fill-rule:nonzero;stroke:none"
         id="path3338" />
    </g>
  </g>
</svg>
