<?xml version="1.0" encoding="UTF-8" standalone="no"?>
<!-- John Grümph
     https://legrumph.org/Terrier/public/chibi/de-chorographia
     CC BY-NC 3.0
     https://creativecommons.org/licenses/by-nc/3.0/fr/ -->
<!-- Created with Inkscape (http://www.inkscape.org/) -->

<svg
   version="1.1"
   id="svg2"
   width="42.696014"
   height="27.722673"
   viewBox="0 0 42.696014 27.722672"
   xmlns="http://www.w3.org/2000/svg"
   xmlns:svg="http://www.w3.org/2000/svg">
  <defs
     id="defs6" />
  <g
     id="g10"
     transform="matrix(1.3333333,0,0,-1.3333333,-400.17331,928.81865)">
    <g
       id="g12"
       transform="scale(0.1)">
      <path
         d="m 3169.51,6866.65 -4.61,45.75 h -0.56 l -2.77,-42.64 c 3.67,-2.23 6.48,-2.91 7.94,-3.11"
         style="fill:#ffffff;fill-opacity:1;fill-rule:nonzero;stroke:none"
         id="path1158" />
      <path
         d="m 3275.09,6772.99 h -3.5391 v 12.5 h 3.5391 z m -4.92,0 h -3.5469 v 12.5 h 3.5469 z m -5,0 h -3.5469 v 12.5 h 3.5469 z m -65.49,39.9 c -2.72,0 -4.91,2.2 -4.91,4.92 0,2.71 2.19,4.92 4.91,4.92 2.71,0 4.92,-2.21 4.92,-4.92 0,-2.72 -2.21,-4.92 -4.92,-4.92 m -12.09,-39.9 h -3.54 v 12.5 h 3.54 z m -4.92,0 h -3.5469 v 12.5 h 3.5469 z m -5,0 h -3.5469 v 12.5 h 3.5469 z m -50.61,11.76 h -3.5391 v 12.5 h 3.5391 z m -4.92,0 h -3.5391 v 12.5 h 3.5391 z m -44.38,-11.76 h -3.543 v 12.5 h 3.543 z m -4.92,0 h -3.5391 v 12.5 h 3.5391 z m -5,0 h -3.5391 v 12.5 h 3.5391 z m -19.97,36.25 h -3.543 v 12.5 h 3.543 z m -3.15,-36.25 h -3.5391 v 12.5 h 3.5391 z m -5.32,48.75 h 3.543 v -12.5 h -3.543 z m -1.45,-12.5 h -3.5391 v 12.5 h 3.5391 z m 249.61,-36.88 c 3.06,4.69 5.92,10.89 5.88,16.41 -0.01,2.76 -0.64,5.35 -2.25,7.89 -1.62,2.53 -4.3,5.08 -8.71,7.42 -1.8,0.95 -3.82,1.96 -5.93,2.99 l -55.87,1.16 c 0,0 -3.95,12.7 -10.83,17.5 -6.87,4.79 -42.92,1.25 -42.92,1.25 l 5.63,-25.84 c 0,0 -53.96,-1.46 -74.17,-2.5 -20.21,-1.04 -17.08,27.29 -17.08,27.29 h -50.67 c -0.21,-1.49 -0.44,-3.14 -0.69,-5.03 -0.87,-6.73 -1.72,-15.7 -1.72,-24.47 -0.01,-6.27 0.44,-12.44 1.57,-17.54 1.11,-5.11 2.96,-9.04 5.15,-11.04 1.48,-1.34 2.98,-2.02 5.23,-2.13 h 152.6 v 18.38 c 0,3.81 3.1,6.9 6.91,6.9 3.8,0 6.89,-3.09 6.89,-6.9 v -18.38 h 75.98 l 0.81,0.95 c 1.14,1.36 2.67,3.34 4.19,5.69"
         style="fill:#ffffff;fill-opacity:1;fill-rule:nonzero;stroke:none"
         id="path1160" />
      <path
         d="m 3131.35,6860.04 h 3.5391 v -12.5 h -3.5391 z m -1.39,-12.5 h -3.5391 v 12.5 h 3.5391 z m 10.67,17.73 h -22.03 v -29.96 h 29.37 z"
         style="fill:#ffffff;fill-opacity:1;fill-rule:nonzero;stroke:none"
         id="path1162" />
      <path
         d="m 3064.31,6772.99 h 3.543 v 12.5 h -3.543 z"
         style="fill:#231f20;fill-opacity:1;fill-rule:nonzero;stroke:none"
         id="path1164" />
      <path
         d="m 3069.31,6772.99 h 3.543 v 12.5 h -3.543 z"
         style="fill:#231f20;fill-opacity:1;fill-rule:nonzero;stroke:none"
         id="path1166" />
      <path
         d="m 3074.23,6772.99 h 3.5391 v 12.5 h -3.5391 z"
         style="fill:#231f20;fill-opacity:1;fill-rule:nonzero;stroke:none"
         id="path1168" />
      <path
         d="m 3174.12,6772.99 h 3.5391 v 12.5 h -3.5391 z"
         style="fill:#231f20;fill-opacity:1;fill-rule:nonzero;stroke:none"
         id="path1170" />
      <path
         d="m 3179.12,6772.99 h 3.5391 v 12.5 h -3.5391 z"
         style="fill:#231f20;fill-opacity:1;fill-rule:nonzero;stroke:none"
         id="path1172" />
      <path
         d="m 3184.04,6772.99 h 3.5391 v 12.5 h -3.5391 z"
         style="fill:#231f20;fill-opacity:1;fill-rule:nonzero;stroke:none"
         id="path1174" />
      <path
         d="m 3261.62,6772.99 h 3.5391 v 12.5 h -3.5391 z"
         style="fill:#231f20;fill-opacity:1;fill-rule:nonzero;stroke:none"
         id="path1176" />
      <path
         d="m 3266.62,6772.99 h 3.5391 v 12.5 h -3.5391 z"
         style="fill:#231f20;fill-opacity:1;fill-rule:nonzero;stroke:none"
         id="path1178" />
      <path
         d="m 3271.54,6772.99 h 3.5391 v 12.5 h -3.5391 z"
         style="fill:#231f20;fill-opacity:1;fill-rule:nonzero;stroke:none"
         id="path1180" />
      <path
         d="m 3126.43,6847.54 h 3.5391 v 12.5 h -3.5391 z"
         style="fill:#231f20;fill-opacity:1;fill-rule:nonzero;stroke:none"
         id="path1182" />
      <path
         d="m 3131.35,6847.54 h 3.5391 v 12.5 h -3.5391 z"
         style="fill:#231f20;fill-opacity:1;fill-rule:nonzero;stroke:none"
         id="path1184" />
      <path
         d="m 3118.6,6784.75 h 3.5391 v 12.5 H 3118.6 Z"
         style="fill:#231f20;fill-opacity:1;fill-rule:nonzero;stroke:none"
         id="path1186" />
      <path
         d="m 3123.53,6784.75 h 3.5391 v 12.5 h -3.5391 z"
         style="fill:#231f20;fill-opacity:1;fill-rule:nonzero;stroke:none"
         id="path1188" />
      <path
         d="m 3041.18,6772.99 h 3.5391 v 12.5 h -3.5391 z"
         style="fill:#231f20;fill-opacity:1;fill-rule:nonzero;stroke:none"
         id="path1190" />
      <path
         d="m 3034.4,6809.24 h 3.543 v 12.5 h -3.543 z"
         style="fill:#231f20;fill-opacity:1;fill-rule:nonzero;stroke:none"
         id="path1192" />
      <path
         d="m 3039.41,6809.24 h 3.5391 v 12.5 h -3.5391 z"
         style="fill:#231f20;fill-opacity:1;fill-rule:nonzero;stroke:none"
         id="path1194" />
      <path
         d="m 3044.33,6809.24 h 3.5352 v 12.5 h -3.5352 z"
         style="fill:#231f20;fill-opacity:1;fill-rule:nonzero;stroke:none"
         id="path1196" />
      <path
         d="m 3199.68,6822.73 c -2.71,0 -4.91,-2.2 -4.91,-4.93 0,-2.7 2.2,-4.91 4.91,-4.91 2.71,0 4.92,2.21 4.92,4.91 0,2.73 -2.21,4.93 -4.92,4.93"
         style="fill:#231f20;fill-opacity:1;fill-rule:nonzero;stroke:none"
         id="path1198" />
      <path
         d="m 3023.07,6825.93 c -0.27,-1.86 -0.55,-4.02 -0.82,-6.36 l -2.61,6.36 z m 95.54,39.34 h 22.03 l 7.32,-29.97 h -29.35 z m 178.9,-64.57 c -1.38,2.18 -3.37,4.18 -5.68,6.07 l 10.26,-0.23 -4.24,-6.59 z m -132.6,111.69 4.61,-45.75 c -1.47,0.2 -4.27,0.9 -7.94,3.11 l 2.77,42.64 z m 41.68,-146.67 v 18.39 c 0,3.8 -3.11,6.88 -6.9,6.88 -3.81,0 -6.9,-3.08 -6.9,-6.88 v -18.39 h -152.61 c -2.25,0.1 -3.75,0.8 -5.23,2.14 -2.18,2 -4.04,5.91 -5.15,11.03 -1.12,5.1 -1.57,11.27 -1.57,17.54 0,8.77 0.86,17.73 1.72,24.47 0.25,1.89 0.48,3.55 0.69,5.03 h 50.66 c 0,0 -3.11,-28.32 17.09,-27.29 20.22,1.04 74.16,2.5 74.16,2.5 l -5.61,25.83 c 0,0 36.04,3.55 42.92,-1.25 6.87,-4.79 10.83,-17.5 10.83,-17.5 l 55.86,-1.15 c 2.12,-1.03 4.14,-2.05 5.93,-3 4.41,-2.33 7.09,-4.87 8.71,-7.42 1.61,-2.52 2.24,-5.11 2.25,-7.88 0.04,-5.52 -2.82,-11.73 -5.89,-16.41 -1.5,-2.34 -3.03,-4.32 -4.18,-5.7 l -0.82,-0.94 z m 104.3,40.64 10.63,-0.22 c 0,0 -104.38,43.97 -122.91,78.13 -5.01,-6.09 -15.24,-11.71 -21.83,-14.91 l -5.1,50.53 h -10.85 -3.51 l -2.9,-44.53 c -11.37,10.95 -26.58,35.52 -38.53,90.78 -6.03,-28.53 -27.09,-109.58 -35.62,-106.87 -8.54,2.7 -21.04,32.7 -21.04,32.7 0,0 -31.87,-61.25 -57.93,-66.04 h 10.24 l 9.34,-22.82 c -0.09,-2.21 -0.15,-4.45 -0.15,-6.68 0.02,-8.82 0.78,-17.64 3.37,-24.8 1.31,-3.58 3.1,-6.79 5.74,-9.25 2.6,-2.49 6.14,-4.05 10.1,-4.16 h 0.06 245.8 l 1.12,1.14 c 0.11,0.11 3.49,3.59 6.94,8.93 3.42,5.34 7.03,12.52 7.08,20.48 l -0.23,1.77"
         style="fill:#231f20;fill-opacity:1;fill-rule:nonzero;stroke:none"
         id="path1200" />
    </g>
  </g>
</svg>
