<?xml version="1.0" encoding="UTF-8" standalone="no"?>
<!-- Created with Inkscape (http://www.inkscape.org/) -->

<svg
   version="1.1"
   id="svg2"
   width="48.471985"
   height="31.57065"
   viewBox="0 0 48.471985 31.570649"
   xmlns="http://www.w3.org/2000/svg"
   xmlns:svg="http://www.w3.org/2000/svg">
  <defs
     id="defs6" />
  <g
     id="g10"
     transform="matrix(1.3333333,0,0,-1.3333333,-615.85065,770.89462)">
    <g
       id="g12"
       transform="scale(0.1)">
      <path
         d="m 4926.75,5559.17 h -3.5391 v 12.5 h 3.5391 z m -4.92,0 h -3.5469 v 12.5 h 3.5469 z m -52.62,0 h -3.5391 v 12.5 h 3.5391 z m -4.92,0 h -3.5391 v 12.5 h 3.5391 z m -73.27,0 h -3.5391 v 12.5 h 3.5391 z m -4.93,0 h -3.5391 v 12.5 h 3.5391 z m -5,0 h -3.5391 v 12.5 h 3.5391 z m -44.6,0 h -3.5391 v 12.5 h 3.5391 z m -4.92,0 h -3.5391 v 12.5 h 3.5391 z m -5,0 h -3.5391 v 12.5 h 3.5391 z m -15.31,27.5 h -3.5469 v 12.5 h 3.5469 z m -58.82,-27.5 h -3.543 v 12.5 h 3.543 z m 18.82,27.5 h -3.5469 v 12.5 h 3.5469 z m -4.92,0 h -3.5391 v 12.5 h 3.5391 z m -5,0 h -3.5391 v 12.5 h 3.5391 z m 200.76,-7.46 c -12.5,-0.62 -52.81,21.56 -62.81,21.56 -10,0 -59.07,-5.31 -71.25,-3.43 -12.19,1.87 -7.82,8.43 -12.5,11.87 -2.73,2 -34.13,0.62 -59.98,-0.89 l -4.58,-29.22 h 37.4 v -5 h -38.63 l -0.8,-0.56 c 0,-0.01 -0.73,-0.51 -1.98,-1.46 -1.25,-0.95 -3,-2.32 -4.94,-3.98 -3.89,-3.3 -8.59,-7.79 -11.71,-12.14 -0.89,-1.22 -1.53,-2.39 -2.11,-3.52 h 66.5 v 10.65 c 0,2.16 1.74,3.9 3.89,3.9 2.15,0 3.9,-1.74 3.9,-3.9 v -10.65 h 99.29 v 17.27 c 0,3.81 3.08,6.89 6.89,6.89 3.81,0 6.9,-3.08 6.9,-6.89 v -17.27 h 118.29 v 16.3 l 5.81,11.62 c -31.61,-0.32 -70.38,-0.79 -77.58,-1.15"
         style="fill:#ffffff;fill-opacity:1;fill-rule:nonzero;stroke:none"
         id="path3010" />
      <path
         d="m 4818.55,5653.13 h 3.5391 v -12.5 h -3.5391 z m 6.31,13.22 -25.26,-25.26 c 0,0 12.94,-7.31 28.74,-15.5"
         style="fill:#ffffff;fill-opacity:1;fill-rule:nonzero;stroke:none"
         id="path3012" />
      <path
         d="m 4645.98,5595.71 -8.72,11.47 c 3.25,0.21 6.81,0.45 10.63,0.68 z m 178.89,70.65 3.47,-40.77 c -15.8,8.18 -28.74,15.5 -28.74,15.5 z m 109,-113.93 h -118.3 v 17.27 c 0,3.82 -3.09,6.91 -6.88,6.91 -3.81,0 -6.9,-3.09 -6.9,-6.91 v -17.27 h -99.29 v 10.66 c 0,2.15 -1.74,3.89 -3.89,3.89 -2.16,0 -3.9,-1.74 -3.9,-3.89 v -10.66 h -66.5 c 0.58,1.14 1.23,2.31 2.11,3.53 3.12,4.35 7.82,8.84 11.71,12.15 1.95,1.64 3.7,3.02 4.95,3.96 1.25,0.95 1.97,1.47 1.97,1.47 l 0.8,0.57 h 38.63 v 5 h -37.4 l 4.57,29.21 c 25.86,1.5 57.27,2.88 59.99,0.89 4.69,-3.44 0.31,-10 12.5,-11.87 12.19,-1.88 61.25,3.43 71.25,3.43 10,0 50.31,-22.18 62.81,-21.56 7.2,0.36 45.97,0.83 77.58,1.15 l -5.81,-11.62 z m 48.55,28.34 c 0,0 -85.63,16.87 -109.07,24.37 -9.64,3.08 -23.8,9.72 -37.14,16.43 l -4.41,51.72 12.18,12.17 c 0,0 -27.5,-5 -42.19,13.43 -14.69,18.45 -35.31,82.82 -35.31,82.82 0,0 -40.63,-131.25 -50.31,-132.5 -7.83,-1.01 -20.6,9.88 -25.28,14.17 l -2.51,45.05 -2.56,-46.04 -64.65,-56.3 c 0,0 2.76,0.2 7.12,0.5 l 16.09,-21.14 -1.06,-6.74 c -2.02,-1.51 -6.16,-4.69 -10.52,-8.81 -3,-2.85 -6.07,-6.1 -8.57,-9.56 -2.47,-3.48 -4.47,-7.18 -4.93,-11.27 l -0.42,-4.14 h 4.16 318.33 v 22.03 l 6.74,13.49 c 19.37,0.19 34.31,0.32 34.31,0.32"
         style="fill:#231f20;fill-opacity:1;fill-rule:nonzero;stroke:none"
         id="path3014" />
      <path
         d="m 4657.8,5586.67 h 3.5391 v 12.5 H 4657.8 Z"
         style="fill:#231f20;fill-opacity:1;fill-rule:nonzero;stroke:none"
         id="path3016" />
      <path
         d="m 4662.8,5586.67 h 3.5391 v 12.5 H 4662.8 Z"
         style="fill:#231f20;fill-opacity:1;fill-rule:nonzero;stroke:none"
         id="path3018" />
      <path
         d="m 4667.72,5586.67 h 3.543 v 12.5 h -3.543 z"
         style="fill:#231f20;fill-opacity:1;fill-rule:nonzero;stroke:none"
         id="path3020" />
      <path
         d="m 4723.04,5559.17 h 3.5391 v 12.5 h -3.5391 z"
         style="fill:#231f20;fill-opacity:1;fill-rule:nonzero;stroke:none"
         id="path3022" />
      <path
         d="m 4728.04,5559.17 h 3.5391 v 12.5 h -3.5391 z"
         style="fill:#231f20;fill-opacity:1;fill-rule:nonzero;stroke:none"
         id="path3024" />
      <path
         d="m 4732.96,5559.17 h 3.5391 v 12.5 h -3.5391 z"
         style="fill:#231f20;fill-opacity:1;fill-rule:nonzero;stroke:none"
         id="path3026" />
      <path
         d="m 4860.74,5559.17 h 3.5352 v 12.5 h -3.5352 z"
         style="fill:#231f20;fill-opacity:1;fill-rule:nonzero;stroke:none"
         id="path3028" />
      <path
         d="m 4865.66,5559.17 h 3.5391 v 12.5 h -3.5391 z"
         style="fill:#231f20;fill-opacity:1;fill-rule:nonzero;stroke:none"
         id="path3030" />
      <path
         d="m 4648.9,5559.17 h 3.5391 v 12.5 H 4648.9 Z"
         style="fill:#231f20;fill-opacity:1;fill-rule:nonzero;stroke:none"
         id="path3032" />
      <path
         d="m 4777.55,5559.17 h 3.5391 v 12.5 h -3.5391 z"
         style="fill:#231f20;fill-opacity:1;fill-rule:nonzero;stroke:none"
         id="path3034" />
      <path
         d="m 4782.55,5559.17 h 3.5391 v 12.5 h -3.5391 z"
         style="fill:#231f20;fill-opacity:1;fill-rule:nonzero;stroke:none"
         id="path3036" />
      <path
         d="m 4787.47,5559.17 h 3.543 v 12.5 h -3.543 z"
         style="fill:#231f20;fill-opacity:1;fill-rule:nonzero;stroke:none"
         id="path3038" />
      <path
         d="m 4918.28,5559.17 h 3.5391 v 12.5 h -3.5391 z"
         style="fill:#231f20;fill-opacity:1;fill-rule:nonzero;stroke:none"
         id="path3040" />
      <path
         d="m 4923.2,5559.17 h 3.5391 v 12.5 H 4923.2 Z"
         style="fill:#231f20;fill-opacity:1;fill-rule:nonzero;stroke:none"
         id="path3042" />
      <path
         d="m 4707.72,5586.67 h 3.543 v 12.5 h -3.543 z"
         style="fill:#231f20;fill-opacity:1;fill-rule:nonzero;stroke:none"
         id="path3044" />
      <path
         d="m 4818.55,5640.63 h 3.5391 v 12.5 h -3.5391 z"
         style="fill:#231f20;fill-opacity:1;fill-rule:nonzero;stroke:none"
         id="path3046" />
    </g>
  </g>
</svg>
