<?xml version="1.0" encoding="UTF-8" standalone="no"?>
<!-- Created with Inkscape (http://www.inkscape.org/) -->

<svg
   version="1.1"
   id="svg2"
   width="38.638535"
   height="28.486666"
   viewBox="0 0 38.638534 28.486665"
   xmlns="http://www.w3.org/2000/svg"
   xmlns:svg="http://www.w3.org/2000/svg">
  <defs
     id="defs6" />
  <g
     id="g10"
     transform="matrix(1.3333333,0,0,-1.3333333,-73.839066,929.58399)">
    <g
       id="g12"
       transform="scale(0.1)">
      <path
         d="m 792.941,6810.79 h -3.54297 v 12.5 h 3.54297 z m -24.98,-0.78 h -3.53906 v 12.5 h 3.53906 z m -4.922,0 h -3.53906 v 12.5 h 3.53906 z m -5,0 h -3.53906 v 12.5 h 3.53906 z m -37.891,-5.47 h -3.53906 v 12.5 h 3.53906 z m -4.929,0 h -3.53906 v 12.5 h 3.53906 z m -5,0 h -3.53906 v 12.5 h 3.53906 z m 32.14,-17.81 h 3.53906 v -12.5 H 742.359 Z m 5,0 h 3.53906 v -12.5 H 747.359 Z m 4.93,0 h 3.53906 v -12.5 H 752.289 Z m 29.531,0 h 3.53906 v -12.5 H 781.82 Z m 16.239,39.45 -5.188,5.42 13.059,12.5 c -0.051,0.88 -0.059,1.7 -0.141,2.62 l -0.848,0.41 -2.281,0.04 0.192,-0.21 -21.723,-20.78 -5.18,5.42 16.391,15.69 c -18.828,0.06 -36.16,-0.78 -38.34,-3.96 -5,-7.29 -7.922,-17.29 -7.922,-17.29 l -73.258,-4.82 c 0.121,-4.47 0.36,-10.88 0.86,-17.92 0.129,-1.81 0.281,-3.67 0.441,-5.54 h 10 v 8.29 c 0,2.14 1.75,3.89 3.91,3.89 2.149,0 3.879,-1.75 3.879,-3.89 v -8.29 h 25.809 l 15.082,-32.04 h 31.949 v 17.04 c 0,3.8 3.078,6.89 6.891,6.89 3.808,0 6.898,-3.09 6.898,-6.89 v -17.04 h 12.711 l -5.551,33.54 -54.41,6.12 h 53.402 v 0.03 h 4.411 l 0.019,0.01 0.418,0.04 1.789,0.37 c 1.531,0.45 3.621,1.34 5.762,3.2 3.879,3.39 8.262,10.28 9,24.84"
         style="fill:#ffffff;fill-opacity:1;fill-rule:nonzero;stroke:none"
         id="path148" />
      <path
         d="m 653.781,6847.44 h -3.54297 v 12.5 h 3.54297 z m -0.691,-41.02 h -3.53906 v 12.5 H 653.09 Z m -4.231,41.02 h -3.53906 v 12.5 h 3.53906 z m -0.699,-41.02 h -3.53906 v 12.5 H 648.16 Z m -5,0 h -3.53906 v 12.5 H 643.16 Z m -11.961,-30.61 h -3.53906 v 12.5 h 3.53906 z m -4.918,0 h -3.54297 v 12.5 h 3.54297 z m -18.82,0 h -3.53906 v 12.5 h 3.53906 z m -4.922,0 h -3.53906 v 12.5 h 3.53906 z m -5,0 h -3.53906 v 12.5 h 3.53906 z m 77.602,-9.36 c -1.11,2.39 -2,5.28 -2.762,8.55 -1.527,6.5 -2.539,14.45 -3.231,22.2 -1.046,11.89 -1.347,23.24 -1.429,27.93 l -2.289,44.67 -1.039,1.12 -25.813,-3.42 -10.418,-26.67 -12.101,-1.49 13.632,-14.24 -2.722,-2.59 -2.699,-2.59 -17.489,18.27 -10.019,-1.23 -0.153,-0.81 14.02,-14.64 -2.719,-2.59 -2.699,-2.6 -10.211,10.67 -1.559,-8.87 0.411,-0.43 -0.59,-0.56 -9.063,-51.41 h 91.36"
         style="fill:#ffffff;fill-opacity:1;fill-rule:nonzero;stroke:none"
         id="path150" />
      <path
         d="m 679.68,6768.54 c 0.66,-1.48 1.34,-2.32 1.867,-2.82 h 45.73 l -12.73,27.03 h -39.93 c 1.071,-9.79 2.723,-19.22 5.063,-24.21"
         style="fill:#ffffff;fill-opacity:1;fill-rule:nonzero;stroke:none"
         id="path152" />
      <path
         d="m 714.551,6792.75 12.719,-27.02 h -45.719 c -0.539,0.5 -1.211,1.34 -1.871,2.82 -2.348,4.99 -4,14.41 -5.059,24.2 z m -121.289,24.39 0.59,0.56 -0.411,0.43 1.559,8.87 10.199,-10.68 2.711,2.59 2.711,2.59 -14.012,14.66 0.153,0.8 10.019,1.24 17.489,-18.29 2.703,2.61 2.718,2.59 -13.628,14.23 12.097,1.5 10.422,26.66 25.809,3.43 1.039,-1.13 2.293,-44.67 c 0.078,-4.68 0.367,-16.04 1.429,-27.92 0.688,-7.76 1.7,-15.71 3.231,-22.21 0.758,-3.27 1.648,-6.16 2.758,-8.55 l 0.422,-0.72 h -91.364 z m -4.699,16.57 -1.563,-8.87 -9.328,9.77 8.98,1.1 z m 208.527,-24.69 c -2.141,-1.84 -4.231,-2.75 -5.758,-3.18 l -1.789,-0.38 -0.422,-0.05 h -0.019 -4.411 v -0.03 h -53.398 l 54.406,-6.13 5.551,-33.52 h -12.719 v 17.02 c 0,3.82 -3.082,6.89 -6.89,6.89 -3.809,0 -6.891,-3.07 -6.891,-6.89 v -17.02 h -31.949 l -15.078,32.02 H 691.91 v 8.3 c 0,2.15 -1.738,3.88 -3.879,3.88 -2.16,0 -3.91,-1.73 -3.91,-3.88 v -8.3 h -10 c -0.172,1.88 -0.308,3.73 -0.441,5.55 -0.5,7.04 -0.739,13.45 -0.86,17.93 l 73.262,4.81 c 0,0 2.918,10 7.918,17.3 2.18,3.16 19.512,4 38.34,3.96 l -16.391,-15.69 5.184,-5.43 21.719,20.78 -0.192,0.2 2.281,-0.03 0.852,-0.4 c 0.078,-0.93 0.09,-1.75 0.137,-2.64 l -13.059,-12.48 5.192,-5.43 8.027,7.7 c -0.738,-14.58 -5.117,-21.47 -9,-24.86 m 16.652,28.53 0.008,0.41 c 0,0.95 -0.129,2.09 -0.16,3.09 l 5.922,5.66 c 1.23,-0.03 2.48,-0.08 3.648,-0.12 z m 19.809,8.59 c 6.07,-0.28 10.031,-0.51 10.031,-0.51 l -14.16,6.55 -0.192,0.21 -0.078,-0.09 -33.691,15.61 v 31.25 h -27.918 l -17.293,66.68 c 0,0 -25.418,-102.93 -31.867,-109.38 -5.293,-5.28 -34.153,-4.3 -44.563,-3.76 l -1,19.35 19.09,2.54 c 0,0 -28.949,21.45 -33.117,27.91 -4.16,6.46 -25.633,69.38 -25.633,69.38 0,0 -31.449,-107.92 -41.25,-111.47 -6.867,-6.25 -38.117,-28.75 -38.117,-28.75 l 14.59,1.8 17.008,-17.78 -10.129,-57.45 h 4.468 220.36 l -6.68,40.4 c 2.391,0.69 5.5,2.05 8.602,4.73 4.808,4.16 9.179,11.35 10.918,23.05"
         style="fill:#231f20;fill-opacity:1;fill-rule:nonzero;stroke:none"
         id="path154" />
      <path
         d="m 594,6775.81 h 3.53906 v 12.5 H 594 Z"
         style="fill:#231f20;fill-opacity:1;fill-rule:nonzero;stroke:none"
         id="path156" />
      <path
         d="m 599,6775.81 h 3.53906 v 12.5 H 599 Z"
         style="fill:#231f20;fill-opacity:1;fill-rule:nonzero;stroke:none"
         id="path158" />
      <path
         d="m 603.93,6775.81 h 3.53906 v 12.5 H 603.93 Z"
         style="fill:#231f20;fill-opacity:1;fill-rule:nonzero;stroke:none"
         id="path160" />
      <path
         d="m 639.629,6806.42 h 3.54297 v 12.5 H 639.629 Z"
         style="fill:#231f20;fill-opacity:1;fill-rule:nonzero;stroke:none"
         id="path162" />
      <path
         d="m 644.629,6806.42 h 3.54297 v 12.5 H 644.629 Z"
         style="fill:#231f20;fill-opacity:1;fill-rule:nonzero;stroke:none"
         id="path164" />
      <path
         d="m 649.551,6806.42 h 3.53906 v 12.5 H 649.551 Z"
         style="fill:#231f20;fill-opacity:1;fill-rule:nonzero;stroke:none"
         id="path166" />
      <path
         d="m 706.68,6804.54 h 3.53906 v 12.5 H 706.68 Z"
         style="fill:#231f20;fill-opacity:1;fill-rule:nonzero;stroke:none"
         id="path168" />
      <path
         d="m 711.68,6804.54 h 3.53906 v 12.5 H 711.68 Z"
         style="fill:#231f20;fill-opacity:1;fill-rule:nonzero;stroke:none"
         id="path170" />
      <path
         d="m 716.602,6804.54 h 3.53906 v 12.5 H 716.602 Z"
         style="fill:#231f20;fill-opacity:1;fill-rule:nonzero;stroke:none"
         id="path172" />
      <path
         d="m 754.488,6810.01 h 3.54297 v 12.5 H 754.488 Z"
         style="fill:#231f20;fill-opacity:1;fill-rule:nonzero;stroke:none"
         id="path174" />
      <path
         d="m 759.488,6810.01 h 3.54297 v 12.5 H 759.488 Z"
         style="fill:#231f20;fill-opacity:1;fill-rule:nonzero;stroke:none"
         id="path176" />
      <path
         d="m 764.41,6810.01 h 3.53906 v 12.5 H 764.41 Z"
         style="fill:#231f20;fill-opacity:1;fill-rule:nonzero;stroke:none"
         id="path178" />
      <path
         d="m 742.371,6774.23 h 3.53906 v 12.5 H 742.371 Z"
         style="fill:#231f20;fill-opacity:1;fill-rule:nonzero;stroke:none"
         id="path180" />
      <path
         d="m 747.371,6774.23 h 3.53906 v 12.5 H 747.371 Z"
         style="fill:#231f20;fill-opacity:1;fill-rule:nonzero;stroke:none"
         id="path182" />
      <path
         d="m 752.289,6774.23 h 3.53906 v 12.5 H 752.289 Z"
         style="fill:#231f20;fill-opacity:1;fill-rule:nonzero;stroke:none"
         id="path184" />
      <path
         d="m 645.309,6847.44 h 3.54297 v 12.5 H 645.309 Z"
         style="fill:#231f20;fill-opacity:1;fill-rule:nonzero;stroke:none"
         id="path186" />
      <path
         d="m 650.23,6847.44 h 3.53906 v 12.5 H 650.23 Z"
         style="fill:#231f20;fill-opacity:1;fill-rule:nonzero;stroke:none"
         id="path188" />
      <path
         d="m 622.738,6775.81 h 3.54297 v 12.5 H 622.738 Z"
         style="fill:#231f20;fill-opacity:1;fill-rule:nonzero;stroke:none"
         id="path190" />
      <path
         d="m 627.672,6775.81 h 3.53906 v 12.5 H 627.672 Z"
         style="fill:#231f20;fill-opacity:1;fill-rule:nonzero;stroke:none"
         id="path192" />
      <path
         d="m 789.391,6810.79 h 3.53906 v 12.5 H 789.391 Z"
         style="fill:#231f20;fill-opacity:1;fill-rule:nonzero;stroke:none"
         id="path194" />
      <path
         d="m 781.809,6774.23 h 3.54297 v 12.5 H 781.809 Z"
         style="fill:#231f20;fill-opacity:1;fill-rule:nonzero;stroke:none"
         id="path196" />
    </g>
  </g>
</svg>
