<?xml version="1.0" encoding="UTF-8" standalone="no"?>
<!-- Created with Inkscape (http://www.inkscape.org/) -->

<svg
   version="1.1"
   id="svg2"
   width="39.388"
   height="25.028002"
   viewBox="0 0 39.388 25.028001"
   xmlns="http://www.w3.org/2000/svg"
   xmlns:svg="http://www.w3.org/2000/svg">
  <defs
     id="defs6" />
  <g
     id="g10"
     transform="matrix(1.3333333,0,0,-1.3333333,-718.03998,926.12397)">
    <g
       id="g12"
       transform="scale(0.1)">
      <path
         d="m 5425.64,6790.17 h -3.5391 v 12.5 h 3.5391 z m 1.38,12.5 h 3.5391 v -12.5 h -3.5391 z m 1.45,-32.62 c 1.56,3.26 2.85,7.65 3.84,12.41 1.83,8.71 2.71,18.55 3.13,25.77 l -20.78,0.95 c -1.22,-2.21 -2.61,-4.86 -4.06,-8.14 -3.64,-8.16 -7.2,-19.11 -7.18,-29.95 0,-1.8 0.27,-3.58 0.49,-5.37 h 3.06 v 9.04 c 0,2.15 1.75,3.89 3.9,3.89 2.15,0 3.9,-1.74 3.9,-3.89 v -9.04 h 10.7 c 1.01,0.99 2.05,2.31 3,4.33"
         style="fill:#ffffff;fill-opacity:1;fill-rule:nonzero;stroke:none"
         id="path1830" />
      <path
         d="m 5599.43,6795.52 h -3.5391 v 12.5 h 3.5391 z m -13.1,-21.45 h -3.5469 v 12.5 h 3.5469 z m -6.28,46.87 h -3.5391 v 12.5 h 3.5391 z m -4.92,0 h -3.5391 v 12.5 h 3.5391 z m -5,0 h -3.5391 v 12.5 h 3.5391 z m -32.21,-46.87 h -3.5469 v 12.5 h 3.5469 z m -4.92,0 h -3.5391 v 12.5 H 5533 Z m -5,0 h -3.5391 v 12.5 H 5528 Z m -22.38,21.45 h -3.5391 v 12.5 h 3.5391 z m -4.92,0 h -3.5391 v 12.5 h 3.5391 z m -5,0 h -3.5391 v 12.5 h 3.5391 z m 139.01,5.17 -7.79,-8.8 -2.81,2.49 -2.81,2.48 12.15,13.73 -0.12,1.59 h -4.79 l -16.14,-18.24 -2.81,2.48 -2.81,2.49 11.75,13.27 h -27.41 c 0,0 -0.83,24.59 -3.54,25.21 -2.71,0.63 -26.66,0 -26.66,0 0,0 -0.84,-11.87 -5,-12.29 -36.85,6.97 -39.5,-7.71 -71.93,-4.47 l 5.01,-54.91 h 14.9 v 17.56 c 0,3.81 3.09,6.9 6.9,6.9 3.8,0 6.9,-3.09 6.9,-6.9 v -17.56 h 126.32 c -1.19,3.6 -2.85,8.81 -4.53,14.73 -1.81,6.45 -3.57,13.54 -4.78,20.24"
         style="fill:#ffffff;fill-opacity:1;fill-rule:nonzero;stroke:none"
         id="path1832" />
      <path
         d="m 5457.87,6861.56 h -3.5391 v 12.5 h 3.5391 z m 1.38,12.5 h 3.5391 v -12.5 h -3.5391 z m 11.67,-78.54 h -3.5469 v 12.5 h 3.5469 z m -19.9,-21.45 h -3.5391 v 12.5 h 3.5391 z m 5.31,51.03 c 3.75,-3.54 11.04,-9.17 11.04,-9.17 l -26.91,-7.8 c -0.59,-10.03 -2.06,-25.35 -5.8,-36.13 -0.84,-2.31 -1.81,-4.4 -2.91,-6.28 h 52.23 l -5.97,65.46 0.06,0.01 -3.44,51.2 h -11.84 -11.33 l -6.86,-33.54 c 3.37,-8.04 9.15,-21.31 11.73,-23.75"
         style="fill:#ffffff;fill-opacity:1;fill-rule:nonzero;stroke:none"
         id="path1834" />
      <path
         d="m 5517.7,6765.72 v 17.57 c 0,3.8 -3.11,6.89 -6.9,6.89 -3.8,0 -6.91,-3.09 -6.91,-6.89 v -17.57 H 5489 l -5,54.91 c 32.41,-3.24 35.07,11.44 71.91,4.46 4.16,0.43 5,12.3 5,12.3 0,0 23.97,0.63 26.66,0 2.73,-0.62 3.56,-25.21 3.56,-25.21 h 27.39 l -11.75,-13.28 2.82,-2.47 2.82,-2.5 16.13,18.25 h 4.78 l 0.13,-1.59 -12.15,-13.73 2.81,-2.48 2.82,-2.49 7.77,8.81 c 1.21,-6.72 2.98,-13.81 4.8,-20.25 1.68,-5.91 3.34,-11.13 4.52,-14.73 z m -116,33.32 -2.18,10.84 6.84,-0.33 c -1.5,-2.94 -3.13,-6.53 -4.66,-10.51 m 13.07,-33.32 v 9.03 c 0,2.16 -1.75,3.9 -3.91,3.9 -2.13,0 -3.88,-1.74 -3.88,-3.9 v -9.03 h -3.07 c -0.21,1.8 -0.5,3.57 -0.5,5.37 -0.02,10.84 3.55,21.79 7.18,29.95 1.46,3.27 2.84,5.93 4.07,8.14 l 20.77,-0.96 c -0.41,-7.2 -1.29,-17.06 -3.11,-25.76 -1,-4.76 -2.3,-9.16 -3.86,-12.41 -0.94,-2.03 -1.98,-3.35 -3,-4.33 z m 226.37,42.24 3.72,4.22 h 6.53 l -9.28,-10.5 c -0.41,2.2 -0.73,4.31 -0.97,6.28 m -178.34,74.43 h 11.83 l 3.44,-51.21 H 5478 l 5.98,-65.46 h -52.23 c 1.11,1.89 2.07,3.98 2.91,6.28 3.73,10.79 5.22,26.09 5.79,36.13 l 26.93,7.8 c 0,0 -7.31,5.62 -11.06,9.16 -2.57,2.45 -8.36,15.71 -11.73,23.77 l 6.87,33.53 z m 188.09,-113.56 c -1.71,5.22 -4.28,13.48 -6.41,21.97 l -0.41,1.77 17.34,19.61 h 19.3 c 0,0 -58.55,20.21 -64.8,21.04 -6.25,0.83 -40,78.33 -40,78.33 0,0 -48.75,-63.33 -61.66,-70 -9.48,-4.87 -23.75,11.25 -30.71,20.22 l -1.4,20.62 h 10.02 c -17.09,11.04 -29.36,63.54 -29.36,63.54 0,0 -12.3,-52.5 -29.39,-63.54 h 10.39 l -6.78,-33.19 c -7.59,-8.74 -21.57,-24.11 -25.89,-24.11 -6.06,0 -25.83,-14.57 -25.83,-14.57 l 6.5,-0.3 5.43,-26.93 c -0.75,-3.96 -1.3,-8 -1.32,-12.2 0,-3.25 0.29,-6.54 0.91,-9.82 l 0.57,-3.05 h 3.11 254.05 l -1.76,5 c 0,0.01 -0.75,2.12 -1.9,5.61"
         style="fill:#231f20;fill-opacity:1;fill-rule:nonzero;stroke:none"
         id="path1836" />
      <path
         d="m 5467.37,6795.52 h 3.5391 v 12.5 h -3.5391 z"
         style="fill:#231f20;fill-opacity:1;fill-rule:nonzero;stroke:none"
         id="path1838" />
      <path
         d="m 5422.1,6790.17 h 3.5391 v 12.5 H 5422.1 Z"
         style="fill:#231f20;fill-opacity:1;fill-rule:nonzero;stroke:none"
         id="path1840" />
      <path
         d="m 5427.03,6790.17 h 3.5391 v 12.5 h -3.5391 z"
         style="fill:#231f20;fill-opacity:1;fill-rule:nonzero;stroke:none"
         id="path1842" />
      <path
         d="m 5582.79,6774.07 h 3.5391 v 12.5 h -3.5391 z"
         style="fill:#231f20;fill-opacity:1;fill-rule:nonzero;stroke:none"
         id="path1844" />
      <path
         d="m 5492.17,6795.52 h 3.5352 v 12.5 h -3.5352 z"
         style="fill:#231f20;fill-opacity:1;fill-rule:nonzero;stroke:none"
         id="path1846" />
      <path
         d="m 5497.17,6795.52 h 3.5352 v 12.5 h -3.5352 z"
         style="fill:#231f20;fill-opacity:1;fill-rule:nonzero;stroke:none"
         id="path1848" />
      <path
         d="m 5502.09,6795.52 h 3.5391 v 12.5 h -3.5391 z"
         style="fill:#231f20;fill-opacity:1;fill-rule:nonzero;stroke:none"
         id="path1850" />
      <path
         d="m 5566.59,6820.94 h 3.5391 v 12.5 h -3.5391 z"
         style="fill:#231f20;fill-opacity:1;fill-rule:nonzero;stroke:none"
         id="path1852" />
      <path
         d="m 5571.59,6820.94 h 3.5391 v 12.5 h -3.5391 z"
         style="fill:#231f20;fill-opacity:1;fill-rule:nonzero;stroke:none"
         id="path1854" />
      <path
         d="m 5576.51,6820.94 h 3.5352 v 12.5 h -3.5352 z"
         style="fill:#231f20;fill-opacity:1;fill-rule:nonzero;stroke:none"
         id="path1856" />
      <path
         d="m 5454.33,6861.56 h 3.5352 v 12.5 h -3.5352 z"
         style="fill:#231f20;fill-opacity:1;fill-rule:nonzero;stroke:none"
         id="path1858" />
      <path
         d="m 5459.25,6861.56 h 3.5391 v 12.5 h -3.5391 z"
         style="fill:#231f20;fill-opacity:1;fill-rule:nonzero;stroke:none"
         id="path1860" />
      <path
         d="m 5447.48,6774.07 h 3.5391 v 12.5 h -3.5391 z"
         style="fill:#231f20;fill-opacity:1;fill-rule:nonzero;stroke:none"
         id="path1862" />
      <path
         d="m 5595.89,6795.52 h 3.5391 v 12.5 h -3.5391 z"
         style="fill:#231f20;fill-opacity:1;fill-rule:nonzero;stroke:none"
         id="path1864" />
      <path
         d="m 5524.45,6774.07 h 3.5391 v 12.5 h -3.5391 z"
         style="fill:#231f20;fill-opacity:1;fill-rule:nonzero;stroke:none"
         id="path1866" />
      <path
         d="m 5529.45,6774.07 h 3.5391 v 12.5 h -3.5391 z"
         style="fill:#231f20;fill-opacity:1;fill-rule:nonzero;stroke:none"
         id="path1868" />
      <path
         d="m 5534.37,6774.07 h 3.5391 v 12.5 h -3.5391 z"
         style="fill:#231f20;fill-opacity:1;fill-rule:nonzero;stroke:none"
         id="path1870" />
    </g>
  </g>
</svg>
