<?xml version="1.0" encoding="UTF-8" standalone="no"?>
<!-- Created with Inkscape (http://www.inkscape.org/) -->

<svg
   version="1.1"
   id="svg2"
   width="42.273346"
   height="35.166656"
   viewBox="0 0 42.273346 35.166655"
   xmlns="http://www.w3.org/2000/svg"
   xmlns:svg="http://www.w3.org/2000/svg">
  <defs
     id="defs6" />
  <g
     id="g10"
     transform="matrix(1.3333333,0,0,-1.3333333,-350.35199,713.276)">
    <g
       id="g12"
       transform="scale(0.1)">
      <path
         d="m 2895.74,5138.51 h 3.543 v -12.5 h -3.543 z m -14.6,-32.26 c 0,-4.04 -0.23,-8.4 -0.62,-12.93 h 5.47 c 0.44,5.48 3.43,15.09 15.69,28.75 5.89,6.61 7.44,11.97 7.46,16.23 0.03,2.48 -0.62,4.57 -1.43,6.43 -10.79,-1.02 -22.2,-1.49 -32.43,-1.56 3.03,-8.46 5.86,-20.59 5.86,-36.92"
         style="fill:#ffffff;fill-opacity:1;fill-rule:nonzero;stroke:none"
         id="path2454" />
      <path
         d="m 2727.77,5114.91 h 3.5391 v -12.5 h -3.5391 z m 5,0 h 3.5391 v -12.5 h -3.5391 z m 4.93,0 h 3.5391 v -12.5 H 2737.7 Z m 1.72,30.71 h -3.5469 v 12.5 h 3.5469 z m -4.92,37.24 h -3.5391 v 12.5 h 3.5391 z m 0,-37.24 h -3.5391 v 12.5 h 3.5391 z m -5,0 h -3.5391 v 12.5 h 3.5391 z m -31.09,12.5 h -3.5391 v 12.5 h 3.5391 z m -4.92,0 h -3.5391 v 12.5 h 3.5391 z m -5,0 h -3.5391 v 12.5 h 3.5391 z m 70.78,-19.61 h 3.5391 v -12.5 h -3.5391 z m 4.92,0 h 3.5391 v -12.5 h -3.5391 z m 15.47,-23.6 h 3.5391 v -12.5 h -3.5391 z m 5,0 h 3.5391 v -12.5 h -3.5391 z m 4.92,0 h 3.5352 v -12.5 h -3.5352 z m 16.68,43.21 h 3.5391 v -12.5 h -3.5391 z m 5,0 h 3.5391 v -12.5 h -3.5391 z m 4.92,0 h 3.5391 v -12.5 h -3.5391 z m 14.34,-43.21 h 3.5391 v -12.5 h -3.5391 z m 4.92,0 h 3.5391 v -12.5 h -3.5391 z m 19.25,21.08 h 3.5391 v -12.5 h -3.5391 z m 4.92,0 h 3.5391 v -12.5 h -3.5391 z m -53.52,-42.67 v 17.98 c 0,3.8 3.1,6.89 6.91,6.89 3.8,0 6.89,-3.09 6.89,-6.89 v -17.98 h 55.62 c 0.39,4.55 0.63,8.91 0.63,12.93 0,16.88 -3.11,28.97 -6.16,36.91 -11.74,0.07 -21.16,0.7 -24.88,1.61 -11.88,2.92 -9.38,11.88 -13.96,16.05 -4.58,4.16 -23.75,2.91 -33.54,0.62 -9.79,-2.29 -6.25,-14.37 -6.25,-14.37 0,0 -11.88,-0.84 -26.04,2.29 -14.17,3.12 -19.17,45.41 -19.17,45.41 l 0.21,1.2 -1.25,6.41 h -31.77 -16.1 l 12.15,-16.83 -3.04,-2.2 -3.04,-2.19 -15.32,21.22 h -4.03 c -0.3,-1.01 -0.6,-2.01 -0.91,-3.11 l 9.91,-13.72 -3.05,-2.2 -3.03,-2.19 -6.38,8.83 -0.02,-0.07 c -3.59,-13.62 -7.12,-30.31 -7.1,-41.71 -0.01,-4.01 0.47,-7.33 1.27,-9.38 l 0.04,-0.09 h 36.77 v 9.24 c 0,2.15 1.74,3.89 3.89,3.89 2.15,0 3.9,-1.74 3.9,-3.89 v -9.24 h 23.15 v -5 h -65.78 v -0.01 h -21.28 l -16.52,-40.41"
         style="fill:#ffffff;fill-opacity:1;fill-rule:nonzero;stroke:none"
         id="path2456" />
      <path
         d="m 2713.33,5241.86 c 7.64,0 13.83,-6.2 13.83,-13.83 0,-7.64 -6.19,-13.83 -13.83,-13.83 -7.64,0 -13.83,6.19 -13.83,13.83 0,7.63 6.19,13.83 13.83,13.83 m -36.72,-108.13 v 0 h 65.78 v 5 h -23.15 v 9.25 c 0,2.15 -1.75,3.89 -3.9,3.89 -2.15,0 -3.89,-1.74 -3.89,-3.89 v -9.25 h -36.77 l -0.04,0.1 c -0.8,2.04 -1.28,5.36 -1.27,9.38 -0.02,11.39 3.51,28.09 7.1,41.71 l 0.02,0.07 6.38,-8.83 3.03,2.19 3.05,2.2 -9.91,13.72 c 0.31,1.1 0.61,2.1 0.91,3.11 h 4.03 l 15.32,-21.22 3.04,2.19 3.04,2.2 -12.15,16.83 h 16.1 31.77 l 1.25,-6.41 -0.21,-1.2 c 0,0 5,-42.29 19.17,-45.41 14.16,-3.13 26.04,-2.29 26.04,-2.29 0,0 -3.54,12.08 6.25,14.37 9.79,2.29 28.96,3.54 33.54,-0.62 4.58,-4.17 2.08,-13.13 13.96,-16.05 3.72,-0.91 13.14,-1.54 24.88,-1.62 3.05,-7.94 6.16,-20.02 6.16,-36.9 0,-4.02 -0.24,-8.38 -0.63,-12.93 h -55.62 v 17.97 c 0,3.81 -3.09,6.9 -6.89,6.9 -3.81,0 -6.91,-3.09 -6.91,-6.9 v -17.97 h -167.28 l 16.52,40.41 z m -1.78,64.08 c -0.45,-1.62 -0.9,-3.31 -1.36,-5.05 l -6.95,9.62 h 5.02 z m 234.31,-59.51 c -0.02,-4.26 -1.57,-9.62 -7.46,-16.23 -12.26,-13.66 -15.25,-23.27 -15.69,-28.75 h -5.47 c 0.39,4.53 0.62,8.89 0.62,12.93 0,16.33 -2.83,28.46 -5.86,36.92 10.23,0.07 21.64,0.54 32.43,1.56 0.81,-1.86 1.46,-3.95 1.43,-6.43 m 35.55,15.02 c -15.84,3.75 -27.5,7.29 -42.72,11.87 -15.2,4.58 -43.75,42.92 -47.5,49.79 -3.75,6.88 -33.12,67.29 -33.12,67.29 l -54.78,-55.56 -12.93,3.48 c 0,0 2.5,1.25 17.19,10.63 14.69,9.37 -57.5,108.75 -57.5,108.75 0,0 -72.19,-99.38 -57.5,-108.75 14.69,-9.38 17.19,-10.63 17.19,-10.63 l -16.25,-4.37 c 0,0 -4.38,-12.82 -11.25,-18.13 3.66,-1.71 9.19,-3.97 11.44,-4.89 l 14.14,-19.58 c -2.82,-11.9 -5.21,-24.75 -5.23,-35.01 0.01,-2.49 0.19,-4.8 0.53,-6.98 h -16.11 l -22.65,-55.41 h 5.58 261.88 l -1.61,4.81 -0.09,1.14 c 0,2.79 1.21,11.14 13.87,25.3 6.84,7.6 9.39,14.97 9.37,21.23 0,2.71 -0.47,5.13 -1.16,7.29 12.68,1.59 23.63,4.07 29.21,7.73"
         style="fill:#231f20;fill-opacity:1;fill-rule:nonzero;stroke:none"
         id="path2458" />
      <path
         d="m 2727.77,5102.41 h 3.5391 v 12.5 h -3.5391 z"
         style="fill:#231f20;fill-opacity:1;fill-rule:nonzero;stroke:none"
         id="path2460" />
      <path
         d="m 2732.77,5102.41 h 3.5391 v 12.5 h -3.5391 z"
         style="fill:#231f20;fill-opacity:1;fill-rule:nonzero;stroke:none"
         id="path2462" />
      <path
         d="m 2737.69,5102.41 h 3.5391 v 12.5 h -3.5391 z"
         style="fill:#231f20;fill-opacity:1;fill-rule:nonzero;stroke:none"
         id="path2464" />
      <path
         d="m 2759.27,5126.01 h 3.5391 v 12.5 h -3.5391 z"
         style="fill:#231f20;fill-opacity:1;fill-rule:nonzero;stroke:none"
         id="path2466" />
      <path
         d="m 2764.19,5126.01 h 3.5391 v 12.5 h -3.5391 z"
         style="fill:#231f20;fill-opacity:1;fill-rule:nonzero;stroke:none"
         id="path2468" />
      <path
         d="m 2725.96,5145.62 h 3.5391 v 12.5 h -3.5391 z"
         style="fill:#231f20;fill-opacity:1;fill-rule:nonzero;stroke:none"
         id="path2470" />
      <path
         d="m 2730.96,5145.62 h 3.5391 v 12.5 h -3.5391 z"
         style="fill:#231f20;fill-opacity:1;fill-rule:nonzero;stroke:none"
         id="path2472" />
      <path
         d="m 2735.88,5145.62 h 3.543 v 12.5 h -3.543 z"
         style="fill:#231f20;fill-opacity:1;fill-rule:nonzero;stroke:none"
         id="path2474" />
      <path
         d="m 2854.68,5123.49 h 3.5391 v 12.5 h -3.5391 z"
         style="fill:#231f20;fill-opacity:1;fill-rule:nonzero;stroke:none"
         id="path2476" />
      <path
         d="m 2859.6,5123.49 h 3.5391 v 12.5 H 2859.6 Z"
         style="fill:#231f20;fill-opacity:1;fill-rule:nonzero;stroke:none"
         id="path2478" />
      <path
         d="m 2730.96,5182.86 h 3.5391 v 12.5 h -3.5391 z"
         style="fill:#231f20;fill-opacity:1;fill-rule:nonzero;stroke:none"
         id="path2480" />
      <path
         d="m 2806.26,5145.62 h 3.5391 v 12.5 h -3.5391 z"
         style="fill:#231f20;fill-opacity:1;fill-rule:nonzero;stroke:none"
         id="path2482" />
      <path
         d="m 2811.26,5145.62 h 3.5391 v 12.5 h -3.5391 z"
         style="fill:#231f20;fill-opacity:1;fill-rule:nonzero;stroke:none"
         id="path2484" />
      <path
         d="m 2816.19,5145.62 h 3.5391 v 12.5 h -3.5391 z"
         style="fill:#231f20;fill-opacity:1;fill-rule:nonzero;stroke:none"
         id="path2486" />
      <path
         d="m 2684.94,5158.12 h 3.5391 v 12.5 h -3.5391 z"
         style="fill:#231f20;fill-opacity:1;fill-rule:nonzero;stroke:none"
         id="path2488" />
      <path
         d="m 2689.94,5158.12 h 3.5391 v 12.5 h -3.5391 z"
         style="fill:#231f20;fill-opacity:1;fill-rule:nonzero;stroke:none"
         id="path2490" />
      <path
         d="m 2694.86,5158.12 h 3.5391 v 12.5 h -3.5391 z"
         style="fill:#231f20;fill-opacity:1;fill-rule:nonzero;stroke:none"
         id="path2492" />
      <path
         d="m 2830.52,5102.41 h 3.5391 v 12.5 h -3.5391 z"
         style="fill:#231f20;fill-opacity:1;fill-rule:nonzero;stroke:none"
         id="path2494" />
      <path
         d="m 2835.44,5102.41 h 3.5391 v 12.5 h -3.5391 z"
         style="fill:#231f20;fill-opacity:1;fill-rule:nonzero;stroke:none"
         id="path2496" />
      <path
         d="m 2895.75,5126.01 h 3.5391 v 12.5 h -3.5391 z"
         style="fill:#231f20;fill-opacity:1;fill-rule:nonzero;stroke:none"
         id="path2498" />
      <path
         d="m 2779.66,5102.41 h 3.5391 v 12.5 h -3.5391 z"
         style="fill:#231f20;fill-opacity:1;fill-rule:nonzero;stroke:none"
         id="path2500" />
      <path
         d="m 2784.66,5102.41 h 3.5391 v 12.5 h -3.5391 z"
         style="fill:#231f20;fill-opacity:1;fill-rule:nonzero;stroke:none"
         id="path2502" />
      <path
         d="m 2789.58,5102.41 h 3.5352 v 12.5 h -3.5352 z"
         style="fill:#231f20;fill-opacity:1;fill-rule:nonzero;stroke:none"
         id="path2504" />
      <path
         d="m 2713.33,5214.2 c 7.64,0 13.83,6.19 13.83,13.83 0,7.63 -6.19,13.83 -13.83,13.83 -7.64,0 -13.83,-6.2 -13.83,-13.83 0,-7.64 6.19,-13.83 13.83,-13.83"
         style="fill:#ffffff;fill-opacity:1;fill-rule:nonzero;stroke:none"
         id="path2506" />
    </g>
  </g>
</svg>
