<?xml version="1.0" encoding="UTF-8" standalone="no"?>
<!-- Created with Inkscape (http://www.inkscape.org/) -->

<svg
   version="1.1"
   id="svg2"
   width="69.85733"
   height="50.250645"
   viewBox="0 0 69.85733 50.250643"
   xmlns="http://www.w3.org/2000/svg"
   xmlns:svg="http://www.w3.org/2000/svg">
  <defs
     id="defs6" />
  <g
     id="g10"
     transform="matrix(1.3333333,0,0,-1.3333333,-16.719732,728.35995)">
    <g
       id="g12"
       transform="scale(0.1)">
      <path
         d="m 396.824,5186.49 h 9.653 v 11.98 h 3.539 v -11.98 h 1.461 v 11.98 h 3.539 v -11.98 h 1.379 v 11.98 h 3.55 v -11.98 h 6.532 v 11.98 h 3.539 v -11.98 h 1.461 v 11.98 h 3.539 v -11.98 h 1.379 v 11.98 h 3.55 v -11.98 h 6.539 v 11.98 h 3.532 v -11.98 h 1.468 v 11.98 h 3.532 v -11.98 h 1.39 v 11.98 h 3.539 v -11.98 h 6.539 v 11.98 h 3.532 v -11.98 h 1.468 v 11.98 h 3.532 v -11.98 h 1.39 v 11.98 h 3.539 v -11.98 h 6.539 v 11.98 h 3.532 v -11.98 h 1.468 v 11.98 h 3.532 v -11.98 h 1.39 v 11.98 h 3.539 v -11.98 h 6.539 v 11.98 h 3.543 v -11.98 h 1.457 v 11.98 h 3.543 v -11.98 h 1.379 v 11.98 h 3.551 v -11.98 h 7.52 c 0.441,9.71 1.269,20.72 2.058,29.95 H 396.824"
         style="fill:#ffffff;fill-opacity:1;fill-rule:nonzero;stroke:none"
         id="path1918" />
      <path
         d="m 559.23,5303.76 h 3.53906 v -12.5 H 559.23 Z m 4.918,0 h 3.54297 v -12.5 H 564.148 Z m 5.313,-64.86 h -3.53906 v 12.5 h 3.53906 z m 3.187,-69.13 h -3.53906 v 12.5 h 3.53906 z m -4.929,0 h -3.53906 v 12.5 h 3.53906 z m -5,0 h -3.53906 v 12.5 h 3.53906 z m -1.297,46.67 h -26.871 c -0.102,-1.19 -0.199,-2.38 -0.301,-3.63 -1.012,-12.18 -1.98,-26.62 -2.07,-36.79 h 0.07 c 0,0 -1.25,-18.75 21.25,-16.25 11.48,1.28 31.141,1.25 47.66,0.92 l -20.5,32.67 -9.07,114.89 h -15.391 -14.187 l -3.742,-41.52"
         style="fill:#ffffff;fill-opacity:1;fill-rule:nonzero;stroke:none"
         id="path1920" />
      <path
         d="m 292.434,5186.49 v 11.98 h 3.539 v -11.98 h 1.379 v 11.98 h 3.539 v -11.98 h 7.812 v 29.95 h -11.609 l -12.684,-29.95"
         style="fill:#ffffff;fill-opacity:1;fill-rule:nonzero;stroke:none"
         id="path1922" />
      <path
         d="m 308.699,5176.02 v 5.47 h -26.41 l -2.309,-5.47 z"
         style="fill:#ffffff;fill-opacity:1;fill-rule:nonzero;stroke:none"
         id="path1924" />
      <path
         d="m 313.711,5176.02 h 78.1172 v 5.4688 H 313.711 Z"
         style="fill:#ffffff;fill-opacity:1;fill-rule:nonzero;stroke:none"
         id="path1926" />
      <path
         d="M 527.285,5181.49 H 396.824 v -5.47 h 130.34 c 0.012,1.72 0.051,3.55 0.121,5.47"
         style="fill:#ffffff;fill-opacity:1;fill-rule:nonzero;stroke:none"
         id="path1928" />
      <path
         d="m 196.355,5186.49 v 11.98 h 3.543 v -11.98 h 1.457 v 11.98 h 3.543 v -11.98 h 1.379 v 11.98 h 3.551 v -11.98 h 6.539 v 11.98 h 3.531 v -11.98 h 1.469 v 11.98 h 3.531 v -11.98 h 1.387 v 11.98 h 3.543 v -11.98 h 6.539 v 11.98 h 3.531 v -11.98 h 1.469 v 11.98 h 3.531 v -11.98 h 1.387 v 11.98 h 3.543 v -11.98 h 6.539 v 11.98 h 3.531 v -11.98 h 1.469 v 11.98 h 3.539 v -11.98 h 1.379 v 11.98 h 3.551 v -11.98 h 9.152 l 12.668,29.95 h -94.051 l -4.988,-29.95"
         style="fill:#ffffff;fill-opacity:1;fill-rule:nonzero;stroke:none"
         id="path1930" />
      <path
         d="M 499.082,5316.34 H 363.98 l -1.007,-5.73 h 136.699 z"
         style="fill:#ffffff;fill-opacity:1;fill-rule:nonzero;stroke:none"
         id="path1932" />
      <path
         d="m 625.637,5093.32 -4.09,28.96 H 455.164 l -3.277,13.69 -8.813,8.81 h -39.16 l -9.73,-9.73 -3.34,-12.77 H 145.273 l -9.507,-28.96 h 276.429 v 17.03 c 0,3.81 3.102,6.9 6.91,6.9 3.801,0 6.891,-3.09 6.891,-6.9 v -17.03"
         style="fill:#ffffff;fill-opacity:1;fill-rule:nonzero;stroke:none"
         id="path1934" />
      <path
         d="m 313.699,5186.49 h 2.774 v 11.98 h 3.539 v -11.98 h 1.461 v 11.98 h 3.539 v -11.98 h 1.39 v 11.98 h 3.528 v -11.98 h 6.543 v 11.98 h 3.539 v -11.98 h 1.461 v 11.98 h 3.547 v -11.98 h 1.382 v 11.98 h 3.539 v -11.98 h 6.532 v 11.98 h 3.547 v -11.98 h 1.453 v 11.98 h 3.547 v -11.98 h 1.382 v 11.98 h 3.539 v -11.98 h 6.532 v 11.98 h 3.547 v -11.98 h 1.453 v 11.98 h 3.547 v -11.98 h 1.382 v 11.98 h 3.539 v -11.98 h 1.879 v 29.95 h -78.121"
         style="fill:#ffffff;fill-opacity:1;fill-rule:nonzero;stroke:none"
         id="path1936" />
      <path
         d="m 386.98,5127.27 1.5,5.72 c -26.117,-0.8 -184.867,-5.44 -240.589,-2.76 l -0.981,-2.96"
         style="fill:#ffffff;fill-opacity:1;fill-rule:nonzero;stroke:none"
         id="path1938" />
      <path
         d="m 373.984,5321.34 v 10.11 h 3.539 v -10.11 h 1.461 v 10.11 h 3.539 v -10.11 h 1.379 v 10.11 h 3.551 v -10.11 h 6.531 v 10.11 h 3.539 v -10.11 h 1.461 v 10.11 h 3.539 v -10.11 h 1.379 v 10.11 h 3.551 v -10.11 h 6.531 v 10.11 h 3.539 v -10.11 h 1.461 v 10.11 h 3.539 v -10.11 h 1.379 v 10.11 h 3.551 v -10.11 h 6.531 v 10.11 h 3.539 v -10.11 h 1.461 v 10.11 h 3.539 v -10.11 h 1.379 v 10.11 h 3.551 v -10.11 h 6.539 v 10.11 h 3.531 v -10.11 h 1.469 v 10.11 h 3.531 v -10.11 h 1.391 v 10.11 h 3.539 v -10.11 h 6.539 v 10.11 h 3.531 v -10.11 h 1.469 v 10.11 h 3.531 v -10.11 h 1.391 v 10.11 h 3.539 v -10.11 h 11.121 l -1.879,18.43 h -128.57 l -3.262,-18.43"
         style="fill:#ffffff;fill-opacity:1;fill-rule:nonzero;stroke:none"
         id="path1940" />
      <path
         d="m 457.617,5133.52 1.488,-6.25 h 161.731 l -0.891,6.25 z"
         style="fill:#ffffff;fill-opacity:1;fill-rule:nonzero;stroke:none"
         id="path1942" />
      <path
         d="m 253.172,5275.26 h -3.54297 v 12.5 h 3.54297 z m 1.469,12.5 h 3.53906 v -12.5 H 254.641 Z m 4.918,0 h 3.54297 v -12.5 H 259.559 Z m 22.441,-25.89 -3.629,29.4 c -10.461,-0.02 -22.461,0.32 -32.723,0.72 l -4.777,-29.33 c 12.219,-0.41 27.539,-0.8 41.129,-0.79"
         style="fill:#ffffff;fill-opacity:1;fill-rule:nonzero;stroke:none"
         id="path1944" />
      <path
         d="m 276.863,5181.49 h -85.078 l -0.922,-5.47 h 83.692 z"
         style="fill:#ffffff;fill-opacity:1;fill-rule:nonzero;stroke:none"
         id="path1946" />
      <path
         d="m 220.781,5234.67 h -3.54297 v 12.5 h 3.54297 z m 5,0 h -3.54297 v 12.5 h 3.54297 z m 4.918,0 h -3.53906 v 12.5 h 3.53906 z m 228.41,-107.4 -1.488,6.25 h 162.328 l 0.891,-6.25 z m -70.621,5.72 -1.508,-5.72 H 146.91 l 0.981,2.96 c 55.718,-2.68 214.468,1.96 240.597,2.76 m -196.699,48.5 h 85.082 l -2.32,-5.47 h -83.68 z m 49,53.18 h -3.53906 v 12.5 h 3.53906 z m 5,0 h -3.53906 v 12.5 h 3.53906 z m 4.922,0 h -3.53906 v 12.5 h 3.53906 z m 10.078,0 h -3.53906 v 12.5 h 3.53906 z m 5,0 h -3.53906 v 12.5 h 3.53906 z m 4.922,0 h -3.53906 v 12.5 h 3.53906 z m 10.078,0 h -3.53906 v 12.5 h 3.53906 z m 5,0 h -3.53906 v 12.5 h 3.53906 z m 240.012,0 h -3.53906 v 12.5 h 3.53906 z m 4.918,0 h -3.53906 v 12.5 h 3.53906 z m -133.891,-58.65 v 5.47 h 130.461 c -0.07,-1.92 -0.109,-3.74 -0.117,-5.47 z m -83.129,5.47 h 78.1211 v -5.4688 H 313.699 Z m -5,0 v -5.47 H 279.98 l 2.309,5.47 z m 0,34.95 v -29.95 h -7.808 v 11.98 h -3.539 v -11.98 h -1.383 v 11.98 h -3.539 v -11.98 h -8.02 l 12.68,29.95 z m 2.012,18.23 h -3.53906 v 12.5 h 3.53906 z m 10.078,0 h -3.53906 v 12.5 h 3.53906 z m 5,0 h -3.53906 v 12.5 h 3.53906 z m 4.922,0 h -3.53906 v 12.5 h 3.53906 z m 30.078,0 h -3.53906 v 12.5 h 3.53906 z m -13.609,12.5 h 3.53906 v -12.5 H 347.18 Z m -4.918,0 h 3.53906 v -12.5 H 342.262 Z m -5,0 h 3.53906 v -12.5 H 337.262 Z m 180.008,0 h 3.53906 v -12.5 H 517.27 Z m -10.079,0 h 3.53906 v -12.5 H 507.191 Z m -4.921,0 h 3.53906 v -12.5 H 502.27 Z m -5,0 h 3.53906 v -12.5 H 497.27 Z m -10.09,0 h 3.53906 v -12.5 H 487.18 Z m -4.918,0 h 3.53906 v -12.5 H 482.262 Z m -5,0 h 3.53906 v -12.5 H 477.262 Z m -10.082,0 h 3.53906 v -12.5 H 467.18 Z m -4.918,0 h 3.53906 v -12.5 H 462.262 Z m -5,0 h 3.53906 v -12.5 H 457.262 Z m -10.082,0 h 3.53906 v -12.5 H 447.18 Z m -4.918,0 h 3.53906 v -12.5 H 442.262 Z m -5,0 h 3.53906 v -12.5 H 437.262 Z m -10.082,0 h 3.53906 v -12.5 H 427.18 Z m -4.918,0 h 3.53906 v -12.5 H 422.262 Z m -5,0 h 3.53906 v -12.5 H 417.262 Z m -10.082,0 h 3.53906 v -12.5 H 407.18 Z m -4.918,0 h 3.53906 v -12.5 H 402.262 Z m -5,0 h 3.53906 v -12.5 H 397.262 Z m 132.269,-30.73 c -0.781,-9.23 -1.609,-20.24 -2.051,-29.95 h -7.531 v 11.98 h -3.539 v -11.98 h -1.379 v 11.98 h -3.551 v -11.98 h -1.449 v 11.98 h -3.551 v -11.98 h -6.539 v 11.98 h -3.531 v -11.98 h -1.39 v 11.98 h -3.54 v -11.98 h -1.46 v 11.98 h -3.54 v -11.98 h -6.539 v 11.98 h -3.531 v -11.98 h -1.39 v 11.98 h -3.54 v -11.98 h -1.46 v 11.98 h -3.54 v -11.98 h -6.539 v 11.98 h -3.531 v -11.98 h -1.39 v 11.98 h -3.54 v -11.98 h -1.46 v 11.98 h -3.54 v -11.98 h -6.539 v 11.98 h -3.543 v -11.98 h -1.378 v 11.98 h -3.551 v -11.98 h -1.449 v 11.98 h -3.551 v -11.98 h -6.528 v 11.98 h -3.543 v -11.98 h -1.378 v 11.98 h -3.551 v -11.98 h -1.449 v 11.98 h -3.551 v -11.98 h -9.641 v 29.95 z m -142.351,30.73 h 3.53906 v -12.5 H 387.18 Z m -4.918,0 h 3.53906 v -12.5 H 382.262 Z m -5,0 h 3.53906 v -12.5 H 377.262 Z m -10.082,0 h 3.53906 v -12.5 H 367.18 Z m -4.918,0 h 3.53906 v -12.5 H 362.262 Z m 29.566,-30.73 v -29.95 h -1.887 v 11.98 h -3.543 v -11.98 h -1.378 v 11.98 h -3.551 v -11.98 h -1.449 v 11.98 h -3.551 v -11.98 h -6.528 v 11.98 h -3.543 v -11.98 h -1.378 v 11.98 h -3.551 v -11.98 h -1.449 v 11.98 h -3.551 v -11.98 h -6.528 v 11.98 h -3.543 v -11.98 h -1.378 v 11.98 h -3.551 v -11.98 h -1.457 v 11.98 h -3.543 v -11.98 h -6.539 v 11.98 h -3.532 v -11.98 h -1.386 v 11.98 h -3.543 v -11.98 h -1.457 v 11.98 h -3.543 v -11.98 h -2.77 v 29.95 z m -89.578,19.76 v 10.97 h 3.539 v -12.5 h -0.988 l 0.168,0.38 z m -15.078,10.97 h 3.53906 v -12.5 H 287.172 Z m 10.078,-12.5 v 12.5 h 3.539 v -10.35 l -0.43,0.18 -0.988,-2.33 z m 258.949,73.58 h 15.391 l 9.07,-114.89 20.5,-32.67 c -16.519,0.33 -36.18,0.36 -47.66,-0.92 -22.5,-2.5 -21.25,16.25 -21.25,16.25 h -0.07 c 0.09,10.17 1.058,24.61 2.07,36.79 0.102,1.25 0.199,2.44 0.301,3.63 h 26.871 l -23.152,50.29 3.742,41.52 z m -192.219,8.09 h 135.098 l 0.594,-5.73 H 362.969 Z m 132.719,23.43 1.871,-18.43 h -11.121 v 10.1 h -3.527 v -10.1 h -1.391 v 10.1 h -3.543 v -10.1 h -1.457 v 10.1 h -3.543 v -10.1 h -6.539 v 10.1 h -3.527 v -10.1 h -1.391 v 10.1 h -3.543 v -10.1 h -1.457 v 10.1 h -3.543 v -10.1 h -6.539 v 10.1 h -3.539 v -10.1 h -1.379 v 10.1 h -3.551 v -10.1 h -1.449 v 10.1 h -3.551 v -10.1 h -6.531 v 10.1 h -3.539 v -10.1 h -1.379 v 10.1 h -3.551 v -10.1 h -1.449 v 10.1 h -3.551 v -10.1 h -6.531 v 10.1 h -3.539 v -10.1 h -1.379 v 10.1 h -3.551 v -10.1 h -1.449 v 10.1 h -3.551 v -10.1 h -6.531 v 10.1 h -3.539 v -10.1 h -1.379 v 10.1 h -3.551 v -10.1 h -1.449 v 10.1 h -3.551 v -10.1 h -9.121 l 3.27,18.43 z m -218.328,-48.5 3.629,-29.4 c -13.59,-0.01 -28.91,0.38 -41.129,0.79 l 4.777,29.33 c 10.262,-0.4 22.262,-0.74 32.723,-0.72 m 13.289,-74.83 -12.68,-29.95 h -9.152 v 11.98 h -3.539 v -11.98 h -1.379 v 11.98 h -3.539 v -11.98 h -1.473 v 11.98 h -3.527 v -11.98 h -6.551 v 11.98 h -3.531 v -11.98 h -1.391 v 11.98 h -3.527 v -11.98 h -1.473 v 11.98 h -3.527 v -11.98 h -6.551 v 11.98 h -3.531 v -11.98 h -1.391 v 11.98 h -3.527 v -11.98 h -1.473 v 11.98 h -3.527 v -11.98 h -6.551 v 11.98 h -3.539 v -11.98 h -1.383 v 11.98 h -3.539 v -11.98 h -1.461 v 11.98 h -3.539 v -11.98 h -3.738 l 4.988,29.95 z m 127.442,-99.2 c -3.813,0 -6.903,-3.08 -6.903,-6.89 v -17.03 H 135.762 l 9.508,28.95 h 245.57 l 3.351,12.78 9.731,9.72 h 39.156 l 8.801,-8.81 3.293,-13.69 h 166.367 l 4.09,-28.95 H 426 v 17.03 c 0,3.81 -3.102,6.89 -6.898,6.89 m 230.226,16.28 -19.379,26.25 c 0,0 -7.219,0.33 -17.429,0.64 l -5.29,4.72 -19.23,30.65 -8.891,112.47 h 4.813 c -19.024,24.5 -27.723,154.45 -27.723,154.45 0,0 -8.687,-129.95 -27.711,-154.45 h 5.992 l -2.511,-27.83 -13.891,30.19 h -10.867 l -2.973,29.16 h 19.684 l -26.672,35.42 -22.852,46.94 -2.609,18.69 -2.59,-18.55 h -5.051 l -2.589,18.55 -2.59,-18.55 h -5.047 l -2.594,18.55 -2.59,-18.55 h -5.047 l -2.589,18.55 -2.582,-18.55 h -5.059 l -2.59,18.55 -2.59,-18.55 h -5.051 l -2.589,18.55 -2.582,-18.55 H 413 l -2.59,18.55 -2.582,-18.55 h -5.058 l -2.579,18.55 -2.589,-18.55 h -5.063 l -2.59,18.55 -2.578,-18.55 h -0.121 l -29.578,-55 -22.922,-27.5 h 25.77 l -5.168,-29.16 h -8.93 l -7.094,-27.5 c 0,0 -12.906,-15.84 -27.078,-19.59 -3.801,-1 -12.328,-1.46 -22.699,-1.6 l -3.629,29.42 c 8.109,0.19 14.418,0.71 16.75,1.77 -5.844,8.33 -19.594,27.91 -19.594,27.91 l -20.629,71.25 c 0,0 -29.371,-85.83 -30.621,-86.25 -1.25,-0.41 -9.578,-12.91 -9.578,-12.91 0,0 6.539,-0.38 15.859,-0.8 l -4.8,-29.38 c -8.598,0.32 -14.387,0.59 -14.387,0.59 L 197.672,5234.36 171,5216.44 h 19.012 l -6.742,-40.42 h -16.442 c 0,0 -38.328,-34.58 -38.328,-42.91 0,-1.06 4.25,-1.84 11.648,-2.42 l -14.75,-44.87 h 5.18 503.692 l -6.739,47.7"
         style="fill:#231f20;fill-opacity:1;fill-rule:nonzero;stroke:none"
         id="path1948" />
      <path
         d="m 249.629,5275.26 h 3.54297 v 12.5 H 249.629 Z"
         style="fill:#231f20;fill-opacity:1;fill-rule:nonzero;stroke:none"
         id="path1950" />
      <path
         d="m 254.629,5275.26 h 3.54297 v 12.5 H 254.629 Z"
         style="fill:#231f20;fill-opacity:1;fill-rule:nonzero;stroke:none"
         id="path1952" />
      <path
         d="m 259.559,5275.26 h 3.54297 v 12.5 H 259.559 Z"
         style="fill:#231f20;fill-opacity:1;fill-rule:nonzero;stroke:none"
         id="path1954" />
      <path
         d="m 559.219,5291.26 h 3.54297 v 12.5 H 559.219 Z"
         style="fill:#231f20;fill-opacity:1;fill-rule:nonzero;stroke:none"
         id="path1956" />
      <path
         d="m 564.148,5291.26 h 3.54297 v 12.5 H 564.148 Z"
         style="fill:#231f20;fill-opacity:1;fill-rule:nonzero;stroke:none"
         id="path1958" />
      <path
         d="m 217.25,5234.67 h 3.53906 v 12.5 H 217.25 Z"
         style="fill:#ffffff;fill-opacity:1;fill-rule:nonzero;stroke:none"
         id="path1960" />
      <path
         d="m 222.25,5234.67 h 3.53906 v 12.5 H 222.25 Z"
         style="fill:#ffffff;fill-opacity:1;fill-rule:nonzero;stroke:none"
         id="path1962" />
      <path
         d="m 227.172,5234.67 h 3.53906 v 12.5 H 227.172 Z"
         style="fill:#ffffff;fill-opacity:1;fill-rule:nonzero;stroke:none"
         id="path1964" />
      <path
         d="m 237.25,5234.67 h 3.53906 v 12.5 H 237.25 Z"
         style="fill:#ffffff;fill-opacity:1;fill-rule:nonzero;stroke:none"
         id="path1966" />
      <path
         d="m 242.25,5234.67 h 3.53906 v 12.5 H 242.25 Z"
         style="fill:#ffffff;fill-opacity:1;fill-rule:nonzero;stroke:none"
         id="path1968" />
      <path
         d="m 247.172,5234.67 h 3.53906 v 12.5 H 247.172 Z"
         style="fill:#ffffff;fill-opacity:1;fill-rule:nonzero;stroke:none"
         id="path1970" />
      <path
         d="m 257.25,5234.67 h 3.53906 v 12.5 H 257.25 Z"
         style="fill:#ffffff;fill-opacity:1;fill-rule:nonzero;stroke:none"
         id="path1972" />
      <path
         d="m 262.25,5234.67 h 3.53906 v 12.5 H 262.25 Z"
         style="fill:#ffffff;fill-opacity:1;fill-rule:nonzero;stroke:none"
         id="path1974" />
      <path
         d="m 267.172,5234.67 h 3.53906 v 12.5 H 267.172 Z"
         style="fill:#ffffff;fill-opacity:1;fill-rule:nonzero;stroke:none"
         id="path1976" />
      <path
         d="m 277.25,5234.67 h 3.53906 v 12.5 H 277.25 Z"
         style="fill:#ffffff;fill-opacity:1;fill-rule:nonzero;stroke:none"
         id="path1978" />
      <path
         d="m 282.25,5234.67 h 3.53906 v 12.5 H 282.25 Z"
         style="fill:#ffffff;fill-opacity:1;fill-rule:nonzero;stroke:none"
         id="path1980" />
      <path
         d="m 287.172,5234.67 h 3.53906 v 12.5 H 287.172 Z"
         style="fill:#ffffff;fill-opacity:1;fill-rule:nonzero;stroke:none"
         id="path1982" />
      <path
         d="m 300.789,5236.82 v 10.36 h -3.539 v -12.5 h 2.121 l 0.988,2.32"
         style="fill:#ffffff;fill-opacity:1;fill-rule:nonzero;stroke:none"
         id="path1984" />
      <path
         d="m 305.789,5234.68 v 12.5 h -3.539 v -10.98 l 2.723,-1.16 -0.172,-0.36"
         style="fill:#ffffff;fill-opacity:1;fill-rule:nonzero;stroke:none"
         id="path1986" />
      <path
         d="m 307.172,5234.67 h 3.53906 v 12.5 H 307.172 Z"
         style="fill:#ffffff;fill-opacity:1;fill-rule:nonzero;stroke:none"
         id="path1988" />
      <path
         d="m 317.25,5234.67 h 3.53906 v 12.5 H 317.25 Z"
         style="fill:#ffffff;fill-opacity:1;fill-rule:nonzero;stroke:none"
         id="path1990" />
      <path
         d="m 322.25,5234.67 h 3.53906 v 12.5 H 322.25 Z"
         style="fill:#ffffff;fill-opacity:1;fill-rule:nonzero;stroke:none"
         id="path1992" />
      <path
         d="m 327.172,5234.67 h 3.53906 v 12.5 H 327.172 Z"
         style="fill:#ffffff;fill-opacity:1;fill-rule:nonzero;stroke:none"
         id="path1994" />
      <path
         d="m 337.262,5234.67 h 3.53906 v 12.5 H 337.262 Z"
         style="fill:#ffffff;fill-opacity:1;fill-rule:nonzero;stroke:none"
         id="path1996" />
      <path
         d="m 342.262,5234.67 h 3.53906 v 12.5 H 342.262 Z"
         style="fill:#ffffff;fill-opacity:1;fill-rule:nonzero;stroke:none"
         id="path1998" />
      <path
         d="m 347.18,5234.67 h 3.53906 v 12.5 H 347.18 Z"
         style="fill:#ffffff;fill-opacity:1;fill-rule:nonzero;stroke:none"
         id="path2000" />
      <path
         d="m 357.262,5234.67 h 3.53906 v 12.5 H 357.262 Z"
         style="fill:#ffffff;fill-opacity:1;fill-rule:nonzero;stroke:none"
         id="path2002" />
      <path
         d="m 362.262,5234.67 h 3.53906 v 12.5 H 362.262 Z"
         style="fill:#ffffff;fill-opacity:1;fill-rule:nonzero;stroke:none"
         id="path2004" />
      <path
         d="m 367.18,5234.67 h 3.53906 v 12.5 H 367.18 Z"
         style="fill:#ffffff;fill-opacity:1;fill-rule:nonzero;stroke:none"
         id="path2006" />
      <path
         d="m 377.262,5234.67 h 3.53906 v 12.5 H 377.262 Z"
         style="fill:#ffffff;fill-opacity:1;fill-rule:nonzero;stroke:none"
         id="path2008" />
      <path
         d="m 382.262,5234.67 h 3.53906 v 12.5 H 382.262 Z"
         style="fill:#ffffff;fill-opacity:1;fill-rule:nonzero;stroke:none"
         id="path2010" />
      <path
         d="m 387.18,5234.67 h 3.53906 v 12.5 H 387.18 Z"
         style="fill:#ffffff;fill-opacity:1;fill-rule:nonzero;stroke:none"
         id="path2012" />
      <path
         d="m 397.262,5234.67 h 3.53906 v 12.5 H 397.262 Z"
         style="fill:#ffffff;fill-opacity:1;fill-rule:nonzero;stroke:none"
         id="path2014" />
      <path
         d="m 402.262,5234.67 h 3.53906 v 12.5 H 402.262 Z"
         style="fill:#ffffff;fill-opacity:1;fill-rule:nonzero;stroke:none"
         id="path2016" />
      <path
         d="m 407.18,5234.67 h 3.53906 v 12.5 H 407.18 Z"
         style="fill:#ffffff;fill-opacity:1;fill-rule:nonzero;stroke:none"
         id="path2018" />
      <path
         d="m 417.262,5234.67 h 3.53906 v 12.5 H 417.262 Z"
         style="fill:#ffffff;fill-opacity:1;fill-rule:nonzero;stroke:none"
         id="path2020" />
      <path
         d="m 422.262,5234.67 h 3.53906 v 12.5 H 422.262 Z"
         style="fill:#ffffff;fill-opacity:1;fill-rule:nonzero;stroke:none"
         id="path2022" />
      <path
         d="m 427.18,5234.67 h 3.53906 v 12.5 H 427.18 Z"
         style="fill:#ffffff;fill-opacity:1;fill-rule:nonzero;stroke:none"
         id="path2024" />
      <path
         d="m 437.262,5234.67 h 3.53906 v 12.5 H 437.262 Z"
         style="fill:#ffffff;fill-opacity:1;fill-rule:nonzero;stroke:none"
         id="path2026" />
      <path
         d="m 442.262,5234.67 h 3.53906 v 12.5 H 442.262 Z"
         style="fill:#ffffff;fill-opacity:1;fill-rule:nonzero;stroke:none"
         id="path2028" />
      <path
         d="m 447.18,5234.67 h 3.53906 v 12.5 H 447.18 Z"
         style="fill:#ffffff;fill-opacity:1;fill-rule:nonzero;stroke:none"
         id="path2030" />
      <path
         d="m 457.262,5234.67 h 3.53906 v 12.5 H 457.262 Z"
         style="fill:#ffffff;fill-opacity:1;fill-rule:nonzero;stroke:none"
         id="path2032" />
      <path
         d="m 462.262,5234.67 h 3.53906 v 12.5 H 462.262 Z"
         style="fill:#ffffff;fill-opacity:1;fill-rule:nonzero;stroke:none"
         id="path2034" />
      <path
         d="m 467.18,5234.67 h 3.53906 v 12.5 H 467.18 Z"
         style="fill:#ffffff;fill-opacity:1;fill-rule:nonzero;stroke:none"
         id="path2036" />
      <path
         d="m 477.262,5234.67 h 3.53906 v 12.5 H 477.262 Z"
         style="fill:#ffffff;fill-opacity:1;fill-rule:nonzero;stroke:none"
         id="path2038" />
      <path
         d="m 482.262,5234.67 h 3.53906 v 12.5 H 482.262 Z"
         style="fill:#ffffff;fill-opacity:1;fill-rule:nonzero;stroke:none"
         id="path2040" />
      <path
         d="m 487.18,5234.67 h 3.53906 v 12.5 H 487.18 Z"
         style="fill:#ffffff;fill-opacity:1;fill-rule:nonzero;stroke:none"
         id="path2042" />
      <path
         d="m 497.27,5234.67 h 3.53906 v 12.5 H 497.27 Z"
         style="fill:#ffffff;fill-opacity:1;fill-rule:nonzero;stroke:none"
         id="path2044" />
      <path
         d="m 502.27,5234.67 h 3.53906 v 12.5 H 502.27 Z"
         style="fill:#ffffff;fill-opacity:1;fill-rule:nonzero;stroke:none"
         id="path2046" />
      <path
         d="m 507.191,5234.67 h 3.53906 v 12.5 H 507.191 Z"
         style="fill:#ffffff;fill-opacity:1;fill-rule:nonzero;stroke:none"
         id="path2048" />
      <path
         d="m 517.27,5234.67 h 3.53906 v 12.5 H 517.27 Z"
         style="fill:#ffffff;fill-opacity:1;fill-rule:nonzero;stroke:none"
         id="path2050" />
      <path
         d="m 522.27,5234.67 h 3.53906 v 12.5 H 522.27 Z"
         style="fill:#ffffff;fill-opacity:1;fill-rule:nonzero;stroke:none"
         id="path2052" />
      <path
         d="m 527.191,5234.67 h 3.53906 v 12.5 H 527.191 Z"
         style="fill:#ffffff;fill-opacity:1;fill-rule:nonzero;stroke:none"
         id="path2054" />
      <path
         d="m 565.922,5238.9 h 3.53906 v 12.5 H 565.922 Z"
         style="fill:#231f20;fill-opacity:1;fill-rule:nonzero;stroke:none"
         id="path2056" />
      <path
         d="m 559.191,5169.77 h 3.53906 v 12.5 H 559.191 Z"
         style="fill:#231f20;fill-opacity:1;fill-rule:nonzero;stroke:none"
         id="path2058" />
      <path
         d="m 564.191,5169.77 h 3.53906 v 12.5 H 564.191 Z"
         style="fill:#231f20;fill-opacity:1;fill-rule:nonzero;stroke:none"
         id="path2060" />
      <path
         d="m 569.109,5169.77 h 3.53906 v 12.5 H 569.109 Z"
         style="fill:#231f20;fill-opacity:1;fill-rule:nonzero;stroke:none"
         id="path2062" />
    </g>
  </g>
</svg>
