<?xml version="1.0" encoding="UTF-8" standalone="no"?>
<!-- Created with Inkscape (http://www.inkscape.org/) -->

<svg
   version="1.1"
   id="svg2"
   width="64.082642"
   height="39.609314"
   viewBox="0 0 64.082641 39.609312"
   xmlns="http://www.w3.org/2000/svg"
   xmlns:svg="http://www.w3.org/2000/svg">
  <defs
     id="defs6" />
  <g
     id="g10"
     transform="matrix(1.3333333,0,0,-1.3333333,-644.24134,717.71865)">
    <g
       id="g12"
       transform="scale(0.1)">
      <path
         d="m 4970.97,5153.38 h 3.5391 v -12.5 h -3.5391 z m 11.11,37.02 h 3.5352 v -12.5 h -3.5352 z m 5,0 h 3.5352 v -12.5 h -3.5352 z m 4.18,-38.27 h -3.5469 v 12.5 h 3.5469 z m 0.74,38.27 h 3.5391 v -12.5 H 4992 Z m 10.08,-37.02 h 3.5352 v -12.5 h -3.5352 z m 0,37.02 h 3.5352 v -12.5 h -3.5352 z m 5,0 h 3.5352 v -12.5 h -3.5352 z m 4.92,0 h 3.5391 v -12.5 H 5012 Z m 30.08,0 h 3.5352 v -12.5 h -3.5352 z m 5,0 h 3.5352 v -12.5 h -3.5352 z m 4.92,0 h 3.5391 v -12.5 H 5052 Z m 10.08,0 h 3.5352 v -12.5 h -3.5352 z m 5,0 h 3.5352 v -12.5 h -3.5352 z m 4.92,0 h 3.5391 v -12.5 H 5072 Z m 10.09,0 h 3.5391 v -12.5 h -3.5391 z m 5,0 h 3.5391 v -12.5 h -3.5391 z m 4.92,0 h 3.5352 v -12.5 h -3.5352 z m 30.08,0 h 3.5391 v -12.5 h -3.5391 z m 5,0 h 3.5391 v -12.5 h -3.5391 z m 4.92,0 h 3.5352 v -12.5 h -3.5352 z m 10.08,0 h 3.5391 v -12.5 h -3.5391 z m 5,-25.77 h 3.5391 v -12.5 h -3.5391 z m 0,25.77 h 3.5391 v -12.5 h -3.5391 z m 4.92,0 h 3.5352 v -12.5 h -3.5352 z m 10.21,-40.1 h 3.5391 v -12.5 h -3.5391 z m -143.13,-21.86 v 2.43 h -14.63 l 22.35,22.34 2.88,12.26 h -0.03 l 2.79,20.42 2.29,-16.74 h 37.38 37.38 l 2.29,16.74 2.78,-20.42 h -0.03 l 2.89,-12.26 22.35,-22.34 h -14.64 v -2.43 h 52.84 v 69.46 h -9.58 -3.75 v 3.75 7.5 h -95.83 -95.84 v -11.25 h -3.75 -9.58 v -69.46"
         style="fill:#ffffff;fill-opacity:1;fill-rule:nonzero;stroke:none"
         id="path3340" />
      <path
         d="m 5277.84,5190.4 h -16.04 v -16.17 h 10.98 v 11.67 h 3.54 v -11.67 h 1.38 v 11.67 h 3.54 v -11.67 h 12.64 v 16.17"
         style="fill:#ffffff;fill-opacity:1;fill-rule:nonzero;stroke:none"
         id="path3342" />
      <path
         d="m 4841.81,5150.75 h 49.1602 v 18.4688 H 4841.81 Z"
         style="fill:#ffffff;fill-opacity:1;fill-rule:nonzero;stroke:none"
         id="path3344" />
      <path
         d="m 5253.26,5150.76 h 49.168 v 18.4688 h -49.168 z"
         style="fill:#ffffff;fill-opacity:1;fill-rule:nonzero;stroke:none"
         id="path3346" />
      <path
         d="m 4861.72,5174.23 v 11.66 h 3.54 v -11.66 h 1.38 v 11.66 h 3.55 v -11.66 h 12.24 v 16.16 h -16.04 -16.05 v -16.16"
         style="fill:#ffffff;fill-opacity:1;fill-rule:nonzero;stroke:none"
         id="path3348" />
      <path
         d="m 5106.1,5099.55 h -3.543 v 12.5 h 3.543 z m -4.92,0 h -3.5391 v 12.5 h 3.5391 z m -5,0 h -3.5391 v 12.5 h 3.5391 z m -43.12,0 h -3.5391 v 12.5 h 3.5391 z m -4.93,0 h -3.5391 v 12.5 h 3.5391 z m -5,0 h -3.5391 v 12.5 h 3.5391 z m 250.44,-6.23 v 2.62 h 0.32 v 49.82 h -32.08 v -24.82 h -144.17 v 3.75 6.18 h -45.52 -45.53 v -9.93 h -144.16 v 24.82 h -32.09 v -49.82 h 0.31 v -2.62 h 109 63.19 42.37 v 17.03 c 0,3.81 3.1,6.89 6.91,6.89 3.8,0 6.89,-3.08 6.89,-6.89 v -17.03 h 42.38 56.59"
         style="fill:#ffffff;fill-opacity:1;fill-rule:nonzero;stroke:none"
         id="path3350" />
      <path
         d="m 5281.24,5174.23 v 11.66 h -3.54 v -11.66 h -1.38 v 11.66 h -3.54 v -11.66 h -10.97 v 16.16 h 16.03 16.05 v -16.16 z m 21.19,-23.48 h -49.168 v 18.4688 h 49.168 z m -333.2,47.14 h 3.75 v 11.25 h 191.67 v -7.5 -3.75 h 3.75 9.58 v -69.44 h -52.84 v 2.41 h 14.64 l -22.35,22.34 -2.89,12.28 h 0.03 l -2.78,20.41 -2.29,-16.75 h -37.38 -37.38 l -2.29,16.75 -2.79,-20.41 h 0.03 l -2.88,-12.28 -22.35,-22.34 h 14.63 v -2.41 h -59.44 v 69.44 z m -102.84,-7.5 h 16.04 v -16.16 h -12.24 v 11.66 h -3.55 v -11.66 h -1.38 v 11.66 h -3.54 v -11.66 h -11.38 v 16.16 z m -24.58,-21.16 h 49.1602 v -18.4727 H 4841.81 Z m 279.58,-75.91 h -42.38 v 17.02 c 0,3.82 -3.09,6.91 -6.89,6.91 -3.81,0 -6.91,-3.09 -6.91,-6.91 v -17.02 h -42.37 -63.19 -109 v 2.63 h -0.31 v 49.8 h 32.09 v -24.8 h 144.16 v 9.91 h 45.53 45.52 v -6.16 -3.75 h 144.17 v 24.8 h 32.08 v -49.8 h -0.32 v -2.63 h -115.59 z m 180,97.29 11.04,11.46 c 0,0 -21.04,-1.73 -34.59,180.82 -13.53,-182.55 -34.58,-180.82 -34.58,-180.82 l 11.05,-11.46 v -13.84 h -4.8 -3.75 v -34.57 h 8.55 v -13.75 h -68.83 v 76.94 h -13.33 v 4.81 c 11.65,5.12 57.84,28.55 -5.83,53.94 -72.09,28.75 -74.17,17.93 -97.5,102.93 -23.34,-85 -25.42,-74.18 -97.5,-102.93 -63.68,-25.39 -17.49,-48.82 -5.84,-53.94 v -4.81 h -9.58 -3.75 v -76.94 h -62.22 v 13.75 h 4.79 3.75 v 34.57 h -8.54 v 13.86 l 11.04,11.44 c 0,0 -21.04,-1.73 -34.58,180.82 -13.55,-182.55 -34.58,-180.82 -34.58,-180.82 l 11.03,-11.44 v -13.86 h -4.78 -3.75 v -34.57 h 8.53 v -53.75 h 0.31 v -2.63 h 109 70.69 49.28 49.27 64.09 115.59 v 2.63 h 0.32 v 53.75 h 4.79 3.75 v 34.57 h -8.54"
         style="fill:#231f20;fill-opacity:1;fill-rule:nonzero;stroke:none"
         id="path3352" />
      <path
         d="m 5002.08,5140.88 h 3.5352 v 12.5 h -3.5352 z"
         style="fill:#231f20;fill-opacity:1;fill-rule:nonzero;stroke:none"
         id="path3354" />
      <path
         d="m 5142.09,5177.9 h 3.5391 v 12.5 h -3.5391 z"
         style="fill:#231f20;fill-opacity:1;fill-rule:nonzero;stroke:none"
         id="path3356" />
      <path
         d="m 5147.09,5177.9 h 3.5391 v 12.5 h -3.5391 z"
         style="fill:#231f20;fill-opacity:1;fill-rule:nonzero;stroke:none"
         id="path3358" />
      <path
         d="m 5152.02,5177.9 h 3.543 v 12.5 h -3.543 z"
         style="fill:#231f20;fill-opacity:1;fill-rule:nonzero;stroke:none"
         id="path3360" />
      <path
         d="m 5122.08,5177.9 h 3.5352 v 12.5 h -3.5352 z"
         style="fill:#231f20;fill-opacity:1;fill-rule:nonzero;stroke:none"
         id="path3362" />
      <path
         d="m 5127.09,5177.9 h 3.5391 v 12.5 h -3.5391 z"
         style="fill:#231f20;fill-opacity:1;fill-rule:nonzero;stroke:none"
         id="path3364" />
      <path
         d="m 5132.02,5177.9 h 3.543 v 12.5 h -3.543 z"
         style="fill:#231f20;fill-opacity:1;fill-rule:nonzero;stroke:none"
         id="path3366" />
      <path
         d="m 5082.08,5177.9 h 3.5352 v 12.5 h -3.5352 z"
         style="fill:#231f20;fill-opacity:1;fill-rule:nonzero;stroke:none"
         id="path3368" />
      <path
         d="m 5087.08,5177.9 h 3.5352 v 12.5 h -3.5352 z"
         style="fill:#231f20;fill-opacity:1;fill-rule:nonzero;stroke:none"
         id="path3370" />
      <path
         d="m 5092.01,5177.9 h 3.5352 v 12.5 h -3.5352 z"
         style="fill:#231f20;fill-opacity:1;fill-rule:nonzero;stroke:none"
         id="path3372" />
      <path
         d="m 5062.08,5177.9 h 3.5352 v 12.5 h -3.5352 z"
         style="fill:#231f20;fill-opacity:1;fill-rule:nonzero;stroke:none"
         id="path3374" />
      <path
         d="m 5067.08,5177.9 h 3.5352 v 12.5 h -3.5352 z"
         style="fill:#231f20;fill-opacity:1;fill-rule:nonzero;stroke:none"
         id="path3376" />
      <path
         d="m 5072.01,5177.9 h 3.5352 v 12.5 h -3.5352 z"
         style="fill:#231f20;fill-opacity:1;fill-rule:nonzero;stroke:none"
         id="path3378" />
      <path
         d="m 5042.08,5177.9 h 3.5352 v 12.5 h -3.5352 z"
         style="fill:#231f20;fill-opacity:1;fill-rule:nonzero;stroke:none"
         id="path3380" />
      <path
         d="m 5047.08,5177.9 h 3.5352 v 12.5 h -3.5352 z"
         style="fill:#231f20;fill-opacity:1;fill-rule:nonzero;stroke:none"
         id="path3382" />
      <path
         d="m 5052.01,5177.9 h 3.5352 v 12.5 h -3.5352 z"
         style="fill:#231f20;fill-opacity:1;fill-rule:nonzero;stroke:none"
         id="path3384" />
      <path
         d="m 5002.08,5177.9 h 3.5352 v 12.5 h -3.5352 z"
         style="fill:#231f20;fill-opacity:1;fill-rule:nonzero;stroke:none"
         id="path3386" />
      <path
         d="m 5007.08,5177.9 h 3.5352 v 12.5 h -3.5352 z"
         style="fill:#231f20;fill-opacity:1;fill-rule:nonzero;stroke:none"
         id="path3388" />
      <path
         d="m 5012.01,5177.9 h 3.5352 v 12.5 h -3.5352 z"
         style="fill:#231f20;fill-opacity:1;fill-rule:nonzero;stroke:none"
         id="path3390" />
      <path
         d="m 4982.08,5177.9 h 3.5352 v 12.5 h -3.5352 z"
         style="fill:#231f20;fill-opacity:1;fill-rule:nonzero;stroke:none"
         id="path3392" />
      <path
         d="m 4987.08,5177.9 h 3.5352 v 12.5 h -3.5352 z"
         style="fill:#231f20;fill-opacity:1;fill-rule:nonzero;stroke:none"
         id="path3394" />
      <path
         d="m 4992.01,5177.9 h 3.5352 v 12.5 h -3.5352 z"
         style="fill:#231f20;fill-opacity:1;fill-rule:nonzero;stroke:none"
         id="path3396" />
      <path
         d="m 4987.71,5152.13 h 3.5391 v 12.5 h -3.5391 z"
         style="fill:#231f20;fill-opacity:1;fill-rule:nonzero;stroke:none"
         id="path3398" />
      <path
         d="m 5039.59,5099.55 h 3.5391 v 12.5 h -3.5391 z"
         style="fill:#231f20;fill-opacity:1;fill-rule:nonzero;stroke:none"
         id="path3400" />
      <path
         d="m 5044.59,5099.55 h 3.5391 v 12.5 h -3.5391 z"
         style="fill:#231f20;fill-opacity:1;fill-rule:nonzero;stroke:none"
         id="path3402" />
      <path
         d="m 5049.51,5099.55 h 3.5352 v 12.5 h -3.5352 z"
         style="fill:#231f20;fill-opacity:1;fill-rule:nonzero;stroke:none"
         id="path3404" />
      <path
         d="m 5162.22,5137.8 h 3.543 v 12.5 h -3.543 z"
         style="fill:#231f20;fill-opacity:1;fill-rule:nonzero;stroke:none"
         id="path3406" />
      <path
         d="m 5092.64,5099.55 h 3.5391 v 12.5 h -3.5391 z"
         style="fill:#231f20;fill-opacity:1;fill-rule:nonzero;stroke:none"
         id="path3408" />
      <path
         d="m 5097.64,5099.55 h 3.5391 v 12.5 h -3.5391 z"
         style="fill:#231f20;fill-opacity:1;fill-rule:nonzero;stroke:none"
         id="path3410" />
      <path
         d="m 5102.56,5099.55 h 3.543 v 12.5 h -3.543 z"
         style="fill:#231f20;fill-opacity:1;fill-rule:nonzero;stroke:none"
         id="path3412" />
      <path
         d="m 5147.09,5152.13 h 3.5391 v 12.5 h -3.5391 z"
         style="fill:#231f20;fill-opacity:1;fill-rule:nonzero;stroke:none"
         id="path3414" />
      <path
         d="m 4970.97,5140.88 h 3.543 v 12.5 h -3.543 z"
         style="fill:#231f20;fill-opacity:1;fill-rule:nonzero;stroke:none"
         id="path3416" />
    </g>
  </g>
</svg>
