<?xml version="1.0" encoding="UTF-8" standalone="no"?>
<!-- Created with Inkscape (http://www.inkscape.org/) -->

<svg
   version="1.1"
   id="svg2"
   width="42.839996"
   height="43.708008"
   viewBox="0 0 42.839996 43.708006"
   xmlns="http://www.w3.org/2000/svg"
   xmlns:svg="http://www.w3.org/2000/svg">
  <defs
     id="defs6" />
  <g
     id="g10"
     transform="matrix(1.3333333,0,0,-1.3333333,-468.90665,599.43596)">
    <g
       id="g12"
       transform="scale(0.1)">
      <path
         d="m 3719.84,4193.43 h 3.5391 v -12.5 h -3.5391 z m -1.38,-12.5 h -3.5391 v 12.5 h 3.5391 z m -5,0 h -3.5391 v 12.5 h 3.5391 z m 16.64,0.59 c -0.01,9.67 -1.71,16.02 -2.87,19.25 h -71.57 c -0.23,-0.89 -0.46,-1.81 -0.72,-2.86 -1.17,-5.03 -2.34,-11.81 -2.34,-18.62 0,-1.29 0.15,-2.55 0.24,-3.83 h 76.94 c 0.14,2.08 0.32,4.22 0.32,6.06"
         style="fill:#ffffff;fill-opacity:1;fill-rule:nonzero;stroke:none"
         id="path4050" />
      <path
         d="m 3611.69,4264.29 h 3.5391 v -12.5 h -3.5391 z m 8.54,77.99 h 3.5391 v -12.5 h -3.5391 z m 5,0 h 3.5391 v -12.5 h -3.5391 z m 4.93,0 h 3.5391 v -12.5 h -3.5391 z m 11.47,-105.89 h 3.5391 v -12.5 h -3.5391 z m 4.92,0 h 3.5391 v -12.5 h -3.5391 z m 12.84,50.2 h 3.5391 v -12.5 h -3.5391 z m 5,0 h 3.5391 v -12.5 h -3.5391 z m 4.93,0 h 3.5391 v -12.5 h -3.5391 z m -72.52,-43.63 c 0,0 0.62,-17.5 6.56,-20.63 5.94,-3.12 16.87,-7.19 16.87,-7.19 v -3.12 l -13.37,-0.36 6.68,-36.2 h 4.43 v 19.83 c 0,3.81 3.08,6.9 6.89,6.9 3.81,0 6.9,-3.09 6.9,-6.9 v -19.83 h 16.08 c -0.08,1.28 -0.24,2.56 -0.24,3.83 0.01,8.25 1.55,16.08 2.91,21.48 h -12.46 c 0,0 16.56,13.12 17.5,15.31 0.93,2.19 5.62,30.94 5.62,30.94 h 0.1 l 2.41,17.71 2.41,-17.71 h 21.98 c -2.31,9.08 -5.71,22.73 -9.22,37.99 -5.56,24.17 -11.29,51.74 -13.11,70.45 h -20.51 c 0,0 -5.93,-5 -15.31,-6.57 -2.7,-0.45 -8.4,-0.32 -15.1,0.08 l -7.25,-56.93 -0.69,-0.83 c 0,-0.01 -0.9,-1.12 -2.42,-3.07 -1.51,-1.95 -3.61,-4.73 -5.94,-7.99 -4.66,-6.53 -10.24,-15.05 -13.85,-22.7 -1.25,-2.62 -2.24,-5.14 -2.9,-7.39"
         style="fill:#ffffff;fill-opacity:1;fill-rule:nonzero;stroke:none"
         id="path4052" />
      <path
         d="m 3779.62,4175.46 h 46.5 l -17.6,36.25 h -30.06 c 0.98,-9.94 1.73,-19.84 1.73,-27.35 0,-3.31 -0.14,-6.17 -0.49,-8.47"
         style="fill:#ffffff;fill-opacity:1;fill-rule:nonzero;stroke:none"
         id="path4054" />
      <path
         d="m 3744.61,4301.04 h 3.5391 v -12.5 h -3.5391 z m 5,0 h 3.5391 v -12.5 h -3.5391 z m 4.92,0 h 3.5391 v -12.5 h -3.5391 z m 0.39,-66.52 h -3.5469 v 12.5 h 3.5469 z m -25.62,-25.31 c 5.93,-2.19 15.31,-8.44 15.31,-8.44 h -12.13 c 1.24,-3.99 2.62,-10.33 2.62,-19.25 0,-1.85 -0.19,-4 -0.32,-6.06 h 39.7 l 0.28,1.18 c 0.29,1.89 0.43,4.55 0.43,7.72 0.01,10.51 -1.54,26.33 -3.15,40.03 -1.65,11.63 -4.33,30.82 -5.24,39.05 -0.19,1.79 -0.31,2.95 -0.32,3.89 0.01,0.06 -0.1,1.46 -0.34,3.22 -0.23,1.81 -0.57,4.21 -0.98,6.97 -0.81,5.5 -1.91,12.47 -3,19.3 -1.32,8.22 -2.63,16.17 -3.46,21.26 -5.13,-1.89 -9.89,-5.51 -11.59,-7 -0.84,-0.73 -5.81,-0.97 -12,-0.97 -1,-13.77 -3.22,-35.05 -8.11,-51.32 -2.7,-8.74 -5.96,-16.17 -11.27,-20.61 l -0.33,-0.25 c 3.67,-10.71 9.9,-27.25 13.9,-28.72"
         style="fill:#ffffff;fill-opacity:1;fill-rule:nonzero;stroke:none"
         id="path4056" />
      <path
         d="m 3551.15,4194.6 h 3.543 v -12.5 h -3.543 z m 5,0 h 3.543 v -12.5 h -3.543 z m 4.92,0 h 3.5391 v -12.5 h -3.5391 z m 47.39,-19.14 -6.66,36.05 -52.45,-1.42 -0.03,-0.06 c -2,-5.46 -4.08,-16.01 -5.12,-34.57"
         style="fill:#ffffff;fill-opacity:1;fill-rule:nonzero;stroke:none"
         id="path4058" />
      <path
         d="m 3549.35,4210.09 52.45,1.43 6.66,-36.06 h -64.26 c 1.05,18.57 3.12,29.11 5.12,34.57 z m 103.5,-34.63 c -0.09,1.28 -0.25,2.54 -0.25,3.83 0,6.82 1.17,13.59 2.35,18.62 0.25,1.05 0.48,1.97 0.72,2.86 h 71.56 c 1.16,-3.23 2.86,-9.58 2.87,-19.24 0,-1.85 -0.17,-3.99 -0.32,-6.07 z m 125.61,36.25 h 30.06 l 17.61,-36.25 h -46.51 l 0.08,0.43 c 0.35,2.31 0.49,5.16 0.49,8.47 0,7.51 -0.74,17.41 -1.73,27.35 m -51.45,47.08 c 4.88,16.28 7.11,37.55 8.1,51.32 6.19,0 11.16,0.24 12,0.97 1.69,1.49 6.46,5.11 11.6,7 0.83,-5.08 2.13,-13.04 3.45,-21.26 1.1,-6.83 2.19,-13.8 3,-19.3 0.41,-2.76 0.75,-5.15 0.98,-6.97 0.24,-1.76 0.36,-3.16 0.34,-3.22 0.02,-0.94 0.14,-2.1 0.32,-3.89 0.91,-8.23 3.59,-27.42 5.25,-39.05 1.61,-13.69 3.15,-29.51 3.14,-40.03 0,-3.17 -0.14,-5.83 -0.43,-7.72 l -0.28,-1.18 h -39.7 c 0.14,2.06 0.32,4.21 0.32,6.07 0,8.91 -1.39,15.25 -2.62,19.24 h 12.13 c 0,0 -9.38,6.25 -15.31,8.44 -4,1.47 -10.23,18.01 -13.91,28.72 l 0.34,0.25 c 5.32,4.44 8.57,11.87 11.28,20.61 m -128.49,21.36 c 2.33,3.27 4.43,6.04 5.94,7.99 1.52,1.95 2.43,3.06 2.43,3.07 l 0.68,0.83 7.25,56.93 c 6.71,-0.4 12.39,-0.53 15.11,-0.08 9.37,1.57 15.3,6.57 15.3,6.57 h 20.52 c 1.8,-18.7 7.55,-46.28 13.1,-70.45 3.52,-15.26 6.92,-28.9 9.22,-37.99 h -21.97 l -2.41,17.71 -2.42,-17.71 h -0.09 c 0,0 -4.7,-28.75 -5.63,-30.94 -0.94,-2.19 -17.5,-15.31 -17.5,-15.31 h 12.46 c -1.37,-5.4 -2.9,-13.23 -2.91,-21.48 0,-1.27 0.17,-2.55 0.25,-3.83 h -16.09 v 19.84 c 0,3.8 -3.08,6.89 -6.89,6.89 -3.82,0 -6.91,-3.09 -6.91,-6.89 v -19.84 h -4.42 l -6.68,36.2 13.37,0.36 v 3.12 c 0,0 -10.93,4.07 -16.87,7.19 -5.93,3.13 -6.56,20.63 -6.56,20.63 l -15.03,7.11 c 0.67,2.24 1.65,4.76 2.9,7.38 3.62,7.65 9.19,16.18 13.85,22.7 m 214.69,-60.94 h -32.84 c -0.64,4.33 -1.8,12.51 -2.98,21.06 -0.86,6.2 -1.71,12.54 -2.36,17.58 -0.32,2.52 -0.58,4.73 -0.77,6.41 -0.19,1.64 -0.28,2.92 -0.28,3.07 0,1.04 -0.16,2.24 -0.41,4.18 -1.3,10.13 -5.55,36.18 -7.45,47.68 7.3,-0.89 23.18,0.1 23.18,0.1 0,0 -21.25,8.04 -25,18.04 -3.75,10 -23.75,105.94 -23.75,105.94 0,0 -11.25,-92.19 -15.62,-99.69 -4.38,-7.5 -13.45,-23.75 -13.45,-23.75 l -5.93,-8.75 c 0,0 11.22,-0.62 22.02,-0.87 -0.72,-9.9 -2.05,-23.45 -4.54,-36.06 -1.37,-6.97 -3.08,-13.58 -5.16,-18.94 -1.53,-3.98 -3.32,-7.22 -5.07,-9.38 l -0.37,1.19 h -0.09 l -2.41,17.71 -2.43,-17.71 h -11.7 c -0.39,1.57 -0.82,3.23 -1.29,5.13 -6.24,24.65 -18.39,75.28 -21.25,103.31 h 32.29 l -24.69,22.5 v 48.75 h -15 l -10.93,21.25 -12.82,47.81 c 0,0 -17.18,-89.38 -18.75,-92.5 -1.56,-3.13 -18.75,-24.38 -19.68,-25.31 -0.95,-0.94 -28.13,-25.32 -28.13,-25.32 0,0 16.63,-1.95 31.79,-3.15 l -6.95,-54.39 c -1.82,-2.29 -7.35,-9.34 -13,-17.92 -3.43,-5.21 -6.86,-10.94 -9.5,-16.53 -1.18,-2.5 -2.16,-4.95 -2.94,-7.35 l -2.59,1.22 c 0,0 -16.18,-24.06 -24,-30.31 -7.81,-6.25 -25,-9.69 -25,-9.69 l -6.56,-5.31 24.63,0.67 c -0.34,-1.15 -0.68,-2.28 -1.01,-3.64 -1.74,-7.4 -3.19,-18.23 -3.94,-34.36 l -0.18,-3.92 h 3.93 297.87"
         style="fill:#231f20;fill-opacity:1;fill-rule:nonzero;stroke:none"
         id="path4060" />
      <path
         d="m 3709.92,4180.93 h 3.5352 v 12.5 h -3.5352 z"
         style="fill:#231f20;fill-opacity:1;fill-rule:nonzero;stroke:none"
         id="path4062" />
      <path
         d="m 3714.92,4180.93 h 3.5352 v 12.5 h -3.5352 z"
         style="fill:#231f20;fill-opacity:1;fill-rule:nonzero;stroke:none"
         id="path4064" />
      <path
         d="m 3719.84,4180.93 h 3.5391 v 12.5 h -3.5391 z"
         style="fill:#231f20;fill-opacity:1;fill-rule:nonzero;stroke:none"
         id="path4066" />
      <path
         d="m 3551.15,4182.1 h 3.543 v 12.5 h -3.543 z"
         style="fill:#231f20;fill-opacity:1;fill-rule:nonzero;stroke:none"
         id="path4068" />
      <path
         d="m 3556.15,4182.1 h 3.543 v 12.5 h -3.543 z"
         style="fill:#231f20;fill-opacity:1;fill-rule:nonzero;stroke:none"
         id="path4070" />
      <path
         d="m 3561.07,4182.1 h 3.5391 v 12.5 h -3.5391 z"
         style="fill:#231f20;fill-opacity:1;fill-rule:nonzero;stroke:none"
         id="path4072" />
      <path
         d="m 3744.6,4288.54 h 3.5391 v 12.5 H 3744.6 Z"
         style="fill:#231f20;fill-opacity:1;fill-rule:nonzero;stroke:none"
         id="path4074" />
      <path
         d="m 3749.6,4288.54 h 3.5391 v 12.5 H 3749.6 Z"
         style="fill:#231f20;fill-opacity:1;fill-rule:nonzero;stroke:none"
         id="path4076" />
      <path
         d="m 3754.53,4288.54 h 3.5391 v 12.5 h -3.5391 z"
         style="fill:#231f20;fill-opacity:1;fill-rule:nonzero;stroke:none"
         id="path4078" />
      <path
         d="m 3659.4,4274.09 h 3.543 v 12.5 h -3.543 z"
         style="fill:#231f20;fill-opacity:1;fill-rule:nonzero;stroke:none"
         id="path4080" />
      <path
         d="m 3664.4,4274.09 h 3.543 v 12.5 h -3.543 z"
         style="fill:#231f20;fill-opacity:1;fill-rule:nonzero;stroke:none"
         id="path4082" />
      <path
         d="m 3669.32,4274.09 h 3.5391 v 12.5 h -3.5391 z"
         style="fill:#231f20;fill-opacity:1;fill-rule:nonzero;stroke:none"
         id="path4084" />
      <path
         d="m 3751.38,4234.52 h 3.5391 v 12.5 h -3.5391 z"
         style="fill:#231f20;fill-opacity:1;fill-rule:nonzero;stroke:none"
         id="path4086" />
      <path
         d="m 3620.23,4329.78 h 3.5391 v 12.5 h -3.5391 z"
         style="fill:#231f20;fill-opacity:1;fill-rule:nonzero;stroke:none"
         id="path4088" />
      <path
         d="m 3625.23,4329.78 h 3.5391 v 12.5 h -3.5391 z"
         style="fill:#231f20;fill-opacity:1;fill-rule:nonzero;stroke:none"
         id="path4090" />
      <path
         d="m 3630.15,4329.78 h 3.543 v 12.5 h -3.543 z"
         style="fill:#231f20;fill-opacity:1;fill-rule:nonzero;stroke:none"
         id="path4092" />
      <path
         d="m 3641.64,4223.89 h 3.5391 v 12.5 h -3.5391 z"
         style="fill:#231f20;fill-opacity:1;fill-rule:nonzero;stroke:none"
         id="path4094" />
      <path
         d="m 3646.56,4223.89 h 3.543 v 12.5 h -3.543 z"
         style="fill:#231f20;fill-opacity:1;fill-rule:nonzero;stroke:none"
         id="path4096" />
      <path
         d="m 3611.69,4251.79 h 3.5391 v 12.5 h -3.5391 z"
         style="fill:#231f20;fill-opacity:1;fill-rule:nonzero;stroke:none"
         id="path4098" />
    </g>
  </g>
</svg>
