<?xml version="1.0" encoding="UTF-8" standalone="no"?>
<!-- Created with Inkscape (http://www.inkscape.org/) -->

<svg
   version="1.1"
   id="svg2"
   width="42"
   height="32.333313"
   viewBox="0 0 42 32.333312"
   xmlns="http://www.w3.org/2000/svg"
   xmlns:svg="http://www.w3.org/2000/svg">
  <defs
     id="defs6" />
  <g
     id="g10"
     transform="matrix(1.3333333,0,0,-1.3333333,-370.55731,588.06127)">
    <g
       id="g12"
       transform="scale(0.1)">
      <path
         d="m 2999.5,4182.34 h -3.5391 v 12.5 h 3.5391 z m -4.92,0 h -3.5469 v 12.5 h 3.5469 z m -5,0 h -3.5469 v 12.5 h 3.5469 z m -35.98,45.09 h -3.543 v 12.5 h 3.543 z m -3.18,-45.09 h -3.5469 v 12.5 h 3.5469 z m -5.27,57.59 h 3.543 v -12.5 h -3.543 z m -1.47,-12.5 h -3.5391 v 12.5 h 3.5391 z m -7.01,48.98 h -3.5469 v 12.5 h 3.5469 z m -4.92,0 h -3.5391 v 12.5 h 3.5391 z m -5.01,0 h -3.543 v 12.5 h 3.543 z m -17.09,-30.11 h -3.5391 v 12.5 h 3.5391 z m -7.35,-37.72 h -3.5391 v 12.5 h 3.5391 z m -4.92,0 h -3.5391 v 12.5 h 3.5391 z m -5,0 h -3.5391 v 12.5 h 3.5391 z m 136.76,-2.95 h 3.5391 v -12.5 h -3.5391 z m 7.75,-30.17 2.46,39.68 -2.72,-2.88 -2.73,2.57 -2.74,2.57 7.38,7.83 -2.91,8.25 -1.27,-0.03 -11,-11.68 -2.74,2.57 -2.73,2.57 5.97,6.33 c -16.29,-0.22 -30.37,0.09 -35.32,1.59 -14.37,4.38 -18.75,20.63 -19.37,40.63 -0.63,20 -9.38,19.37 -9.38,19.37 h -35.51 c -11.76,0 -13.86,-22.5 -13.86,-22.5 l -22.93,-4.01 -18.76,-92.86 h 138.97 v 17.03 c 0,3.81 3.08,6.89 6.89,6.89 3.81,0 6.9,-3.08 6.9,-6.89 v -17.03"
         style="fill:#ffffff;fill-opacity:1;fill-rule:nonzero;stroke:none"
         id="path4008" />
      <path
         d="m 3031.18,4260.6 -9.28,142.35 h -3.45 l -3.3,-134.04 c 4.35,-2.65 9.91,-5.47 16.03,-8.31"
         style="fill:#ffffff;fill-opacity:1;fill-rule:nonzero;stroke:none"
         id="path4010" />
      <path
         d="m 2854.49,4221.08 h 3.543 v -12.5 h -3.543 z m 4.92,0 h 3.5391 v -12.5 h -3.5391 z m 4.21,-45.62 11.08,54.8 c -29.56,-2.2 -35.53,-20.43 -35.53,-20.43 0,0 -11.46,-0.69 -24.58,-1.06 l 14.4,-13.83 -2.59,-2.7 -2.6,-2.71 -14.64,14.06 c -0.13,-1.42 -0.2,-2.9 -0.25,-4.47 l 4.34,-4.18 -2.6,-2.7 -1.64,-1.71 c 0.21,-2.61 0.52,-5.17 1.11,-7.46 0.85,-3.33 2.23,-5.86 3.9,-7.61"
         style="fill:#ffffff;fill-opacity:1;fill-rule:nonzero;stroke:none"
         id="path4012" />
      <path
         d="m 2940.14,4227.43 h 3.5391 v 12.5 h -3.5391 z"
         style="fill:#231f20;fill-opacity:1;fill-rule:nonzero;stroke:none"
         id="path4014" />
      <path
         d="m 2945.14,4227.43 h 3.5391 v 12.5 h -3.5391 z"
         style="fill:#231f20;fill-opacity:1;fill-rule:nonzero;stroke:none"
         id="path4016" />
      <path
         d="m 2950.07,4227.43 h 3.5391 v 12.5 h -3.5391 z"
         style="fill:#231f20;fill-opacity:1;fill-rule:nonzero;stroke:none"
         id="path4018" />
      <path
         d="m 2906.1,4246.3 h 3.5391 v 12.5 H 2906.1 Z"
         style="fill:#231f20;fill-opacity:1;fill-rule:nonzero;stroke:none"
         id="path4020" />
      <path
         d="m 2888.84,4208.58 h 3.5391 v 12.5 h -3.5391 z"
         style="fill:#231f20;fill-opacity:1;fill-rule:nonzero;stroke:none"
         id="path4022" />
      <path
         d="m 2893.84,4208.58 h 3.5391 v 12.5 h -3.5391 z"
         style="fill:#231f20;fill-opacity:1;fill-rule:nonzero;stroke:none"
         id="path4024" />
      <path
         d="m 2898.76,4208.58 h 3.5391 v 12.5 h -3.5391 z"
         style="fill:#231f20;fill-opacity:1;fill-rule:nonzero;stroke:none"
         id="path4026" />
      <path
         d="m 2854.5,4208.58 h 3.5391 v 12.5 H 2854.5 Z"
         style="fill:#231f20;fill-opacity:1;fill-rule:nonzero;stroke:none"
         id="path4028" />
      <path
         d="m 2859.42,4208.58 h 3.5352 v 12.5 h -3.5352 z"
         style="fill:#231f20;fill-opacity:1;fill-rule:nonzero;stroke:none"
         id="path4030" />
      <path
         d="m 2946.87,4182.34 h 3.5391 v 12.5 h -3.5391 z"
         style="fill:#231f20;fill-opacity:1;fill-rule:nonzero;stroke:none"
         id="path4032" />
      <path
         d="m 2809.02,4190.53 1.63,1.71 2.6,2.7 -4.35,4.18 c 0.06,1.58 0.14,3.06 0.25,4.47 l 14.65,-14.06 2.59,2.71 2.6,2.7 -14.4,13.83 c 13.11,0.37 24.59,1.06 24.59,1.06 0,0 5.95,18.23 35.52,20.43 l -11.07,-54.8 h -49.61 c -1.66,1.75 -3.06,4.28 -3.91,7.61 -0.57,2.29 -0.89,4.85 -1.09,7.46 m -7.21,15.4 -2.72,2.61 c 1,0 2,0 3.02,0.01 -0.09,-0.81 -0.2,-1.69 -0.3,-2.62 m 242.51,25.45 -0.82,2.33 c 1.04,0.04 2.09,0.07 3.13,0.1 z m 2.81,-7.96 10.17,10.8 c 2.74,0.11 5.4,0.23 7.97,0.35 l -18.55,-21.75 0.62,10.04 z m -25.23,179.54 9.28,-142.36 c -6.13,2.84 -11.68,5.66 -16.03,8.31 l 3.3,134.05 z m -7.31,-203.58 c -3.8,0 -6.89,-3.08 -6.89,-6.89 v -17.03 h -138.97 l 18.76,92.86 22.94,4.01 c 0,0 2.09,22.5 13.84,22.5 h 35.52 c 0,0 8.75,0.63 9.39,-19.37 0.61,-20 5,-36.25 19.36,-40.63 4.94,-1.5 19.02,-1.81 35.32,-1.59 l -5.97,-6.33 2.74,-2.57 2.73,-2.57 11,11.68 1.27,0.03 2.91,-8.25 -7.38,-7.83 2.73,-2.57 2.74,-2.57 2.71,2.88 -2.45,-39.68 h -15.4 v 17.03 c 0,3.81 -3.1,6.89 -6.9,6.89 m 60.95,35.68 c 11.02,0.56 18.64,1.02 18.64,1.02 0,0 -30.13,10.14 -55.25,21.05 l -10,153.33 h -17.8 l -3.34,-136.07 -0.5,0.44 c -11.2,12.34 -21.4,69.77 -23.38,81.51 l -2.62,30.89 -2.47,-28.65 h -71.28 l -2.45,28.65 -2.62,-30.64 -11.43,-50.51 c 0,0 -24.36,-43.75 -111.86,-96.25 2.02,-0.49 5.12,-0.8 8.79,-1 l 13.32,-12.79 -0.02,-0.35 c 0.02,-4.73 0.38,-9.78 1.59,-14.49 1.21,-4.68 3.27,-9.17 7.02,-12.36 l 1.05,-0.88 h 1.36 231.66 l 2,32.41"
         style="fill:#231f20;fill-opacity:1;fill-rule:nonzero;stroke:none"
         id="path4034" />
      <path
         d="m 2986.04,4182.34 h 3.5391 v 12.5 h -3.5391 z"
         style="fill:#231f20;fill-opacity:1;fill-rule:nonzero;stroke:none"
         id="path4036" />
      <path
         d="m 2991.04,4182.34 h 3.5391 v 12.5 h -3.5391 z"
         style="fill:#231f20;fill-opacity:1;fill-rule:nonzero;stroke:none"
         id="path4038" />
      <path
         d="m 2995.97,4182.34 h 3.5391 v 12.5 h -3.5391 z"
         style="fill:#231f20;fill-opacity:1;fill-rule:nonzero;stroke:none"
         id="path4040" />
      <path
         d="m 3029.15,4193.13 h 3.543 v 12.5 h -3.543 z"
         style="fill:#231f20;fill-opacity:1;fill-rule:nonzero;stroke:none"
         id="path4042" />
      <path
         d="m 2923.2,4276.41 h 3.5391 v 12.5 H 2923.2 Z"
         style="fill:#231f20;fill-opacity:1;fill-rule:nonzero;stroke:none"
         id="path4044" />
      <path
         d="m 2928.2,4276.41 h 3.5391 v 12.5 H 2928.2 Z"
         style="fill:#231f20;fill-opacity:1;fill-rule:nonzero;stroke:none"
         id="path4046" />
      <path
         d="m 2933.12,4276.41 h 3.5391 v 12.5 h -3.5391 z"
         style="fill:#231f20;fill-opacity:1;fill-rule:nonzero;stroke:none"
         id="path4048" />
    </g>
  </g>
</svg>
