<?xml version="1.0" encoding="UTF-8" standalone="no"?>
<!-- Created with Inkscape (http://www.inkscape.org/) -->

<svg
   version="1.1"
   id="svg2"
   width="54.666656"
   height="43.584015"
   viewBox="0 0 54.666656 43.584013"
   xmlns="http://www.w3.org/2000/svg"
   xmlns:svg="http://www.w3.org/2000/svg">
  <defs
     id="defs6" />
  <g
     id="g10"
     transform="matrix(1.3333333,0,0,-1.3333333,-285.35333,722.13067)">
    <g
       id="g12"
       transform="scale(0.1)">
      <path
         d="m 2192.55,5179.57 h 3.5391 v -12.5 h -3.5391 z m 14.64,-30.12 21.09,10.32 v 26.25 h -41.63 c -2.35,-4.92 -4.42,-10.84 -4.38,-15.79 0,-2.68 0.53,-4.98 1.72,-6.93 1.21,-1.94 3.07,-3.67 6.37,-5.07 7.73,-3.26 12.97,-6.18 16.83,-8.78"
         style="fill:#ffffff;fill-opacity:1;fill-rule:nonzero;stroke:none"
         id="path2376" />
      <path
         d="m 2196.09,5100.24 h -3.5391 v 12.5 h 3.5391 z m 1.46,12.5 h 3.5391 v -12.5 h -3.5391 z m 4.92,0 h 3.543 v -12.5 h -3.543 z m 71.12,-14.84 v 18.75 h -94.14 l -5.03,-18.75 z"
         style="fill:#ffffff;fill-opacity:1;fill-rule:nonzero;stroke:none"
         id="path2378" />
      <path
         d="m 2357.75,5286.01 h 3.5391 v -12.5 h -3.5391 z m 5,0 h 3.5391 v -12.5 h -3.5391 z m 4.93,0 h 3.5391 v -12.5 h -3.5391 z m 6.89,-93.94 h 3.5391 v -12.5 h -3.5391 z m 7.67,67.85 h 3.543 v -12.5 h -3.543 z m 4.31,-43.87 h 3.5391 v -12.5 h -3.5391 z m 0.69,43.87 h 3.543 v -12.5 h -3.543 z m 4.23,-43.87 h 3.543 v -12.5 h -3.543 z m 0.69,43.87 h 3.5391 v -12.5 h -3.5391 z m -28.25,-62.65 c 0,0 -6.25,-3.12 -9.38,-17.5 -3.12,-14.37 26.25,-12.5 45,-13.12 5.87,-0.2 12.17,7.2 18.05,17.45 -7.74,17 -14.97,43.29 -14.93,82.59 0,9.16 0.55,19.29 1.42,29.91 h -24.7 -26.24 c 0.37,-7.35 0.81,-18.78 0.81,-31.76 0,-14.62 -0.56,-31.04 -2.44,-45.45 -0.42,-3.09 -0.9,-6.03 -1.44,-8.9"
         style="fill:#ffffff;fill-opacity:1;fill-rule:nonzero;stroke:none"
         id="path2380" />
      <path
         d="m 2506.11,5127.74 h 3.5391 v -12.5 h -3.5391 z m -10.33,-8.91 -7.91,-0.23 5.45,-20.7 h 11.85 l 1.2,1.66 c 1.38,1.97 3.24,4.78 5.09,8.05 3.72,6.54 7.25,15.01 7.2,21.89 l -0.31,2.15 h -31.99"
         style="fill:#ffffff;fill-opacity:1;fill-rule:nonzero;stroke:none"
         id="path2382" />
      <path
         d="m 2379.37,5121.49 h 3.5391 v -12.5 h -3.5391 z m -23.59,-12.5 h -3.543 v 12.5 h 3.543 z m -12.7,20.91 h -3.5469 v 12.5 h 3.5469 z m -4.93,0 h -3.5391 v 12.5 h 3.5391 z m -6.42,-23.41 h -3.5391 v 12.5 h 3.5391 z m -4.92,0 h -3.5391 v 12.5 h 3.5391 z m -5,0 h -3.5391 v 12.5 h 3.5391 z m -17.28,51.43 h -3.543 v 12.5 h 3.543 z m -3.19,-28.02 h -3.5391 v 12.5 h 3.5391 z m 0,-23.41 h -3.5391 v 12.5 h 3.5391 z m -4.92,23.41 h -3.5469 v 12.5 h 3.5469 z m 0,-23.41 h -3.5469 v 12.5 h 3.5469 z m -5,23.41 h -3.5469 v 12.5 h 3.5469 z m 0,-23.41 h -3.5469 v 12.5 h 3.5469 z m -0.36,63.93 h 3.543 v -12.5 h -3.543 z m 5,0 h 3.543 v -12.5 h -3.543 z m 133.78,-72.52 v 19.02 l -9.37,-0.27 9.74,15 h -32.55 c -16.25,0 -5,6.25 -13.75,14.37 -8.75,8.13 -71.88,0.63 -71.88,0.63 v 29.37 h -56.25 l 24.38,-59.37 h -1.57 v -18.75 h 82.18 v 18.03 c 0,3.81 3.1,6.9 6.91,6.9 3.79,0 6.89,-3.09 6.89,-6.9 v -18.03"
         style="fill:#ffffff;fill-opacity:1;fill-rule:nonzero;stroke:none"
         id="path2384" />
      <path
         d="m 2446.09,5115.24 h 3.5391 v -12.5 h -3.5391 z m -1.37,-12.5 h -3.5391 v 12.5 h 3.5391 z m 38.02,15.71 -47.9,-1.38 v -19.17 h 53.31 z"
         style="fill:#ffffff;fill-opacity:1;fill-rule:nonzero;stroke:none"
         id="path2386" />
      <path
         d="m 2434.84,5117.07 47.9,1.39 5.41,-20.56 h -53.31 z m -161.25,-0.42 v -18.75 h -99.16 l 5.02,18.75 z m 77.91,102.74 c 1.88,14.41 2.43,30.83 2.43,45.45 0,12.99 -0.44,24.41 -0.8,31.76 h 26.25 24.69 c -0.87,-10.61 -1.43,-20.75 -1.43,-29.91 -0.03,-39.3 7.2,-65.58 14.93,-82.58 -5.87,-10.26 -12.17,-17.66 -18.03,-17.46 -18.75,0.63 -48.14,-1.25 -45,13.13 3.11,14.37 9.36,17.5 9.36,17.5 l -13.85,13.21 c 0.54,2.87 1.04,5.81 1.45,8.9 m -167.51,-56.08 c -1.19,1.94 -1.72,4.24 -1.72,6.92 -0.05,4.96 2.02,10.88 4.38,15.8 h 41.64 v -26.25 l -21.11,-10.33 c -3.84,2.61 -9.09,5.53 -16.82,8.78 -3.3,1.4 -5.16,3.14 -6.37,5.08 m 183.69,-40.48 c -3.82,0 -6.91,-3.08 -6.91,-6.89 v -18.04 h -82.18 v 18.75 h 1.56 l -24.36,59.38 h 56.25 v -29.38 c 0,0 63.11,7.5 71.86,-0.62 8.75,-8.13 -2.5,-14.38 13.75,-14.38 h 32.55 l -9.73,-15 9.37,0.27 v -19.02 h -55.27 v 18.04 c 0,3.81 -3.1,6.89 -6.89,6.89 m 150.98,6.68 c 0.05,-6.89 -3.48,-15.36 -7.21,-21.89 -1.84,-3.27 -3.7,-6.09 -5.09,-8.06 l -1.2,-1.66 h -11.84 l -5.44,20.71 7.91,0.23 -9.43,12.81 h 32 z m 31.49,2.14 c 0,0 -36.86,13.75 -78.75,54.38 -28.68,37.78 -30,56.87 -30,56.87 0,0 -8.5,-28.17 -19.35,-50.27 -6.34,16.05 -11.87,39.83 -11.91,74.06 0,9.19 0.41,19.16 1.31,29.91 h 22.3 c -17.19,6.66 -28.75,26.14 -27.19,31.08 1.57,4.93 12.82,8.14 16.25,18.5 3.44,10.35 -43.43,69.8 -43.43,69.8 0,0 -46.88,-59.45 -43.45,-69.8 3.45,-10.36 14.7,-13.57 16.25,-18.5 1.57,-4.94 -10,-24.42 -27.18,-31.08 h 20.63 c 0.05,-1.16 0.11,-2.33 0.17,-3.7 0.33,-7.19 0.63,-17.12 0.63,-28.06 0,-14.42 -0.55,-30.6 -2.36,-44.47 -0.16,-1.25 -0.34,-2.46 -0.52,-3.66 l -48.4,46.19 c 0,0 -43.11,-61.87 -58.11,-53.12 -15,8.75 -35,71.87 -35,71.87 0,0 -19.39,-81.87 -43.75,-95.62 h 20.12 c -1.98,-4.79 -3.62,-10.25 -3.64,-15.8 -0.02,-3.68 0.75,-7.46 2.82,-10.84 2.05,-3.38 5.38,-6.2 9.86,-8.07 5.01,-2.11 8.75,-4.02 11.78,-5.76 l -59.08,-28.91 h 9.23 l 3.51,-27.55 3.72,0.47 3.73,0.47 -3.39,26.61 h 14.75 l -7.06,-26.25 h 4.9 339.3 l 1.12,1.41 c 0.08,0.1 4.03,5.04 8.02,12.13 3.98,7.11 8.13,16.32 8.18,25.57 l -0.14,2.14"
         style="fill:#231f20;fill-opacity:1;fill-rule:nonzero;stroke:none"
         id="path2388" />
      <path
         d="m 2287.88,5106.49 h 3.5391 v 12.5 h -3.5391 z"
         style="fill:#231f20;fill-opacity:1;fill-rule:nonzero;stroke:none"
         id="path2390" />
      <path
         d="m 2292.88,5106.49 h 3.5391 v 12.5 h -3.5391 z"
         style="fill:#231f20;fill-opacity:1;fill-rule:nonzero;stroke:none"
         id="path2392" />
      <path
         d="m 2297.8,5106.49 h 3.5391 v 12.5 H 2297.8 Z"
         style="fill:#231f20;fill-opacity:1;fill-rule:nonzero;stroke:none"
         id="path2394" />
      <path
         d="m 2318.27,5106.49 h 3.5391 v 12.5 h -3.5391 z"
         style="fill:#231f20;fill-opacity:1;fill-rule:nonzero;stroke:none"
         id="path2396" />
      <path
         d="m 2323.27,5106.49 h 3.5391 v 12.5 h -3.5391 z"
         style="fill:#231f20;fill-opacity:1;fill-rule:nonzero;stroke:none"
         id="path2398" />
      <path
         d="m 2328.19,5106.49 h 3.5391 v 12.5 h -3.5391 z"
         style="fill:#231f20;fill-opacity:1;fill-rule:nonzero;stroke:none"
         id="path2400" />
      <path
         d="m 2334.61,5129.9 h 3.5391 v 12.5 h -3.5391 z"
         style="fill:#231f20;fill-opacity:1;fill-rule:nonzero;stroke:none"
         id="path2402" />
      <path
         d="m 2339.53,5129.9 h 3.5391 v 12.5 h -3.5391 z"
         style="fill:#231f20;fill-opacity:1;fill-rule:nonzero;stroke:none"
         id="path2404" />
      <path
         d="m 2506.11,5115.24 h 3.5391 v 12.5 h -3.5391 z"
         style="fill:#231f20;fill-opacity:1;fill-rule:nonzero;stroke:none"
         id="path2406" />
      <path
         d="m 2287.88,5129.9 h 3.5391 v 12.5 h -3.5391 z"
         style="fill:#231f20;fill-opacity:1;fill-rule:nonzero;stroke:none"
         id="path2408" />
      <path
         d="m 2292.88,5129.9 h 3.5391 v 12.5 h -3.5391 z"
         style="fill:#231f20;fill-opacity:1;fill-rule:nonzero;stroke:none"
         id="path2410" />
      <path
         d="m 2297.8,5129.9 h 3.5391 v 12.5 H 2297.8 Z"
         style="fill:#231f20;fill-opacity:1;fill-rule:nonzero;stroke:none"
         id="path2412" />
      <path
         d="m 2291.07,5157.92 h 3.5391 v 12.5 h -3.5391 z"
         style="fill:#231f20;fill-opacity:1;fill-rule:nonzero;stroke:none"
         id="path2414" />
      <path
         d="m 2296.07,5157.92 h 3.5391 v 12.5 h -3.5391 z"
         style="fill:#231f20;fill-opacity:1;fill-rule:nonzero;stroke:none"
         id="path2416" />
      <path
         d="m 2300.99,5157.92 h 3.543 v 12.5 h -3.543 z"
         style="fill:#231f20;fill-opacity:1;fill-rule:nonzero;stroke:none"
         id="path2418" />
      <path
         d="m 2386.55,5203.55 h 3.5391 v 12.5 h -3.5391 z"
         style="fill:#231f20;fill-opacity:1;fill-rule:nonzero;stroke:none"
         id="path2420" />
      <path
         d="m 2391.47,5203.55 h 3.543 v 12.5 h -3.543 z"
         style="fill:#231f20;fill-opacity:1;fill-rule:nonzero;stroke:none"
         id="path2422" />
      <path
         d="m 2192.55,5167.07 h 3.5391 v 12.5 h -3.5391 z"
         style="fill:#231f20;fill-opacity:1;fill-rule:nonzero;stroke:none"
         id="path2424" />
      <path
         d="m 2192.55,5100.24 h 3.5391 v 12.5 h -3.5391 z"
         style="fill:#231f20;fill-opacity:1;fill-rule:nonzero;stroke:none"
         id="path2426" />
      <path
         d="m 2197.55,5100.24 h 3.5391 v 12.5 h -3.5391 z"
         style="fill:#231f20;fill-opacity:1;fill-rule:nonzero;stroke:none"
         id="path2428" />
      <path
         d="m 2202.48,5100.24 h 3.5391 v 12.5 h -3.5391 z"
         style="fill:#231f20;fill-opacity:1;fill-rule:nonzero;stroke:none"
         id="path2430" />
      <path
         d="m 2357.75,5273.51 h 3.5391 v 12.5 h -3.5391 z"
         style="fill:#231f20;fill-opacity:1;fill-rule:nonzero;stroke:none"
         id="path2432" />
      <path
         d="m 2362.75,5273.51 h 3.5391 v 12.5 h -3.5391 z"
         style="fill:#231f20;fill-opacity:1;fill-rule:nonzero;stroke:none"
         id="path2434" />
      <path
         d="m 2367.67,5273.51 h 3.5352 v 12.5 h -3.5352 z"
         style="fill:#231f20;fill-opacity:1;fill-rule:nonzero;stroke:none"
         id="path2436" />
      <path
         d="m 2441.17,5102.74 h 3.5352 v 12.5 h -3.5352 z"
         style="fill:#231f20;fill-opacity:1;fill-rule:nonzero;stroke:none"
         id="path2438" />
      <path
         d="m 2446.09,5102.74 h 3.5391 v 12.5 h -3.5391 z"
         style="fill:#231f20;fill-opacity:1;fill-rule:nonzero;stroke:none"
         id="path2440" />
      <path
         d="m 2352.24,5108.99 h 3.543 v 12.5 h -3.543 z"
         style="fill:#231f20;fill-opacity:1;fill-rule:nonzero;stroke:none"
         id="path2442" />
      <path
         d="m 2379.38,5108.99 h 3.543 v 12.5 h -3.543 z"
         style="fill:#231f20;fill-opacity:1;fill-rule:nonzero;stroke:none"
         id="path2444" />
      <path
         d="m 2374.57,5179.57 h 3.5391 v 12.5 h -3.5391 z"
         style="fill:#231f20;fill-opacity:1;fill-rule:nonzero;stroke:none"
         id="path2446" />
      <path
         d="m 2382.24,5247.42 h 3.543 v 12.5 h -3.543 z"
         style="fill:#231f20;fill-opacity:1;fill-rule:nonzero;stroke:none"
         id="path2448" />
      <path
         d="m 2387.24,5247.42 h 3.543 v 12.5 h -3.543 z"
         style="fill:#231f20;fill-opacity:1;fill-rule:nonzero;stroke:none"
         id="path2450" />
      <path
         d="m 2392.16,5247.42 h 3.5391 v 12.5 h -3.5391 z"
         style="fill:#231f20;fill-opacity:1;fill-rule:nonzero;stroke:none"
         id="path2452" />
    </g>
  </g>
</svg>
