<?xml version="1.0" encoding="UTF-8" standalone="no"?>
<!-- John Grümph
     https://legrumph.org/Terrier/public/chibi/de-chorographia
     CC BY-NC 3.0
     https://creativecommons.org/licenses/by-nc/3.0/fr/ -->
<!-- Created with Inkscape (http://www.inkscape.org/) -->

<svg
   version="1.1"
   id="svg2"
   width="23.521362"
   height="44.110657"
   viewBox="0 0 23.521362 44.110655"
   xmlns="http://www.w3.org/2000/svg"
   xmlns:svg="http://www.w3.org/2000/svg">
  <defs
     id="defs6" />
  <g
     id="g10"
     transform="matrix(1.3333333,0,0,-1.3333333,-598.69733,599.83861)">
    <g
       id="g12"
       transform="scale(0.1)">
      <path
         d="m 4506.46,4175.46 h 12.74 v 67.29 h -13.01 z"
         style="fill:#ffffff;fill-opacity:1;fill-rule:nonzero;stroke:none"
         id="path4454" />
      <path
         d="m 4497.74,4272.75 h 132.344 v 20.7813 H 4497.74 Z"
         style="fill:#ffffff;fill-opacity:1;fill-rule:nonzero;stroke:none"
         id="path4456" />
      <path
         d="m 4648.15,4254.37 h -3.5391 v 12.5 h 3.5391 z m -26.74,101.67 h -3.5391 v 12.5 h 3.5391 z m -4.93,0 h -3.5391 v 12.5 h 3.5391 z m -5,0 h -3.5391 v 12.5 h 3.5391 z m 47.66,-157.14 c 0,3.2 -0.17,6.78 -0.55,10.78 l -0.02,0.14 v 0.12 c -0.98,35.69 -7.59,60.76 -14.05,82.75 -6.43,21.96 -12.86,40.99 -12.87,63.95 0,11.4 1.69,23.77 5.59,37.78 h -32.84 v -76.84 c 10.79,-4.86 18.17,-11.52 20.2,-19.05 h 10.48 v -30.78 h -7.15 l 6.92,-92.29 h 19.41 c 0.47,0.7 1.08,1.75 1.76,3.39 1.49,3.66 3.12,9.96 3.12,20.05"
         style="fill:#ffffff;fill-opacity:1;fill-rule:nonzero;stroke:none"
         id="path4458" />
      <path
         d="m 4624.79,4242.75 h -12.47 v -67.29 h 17.52 z"
         style="fill:#ffffff;fill-opacity:1;fill-rule:nonzero;stroke:none"
         id="path4460" />
      <path
         d="m 4591.59,4251.5 h 3.5391 V 4239 h -3.5391 z m -50.52,-12.5 h -3.5391 v 12.5 h 3.5391 z m 66.25,-63.54 v 72.29 h 17.09 l -1.5,20 h -116.84 l 0.09,-20 h 18.04 v -72.29 h 37.67 v 17.03 c 0,3.81 3.08,6.89 6.89,6.89 3.81,0 6.89,-3.08 6.89,-6.89 v -17.03"
         style="fill:#ffffff;fill-opacity:1;fill-rule:nonzero;stroke:none"
         id="path4462" />
      <path
         d="m 4634.86,4175.46 -6.93,92.29 h 7.14 v 30.78 h -10.46 c -2.05,7.53 -9.43,14.19 -20.21,19.05 v 76.84 h 32.83 c -3.89,-14.01 -5.58,-26.38 -5.58,-37.78 0.01,-22.96 6.44,-41.99 12.87,-63.95 6.45,-21.99 13.07,-47.06 14.05,-82.75 v -0.12 l 0.02,-0.14 c 0.38,-4 0.55,-7.58 0.55,-10.78 0,-10.09 -1.62,-16.39 -3.12,-20.05 -0.68,-1.64 -1.3,-2.69 -1.77,-3.39 z m -22.54,67.29 h 12.47 l 5.05,-67.29 h -17.52 z m -93.12,-67.29 h -12.74 l -0.28,67.29 h 13.02 z m 110.87,97.29 h -132.34 v 20.7813 h 132.34 z m -61.3,-73.37 c -3.82,0 -6.91,-3.08 -6.91,-6.89 v -17.03 h -37.66 v 72.29 h -18.04 l -0.09,20 h 116.84 l 1.5,-20 h -17.09 v -72.29 h -31.67 v 17.03 c 0,3.81 -3.09,6.89 -6.88,6.89 m 97.29,10.87 c -1,36.46 -7.84,62.44 -14.34,84.56 -6.52,22.17 -12.58,40.34 -12.57,61.83 0.01,11.24 1.66,23.47 5.83,37.78 h 9.22 l -23.75,30.62 -14.59,73.75 -16.66,-83.75 -14.16,-20.62 h 11.86 v -73.9 c -9.43,3.12 -20.63,4.98 -32.7,5.2 l -2.34,17.05 -2.32,-17.05 c -28.83,-0.52 -52.68,-10.57 -59.22,-24.01 h -10.09 v -37.09 h 8.36 l 0.41,-96.66 h 3.73 154.81 l 1.05,0.98 c 0.84,0.7 8.11,8.19 8.05,29.96 0,3.41 -0.18,7.19 -0.58,11.35"
         style="fill:#231f20;fill-opacity:1;fill-rule:nonzero;stroke:none"
         id="path4464" />
      <path
         d="m 4644.61,4254.37 h 3.5391 v 12.5 h -3.5391 z"
         style="fill:#231f20;fill-opacity:1;fill-rule:nonzero;stroke:none"
         id="path4466" />
      <path
         d="m 4607.95,4356.04 h 3.5391 v 12.5 h -3.5391 z"
         style="fill:#231f20;fill-opacity:1;fill-rule:nonzero;stroke:none"
         id="path4468" />
      <path
         d="m 4612.95,4356.04 h 3.5391 v 12.5 h -3.5391 z"
         style="fill:#231f20;fill-opacity:1;fill-rule:nonzero;stroke:none"
         id="path4470" />
      <path
         d="m 4617.87,4356.04 h 3.5391 v 12.5 h -3.5391 z"
         style="fill:#231f20;fill-opacity:1;fill-rule:nonzero;stroke:none"
         id="path4472" />
      <path
         d="m 4591.6,4239 h 3.5391 v 12.5 H 4591.6 Z"
         style="fill:#231f20;fill-opacity:1;fill-rule:nonzero;stroke:none"
         id="path4474" />
      <path
         d="m 4537.53,4239 h 3.5391 v 12.5 h -3.5391 z"
         style="fill:#231f20;fill-opacity:1;fill-rule:nonzero;stroke:none"
         id="path4476" />
    </g>
  </g>
</svg>
