<?xml version="1.0" encoding="UTF-8" standalone="no"?>
<!-- John Grümph
     https://legrumph.org/Terrier/public/chibi/de-chorographia
     CC BY-NC 3.0
     https://creativecommons.org/licenses/by-nc/3.0/fr/ -->
<!-- Created with Inkscape (http://www.inkscape.org/) -->

<svg
   version="1.1"
   id="svg2"
   width="36.94397"
   height="35.395996"
   viewBox="0 0 36.94397 35.395995"
   xmlns="http://www.w3.org/2000/svg"
   xmlns:svg="http://www.w3.org/2000/svg">
  <defs
     id="defs6" />
  <g
     id="g10"
     transform="matrix(1.3333333,0,0,-1.3333333,-544.00134,936.49331)">
    <g
       id="g12"
       transform="scale(0.1)">
      <path
         d="m 4206.46,6936.77 h 24.3789 v 8.332 H 4206.46 Z"
         style="fill:#ffffff;fill-opacity:1;fill-rule:nonzero;stroke:none"
         id="path1488" />
      <path
         d="m 4230.84,6950.1 v 12.67 c -5.82,-0.58 -10.94,-0.33 -10.94,-0.33 0,0 -6.66,-0.32 -13.44,0.62 v -12.96"
         style="fill:#ffffff;fill-opacity:1;fill-rule:nonzero;stroke:none"
         id="path1490" />
      <path
         d="m 4216.88,6925.26 h 3.5391 v -12.5 h -3.5391 z m 13.96,6.51 h -24.3789 v -25.418 h 24.3789 z"
         style="fill:#ffffff;fill-opacity:1;fill-rule:nonzero;stroke:none"
         id="path1492" />
      <path
         d="m 4165.05,6775.63 h -3.5391 v 12.5 h 3.5391 z m -4.92,0 h -3.5391 v 12.5 h 3.5391 z m -5,0 h -3.5391 v 12.5 h 3.5391 z m -4.65,38.08 h -3.5391 v 12.5 h 3.5391 z m -4.92,0 h -3.5391 v 12.5 h 3.5391 z m -0.04,-38.08 h -3.5391 v 12.5 h 3.5391 z m -4.92,0 h -3.543 v 12.5 h 3.543 z m -3.59,50.58 h 3.5352 v -12.5 h -3.5352 z m -1.41,-50.58 h -3.543 v 12.5 h 3.543 z m -10.02,0 h -3.5469 v 12.5 h 3.5469 z m -4.93,0 h -3.5391 v 12.5 h 3.5391 z m -5,0 h -3.5391 v 12.5 h 3.5391 z m 55.47,37.42 -4.66,-0.14 -1.87,18.75 -55.33,-3.73 c -1.46,-11.38 -4.64,-32.97 -9.57,-49.47 -1.47,-4.79 -3.05,-9.07 -4.87,-12.74 h 76.3"
         style="fill:#ffffff;fill-opacity:1;fill-rule:nonzero;stroke:none"
         id="path1494" />
      <path
         d="m 4201.06,6813.96 -1.47,-0.03 v -48.2 h 1.47 z"
         style="fill:#ffffff;fill-opacity:1;fill-rule:nonzero;stroke:none"
         id="path1496" />
      <path
         d="m 4206.06,6814.12 -1.45,-0.04 v -48.35 h 1.45 z"
         style="fill:#ffffff;fill-opacity:1;fill-rule:nonzero;stroke:none"
         id="path1498" />
      <path
         d="m 4230.69,6802.7 v 11.74 c 0,2.15 1.75,3.89 3.9,3.89 2.14,0 3.89,-1.74 3.89,-3.89 v -11.74 z m 42.62,-5.8 h 3.5391 v -12.5 h -3.5391 z m 4.92,0 h 3.5391 v -12.5 h -3.5391 z m 37.95,0 h 3.5391 v -12.5 h -3.5391 z m -73.14,-13.15 c 0,3.81 3.1,6.9 6.91,6.9 3.8,0 6.89,-3.09 6.89,-6.9 v -18.03 h 75.22 l -6.03,37.19 h -66.44 c -1.88,0 -4.07,10.62 -5.94,19.37 -1.88,8.75 -17.81,9.69 -30,6.57 -12.19,-3.13 -5.94,-14.38 -5.94,-14.38 l -3.18,-0.1 v -48.65 h 28.51"
         style="fill:#ffffff;fill-opacity:1;fill-rule:nonzero;stroke:none"
         id="path1500" />
      <path
         d="m 4196.05,6813.82 -1.39,-0.05 v -48.04 h 1.39 z"
         style="fill:#ffffff;fill-opacity:1;fill-rule:nonzero;stroke:none"
         id="path1502" />
      <path
         d="m 4210.98,6814.27 -1.37,-0.04 v -48.5 h 1.37 z"
         style="fill:#ffffff;fill-opacity:1;fill-rule:nonzero;stroke:none"
         id="path1504" />
      <path
         d="m 4176.13,6813.2 -1.47,-0.04 v -47.44 h 1.47 z"
         style="fill:#ffffff;fill-opacity:1;fill-rule:nonzero;stroke:none"
         id="path1506" />
      <path
         d="m 4186.13,6813.51 -1.54,-0.05 v -47.74 h 1.54 z"
         style="fill:#ffffff;fill-opacity:1;fill-rule:nonzero;stroke:none"
         id="path1508" />
      <path
         d="m 4191.13,6813.66 -1.46,-0.04 v -47.9 h 1.46 z"
         style="fill:#ffffff;fill-opacity:1;fill-rule:nonzero;stroke:none"
         id="path1510" />
      <path
         d="m 4181.05,6813.36 -1.39,-0.04 v -47.59 h 1.39 z"
         style="fill:#ffffff;fill-opacity:1;fill-rule:nonzero;stroke:none"
         id="path1512" />
      <path
         d="m 4273.32,6784.4 h 3.5391 v 12.5 h -3.5391 z"
         style="fill:#231f20;fill-opacity:1;fill-rule:nonzero;stroke:none"
         id="path1514" />
      <path
         d="m 4278.24,6784.4 h 3.5352 v 12.5 h -3.5352 z"
         style="fill:#231f20;fill-opacity:1;fill-rule:nonzero;stroke:none"
         id="path1516" />
      <path
         d="m 4316.19,6784.4 h 3.5391 v 12.5 h -3.5391 z"
         style="fill:#231f20;fill-opacity:1;fill-rule:nonzero;stroke:none"
         id="path1518" />
      <path
         d="m 4234.59,6818.34 c -2.15,0 -3.9,-1.74 -3.9,-3.9 v -11.73 h 7.8 v 11.73 c 0,2.16 -1.75,3.9 -3.9,3.9"
         style="fill:#231f20;fill-opacity:1;fill-rule:nonzero;stroke:none"
         id="path1520" />
      <path
         d="m 4216.88,6912.76 h 3.5391 v 12.5 h -3.5391 z"
         style="fill:#231f20;fill-opacity:1;fill-rule:nonzero;stroke:none"
         id="path1522" />
      <path
         d="m 4112.12,6775.63 h 3.5391 v 12.5 h -3.5391 z"
         style="fill:#231f20;fill-opacity:1;fill-rule:nonzero;stroke:none"
         id="path1524" />
      <path
         d="m 4117.12,6775.63 h 3.5391 v 12.5 h -3.5391 z"
         style="fill:#231f20;fill-opacity:1;fill-rule:nonzero;stroke:none"
         id="path1526" />
      <path
         d="m 4122.04,6775.63 h 3.5391 v 12.5 h -3.5391 z"
         style="fill:#231f20;fill-opacity:1;fill-rule:nonzero;stroke:none"
         id="path1528" />
      <path
         d="m 4132.05,6775.63 h 3.5391 v 12.5 h -3.5391 z"
         style="fill:#231f20;fill-opacity:1;fill-rule:nonzero;stroke:none"
         id="path1530" />
      <path
         d="m 4137.05,6775.63 h 3.5391 v 12.5 h -3.5391 z"
         style="fill:#231f20;fill-opacity:1;fill-rule:nonzero;stroke:none"
         id="path1532" />
      <path
         d="m 4141.97,6775.63 h 3.5391 v 12.5 h -3.5391 z"
         style="fill:#231f20;fill-opacity:1;fill-rule:nonzero;stroke:none"
         id="path1534" />
      <path
         d="m 4151.59,6775.63 h 3.5391 v 12.5 h -3.5391 z"
         style="fill:#231f20;fill-opacity:1;fill-rule:nonzero;stroke:none"
         id="path1536" />
      <path
         d="m 4156.59,6775.63 h 3.5391 v 12.5 h -3.5391 z"
         style="fill:#231f20;fill-opacity:1;fill-rule:nonzero;stroke:none"
         id="path1538" />
      <path
         d="m 4161.51,6775.63 h 3.5352 v 12.5 h -3.5352 z"
         style="fill:#231f20;fill-opacity:1;fill-rule:nonzero;stroke:none"
         id="path1540" />
      <path
         d="m 4137.02,6813.71 h 3.5391 v 12.5 h -3.5391 z"
         style="fill:#231f20;fill-opacity:1;fill-rule:nonzero;stroke:none"
         id="path1542" />
      <path
         d="m 4142.01,6813.71 h 3.5352 v 12.5 h -3.5352 z"
         style="fill:#231f20;fill-opacity:1;fill-rule:nonzero;stroke:none"
         id="path1544" />
      <path
         d="m 4146.93,6813.71 h 3.5391 v 12.5 h -3.5391 z"
         style="fill:#231f20;fill-opacity:1;fill-rule:nonzero;stroke:none"
         id="path1546" />
      <path
         d="m 4214.53,6814.38 3.18,0.1 c 0,0 -6.25,11.25 5.94,14.37 12.19,3.13 28.13,2.19 30,-6.56 1.88,-8.75 4.06,-19.37 5.94,-19.37 h 66.44 l 6.03,-37.19 h -75.22 v 18.03 c 0,3.81 -3.09,6.88 -6.89,6.88 -3.81,0 -6.9,-3.07 -6.9,-6.88 v -18.03 h -28.52 z m -4.92,-0.15 1.38,0.04 v -48.54 h -1.38 z m -5,-0.15 1.45,0.04 v -48.39 h -1.45 z m -5.02,-0.15 1.47,0.03 v -48.23 h -1.47 z m -4.92,-0.16 1.38,0.05 v -48.09 h -1.38 z m -5,-0.15 1.46,0.05 v -47.94 h -1.46 z m -5.08,-0.16 1.53,0.06 v -47.79 h -1.53 z m -4.92,-0.14 1.37,0.04 v -47.63 h -1.37 z m -5,-0.16 1.45,0.05 v -47.48 h -1.45 z m 158.96,-10.24 h 7.63 l -6.1,-9.44 z m -127.17,128.85 h 24.3789 v -25.418 H 4206.46 Z m 13.44,30.68 c 0,0 5.12,-0.25 10.94,0.32 v -12.67 h -24.38 v 12.97 c 6.78,-0.95 13.44,-0.62 13.44,-0.62 m 10.94,-25.68 h -24.38 v 8.33 h 24.38 z m -131.15,-158.31 c 4.93,16.5 8.11,38.09 9.57,49.47 l 55.33,3.74 1.87,-18.75 4.66,0.13 v -47.32 h -76.3 c 1.82,3.66 3.4,7.94 4.87,12.73 m 250.5,24.46 h 6.9 c 0,0 -45.94,37.5 -53.75,79.06 -11.56,-18.44 -28.13,-30.63 -28.13,-30.63 0,0 -26.59,15.38 -36.87,35.73 v 76.97 c 5.15,1.34 9.33,3.75 9.22,8.08 0,27.82 -22.03,12.04 -27.66,51.57 -5.62,-39.53 -27.66,-23.75 -27.66,-51.57 -0.09,-3.59 2.8,-5.86 6.72,-7.31 v -58.47 h -19.68 l -16.25,41.25 c 0,0 -29.07,-96.87 -81.88,-121.56 l 20.48,1.38 -0.05,-0.37 c -1.15,-8.71 -3.16,-22.11 -6,-34.55 -1.4,-6.21 -3.02,-12.2 -4.8,-17.15 -1.76,-4.96 -3.76,-8.94 -5.5,-10.94 l -5.27,-6.18 h 8.12 252.74 l -3.92,24.21"
         style="fill:#231f20;fill-opacity:1;fill-rule:nonzero;stroke:none"
         id="path1548" />
    </g>
  </g>
</svg>
