<?xml version="1.0" encoding="UTF-8" standalone="no"?>
<!-- John Grümph
     https://legrumph.org/Terrier/public/chibi/de-chorographia
     CC BY-NC 3.0
     https://creativecommons.org/licenses/by-nc/3.0/fr/ -->
<!-- Created with Inkscape (http://www.inkscape.org/) -->

<svg
   version="1.1"
   id="svg2"
   width="42.848541"
   height="36.029327"
   viewBox="0 0 42.848541 36.029326"
   xmlns="http://www.w3.org/2000/svg"
   xmlns:svg="http://www.w3.org/2000/svg">
  <defs
     id="defs6" />
  <g
     id="g10"
     transform="matrix(1.3333333,0,0,-1.3333333,-125.55679,937.73597)">
    <g
       id="g12"
       transform="scale(0.1)">
      <path
         d="m 1146.7,6869.33 h 3.5391 v -12.5 H 1146.7 Z m 42.63,17.02 h 3.543 v -12.5 h -3.543 z m 6.05,34.28 h 3.543 v -12.5 h -3.543 z m 5,0 h 3.543 v -12.5 h -3.543 z m -12.67,-12.5 h -3.5508 v 12.5 h 3.5508 z m -4.93,0 h -3.543 v 12.5 h 3.543 z m -5,0 h -3.543 v 12.5 h 3.543 z m -34.46,0 h -3.5391 v 12.5 h 3.5391 z m -4.92,0 h -3.5391 v 12.5 h 3.5391 z m 66.9,12.5 h 3.5391 v -12.5 H 1205.3 Z m -66.29,-85.16 c 8.7,6.37 18.17,15.29 22.18,26.04 13.44,-20.78 36.38,-34.07 36.38,-34.07 l -9.72,-0.35 1.29,-9.75 h 16.96 l -1.47,19.22 h -7.06 l 7.14,7.94 -2.89,54.06 2.81,0.86 c 2.56,0.78 5.01,1.78 6.97,2.96 0.96,0.57 1.75,1.61 2.36,3.42 0.59,1.77 0.87,4.17 0.86,6.69 0.01,4.35 -0.78,8.9 -1.39,11.78 h -41.67 -40.61 l -0.36,-1.7 c -0.54,-2.81 -1.05,-6.56 -1.05,-10.08 0,-2.52 0.27,-4.92 0.87,-6.69 0.6,-1.81 1.39,-2.85 2.35,-3.42 1.49,-0.9 3.37,-1.69 5.4,-2.39 l 2.58,-0.91 h 48.39 l -48.6,-7.27 -1.43,-47.07 3.61,-4.01 h -3.73"
         style="fill:#ffffff;fill-opacity:1;fill-rule:nonzero;stroke:none"
         id="path426" />
      <path
         d="m 1165.96,6818.54 h -3.5391 v 12.5 h 3.5391 z m -4.92,0 h -3.5391 v 12.5 h 3.5391 z m 5.46,15.93 c -4.68,0 -14.53,-0.31 -15.15,-4.68 -0.44,-3.08 -2.34,-9.11 -3.43,-12.45 h 36.17 l -1.27,9.57 -11.32,-0.4 c 0,0 -0.31,7.96 -5,7.96"
         style="fill:#ffffff;fill-opacity:1;fill-rule:nonzero;stroke:none"
         id="path428" />
      <path
         d="m 1122.22,6810.72 h 84.39 l -0.11,1.62 h -84.39 z"
         style="fill:#ffffff;fill-opacity:1;fill-rule:nonzero;stroke:none"
         id="path430" />
      <path
         d="m 1207,6805.72 h -84.44 c 0.9,-12.34 2.22,-24.91 4.07,-32.04 0.35,-1.39 0.73,-2.5 1.09,-3.38 h 82"
         style="fill:#ffffff;fill-opacity:1;fill-rule:nonzero;stroke:none"
         id="path432" />
      <path
         d="m 1084.8,6812.39 h -0.55 v -0.05 h -52.59 v 0.05 h -0.07 l 0.09,-1.67 h 53.03"
         style="fill:#ffffff;fill-opacity:1;fill-rule:nonzero;stroke:none"
         id="path434" />
      <path
         d="m 995.07,6828.76 h 3.53906 v -12.5 H 995.07 Z m 5,0 h 3.5391 v -12.5 h -3.5391 z m 4.92,0 h 3.543 v -12.5 h -3.543 z m 27.23,-58.45 -0.28,0.76 c -0.78,2.55 -1.43,5.63 -2.03,9.05 -1.17,6.84 -2.04,15.08 -2.68,23.06 -1.1,13.48 -1.54,26.08 -1.64,29.73 h -34.828 l -1.242,-16.35 c -0.168,-3.75 -0.45,-8.53 -0.84,-13.75 -0.891,-11.56 -2.309,-24.8 -4.828,-32.5"
         style="fill:#ffffff;fill-opacity:1;fill-rule:nonzero;stroke:none"
         id="path436" />
      <path
         d="m 1079.98,6770.31 c 0.24,0.76 0.5,1.58 0.72,2.6 0.59,2.54 1.13,5.78 1.6,9.45 0.9,6.85 1.59,15.17 2.11,23.37 h -52.37 c 0.95,-12.47 2.47,-26 4.69,-33.21 l 0.81,-2.21 h 9.19 v 20.03 c 0,4.35 5.07,7.89 11.32,7.89 6.25,0 11.31,-3.54 11.31,-7.89 v -20.03"
         style="fill:#ffffff;fill-opacity:1;fill-rule:nonzero;stroke:none"
         id="path438" />
      <path
         d="m 1226.7,6821.62 h -3.5391 v 12.5 h 3.5391 z m 3.09,-6.86 c -0.29,7.53 -0.38,12.94 -0.38,16.83 0,2.07 0.03,3.68 0.07,4.97 h -4.56 -15.28 l 5.1,-66.25 h 33.07 c -1.86,2.69 -4.1,6.12 -6.38,10.12 -5.44,9.55 -11.15,21.98 -11.64,34.33"
         style="fill:#ffffff;fill-opacity:1;fill-rule:nonzero;stroke:none"
         id="path440" />
      <path
         d="m 984.297,6812.34 h -14.109 l -0.672,-1.62 h 14.679 z"
         style="fill:#ffffff;fill-opacity:1;fill-rule:nonzero;stroke:none"
         id="path442" />
      <path
         d="m 979.082,6771.81 c 0.629,1.88 1.219,4.35 1.75,7.14 1.051,5.59 1.852,12.53 2.449,19.26 0.231,2.57 0.422,5.08 0.59,7.51 h -16.41 l -14.578,-35.41 h 25.59"
         style="fill:#ffffff;fill-opacity:1;fill-rule:nonzero;stroke:none"
         id="path444" />
      <path
         d="m 1103.32,6828.76 h 3.5391 v -12.5 h -3.5391 z m 4.92,0 h 3.543 v -12.5 h -3.543 z m 14.21,-58.45 -0.66,2.12 c -0.72,2.78 -1.33,6.14 -1.88,9.89 -1.09,7.5 -1.9,16.56 -2.51,25.34 -1.01,14.88 -1.43,28.81 -1.53,32.75 h -24.96 c -0.07,-3.01 -0.35,-13.97 -1.02,-26.71 -0.8,-15 -2.09,-32.22 -4.31,-41.91 l -0.41,-1.48"
         style="fill:#ffffff;fill-opacity:1;fill-rule:nonzero;stroke:none"
         id="path446" />
      <path
         d="m 1131.36,6830.3 c -2.44,-1.51 -4.58,-2.71 -6.26,-3.6 v 14.02 h 6.57 z m 83.38,-60 -5.1,66.25 h 19.85 c -0.04,-1.28 -0.07,-2.9 -0.07,-4.97 0,-3.88 0.08,-9.29 0.37,-16.83 0.5,-12.34 6.2,-24.78 11.64,-34.32 2.28,-4 4.52,-7.43 6.39,-10.13 z m -247.283,35.42 h 16.41 c -0.172,-2.43 -0.351,-4.93 -0.59,-7.51 -0.589,-6.73 -1.39,-13.67 -2.449,-19.26 -0.519,-2.8 -1.109,-5.25 -1.75,-7.14 l -0.601,-1.51 h -25.598 z m 2.731,6.62 h 14.109 l -0.102,-1.62 h -14.679 z m 119.712,1.36 c 0.66,12.75 0.94,23.7 1.01,26.71 h 24.96 c 0.1,-3.95 0.52,-17.87 1.53,-32.75 0.61,-8.78 1.42,-17.84 2.51,-25.34 0.55,-3.75 1.17,-7.11 1.88,-9.89 l 0.66,-2.13 h -37.28 l 0.41,1.49 c 2.23,9.68 3.51,26.91 4.32,41.91 m 116.71,-2.98 h -84.39 l -0.11,1.62 h 84.39 z m -23.79,16.19 1.27,-9.57 h -36.17 c 1.1,3.34 2.99,9.37 3.43,12.45 0.63,4.37 10.47,4.68 15.16,4.68 4.68,0 5,-7.97 5,-7.97 z m -151.13,-16.19 -0.11,1.67 h 0.08 v -0.05 h 52.6 v 0.05 h 0.55 l -0.09,-1.67 z m -43.014,-7.91 c 0.39,5.21 0.672,9.99 0.84,13.74 l 1.242,16.36 h 34.832 c 0.11,-3.64 0.55,-16.25 1.64,-29.73 0.64,-7.98 1.51,-16.22 2.68,-23.07 0.6,-3.41 1.25,-6.48 2.04,-9.05 l 0.27,-0.76 h -48.372 c 2.519,7.72 3.949,20.94 4.828,32.51 m 139.054,-32.51 c -0.36,0.88 -0.74,1.99 -1.1,3.38 -1.84,7.13 -3.17,19.7 -4.07,32.04 H 1207 l 2.73,-35.42 z m 11.57,74.44 1.43,47.06 48.6,7.28 h -48.39 l -2.58,0.9 c -2.03,0.72 -3.9,1.5 -5.4,2.4 -0.96,0.57 -1.75,1.61 -2.35,3.41 -0.6,1.78 -0.87,4.18 -0.87,6.69 0,3.54 0.52,7.27 1.05,10.09 l 0.36,1.7 h 40.61 41.67 c 0.62,-2.88 1.41,-7.44 1.4,-11.79 0.01,-2.51 -0.28,-4.91 -0.87,-6.69 -0.61,-1.8 -1.4,-2.84 -2.36,-3.41 -1.96,-1.18 -4.41,-2.18 -6.97,-2.97 l -2.81,-0.85 2.89,-54.07 -7.14,-7.94 h 7.06 l 1.48,-19.21 h -16.97 l -1.29,9.75 9.72,0.36 c 0,0 -22.94,13.27 -36.38,34.05 -4.01,-10.73 -13.47,-19.67 -22.17,-26.04 l 0.16,5.26 h 3.73 z m -81.25,-46.52 c -6.25,0 -11.32,-3.52 -11.32,-7.89 v -20.03 h -9.19 l -0.81,2.22 c -2.22,7.2 -3.74,20.75 -4.69,33.2 h 52.38 c -0.53,-8.18 -1.21,-16.52 -2.11,-23.36 -0.48,-3.66 -1.02,-6.91 -1.6,-9.45 -0.23,-1.02 -0.48,-1.84 -0.73,-2.61 h -10.61 v 20.03 c 0,4.37 -5.07,7.89 -11.32,7.89 m 200.07,-29.31 -0.83,1.07 c -1.92,2.52 -6.83,9.25 -11.28,17.66 -4.47,8.4 -8.42,18.5 -8.73,27.4 -0.28,7.45 -0.36,12.78 -0.36,16.54 0,2.15 0.03,3.74 0.07,4.97 h 15.3 l -16.71,18.58 c 0,0 -2.74,3.89 -2.88,6.48 -0.14,2.59 -7.78,33.69 -7.78,33.69 0,0 -7.62,-31.1 -7.77,-33.69 -0.15,-2.59 -2.88,-6.48 -2.88,-6.48 l -2.47,-2.75 -2.19,40.86 c 2.02,0.76 4.02,1.6 5.85,2.71 2.95,1.76 4.68,4.61 5.63,7.5 0.94,2.91 1.24,6 1.24,9.03 0,4.38 -0.63,8.65 -1.24,11.79 h 11.61 l -37.2,34.38 c 0,0 -6.09,7.21 -6.42,11.99 -0.32,4.81 -17.32,62.38 -17.32,62.38 0,0 -16.99,-57.57 -17.31,-62.38 -0.33,-4.78 -6.42,-11.99 -6.42,-11.99 l -37.21,-34.38 h 12.66 c -0.61,-3.14 -1.23,-7.41 -1.24,-11.79 0.01,-3.03 0.29,-6.12 1.25,-9.03 0.94,-2.89 2.66,-5.74 5.61,-7.5 h 0.01 c 1.34,-0.81 2.78,-1.31 4.19,-1.89 l -1.26,-41.25 -13.3,14.8 c 0,0 -3.95,5.61 -4.17,9.36 -0.2,3.75 -11.25,48.75 -11.25,48.75 0,0 -11.03,-45 -11.25,-48.75 -0.2,-3.75 -4.16,-9.36 -4.16,-9.36 l -24.17,-26.89 h 18.24 v -20.83 h -2.29 l -21.78,13.54 -20.55,-13.54 h -3.2 v 13.54 h 13.96 l -24.17,26.87 c 0,0 -3.96,5.63 -4.16,9.38 -0.22,3.75 -11.25,48.75 -11.25,48.75 0,0 -11.052,-45 -11.255,-48.75 -0.219,-3.75 -4.168,-9.38 -4.168,-9.38 l -24.172,-26.87 h 14.332 l -1.019,-13.54 h -17.07 l -23.512,-57.09 h 321.364"
         style="fill:#231f20;fill-opacity:1;fill-rule:nonzero;stroke:none"
         id="path448" />
      <path
         d="m 995.07,6816.26 h 3.53906 v 12.5 H 995.07 Z"
         style="fill:#231f20;fill-opacity:1;fill-rule:nonzero;stroke:none"
         id="path450" />
      <path
         d="m 1000.07,6816.26 h 3.5391 v 12.5 h -3.5391 z"
         style="fill:#231f20;fill-opacity:1;fill-rule:nonzero;stroke:none"
         id="path452" />
      <path
         d="m 1005,6816.26 h 3.5391 v 12.5 H 1005 Z"
         style="fill:#231f20;fill-opacity:1;fill-rule:nonzero;stroke:none"
         id="path454" />
      <path
         d="m 1103.33,6816.26 h 3.543 v 12.5 h -3.543 z"
         style="fill:#231f20;fill-opacity:1;fill-rule:nonzero;stroke:none"
         id="path456" />
      <path
         d="m 1108.25,6816.26 h 3.5391 v 12.5 h -3.5391 z"
         style="fill:#231f20;fill-opacity:1;fill-rule:nonzero;stroke:none"
         id="path458" />
      <path
         d="m 1189.32,6873.85 h 3.5391 v 12.5 h -3.5391 z"
         style="fill:#231f20;fill-opacity:1;fill-rule:nonzero;stroke:none"
         id="path460" />
      <path
         d="m 1223.15,6821.62 h 3.543 v 12.5 h -3.543 z"
         style="fill:#231f20;fill-opacity:1;fill-rule:nonzero;stroke:none"
         id="path462" />
      <path
         d="m 1157.49,6818.54 h 3.543 v 12.5 h -3.543 z"
         style="fill:#231f20;fill-opacity:1;fill-rule:nonzero;stroke:none"
         id="path464" />
      <path
         d="m 1162.41,6818.54 h 3.5391 v 12.5 h -3.5391 z"
         style="fill:#231f20;fill-opacity:1;fill-rule:nonzero;stroke:none"
         id="path466" />
      <path
         d="m 1134.86,6908.13 h 3.5391 v 12.5 h -3.5391 z"
         style="fill:#231f20;fill-opacity:1;fill-rule:nonzero;stroke:none"
         id="path468" />
      <path
         d="m 1139.79,6908.13 h 3.5391 v 12.5 h -3.5391 z"
         style="fill:#231f20;fill-opacity:1;fill-rule:nonzero;stroke:none"
         id="path470" />
      <path
         d="m 1195.38,6908.13 h 3.543 v 12.5 h -3.543 z"
         style="fill:#231f20;fill-opacity:1;fill-rule:nonzero;stroke:none"
         id="path472" />
      <path
         d="m 1200.38,6908.13 h 3.543 v 12.5 h -3.543 z"
         style="fill:#231f20;fill-opacity:1;fill-rule:nonzero;stroke:none"
         id="path474" />
      <path
         d="m 1205.3,6908.13 h 3.5391 v 12.5 H 1205.3 Z"
         style="fill:#231f20;fill-opacity:1;fill-rule:nonzero;stroke:none"
         id="path476" />
      <path
         d="m 1174.24,6908.13 h 3.543 v 12.5 h -3.543 z"
         style="fill:#231f20;fill-opacity:1;fill-rule:nonzero;stroke:none"
         id="path478" />
      <path
         d="m 1179.24,6908.13 h 3.543 v 12.5 h -3.543 z"
         style="fill:#231f20;fill-opacity:1;fill-rule:nonzero;stroke:none"
         id="path480" />
      <path
         d="m 1184.16,6908.13 h 3.5508 v 12.5 h -3.5508 z"
         style="fill:#231f20;fill-opacity:1;fill-rule:nonzero;stroke:none"
         id="path482" />
      <path
         d="m 1146.69,6856.83 h 3.5391 v 12.5 h -3.5391 z"
         style="fill:#231f20;fill-opacity:1;fill-rule:nonzero;stroke:none"
         id="path484" />
    </g>
  </g>
</svg>
