<?xml version="1.0" encoding="UTF-8" standalone="no"?>
<!-- Created with Inkscape (http://www.inkscape.org/) -->

<svg
   version="1.1"
   id="svg2"
   width="42.250656"
   height="36.110672"
   viewBox="0 0 42.250656 36.11067"
   xmlns="http://www.w3.org/2000/svg"
   xmlns:svg="http://www.w3.org/2000/svg">
  <defs
     id="defs6" />
  <g
     id="g10"
     transform="matrix(1.3333333,0,0,-1.3333333,-243.67333,937.20665)">
    <g
       id="g12"
       transform="scale(0.1)">
      <path
         d="m 1874.04,6861.39 h 3.5391 v -12.5 h -3.5391 z m 0.7,61.83 h 3.543 v -12.5 h -3.543 z m 4.22,-61.83 h 3.5391 v -12.5 h -3.5391 z m 0.78,61.83 h 3.543 v -12.5 h -3.543 z m 4.92,0 h 3.5391 v -12.5 h -3.5391 z m 19.67,-69.8 v 31.59 c -8.81,0.35 -16.58,1.45 -19.17,4.05 l 14.72,9.66 -2.86,30.07 c -8.13,-0.41 -17.91,-0.81 -26.6,-0.88 l 0.57,-51.12 -5.16,-46.41 c 17.03,8.5 34.19,17.87 38.5,23.04"
         style="fill:#ffffff;fill-opacity:1;fill-rule:nonzero;stroke:none"
         id="path856" />
      <path
         d="m 1959.42,6785.93 h -3.543 v 12.5 h 3.543 z m 1.39,12.5 h 3.543 v -12.5 h -3.543 z m 14.53,-15.92 h 3.5391 v -12.5 h -3.5391 z m 5,0 h 3.5391 v -12.5 h -3.5391 z m 4.92,0 h 3.5391 v -12.5 h -3.5391 z m 15.94,-16.79 -6.93,37.7 c -12.65,-0.39 -29.28,-0.71 -42.79,-0.33 l -6.09,-37.37"
         style="fill:#ffffff;fill-opacity:1;fill-rule:nonzero;stroke:none"
         id="path858" />
      <path
         d="m 1863.51,6804.68 h 3.5391 v -12.5 h -3.5391 z m -10.24,-38.96 h 15.29 v 8.45 c 0,2.15 1.75,3.89 3.9,3.89 2.15,0 3.9,-1.74 3.9,-3.89 v -8.45 h 9.68 c -0.1,1.44 -0.31,2.72 -0.31,4.31 0.01,14.26 3.69,34.47 6.1,46.2 l -29.72,-1.82 c -1.01,-2.26 -2.24,-5.19 -3.5,-8.9 -2.87,-8.41 -5.73,-20.12 -5.72,-33.13 0,-2.16 0.21,-4.42 0.38,-6.66"
         style="fill:#ffffff;fill-opacity:1;fill-rule:nonzero;stroke:none"
         id="path860" />
      <path
         d="m 1919.97,6882.43 h 3.543 v -12.5 h -3.543 z m -1.39,-12.5 h -3.543 v 12.5 h 3.543 z m 19.59,16.11 c 0,0 -14.76,-1.32 -28.84,-1.16 v -29.36 c 6.92,0.51 12.91,2.7 12.91,2.7"
         style="fill:#ffffff;fill-opacity:1;fill-rule:nonzero;stroke:none"
         id="path862" />
      <path
         d="m 2110.35,6782.51 h 3.5391 v -12.5 h -3.5391 z m 4.92,0 h 3.5391 v -12.5 h -3.5391 z m -6.37,-12.5 h -3.5391 v 12.5 h 3.5391 z m -20.09,0 h -3.5391 v 12.5 h 3.5391 z m -4.92,0 h -3.5391 v 12.5 h 3.5391 z m -5,0 h -3.5391 v 12.5 h 3.5391 z m -20.08,0 h -3.5391 v 12.5 h 3.5391 z m -4.92,0 h -3.5391 v 12.5 h 3.5391 z m -5,0 h -3.5391 v 12.5 h 3.5391 z m -15.85,31.65 h -3.5391 v 12.5 h 3.5391 z m -4.23,-31.65 h -3.5391 v 12.5 h 3.5391 z m -4.23,44.15 h 3.543 v -12.5 h -3.543 z m -0.69,-44.15 h -3.5391 v 12.5 h 3.5391 z m -5,0 h -3.5391 v 12.5 h 3.5391 z m -24.59,99.92 h -3.5391 v 12.5 h 3.5391 z m -1.77,-37.97 h -3.543 v 12.5 h 3.543 z m -6.7,50.47 h 3.543 v -12.5 h -3.543 z m -1.46,-12.5 h -3.543 v 12.5 h 3.543 z m -10.1,-27.29 h -3.5391 v 12.5 h 3.5391 z m -4.92,0 h -3.543 v 12.5 h 3.543 z m -5,0 h -3.543 v 12.5 h 3.543 z m -50.8,-47.23 h -3.5391 v 12.5 h 3.5391 z m 0,-23.6 h -3.5391 v 12.5 h 3.5391 z m -4.92,23.6 h -3.5391 v 12.5 h 3.5391 z m -5,0 h -3.5391 v 12.5 h 3.5391 z m 149.87,21.88 h 3.5391 v -12.5 H 2053.5 Z m -8.76,-23.03 h 59.91 l -6.53,29.34 c -43.02,-1.37 -98.07,-0.38 -98.07,-0.38 v 24.38 l 18.29,7.55 c -1.28,5.74 -2.47,14.71 -2.47,28.63 0,1.83 0.04,3.82 0.08,5.83 l -41.42,-4.93 -1.25,-16.46 -19.48,-2.5 -4.06,-45.93 -52.74,-3.24 c -0.68,-3.24 -1.47,-7.24 -2.27,-11.69 -2.02,-11.11 -4.01,-24.82 -4,-34.83 -0.01,-1.54 0.05,-2.97 0.15,-4.31 h 28.4 v 17.48 c 0,3.81 3.09,6.9 6.9,6.9 3.8,0 6.9,-3.09 6.9,-6.9 v -17.48 h 7.24 l 6.13,37.55 c -4.37,0.2 -8.32,0.48 -11.4,0.89 5.15,4.39 41.87,27.5 41.87,27.5 3.75,-6.25 36.57,-27.5 36.57,-27.5 0,0 -5.71,-0.28 -14.16,-0.57 l 6.95,-37.87 h 125.96 v 16.11 l -24.38,8.68"
         style="fill:#ffffff;fill-opacity:1;fill-rule:nonzero;stroke:none"
         id="path864" />
      <path
         d="m 2074.01,6853.81 h -3.543 v 12.5 h 3.543 z m -29.27,17.46 h -3.5391 v 12.5 h 3.5391 z m -4.93,0 h -3.5391 v 12.5 h 3.5391 z m -5,0 h -3.5391 v 12.5 h 3.5391 z m 48.34,18.03 c -29.06,-0.18 -57.79,1.42 -57.79,1.42 l -4.4,-0.52 c -0.05,-2.23 -0.09,-4.4 -0.09,-6.42 0,-12.92 1.05,-21.34 2.16,-26.7 l 21.71,8.96 c 0,0 12.82,-8.1 32.01,-16.99 0.62,2.72 1.28,5.7 1.97,9 2.23,10.68 4.42,23.49 4.43,31.25"
         style="fill:#ffffff;fill-opacity:1;fill-rule:nonzero;stroke:none"
         id="path866" />
      <path
         d="m 2132.23,6765.72 h -125.95 l -6.96,37.87 c 8.47,0.29 14.16,0.57 14.16,0.57 0,0 -32.8,21.25 -36.55,27.5 0,0 -36.73,-23.11 -41.88,-27.5 3.09,-0.41 7.02,-0.7 11.4,-0.89 l -6.13,-37.55 h -7.25 v 17.48 c 0,3.82 -3.09,6.91 -6.88,6.91 -3.81,0 -6.91,-3.09 -6.91,-6.91 v -17.48 h -28.4 c -0.1,1.33 -0.15,2.77 -0.15,4.32 0,10 1.98,23.7 4,34.82 0.8,4.45 1.59,8.45 2.27,11.69 l 52.73,3.24 4.07,45.93 19.48,2.5 1.25,16.46 41.43,4.93 c -0.05,-2 -0.09,-4 -0.09,-5.84 0.01,-13.91 1.18,-22.89 2.47,-28.63 l -18.29,-7.53 v -24.39 c 0,0 55.05,-0.99 98.07,0.39 l 6.52,-29.34 h -59.91 l 63.13,-3.75 24.37,-8.69 z m -137.95,37.71 6.92,-37.71 h -55.81 l 6.09,37.36 c 13.5,-0.37 30.14,-0.04 42.8,0.35 m -84.96,81.45 c 14.09,-0.17 28.86,1.16 28.86,1.16 l -15.95,-27.82 c 0,0 -5.98,-2.18 -12.91,-2.7 z m 181.11,0.21 5.67,4.4 c 1.36,0.05 2.69,0.1 4.04,0.15 l -9.89,-7.68 c 0.11,1.12 0.11,2.08 0.18,3.13 m -13.68,-36.04 c -19.2,8.9 -32.02,16.99 -32.02,16.99 l -21.69,-8.96 c -1.11,5.35 -2.17,13.78 -2.17,26.69 0,2.02 0.04,4.19 0.09,6.43 l 4.4,0.52 c 0,0 28.73,-1.59 57.8,-1.43 -0.02,-7.75 -2.2,-20.57 -4.45,-31.25 -0.67,-3.3 -1.34,-6.27 -1.96,-8.99 m 29.46,-27.3 2.93,2.27 c 1.39,0.06 2.75,0.12 4.09,0.19 l -6.45,-5.01 z m -235.78,106.16 c 8.69,0.07 18.46,0.47 26.59,0.88 l 2.86,-30.07 -14.72,-9.67 c 2.6,-2.59 10.37,-3.69 19.16,-4.05 v -31.57 c -4.3,-5.19 -21.46,-14.55 -38.48,-23.05 l 5.14,46.41 z m -8.32,-113.5 29.71,1.82 c -2.4,-11.73 -6.07,-31.94 -6.09,-46.19 0,-1.59 0.21,-2.88 0.31,-4.32 h -9.68 v 8.44 c 0,2.16 -1.75,3.9 -3.9,3.9 -2.14,0 -3.89,-1.74 -3.89,-3.9 v -8.44 h -15.29 c -0.18,2.24 -0.39,4.49 -0.39,6.66 -0.01,13.01 2.86,24.71 5.73,33.14 1.26,3.7 2.48,6.63 3.49,8.89 m 246.47,-3.3 18.01,13.97 c 7.84,0.64 14.09,1.47 17.84,2.51 -21.72,3.11 -43.23,10.7 -60.7,18.31 0.71,3.07 1.52,6.71 2.34,10.62 0.97,4.75 1.93,9.84 2.73,14.84 l 24.46,18.96 c 8.29,0.63 15.58,1.54 20.85,2.9 -12.86,2.37 -38.57,19.53 -59.78,36.52 v 32.65 h -33.1 c -0.13,0.34 -0.41,0.76 -0.45,1.04 -1.87,11.04 -44.58,65.62 -44.58,65.62 l -32.29,-82.91 c 0,0 -17.29,-32.71 -24.18,-32.71 -6.86,0 -13.32,41.04 -13.32,41.04 l -13.96,-47.5 -5.49,-3.59 -2.44,25.82 c 5.6,0.32 9.28,0.59 9.28,0.59 l -16.25,23.43 -12.18,52.19 c 0,0 -24.64,-70.94 -36.23,-75.62 1.24,-1.16 6.65,-1.68 13.78,-1.84 l 0.56,-50.79 -5.62,-50.71 c -16.19,-7.87 -30.31,-14.16 -30.31,-14.16 l 26.18,1.6 c -3.59,-8.91 -8.32,-23.93 -8.34,-41.51 0,-3.52 0.18,-7.15 0.63,-10.84 l 0.39,-3.32 h 3.32 290 v 28.91 l -28.03,9.98"
         style="fill:#231f20;fill-opacity:1;fill-rule:nonzero;stroke:none"
         id="path868" />
      <path
         d="m 1980.83,6869.93 h 3.543 v 12.5 h -3.543 z"
         style="fill:#231f20;fill-opacity:1;fill-rule:nonzero;stroke:none"
         id="path870" />
      <path
         d="m 1985.83,6869.93 h 3.543 v 12.5 h -3.543 z"
         style="fill:#231f20;fill-opacity:1;fill-rule:nonzero;stroke:none"
         id="path872" />
      <path
         d="m 1990.75,6869.93 h 3.5391 v 12.5 h -3.5391 z"
         style="fill:#231f20;fill-opacity:1;fill-rule:nonzero;stroke:none"
         id="path874" />
      <path
         d="m 2031.28,6871.27 h 3.5391 v 12.5 h -3.5391 z"
         style="fill:#231f20;fill-opacity:1;fill-rule:nonzero;stroke:none"
         id="path876" />
      <path
         d="m 2036.28,6871.27 h 3.5391 v 12.5 h -3.5391 z"
         style="fill:#231f20;fill-opacity:1;fill-rule:nonzero;stroke:none"
         id="path878" />
      <path
         d="m 2041.2,6871.27 h 3.5391 v 12.5 H 2041.2 Z"
         style="fill:#231f20;fill-opacity:1;fill-rule:nonzero;stroke:none"
         id="path880" />
      <path
         d="m 1960.81,6842.64 h 3.543 v 12.5 h -3.543 z"
         style="fill:#231f20;fill-opacity:1;fill-rule:nonzero;stroke:none"
         id="path882" />
      <path
         d="m 1965.81,6842.64 h 3.543 v 12.5 h -3.543 z"
         style="fill:#231f20;fill-opacity:1;fill-rule:nonzero;stroke:none"
         id="path884" />
      <path
         d="m 1970.73,6842.64 h 3.5391 v 12.5 h -3.5391 z"
         style="fill:#231f20;fill-opacity:1;fill-rule:nonzero;stroke:none"
         id="path886" />
      <path
         d="m 1874.74,6910.72 h 3.543 v 12.5 h -3.543 z"
         style="fill:#231f20;fill-opacity:1;fill-rule:nonzero;stroke:none"
         id="path888" />
      <path
         d="m 1879.74,6910.72 h 3.543 v 12.5 h -3.543 z"
         style="fill:#231f20;fill-opacity:1;fill-rule:nonzero;stroke:none"
         id="path890" />
      <path
         d="m 1884.66,6910.72 h 3.5391 v 12.5 h -3.5391 z"
         style="fill:#231f20;fill-opacity:1;fill-rule:nonzero;stroke:none"
         id="path892" />
      <path
         d="m 1900.09,6795.41 h 3.5391 v 12.5 h -3.5391 z"
         style="fill:#231f20;fill-opacity:1;fill-rule:nonzero;stroke:none"
         id="path894" />
      <path
         d="m 1905.09,6795.41 h 3.5391 v 12.5 h -3.5391 z"
         style="fill:#231f20;fill-opacity:1;fill-rule:nonzero;stroke:none"
         id="path896" />
      <path
         d="m 1910.01,6795.41 h 3.5391 v 12.5 h -3.5391 z"
         style="fill:#231f20;fill-opacity:1;fill-rule:nonzero;stroke:none"
         id="path898" />
      <path
         d="m 2105.35,6770.01 h 3.5391 v 12.5 h -3.5391 z"
         style="fill:#231f20;fill-opacity:1;fill-rule:nonzero;stroke:none"
         id="path900" />
      <path
         d="m 2110.36,6770.01 h 3.5391 v 12.5 h -3.5391 z"
         style="fill:#231f20;fill-opacity:1;fill-rule:nonzero;stroke:none"
         id="path902" />
      <path
         d="m 2115.28,6770.01 h 3.5391 v 12.5 h -3.5391 z"
         style="fill:#231f20;fill-opacity:1;fill-rule:nonzero;stroke:none"
         id="path904" />
      <path
         d="m 2075.35,6770.01 h 3.5391 v 12.5 h -3.5391 z"
         style="fill:#231f20;fill-opacity:1;fill-rule:nonzero;stroke:none"
         id="path906" />
      <path
         d="m 2080.35,6770.01 h 3.5391 v 12.5 h -3.5391 z"
         style="fill:#231f20;fill-opacity:1;fill-rule:nonzero;stroke:none"
         id="path908" />
      <path
         d="m 2085.27,6770.01 h 3.5391 v 12.5 h -3.5391 z"
         style="fill:#231f20;fill-opacity:1;fill-rule:nonzero;stroke:none"
         id="path910" />
      <path
         d="m 2045.35,6770.01 h 3.5391 v 12.5 h -3.5391 z"
         style="fill:#231f20;fill-opacity:1;fill-rule:nonzero;stroke:none"
         id="path912" />
      <path
         d="m 2050.35,6770.01 h 3.5391 v 12.5 h -3.5391 z"
         style="fill:#231f20;fill-opacity:1;fill-rule:nonzero;stroke:none"
         id="path914" />
      <path
         d="m 2055.27,6770.01 h 3.5391 v 12.5 h -3.5391 z"
         style="fill:#231f20;fill-opacity:1;fill-rule:nonzero;stroke:none"
         id="path916" />
      <path
         d="m 2015.34,6770.01 h 3.5391 v 12.5 h -3.5391 z"
         style="fill:#231f20;fill-opacity:1;fill-rule:nonzero;stroke:none"
         id="path918" />
      <path
         d="m 2020.34,6770.01 h 3.5391 v 12.5 h -3.5391 z"
         style="fill:#231f20;fill-opacity:1;fill-rule:nonzero;stroke:none"
         id="path920" />
      <path
         d="m 2025.26,6770.01 h 3.5391 v 12.5 h -3.5391 z"
         style="fill:#231f20;fill-opacity:1;fill-rule:nonzero;stroke:none"
         id="path922" />
      <path
         d="m 1975.35,6770.01 h 3.5391 v 12.5 h -3.5391 z"
         style="fill:#231f20;fill-opacity:1;fill-rule:nonzero;stroke:none"
         id="path924" />
      <path
         d="m 1980.35,6770.01 h 3.5391 v 12.5 h -3.5391 z"
         style="fill:#231f20;fill-opacity:1;fill-rule:nonzero;stroke:none"
         id="path926" />
      <path
         d="m 1985.27,6770.01 h 3.5391 v 12.5 h -3.5391 z"
         style="fill:#231f20;fill-opacity:1;fill-rule:nonzero;stroke:none"
         id="path928" />
      <path
         d="m 2024.58,6801.66 h 3.543 v 12.5 h -3.543 z"
         style="fill:#231f20;fill-opacity:1;fill-rule:nonzero;stroke:none"
         id="path930" />
      <path
         d="m 2029.5,6801.66 h 3.5391 v 12.5 H 2029.5 Z"
         style="fill:#231f20;fill-opacity:1;fill-rule:nonzero;stroke:none"
         id="path932" />
      <path
         d="m 1955.88,6785.93 h 3.543 v 12.5 h -3.543 z"
         style="fill:#231f20;fill-opacity:1;fill-rule:nonzero;stroke:none"
         id="path934" />
      <path
         d="m 1960.81,6785.93 h 3.543 v 12.5 h -3.543 z"
         style="fill:#231f20;fill-opacity:1;fill-rule:nonzero;stroke:none"
         id="path936" />
      <path
         d="m 1915.05,6869.93 h 3.5391 v 12.5 h -3.5391 z"
         style="fill:#231f20;fill-opacity:1;fill-rule:nonzero;stroke:none"
         id="path938" />
      <path
         d="m 1919.97,6869.93 h 3.543 v 12.5 h -3.543 z"
         style="fill:#231f20;fill-opacity:1;fill-rule:nonzero;stroke:none"
         id="path940" />
      <path
         d="m 1874.05,6848.89 h 3.5391 v 12.5 h -3.5391 z"
         style="fill:#231f20;fill-opacity:1;fill-rule:nonzero;stroke:none"
         id="path942" />
      <path
         d="m 1878.97,6848.89 h 3.543 v 12.5 h -3.543 z"
         style="fill:#231f20;fill-opacity:1;fill-rule:nonzero;stroke:none"
         id="path944" />
      <path
         d="m 2070.47,6853.81 h 3.543 v 12.5 h -3.543 z"
         style="fill:#231f20;fill-opacity:1;fill-rule:nonzero;stroke:none"
         id="path946" />
      <path
         d="m 1988.98,6831.96 h 3.5391 v 12.5 h -3.5391 z"
         style="fill:#231f20;fill-opacity:1;fill-rule:nonzero;stroke:none"
         id="path948" />
      <path
         d="m 2053.5,6804.79 h 3.5391 v 12.5 H 2053.5 Z"
         style="fill:#231f20;fill-opacity:1;fill-rule:nonzero;stroke:none"
         id="path950" />
      <path
         d="m 1863.51,6792.18 h 3.5391 v 12.5 h -3.5391 z"
         style="fill:#231f20;fill-opacity:1;fill-rule:nonzero;stroke:none"
         id="path952" />
      <path
         d="m 1910.01,6771.81 h 3.5391 v 12.5 h -3.5391 z"
         style="fill:#231f20;fill-opacity:1;fill-rule:nonzero;stroke:none"
         id="path954" />
    </g>
  </g>
</svg>
