<?xml version="1.0" encoding="UTF-8" standalone="no"?>
<!-- Created with Inkscape (http://www.inkscape.org/) -->

<svg
   version="1.1"
   id="svg2"
   width="41.727997"
   height="47.541325"
   viewBox="0 0 41.727997 47.541323"
   xmlns="http://www.w3.org/2000/svg"
   xmlns:svg="http://www.w3.org/2000/svg">
  <defs
     id="defs6" />
  <g
     id="g10"
     transform="matrix(1.3333333,0,0,-1.3333333,-403.01865,725.89996)">
    <g
       id="g12"
       transform="scale(0.1)">
      <path
         d="m 3081.6,5236.09 h -3.543 v 12.5 h 3.543 z m 17.18,-3.82 c -0.16,1.53 -0.41,3.01 -0.41,4.62 -0.01,5.26 1.15,10.91 3.75,16.43 h -23.23 -23.25 c 1.93,-5.41 4.2,-13.07 5.4,-21.05"
         style="fill:#ffffff;fill-opacity:1;fill-rule:nonzero;stroke:none"
         id="path2508" />
      <path
         d="m 3296.18,5101.73 h -3.5391 v 12.5 h 3.5391 z m -4.92,0 h -3.543 v 12.5 h 3.543 z m -92.56,0 h -3.5391 v 12.5 h 3.5391 z m -17.51,53.88 h -3.543 v 12.5 h 3.543 z m -4.92,0 h -3.5391 v 12.5 h 3.5391 z m -5,0 h -3.5391 v 12.5 h 3.5391 z m -20.48,-53.88 h -3.5391 v 12.5 h 3.5391 z m -4.92,0 h -3.5391 v 12.5 h 3.5391 z m -19.8,22.37 h -3.5391 v 12.5 h 3.5391 z m -19.16,-22.37 h -3.5391 v 12.5 h 3.5391 z m -4.92,0 h -3.5391 v 12.5 h 3.5391 z m -5,0 h -3.5391 v 12.5 h 3.5391 z m 212.77,14.86 c -27.91,-0.86 -68.61,-2.13 -70.25,-2.34 -2.5,-0.31 -12.19,2.5 -29.37,7.19 -17.19,4.69 -20.63,52.19 -20.63,52.19 0,0 -30.94,0.31 -40.94,0 -10,-0.31 -9.68,-18.44 -28.12,-25 -9.56,-3.4 -25.91,-0.58 -39.45,2.92 -0.44,-3.25 -0.73,-6.69 -0.73,-10.37 -0.01,-17.04 4.25,-36.96 6.44,-45.99 h 73.95 v 17.03 c 0,3.81 3.09,6.9 6.9,6.9 3.81,0 6.89,-3.09 6.89,-6.9 v -17.03 h 124.07 c 2.34,0.71 4.14,1.95 5.64,3.71 1.56,1.84 2.78,4.26 3.65,6.89 1.23,3.66 1.74,7.63 1.95,10.8"
         style="fill:#ffffff;fill-opacity:1;fill-rule:nonzero;stroke:none"
         id="path2510" />
      <path
         d="m 3100.37,5223.57 c -0.33,1.2 -0.64,2.42 -0.91,3.7 h -37.84 c 0.1,-1.24 0.21,-2.47 0.22,-3.7"
         style="fill:#ffffff;fill-opacity:1;fill-rule:nonzero;stroke:none"
         id="path2512" />
      <path
         d="m 3049.8,5209.69 h 3.5391 v -12.5 H 3049.8 Z m 4.93,0 h 3.5391 v -12.5 h -3.5391 z m 5.31,-76.67 h -3.5391 v 12.5 h 3.5391 z m 21.53,-37.83 c -2.29,9.67 -6.29,28.89 -6.3,45.99 0,4.08 0.35,7.96 0.9,11.67 -10.23,2.89 -17.91,5.78 -17.91,5.78 0,0 43.75,15.94 58.13,18.75 3.12,0.61 8.45,5.74 14.91,13.38 0.13,1.32 0.2,2.63 0.2,3.94 0.03,10.25 -3.73,19.71 -5.68,23.87 h -79.22 c -5.47,-26.36 -7.59,-47.57 -7.59,-64.29 0.06,-41.27 12.15,-55.87 15.38,-59.09"
         style="fill:#ffffff;fill-opacity:1;fill-rule:nonzero;stroke:none"
         id="path2514" />
      <path
         d="m 3287.71,5101.73 h 3.5391 v 12.5 h -3.5391 z"
         style="fill:#231f20;fill-opacity:1;fill-rule:nonzero;stroke:none"
         id="path2516" />
      <path
         d="m 3292.64,5101.73 h 3.5391 v 12.5 h -3.5391 z"
         style="fill:#231f20;fill-opacity:1;fill-rule:nonzero;stroke:none"
         id="path2518" />
      <path
         d="m 3122.54,5124.1 h 3.5391 v 12.5 h -3.5391 z"
         style="fill:#231f20;fill-opacity:1;fill-rule:nonzero;stroke:none"
         id="path2520" />
      <path
         d="m 3167.72,5155.61 h 3.543 v 12.5 h -3.543 z"
         style="fill:#231f20;fill-opacity:1;fill-rule:nonzero;stroke:none"
         id="path2522" />
      <path
         d="m 3172.72,5155.61 h 3.543 v 12.5 h -3.543 z"
         style="fill:#231f20;fill-opacity:1;fill-rule:nonzero;stroke:none"
         id="path2524" />
      <path
         d="m 3177.65,5155.61 h 3.543 v 12.5 h -3.543 z"
         style="fill:#231f20;fill-opacity:1;fill-rule:nonzero;stroke:none"
         id="path2526" />
      <path
         d="m 3142.32,5101.73 h 3.5391 v 12.5 h -3.5391 z"
         style="fill:#231f20;fill-opacity:1;fill-rule:nonzero;stroke:none"
         id="path2528" />
      <path
         d="m 3147.25,5101.73 h 3.5391 v 12.5 h -3.5391 z"
         style="fill:#231f20;fill-opacity:1;fill-rule:nonzero;stroke:none"
         id="path2530" />
      <path
         d="m 3056.49,5133.02 h 3.543 v 12.5 h -3.543 z"
         style="fill:#231f20;fill-opacity:1;fill-rule:nonzero;stroke:none"
         id="path2532" />
      <path
         d="m 3093.45,5101.73 h 3.5391 v 12.5 h -3.5391 z"
         style="fill:#231f20;fill-opacity:1;fill-rule:nonzero;stroke:none"
         id="path2534" />
      <path
         d="m 3098.45,5101.73 h 3.5391 v 12.5 h -3.5391 z"
         style="fill:#231f20;fill-opacity:1;fill-rule:nonzero;stroke:none"
         id="path2536" />
      <path
         d="m 3103.37,5101.73 h 3.5391 v 12.5 h -3.5391 z"
         style="fill:#231f20;fill-opacity:1;fill-rule:nonzero;stroke:none"
         id="path2538" />
      <path
         d="m 3049.8,5197.19 h 3.5391 v 12.5 H 3049.8 Z"
         style="fill:#231f20;fill-opacity:1;fill-rule:nonzero;stroke:none"
         id="path2540" />
      <path
         d="m 3054.72,5197.19 h 3.543 v 12.5 h -3.543 z"
         style="fill:#231f20;fill-opacity:1;fill-rule:nonzero;stroke:none"
         id="path2542" />
      <path
         d="m 3078.06,5236.09 h 3.543 v 12.5 h -3.543 z"
         style="fill:#231f20;fill-opacity:1;fill-rule:nonzero;stroke:none"
         id="path2544" />
      <path
         d="m 3195.17,5101.73 h 3.5352 v 12.5 h -3.5352 z"
         style="fill:#231f20;fill-opacity:1;fill-rule:nonzero;stroke:none"
         id="path2546" />
      <path
         d="m 3046.6,5218.57 h 79.22 c 1.95,-4.16 5.71,-13.62 5.68,-23.87 0,-1.31 -0.08,-2.62 -0.2,-3.94 -6.46,-7.64 -11.79,-12.77 -14.91,-13.38 -14.38,-2.81 -58.13,-18.75 -58.13,-18.75 0,0 7.68,-2.89 17.91,-5.78 -0.55,-3.71 -0.9,-7.59 -0.9,-11.67 0.01,-17.1 4.01,-36.32 6.3,-45.99 h -27.18 c -3.23,3.22 -15.32,17.82 -15.38,59.09 0,16.72 2.12,37.93 7.59,64.29 m 52.86,8.7 c 0.26,-1.28 0.58,-2.5 0.91,-3.7 h -38.53 c -0.02,1.23 -0.12,2.46 -0.22,3.7 z m -20.57,26.05 h 23.23 c -2.6,-5.52 -3.76,-11.17 -3.75,-16.43 0,-1.61 0.25,-3.09 0.41,-4.62 h -37.74 c -1.2,7.97 -3.47,15.64 -5.4,21.05 z m 219.62,-158.13 h -124.06 v 17.03 c 0,3.81 -3.08,6.9 -6.89,6.9 -3.81,0 -6.9,-3.09 -6.9,-6.9 v -17.03 h -73.95 c -2.19,9.03 -6.45,28.95 -6.44,45.99 0,3.68 0.29,7.12 0.72,10.37 13.55,-3.5 29.9,-6.32 39.46,-2.92 18.44,6.56 18.12,24.69 28.12,25 10,0.31 40.94,0 40.94,0 0,0 3.44,-47.5 20.63,-52.19 17.18,-4.69 26.87,-7.5 29.37,-7.19 1.64,0.21 42.33,1.48 70.24,2.34 -0.2,-3.17 -0.71,-7.14 -1.94,-10.8 -0.87,-2.63 -2.09,-5.05 -3.65,-6.89 -1.51,-1.77 -3.3,-3 -5.65,-3.71 m 37.09,22.19 c 0,0 -39.53,36.25 -41.4,48.12 -22.5,0.63 -48.75,14.38 -48.44,16.25 0.31,1.88 -49.37,96.88 -51.56,96.88 -1.55,0 -32.38,-48.81 -55.5,-78.67 -1.37,13.79 -7.37,24.32 -7.49,24.58 l -1.07,1.9 h -22.77 c -0.85,3.26 -1.5,6.76 -1.5,10.45 0.02,5.43 1.32,11.01 4.73,16.43 h 24.54 c -0.23,7.66 -12.58,13.18 -19.48,15.69 l -0.34,0.54 -2.36,1.71 c 6.44,2.66 26.83,13.05 10.61,32.99 -19.06,23.44 -44.68,140 -44.68,140 0,0 -25.63,-116.56 -44.69,-140 -19.06,-23.43 12.5,-33.71 12.5,-33.71 0,0 -23.75,-6.6 -24.06,-17.22 h 25.01 c 2.27,-6.04 5.8,-16.94 6.56,-26.88 h -13.66 l -0.64,-2.96 c -6.12,-28.43 -8.4,-51.13 -8.4,-69.2 -0.07,-50.77 18.21,-65.21 19.22,-65.87 l 1,-0.72 h 247.97 l 0.47,0.13 c 4.09,1.09 7.35,3.42 9.72,6.24 5.82,7.07 7.07,16.6 7.38,22.76 10.76,0.33 18.33,0.56 18.33,0.56"
         style="fill:#231f20;fill-opacity:1;fill-rule:nonzero;stroke:none"
         id="path2548" />
    </g>
  </g>
</svg>
