<?xml version="1.0" encoding="UTF-8" standalone="no"?>
<!-- John Grümph
     https://legrumph.org/Terrier/public/chibi/de-chorographia
     CC BY-NC 3.0
     https://creativecommons.org/licenses/by-nc/3.0/fr/ -->
<!-- Created with Inkscape (http://www.inkscape.org/) -->

<svg
   version="1.1"
   id="svg2"
   width="42.044434"
   height="31.887987"
   viewBox="0 0 42.044433 31.887986"
   xmlns="http://www.w3.org/2000/svg"
   xmlns:svg="http://www.w3.org/2000/svg">
  <defs
     id="defs6" />
  <g
     id="g10"
     transform="matrix(1.3333333,0,0,-1.3333333,-590.55597,932.9853)">
    <g
       id="g12"
       transform="scale(0.1)">
      <path
         d="m 4703.52,6773.22 h -3.5391 v 12.5 h 3.5391 z m 1.45,12.5 h 3.543 v -12.5 h -3.543 z m 4.92,0 h 3.5391 v -12.5 h -3.5391 z m 3.55,26.82 h 3.5391 v -12.5 h -3.5391 z m -64.25,-16.4 h -3.543 v 12.5 h 3.543 z m -4.92,0 h -3.5391 v 12.5 h 3.5391 z m -57.53,-22.92 h -3.5469 v 12.5 h 3.5469 z m -4.92,0 h -3.5391 v 12.5 h 3.5391 z m -5,0 h -3.5391 v 12.5 h 3.5391 z m 122.35,20.84 -40.42,2.08 c 0,0 2.92,22.92 -22.5,15.42 -8.75,-7.09 -7.5,-15.42 -7.5,-15.42 l -66.2,2.32 c -0.1,-6.77 -2.13,-15.81 -4.16,-23.42 -0.97,-3.63 -1.93,-6.86 -2.69,-9.32 h 164.29 l 0.36,0.9 c 0.78,2.01 1.83,4.9 2.87,8.32 2.1,6.83 4.15,15.82 4.14,24.12 0.01,5.92 -1.03,11.4 -3.51,15.6 -0.57,0.96 -1.1,1.77 -1.64,2.64 -10.41,-0.51 -20.54,-0.74 -20.54,-0.74"
         style="fill:#ffffff;fill-opacity:1;fill-rule:nonzero;stroke:none"
         id="path1686" />
      <path
         d="m 4489.56,6785.72 h 3.543 v -12.5 h -3.543 z m 4.92,0 h 3.5391 v -12.5 h -3.5391 z m 14.22,25.5 h 3.5391 v -12.5 H 4508.7 Z m 4.92,0 h 3.5391 v -12.5 h -3.5391 z m 10.44,45.59 h 3.543 v -12.5 h -3.543 z m 5,0 h 3.543 v -12.5 h -3.543 z m 4.92,0 h 3.5391 v -12.5 h -3.5391 z m 6.51,-79.71 h -3.5469 v 12.5 h 3.5469 z m 4.93,57.79 h 3.5352 v -12.5 h -3.5352 z m 22.43,21.92 h 3.5391 v -12.5 h -3.5391 z m 5,0 h 3.5391 v -12.5 h -3.5391 z m 4.92,0 h 3.5391 v -12.5 h -3.5391 z m -116.92,-91.09 h 56.32 v 17.57 c 0,3.81 3.08,6.9 6.89,6.9 3.81,0 6.9,-3.09 6.9,-6.9 v -17.57 h 19.5 c 0.78,2.47 1.91,6.18 3.1,10.61 2.01,7.46 3.97,16.48 4,22.3 l -12.14,0.43 c 0,0 29.27,18.85 53.36,37.88 l -4.23,29.85 -84.04,-2.71 -0.25,-1.64 8.89,-19.72 -6.84,-3.08 -4.04,8.99 -4.1,-28.32 v -30.12 c 0,0 -12.58,0.02 -27.39,0.03 l 9.01,-20 -6.83,-3.08 -10.42,23.09 c -1.19,0 -2.36,0 -3.54,0.01 l -0.68,-1.52 8.34,-18.5 -6.84,-3.08 -4.76,10.54 c -0.41,-2.28 -0.69,-4.69 -0.7,-7.2 l 0.12,-0.26 -0.11,-0.05 c 0,-1.46 0.28,-2.96 0.48,-4.45"
         style="fill:#ffffff;fill-opacity:1;fill-rule:nonzero;stroke:none"
         id="path1688" />
      <path
         d="m 4460.36,6770.48 c 0.01,2.5 0.29,4.91 0.7,7.21 l 4.76,-10.55 6.83,3.09 -8.33,18.48 0.68,1.52 c 1.18,0 2.35,0 3.54,0 l 10.41,-23.09 6.84,3.09 -9.01,20 c 14.81,-0.02 27.39,-0.04 27.39,-0.04 v 30.11 l 4.1,28.33 4.04,-8.99 6.84,3.09 -8.89,19.72 0.25,1.64 84.04,2.7 4.23,-29.84 c -24.09,-19.04 -53.36,-37.9 -53.36,-37.9 l 12.14,-0.41 c -0.03,-5.84 -1.99,-14.85 -4,-22.3 -1.19,-4.45 -2.32,-8.14 -3.1,-10.61 h -19.5 v 17.57 c 0,3.81 -3.09,6.89 -6.9,6.89 -3.81,0 -6.89,-3.08 -6.89,-6.89 v -17.57 h -56.32 c -0.2,1.48 -0.48,2.98 -0.48,4.45 l 0.11,0.05 z m -4.18,18.02 c -0.56,-1.55 -1.08,-3.34 -1.57,-5.25 l -3.16,7 h 3.95 z m 46.36,72.86 -0.97,-6.63 -4.03,8.93 3.89,0.14 z m 221.31,-46.7 c 2.48,-4.2 3.52,-9.68 3.51,-15.59 0.01,-8.32 -2.04,-17.3 -4.14,-24.13 -1.04,-3.41 -2.09,-6.3 -2.87,-8.32 l -0.36,-0.89 H 4555.7 c 0.75,2.45 1.72,5.68 2.69,9.32 2.03,7.59 4.06,16.64 4.16,23.41 l 66.2,-2.32 c 0,0 -1.25,8.34 7.5,15.41 25.42,7.5 22.5,-15.41 22.5,-15.41 l 40.42,-2.09 2.5,22.5 c 0,0 10.13,0.25 20.54,0.75 0.54,-0.86 1.07,-1.68 1.64,-2.64 m 18.65,6.07 c -12.92,2.91 -37.92,45.82 -47.5,112.5 -3.75,-32.09 -30.83,-99.39 -30.83,-99.39 0,0 -22.92,9.39 -34.59,34.8 -1.93,-6.3 -11.75,-16.01 -24.01,-26.19 l -3.47,24.59 11.23,0.35 -26.66,34.59 -29.59,95.41 c 0,0 -25,-76.25 -27.5,-94.16 -10.83,-7.5 -43.75,-29.59 -45.83,-40 l 5.68,0.18 10.14,-22.5 -3.08,-21.3 c -17.72,-6.49 -60.79,-22.72 -67.32,-29.42 0.34,0.04 6.03,0.04 14.05,0.06 l 9.71,-21.54 c 0.09,-2.46 0.33,-4.98 0.91,-7.57 l 0.66,-2.91 h 3 267.43 l 1,2.22 c 0.05,0.24 8.88,19.67 8.93,38.62 0,6.5 -1.1,13.02 -4.23,18.71 10.1,0.68 17.64,1.65 11.87,2.95"
         style="fill:#231f20;fill-opacity:1;fill-rule:nonzero;stroke:none"
         id="path1690" />
      <path
         d="m 4524.07,6844.31 h 3.5391 v 12.5 h -3.5391 z"
         style="fill:#231f20;fill-opacity:1;fill-rule:nonzero;stroke:none"
         id="path1692" />
      <path
         d="m 4529.07,6844.31 h 3.5391 v 12.5 h -3.5391 z"
         style="fill:#231f20;fill-opacity:1;fill-rule:nonzero;stroke:none"
         id="path1694" />
      <path
         d="m 4533.99,6844.31 h 3.543 v 12.5 h -3.543 z"
         style="fill:#231f20;fill-opacity:1;fill-rule:nonzero;stroke:none"
         id="path1696" />
      <path
         d="m 4640.72,6796.14 h 3.5391 v 12.5 h -3.5391 z"
         style="fill:#231f20;fill-opacity:1;fill-rule:nonzero;stroke:none"
         id="path1698" />
      <path
         d="m 4645.64,6796.14 h 3.5391 v 12.5 h -3.5391 z"
         style="fill:#231f20;fill-opacity:1;fill-rule:nonzero;stroke:none"
         id="path1700" />
      <path
         d="m 4508.71,6798.72 h 3.5391 v 12.5 h -3.5391 z"
         style="fill:#231f20;fill-opacity:1;fill-rule:nonzero;stroke:none"
         id="path1702" />
      <path
         d="m 4513.63,6798.72 h 3.543 v 12.5 h -3.543 z"
         style="fill:#231f20;fill-opacity:1;fill-rule:nonzero;stroke:none"
         id="path1704" />
      <path
         d="m 4489.57,6773.22 h 3.5391 v 12.5 h -3.5391 z"
         style="fill:#231f20;fill-opacity:1;fill-rule:nonzero;stroke:none"
         id="path1706" />
      <path
         d="m 4494.49,6773.22 h 3.5352 v 12.5 h -3.5352 z"
         style="fill:#231f20;fill-opacity:1;fill-rule:nonzero;stroke:none"
         id="path1708" />
      <path
         d="m 4545.42,6822.39 h 3.5352 v 12.5 h -3.5352 z"
         style="fill:#231f20;fill-opacity:1;fill-rule:nonzero;stroke:none"
         id="path1710" />
      <path
         d="m 4536.94,6777.1 h 3.5391 v 12.5 h -3.5391 z"
         style="fill:#231f20;fill-opacity:1;fill-rule:nonzero;stroke:none"
         id="path1712" />
      <path
         d="m 4713.44,6800.04 h 3.5391 v 12.5 h -3.5391 z"
         style="fill:#231f20;fill-opacity:1;fill-rule:nonzero;stroke:none"
         id="path1714" />
      <path
         d="m 4567.85,6844.31 h 3.5391 v 12.5 h -3.5391 z"
         style="fill:#231f20;fill-opacity:1;fill-rule:nonzero;stroke:none"
         id="path1716" />
      <path
         d="m 4572.85,6844.31 h 3.5391 v 12.5 h -3.5391 z"
         style="fill:#231f20;fill-opacity:1;fill-rule:nonzero;stroke:none"
         id="path1718" />
      <path
         d="m 4577.77,6844.31 h 3.5391 v 12.5 h -3.5391 z"
         style="fill:#231f20;fill-opacity:1;fill-rule:nonzero;stroke:none"
         id="path1720" />
      <path
         d="m 4699.97,6773.22 h 3.543 v 12.5 h -3.543 z"
         style="fill:#231f20;fill-opacity:1;fill-rule:nonzero;stroke:none"
         id="path1722" />
      <path
         d="m 4704.98,6773.22 h 3.5391 v 12.5 h -3.5391 z"
         style="fill:#231f20;fill-opacity:1;fill-rule:nonzero;stroke:none"
         id="path1724" />
      <path
         d="m 4709.9,6773.22 h 3.543 v 12.5 h -3.543 z"
         style="fill:#231f20;fill-opacity:1;fill-rule:nonzero;stroke:none"
         id="path1726" />
      <path
         d="m 4573.27,6773.22 h 3.5391 v 12.5 h -3.5391 z"
         style="fill:#231f20;fill-opacity:1;fill-rule:nonzero;stroke:none"
         id="path1728" />
      <path
         d="m 4578.27,6773.22 h 3.5391 v 12.5 h -3.5391 z"
         style="fill:#231f20;fill-opacity:1;fill-rule:nonzero;stroke:none"
         id="path1730" />
      <path
         d="m 4583.19,6773.22 h 3.5391 v 12.5 h -3.5391 z"
         style="fill:#231f20;fill-opacity:1;fill-rule:nonzero;stroke:none"
         id="path1732" />
    </g>
  </g>
</svg>
