<?xml version="1.0" encoding="UTF-8" standalone="no"?>
<!-- Created with Inkscape (http://www.inkscape.org/) -->

<svg
   version="1.1"
   id="svg2"
   width="32.291992"
   height="30.598696"
   viewBox="0 0 32.291992 30.598694"
   xmlns="http://www.w3.org/2000/svg"
   xmlns:svg="http://www.w3.org/2000/svg">
  <defs
     id="defs6" />
  <g
     id="g10"
     transform="matrix(1.3333333,0,0,-1.3333333,-555.47199,586.32665)">
    <g
       id="g12"
       transform="scale(0.1)">
      <path
         d="m 4235.94,4256.14 h 102.918 v 10.6211 H 4235.94 Z"
         style="fill:#ffffff;fill-opacity:1;fill-rule:nonzero;stroke:none"
         id="path4406" />
      <path
         d="m 4318.9,4204.26 h 3.5391 v -12.5 H 4318.9 Z m 5,0 h 3.5391 v -12.5 H 4323.9 Z m 4.92,0 h 3.5391 v -12.5 h -3.5391 z m -72.33,-12.5 h -3.5391 v 12.5 h 3.5391 z m -4.92,0 h -3.5391 v 12.5 h 3.5391 z m -5,0 h -3.5391 v 12.5 h 3.5391 z m 92.29,-16.3 v 75.67 h -102.92 v -75.67 h 28.52 v 51.31 c 0,10.09 10.28,18.27 22.94,18.27 12.65,0 22.93,-8.18 22.93,-18.27 v -51.31"
         style="fill:#ffffff;fill-opacity:1;fill-rule:nonzero;stroke:none"
         id="path4408" />
      <path
         d="m 4249.16,4276.16 h -3.5391 v 12.5 h 3.5391 z m 6.46,12.5 h 3.5391 v -12.5 h -3.5391 z m 10,0 h 3.5391 v -12.5 h -3.5391 z m 10,0 h 3.5391 v -12.5 h -3.5391 z m 10,0 h 3.5391 v -12.5 h -3.5391 z m 10,0 h 3.5391 v -12.5 h -3.5391 z m 10,0 h 3.5391 v -12.5 h -3.5391 z m 10,0 h 3.5391 v -12.5 h -3.5391 z m 10,0 h 3.5391 v -12.5 h -3.5391 z m -89.68,-16.9 h 102.918 v 18.5859 H 4235.94 Z"
         style="fill:#ffffff;fill-opacity:1;fill-rule:nonzero;stroke:none"
         id="path4410" />
      <path
         d="m 4235.94,4295.36 h 102.918 v 5.9297 H 4235.94 Z"
         style="fill:#ffffff;fill-opacity:1;fill-rule:nonzero;stroke:none"
         id="path4412" />
      <path
         d="m 4175.11,4206.76 h 53.332 v 4.7344 h -53.332 z"
         style="fill:#ffffff;fill-opacity:1;fill-rule:nonzero;stroke:none"
         id="path4414" />
      <path
         d="m 4175.11,4175.46 h 53.332 v 26.3008 h -53.332 z"
         style="fill:#ffffff;fill-opacity:1;fill-rule:nonzero;stroke:none"
         id="path4416" />
      <path
         d="m 4346.36,4175.46 h 53.332 v 26.3008 h -53.332 z"
         style="fill:#ffffff;fill-opacity:1;fill-rule:nonzero;stroke:none"
         id="path4418" />
      <path
         d="m 4346.36,4206.76 h 53.332 v 4.7344 h -53.332 z"
         style="fill:#ffffff;fill-opacity:1;fill-rule:nonzero;stroke:none"
         id="path4420" />
      <path
         d="m 4318.89,4191.76 h 3.5391 v 12.5 h -3.5391 z"
         style="fill:#231f20;fill-opacity:1;fill-rule:nonzero;stroke:none"
         id="path4422" />
      <path
         d="m 4323.89,4191.76 h 3.5391 v 12.5 h -3.5391 z"
         style="fill:#231f20;fill-opacity:1;fill-rule:nonzero;stroke:none"
         id="path4424" />
      <path
         d="m 4328.81,4191.76 h 3.543 v 12.5 h -3.543 z"
         style="fill:#231f20;fill-opacity:1;fill-rule:nonzero;stroke:none"
         id="path4426" />
      <path
         d="m 4243.04,4191.76 h 3.5391 v 12.5 h -3.5391 z"
         style="fill:#231f20;fill-opacity:1;fill-rule:nonzero;stroke:none"
         id="path4428" />
      <path
         d="m 4248.04,4191.76 h 3.5391 v 12.5 h -3.5391 z"
         style="fill:#231f20;fill-opacity:1;fill-rule:nonzero;stroke:none"
         id="path4430" />
      <path
         d="m 4252.96,4191.76 h 3.5391 v 12.5 h -3.5391 z"
         style="fill:#231f20;fill-opacity:1;fill-rule:nonzero;stroke:none"
         id="path4432" />
      <path
         d="m 4245.62,4276.16 h 3.5391 v 12.5 h -3.5391 z"
         style="fill:#231f20;fill-opacity:1;fill-rule:nonzero;stroke:none"
         id="path4434" />
      <path
         d="m 4255.62,4276.16 h 3.5391 v 12.5 h -3.5391 z"
         style="fill:#231f20;fill-opacity:1;fill-rule:nonzero;stroke:none"
         id="path4436" />
      <path
         d="m 4265.62,4276.16 h 3.5391 v 12.5 h -3.5391 z"
         style="fill:#231f20;fill-opacity:1;fill-rule:nonzero;stroke:none"
         id="path4438" />
      <path
         d="m 4275.62,4276.16 h 3.5391 v 12.5 h -3.5391 z"
         style="fill:#231f20;fill-opacity:1;fill-rule:nonzero;stroke:none"
         id="path4440" />
      <path
         d="m 4285.63,4276.16 h 3.543 v 12.5 h -3.543 z"
         style="fill:#231f20;fill-opacity:1;fill-rule:nonzero;stroke:none"
         id="path4442" />
      <path
         d="m 4295.63,4276.16 h 3.543 v 12.5 h -3.543 z"
         style="fill:#231f20;fill-opacity:1;fill-rule:nonzero;stroke:none"
         id="path4444" />
      <path
         d="m 4305.63,4276.16 h 3.543 v 12.5 h -3.543 z"
         style="fill:#231f20;fill-opacity:1;fill-rule:nonzero;stroke:none"
         id="path4446" />
      <path
         d="m 4315.63,4276.16 h 3.543 v 12.5 h -3.543 z"
         style="fill:#231f20;fill-opacity:1;fill-rule:nonzero;stroke:none"
         id="path4448" />
      <path
         d="m 4325.63,4276.16 h 3.543 v 12.5 h -3.543 z"
         style="fill:#231f20;fill-opacity:1;fill-rule:nonzero;stroke:none"
         id="path4450" />
      <path
         d="m 4399.69,4206.76 h -53.332 v 4.7344 h 53.332 z m -53.33,-5 h 53.332 v -26.3047 h -53.332 z m -171.25,0 h 53.332 v -26.3047 h -53.332 z m 53.33,5 h -53.332 v 4.7344 h 53.332 z m 110.42,49.37 h -102.918 v 10.6211 h 102.918 z m 0,15.63 h -102.918 v 18.5859 h 102.918 z m 0,23.59 h -102.918 v 5.9297 h 102.918 z m -51.46,-50.31 c -12.66,0 -22.94,-8.18 -22.94,-18.27 v -51.31 h -28.52 v 43.75 31.92 h 102.92 v -75.67 h -28.53 v 51.31 c 0,10.09 -10.28,18.27 -22.93,18.27 m 120.83,-33.54 c 0,23.36 -13.59,42.3 -30.71,43.78 l -2.49,18.26 -2.51,-18.37 c -11.46,-1.37 -21.14,-10.53 -26.16,-23.62 v 69.74 h 5.88 c 0,23.49 -27.08,42.64 -61.18,43.94 l -3.67,52.22 -3.66,-52.22 c -34.1,-1.3 -61.18,-20.45 -61.18,-43.94 h 5.89 v -69.82 c -5.11,13.27 -15.05,22.54 -26.78,23.75 l -2.55,18.32 -2.55,-18.32 c -17.06,-1.76 -30.52,-20.55 -30.52,-43.72 h 1.57 v -43.54 h 60.83 7.5 102.92 7.5 60.83 v 3.75 39.79"
         style="fill:#231f20;fill-opacity:1;fill-rule:nonzero;stroke:none"
         id="path4452" />
    </g>
  </g>
</svg>
