<?xml version="1.0" encoding="UTF-8" standalone="no"?>
<!-- John Grümph
     https://legrumph.org/Terrier/public/chibi/de-chorographia
     CC BY-NC 3.0
     https://creativecommons.org/licenses/by-nc/3.0/fr/ -->
<!-- Created with Inkscape (http://www.inkscape.org/) -->

<svg
   version="1.1"
   id="svg2"
   width="58.804016"
   height="35.320007"
   viewBox="0 0 58.804016 35.320006"
   xmlns="http://www.w3.org/2000/svg"
   xmlns:svg="http://www.w3.org/2000/svg">
  <defs
     id="defs6" />
  <g
     id="g10"
     transform="matrix(1.3333333,0,0,-1.3333333,-574.008,713.59466)">
    <g
       id="g12"
       transform="scale(0.1)">
      <path
         d="m 4354.24,5167.37 c 0,2.15 1.75,3.89 3.9,3.89 2.14,0 3.89,-1.74 3.89,-3.89 v -11.74 h -7.79 z m 9.48,62.61 h 3.5391 v -12.5 h -3.5391 z m 5,0 h 3.5391 v -12.5 h -3.5391 z m 4.92,0 h 3.5391 v -12.5 h -3.5391 z m 8.09,-37.81 h 3.543 v -12.5 h -3.543 z m -16.23,-78.08 h 3.543 v -12.5 h -3.543 z m -16.41,41.3 -5.74,-60.82 h 31.24 l 1.14,2.3 c 1.49,3.05 3.47,7.32 5.45,12.15 3.98,9.64 7.87,21.67 7.85,30.35 0,2.52 -0.43,4.55 -1.08,6.32 -11.41,0.8 -21.2,2.3 -25.92,5.02 0,0 22.47,5.88 39.32,15.11 l -3.03,69.81 c -8.38,0.26 -23.87,0.2 -37.32,0.07 l -11.92,-80.31"
         style="fill:#ffffff;fill-opacity:1;fill-rule:nonzero;stroke:none"
         id="path2806" />
      <path
         d="m 4427.37,5104.36 h -3.5391 v 12.5 h 3.5391 z m -4.92,0 h -3.5391 v 12.5 h 3.5391 z m -5,0 h -3.5391 v 12.5 h 3.5391 z m -10,24.16 h -3.5391 v 12.5 h 3.5391 z m -4.92,0 h -3.543 v 12.5 h 3.543 z m -9.13,16.84 c 0.43,-1.89 0.62,-3.9 0.62,-5.99 -0.03,-10.04 -4.16,-22.3 -8.21,-32.24 -2.06,-5.03 -4.11,-9.43 -5.63,-12.56 h 57.53 l -0.04,1 c 0.03,8.76 3.31,22.6 5.08,29.54 -3.88,-0.47 -6.34,-0.82 -6.34,-0.82 l 15.93,21.73 c 0,0 -32.33,-1.97 -58.94,-0.66"
         style="fill:#ffffff;fill-opacity:1;fill-rule:nonzero;stroke:none"
         id="path2808" />
      <path
         d="m 4479.18,5104.36 h -3.5391 v 12.5 h 3.5391 z m -4.92,0 h -3.5469 v 12.5 h 3.5469 z m -5,0 h -3.5469 v 12.5 h 3.5469 z m -21.18,21.33 c -0.58,-2.19 -1.47,-5.65 -2.41,-9.84 -1.52,-6.79 -3.01,-15.04 -3,-20.28 l 0.06,-1 h 58.07 l 0.04,1.71 c 0.01,5.35 -1.15,13.85 -2.33,20.89 -0.56,3.3 -1.1,6.2 -1.52,8.45 -5.37,0.47 -11.85,0.96 -18.71,1.34 -9.6,0.52 -21.53,-0.37 -30.2,-1.27"
         style="fill:#ffffff;fill-opacity:1;fill-rule:nonzero;stroke:none"
         id="path2810" />
      <path
         d="m 4645.16,5192.17 h 3.5391 v -12.5 h -3.5391 z m 18.23,-18.96 h 3.5391 v -12.5 h -3.5391 z m -65.22,-57.81 h 3.5352 v -12.5 h -3.5352 z m 5,0 h 3.5352 v -12.5 h -3.5352 z m 4.93,0 h 3.5391 v -12.5 H 4608.1 Z m 61.91,1.46 h 3.5352 v -12.5 h -3.5352 z m 5,0 h 3.5352 v -12.5 h -3.5352 z m 4.92,0 h 3.5391 v -12.5 h -3.5391 z m -118.32,23.86 h -3.5391 v 12.5 h 3.5391 z m -18.27,-32.88 h -3.5391 v 12.5 h 3.5391 z m -4.23,63.6 h -3.5391 v 12.5 h 3.5391 z m -0.69,-63.6 h -3.5469 v 12.5 h 3.5469 z m -4.23,63.6 h -3.543 v 12.5 h 3.543 z m -5,0 h -3.543 v 12.5 h 3.543 z m 159.86,4.5 h 3.5391 v -12.5 h -3.5391 z m 1.77,37.97 h 3.5391 v -12.5 h -3.5391 z m 4.92,0 h 3.5352 v -12.5 h -3.5352 z m -48.82,-69.44 v 5 h 56.7 c 2.18,3.33 3.77,7.07 3.74,10.95 0,1.3 -0.15,2.64 -0.52,4.03 -1.55,5.97 -1.99,14 -2.01,22.56 0.01,14.71 1.46,30.73 2.17,37.71 l -7.74,1.15 c -2.84,-0.97 -5.19,-2.13 -6.6,-3.6 -9.07,-9.37 -12.19,-17.81 -12.19,-17.81 l -40.31,-2.19 c 0,0 -0.94,-15.62 -19.07,-23.12 -18.12,-7.5 -58.75,-10 -58.75,-10 l -8.28,19.06 c 0,0 -32.65,2.19 -35.78,0.94 -3.12,-1.25 -36.25,-27.19 -33.12,-35.32 l 7.81,-3.12 17.62,-26.42 c 0,0 -3.3,0.37 -8.43,0.86 1.41,-7.51 3.67,-20.69 3.68,-28.87 l -0.09,-1.71 h 118.99 v 18.52 c 0,3.81 3.09,6.89 6.9,6.89 3.8,0 6.9,-3.08 6.9,-6.89 v -18.52 h 51.51 v 33.98 l -99.58,6.22 h 99.58 v 1.87 l 1.76,1.11 0.12,0.08 0.48,0.32 1.81,1.32 c 1.5,1.16 3.52,2.87 5.51,4.97 l 0.02,0.03"
         style="fill:#ffffff;fill-opacity:1;fill-rule:nonzero;stroke:none"
         id="path2812" />
      <path
         d="m 4343.1,5145.13 0.47,4.88 -12.37,0.32 -1.52,-5.2 z"
         style="fill:#ffffff;fill-opacity:1;fill-rule:nonzero;stroke:none"
         id="path2814" />
      <path
         d="m 4338.84,5099.97 h -22.24 l -1.56,-5.41 h 23.29 z"
         style="fill:#ffffff;fill-opacity:1;fill-rule:nonzero;stroke:none"
         id="path2816" />
      <path
         d="m 4340.78,5120.59 h -18.2 l -1.59,-5.47 h 19.28 z"
         style="fill:#ffffff;fill-opacity:1;fill-rule:nonzero;stroke:none"
         id="path2818" />
      <path
         d="m 4339.8,5110.12 h -20.25 l -1.5,-5.15 h 21.27 z"
         style="fill:#ffffff;fill-opacity:1;fill-rule:nonzero;stroke:none"
         id="path2820" />
      <path
         d="m 4342.63,5140.13 h -14.39 l -1.45,-5 h 15.37 z"
         style="fill:#ffffff;fill-opacity:1;fill-rule:nonzero;stroke:none"
         id="path2822" />
      <path
         d="m 4341.26,5125.59 0.42,4.53 h -16.35 l -1.31,-4.53 z"
         style="fill:#ffffff;fill-opacity:1;fill-rule:nonzero;stroke:none"
         id="path2824" />
      <path
         d="m 4465.71,5104.36 h 3.5391 v 12.5 h -3.5391 z"
         style="fill:#231f20;fill-opacity:1;fill-rule:nonzero;stroke:none"
         id="path2826" />
      <path
         d="m 4470.71,5104.36 h 3.5391 v 12.5 h -3.5391 z"
         style="fill:#231f20;fill-opacity:1;fill-rule:nonzero;stroke:none"
         id="path2828" />
      <path
         d="m 4475.63,5104.36 h 3.5391 v 12.5 h -3.5391 z"
         style="fill:#231f20;fill-opacity:1;fill-rule:nonzero;stroke:none"
         id="path2830" />
      <path
         d="m 4398.98,5128.52 h 3.5391 v 12.5 h -3.5391 z"
         style="fill:#231f20;fill-opacity:1;fill-rule:nonzero;stroke:none"
         id="path2832" />
      <path
         d="m 4403.91,5128.52 h 3.5391 v 12.5 h -3.5391 z"
         style="fill:#231f20;fill-opacity:1;fill-rule:nonzero;stroke:none"
         id="path2834" />
      <path
         d="m 4365.49,5101.59 h 3.5352 v 12.5 h -3.5352 z"
         style="fill:#231f20;fill-opacity:1;fill-rule:nonzero;stroke:none"
         id="path2836" />
      <path
         d="m 4645.16,5179.67 h 3.5391 v 12.5 h -3.5391 z"
         style="fill:#231f20;fill-opacity:1;fill-rule:nonzero;stroke:none"
         id="path2838" />
      <path
         d="m 4670.01,5104.36 h 3.5352 v 12.5 h -3.5352 z"
         style="fill:#231f20;fill-opacity:1;fill-rule:nonzero;stroke:none"
         id="path2840" />
      <path
         d="m 4675.01,5104.36 h 3.5352 v 12.5 h -3.5352 z"
         style="fill:#231f20;fill-opacity:1;fill-rule:nonzero;stroke:none"
         id="path2842" />
      <path
         d="m 4679.94,5104.36 h 3.5391 v 12.5 h -3.5391 z"
         style="fill:#231f20;fill-opacity:1;fill-rule:nonzero;stroke:none"
         id="path2844" />
      <path
         d="m 4525.64,5171.44 h 3.5391 v 12.5 h -3.5391 z"
         style="fill:#231f20;fill-opacity:1;fill-rule:nonzero;stroke:none"
         id="path2846" />
      <path
         d="m 4530.64,5171.44 h 3.5391 v 12.5 h -3.5391 z"
         style="fill:#231f20;fill-opacity:1;fill-rule:nonzero;stroke:none"
         id="path2848" />
      <path
         d="m 4535.57,5171.44 h 3.5391 v 12.5 h -3.5391 z"
         style="fill:#231f20;fill-opacity:1;fill-rule:nonzero;stroke:none"
         id="path2850" />
      <path
         d="m 4534.88,5107.84 h 3.5391 v 12.5 h -3.5391 z"
         style="fill:#231f20;fill-opacity:1;fill-rule:nonzero;stroke:none"
         id="path2852" />
      <path
         d="m 4539.8,5107.84 h 3.5391 v 12.5 H 4539.8 Z"
         style="fill:#231f20;fill-opacity:1;fill-rule:nonzero;stroke:none"
         id="path2854" />
      <path
         d="m 4381.73,5179.67 h 3.5391 v 12.5 h -3.5391 z"
         style="fill:#231f20;fill-opacity:1;fill-rule:nonzero;stroke:none"
         id="path2856" />
      <path
         d="m 4558.08,5140.72 h 3.5352 v 12.5 h -3.5352 z"
         style="fill:#231f20;fill-opacity:1;fill-rule:nonzero;stroke:none"
         id="path2858" />
      <path
         d="m 4598.18,5102.9 h 3.5391 v 12.5 h -3.5391 z"
         style="fill:#231f20;fill-opacity:1;fill-rule:nonzero;stroke:none"
         id="path2860" />
      <path
         d="m 4603.18,5102.9 h 3.5391 v 12.5 h -3.5391 z"
         style="fill:#231f20;fill-opacity:1;fill-rule:nonzero;stroke:none"
         id="path2862" />
      <path
         d="m 4608.1,5102.9 h 3.5391 v 12.5 H 4608.1 Z"
         style="fill:#231f20;fill-opacity:1;fill-rule:nonzero;stroke:none"
         id="path2864" />
      <path
         d="m 4363.73,5217.48 h 3.5391 v 12.5 h -3.5391 z"
         style="fill:#231f20;fill-opacity:1;fill-rule:nonzero;stroke:none"
         id="path2866" />
      <path
         d="m 4368.73,5217.48 h 3.5391 v 12.5 h -3.5391 z"
         style="fill:#231f20;fill-opacity:1;fill-rule:nonzero;stroke:none"
         id="path2868" />
      <path
         d="m 4373.65,5217.48 h 3.543 v 12.5 h -3.543 z"
         style="fill:#231f20;fill-opacity:1;fill-rule:nonzero;stroke:none"
         id="path2870" />
      <path
         d="m 4690.83,5201.41 h 3.5352 v 12.5 h -3.5352 z"
         style="fill:#231f20;fill-opacity:1;fill-rule:nonzero;stroke:none"
         id="path2872" />
      <path
         d="m 4695.75,5201.41 h 3.5391 v 12.5 h -3.5391 z"
         style="fill:#231f20;fill-opacity:1;fill-rule:nonzero;stroke:none"
         id="path2874" />
      <path
         d="m 4663.38,5160.71 h 3.543 v 12.5 h -3.543 z"
         style="fill:#231f20;fill-opacity:1;fill-rule:nonzero;stroke:none"
         id="path2876" />
      <path
         d="m 4362.03,5167.37 c 0,2.15 -1.75,3.89 -3.9,3.89 -2.14,0 -3.89,-1.74 -3.89,-3.89 v -11.74 h 7.79"
         style="fill:#231f20;fill-opacity:1;fill-rule:nonzero;stroke:none"
         id="path2878" />
      <path
         d="m 4689.05,5163.44 h 3.5391 v 12.5 h -3.5391 z"
         style="fill:#231f20;fill-opacity:1;fill-rule:nonzero;stroke:none"
         id="path2880" />
      <path
         d="m 4413.91,5104.36 h 3.5391 v 12.5 h -3.5391 z"
         style="fill:#231f20;fill-opacity:1;fill-rule:nonzero;stroke:none"
         id="path2882" />
      <path
         d="m 4418.91,5104.36 h 3.5391 v 12.5 h -3.5391 z"
         style="fill:#231f20;fill-opacity:1;fill-rule:nonzero;stroke:none"
         id="path2884" />
      <path
         d="m 4423.83,5104.36 h 3.5352 v 12.5 h -3.5352 z"
         style="fill:#231f20;fill-opacity:1;fill-rule:nonzero;stroke:none"
         id="path2886" />
      <path
         d="m 4316.6,5099.97 h 22.24 l -0.51,-5.41 h -23.29 z m 26.96,50.04 -0.47,-4.89 h -13.41 l 1.51,5.21 z m -24.02,-39.89 h 20.25 l -0.48,-5.15 h -21.25 z m 5.79,20 h 16.35 l -0.42,-4.53 h -17.24 z m 2.9,10 h 14.4 l -0.47,-5 h -15.37 z m -5.65,-19.53 h 18.2 l -0.51,-5.47 h -19.29 z m 113.82,3.7 c 0,0 2.47,0.35 6.35,0.82 -1.77,-6.94 -5.06,-20.78 -5.09,-29.54 l 0.05,-1.01 h -57.54 c 1.53,3.14 3.58,7.53 5.64,12.56 4.05,9.95 8.18,22.21 8.21,32.25 0,2.09 -0.19,4.1 -0.62,5.99 26.61,-1.31 58.94,0.66 58.94,0.66 z m 60.59,1.33 c 0.42,-2.25 0.96,-5.16 1.51,-8.45 1.19,-7.04 2.35,-15.54 2.34,-20.9 l -0.04,-1.71 h -58.07 l -0.07,1.01 c -0.01,5.23 1.49,13.49 3.01,20.27 0.94,4.19 1.83,7.66 2.4,9.85 8.68,0.9 20.61,1.79 30.21,1.27 6.86,-0.38 13.34,-0.88 18.71,-1.34 m 218.02,103.29 c 2.91,0.3 5.86,0.52 8.75,0.67 l -10.13,-14.77 c 0.61,7.48 1.2,12.64 1.2,12.66 z m -316.69,6.72 3.03,-69.81 c -16.85,-9.23 -39.32,-15.11 -39.32,-15.11 4.72,-2.72 14.51,-4.23 25.92,-5.03 0.64,-1.76 1.08,-3.79 1.07,-6.31 0.03,-8.69 -3.87,-20.71 -7.84,-30.35 -1.98,-4.84 -3.96,-9.1 -5.45,-12.16 l -1.14,-2.3 h -31.24 l 5.74,60.83 h -0.01 l 11.91,80.31 c 13.46,0.13 28.95,0.18 37.33,-0.07 m 295.9,-96.16 -1.81,-1.32 -0.48,-0.32 -0.12,-0.09 -1.76,-1.1 v -1.87 h -99.58 l 99.58,-6.22 v -33.99 h -51.52 v 18.53 c 0,3.8 -3.09,6.89 -6.89,6.89 -3.81,0 -6.91,-3.09 -6.91,-6.89 v -18.53 h -118.98 l 0.09,1.71 c -0.01,8.19 -2.27,21.37 -3.68,28.88 5.13,-0.49 8.42,-0.86 8.42,-0.86 l -17.61,26.42 -7.82,3.12 c -3.12,8.13 30,34.06 33.13,35.31 3.12,1.25 35.78,-0.93 35.78,-0.93 l 8.28,-19.07 c 0,0 40.63,2.5 58.75,10 18.13,7.5 19.06,23.13 19.06,23.13 l 40.32,2.19 c 0,0 3.12,8.43 12.18,17.81 1.42,1.46 3.76,2.63 6.61,3.59 l 7.74,-1.14 c -0.71,-6.99 -2.16,-23.01 -2.17,-37.71 0.02,-8.56 0.46,-16.6 2,-22.56 0.38,-1.39 0.53,-2.73 0.53,-4.04 0.03,-3.87 -1.56,-7.61 -3.74,-10.94 h -56.7 v -5 h 52.82 l -0.01,-0.03 c -1.99,-2.11 -4.01,-3.82 -5.51,-4.97 m 38.84,90.42 c 7.5,0.1 13.03,-0.12 13.03,-0.12 l -70,39.37 c 0,0 -8.75,1.57 -15.94,3.44 -7.18,1.88 -33.43,77.5 -33.43,77.5 l -29.69,-64.37 c 0,0 -19.38,-31.57 -35,-45 -15.63,-13.44 -63.44,-23.75 -72.81,-24.38 -9.38,-0.62 -21.88,28.13 -21.88,28.13 0,0 -40.62,-46.88 -49.06,-64.07 -1.75,-3.56 -5.25,-6.91 -9.62,-10.01 l -2.82,64.97 c 7.93,-0.19 12.13,1.84 12.13,1.84 l -12.5,18.83 c 0,0 -3.44,28.12 -8.13,38.12 -4.69,10 -12.5,57.82 -12.5,57.82 0,0 -16.56,-51.88 -16.25,-60 0.31,-8.13 -9.37,-33.13 -15,-36.88 -5.62,-3.75 -17.19,-19.69 -17.19,-19.69 0,0 7.27,0.12 17.01,0.23 l -11.59,-78.06 -16.24,0.41 -20.52,-70.91 h 4.99 387.5 v 45.56 c 1.76,1.27 4.61,3.47 7.63,6.68 4.63,4.93 9.63,12.11 9.68,21.11 0,1.93 -0.24,3.92 -0.76,5.93 -1.25,4.7 -1.78,12.44 -1.77,20.67 0,4.33 0.15,8.81 0.35,13.16"
         style="fill:#231f20;fill-opacity:1;fill-rule:nonzero;stroke:none"
         id="path2888" />
    </g>
  </g>
</svg>
