<?xml version="1.0" encoding="UTF-8" standalone="no"?>
<!-- John Grümph
     https://legrumph.org/Terrier/public/chibi/de-chorographia
     CC BY-NC 3.0
     https://creativecommons.org/licenses/by-nc/3.0/fr/ -->
<!-- Created with Inkscape (http://www.inkscape.org/) -->

<svg
   version="1.1"
   id="svg2"
   width="29.057333"
   height="34.414673"
   viewBox="0 0 29.057333 34.414671"
   sodipodi:docname="de_chorographia.ps"
   xmlns:inkscape="http://www.inkscape.org/namespaces/inkscape"
   xmlns:sodipodi="http://sodipodi.sourceforge.net/DTD/sodipodi-0.dtd"
   xmlns="http://www.w3.org/2000/svg"
   xmlns:svg="http://www.w3.org/2000/svg">
  <defs
     id="defs6" />
  <sodipodi:namedview
     id="namedview4"
     pagecolor="#ffffff"
     bordercolor="#000000"
     borderopacity="0.25"
     inkscape:showpageshadow="2"
     inkscape:pageopacity="0.0"
     inkscape:pagecheckerboard="0"
     inkscape:deskcolor="#d1d1d1"
     showgrid="false" />
  <g
     id="g10"
     inkscape:groupmode="layer"
     inkscape:label="Page 1"
     transform="matrix(1.3333333,0,0,-1.3333333,-21.411467,834.9733)">
    <g
       id="g12"
       transform="scale(0.1)">
      <path
         d="m 313.488,6140.17 h 3.54297 v -12.5 H 313.488 Z m -1.379,-12.5 h -3.53906 v 12.5 h 3.53906 z m -5,0 h -3.53906 v 12.5 h 3.53906 z m -28.898,-25.73 h -3.53906 v 12.5 h 3.53906 z m -4.922,0 h -3.53906 v 12.5 h 3.53906 z m -0.769,-30.42 h -3.53906 v 12.5 H 272.52 Z m -4.231,30.42 h -3.53906 v 12.5 h 3.53906 z m -0.687,-30.42 h -3.54297 v 12.5 h 3.54297 z m 0,-24.89 h -3.54297 v 12.5 h 3.54297 z m -4.922,0 h -3.53906 v 12.5 H 262.68 Z m -5,0 h -3.53906 v 12.5 H 257.68 Z m 63.699,50.13 v 47.97 l -33.438,-3.67 -7.082,-18.75 h -20.418 c -0.691,-6.08 -2.25,-19.02 -4.472,-33.38 -3.129,-19.84 -7.36,-41.96 -12.739,-52.6 l -0.941,-1.47 c 10.172,0.27 20.27,1.96 25.672,5.87 l 13.109,48.92 0.149,0.27 3.742,6.79 21.488,0.03 v 9.13 c 0,2.15 1.731,3.89 3.891,3.89 2.148,0 3.898,-1.74 3.898,-3.89 v -9.12"
         style="fill:#ffffff;fill-opacity:1;fill-rule:nonzero;stroke:none"
         id="path198" />
      <path
         d="m 292.59,6027.25 h 3.53906 v -12.5 H 292.59 Z m -1.379,-12.5 h -3.53906 v 12.5 h 3.53906 z m -55.313,0 h -3.53906 v 12.5 h 3.53906 z m -4.918,0 h -3.53906 v 12.5 H 230.98 Z m -5,0 h -3.53906 v 12.5 H 225.98 Z m -33.671,37.14 h -3.53906 v 12.5 h 3.53906 z m 124.722,29.89 h 3.53906 v -12.5 H 317.031 Z m 4.918,0 h 3.53906 v -12.5 H 321.949 Z m -11.609,-52.44 c 0,3.81 3.09,6.89 6.898,6.89 3.801,0 6.891,-3.08 6.891,-6.89 v -17.66 h 34.48 l -27.238,23.94 0.301,56.16 -43.75,-0.07 -2.184,-3.94 -13.418,-50.04 -0.648,-0.52 c -7.883,-6.06 -20.813,-7.34 -32.91,-7.39 -10.692,0 -20.633,1.16 -25.481,1.84 l -0.019,-0.05 -2.762,0.43 -11.309,1.74 v 33.74 h -6.882 -6.528 v -0.51 c 0,-4.52 -0.07,-11.56 -0.441,-18.35 -0.41,-6.85 -0.961,-13.16 -2.43,-17.31 -0.48,-1.2 -0.93,-2.37 -2.332,-3.56 -1.598,-1.21 -4.957,-5.01 -7.578,-9.09 -1.559,-2.35 -2.852,-4.86 -3.699,-7.02 H 310.34"
         style="fill:#ffffff;fill-opacity:1;fill-rule:nonzero;stroke:none"
         id="path200" />
      <path
         d="M 255.398,6122.3 H 242.73 l 10.731,-15.66 c 0.269,2.05 0.519,4 0.758,5.81 0.511,4.07 0.91,7.42 1.179,9.85"
         style="fill:#ffffff;fill-opacity:1;fill-rule:nonzero;stroke:none"
         id="path202" />
      <path
         d="m 225.621,6094.28 h 3.53906 v -12.5 H 225.621 Z m 5,0 h 3.53906 v -12.5 H 230.621 Z m 5.957,-49.53 h -3.53906 v 12.5 h 3.53906 z m -1.027,49.53 h 3.53906 v -12.5 H 235.551 Z m -3.891,-49.53 h -3.53906 v 12.5 H 231.66 Z m -11.5,2.82 c -1.879,-4.85 -3.621,-8.81 -4.672,-11.17 1.153,-0.14 2.434,-0.3 3.922,-0.47 4.488,-0.48 10.371,-0.95 16.559,-1.07 0.34,0.19 1.031,0.74 1.832,2.03 0.961,1.5 1.988,3.71 2.988,6.42 2.012,5.42 3.93,12.84 5.66,20.97 2.91,13.7 5.281,29.43 6.91,41.65 l -2.699,-1.84 -3.09,-2.12 -13.929,20.34 h -2.469 -4.242 l 11.039,-16.1 -3.098,-2.12 -3.09,-2.12 -8.011,11.69 c -0.75,-6.47 -1.418,-14.03 -1.418,-20.99 0,-4.39 0.269,-8.51 0.878,-11.79 0.59,-3.3 1.629,-5.68 2.5,-6.58 l 1.071,-1.19 -0.121,-1.59 c -0.559,-7.28 -3.629,-16.37 -6.52,-23.95"
         style="fill:#ffffff;fill-opacity:1;fill-rule:nonzero;stroke:none"
         id="path204" />
      <path
         d="m 218.523,6067.52 c -1.078,-5.27 -3.226,-11.75 -5.367,-17.25 -1.402,-3.63 -2.769,-6.88 -3.801,-9.2 l -0.531,-1.18 -2.14,0.32 v 27.31 z m -2.187,47.19 -5.199,7.59 h 6.187 c -0.32,-2.21 -0.66,-4.79 -0.988,-7.59 m 112.539,30.84 3.488,0.4 -3.488,-5.09 z m -75.422,-38.91 -10.719,15.66 h 12.672 c -0.281,-2.43 -0.679,-5.78 -1.191,-9.85 -0.231,-1.81 -0.481,-3.76 -0.762,-5.81 m -27.719,-32.34 c -0.871,0.91 -1.918,3.29 -2.5,6.58 -0.621,3.28 -0.879,7.4 -0.879,11.8 0,6.95 0.661,14.51 1.411,20.98 l 8.007,-11.7 3.102,2.13 3.09,2.12 -11.031,16.09 h 4.242 2.469 l 13.921,-20.34 3.098,2.13 2.691,1.85 c -1.628,-12.23 -4,-27.96 -6.91,-41.66 -1.73,-8.14 -3.64,-15.55 -5.648,-20.98 -1.012,-2.7 -2.043,-4.91 -2.992,-6.41 -0.801,-1.28 -1.5,-1.84 -1.84,-2.02 -6.192,0.11 -12.07,0.58 -16.551,1.07 -1.5,0.16 -2.769,0.32 -3.93,0.47 1.063,2.36 2.801,6.3 4.672,11.16 2.891,7.57 5.969,16.66 6.52,23.95 l 0.121,1.6 z m 84.61,35.47 c -2.16,0 -3.899,-1.75 -3.899,-3.9 v -9.14 l -21.48,-0.02 -3.738,-6.8 -0.153,-0.25 -13.121,-48.93 c -5.398,-3.91 -15.488,-5.6 -25.668,-5.86 l 0.949,1.47 c 5.379,10.62 9.61,32.75 12.731,52.6 2.23,14.36 3.781,27.29 4.469,33.36 h 20.421 l 7.079,18.75 33.441,3.68 v -47.96 l -7.141,-0.02 v 9.12 c 0,2.15 -1.75,3.9 -3.89,3.9 M 172.996,6018.7 c 2.629,4.08 5.988,7.89 7.578,9.1 1.41,1.18 1.86,2.34 2.332,3.56 1.481,4.15 2.028,10.46 2.438,17.3 0.371,6.79 0.441,13.82 0.441,18.35 v 0.51 h 6.531 6.868 v -33.74 l 11.312,-1.74 2.77,-0.42 0.019,0.04 c 4.852,-0.68 14.781,-1.84 25.469,-1.84 12.101,0.06 25.031,1.34 32.91,7.39 l 0.66,0.52 13.422,50.04 2.168,3.94 43.75,0.07 -0.301,-56.16 27.25,-23.93 h -34.476 v 17.65 c 0,3.8 -3.09,6.89 -6.903,6.89 -3.808,0 -6.89,-3.09 -6.89,-6.89 v -17.65 H 169.297 c 0.848,2.16 2.137,4.67 3.699,7.01 m 165.891,20.3 0.316,60.5 h -10.328 v 28.23 l 0.078,-0.03 13.242,19.33 6.371,0.7 -9.382,10 c 0,0 -14.161,26.04 -19.368,28.54 -5.211,2.5 -13.75,30 -15.41,37.92 -1.672,7.91 -5.633,38.11 -5.633,38.11 0,0 -30.308,-83.95 -32.238,-81.45 -1.93,2.5 -8.18,25.2 -8.18,25.2 l -15.199,-34.16 h -17.301 v -22.7 c 0,0 -2.421,-4.58 -6.07,-9.98 l -25.012,-16.91 h 7.274 l 13.219,-19.28 c -0.243,-3.45 -0.403,-6.95 -0.411,-10.34 0.008,-4.7 0.27,-9.2 1,-13.17 0.622,-3.19 1.649,-5.96 3.211,-8.38 -0.089,-0.81 -0.23,-1.69 -0.39,-2.59 -3.27,2.37 -11.531,9.03 -15.891,18.76 -5.512,12.3 -10.469,43.55 -10.469,43.55 0,0 -4.953,-31.25 -10.461,-43.55 -5.511,-12.28 -17.351,-19.78 -17.351,-19.78 h 13.781 v -0.51 c 0.012,-5.07 -0.09,-13.42 -0.609,-20.71 -0.242,-3.64 -0.61,-7.03 -1.082,-9.5 -0.231,-1.25 -0.489,-2.25 -0.719,-2.85 l -0.23,-0.52 c -2.731,-2.27 -5.961,-6.13 -8.93,-10.64 -2.988,-4.7 -5.649,-9.7 -5.949,-14.69 l -0.18,-3.91 h 3.918 214.012"
         style="fill:#231f20;fill-opacity:1;fill-rule:nonzero;stroke:none"
         id="path206" />
      <path
         d="m 225.621,6081.78 h 3.53906 v 12.5 H 225.621 Z"
         style="fill:#231f20;fill-opacity:1;fill-rule:nonzero;stroke:none"
         id="path208" />
      <path
         d="m 230.621,6081.78 h 3.53906 v 12.5 H 230.621 Z"
         style="fill:#231f20;fill-opacity:1;fill-rule:nonzero;stroke:none"
         id="path210" />
      <path
         d="m 235.539,6081.78 h 3.53906 v 12.5 H 235.539 Z"
         style="fill:#231f20;fill-opacity:1;fill-rule:nonzero;stroke:none"
         id="path212" />
      <path
         d="m 222.43,6014.75 h 3.53906 v 12.5 H 222.43 Z"
         style="fill:#231f20;fill-opacity:1;fill-rule:nonzero;stroke:none"
         id="path214" />
      <path
         d="m 227.43,6014.75 h 3.53906 v 12.5 H 227.43 Z"
         style="fill:#231f20;fill-opacity:1;fill-rule:nonzero;stroke:none"
         id="path216" />
      <path
         d="m 232.352,6014.75 h 3.53906 v 12.5 H 232.352 Z"
         style="fill:#231f20;fill-opacity:1;fill-rule:nonzero;stroke:none"
         id="path218" />
      <path
         d="m 254.129,6046.63 h 3.54297 v 12.5 H 254.129 Z"
         style="fill:#231f20;fill-opacity:1;fill-rule:nonzero;stroke:none"
         id="path220" />
      <path
         d="m 259.129,6046.63 h 3.54297 v 12.5 H 259.129 Z"
         style="fill:#231f20;fill-opacity:1;fill-rule:nonzero;stroke:none"
         id="path222" />
      <path
         d="m 264.051,6046.63 h 3.53906 v 12.5 H 264.051 Z"
         style="fill:#231f20;fill-opacity:1;fill-rule:nonzero;stroke:none"
         id="path224" />
      <path
         d="m 303.559,6127.67 h 3.54297 v 12.5 H 303.559 Z"
         style="fill:#231f20;fill-opacity:1;fill-rule:nonzero;stroke:none"
         id="path226" />
      <path
         d="m 308.559,6127.67 h 3.54297 v 12.5 H 308.559 Z"
         style="fill:#231f20;fill-opacity:1;fill-rule:nonzero;stroke:none"
         id="path228" />
      <path
         d="m 313.488,6127.67 h 3.54297 v 12.5 H 313.488 Z"
         style="fill:#231f20;fill-opacity:1;fill-rule:nonzero;stroke:none"
         id="path230" />
      <path
         d="m 264.75,6101.94 h 3.53906 v 12.5 H 264.75 Z"
         style="fill:#231f20;fill-opacity:1;fill-rule:nonzero;stroke:none"
         id="path232" />
      <path
         d="m 269.75,6101.94 h 3.53906 v 12.5 H 269.75 Z"
         style="fill:#231f20;fill-opacity:1;fill-rule:nonzero;stroke:none"
         id="path234" />
      <path
         d="m 274.672,6101.94 h 3.53906 v 12.5 H 274.672 Z"
         style="fill:#231f20;fill-opacity:1;fill-rule:nonzero;stroke:none"
         id="path236" />
      <path
         d="m 264.051,6071.52 h 3.53906 v 12.5 H 264.051 Z"
         style="fill:#231f20;fill-opacity:1;fill-rule:nonzero;stroke:none"
         id="path238" />
      <path
         d="m 268.969,6071.52 h 3.54297 v 12.5 H 268.969 Z"
         style="fill:#231f20;fill-opacity:1;fill-rule:nonzero;stroke:none"
         id="path240" />
      <path
         d="m 317.039,6069.28 h 3.53906 v 12.5 H 317.039 Z"
         style="fill:#231f20;fill-opacity:1;fill-rule:nonzero;stroke:none"
         id="path242" />
      <path
         d="m 321.961,6069.28 h 3.53906 v 12.5 H 321.961 Z"
         style="fill:#231f20;fill-opacity:1;fill-rule:nonzero;stroke:none"
         id="path244" />
      <path
         d="m 287.672,6014.75 h 3.53906 v 12.5 H 287.672 Z"
         style="fill:#231f20;fill-opacity:1;fill-rule:nonzero;stroke:none"
         id="path246" />
      <path
         d="m 292.59,6014.75 h 3.53906 v 12.5 H 292.59 Z"
         style="fill:#231f20;fill-opacity:1;fill-rule:nonzero;stroke:none"
         id="path248" />
      <path
         d="m 188.781,6051.89 h 3.53906 v 12.5 H 188.781 Z"
         style="fill:#231f20;fill-opacity:1;fill-rule:nonzero;stroke:none"
         id="path250" />
      <path
         d="m 228.121,6044.75 h 3.53906 v 12.5 H 228.121 Z"
         style="fill:#231f20;fill-opacity:1;fill-rule:nonzero;stroke:none"
         id="path252" />
      <path
         d="m 233.051,6044.75 h 3.53906 v 12.5 H 233.051 Z"
         style="fill:#231f20;fill-opacity:1;fill-rule:nonzero;stroke:none"
         id="path254" />
    </g>
  </g>
</svg>
