<?xml version="1.0" encoding="UTF-8" standalone="no"?>
<!-- Created with Inkscape (http://www.inkscape.org/) -->

<svg
   version="1.1"
   id="svg2"
   width="39.375603"
   height="47.582645"
   viewBox="0 0 39.375603 47.582643"
   xmlns="http://www.w3.org/2000/svg"
   xmlns:svg="http://www.w3.org/2000/svg">
  <defs
     id="defs6" />
  <g
     id="g10"
     transform="matrix(1.3333333,0,0,-1.3333333,-97.305733,725.69198)">
    <g
       id="g12"
       transform="scale(0.1)">
      <path
         d="m 809.25,5203.08 h -3.53906 v 12.5 H 809.25 Z m 1.461,12.5 h 3.53906 v -12.5 H 810.711 Z m 4.918,0 h 3.54297 v -12.5 H 815.629 Z m 12.711,45.91 h 3.53906 v -12.5 H 828.34 Z m 14.39,-66.12 -4.98,71.75 h -33.898 l -9.063,-105.32 c 18.32,11.39 34.723,23.24 47.941,33.57"
         style="fill:#ffffff;fill-opacity:1;fill-rule:nonzero;stroke:none"
         id="path1874" />
      <path
         d="m 837.41,5272.12 -0.969,14.01 h -30.949 l -1.211,-14.01 z"
         style="fill:#ffffff;fill-opacity:1;fill-rule:nonzero;stroke:none"
         id="path1876" />
      <path
         d="m 990.801,5127.41 h -3.53906 v 12.5 h 3.53906 z m -4.922,0 h -3.53906 v 12.5 h 3.53906 z m -85.668,-4.72 h -3.53906 v 12.5 h 3.53906 z m -17.52,22.14 h -3.54297 v 12.5 h 3.54297 z m -4.929,0 h -3.54297 v 12.5 h 3.54297 z m -5,0 h -3.54297 v 12.5 h 3.54297 z m -31.41,-43.68 h -3.54297 v 12.5 h 3.54297 z m -27.864,0 h -3.53906 v 12.5 h 3.53906 z m -4.929,0 h -3.53906 v 12.5 H 808.559 Z M 997.891,5148 h -71.852 c 0,0 -29.059,0.32 -30.617,4.07 -1.563,3.75 -2.5,9.37 -2.5,9.37 0,0 -22.5,1.88 -31.563,0 -9.07,-1.87 -11.879,-28.12 -11.879,-28.12 l -49.031,-1.8 -6.719,-38.2 h 61.692 v 17.03 c 0,3.81 3.098,6.89 6.898,6.89 3.801,0 6.899,-3.08 6.899,-6.89 v -17.03 h 39.871 c -0.629,1.94 -0.918,4.02 -0.93,6.17 0.02,5.21 1.328,10.87 2.539,15.08 h -8.918 c 0,0 36.449,22.91 45.199,25.2 8.75,2.3 47.301,-25.2 47.301,-25.2 h -8.242 c 0.781,-2.74 1.43,-6.11 1.441,-9.85 0.008,-3.62 -0.73,-7.57 -2.539,-11.4 h 20.469 c -2.69,8.91 -7.82,28.51 -7.851,48.03 0,2.23 0.179,4.44 0.332,6.65"
         style="fill:#ffffff;fill-opacity:1;fill-rule:nonzero;stroke:none"
         id="path1878" />
      <path
         d="m 924.59,5111.02 h 3.53906 v -12.5 H 924.59 Z m 39.191,-7.51 c 0,2.15 1.739,3.89 3.899,3.89 2.14,0 3.89,-1.74 3.89,-3.89 v -10.19 h 7.668 c 2.352,3.69 3.231,7.62 3.242,11.4 0.008,3.8 -0.832,7.25 -1.671,9.85 H 915.93 l -0.641,-2.13 c -1.078,-3.87 -2.141,-8.85 -2.129,-12.95 0,-2.05 0.281,-3.86 0.801,-5.15 l 0.598,-1.02 h 49.222"
         style="fill:#ffffff;fill-opacity:1;fill-rule:nonzero;stroke:none"
         id="path1880" />
      <path
         d="m 778,5110.99 h -3.53906 v 12.5 H 778 Z m 1.379,12.5 h 3.54297 v -12.5 H 779.379 Z m 9.269,-30.17 6.692,38.02 -23.36,-0.86 -6.191,-37.16 z"
         style="fill:#ffffff;fill-opacity:1;fill-rule:nonzero;stroke:none"
         id="path1882" />
      <path
         d="m 795.344,5131.34 -6.692,-38.02 h -22.859 l 6.187,37.17 z m 8.508,135.78 h 33.902 l 4.976,-71.75 c -13.218,-10.33 -29.628,-22.18 -47.949,-33.57 z m 15.32,19.01 h 17.269 l 0.969,-14.01 h -33.129 l 1.211,14.01 z m 165.769,-192.81 c 1.813,3.83 2.551,7.79 2.539,11.4 -0.007,3.74 -0.667,7.11 -1.437,9.85 h 8.238 c 0,0 -38.551,27.5 -47.301,25.2 -8.75,-2.29 -45.199,-25.2 -45.199,-25.2 h 8.922 c -1.211,-4.21 -2.519,-9.87 -2.543,-15.08 0.012,-2.15 0.301,-4.23 0.934,-6.17 h -39.871 v 17.03 c 0,3.81 -3.102,6.89 -6.903,6.89 -3.808,0 -6.898,-3.08 -6.898,-6.89 v -17.03 H 793.73 l 6.723,38.21 49.027,1.79 c 0,0 2.813,26.25 11.883,28.12 9.059,1.88 31.559,0 31.559,0 0,0 0.941,-5.62 2.5,-9.37 1.558,-3.75 30.621,-4.06 30.621,-4.06 h 71.848 c -0.149,-2.22 -0.328,-4.43 -0.328,-6.66 0.031,-19.52 5.157,-39.12 7.847,-48.03 z m -70.988,1.02 c -0.512,1.29 -0.793,3.1 -0.793,5.15 -0.008,4.11 1.051,9.08 2.133,12.95 l 0.641,2.13 h 64.879 c 0.839,-2.6 1.679,-6.05 1.667,-9.85 -0.007,-3.78 -0.886,-7.71 -3.238,-11.4 h -7.672 v 10.19 c 0,2.15 -1.75,3.89 -3.898,3.89 -2.149,0 -3.891,-1.74 -3.891,-3.89 v -10.19 h -49.218 z m 99.747,-2.42 c -1.72,5.18 -8.66,27.92 -8.64,49.43 0,2.26 0.16,4.46 0.33,6.66 h 19.72 c 0,0 -24.38,3.43 -34.997,76.25 -6.57,-40.32 -13.133,-60.63 -24.07,-59.69 -10.93,0.94 -35,58.12 -35,58.12 v 20.94 h -0.512 l -2.449,17.86 -2.441,-17.86 h -42.957 l -2.442,17.86 -2.441,-17.86 h -0.348 v -18.75 c 0,0 -10.39,-9.96 -27.601,-23.84 l -5.899,85.09 h 11.469 c -1.961,5.24 -5.91,9.71 -9.84,13.2 2.352,0.22 4.211,2.14 4.211,4.53 v 7.82 c 0,2.06 -1.383,3.75 -3.262,4.33 1.699,1.86 3.289,3.98 4.512,6.37 -10.313,4.69 -31.871,120.31 -31.871,120.31 0,0 -21.559,-115.62 -31.879,-120.31 1.219,-2.37 2.801,-4.47 4.48,-6.31 -2.011,-0.5 -3.543,-2.24 -3.543,-4.39 v -7.82 c 0,-2.48 2,-4.49 4.461,-4.58 -3.89,-3.48 -7.808,-7.93 -9.769,-13.15 h 15.039 l -11.129,-129.21 c -17.738,-10.56 -37.059,-20.45 -57.039,-27.98 l 34.539,1.26 -7.398,-44.38 h 258.886 l -1.75,4.99"
         style="fill:#231f20;fill-opacity:1;fill-rule:nonzero;stroke:none"
         id="path1884" />
      <path
         d="m 805.02,5101.15 h 3.53906 v 12.5 H 805.02 Z"
         style="fill:#231f20;fill-opacity:1;fill-rule:nonzero;stroke:none"
         id="path1886" />
      <path
         d="m 809.941,5101.15 h 3.53906 v 12.5 H 809.941 Z"
         style="fill:#231f20;fill-opacity:1;fill-rule:nonzero;stroke:none"
         id="path1888" />
      <path
         d="m 869.219,5144.83 h 3.54297 v 12.5 H 869.219 Z"
         style="fill:#231f20;fill-opacity:1;fill-rule:nonzero;stroke:none"
         id="path1890" />
      <path
         d="m 874.219,5144.83 h 3.54297 v 12.5 H 874.219 Z"
         style="fill:#231f20;fill-opacity:1;fill-rule:nonzero;stroke:none"
         id="path1892" />
      <path
         d="m 879.141,5144.83 h 3.53906 v 12.5 H 879.141 Z"
         style="fill:#231f20;fill-opacity:1;fill-rule:nonzero;stroke:none"
         id="path1894" />
      <path
         d="m 982.34,5127.41 h 3.53906 v 12.5 H 982.34 Z"
         style="fill:#231f20;fill-opacity:1;fill-rule:nonzero;stroke:none"
         id="path1896" />
      <path
         d="m 987.27,5127.41 h 3.53906 v 12.5 H 987.27 Z"
         style="fill:#231f20;fill-opacity:1;fill-rule:nonzero;stroke:none"
         id="path1898" />
      <path
         d="m 896.672,5122.69 h 3.53906 v 12.5 H 896.672 Z"
         style="fill:#231f20;fill-opacity:1;fill-rule:nonzero;stroke:none"
         id="path1900" />
      <path
         d="m 924.59,5098.52 h 3.53906 v 12.5 H 924.59 Z"
         style="fill:#231f20;fill-opacity:1;fill-rule:nonzero;stroke:none"
         id="path1902" />
      <path
         d="m 805.711,5203.08 h 3.53906 v 12.5 H 805.711 Z"
         style="fill:#231f20;fill-opacity:1;fill-rule:nonzero;stroke:none"
         id="path1904" />
      <path
         d="m 810.711,5203.08 h 3.53906 v 12.5 H 810.711 Z"
         style="fill:#231f20;fill-opacity:1;fill-rule:nonzero;stroke:none"
         id="path1906" />
      <path
         d="m 815.629,5203.08 h 3.54297 v 12.5 H 815.629 Z"
         style="fill:#231f20;fill-opacity:1;fill-rule:nonzero;stroke:none"
         id="path1908" />
      <path
         d="m 774.461,5110.99 h 3.53906 v 12.5 H 774.461 Z"
         style="fill:#231f20;fill-opacity:1;fill-rule:nonzero;stroke:none"
         id="path1910" />
      <path
         d="m 779.379,5110.99 h 3.54297 v 12.5 H 779.379 Z"
         style="fill:#231f20;fill-opacity:1;fill-rule:nonzero;stroke:none"
         id="path1912" />
      <path
         d="m 837.801,5101.15 h 3.53906 v 12.5 H 837.801 Z"
         style="fill:#231f20;fill-opacity:1;fill-rule:nonzero;stroke:none"
         id="path1914" />
      <path
         d="m 828.34,5248.99 h 3.53906 v 12.5 H 828.34 Z"
         style="fill:#231f20;fill-opacity:1;fill-rule:nonzero;stroke:none"
         id="path1916" />
    </g>
  </g>
</svg>
