<?xml version="1.0" encoding="UTF-8" standalone="no"?>
<!-- Created with Inkscape (http://www.inkscape.org/) -->

<svg
   version="1.1"
   id="svg2"
   width="33.112"
   height="39.669312"
   viewBox="0 0 33.111999 39.66931"
   xmlns="http://www.w3.org/2000/svg"
   xmlns:svg="http://www.w3.org/2000/svg">
  <defs
     id="defs6" />
  <g
     id="g10"
     transform="matrix(1.3333333,0,0,-1.3333333,-517.80268,595.39727)">
    <g
       id="g12"
       transform="scale(0.1)">
      <path
         d="m 3988.47,4354.46 h -3.5391 v 12.5 h 3.5391 z m 1.45,12.5 h 3.5352 v -12.5 h -3.5352 z m 4.92,0 h 3.5391 v -12.5 h -3.5391 z m 21.37,0 h 3.5391 v -12.5 h -3.5391 z m 5,0 h 3.5391 v -12.5 h -3.5391 z m 4.92,0 h 3.543 v -12.5 h -3.543 z m -22.33,-14.42 v 9.78 c 0,2.15 1.74,3.9 3.9,3.9 2.14,0 3.89,-1.75 3.89,-3.9 v -9.78 h 22.49 v 17.08 h -26.38 -26.4 v -17.08"
         style="fill:#ffffff;fill-opacity:1;fill-rule:nonzero;stroke:none"
         id="path4364" />
      <path
         d="m 4028.59,4191.8 h 3.5391 v -12.5 h -3.5391 z m 5,0 h 3.5391 v -12.5 h -3.5391 z m 4.93,0 h 3.5391 v -12.5 h -3.5391 z m -96.24,-12.5 h -3.543 v 12.5 h 3.543 z m -21.81,21.19 v -25.03 h 80.32 v 17.03 c 0,3.81 3.1,6.89 6.91,6.89 3.79,0 6.89,-3.08 6.89,-6.89 v -17.03 h 80.32 v 25.03 h -87.21"
         style="fill:#ffffff;fill-opacity:1;fill-rule:nonzero;stroke:none"
         id="path4366" />
      <path
         d="m 3998.39,4300.46 h -3.5391 v 12.5 h 3.5391 z m 39.43,12.5 h 3.5391 v -12.5 h -3.5391 z m 4.92,0 h 3.543 v -12.5 h -3.543 z m -38.94,-13.75 v 7.8 c 0,2.15 1.74,3.89 3.9,3.89 2.14,0 3.89,-1.74 3.89,-3.89 v -7.8 h 42.07 v 15 h -45.96 -45.98 v -15"
         style="fill:#ffffff;fill-opacity:1;fill-rule:nonzero;stroke:none"
         id="path4368" />
      <path
         d="m 3963.8,4240.06 h -3.5391 v 12.5 h 3.5391 z m 64.1,12.5 h 3.543 v -12.5 h -3.543 z m 4.92,0 h 3.5391 v -12.5 h -3.5391 z m -29.02,-13.75 v 9.76 c 0,2.15 1.74,3.9 3.9,3.9 2.14,0 3.89,-1.75 3.89,-3.9 v -9.76 h 55.4 v 14.99 h -59.29 -59.31 v -14.99"
         style="fill:#ffffff;fill-opacity:1;fill-rule:nonzero;stroke:none"
         id="path4370" />
      <path
         d="m 4007.7,4253.8 h 59.3 v -15 h -55.41 v 9.77 c 0,2.14 -1.75,3.89 -3.89,3.89 -2.16,0 -3.9,-1.75 -3.9,-3.89 v -9.77 h -55.41 v 15 z m 0,60.4 h 45.96 v -15 h -42.07 v 7.8 c 0,2.16 -1.75,3.91 -3.89,3.91 -2.16,0 -3.9,-1.75 -3.9,-3.91 v -7.8 h -42.09 v 15 z m 0,55.43 h 26.39 v -17.08 h -22.5 v 9.77 c 0,2.14 -1.75,3.89 -3.89,3.89 -2.16,0 -3.9,-1.75 -3.9,-3.89 v -9.77 h -22.5 v 17.08 z m 87.21,-194.17 h -80.32 v 17.04 c 0,3.8 -3.09,6.89 -6.89,6.89 -3.81,0 -6.9,-3.09 -6.9,-6.89 v -17.04 h -80.34 v 25.04 h 87.24 87.21 z m 36.95,25.04 -43.5,22.89 v 15.41 h -13.86 v 15 h 28.41 l -33.36,27.15 v 18.25 h -8.39 v 15 h 11.95 l -22.91,22.93 v 15.42 h -8.61 v 17.08 h 18.32 l -21.66,17.07 -18.96,60.62 -2.49,18.16 -2.46,-18.14 h -6.64 -6.41 l -2.47,18.14 -2.48,-18.14 h -0.25 l -18.95,-60.64 -21.68,-17.07 h 18.34 v -17.08 h -8.6 v -15.42 l -22.93,-22.93 h 11.94 v -15 h -8.39 v -18.25 l -33.34,-27.15 h 28.41 v -15 h -13.87 v -15.41 l -43.5,-22.89 h 29.44 v -32.54 h 94.74 94.71 v 32.54"
         style="fill:#231f20;fill-opacity:1;fill-rule:nonzero;stroke:none"
         id="path4372" />
      <path
         d="m 3984.93,4354.46 h 3.5391 v 12.5 h -3.5391 z"
         style="fill:#231f20;fill-opacity:1;fill-rule:nonzero;stroke:none"
         id="path4374" />
      <path
         d="m 3989.93,4354.46 h 3.5391 v 12.5 h -3.5391 z"
         style="fill:#231f20;fill-opacity:1;fill-rule:nonzero;stroke:none"
         id="path4376" />
      <path
         d="m 3994.85,4354.46 h 3.5391 v 12.5 h -3.5391 z"
         style="fill:#231f20;fill-opacity:1;fill-rule:nonzero;stroke:none"
         id="path4378" />
      <path
         d="m 4016.22,4354.46 h 3.543 v 12.5 h -3.543 z"
         style="fill:#231f20;fill-opacity:1;fill-rule:nonzero;stroke:none"
         id="path4380" />
      <path
         d="m 4021.22,4354.46 h 3.543 v 12.5 h -3.543 z"
         style="fill:#231f20;fill-opacity:1;fill-rule:nonzero;stroke:none"
         id="path4382" />
      <path
         d="m 4026.14,4354.46 h 3.5391 v 12.5 h -3.5391 z"
         style="fill:#231f20;fill-opacity:1;fill-rule:nonzero;stroke:none"
         id="path4384" />
      <path
         d="m 4037.83,4300.46 h 3.543 v 12.5 h -3.543 z"
         style="fill:#231f20;fill-opacity:1;fill-rule:nonzero;stroke:none"
         id="path4386" />
      <path
         d="m 4042.75,4300.46 h 3.5391 v 12.5 h -3.5391 z"
         style="fill:#231f20;fill-opacity:1;fill-rule:nonzero;stroke:none"
         id="path4388" />
      <path
         d="m 3960.26,4240.06 h 3.5391 v 12.5 h -3.5391 z"
         style="fill:#231f20;fill-opacity:1;fill-rule:nonzero;stroke:none"
         id="path4390" />
      <path
         d="m 4028.6,4179.3 h 3.5391 v 12.5 H 4028.6 Z"
         style="fill:#231f20;fill-opacity:1;fill-rule:nonzero;stroke:none"
         id="path4392" />
      <path
         d="m 4033.6,4179.3 h 3.5391 v 12.5 H 4033.6 Z"
         style="fill:#231f20;fill-opacity:1;fill-rule:nonzero;stroke:none"
         id="path4394" />
      <path
         d="m 4038.52,4179.3 h 3.5391 v 12.5 h -3.5391 z"
         style="fill:#231f20;fill-opacity:1;fill-rule:nonzero;stroke:none"
         id="path4396" />
      <path
         d="m 4027.91,4240.06 h 3.5391 v 12.5 h -3.5391 z"
         style="fill:#231f20;fill-opacity:1;fill-rule:nonzero;stroke:none"
         id="path4398" />
      <path
         d="m 4032.83,4240.06 h 3.543 v 12.5 h -3.543 z"
         style="fill:#231f20;fill-opacity:1;fill-rule:nonzero;stroke:none"
         id="path4400" />
      <path
         d="m 3938.73,4179.3 h 3.5391 v 12.5 h -3.5391 z"
         style="fill:#231f20;fill-opacity:1;fill-rule:nonzero;stroke:none"
         id="path4402" />
      <path
         d="m 3994.85,4300.46 h 3.5391 v 12.5 h -3.5391 z"
         style="fill:#231f20;fill-opacity:1;fill-rule:nonzero;stroke:none"
         id="path4404" />
    </g>
  </g>
</svg>
