<?xml version="1.0" encoding="UTF-8" standalone="no"?>
<!-- John Grümph
     https://legrumph.org/Terrier/public/chibi/de-chorographia
     CC BY-NC 3.0
     https://creativecommons.org/licenses/by-nc/3.0/fr/ -->
<!-- Created with Inkscape (http://www.inkscape.org/) -->

<svg
   version="1.1"
   id="svg2"
   width="41.345093"
   height="23.332033"
   viewBox="0 0 41.345093 23.332032"
   xmlns="http://www.w3.org/2000/svg"
   xmlns:svg="http://www.w3.org/2000/svg">
  <defs
     id="defs6" />
  <g
     id="g10"
     transform="matrix(1.3333333,0,0,-1.3333333,-635.69354,579.05999)">
    <g
       id="g12"
       transform="scale(0.1)">
      <path
         d="m 4831.34,4198.06 h 3.5391 v -12.5 h -3.5391 z m 14.37,14.28 c -3.5,-0.33 -10.09,-0.82 -15.62,-0.53 -7.92,0.42 -15,-8.54 -15,-8.54 0,0 -5.74,-0.18 -13.2,-0.36 l -1.13,-27.45 h 44.95"
         style="fill:#ffffff;fill-opacity:1;fill-rule:nonzero;stroke:none"
         id="path4478" />
      <path
         d="m 4849.67,4258.58 v -0.13 h 148.13 v 0.13 h 35.32 l 13.05,31.01 -12.48,12.48 c -2.93,-2.98 -6.71,-5.33 -11.01,-7.28 -5.23,-2.35 -11.37,-4.06 -17.89,-5.44 l 0.01,-0.06 -0.69,-0.1 -1.85,-0.44 -4.46,-0.86 v 0.3 c -29.88,-4.97 -56.41,-6.81 -78.46,-6.81 -35.87,0 -60.23,4.46 -69.67,6.55 v -0.04 l -4.46,0.86 c -7.51,1.45 -14.5,3.37 -20.42,6.04 -4.31,1.95 -8.09,4.31 -11.02,7.28 l -12.48,-12.48 13.06,-31.01"
         style="fill:#ffffff;fill-opacity:1;fill-rule:nonzero;stroke:none"
         id="path4480" />
      <path
         d="m 4887.87,4222.19 h -3.5391 v 12.5 h 3.5391 z m 1.47,12.5 h 3.5391 v -12.5 h -3.5391 z m 4.92,0 h 3.5352 v -12.5 h -3.5352 z m 54.56,14.62 h 3.5391 v -12.5 h -3.5391 z m 5,0 h 3.5391 v -12.5 h -3.5391 z m 4.92,0 h 3.543 v -12.5 h -3.543 z m -80.53,-35 h 38.83 v 19.06 c 0,3.81 3.1,6.89 6.91,6.89 3.79,0 6.89,-3.08 6.89,-6.89 v -19.06 h 38.83 v 39.14 h -91.46"
         style="fill:#ffffff;fill-opacity:1;fill-rule:nonzero;stroke:none"
         id="path4482" />
      <path
         d="m 4878.21,4204.31 h 91.4609 v 5 H 4878.21 Z"
         style="fill:#ffffff;fill-opacity:1;fill-rule:nonzero;stroke:none"
         id="path4484" />
      <path
         d="m 4972.79,4320.1 -1.28,1.4 c -1.47,1.45 -3.92,3.46 -7.62,5.52 -7.4,4.12 -19.91,8.43 -40.16,8.44 -34.25,-0.08 -46.41,-12.2 -49.07,-15.36 v -7.87 h 98.13"
         style="fill:#ffffff;fill-opacity:1;fill-rule:nonzero;stroke:none"
         id="path4486" />
      <path
         d="m 4851.39,4292.66 c 3.22,-0.69 8,-1.62 14.23,-2.55 12.45,-1.86 30.68,-3.73 53.72,-3.73 22,0 48.52,1.84 78.46,6.88 v 13.97 h -148.13 v -14.18"
         style="fill:#ffffff;fill-opacity:1;fill-rule:nonzero;stroke:none"
         id="path4488" />
      <path
         d="m 4878.21,4184.31 h 91.4609 v 5 H 4878.21 Z"
         style="fill:#ffffff;fill-opacity:1;fill-rule:nonzero;stroke:none"
         id="path4490" />
      <path
         d="m 4878.21,4194.31 h 91.4609 v 5 H 4878.21 Z"
         style="fill:#ffffff;fill-opacity:1;fill-rule:nonzero;stroke:none"
         id="path4492" />
      <path
         d="m 4993.84,4175.46 h 3.332 v 77.9883 h -3.332 z"
         style="fill:#ffffff;fill-opacity:1;fill-rule:nonzero;stroke:none"
         id="path4494" />
      <path
         d="m 4969.67,4175.46 v 3.85 h -91.46 v -3.85 h 45.52"
         style="fill:#ffffff;fill-opacity:1;fill-rule:nonzero;stroke:none"
         id="path4496" />
      <path
         d="m 5034.07,4198.06 h 3.5391 v -12.5 h -3.5391 z m -1.37,-12.5 h -3.5391 v 12.5 h 3.5391 z m 12.69,21.45 c -7.35,-0.34 -13.19,-0.62 -13.63,-0.62 -1.25,0 -11.15,5.32 -18.77,8.44 -4.59,1.88 -8.45,0.4 -10.82,-1.07 v -38.3 h 44.53"
         style="fill:#ffffff;fill-opacity:1;fill-rule:nonzero;stroke:none"
         id="path4498" />
      <path
         d="m 4850.71,4175.46 h 3.3281 v 77.9883 h -3.3281 z"
         style="fill:#ffffff;fill-opacity:1;fill-rule:nonzero;stroke:none"
         id="path4500" />
      <path
         d="m 4974.67,4175.46 h 14.1719 v 77.9883 H 4974.67 Z"
         style="fill:#ffffff;fill-opacity:1;fill-rule:nonzero;stroke:none"
         id="path4502" />
      <path
         d="m 4859.04,4175.46 h 14.1719 v 77.9883 H 4859.04 Z"
         style="fill:#ffffff;fill-opacity:1;fill-rule:nonzero;stroke:none"
         id="path4504" />
      <path
         d="m 4948.82,4236.81 h 3.5391 v 12.5 h -3.5391 z"
         style="fill:#231f20;fill-opacity:1;fill-rule:nonzero;stroke:none"
         id="path4506" />
      <path
         d="m 4953.82,4236.81 h 3.5391 v 12.5 h -3.5391 z"
         style="fill:#231f20;fill-opacity:1;fill-rule:nonzero;stroke:none"
         id="path4508" />
      <path
         d="m 4958.75,4236.81 h 3.5391 v 12.5 h -3.5391 z"
         style="fill:#231f20;fill-opacity:1;fill-rule:nonzero;stroke:none"
         id="path4510" />
      <path
         d="m 4884.33,4222.19 h 3.5352 v 12.5 h -3.5352 z"
         style="fill:#231f20;fill-opacity:1;fill-rule:nonzero;stroke:none"
         id="path4512" />
      <path
         d="m 4889.33,4222.19 h 3.5352 v 12.5 h -3.5352 z"
         style="fill:#231f20;fill-opacity:1;fill-rule:nonzero;stroke:none"
         id="path4514" />
      <path
         d="m 4894.25,4222.19 h 3.5391 v 12.5 h -3.5391 z"
         style="fill:#231f20;fill-opacity:1;fill-rule:nonzero;stroke:none"
         id="path4516" />
      <path
         d="m 5029.15,4185.56 h 3.543 v 12.5 h -3.543 z"
         style="fill:#231f20;fill-opacity:1;fill-rule:nonzero;stroke:none"
         id="path4518" />
      <path
         d="m 5034.07,4185.56 h 3.5391 v 12.5 h -3.5391 z"
         style="fill:#231f20;fill-opacity:1;fill-rule:nonzero;stroke:none"
         id="path4520" />
      <path
         d="m 4831.34,4185.56 h 3.5391 v 12.5 h -3.5391 z"
         style="fill:#231f20;fill-opacity:1;fill-rule:nonzero;stroke:none"
         id="path4522" />
      <path
         d="m 5052.88,4207.38 c 1.38,0.05 2.74,0.12 4.11,0.19 l -3.86,-6.16 z m -50.71,6.37 c 2.37,1.48 6.23,2.96 10.82,1.09 7.61,-3.14 17.52,-8.45 18.77,-8.45 0.44,0 6.28,0.27 13.63,0.63 l 1.31,-31.56 h -44.53 z m -8.33,39.7 h 3.332 v -77.9922 h -3.332 z m -19.17,0 h 14.168 v -77.9922 h -14.168 z m -96.46,-74.15 h 91.4609 v -3.8398 H 4878.21 Z m -19.17,74.15 h 14.168 v -77.9922 h -14.168 z m -8.33,0 h 3.3281 v -77.9922 h -3.3281 z m -48.82,-50.55 c 7.45,0.19 13.2,0.37 13.2,0.37 0,0 7.08,8.95 15,8.53 5.53,-0.28 12.12,0.22 15.62,0.54 v -36.88 h -44.95 z m -7.88,-9.18 -5.71,8.91 c 2.02,0.03 4.06,0.07 6.08,0.12 z m 175.66,20.58 h -38.83 v 19.08 c 0,3.8 -3.1,6.89 -6.9,6.89 -3.8,0 -6.9,-3.09 -6.9,-6.89 v -19.08 h -38.83 v 39.15 h 91.46 z m 0,-10 h -91.4609 v 5 h 91.4609 z m 0,-10 h -91.4609 v 5 h 91.4609 z m 0,-10 h -91.4609 v 5 h 91.4609 z m 28.12,122.92 v -13.97 c -29.93,-5.04 -56.45,-6.87 -78.45,-6.87 -23.04,0 -41.27,1.87 -53.73,3.73 -6.22,0.93 -11,1.85 -14.21,2.55 l -1.73,0.38 v 14.18 z m -123.12,12.89 c 2.65,3.14 14.81,15.27 49.06,15.34 20.25,0 32.76,-4.32 40.17,-8.43 3.7,-2.06 6.13,-4.07 7.61,-5.52 l 1.28,-1.41 v -7.87 h -98.12 z m -60.9,-18.04 c 2.93,-2.98 6.71,-5.32 11.01,-7.28 5.92,-2.66 12.91,-4.59 20.42,-6.04 l 4.47,-0.87 v 0.05 c 9.44,-2.09 33.8,-6.55 69.67,-6.55 22.05,0 48.58,1.83 78.45,6.82 v -0.32 l 4.47,0.87 1.85,0.43 0.68,0.11 -0.01,0.05 c 6.53,1.38 12.67,3.09 17.89,5.45 4.31,1.96 8.09,4.3 11.02,7.28 l 12.48,-12.48 -13.06,-31 h -35.32 v -0.14 h -148.12 v 0.14 h -35.33 l -13.05,31 z m 240.01,-113.73 12.34,19.68 c 6.67,0.32 11.67,0.57 11.67,0.57 0,0 -52.56,22.43 -72.5,35.91 v 6.59 h 32.8 l 16.95,40.23 -22.28,22.29 -2.51,-3.96 c -1.83,-2.93 -5.5,-5.72 -10.65,-8.02 -4.01,-1.81 -8.99,-3.23 -14.31,-4.47 v 17.98 h -25 v 6.25 1.08 l -0.57,0.92 c -0.48,0.95 -13.34,19.66 -55.99,19.56 -42.65,0.1 -55.51,-18.61 -55.99,-19.56 l -0.57,-0.92 v -7.33 h -25 v -17.98 c -5.33,1.24 -10.31,2.66 -14.3,4.47 -5.16,2.3 -8.82,5.09 -10.66,8.03 l -2.51,3.93 -22.28,-22.27 16.94,-40.23 h 32.81 v -10.03 c -14.67,-7.79 -68.56,-36.36 -73.96,-37.79 -2.26,-0.61 3.29,-0.77 11.24,-0.73 l 14.03,-21.86 -0.53,-12.72 h 130.78 130.78 l -0.84,20.45"
         style="fill:#231f20;fill-opacity:1;fill-rule:nonzero;stroke:none"
         id="path4524" />
    </g>
  </g>
</svg>
