<?xml version="1.0" encoding="UTF-8" standalone="no"?>
<!-- John Grümph
     https://legrumph.org/Terrier/public/chibi/de-chorographia
     CC BY-NC 3.0
     https://creativecommons.org/licenses/by-nc/3.0/fr/ -->
<!-- Created with Inkscape (http://www.inkscape.org/) -->

<svg
   version="1.1"
   id="svg2"
   width="39.445312"
   height="30.646669"
   viewBox="0 0 39.445312 30.646668"
   xmlns="http://www.w3.org/2000/svg"
   xmlns:svg="http://www.w3.org/2000/svg">
  <defs
     id="defs6" />
  <g
     id="g10"
     transform="matrix(1.3333333,0,0,-1.3333333,-495.91998,931.48664)">
    <g
       id="g12"
       transform="scale(0.1)">
      <path
         d="m 3873.39,6819.82 h 3.5391 v -12.5 h -3.5391 z m -8.96,-35.94 h -3.5391 v 12.5 h 3.5391 z m -23.36,37.89 h -3.5391 v 12.5 h 3.5391 z m -4.92,0 h -3.5391 v 12.5 h 3.5391 z m 80.15,-22.8 h 3.5391 v -12.5 H 3916.3 Z m 5,0 h 3.5391 v -12.5 H 3921.3 Z m 4.92,0 h 3.543 v -12.5 h -3.543 z m 13.11,20.85 h 3.5352 v -12.5 h -3.5352 z m 22.03,-20.85 h 3.5391 v -12.5 h -3.5391 z m 5,0 h 3.5391 v -12.5 h -3.5391 z m 3.15,35.3 h 3.5391 v -12.5 h -3.5391 z m 5.31,-47.8 h -3.5391 v 12.5 h 3.5391 z m -96.64,6.94 c 0,3.81 3.09,6.9 6.9,6.9 3.81,0 6.89,-3.09 6.89,-6.9 v -16.69 c 4.45,0.35 7.99,0.71 10.26,0.98 1.9,0.22 2.9,0.35 2.91,0.35 l 0.25,0.04 h 79.37 l -7.38,60.16 -13.81,-0.44 -3.33,-11.25 -29.59,0.83 c 0,0 -16.66,-2.08 -19.16,-2.08 -2.5,0 -56.25,-0.42 -56.25,-0.42 l -4.59,14.58 c 0,0 -21.25,-0.83 -27.5,-4.16 -6.25,-3.34 -8.75,-35 -8.75,-35 h -35.62 l 15.91,-18.68 -2.85,-2.43 -2.86,-2.44 -20.05,23.55 h -4.58 l -0.69,-3.97 12.54,-14.71 -2.85,-2.43 -2.85,-2.44 -8.48,9.95 -3.29,-19.26 c 8.34,2.57 24.47,7.01 42.51,9.25 v 9.54 c 0,2.15 1.75,3.89 3.9,3.89 2.15,0 3.89,-1.74 3.89,-3.89 v -8.71 c 4.27,0.35 8.59,0.56 12.9,0.56 4.48,0 8.94,-0.22 13.32,-0.72 10.7,-1.23 21.27,-1.67 30.84,-1.67 4.26,0 8.31,0.09 12.09,0.23"
         style="fill:#ffffff;fill-opacity:1;fill-rule:nonzero;stroke:none"
         id="path1460" />
      <path
         d="m 3755.68,6794.15 -1.09,-6.42 -10.71,12.58 h 6.57 z m 229.23,44.35 8.13,0.26 -7.16,-8.12 z m -149.66,-61.13 c -4.37,0.51 -8.85,0.73 -13.32,0.73 -4.32,-0.01 -8.63,-0.21 -12.89,-0.57 v 8.71 c 0,2.15 -1.75,3.9 -3.91,3.9 -2.15,0 -3.89,-1.75 -3.89,-3.9 v -9.54 c -18.04,-2.24 -34.17,-6.68 -42.51,-9.24 l 3.29,19.25 8.47,-9.94 2.87,2.43 2.84,2.43 -12.54,14.72 0.68,3.96 h 4.59 l 20.05,-23.54 2.85,2.43 2.85,2.43 -15.89,18.68 h 35.61 c 0,0 2.5,31.67 8.75,35 6.25,3.34 27.5,4.17 27.5,4.17 l 4.59,-14.58 c 0,0 53.75,0.41 56.25,0.41 2.5,0 19.16,2.09 19.16,2.09 l 29.59,-0.84 3.33,11.25 13.81,0.45 7.37,-60.16 h -79.36 l -0.26,-0.04 c 0,0 -1,-0.14 -2.91,-0.36 -2.26,-0.26 -5.81,-0.63 -10.25,-0.97 v 16.69 c 0,3.81 -3.09,6.89 -6.9,6.89 -3.8,0 -6.89,-3.08 -6.89,-6.89 v -17.48 c -3.78,-0.14 -7.82,-0.23 -12.09,-0.23 -9.57,0 -20.14,0.43 -30.84,1.66 m 151.84,43.33 16.27,18.4 11.88,0.38 c 0,0 -28.17,15.59 -40.42,25.72 v 38.86 h -21.71 c -6.56,17.38 -13.32,43.19 -16.62,82.09 -6.67,-57.09 -44.59,-115.42 -44.59,-115.42 h -29.16 l -13.75,38.33 h -0.97 l -2.3,16.88 -2.31,-16.88 h -54.32 l -2.3,16.88 -2.31,-16.88 h -0.49 l -30,-80 -34.59,-28.75 h 14.62 l 18.93,-22.21 -3.73,-21.8 6.03,2.14 c 0,0.01 0.5,0.18 1.48,0.51 6.92,2.32 37.01,11.67 65.2,11.65 4.23,0 8.43,-0.21 12.46,-0.68 11.06,-1.27 21.91,-1.71 31.7,-1.71 21.9,0 38.34,2.19 39.8,2.39 h 87.34"
         style="fill:#231f20;fill-opacity:1;fill-rule:nonzero;stroke:none"
         id="path1462" />
      <path
         d="m 3916.29,6786.47 h 3.543 v 12.5 h -3.543 z"
         style="fill:#231f20;fill-opacity:1;fill-rule:nonzero;stroke:none"
         id="path1464" />
      <path
         d="m 3921.29,6786.47 h 3.543 v 12.5 h -3.543 z"
         style="fill:#231f20;fill-opacity:1;fill-rule:nonzero;stroke:none"
         id="path1466" />
      <path
         d="m 3926.22,6786.47 h 3.543 v 12.5 h -3.543 z"
         style="fill:#231f20;fill-opacity:1;fill-rule:nonzero;stroke:none"
         id="path1468" />
      <path
         d="m 3832.61,6821.77 h 3.5391 v 12.5 h -3.5391 z"
         style="fill:#231f20;fill-opacity:1;fill-rule:nonzero;stroke:none"
         id="path1470" />
      <path
         d="m 3837.53,6821.77 h 3.5391 v 12.5 h -3.5391 z"
         style="fill:#231f20;fill-opacity:1;fill-rule:nonzero;stroke:none"
         id="path1472" />
      <path
         d="m 3969.52,6821.77 h 3.5391 v 12.5 h -3.5391 z"
         style="fill:#231f20;fill-opacity:1;fill-rule:nonzero;stroke:none"
         id="path1474" />
      <path
         d="m 3860.89,6783.88 h 3.5391 v 12.5 h -3.5391 z"
         style="fill:#231f20;fill-opacity:1;fill-rule:nonzero;stroke:none"
         id="path1476" />
      <path
         d="m 3873.39,6807.32 h 3.5391 v 12.5 h -3.5391 z"
         style="fill:#231f20;fill-opacity:1;fill-rule:nonzero;stroke:none"
         id="path1478" />
      <path
         d="m 3939.33,6807.32 h 3.543 v 12.5 h -3.543 z"
         style="fill:#231f20;fill-opacity:1;fill-rule:nonzero;stroke:none"
         id="path1480" />
      <path
         d="m 3961.36,6786.47 h 3.5391 v 12.5 h -3.5391 z"
         style="fill:#231f20;fill-opacity:1;fill-rule:nonzero;stroke:none"
         id="path1482" />
      <path
         d="m 3966.36,6786.47 h 3.5391 v 12.5 h -3.5391 z"
         style="fill:#231f20;fill-opacity:1;fill-rule:nonzero;stroke:none"
         id="path1484" />
      <path
         d="m 3971.28,6786.47 h 3.5391 v 12.5 h -3.5391 z"
         style="fill:#231f20;fill-opacity:1;fill-rule:nonzero;stroke:none"
         id="path1486" />
    </g>
  </g>
</svg>
