<?xml version="1.0" encoding="UTF-8" standalone="no"?>
<!-- Created with Inkscape (http://www.inkscape.org/) -->

<svg
   version="1.1"
   id="svg2"
   width="56.281311"
   height="37.958679"
   viewBox="0 0 56.281311 37.958678"
   xmlns="http://www.w3.org/2000/svg"
   xmlns:svg="http://www.w3.org/2000/svg">
  <defs
     id="defs6" />
  <g
     id="g10"
     transform="matrix(1.3333333,0,0,-1.3333333,-280.87067,776.63867)">
    <g
       id="g12"
       transform="scale(0.1)">
      <path
         d="m 2184.79,5638.85 h -3.5391 v 12.5 h 3.5391 z m 1.46,12.5 h 3.5391 v -12.5 h -3.5391 z m 4.92,0 h 3.5352 v -12.5 h -3.5352 z m 16.64,7.19 h -39.1992 v -32.1875 h 39.1992 z"
         style="fill:#ffffff;fill-opacity:1;fill-rule:nonzero;stroke:none"
         id="path2216" />
      <path
         d="m 2234.05,5557.65 h -3.5391 v 12.5 h 3.5391 z m -4.92,0 h -3.5391 v 12.5 h 3.5391 z m -5,0 h -3.5391 v 12.5 h 3.5391 z m -49,-2.7 h -3.5391 v 12.5 h 3.5391 z m -4.92,0 h -3.5391 v 12.5 h 3.5391 z m 106.31,12.5 h 3.5391 v -12.5 h -3.5391 z m 0,40.55 h 3.5391 v -12.5 h -3.5391 z m 104.69,-31.6 h 3.5391 v -12.5 h -3.5391 z m 5,0 h 3.5391 v -12.5 h -3.5391 z m 0,47.03 h 3.5391 v -12.5 h -3.5391 z m 4.92,-47.03 h 3.543 v -12.5 h -3.543 z m 0,70.81 h 3.543 v -12.5 h -3.543 z m 5,0 h 3.543 v -12.5 h -3.543 z m 4.92,0 h 3.5391 v -12.5 h -3.5391 z m 9.75,-31.49 h 2.5 v 10.17 c 0,2.15 1.75,3.89 3.9,3.89 2.15,0 3.89,-1.74 3.89,-3.89 v -10.17 h 36.8 v -5 h -47.09 z m 22.23,15.79 h 3.5391 v -12.5 h -3.5391 z m 4.92,0 h 3.5391 v -12.5 h -3.5391 z m 23.49,-67.61 h -3.543 v 12.5 h 3.543 z m -4.93,0 h -3.543 v 12.5 h 3.543 z m -5,0 h -3.543 v 12.5 h 3.543 z m -14.25,25.35 h -3.543 v 12.5 h 3.543 z m -4.93,0 h -3.5469 v 12.5 h 3.5469 z m -5,0 h -3.5469 v 12.5 h 3.5469 z m -179.97,-24.65 c 0,3.8 3.09,6.89 6.9,6.89 3.81,0 6.89,-3.09 6.89,-6.89 v -17 h 215.51 v 9.7 c 0,2.15 1.75,3.9 3.9,3.9 2.15,0 3.89,-1.75 3.89,-3.9 v -9.7 h 26.46 c -7.78,9.63 -21.12,29.81 -25.18,58.59 v 0 c -0.76,5.4 -1.23,11.07 -1.24,17.06 l 0.01,0.38 -14.99,-21.7 -6.17,4.26 20.87,30.2 c -32.94,2.22 -69.77,5.37 -69.77,5.37 l -5,11.25 h -19.58 l -23.75,-27.5 c 0,0 -3.75,-29.58 -9.17,-40.83 -15.1,-4.7 -23.47,3.27 -35.97,13.38 l -12.07,-10.09 -4.82,5.75 10.86,9.07 c -1.72,1.29 -3.53,2.57 -5.43,3.86 l -9.18,-10.38 -5.61,4.97 8.32,9.41 c -4.92,2.82 -10.44,5.51 -16.93,7.78 -9.47,3.33 -19.71,2.89 -30.03,0.31 l 5.56,-21.19 -3.62,-0.95 -3.64,-0.95 -5.48,20.93 c -4.5,-1.55 -8.96,-3.44 -13.35,-5.57 l 12.65,-14.06 -2.78,-2.51 -2.79,-2.51 -13.99,15.54 c -22,-12 -41.09,-28.32 -49.2,-32.37 -6.52,-3.26 -20.17,-4.51 -33.95,-4.84 l 13.48,-9.55 -4.32,-6.12 -11.62,8.22 -2.5,-15.21 h 106.83"
         style="fill:#ffffff;fill-opacity:1;fill-rule:nonzero;stroke:none"
         id="path2218" />
      <path
         d="m 2143.03,5562.81 11.62,-8.22 4.33,6.13 -13.49,9.54 c 13.78,0.33 27.43,1.58 33.96,4.84 8.1,4.05 27.19,20.37 49.2,32.37 l 13.98,-15.54 2.79,2.51 2.79,2.51 -12.66,14.06 c 4.39,2.13 8.86,4.02 13.35,5.57 l 5.49,-20.93 3.63,0.95 3.62,0.96 -5.55,21.18 c 10.31,2.59 20.55,3.02 30.03,-0.31 6.48,-2.27 12,-4.96 16.92,-7.78 l -8.32,-9.41 5.61,-4.97 9.18,10.38 c 1.9,-1.29 3.72,-2.57 5.43,-3.85 l -10.86,-9.08 4.82,-5.75 12.07,10.09 c 12.5,-10.11 20.87,-18.08 35.98,-13.37 5.42,11.25 9.17,40.83 9.17,40.83 l 23.75,27.5 h 19.58 l 5,-11.25 c 0,0 36.82,-3.16 69.76,-5.38 l -20.87,-30.2 6.17,-4.26 14.99,21.7 -0.01,-0.38 c 0.01,-5.99 0.48,-11.66 1.25,-17.06 v 0 c 4.06,-28.78 17.4,-48.96 25.17,-58.59 h -26.45 v 9.7 c 0,2.16 -1.75,3.9 -3.9,3.9 -2.15,0 -3.9,-1.74 -3.9,-3.9 v -9.7 h -215.5 v 17 c 0,3.81 -3.09,6.89 -6.9,6.89 -3.81,0 -6.89,-3.08 -6.89,-6.89 v -17 h -106.84 z m -6.82,4.81 -0.42,-2.56 -7.34,5.19 c 1.35,-0.03 2.73,-0.05 4.14,-0.07 z m 51.78,90.92 h 19.83 v -32.19 h -39.2 v 32.19 z m 304,-35.29 c 0,3.96 0.36,8.14 0.8,12.36 l 0.14,0.22 c 4.45,-0.29 8.72,-0.54 12.76,-0.76 l -13.42,-19.43 c -0.17,2.49 -0.28,5.02 -0.28,7.61 m 29.83,-76.68 -0.27,0.27 c -2.62,2.62 -22.22,23.42 -27.94,57.55 l 20.89,30.25 c 5.27,-0.24 9.84,-0.37 13.28,-0.37 -32.91,23.75 -72.5,101.66 -72.5,101.66 0,0 -20,-57.91 -42.5,-57.49 -22.5,0.41 -72.08,2.91 -87.08,8.75 -15,5.83 -53.33,42.08 -53.33,42.08 l -51.25,-57.12 -1.15,-0.78 c -5.89,4.01 -9.88,8.5 -7.92,12.79 23.44,27.19 -12.18,55 -17.18,62.19 -5,7.19 -6.88,78.44 -6.88,78.44 0,0 -1.87,-71.25 -6.87,-78.44 -5,-7.19 -40.63,-35 -17.19,-62.19 5.48,-12.01 -35.31,-25.62 -35.31,-25.62 h 32.5 v -32.19 h -4.17 l -50.42,-55.08 c 1.03,-0.11 4.05,-0.33 8.25,-0.54 l 19.67,-13.9 -2.75,-16.73 h 4.42 392.52"
         style="fill:#231f20;fill-opacity:1;fill-rule:nonzero;stroke:none"
         id="path2220" />
      <path
         d="m 2391.14,5634.71 h 3.5391 v 12.5 h -3.5391 z"
         style="fill:#231f20;fill-opacity:1;fill-rule:nonzero;stroke:none"
         id="path2222" />
      <path
         d="m 2396.14,5634.71 h 3.5391 v 12.5 h -3.5391 z"
         style="fill:#231f20;fill-opacity:1;fill-rule:nonzero;stroke:none"
         id="path2224" />
      <path
         d="m 2401.06,5634.71 h 3.543 v 12.5 h -3.543 z"
         style="fill:#231f20;fill-opacity:1;fill-rule:nonzero;stroke:none"
         id="path2226" />
      <path
         d="m 2276.53,5595.5 h 3.5391 v 12.5 h -3.5391 z"
         style="fill:#231f20;fill-opacity:1;fill-rule:nonzero;stroke:none"
         id="path2228" />
      <path
         d="m 2181.25,5638.85 h 3.5391 v 12.5 h -3.5391 z"
         style="fill:#231f20;fill-opacity:1;fill-rule:nonzero;stroke:none"
         id="path2230" />
      <path
         d="m 2186.25,5638.85 h 3.5391 v 12.5 h -3.5391 z"
         style="fill:#231f20;fill-opacity:1;fill-rule:nonzero;stroke:none"
         id="path2232" />
      <path
         d="m 2191.18,5638.85 h 3.5391 v 12.5 h -3.5391 z"
         style="fill:#231f20;fill-opacity:1;fill-rule:nonzero;stroke:none"
         id="path2234" />
      <path
         d="m 2447.97,5563.9 h 3.543 v 12.5 h -3.543 z"
         style="fill:#231f20;fill-opacity:1;fill-rule:nonzero;stroke:none"
         id="path2236" />
      <path
         d="m 2452.97,5563.9 h 3.543 v 12.5 h -3.543 z"
         style="fill:#231f20;fill-opacity:1;fill-rule:nonzero;stroke:none"
         id="path2238" />
      <path
         d="m 2457.89,5563.9 h 3.5391 v 12.5 h -3.5391 z"
         style="fill:#231f20;fill-opacity:1;fill-rule:nonzero;stroke:none"
         id="path2240" />
      <path
         d="m 2433.02,5619.01 h 3.5391 v 12.5 h -3.5391 z"
         style="fill:#231f20;fill-opacity:1;fill-rule:nonzero;stroke:none"
         id="path2242" />
      <path
         d="m 2437.94,5619.01 h 3.5391 v 12.5 h -3.5391 z"
         style="fill:#231f20;fill-opacity:1;fill-rule:nonzero;stroke:none"
         id="path2244" />
      <path
         d="m 2276.53,5554.95 h 3.5391 v 12.5 h -3.5391 z"
         style="fill:#231f20;fill-opacity:1;fill-rule:nonzero;stroke:none"
         id="path2246" />
      <path
         d="m 2220.59,5557.65 h 3.5391 v 12.5 h -3.5391 z"
         style="fill:#231f20;fill-opacity:1;fill-rule:nonzero;stroke:none"
         id="path2248" />
      <path
         d="m 2225.59,5557.65 h 3.5391 v 12.5 h -3.5391 z"
         style="fill:#231f20;fill-opacity:1;fill-rule:nonzero;stroke:none"
         id="path2250" />
      <path
         d="m 2230.51,5557.65 h 3.5391 v 12.5 h -3.5391 z"
         style="fill:#231f20;fill-opacity:1;fill-rule:nonzero;stroke:none"
         id="path2252" />
      <path
         d="m 2381.22,5563.9 h 3.543 v 12.5 h -3.543 z"
         style="fill:#231f20;fill-opacity:1;fill-rule:nonzero;stroke:none"
         id="path2254" />
      <path
         d="m 2386.22,5563.9 h 3.543 v 12.5 h -3.543 z"
         style="fill:#231f20;fill-opacity:1;fill-rule:nonzero;stroke:none"
         id="path2256" />
      <path
         d="m 2391.14,5563.9 h 3.5391 v 12.5 h -3.5391 z"
         style="fill:#231f20;fill-opacity:1;fill-rule:nonzero;stroke:none"
         id="path2258" />
      <path
         d="m 2166.66,5554.95 h 3.5391 v 12.5 h -3.5391 z"
         style="fill:#231f20;fill-opacity:1;fill-rule:nonzero;stroke:none"
         id="path2260" />
      <path
         d="m 2171.58,5554.95 h 3.5352 v 12.5 h -3.5352 z"
         style="fill:#231f20;fill-opacity:1;fill-rule:nonzero;stroke:none"
         id="path2262" />
      <path
         d="m 2386.22,5610.93 h 3.543 v 12.5 h -3.543 z"
         style="fill:#231f20;fill-opacity:1;fill-rule:nonzero;stroke:none"
         id="path2264" />
      <path
         d="m 2423.79,5589.25 h 3.5391 v 12.5 h -3.5391 z"
         style="fill:#231f20;fill-opacity:1;fill-rule:nonzero;stroke:none"
         id="path2266" />
      <path
         d="m 2428.79,5589.25 h 3.5391 v 12.5 h -3.5391 z"
         style="fill:#231f20;fill-opacity:1;fill-rule:nonzero;stroke:none"
         id="path2268" />
      <path
         d="m 2433.71,5589.25 h 3.5391 v 12.5 h -3.5391 z"
         style="fill:#231f20;fill-opacity:1;fill-rule:nonzero;stroke:none"
         id="path2270" />
      <path
         d="m 2457.89,5615.72 h -36.8 v 10.16 c 0,2.16 -1.74,3.91 -3.89,3.91 -2.15,0 -3.9,-1.75 -3.9,-3.91 v -10.16 h -2.5 v -5 h 47.09"
         style="fill:#231f20;fill-opacity:1;fill-rule:nonzero;stroke:none"
         id="path2272" />
    </g>
  </g>
</svg>
