<?xml version="1.0" encoding="UTF-8" standalone="no"?>
<!-- John Grümph
     https://legrumph.org/Terrier/public/chibi/de-chorographia
     CC BY-NC 3.0
     https://creativecommons.org/licenses/by-nc/3.0/fr/ -->
<!-- Created with Inkscape (http://www.inkscape.org/) -->

<svg
   version="1.1"
   id="svg2"
   width="39.050529"
   height="30.283998"
   viewBox="0 0 39.050529 30.283997"
   xmlns="http://www.w3.org/2000/svg"
   xmlns:svg="http://www.w3.org/2000/svg">
  <defs
     id="defs6" />
  <g
     id="g10"
     transform="matrix(1.3333333,0,0,-1.3333333,-18.430666,931.63732)">
    <g
       id="g12"
       transform="scale(0.1)">
      <path
         d="m 212.41,6767.65 c 0.363,1.75 0.75,3.8 1.172,6.21 1.02,5.85 2.148,13.27 3.199,20.53 0.262,1.79 0.512,3.56 0.77,5.31 h -48.438 v -0.02 l -0.672,0.02 h -2.257 v 0.03 l -20.454,0.36 v -32.44 h 19.133 c 0.66,4.37 2.258,8.34 4.68,11.51 3.059,4.02 7.617,6.83 12.84,6.82 5.23,0.01 9.789,-2.8 12.84,-6.82 2.429,-3.17 4.039,-7.14 4.687,-11.51"
         style="fill:#ffffff;fill-opacity:1;fill-rule:nonzero;stroke:none"
         id="path256" />
      <path
         d="m 352.691,6849.89 h -3.54297 v 12.5 h 3.54297 z m -5,0 h -3.54297 v 12.5 h 3.54297 z m -10.082,0 h -3.53906 v 12.5 h 3.53906 z m -4.918,0 h -3.54297 v 12.5 h 3.54297 z m -5,0 h -3.54297 v 12.5 h 3.54297 z m -10.082,0 h -3.53906 v 12.5 h 3.53906 z m -4.918,0 h -3.54297 v 12.5 h 3.54297 z m -5,0 h -3.54297 v 12.5 h 3.54297 z m -10.082,0 h -3.53906 v 12.5 h 3.53906 z m -4.918,0 h -3.54297 v 12.5 h 3.54297 z m -5,0 h -3.54297 v 12.5 h 3.54297 z m 69.918,10.21 v -10.21 h -3.55 v 12.4 c -1.879,0.74 -4.27,1.25 -7.508,1.2 -8.879,-0.13 -41.961,0.14 -65.379,0.37 l 3.219,-17.46 h 73.98 l 0.891,11.53"
         style="fill:#ffffff;fill-opacity:1;fill-rule:nonzero;stroke:none"
         id="path258" />
      <path
         d="m 246.148,6802.84 h -3.53906 v 12.5 h 3.53906 z m -4.918,0 h -3.53906 v 12.5 H 241.23 Z m -5,0 h -3.53906 v 12.5 H 236.23 Z m 132.489,47 h 3.54297 v -12.5 H 368.719 Z m 5,0 h 3.54297 v -12.5 H 373.719 Z m 4.922,0 h 3.53906 v -12.5 H 378.641 Z m 5.281,-36.56 h -3.54297 v 12.5 h 3.54297 z m 1.449,12.5 h 3.53906 v -12.5 H 385.371 Z m 4.231,24.06 h 3.53906 v -12.5 H 389.602 Z m 4.238,-36.56 h -3.53906 v 12.5 H 393.84 Z m 0.68,36.56 h 3.53906 v -12.5 H 394.52 Z m -46.161,-82.19 h 70.692 c -1.082,2.16 -2.36,4.72 -3.91,7.79 -3.903,7.69 -8.993,17.55 -13.75,26.25 -2.852,5.22 -3.782,11.21 -3.789,17.18 0.046,14.74 5.687,29.82 7.578,34.51 l -0.352,0.73 h -40.859 l -0.821,-10.72 -0.07,0.01 -3.25,-44.65 h -44.629 -22.64 -30.2 l -0.558,0.32 -5.461,3.05 -2.469,17.41 h -28.582 c -1.18,-9 -5.109,-38.48 -7.769,-51.88 h 49.101 c 1.149,6.86 5.777,12.69 12.301,16.74 7.539,4.68 17.547,7.42 28.566,7.43 11.024,-0.01 21.051,-2.75 28.571,-7.43 6.531,-4.05 11.152,-9.88 12.3,-16.74"
         style="fill:#ffffff;fill-opacity:1;fill-rule:nonzero;stroke:none"
         id="path260" />
      <path
         d="m 182.191,6840.47 h -3.54297 v 12.5 h 3.54297 z m -1.91,-35.78 5.539,56.76 c -1.929,0.01 -4.179,0.03 -6.621,0.06 l -9.269,-56.82"
         style="fill:#ffffff;fill-opacity:1;fill-rule:nonzero;stroke:none"
         id="path262" />
      <path
         d="m 261.539,6855.15 h 3.53906 v -12.5 H 261.539 Z m 4.922,0 h 3.53906 v -12.5 H 266.461 Z m -35.723,17.66 h -3.53906 v 12.5 h 3.53906 z m -4.918,0 h -3.53906 v 12.5 H 225.82 Z m -13.961,-21.14 h -3.53906 v 12.5 h 3.53906 z m -3.589,53.46 h 3.53906 v -12.5 H 208.27 Z m -1.34,-53.46 h -3.53906 v 12.5 H 206.93 Z m -3.578,53.46 h 3.53906 v -12.5 H 203.352 Z m -1.422,-53.46 h -3.53906 v 12.5 H 201.93 Z m -3.578,53.46 h 3.53906 v -12.5 H 198.352 Z m 27.019,2.73 H 195.02 l -1.872,-28.46 -1.148,-18 -1.16,0.01 -5.531,-56.72 h 5.781 v 17.59 c 0,3.81 3.09,6.9 6.898,6.9 3.813,0 6.891,-3.09 6.891,-6.9 v -17.59 h 13.359 c 0.871,6.25 1.571,11.58 2,14.84 H 207.18 l 2.082,1.66 c 0,0 23.117,17.92 26.039,29.38 2.918,11.46 6.25,26.87 6.25,26.87 0,0 6.668,-27.08 12.711,-34.79 6.039,-7.71 18.539,-23.12 18.539,-23.12 h -13.879 l 2.019,-14.26 2.719,-1.52 h 23.899 l -7.77,7.76 v 28.23 4.06 l -3.719,20.11 c -11.269,0.11 -19.308,0.2 -19.308,0.2 l 13.75,15.63 h 2.636 l -0.257,1.42 -1.481,6.49 h -22.191 c -14.047,0 -23.848,20.21 -23.848,20.21"
         style="fill:#ffffff;fill-opacity:1;fill-rule:nonzero;stroke:none"
         id="path264" />
      <path
         d="m 170.84,6856.83 -2.418,4.82 c 1.058,-0.02 2.129,-0.03 3.199,-0.05 z m 16.262,44.82 -3.133,6.21 h 3.543 z m -7.903,-40.15 c 2.442,-0.02 4.692,-0.04 6.621,-0.06 l -5.539,-56.75 H 169.93 Z m 93.692,19.66 0.257,-1.42 h -2.636 l -13.75,-15.63 c 0,0 8.039,-0.09 19.308,-0.2 l 3.719,-20.11 v -4.06 -28.23 l 7.77,-7.76 H 263.66 l -2.719,1.52 -2.019,14.26 h 13.879 c 0,0 -12.5,15.41 -18.539,23.12 -6.043,7.71 -12.711,34.79 -12.711,34.79 0,0 -3.332,-15.41 -6.25,-26.87 -2.922,-11.46 -26.039,-29.38 -26.039,-29.38 l -2.082,-1.66 h 13.058 c -0.429,-3.27 -1.129,-8.59 -2,-14.84 h -13.359 v 17.59 c 0,3.81 -3.078,6.89 -6.891,6.89 -3.808,0 -6.898,-3.08 -6.898,-6.89 v -17.59 h -5.781 l 5.531,56.72 1.16,-0.01 1.148,18 1.872,28.46 h 30.351 c 0,0 9.801,-20.21 23.848,-20.21 h 22.191 z m 11.5,-34.76 -3.219,17.46 c 23.418,-0.23 56.5,-0.51 65.379,-0.37 3.238,0.04 5.629,-0.46 7.508,-1.2 v -12.4 h 3.55 v 10.21 l 1.653,-2.18 -0.891,-11.52 z m 11.269,-40.15 -8.371,8.37 v 24.28 h 67.93 l -2.36,-32.65 z m -113.281,-20.26 c -5.219,0 -9.777,-2.81 -12.84,-6.83 -2.418,-3.16 -4.019,-7.13 -4.68,-11.51 H 145.73 v 32.44 l 20.45,-0.36 v -0.04 h 2.261 l 0.668,-0.01 v 0.01 h 48.442 c -0.25,-1.74 -0.512,-3.51 -0.762,-5.3 -1.059,-7.27 -2.187,-14.68 -3.211,-20.54 -0.418,-2.41 -0.808,-4.45 -1.168,-6.2 h -12.5 c -0.648,4.38 -2.25,8.35 -4.691,11.51 -3.047,4.02 -7.61,6.83 -12.84,6.83 m 125.109,5.83 c -11.019,-0.01 -21.027,-2.75 -28.566,-7.44 -6.524,-4.04 -11.152,-9.87 -12.301,-16.73 H 217.52 c 2.66,13.4 6.589,42.88 7.769,51.88 h 28.582 l 2.469,-17.42 5.461,-3.04 0.558,-0.32 h 30.2 22.64 44.629 l 3.25,44.65 0.07,-0.01 0.821,10.72 h 40.859 l 0.352,-0.73 c -1.891,-4.69 -7.532,-19.77 -7.578,-34.51 0.007,-5.98 0.949,-11.97 3.789,-17.19 4.757,-8.69 9.847,-18.56 13.75,-26.25 1.55,-3.06 2.828,-5.62 3.91,-7.78 h -70.692 c -1.148,6.86 -5.769,12.69 -12.3,16.73 -7.52,4.69 -17.547,7.43 -28.571,7.44 m 33.09,-31.67 h 90.531 l -2.64,5.4 c -0.02,0.03 -10.86,22.12 -20.5,39.74 -2,3.62 -2.867,8.4 -2.867,13.58 0,7.64 1.867,16.02 3.796,22.41 0.954,3.19 1.922,5.9 2.633,7.79 0.36,0.94 0.66,1.68 0.86,2.18 l 0.308,0.74 0.672,1.54 -0.262,0.58 h 11.993 c 0,0 -15.422,23.75 -19.172,30.42 -3.75,6.66 -17.5,66.04 -17.5,66.04 l -4.379,-20.83 -21.039,-50 H 280.91 l -1.808,7.91 h 11.41 c 0,0 -28.102,18.34 -30.012,25.21 -1.922,6.88 0,24.79 0,24.79 h -19.16 l -15.621,30.57 -2.598,19.06 -2.562,-18.79 h -12.86 l -2.57,18.79 -2.66,-19.41 -32.867,-60.01 h 5.988 l 10.539,-20.98 -0.449,-6.75 c -11.7,-6.13 -32.692,-17.09 -34.34,-17.69 -0.731,-0.26 3.07,-0.46 8.601,-0.61 l 8.84,-17.61 -6.031,-36.93 -24.52,0.43 v -47.57 h 33.7 l 0.082,3.67 c 0.078,4.34 1.488,8.19 3.488,10.78 2.02,2.61 4.422,3.88 6.879,3.89 2.473,-0.01 4.871,-1.28 6.902,-3.9 2,-2.58 3.41,-6.43 3.481,-10.77 l 0.078,-3.67 h 81.558 l -0.738,4.63 c 0.039,4.68 3.16,9.43 9.219,13.24 6.09,3.8 14.859,6.31 24.609,6.3 9.762,0.01 18.543,-2.5 24.614,-6.3 6.058,-3.81 9.179,-8.56 9.218,-13.24 l -0.039,-0.28"
         style="fill:#231f20;fill-opacity:1;fill-rule:nonzero;stroke:none"
         id="path266" />
      <path
         d="m 284.141,6849.89 h 3.53906 v 12.5 H 284.141 Z"
         style="fill:#231f20;fill-opacity:1;fill-rule:nonzero;stroke:none"
         id="path268" />
      <path
         d="m 289.141,6849.89 h 3.53906 v 12.5 H 289.141 Z"
         style="fill:#231f20;fill-opacity:1;fill-rule:nonzero;stroke:none"
         id="path270" />
      <path
         d="m 294.059,6849.89 h 3.54297 v 12.5 H 294.059 Z"
         style="fill:#231f20;fill-opacity:1;fill-rule:nonzero;stroke:none"
         id="path272" />
      <path
         d="m 304.141,6849.89 h 3.53906 v 12.5 H 304.141 Z"
         style="fill:#231f20;fill-opacity:1;fill-rule:nonzero;stroke:none"
         id="path274" />
      <path
         d="m 309.141,6849.89 h 3.53906 v 12.5 H 309.141 Z"
         style="fill:#231f20;fill-opacity:1;fill-rule:nonzero;stroke:none"
         id="path276" />
      <path
         d="m 314.059,6849.89 h 3.54297 v 12.5 H 314.059 Z"
         style="fill:#231f20;fill-opacity:1;fill-rule:nonzero;stroke:none"
         id="path278" />
      <path
         d="m 324.141,6849.89 h 3.53906 v 12.5 H 324.141 Z"
         style="fill:#231f20;fill-opacity:1;fill-rule:nonzero;stroke:none"
         id="path280" />
      <path
         d="m 329.141,6849.89 h 3.53906 v 12.5 H 329.141 Z"
         style="fill:#231f20;fill-opacity:1;fill-rule:nonzero;stroke:none"
         id="path282" />
      <path
         d="m 334.059,6849.89 h 3.54297 v 12.5 H 334.059 Z"
         style="fill:#231f20;fill-opacity:1;fill-rule:nonzero;stroke:none"
         id="path284" />
      <path
         d="m 344.141,6849.89 h 3.53906 v 12.5 H 344.141 Z"
         style="fill:#231f20;fill-opacity:1;fill-rule:nonzero;stroke:none"
         id="path286" />
      <path
         d="m 349.141,6849.89 h 3.53906 v 12.5 H 349.141 Z"
         style="fill:#231f20;fill-opacity:1;fill-rule:nonzero;stroke:none"
         id="path288" />
      <path
         d="m 198.352,6892.63 h 3.53906 v 12.5 H 198.352 Z"
         style="fill:#231f20;fill-opacity:1;fill-rule:nonzero;stroke:none"
         id="path290" />
      <path
         d="m 203.352,6892.63 h 3.53906 v 12.5 H 203.352 Z"
         style="fill:#231f20;fill-opacity:1;fill-rule:nonzero;stroke:none"
         id="path292" />
      <path
         d="m 208.281,6892.63 h 3.53906 v 12.5 H 208.281 Z"
         style="fill:#231f20;fill-opacity:1;fill-rule:nonzero;stroke:none"
         id="path294" />
      <path
         d="m 198.391,6851.67 h 3.53906 v 12.5 H 198.391 Z"
         style="fill:#231f20;fill-opacity:1;fill-rule:nonzero;stroke:none"
         id="path296" />
      <path
         d="m 203.391,6851.67 h 3.53906 v 12.5 H 203.391 Z"
         style="fill:#231f20;fill-opacity:1;fill-rule:nonzero;stroke:none"
         id="path298" />
      <path
         d="m 208.309,6851.67 h 3.54297 v 12.5 H 208.309 Z"
         style="fill:#231f20;fill-opacity:1;fill-rule:nonzero;stroke:none"
         id="path300" />
      <path
         d="m 232.691,6802.84 h 3.53906 v 12.5 H 232.691 Z"
         style="fill:#231f20;fill-opacity:1;fill-rule:nonzero;stroke:none"
         id="path302" />
      <path
         d="m 237.691,6802.84 h 3.53906 v 12.5 H 237.691 Z"
         style="fill:#231f20;fill-opacity:1;fill-rule:nonzero;stroke:none"
         id="path304" />
      <path
         d="m 242.609,6802.84 h 3.53906 v 12.5 H 242.609 Z"
         style="fill:#231f20;fill-opacity:1;fill-rule:nonzero;stroke:none"
         id="path306" />
      <path
         d="m 368.719,6837.34 h 3.54297 v 12.5 H 368.719 Z"
         style="fill:#231f20;fill-opacity:1;fill-rule:nonzero;stroke:none"
         id="path308" />
      <path
         d="m 373.719,6837.34 h 3.54297 v 12.5 H 373.719 Z"
         style="fill:#231f20;fill-opacity:1;fill-rule:nonzero;stroke:none"
         id="path310" />
      <path
         d="m 378.641,6837.34 h 3.53906 v 12.5 H 378.641 Z"
         style="fill:#231f20;fill-opacity:1;fill-rule:nonzero;stroke:none"
         id="path312" />
      <path
         d="m 380.371,6813.28 h 3.53906 v 12.5 H 380.371 Z"
         style="fill:#231f20;fill-opacity:1;fill-rule:nonzero;stroke:none"
         id="path314" />
      <path
         d="m 385.379,6813.28 h 3.54297 v 12.5 H 385.379 Z"
         style="fill:#231f20;fill-opacity:1;fill-rule:nonzero;stroke:none"
         id="path316" />
      <path
         d="m 390.289,6813.28 h 3.53906 v 12.5 H 390.289 Z"
         style="fill:#231f20;fill-opacity:1;fill-rule:nonzero;stroke:none"
         id="path318" />
      <path
         d="m 261.551,6842.65 h 3.53906 v 12.5 H 261.551 Z"
         style="fill:#231f20;fill-opacity:1;fill-rule:nonzero;stroke:none"
         id="path320" />
      <path
         d="m 266.469,6842.65 h 3.54297 v 12.5 H 266.469 Z"
         style="fill:#231f20;fill-opacity:1;fill-rule:nonzero;stroke:none"
         id="path322" />
      <path
         d="m 389.602,6837.34 h 3.53906 v 12.5 H 389.602 Z"
         style="fill:#231f20;fill-opacity:1;fill-rule:nonzero;stroke:none"
         id="path324" />
      <path
         d="m 394.531,6837.34 h 3.53906 v 12.5 H 394.531 Z"
         style="fill:#231f20;fill-opacity:1;fill-rule:nonzero;stroke:none"
         id="path326" />
      <path
         d="m 222.289,6872.81 h 3.53906 v 12.5 H 222.289 Z"
         style="fill:#231f20;fill-opacity:1;fill-rule:nonzero;stroke:none"
         id="path328" />
      <path
         d="m 227.211,6872.81 h 3.53906 v 12.5 H 227.211 Z"
         style="fill:#231f20;fill-opacity:1;fill-rule:nonzero;stroke:none"
         id="path330" />
      <path
         d="m 178.648,6840.47 h 3.54297 v 12.5 H 178.648 Z"
         style="fill:#231f20;fill-opacity:1;fill-rule:nonzero;stroke:none"
         id="path332" />
    </g>
  </g>
</svg>
