<?xml version="1.0" encoding="UTF-8" standalone="no"?>
<!-- Created with Inkscape (http://www.inkscape.org/) -->

<svg
   version="1.1"
   id="svg2"
   width="68.440002"
   height="50.478672"
   viewBox="0 0 68.440002 50.47867"
   xmlns="http://www.w3.org/2000/svg"
   xmlns:svg="http://www.w3.org/2000/svg">
  <defs
     id="defs6" />
  <g
     id="g10"
     transform="matrix(1.3333333,0,0,-1.3333333,-360.69333,662.148)">
    <g
       id="g12"
       transform="scale(0.1)">
      <path
         d="m 2769.94,4663.85 h -3.543 v 12.5 h 3.543 z m 172.29,21.21 h 3.5391 v -12.5 h -3.5391 z m 4.92,0 h 3.543 v -12.5 h -3.543 z m -156.47,-66.63 v 8.47 h 164.07 v 62.83 l -35.13,-5.05 c 0.08,-1.73 0.17,-3.46 0.17,-5.22 -0.01,-9.99 -1.35,-20.2 -5.86,-28.51 -4.44,-8.33 -12.74,-14.49 -24.61,-14.99 -1.01,-0.05 -1.99,-0.07 -2.96,-0.07 -22.17,-0.02 -36.59,12.96 -44.98,25.43 -6.09,8.98 -9.3,17.75 -10.68,22.12 l -80.32,-0.59 c 13.05,-44.01 31.45,-59.33 40.3,-64.42"
         style="fill:#ffffff;fill-opacity:1;fill-rule:nonzero;stroke:none"
         id="path3496" />
      <path
         d="m 2790.68,4612.72 c -8.96,4.37 -30.98,20.01 -45.5,70.1 l -0.12,-0.01 -0.95,2.33 c -0.16,0.36 -4.8,11.93 -6.77,36.25 -0.69,-6.07 -1.16,-12.68 -1.14,-19.64 -0.02,-17.77 2.98,-37.57 12.39,-55.28 8.25,-15.47 21.34,-29.47 42.09,-39.49"
         style="fill:#ffffff;fill-opacity:1;fill-rule:nonzero;stroke:none"
         id="path3498" />
      <path
         d="m 2939.41,4696.78 -3.5,-0.57 -2,12.34 3.5,0.57 z m 2.93,13.14 2,-12.34 -3.48,-0.57 -2.02,12.34 z m 4.86,0.79 2,-12.34 -3.49,-0.57 -2,12.34 z m 12.01,-15.28 -3.81,19.65 h -40.2 c 1.28,-5.38 3.21,-14.78 4.09,-25.38"
         style="fill:#ffffff;fill-opacity:1;fill-rule:nonzero;stroke:none"
         id="path3500" />
      <path
         d="m 2988.02,4685.06 h 3.5391 v -12.5 h -3.5391 z m 5,0 h 3.5391 v -12.5 h -3.5391 z m 0.73,57.81 h 3.5391 v -12.5 h -3.5391 z m 4.19,-57.81 h 3.5391 v -12.5 h -3.5391 z m 0.73,57.81 h 3.5352 v -12.5 h -3.5352 z m 16.68,0 h 3.5391 v -12.5 h -3.5391 z m 5,0 h 3.5391 v -12.5 h -3.5391 z m 4.92,0 h 3.5391 v -12.5 h -3.5391 z m 4.62,-113.39 h -3.5391 v 12.5 h 3.5391 z m 1.46,12.5 h 3.5391 v -12.5 h -3.5391 z m 4.88,76.85 h 3.5391 v -12.5 h -3.5391 z m 3.58,-89.35 h -3.5391 v 12.5 h 3.5391 z m 1.43,89.35 h 3.543 v -12.5 h -3.543 z m 4.92,0 h 3.5391 v -12.5 h -3.5391 z m 18.49,-53.57 h 3.543 v -12.5 h -3.543 z m -74.72,-41.8 h 56.46 v 19.22 c 0,3.81 3.08,6.89 6.89,6.89 3.81,0 6.9,-3.08 6.9,-6.89 v -19.22 h 18.04 l -5.89,58.25 c -3.51,3.45 -13.79,15.89 -11.87,41.18 -1.49,8 -2.73,16.45 -3.73,24.81 l -0.16,1.28 h -69.56 l -0.08,-1.09 c -2.72,-39.53 -10.26,-66.35 -11.92,-71.87"
         style="fill:#ffffff;fill-opacity:1;fill-rule:nonzero;stroke:none"
         id="path3502" />
      <path
         d="m 3066.93,4797.52 v 10.25 c -33.55,-3.69 -72.98,-3.51 -96.25,-1.7 v -8.55"
         style="fill:#ffffff;fill-opacity:1;fill-rule:nonzero;stroke:none"
         id="path3504" />
      <path
         d="m 3148.02,4659.01 h 3.5391 v -12.5 h -3.5391 z m -1.38,-12.5 h -3.5391 v 12.5 h 3.5391 z m -42.91,0 h -3.5391 v 12.5 h 3.5391 z m -4.92,0 h -3.5391 v 12.5 h 3.5391 z m -5,0 h -3.5391 v 12.5 h 3.5391 z m -15.15,22.26 4.59,-45.31 h 68.12 l 0.09,0.45 c 3.95,18.94 11.48,35.65 16.14,44.86"
         style="fill:#ffffff;fill-opacity:1;fill-rule:nonzero;stroke:none"
         id="path3506" />
      <path
         d="m 3170.21,4673.77 0.9,1.62 v 3.8 c -36.95,-1.15 -80.5,0.65 -93.63,1.26 l 0.68,-6.68"
         style="fill:#ffffff;fill-opacity:1;fill-rule:nonzero;stroke:none"
         id="path3508" />
      <path
         d="m 2798.18,4595.02 h 363.129 v 23.4414 H 2798.18 Z"
         style="fill:#ffffff;fill-opacity:1;fill-rule:nonzero;stroke:none"
         id="path3510" />
      <path
         d="m 2974.85,4753.98 h 90.418 v 8.9609 h -90.418 z"
         style="fill:#ffffff;fill-opacity:1;fill-rule:nonzero;stroke:none"
         id="path3512" />
      <path
         d="m 2992.98,4786.48 h 3.5391 v -12.5 h -3.5391 z m 5,0 h 3.5391 v -12.5 h -3.5391 z m 4.92,0 h 3.543 v -12.5 h -3.543 z m 28.41,0 h 3.543 v -12.5 h -3.543 z m 4.92,0 h 3.5391 v -12.5 h -3.5391 z m -48.44,-18.54 h 66.86 c -0.84,9.61 -1.4,18.15 -1.75,24.58 h -65.36 c 0.22,-5.62 0.33,-11.12 0.33,-16.45 0,-2.76 -0.03,-5.46 -0.08,-8.13"
         style="fill:#ffffff;fill-opacity:1;fill-rule:nonzero;stroke:none"
         id="path3514" />
      <path
         d="m 2798.18,4618.46 h 363.129 v -23.4414 H 2798.18 Z m 380.42,61.02 c 3.02,0.14 5.98,0.29 8.84,0.47 l -12.24,-12.8 0.7,1.37 c 0.68,1.3 1.23,2.3 1.61,2.97 l 0.57,1 0.52,0.88 z m -7.5,-0.28 v -3.81 l -0.89,-1.62 h -92.05 l -0.68,6.68 c 13.13,-0.61 56.67,-2.41 93.62,-1.25 m -19.64,-55.29 -0.09,-0.45 h -68.12 l -4.59,45.31 h 88.94 c -4.66,-9.21 -12.19,-25.92 -16.14,-44.86 m -164.53,123.98 0.08,1.09 h 69.56 l 0.16,-1.28 c 1,-8.36 2.24,-16.81 3.73,-24.81 -1.92,-25.29 8.36,-37.73 11.87,-41.18 l 5.89,-58.25 h -18.04 v 19.22 c 0,3.81 -3.09,6.89 -6.9,6.89 -3.81,0 -6.89,-3.08 -6.89,-6.89 v -19.22 h -56.46 l -14.92,52.56 c 1.66,5.52 9.2,32.34 11.92,71.87 m 78.34,6.09 h -90.42 v 8.96 h 90.42 z m -12.37,38.54 c 0.35,-6.43 0.91,-14.97 1.75,-24.58 h -66.86 c 0.05,2.67 0.08,5.37 0.08,8.13 0,5.33 -0.11,10.83 -0.33,16.45 z m 14.03,15.25 v -10.25 h -96.25 v 8.55 c 23.27,-1.81 62.69,-1.99 96.25,1.7 m -111.52,-92.69 3.81,-19.65 -39.92,-5.74 c -0.88,10.61 -2.82,20.01 -4.1,25.39 z m -124.71,-31.64 c 1.38,-4.37 4.59,-13.14 10.68,-22.12 8.39,-12.47 22.81,-25.45 44.98,-25.43 0.97,0 1.95,0.02 2.96,0.07 11.87,0.5 20.17,6.66 24.61,14.99 4.51,8.31 5.85,18.52 5.86,28.51 0,1.76 -0.09,3.49 -0.17,5.22 l 35.13,5.05 v -62.83 h -164.07 v -8.47 c -8.85,5.09 -27.25,20.41 -40.3,64.42 z m -82.11,-36.96 c -9.42,17.71 -12.41,37.5 -12.4,55.27 -0.01,6.96 0.46,13.57 1.15,19.64 1.98,-24.32 6.61,-35.89 6.76,-36.25 l 0.97,-2.33 0.12,0.01 c 14.52,-50.08 36.53,-65.73 45.49,-70.1 v -5.74 c -20.75,10.02 -33.83,24.02 -42.09,39.5 m 417.57,0.4 32.53,33.97 c 7.91,0.79 14.74,1.84 19.81,3.23 -33.44,3.13 -103.44,54.94 -103.44,54.94 l -0.56,0.18 -3.67,59.73 -3.57,-58.08 c -4.64,0.83 -11.33,1.69 -20.33,1.98 -11.34,0.37 -17.88,-2.4 -21.36,-4.71 -0.31,2.09 -0.58,4.18 -0.85,6.28 h 4.3 3.75 v 27.08 h -10.9 c -0.53,6.54 -0.95,12.48 -1.25,17.5 h 13.81 v 19.67 c 3.21,0.42 6.35,0.87 9.38,1.37 -9.06,10.94 -36.88,45 -36.88,45 0,0 -28.12,87.5 -32.18,110.31 -7.82,-36.25 -27.5,-105.31 -27.5,-105.31 0,0 -29.69,-22.19 -36.57,-50 -0.29,-1.2 4.46,-2.34 12.5,-3.25 v -17.79 h 16.94 c 0.12,-4.37 0.25,-8.73 0.25,-12.91 0,-1.56 -0.03,-3.07 -0.05,-4.59 h -9.22 -3.75 v -27.08 h 11.74 c -1.57,-19.89 -4.3,-36.41 -6.75,-48 -1.3,-6.19 -2.52,-11.01 -3.39,-14.28 -0.44,-1.63 -0.81,-2.87 -1.05,-3.7 l -0.37,-1.21 -0.34,-1.08 13.97,-49.23 h -18.91 v 59.16 h 1.87 4.55 l -7.08,36.52 h -56.2 l 1.38,-4.79 c 0,0 0.33,-1.14 0.85,-3.24 1.56,-6.28 4.67,-20.82 4.67,-35.09 0.01,-9.3 -1.37,-18.43 -4.94,-24.91 -3.65,-6.44 -8.81,-10.51 -18.41,-11.1 l -2.58,-0.06 c -3.2,0 -6.12,0.41 -8.93,0.97 l -1.38,99.7 28.2,-85.84 4.74,1.57 -33.17,101 -1.14,82.67 7.27,3 -1.9,4.62 -5.45,-2.24 -0.48,34.65 -5,-0.07 0.51,-36.63 -10.83,-4.46 1.9,-4.62 9.01,3.71 0.89,-64.74 -62.23,189.43 -4.75,-1.56 67.21,-204.59 1.58,-114.33 c -11.23,3.73 -19.18,11.65 -24.82,19.9 -3.83,5.64 -6.47,11.34 -8.13,15.61 -0.83,2.13 -1.42,3.9 -1.79,5.13 l -0.41,1.4 -0.12,0.43 -0.7,2.88 -47.08,-0.34 -8.92,81.2 54.13,-77.93 4.11,2.85 -59.38,85.49 -4.13,37.58 12.89,4.39 -1.61,4.73 -11.84,-4.03 -3.96,36 -4.97,-0.55 4.08,-37.11 -10.81,-3.68 1.61,-4.74 9.76,3.33 3,-27.32 -64.01,92.16 -4.11,-2.85 69.26,-99.72 9.87,-89.84 -34.11,-0.25 c -1.82,5.71 -6.28,22.68 -6.28,53.28 0,3.48 0.05,7.13 0.18,10.96 l 0.85,25.5 -8.15,-24.19 c -0.07,-0.22 -8.12,-24.08 -8.13,-54.15 0,-18.58 3.08,-39.6 13.28,-58.79 9.32,-17.57 24.8,-33.42 48.71,-44.15 v -11.29 h 378.13 v 39.38 h -8.89 c 1.74,7.14 3.93,13.9 6.24,19.98"
         style="fill:#231f20;fill-opacity:1;fill-rule:nonzero;stroke:none"
         id="path3516" />
      <path
         d="m 2935.92,4696.21 3.5,0.57 -2.01,12.34 -3.49,-0.57 z"
         style="fill:#231f20;fill-opacity:1;fill-rule:nonzero;stroke:none"
         id="path3518" />
      <path
         d="m 2944.35,4697.58 -2,12.34 -3.5,-0.57 2,-12.34 z"
         style="fill:#231f20;fill-opacity:1;fill-rule:nonzero;stroke:none"
         id="path3520" />
      <path
         d="m 2949.21,4698.36 -2,12.34 -3.5,-0.56 2,-12.34 z"
         style="fill:#231f20;fill-opacity:1;fill-rule:nonzero;stroke:none"
         id="path3522" />
      <path
         d="m 3026.35,4629.48 h 3.5391 v 12.5 h -3.5391 z"
         style="fill:#231f20;fill-opacity:1;fill-rule:nonzero;stroke:none"
         id="path3524" />
      <path
         d="m 3031.35,4629.48 h 3.5391 v 12.5 h -3.5391 z"
         style="fill:#231f20;fill-opacity:1;fill-rule:nonzero;stroke:none"
         id="path3526" />
      <path
         d="m 3036.27,4629.48 h 3.5391 v 12.5 h -3.5391 z"
         style="fill:#231f20;fill-opacity:1;fill-rule:nonzero;stroke:none"
         id="path3528" />
      <path
         d="m 2942.23,4672.56 h 3.5391 v 12.5 h -3.5391 z"
         style="fill:#231f20;fill-opacity:1;fill-rule:nonzero;stroke:none"
         id="path3530" />
      <path
         d="m 2947.15,4672.56 h 3.543 v 12.5 h -3.543 z"
         style="fill:#231f20;fill-opacity:1;fill-rule:nonzero;stroke:none"
         id="path3532" />
      <path
         d="m 3015.35,4730.37 h 3.5391 v 12.5 h -3.5391 z"
         style="fill:#231f20;fill-opacity:1;fill-rule:nonzero;stroke:none"
         id="path3534" />
      <path
         d="m 3020.35,4730.37 h 3.5391 v 12.5 h -3.5391 z"
         style="fill:#231f20;fill-opacity:1;fill-rule:nonzero;stroke:none"
         id="path3536" />
      <path
         d="m 3025.27,4730.37 h 3.5391 v 12.5 h -3.5391 z"
         style="fill:#231f20;fill-opacity:1;fill-rule:nonzero;stroke:none"
         id="path3538" />
      <path
         d="m 2993.75,4730.37 h 3.5391 v 12.5 h -3.5391 z"
         style="fill:#231f20;fill-opacity:1;fill-rule:nonzero;stroke:none"
         id="path3540" />
      <path
         d="m 2998.67,4730.37 h 3.5352 v 12.5 h -3.5352 z"
         style="fill:#231f20;fill-opacity:1;fill-rule:nonzero;stroke:none"
         id="path3542" />
      <path
         d="m 3036.24,4706.33 h 3.543 v 12.5 h -3.543 z"
         style="fill:#231f20;fill-opacity:1;fill-rule:nonzero;stroke:none"
         id="path3544" />
      <path
         d="m 3041.24,4706.33 h 3.543 v 12.5 h -3.543 z"
         style="fill:#231f20;fill-opacity:1;fill-rule:nonzero;stroke:none"
         id="path3546" />
      <path
         d="m 3046.16,4706.33 h 3.5391 v 12.5 h -3.5391 z"
         style="fill:#231f20;fill-opacity:1;fill-rule:nonzero;stroke:none"
         id="path3548" />
      <path
         d="m 3143.1,4646.51 h 3.5391 v 12.5 H 3143.1 Z"
         style="fill:#231f20;fill-opacity:1;fill-rule:nonzero;stroke:none"
         id="path3550" />
      <path
         d="m 3148.02,4646.51 h 3.5391 v 12.5 h -3.5391 z"
         style="fill:#231f20;fill-opacity:1;fill-rule:nonzero;stroke:none"
         id="path3552" />
      <path
         d="m 3090.27,4646.51 h 3.5391 v 12.5 h -3.5391 z"
         style="fill:#231f20;fill-opacity:1;fill-rule:nonzero;stroke:none"
         id="path3554" />
      <path
         d="m 3095.27,4646.51 h 3.5391 v 12.5 h -3.5391 z"
         style="fill:#231f20;fill-opacity:1;fill-rule:nonzero;stroke:none"
         id="path3556" />
      <path
         d="m 3100.2,4646.51 h 3.5391 v 12.5 H 3100.2 Z"
         style="fill:#231f20;fill-opacity:1;fill-rule:nonzero;stroke:none"
         id="path3558" />
      <path
         d="m 2988.02,4672.56 h 3.5391 v 12.5 h -3.5391 z"
         style="fill:#231f20;fill-opacity:1;fill-rule:nonzero;stroke:none"
         id="path3560" />
      <path
         d="m 2993.02,4672.56 h 3.5391 v 12.5 h -3.5391 z"
         style="fill:#231f20;fill-opacity:1;fill-rule:nonzero;stroke:none"
         id="path3562" />
      <path
         d="m 2997.94,4672.56 h 3.5391 v 12.5 h -3.5391 z"
         style="fill:#231f20;fill-opacity:1;fill-rule:nonzero;stroke:none"
         id="path3564" />
      <path
         d="m 3031.31,4773.98 h 3.543 v 12.5 h -3.543 z"
         style="fill:#231f20;fill-opacity:1;fill-rule:nonzero;stroke:none"
         id="path3566" />
      <path
         d="m 3036.24,4773.98 h 3.543 v 12.5 h -3.543 z"
         style="fill:#231f20;fill-opacity:1;fill-rule:nonzero;stroke:none"
         id="path3568" />
      <path
         d="m 3064.64,4652.76 h 3.5391 v 12.5 h -3.5391 z"
         style="fill:#231f20;fill-opacity:1;fill-rule:nonzero;stroke:none"
         id="path3570" />
      <path
         d="m 2766.4,4663.85 h 3.543 v 12.5 h -3.543 z"
         style="fill:#231f20;fill-opacity:1;fill-rule:nonzero;stroke:none"
         id="path3572" />
      <path
         d="m 2992.98,4773.98 h 3.5391 v 12.5 h -3.5391 z"
         style="fill:#231f20;fill-opacity:1;fill-rule:nonzero;stroke:none"
         id="path3574" />
      <path
         d="m 2997.98,4773.98 h 3.5391 v 12.5 h -3.5391 z"
         style="fill:#231f20;fill-opacity:1;fill-rule:nonzero;stroke:none"
         id="path3576" />
      <path
         d="m 3002.91,4773.98 h 3.5391 v 12.5 h -3.5391 z"
         style="fill:#231f20;fill-opacity:1;fill-rule:nonzero;stroke:none"
         id="path3578" />
    </g>
  </g>
</svg>
