<?xml version="1.0" encoding="UTF-8" standalone="no"?>
<!-- Created with Inkscape (http://www.inkscape.org/) -->

<svg
   version="1.1"
   id="svg2"
   width="8.6934204"
   height="18.788025"
   viewBox="0 0 8.6934204 18.788024"
   xmlns="http://www.w3.org/2000/svg"
   xmlns:svg="http://www.w3.org/2000/svg">
  <defs
     id="defs6" />
  <g
     id="g10"
     transform="matrix(1.3333333,0,0,-1.3333333,-545.068,461.12798)">
    <g
       id="g12"
       transform="scale(0.1)">
      <path
         d="m 4116.53,3407.73 c -0.93,9.48 -1.71,17.48 -2.5,25.48 0.93,0.18 1.85,0.37 2.76,0.55 1.95,-7.78 3.89,-15.55 5.99,-23.96 4.01,1.59 7.2,2.84 9.87,3.9 v 12.55 c 3.55,2.1 8.29,4.92 14.35,8.52 -7.94,5.32 -12.75,8.55 -17.58,11.78 -9.98,-4 -19.51,-7.82 -29.15,-11.68 0.87,-7.44 1.63,-14.01 2.41,-20.66 4.22,-1.98 8.16,-3.82 13.85,-6.48 m -24.09,33.61 c 13.48,6 26.13,11.62 38.5,17.12 4.67,-3.71 8.43,-7.21 12.68,-9.96 11.58,-7.46 12.69,-15.05 3.24,-25.2 -1.07,-1.16 -2.34,-2.12 -3.81,-3.44 0.83,-3.72 1.66,-7.42 2.74,-12.19 -7.28,-2.81 -14.19,-5.48 -21.31,-8.22 -2.45,-27.61 7.05,-54.49 2.05,-81.9 -5.11,12.4 -2.72,25.77 -4.75,38.53 -2.04,12.97 -2.41,26.19 -3.62,40.5 -9.58,4.33 -19.61,8.86 -30.15,13.63 2.54,5.46 4.19,8.99 5.8,12.42 -0.41,5.63 -0.82,11.14 -1.37,18.71"
         style="fill:#231f20;fill-opacity:1;fill-rule:nonzero;stroke:none"
         id="path7034" />
    </g>
  </g>
</svg>
