<?xml version="1.0" encoding="UTF-8" standalone="no"?>
<!-- John Grümph
     https://legrumph.org/Terrier/public/chibi/de-chorographia
     CC BY-NC 3.0
     https://creativecommons.org/licenses/by-nc/3.0/fr/ -->
<!-- Created with Inkscape (http://www.inkscape.org/) -->

<svg
   version="1.1"
   id="svg2"
   width="5.2740479"
   height="19.867981"
   viewBox="0 0 5.2740478 19.86798"
   xmlns="http://www.w3.org/2000/svg"
   xmlns:svg="http://www.w3.org/2000/svg">
  <defs
     id="defs6" />
  <g
     id="g10"
     transform="matrix(1.3333333,0,0,-1.3333333,-417.00745,459.88261)">
    <g
       id="g12"
       transform="scale(0.1)">
      <path
         d="m 3160.85,3344.25 c -4.68,28.1 -9.09,54.55 -13.5,81.01 -3.41,-9.78 -5.28,-19.18 -6.31,-28.67 -1.71,-15.8 -3.16,-31.64 -4.13,-47.5 -0.38,-6.09 0.91,-12.25 7.07,-16.69 0.71,6.85 1.32,12.73 1.94,18.62 0.81,-0.05 1.61,-0.09 2.42,-0.14 1.18,-5.04 2.35,-10.08 4.06,-17.42 4.14,5.27 6.71,8.56 8.45,10.79 m -8.68,-21 c 0.51,-8.37 0.89,-14.55 1.41,-23.14 -8.3,5.85 -5.61,12.82 -7.5,19.44 -20.03,12.36 -19.86,33.43 -17.36,53.64 2.87,23.19 8.91,45.99 13.68,68.93 0.47,2.23 1.77,4.27 5.15,7 1.28,-3.22 3.13,-6.34 3.75,-9.7 5.46,-30.1 11.04,-60.2 15.67,-90.43 0.79,-5.14 -1.87,-11.44 -4.59,-16.28 -2.2,-3.94 -6.86,-6.49 -10.21,-9.46"
         style="fill:#231f20;fill-opacity:1;fill-rule:nonzero;stroke:none"
         id="path7036" />
    </g>
  </g>
</svg>
