<?xml version="1.0" encoding="UTF-8" standalone="no"?>
<!-- John Grümph
     https://legrumph.org/Terrier/public/chibi/de-chorographia
     CC BY-NC 3.0
     https://creativecommons.org/licenses/by-nc/3.0/fr/ -->
<!-- Created with Inkscape (http://www.inkscape.org/) -->

<svg
   version="1.1"
   id="svg2"
   width="10.750366"
   height="18.315979"
   viewBox="0 0 10.750366 18.315978"
   xmlns="http://www.w3.org/2000/svg"
   xmlns:svg="http://www.w3.org/2000/svg">
  <defs
     id="defs6" />
  <g
     id="g10"
     transform="matrix(1.3333333,0,0,-1.3333333,-595.97241,460.65727)">
    <g
       id="g12"
       transform="scale(0.1)">
      <path
         d="m 4506.54,3369.76 c -8.31,-3.06 -16.99,-2.64 -18.49,-15.37 6.22,0.94 11.24,1.7 16.68,2.52 0.68,4.77 1.15,8.08 1.81,12.85 m 4.66,10.15 v 9.57 c -6.73,3.05 -13.12,5.95 -19.82,8.99 -4.98,-6.25 -9.41,-11.81 -13.84,-17.37 0.64,-0.96 1.29,-1.93 1.94,-2.88 10.15,0.53 20.26,1.08 31.72,1.69 m 6.18,-23.83 c 5.23,0.47 9.32,0.84 13.68,1.23 0.42,4.53 0.75,8.01 1.08,11.44 3.91,1.7 7.42,3.23 11.55,5.02 -2.7,6.36 -5.12,12.08 -7.77,18.33 -6.98,-0.44 -13.08,-0.82 -18.54,-1.16 z m -29.39,53.37 c 9.27,-4.06 16.86,-7.37 24.93,-10.89 5.3,1.98 10.67,4 16.03,6.01 0.18,1.02 0.32,2.03 0.48,3.03 -4.12,2.71 -8.23,5.4 -12.89,8.46 2.62,8.55 9.78,17.07 0.84,27.41 -5.09,-4.57 -10.14,-9.1 -13.64,-12.25 1.66,-8.81 2.83,-15.05 4,-21.28 -1.18,-0.48 -2.36,-0.97 -3.55,-1.45 -2.76,3.6 -5.51,7.21 -8.94,11.7 -2.55,-3.78 -4.46,-6.6 -7.26,-10.74 m -5.76,-40.67 c -16.72,7.92 -16.69,12.78 0.75,33.26 -3.83,10.64 -1.04,19.61 9.42,25.73 0.98,0.56 2.34,1.36 2.52,2.25 2.63,13.85 15.71,16.91 25.02,24.91 7.69,-6.9 9,-15.8 9.19,-24.88 0.23,-13.31 4.95,-24.71 12.45,-35.59 5.34,-7.77 9.23,-16.56 8.81,-26.73 -3.67,-1.77 -6.83,-3.28 -10.43,-5.01 -0.63,-3.26 -1.28,-6.7 -2.13,-11.11 -6.11,-1.2 -12.27,-2.4 -19.61,-3.82 0.61,-9.76 1.25,-19.73 1.87,-29.69 -1.13,-0.19 -2.26,-0.36 -3.39,-0.54 -5.89,9.55 -3.29,21.37 -5.52,31.84 -27.04,-5.32 -34.82,0.09 -28.95,19.38"
         style="fill:#231f20;fill-opacity:1;fill-rule:nonzero;stroke:none"
         id="path6996" />
    </g>
  </g>
</svg>
