<?xml version="1.0" encoding="UTF-8" standalone="no"?>
<!-- Created with Inkscape (http://www.inkscape.org/) -->

<svg
   version="1.1"
   id="svg2"
   width="12.002563"
   height="14.039979"
   viewBox="0 0 12.002563 14.039978"
   xmlns="http://www.w3.org/2000/svg"
   xmlns:svg="http://www.w3.org/2000/svg">
  <defs
     id="defs6" />
  <g
     id="g10"
     transform="matrix(1.3333333,0,0,-1.3333333,-608.56934,456.38127)">
    <g
       id="g12"
       transform="scale(0.1)">
      <path
         d="m 4645.23,3360.31 c -21.6,1.89 -21.91,2.14 -22.03,16.66 4.05,2.34 8.34,4.82 12.98,7.51 -6.22,10.75 -8.47,22.84 -19.79,28.18 -8.59,-3.43 -16.62,-6.64 -24.85,-9.94 0.69,-4.77 1.26,-8.65 1.96,-13.36 4.79,-1.72 9.5,-3.39 16.09,-5.73 0.34,-4.29 0.75,-9.25 1.14,-14.27 -13.82,-3.04 -26.02,-3.89 -36.84,-9.29 0.02,-1.12 0.04,-2.23 0.07,-3.33 7.09,-0.9 14.2,-1.79 20.52,-2.58 7.56,-3.96 3.39,-16.11 14.04,-17.21 1,6.54 1.98,13.01 2.96,19.48 0.91,-0.07 1.82,-0.11 2.73,-0.16 1.04,-3.52 2.06,-7.03 3.34,-11.43 9.5,1.48 18.4,2.86 27.68,4.3 z m -29.19,62.55 c 16.69,-10.47 24.69,-25.43 27.5,-43.77 -3.4,-3.14 -5.95,-5.5 -9.13,-8.45 4.66,-0.43 8.8,-0.8 12.63,-1.15 8.28,-8.72 9.19,-13.9 4.14,-27.59 -7.89,-1.84 -16.72,-3.9 -27.48,-6.41 -2.49,-4.95 -5.74,-11.38 -9.02,-17.93 -8.09,8.73 -16.29,17.58 -26,28.08 -18.14,2.4 -21.59,5.11 -24.41,22.27 11.16,2.9 22.5,5.86 36.46,9.48 -16.34,5.4 -15.41,17.72 -17.25,31.07 10.47,4.63 21.45,9.49 32.56,14.4"
         style="fill:#231f20;fill-opacity:1;fill-rule:nonzero;stroke:none"
         id="path7014" />
    </g>
  </g>
</svg>
