<?xml version="1.0" encoding="UTF-8" standalone="no"?>
<!-- Created with Inkscape (http://www.inkscape.org/) -->

<svg
   version="1.1"
   id="svg2"
   width="11.059998"
   height="17.206665"
   viewBox="0 0 11.059998 17.206664"
   xmlns="http://www.w3.org/2000/svg"
   xmlns:svg="http://www.w3.org/2000/svg">
  <defs
     id="defs6" />
  <g
     id="g10"
     transform="matrix(1.3333333,0,0,-1.3333333,-683.40534,459.54802)">
    <g
       id="g12"
       transform="scale(0.1)">
      <path
         d="m 5160.01,3360.37 h -16.31 c -0.38,-2.97 -0.7,-5.45 -1.2,-9.22 7.25,0.59 13.25,1.07 20.48,1.64 -1.48,3.76 -2.28,5.81 -2.97,7.58 m 31.62,-4 c 0.21,0.97 0.4,1.95 0.61,2.93 -5.52,3 -7.44,13 -18,7.68 v -14.08 c 6.29,1.25 11.84,2.36 17.39,3.47 m -0.87,25.06 c -2.99,6.77 -5.27,11.96 -7.66,17.39 6.11,2.86 11.54,5.41 18.23,8.54 -4.22,3.91 -7.03,6.52 -9.83,9.09 -4.46,-2.34 -8.2,-4.3 -13.95,-7.33 -2.8,9.37 -5.28,17.67 -7.98,26.69 -4.64,-1.53 -8.26,-2.73 -13.38,-4.43 3.17,-9.2 6.1,-17.74 9.28,-27 -8.06,1.91 -14.54,3.45 -20.56,4.87 -3.91,-6.44 -6.7,-11.01 -8.87,-14.6 6.81,-8.84 19.74,-3.99 24.56,-14.17 -4.13,-3.32 -7.38,-5.93 -11.68,-9.38 h 17.27 c 0.98,5.66 1.79,10.37 2.6,15.09 0.67,-0.05 1.34,-0.1 2,-0.15 1.33,-2.72 2.66,-5.44 4.21,-8.64 4.56,1.16 8.69,2.23 15.76,4.03 m 17.73,22.74 c -3.84,-3.2 -7.7,-6.42 -12.03,-10.03 v -18.32 c -1.64,-0.82 -4.44,-2.22 -6.92,-3.45 4.7,-6.36 8.4,-11.36 12.49,-16.89 -8.11,-9.39 -18.89,-7.38 -29.01,-10.2 v -27.72 c -6.78,5.37 -6.78,5.37 -8.42,25.21 -9.36,4.56 -21.61,-3.26 -30.98,6.88 2.24,10.22 2.03,21.43 10.83,30.4 -6.01,3.85 -11.97,7.66 -18.91,12.11 5.33,8.69 9.63,15.72 13.88,22.66 4.36,0.98 8.21,1.83 12.58,2.81 v 20.49 c 6.42,2.69 12.41,5.21 20.26,8.49 3.62,-8.41 6.65,-15.44 9.84,-22.85 2.81,0.63 5.76,1.29 8.88,1.98 7.15,-5.92 15.1,-10.69 17.51,-21.57"
         style="fill:#231f20;fill-opacity:1;fill-rule:nonzero;stroke:none"
         id="path6998" />
    </g>
  </g>
</svg>
