<?xml version="1.0" encoding="UTF-8" standalone="no"?>
<!-- Created with Inkscape (http://www.inkscape.org/) -->

<svg
   version="1.1"
   id="svg2"
   width="11.284058"
   height="17.113342"
   viewBox="0 0 11.284058 17.113342"
   xmlns="http://www.w3.org/2000/svg"
   xmlns:svg="http://www.w3.org/2000/svg">
  <defs
     id="defs6" />
  <g
     id="g10"
     transform="matrix(1.3333333,0,0,-1.3333333,-695.48401,459.45464)">
    <g
       id="g12"
       transform="scale(0.1)">
      <path
         d="m 5262.57,3358.3 c 1.04,-4.55 1.6,-6.96 2.36,-10.24 2.48,1.5 4.06,2.45 6.6,3.99 -2.92,2.04 -5,3.49 -8.96,6.25 m -16.87,-7.21 c 0.59,-1.29 1.18,-2.58 1.75,-3.86 h 9.88 c -0.38,3.61 -0.64,6.12 -1.19,11.39 -4.59,-3.31 -7.51,-5.42 -10.44,-7.53 m -16.67,37.62 c 9.75,-6.32 16.85,-1.59 23.93,3.22 l -0.7,2.82 z m 2.72,-19.35 0.56,-3.75 c 8.19,-0.39 16.38,-0.78 25.42,-1.22 v 15.07 c -9.28,-3.6 -17.63,-6.84 -25.98,-10.1 m 61.97,32.71 c -11.97,-4.14 -23.94,-2.85 -31.43,-13.72 10.31,-7.1 18.66,3.05 28.77,0.75 0.88,4.31 1.61,7.83 2.66,12.97 m -23.86,-40.61 h 17 c 1.29,5.64 2.6,11.38 4.4,19.22 -9.08,-1.47 -15.44,-2.51 -22.39,-3.64 0.35,-5.6 0.64,-10.18 0.99,-15.58 m 4.79,68.31 c -2.96,1.75 -5.57,3.3 -8.63,5.1 -4.64,-3.47 -9.01,-6.74 -13.2,-9.88 v -22.78 c 13.78,-1 17.79,4.02 21.83,27.56 m 4.44,-84.42 c -5.14,-1.73 -9.27,-3.11 -14.58,-4.88 0.32,-7.13 0.65,-14.69 0.98,-22.25 -1.31,-0.22 -2.62,-0.45 -3.93,-0.66 -1.55,6.75 -3.1,13.49 -4.48,19.45 -6.42,2.42 -12.45,4.69 -18.22,6.86 -0.42,5.7 -0.7,9.58 -0.99,13.35 -15.31,5.29 -16.73,8.02 -11.35,19.91 -3.25,4.66 -6.21,8.89 -10.39,14.89 10.02,3.62 17.7,6.41 26.08,9.44 0.57,8.16 -0.7,17.14 2.24,24.45 2.88,7.18 10.02,12.65 16.25,20 7.76,-4.53 15.1,-8.82 23.57,-13.77 -2.16,-8.96 -4.07,-16.87 -6.18,-25.64 6.7,0.76 13.15,1.48 19.87,2.23 1.22,-3.12 3.2,-5.57 2.73,-7.36 -3.99,-14.94 -0.71,-31.43 -9.28,-45.75 -4.07,-0.88 -7.89,-1.71 -11.72,-2.54 -0.18,-2.33 -0.35,-4.59 -0.6,-7.73"
         style="fill:#231f20;fill-opacity:1;fill-rule:nonzero;stroke:none"
         id="path6968" />
    </g>
  </g>
</svg>
