<?xml version="1.0" encoding="UTF-8" standalone="no"?>
<!-- John Grümph
     https://legrumph.org/Terrier/public/chibi/de-chorographia
     CC BY-NC 3.0
     https://creativecommons.org/licenses/by-nc/3.0/fr/ -->
<!-- Created with Inkscape (http://www.inkscape.org/) -->

<svg
   version="1.1"
   id="svg2"
   width="8.6510925"
   height="14.089295"
   viewBox="0 0 8.6510925 14.089295"
   xmlns="http://www.w3.org/2000/svg"
   xmlns:svg="http://www.w3.org/2000/svg">
  <defs
     id="defs6" />
  <g
     id="g10"
     transform="matrix(1.3333333,0,0,-1.3333333,-422.76245,428.72801)">
    <g
       id="g12"
       transform="scale(0.1)">
      <path
         d="m 3225.2,3145.31 c 2.59,25.71 -15.34,55.1 -34.75,57.59 -4.15,-14.2 -8.34,-28.54 -12.66,-43.36 8.44,-4.33 15.73,-8.06 23.1,-11.82 1.86,4.33 3.47,8.05 5.07,11.75 l 2.84,-0.26 c 0.49,-5.48 0.97,-10.96 1.66,-18.92 6,2.05 10.72,3.66 14.74,5.02 m -33.95,70.15 c 6.16,-2.85 11.7,-3.73 14.34,-6.97 11.45,-14.02 24.41,-26.74 28.84,-45.85 4.14,-17.94 -2.27,-33.28 -25.98,-29.85 -2.56,-7.68 -5.11,-15.34 -7.68,-23 -1.22,0.21 -2.45,0.42 -3.7,0.64 -5.75,9.02 5.45,17.73 1.97,28.56 -5.33,2.78 -11.91,6.31 -18.58,9.64 -6.21,3.11 -11.3,7.71 -9.3,14.87 4.14,14.88 9.3,29.45 14.36,44.05 0.86,2.49 3.19,4.49 5.73,7.91"
         style="fill:#231f20;fill-opacity:1;fill-rule:nonzero;stroke:none"
         id="path7040" />
    </g>
  </g>
</svg>
