<?xml version="1.0" encoding="UTF-8" standalone="no"?>
<!-- John Grümph
     https://legrumph.org/Terrier/public/chibi/de-chorographia
     CC BY-NC 3.0
     https://creativecommons.org/licenses/by-nc/3.0/fr/ -->
<!-- Created with Inkscape (http://www.inkscape.org/) -->

<svg
   version="1.1"
   id="svg2"
   width="6.1565552"
   height="17.166687"
   viewBox="0 0 6.1565552 17.166686"
   xmlns="http://www.w3.org/2000/svg"
   xmlns:svg="http://www.w3.org/2000/svg">
  <defs
     id="defs6" />
  <g
     id="g10"
     transform="matrix(1.3333333,0,0,-1.3333333,-427.06122,457.18138)">
    <g
       id="g12"
       transform="scale(0.1)">
      <path
         d="m 3233.71,3419.14 c -21.3,-25.74 -28.47,-61.42 -5.44,-89.8 -0.93,15.95 -1.76,30.05 -2.58,44.16 1.11,0.07 2.2,0.16 3.29,0.24 1.53,-14.77 3.04,-29.54 4.65,-45.18 9.24,7.04 6.96,16.04 6.28,24.47 -1.43,17.81 -3.11,35.6 -4.74,53.4 -0.3,3.41 -0.77,6.8 -1.46,12.71 m -8.51,-103.16 c -4.3,7.88 -8.97,15.59 -12.82,23.7 -2.72,5.72 -3.93,12.16 -6.53,17.95 -3.65,8.15 -4.13,15.5 0.22,23.9 3.22,6.19 3.63,13.78 5.69,20.63 3.26,10.79 7.83,20.79 18.26,26.7 8.98,-2.8 12.32,-8.91 13.03,-17.19 1.78,-21.04 3.21,-42.13 5.71,-63.09 1.8,-15.06 -2.85,-26.56 -15.21,-35.21 -0.69,-4.39 -1.4,-8.83 -2.11,-13.26 -0.87,0.01 -1.74,0.02 -2.62,0.02 -0.48,5.21 -0.97,10.42 -1.45,15.62 -0.72,0.08 -1.44,0.15 -2.17,0.23"
         style="fill:#231f20;fill-opacity:1;fill-rule:nonzero;stroke:none"
         id="path7024" />
    </g>
  </g>
</svg>
