<?xml version="1.0" encoding="UTF-8" standalone="no"?>
<!-- Created with Inkscape (http://www.inkscape.org/) -->

<svg
   version="1.1"
   id="svg2"
   width="10.624451"
   height="14.755982"
   viewBox="0 0 10.624451 14.755982"
   xmlns="http://www.w3.org/2000/svg"
   xmlns:svg="http://www.w3.org/2000/svg">
  <defs
     id="defs6" />
  <g
     id="g10"
     transform="matrix(1.3333333,0,0,-1.3333333,-403.37598,429.3947)">
    <g
       id="g12"
       transform="scale(0.1)">
      <path
         d="m 3035.2,3139.46 c 10.91,-1.87 20.98,-6.87 32.37,-5.1 0.73,7.05 1.31,12.75 1.89,18.44 0.72,0.13 1.43,0.24 2.17,0.34 1.51,-5.67 3.01,-11.35 4.92,-18.49 7.61,5.99 14.06,11.06 19.68,15.49 -7.25,21.54 -14.09,41.76 -21.3,63.15 -2.91,-0.27 -6.61,-0.61 -10.3,-0.95 0.76,-0.75 1.51,-1.48 2.25,-2.23 -10.33,-23.02 -20.65,-46.07 -31.68,-70.65 m 24.8,79.42 c 6.09,0.5 12.25,1 19.27,1.58 2.12,-4.4 4.32,-8.08 5.73,-12.03 5.86,-16.48 11.18,-33.14 17.27,-49.5 4.39,-11.75 4.14,-14.55 -5.57,-22.68 -3.06,-2.55 -6.24,-5 -9.54,-7.21 -2.98,-1.97 -6.23,-3.54 -9.64,-5.45 -1.77,-3.53 -3.72,-7.43 -6.91,-13.8 -1.98,6.48 -3.09,10.03 -4.04,13.18 -13.93,5.59 -30.87,2.14 -41.25,15.46 14.77,25.75 28.86,50.59 34.68,80.45"
         style="fill:#231f20;fill-opacity:1;fill-rule:nonzero;stroke:none"
         id="path7032" />
    </g>
  </g>
</svg>
