<?xml version="1.0" encoding="UTF-8" standalone="no"?>
<!-- Created with Inkscape (http://www.inkscape.org/) -->

<svg
   version="1.1"
   id="svg2"
   width="15.404785"
   height="17.942688"
   viewBox="0 0 15.404785 17.942687"
   xmlns="http://www.w3.org/2000/svg"
   xmlns:svg="http://www.w3.org/2000/svg">
  <defs
     id="defs6" />
  <g
     id="g10"
     transform="matrix(1.3333333,0,0,-1.3333333,-666.30451,460.28398)">
    <g
       id="g12"
       transform="scale(0.1)">
      <path
         d="m 5066.75,3360.36 c 0.28,-1.62 0.58,-3.23 0.86,-4.85 5.65,1.25 11.32,2.49 16.97,3.74 -0.22,1.18 -0.45,2.37 -0.67,3.56 -5.72,-0.82 -11.45,-1.63 -17.16,-2.45 m -6.81,0.48 c -7.25,-1.51 -14.35,-0.54 -15.53,-11.46 5.59,0.62 10.38,1.14 15.53,1.7 z m 42.45,32.16 c -3.84,6.72 -4.6,7.74 -9.84,6.65 -9.11,-1.89 -18.06,-4.55 -28.78,-7.34 2.64,-5.93 4.74,-10.68 7.03,-15.85 11.41,5.97 21.51,11.25 31.59,16.54 m -96.29,-22.33 h 52.8 c -0.61,5.48 -1.05,9.53 -1.54,14.07 -18.26,-1.77 -34.98,-3.4 -52.25,-5.08 0.45,-4.08 0.69,-6.29 0.99,-8.99 m 26.38,54.31 c 0.88,-7.33 1.72,-14.23 2.59,-21.5 7.12,-0.88 13.25,-1.65 20.35,-2.53 -0.59,4.73 -1.32,8.13 -1.38,11.54 -0.06,3.22 0.56,6.44 0.88,9.67 0.77,0.02 1.53,0.05 2.29,0.07 1.77,-6.99 3.52,-13.96 5.25,-20.83 9.82,-1.43 8.73,7.25 12.42,10.22 -3.53,11.9 -6.86,23.11 -10.62,35.78 -11.18,-7.89 -21.13,-14.91 -31.78,-22.42 m 34.14,-78.38 c -1.59,-9.58 -3.19,-19.26 -4.81,-29.04 -6.8,2.05 -6.8,2.05 -4.27,23.42 -5.97,0.95 -13.23,0.19 -17.53,3.39 -3.77,2.82 -4.21,10.08 -6.89,17.55 -5.03,0 -12.19,-0.7 -19.12,0.25 -4.77,0.64 -10.37,2.51 -13.45,5.83 -2.67,2.87 -4.09,9.23 -2.76,12.79 1.31,3.47 6.53,6.55 10.59,7.61 6.08,1.59 12.67,1.24 19.03,1.75 6.33,0.51 12.66,1.07 19.17,2.19 -7.81,2.58 -18.27,1.14 -19.9,12.59 -1.17,8.2 -1.51,16.53 -2.28,25.47 6.09,4.2 11.53,8.1 17.13,11.78 5.63,3.69 11.42,7.14 15.93,9.95 9.32,-0.11 13.31,-4.8 15.47,-11.27 3.75,-11.27 7.17,-22.66 10.26,-32.48 7.57,-2.08 15.12,-2.8 21.07,-6.25 4,-2.32 5.75,-8.52 8.56,-13.08 -11.58,-6.14 -21.25,-11.26 -31.96,-16.92 13.21,-4.61 13.67,-5.29 12.42,-18.55 -8.1,-2.12 -16.78,-4.39 -26.66,-6.98"
         style="fill:#231f20;fill-opacity:1;fill-rule:nonzero;stroke:none"
         id="path6946" />
    </g>
  </g>
</svg>
