<?xml version="1.0" encoding="UTF-8" standalone="no"?>
<!-- Created with Inkscape (http://www.inkscape.org/) -->

<svg
   version="1.1"
   id="svg2"
   width="8.8648071"
   height="15.746644"
   viewBox="0 0 8.8648071 15.746643"
   xmlns="http://www.w3.org/2000/svg"
   xmlns:svg="http://www.w3.org/2000/svg">
  <defs
     id="defs6" />
  <g
     id="g10"
     transform="matrix(1.3333333,0,0,-1.3333333,-656.45929,458.08794)">
    <g
       id="g12"
       transform="scale(0.1)">
      <path
         d="m 4966.45,3390.29 c 0.37,-1.18 0.75,-2.36 1.12,-3.54 2.45,-0.12 4.91,-0.25 7.98,-0.41 -0.16,3.11 -0.28,5.3 -0.51,9.43 -3.72,-2.36 -6.16,-3.93 -8.59,-5.48 m 14.57,-27.41 c -0.36,0.89 -0.72,1.78 -1.09,2.64 -11.52,2.64 -12.79,1.73 -11.52,-9.91 4.59,2.66 8.61,4.95 12.61,7.27 m -12.75,41.39 c 11.07,5.14 10.28,13.5 11.78,22.59 -4.66,-1.02 -7.92,-1.73 -11.78,-2.57 z m -12.52,-50.41 v 13.61 c -7.05,-0.52 -13.18,-0.97 -19.89,-1.45 -1.38,-4.34 -2.47,-7.8 -3.86,-12.16 z m -9.45,62.84 c 0.7,-6.43 1.31,-12.2 1.95,-17.98 -2.98,-3.63 -5.93,-7.27 -9.34,-11.45 2.29,-3.32 4.18,-6.07 7.18,-10.46 5.66,4.51 10.39,8.26 13.39,10.65 v 39.33 c -5.07,-3.88 -8.46,-6.49 -13.18,-10.09 m 15.81,18.96 c 7.73,-0.46 16.05,-0.95 26.07,-1.53 -1.98,-20.72 -3.75,-39.22 -5.66,-59.02 5.21,-1.55 8.93,-6.32 6.8,-14.23 -2.12,-7.88 -9.05,-12 -23.39,-13.27 v -30.05 c -9.07,9.23 -2.98,19.07 -7.09,27.03 -6.86,0 -13.96,-0.39 -21.02,0.11 -6.43,0.46 -13.84,1.5 -14.32,9.75 -0.43,7.57 1.55,15.09 9.27,19.25 1.02,0.55 2.14,0.91 3.82,1.61 -6.57,10.26 -5.61,19.69 3.73,28.24 -5.03,18.41 6.63,26.13 21.79,32.11"
         style="fill:#231f20;fill-opacity:1;fill-rule:nonzero;stroke:none"
         id="path7002" />
    </g>
  </g>
</svg>
