<?xml version="1.0" encoding="UTF-8" standalone="no"?>
<!-- John Grümph
     https://legrumph.org/Terrier/public/chibi/de-chorographia
     CC BY-NC 3.0
     https://creativecommons.org/licenses/by-nc/3.0/fr/ -->
<!-- Created with Inkscape (http://www.inkscape.org/) -->

<svg
   version="1.1"
   id="svg2"
   width="6.3121948"
   height="15.825257"
   viewBox="0 0 6.3121948 15.825257"
   xmlns="http://www.w3.org/2000/svg"
   xmlns:svg="http://www.w3.org/2000/svg">
  <defs
     id="defs6" />
  <g
     id="g10"
     transform="matrix(1.3333333,0,0,-1.3333333,-454.59445,455.83995)">
    <g
       id="g12"
       transform="scale(0.1)">
      <path
         d="m 3440.61,3410.23 c -24.97,-8.88 -28.22,-66.02 -15.02,-84.44 8.75,8.53 1.29,20.57 8.2,29.59 0.6,-7.8 1.21,-15.59 1.85,-23.68 8,2.14 12.43,7.3 12.88,13.72 1.55,21.78 2.78,43.72 -7.91,64.81 m -11.97,-94.41 c -10.64,1.87 -13.5,9.72 -16.05,19.34 -5.52,20.86 -3.29,40.89 3.16,60.89 3.98,12.34 16.64,23.11 27.71,22.74 8.63,-11.92 11.63,-26.2 12.88,-40.87 0.71,-8.31 -0.25,-16.75 0.34,-25.07 0.98,-13.35 -4.04,-23.18 -15.47,-29.93 -2.03,-1.21 -3.85,-2.73 -5.89,-4.19 -0.34,-6.29 -0.66,-12.35 -0.98,-18.39 -1.02,-0.08 -2,-0.16 -3,-0.23 -0.88,5.08 -1.75,10.17 -2.7,15.71"
         style="fill:#231f20;fill-opacity:1;fill-rule:nonzero;stroke:none"
         id="path7038" />
    </g>
  </g>
</svg>
