<?xml version="1.0" encoding="UTF-8" standalone="no"?>
<!-- John Grümph
     https://legrumph.org/Terrier/public/chibi/de-chorographia
     CC BY-NC 3.0
     https://creativecommons.org/licenses/by-nc/3.0/fr/ -->
<!-- Created with Inkscape (http://www.inkscape.org/) -->

<svg
   version="1.1"
   id="svg2"
   width="5.28125"
   height="16.266663"
   viewBox="0 0 5.28125 16.266662"
   xmlns="http://www.w3.org/2000/svg"
   xmlns:svg="http://www.w3.org/2000/svg">
  <defs
     id="defs6" />
  <g
     id="g10"
     transform="matrix(1.3333333,0,0,-1.3333333,-446.09021,456.2813)">
    <g
       id="g12"
       transform="scale(0.1)">
      <path
         d="m 3365.37,3411.71 c -8.54,-6.61 -12.24,-12.64 -12.13,-20.9 0.28,-20.32 0.37,-40.65 0.73,-60.98 0.03,-2.01 1.44,-3.99 3.3,-8.84 7.99,15.54 2.45,31.02 10.15,43.87 v -34.69 c 11.03,6.69 11.86,15.64 10.09,24.83 -3.52,18.28 -7.75,36.43 -12.14,56.71 m 1.2,-93.19 c -0.69,-7.04 -1.23,-12.51 -1.77,-17.99 -0.88,-0.14 -1.75,-0.28 -2.62,-0.42 -0.82,4.49 -1.64,8.99 -2.54,13.95 -2.83,1.17 -6.03,2.47 -10.78,4.44 -0.82,4.73 -2.41,10.04 -2.55,15.39 -0.4,15.56 0.54,31.2 -0.5,46.72 -1.1,16.51 4.58,29.47 17.95,41.5 2.19,-3.02 5.27,-5.6 6.17,-8.8 4.6,-16.43 8.5,-33.07 12.93,-49.57 5.05,-18.77 3.38,-35.11 -16.29,-45.22"
         style="fill:#231f20;fill-opacity:1;fill-rule:nonzero;stroke:none"
         id="path7046" />
    </g>
  </g>
</svg>
