<?xml version="1.0" encoding="UTF-8" standalone="no"?>
<!-- John Grümph
     https://legrumph.org/Terrier/public/chibi/de-chorographia
     CC BY-NC 3.0
     https://creativecommons.org/licenses/by-nc/3.0/fr/ -->
<!-- Created with Inkscape (http://www.inkscape.org/) -->

<svg
   version="1.1"
   id="svg2"
   width="6.1304016"
   height="16.236023"
   viewBox="0 0 6.1304016 16.236022"
   xmlns="http://www.w3.org/2000/svg"
   xmlns:svg="http://www.w3.org/2000/svg">
  <defs
     id="defs6" />
  <g
     id="g10"
     transform="matrix(1.3333333,0,0,-1.3333333,-405.08426,456.25066)">
    <g
       id="g12"
       transform="scale(0.1)">
      <path
         d="m 3059.15,3406.59 c -14.4,-27.17 -16.07,-55.73 -13.21,-86.62 4.23,1.83 7.84,3.41 10.58,4.58 v 41.35 c 0.85,0.08 1.69,0.16 2.54,0.25 1.2,-12.61 2.39,-25.2 3.73,-39.37 4.94,2.76 7.94,4.42 11.56,6.43 1.62,26.23 -9.79,49.19 -15.2,73.38 m -1.84,-93.4 c -5.97,-0.33 -11.33,-0.62 -17.35,-0.95 -5.02,38.74 0.43,74.6 14.74,109.64 7.48,-0.73 9.05,-6.9 10.5,-11.75 5.9,-19.89 11.16,-39.95 16.54,-59.97 1.01,-3.81 1.51,-7.77 2.37,-12.32 -0.39,-12.28 -11.94,-14.95 -20.87,-21.04 v -16.2 c -0.87,-0.16 -1.73,-0.33 -2.59,-0.49 -1.15,4.53 -2.31,9.07 -3.34,13.08"
         style="fill:#231f20;fill-opacity:1;fill-rule:nonzero;stroke:none"
         id="path7042" />
    </g>
  </g>
</svg>
