<?xml version="1.0" encoding="UTF-8" standalone="no"?>
<!-- Created with Inkscape (http://www.inkscape.org/) -->

<svg
   version="1.1"
   id="svg2"
   width="10.385773"
   height="12.788148"
   viewBox="0 0 10.385773 12.788147"
   xmlns="http://www.w3.org/2000/svg"
   xmlns:svg="http://www.w3.org/2000/svg">
  <defs
     id="defs6" />
  <g
     id="g10"
     transform="matrix(1.3333333,0,0,-1.3333333,-489.59586,429.76683)">
    <g
       id="g12"
       transform="scale(0.1)">
      <path
         d="m 3740.31,3208.57 c -11.5,6.2 -23.86,8.31 -35.11,2.06 -10.34,-5.75 -24.05,-9.99 -24.82,-26.5 10.83,-7.46 21.83,-11 34.95,-6.49 0.56,6.68 1.07,12.91 1.6,19.13 l 2.93,-0.04 c 0.72,-5.57 1.44,-11.18 2.15,-16.75 16.57,2.09 19.52,6.5 18.3,28.59 m -27.3,-52.4 c 1.07,-2.49 1.99,-4.63 2.77,-6.47 26.44,-3.4 26.44,-3.4 33.21,-16.41 -5.54,3.03 -11.08,6.07 -17.53,9.6 -1.09,-6.26 -1.86,-10.72 -2.63,-15.18 l -2.99,-0.37 c -0.97,4.09 -1.94,8.18 -3.17,13.36 -2.42,0.62 -5.73,1.5 -9.79,2.56 -1.78,2.87 -3.85,6.19 -6.15,9.9 -11.13,-1.95 -21.53,-9.49 -33.4,-7.77 -0.39,1.37 -0.79,2.73 -1.18,4.09 12.68,4.45 25.37,8.9 40.56,14.23 -10.46,2.7 -18.01,4.34 -25.34,6.63 -8.18,2.54 -14.23,7.75 -15.25,16.7 -1,8.69 3.04,15.41 10.03,20.48 14.93,10.84 30.45,19.19 50.02,14.3 11.36,-2.84 17.83,-10.44 17.69,-22.15 -0.22,-19.17 -4.14,-23.83 -26.05,-31.25 -3.45,-3.91 -6.77,-7.69 -10.8,-12.25"
         style="fill:#231f20;fill-opacity:1;fill-rule:nonzero;stroke:none"
         id="path7022" />
    </g>
  </g>
</svg>
