<?xml version="1.0" encoding="UTF-8" standalone="no"?>
<!-- John Grümph
     https://legrumph.org/Terrier/public/chibi/de-chorographia
     CC BY-NC 3.0
     https://creativecommons.org/licenses/by-nc/3.0/fr/ -->
<!-- Created with Inkscape (http://www.inkscape.org/) -->

<svg
   version="1.1"
   id="svg2"
   width="12.318665"
   height="15.189332"
   viewBox="0 0 12.318665 15.189331"
   xmlns="http://www.w3.org/2000/svg"
   xmlns:svg="http://www.w3.org/2000/svg">
  <defs
     id="defs6" />
  <g
     id="g10"
     transform="matrix(1.3333333,0,0,-1.3333333,-640.5813,457.53062)">
    <g
       id="g12"
       transform="scale(0.1)">
      <path
         d="m 4850.47,3370.74 c -0.31,0.1 -0.62,0.19 -0.94,0.28 0.21,-0.32 0.42,-0.64 0.63,-0.97 0.1,0.24 0.2,0.47 0.31,0.69 m 25.78,-30.06 c -6.86,7.03 -7.74,7.14 -17.3,2.41 5.21,-3.99 9.87,-7.94 17.3,-2.41 m -26.91,19.46 c -19.46,3.94 -24.13,3.21 -31.16,-5.21 11.48,1.92 21.32,3.57 31.16,5.21 m 37.47,4.37 -0.53,2.12 c -8.84,-1.05 -17.68,-2.09 -27.2,-3.2 0.19,-2.98 0.34,-5.16 0.51,-7.91 9.57,3.16 18.4,6.07 27.22,8.99 m -36.89,14.55 c -8.79,11.02 -19.95,10.73 -26.43,0 z m -37.62,-32.91 c 0.15,-2.74 0.3,-5.16 0.45,-7.79 h 38.64 v 13.61 c -12.97,-1.93 -25.09,-3.74 -39.09,-5.82 m 43.12,60.89 c 1.09,-0.03 2.18,-0.06 3.26,-0.09 v -26.34 c 13.56,2.72 11.98,13.97 16.9,21.15 -9.01,6.93 -17.45,13.42 -26.1,20.07 -5.47,-3.76 -10.34,-7.11 -15.95,-10.95 0.71,-5.12 1.38,-9.95 1.85,-13.34 7.49,-2.22 13.19,-3.9 19.01,-5.61 0.33,4.88 0.68,9.99 1.03,15.11 m -43.51,-28.8 c 6.09,7.22 10.2,12.08 14.62,17.31 v 21 c 7.29,4.79 15.45,10.15 22.73,14.93 12.07,-9.82 23.05,-18.76 35.31,-28.74 -4.01,-9.39 -7.96,-18.61 -11.99,-28.04 h 19.73 c 1.5,-5.52 2.87,-10.56 4.44,-16.37 -7.4,-2.43 -13.33,-4.38 -18.61,-6.11 2.2,-5.98 4.3,-11.66 6.32,-17.16 -8.04,-6.82 -15.38,-7.92 -23.98,-4.33 -1.2,-3.72 -2.31,-7.21 -4.23,-13.17 -2.74,5.3 -4.37,8.44 -6.06,11.7 -9.51,0 -19.05,-0.21 -28.58,0.05 -13.08,0.37 -16.25,3.75 -17.25,20 1.09,0.82 3.57,2.67 6.55,4.89 0.28,2.87 0.63,6.4 1.09,10.88 3.16,1.63 6.59,3.4 9.59,4.96 -2.12,1.78 -4.81,4.07 -9.68,8.2"
         style="fill:#231f20;fill-opacity:1;fill-rule:nonzero;stroke:none"
         id="path6952" />
    </g>
  </g>
</svg>
