<?xml version="1.0" encoding="UTF-8" standalone="no"?>
<!-- John Grümph
     https://legrumph.org/Terrier/public/chibi/de-chorographia
     CC BY-NC 3.0
     https://creativecommons.org/licenses/by-nc/3.0/fr/ -->
<!-- Created with Inkscape (http://www.inkscape.org/) -->

<svg
   version="1.1"
   id="svg2"
   width="8.5456848"
   height="15.710572"
   viewBox="0 0 8.5456848 15.710572"
   xmlns="http://www.w3.org/2000/svg"
   xmlns:svg="http://www.w3.org/2000/svg">
  <defs
     id="defs6" />
  <g
     id="g10"
     transform="matrix(1.3333333,0,0,-1.3333333,-433.75006,430.34788)">
    <g
       id="g12"
       transform="scale(0.1)">
      <path
         d="m 3308.35,3170.32 c -4.01,18.17 -12.01,33.41 -22.91,47.8 -6.67,-19.28 -22.71,-33.89 -22.85,-56.53 6.48,-2.31 12.82,-4.57 20.27,-7.23 0.64,7.98 1.09,13.64 1.53,19.28 0.69,0.16 1.38,0.3 2.07,0.46 1.88,-4.71 3.76,-9.41 6.12,-15.33 5.68,4.16 10.38,7.6 15.77,11.55 m -16.73,-23.64 c -2.82,-12.97 -1.37,-25.63 -7.05,-36.9 -6,11.29 -0.59,22.51 -1.35,33.56 -6.84,2.64 -13.46,5.17 -20.07,7.75 -7.92,3.11 -11.27,9.51 -9.61,17.25 1.89,8.85 4.74,17.68 8.56,25.89 5.04,10.81 11.43,20.98 17.47,31.86 9,2.94 13.61,2.05 18.08,-6.56 6.41,-12.37 12.33,-25.11 17.11,-38.18 5.16,-14.18 2.43,-20.06 -10.41,-27.94 -4.05,-2.48 -8.39,-4.46 -12.73,-6.73"
         style="fill:#231f20;fill-opacity:1;fill-rule:nonzero;stroke:none"
         id="path7028" />
    </g>
  </g>
</svg>
