<?xml version="1.0" encoding="UTF-8" standalone="no"?>
<!-- John Grümph
     https://legrumph.org/Terrier/public/chibi/de-chorographia
     CC BY-NC 3.0
     https://creativecommons.org/licenses/by-nc/3.0/fr/ -->
<!-- Created with Inkscape (http://www.inkscape.org/) -->

<svg
   version="1.1"
   id="svg2"
   width="11.25"
   height="16.289307"
   viewBox="0 0 11.25 16.289306"
   xmlns="http://www.w3.org/2000/svg"
   xmlns:svg="http://www.w3.org/2000/svg">
  <defs
     id="defs6" />
  <g
     id="g10"
     transform="matrix(1.3333333,0,0,-1.3333333,-576.16663,458.63066)">
    <g
       id="g12"
       transform="scale(0.1)">
      <path
         d="m 4339.52,3357.02 c 0.26,-1.51 0.54,-3.04 0.81,-4.55 8.22,1.08 16.45,2.16 24.78,3.25 v 7.83 c -8.98,-2.28 -17.29,-4.41 -25.59,-6.53 m 25.97,29.95 c 0.99,15.46 1.84,28.66 2.84,44.11 -5.46,-3.91 -8.86,-6.35 -11.66,-8.38 -2.24,-22.66 -1.31,-27.29 8.82,-35.73 m -37.53,-20.11 c 7.61,0.37 14.38,0.07 20.93,1.14 15.16,2.44 17.32,1.78 25.33,-11.23 7.83,1.15 15.97,2.36 25.39,3.75 -1.01,5.86 -1.83,10.61 -2.5,14.55 -7.13,2.61 -15.15,-4.84 -19.03,4.56 2.7,6.39 5.25,12.42 8.06,19.08 -3.5,1.06 -5.6,1.7 -8.86,2.68 -2.54,-7.94 -4.84,-15.16 -7.13,-22.3 -11.1,-0.37 -17.1,4.51 -20.01,13.41 -1.64,4.98 -3.04,9.45 -10.43,5.63 -0.68,-3.28 -1.44,-6.99 -2.06,-9.97 4.61,-5.3 14.59,-0.15 15.35,-11.46 -4.97,-0.26 -9.66,0.04 -14.1,-0.88 -4.22,-0.88 -11.31,1.73 -10.94,-8.96 m 5.99,39.28 c 5.12,0.74 8.6,1.25 12.62,1.83 1.06,7.26 2.13,14.66 3.19,21.94 5.96,3.5 11.32,6.64 16.74,9.82 9.64,-7.52 6.15,-18.29 9.45,-28.57 4.3,-1.83 9.65,-4.1 16.76,-7.12 -0.73,-6.16 -1.5,-12.59 -2.35,-19.63 3.18,-0.44 6.62,-0.92 10.78,-1.49 4.26,-8.83 5.64,-17.79 3.47,-28.52 -10.34,-1.75 -20.42,-3.44 -31.63,-5.33 v -31.51 c -11.02,9.12 -4.45,20.4 -9.11,30.29 -8.28,-0.77 -17.15,-1.59 -26.91,-2.49 -1.9,4.36 -3.61,8.27 -5.59,12.81 -2.83,1.06 -6.09,2.27 -10.12,3.76 v 17.1 c 2.59,1.75 5.49,3.71 8.1,5.49 1.5,7.05 2.97,13.95 4.6,21.62"
         style="fill:#231f20;fill-opacity:1;fill-rule:nonzero;stroke:none"
         id="path7006" />
    </g>
  </g>
</svg>
