<?xml version="1.0" encoding="UTF-8" standalone="no"?>
<!-- John Grümph
     https://legrumph.org/Terrier/public/chibi/de-chorographia
     CC BY-NC 3.0
     https://creativecommons.org/licenses/by-nc/3.0/fr/ -->
<!-- Created with Inkscape (http://www.inkscape.org/) -->

<svg
   version="1.1"
   id="svg2"
   width="12.884033"
   height="13.545106"
   viewBox="0 0 12.884033 13.545105"
   xmlns="http://www.w3.org/2000/svg"
   xmlns:svg="http://www.w3.org/2000/svg">
  <defs
     id="defs6" />
  <g
     id="g10"
     transform="matrix(1.3333333,0,0,-1.3333333,-474.51465,430.08775)">
    <g
       id="g12"
       transform="scale(0.1)">
      <path
         d="m 3617.86,3180.94 c 19.35,0.73 30.03,10.5 28.08,25.4 -12.07,10.58 -28.47,13.02 -40.85,6.09 -14.76,-8.25 -19.45,-15.18 -17.23,-28.04 6.09,-1.54 13.01,-3.27 19.98,-5.03 1.91,6.15 3.23,10.41 4.55,14.67 0.68,-0.04 1.35,-0.09 2.01,-0.13 1.17,-4.35 2.32,-8.68 3.46,-12.96 m -59,-48.5 c 13.76,18.26 39.83,16.18 51.16,37.07 -6.32,1.49 -10.52,2.37 -14.66,3.48 -8.66,2.32 -15.36,7.14 -17.33,16.28 -1.91,8.79 2.54,15.06 8.99,20.73 13.96,12.29 28.87,19.98 47.95,13.03 10.25,-3.74 19.15,-9.21 20.38,-21.08 1.21,-11.81 -5.53,-19.79 -15.64,-24.5 -7.46,-3.46 -15.5,-5.63 -23.69,-8.52 v -3.07 c 10.86,-5.87 21.05,-11.38 32.92,-17.79 -10.14,-3.09 -15.73,-0.81 -32.22,11.23 -4.61,-3.69 -9.22,-7.39 -14.13,-11.33 3.69,-3.15 7.31,-6.26 11.48,-9.82 -6.62,-6.98 -11.45,-14.03 -20.5,-14.08 -0.7,0.83 -1.4,1.66 -2.12,2.5 3.52,3.87 7.03,7.75 10.95,12.08 -3.09,1.93 -6.06,3.77 -7.79,4.86 -13.05,-0.58 -20.55,-14.48 -35.75,-11.07"
         style="fill:#231f20;fill-opacity:1;fill-rule:nonzero;stroke:none"
         id="path7018" />
    </g>
  </g>
</svg>
