<?xml version="1.0" encoding="UTF-8" standalone="no"?>
<!-- Created with Inkscape (http://www.inkscape.org/) -->

<svg
   version="1.1"
   id="svg2"
   width="12.697693"
   height="12.456239"
   viewBox="0 0 12.697693 12.456238"
   xmlns="http://www.w3.org/2000/svg"
   xmlns:svg="http://www.w3.org/2000/svg">
  <defs
     id="defs6" />
  <g
     id="g10"
     transform="matrix(1.3333333,0,0,-1.3333333,-624.35926,454.79759)">
    <g
       id="g12"
       transform="scale(0.1)">
      <path
         d="m 4733.19,3359.88 c -0.31,1.28 -0.62,2.57 -0.94,3.87 -4.17,-1.14 -8.34,-2.27 -14.75,-4 7.96,-5.82 12.13,-4.52 15.69,0.13 m 13.98,-1.45 c 6.11,2.09 10.97,3.75 16.56,5.66 -5.67,9.77 -12.08,2.66 -17.44,3.39 -0.82,0.11 -1.82,-1.05 -3.25,-1.94 1.29,-2.22 2.41,-4.14 4.13,-7.11 m 21.14,31.86 c 0.1,1.53 0.22,3.09 0.33,4.61 -11.08,4.05 -21.76,10.12 -35.45,5.76 0.6,-3.93 1.11,-7.3 1.84,-12.07 11.58,0.59 22.43,1.14 33.28,1.7 m -76.13,7.91 c -0.63,-5.5 -1.11,-9.61 -1.77,-15.36 14.14,1.72 26.05,3.18 38.52,4.71 -0.41,5.11 -0.68,8.51 -1.03,12.84 -11.73,-0.71 -22.67,-1.39 -35.72,-2.19 m 73.91,-23.38 c 1.33,-3.27 3.54,-8.69 6.62,-16.35 -10.03,-3.34 -19.13,-6.36 -27.91,-9.29 v -31.14 c -0.9,-0.16 -1.81,-0.33 -2.71,-0.48 -7.57,8.14 -0.58,20.48 -6.57,29.16 h -17.66 c -2.79,5.17 -5.71,10.58 -9.73,18.05 8.03,3.89 14.85,7.18 23.87,11.52 -3.25,1.05 -5.47,2.53 -7.5,2.3 -11.41,-1.3 -22.77,-3.03 -32.8,-4.41 -11.41,10.82 -11.72,16.2 -2.39,32.27 23.44,-0.16 47.53,10.14 72.09,0.2 7.3,-2.94 16.11,-4.56 16.52,-14.69 0.27,-6.67 -7,-10.96 -19.63,-11.87 -7.02,-0.5 -14.1,-0.09 -21.22,-1.89 8.73,-6.09 18.51,3.93 29.02,-3.38"
         style="fill:#231f20;fill-opacity:1;fill-rule:nonzero;stroke:none"
         id="path7008" />
    </g>
  </g>
</svg>
