<?xml version="1.0" encoding="UTF-8" standalone="no"?>
<!-- Created with Inkscape (http://www.inkscape.org/) -->

<svg
   version="1.1"
   id="svg2"
   width="13.567993"
   height="15.686646"
   viewBox="0 0 13.567993 15.686646"
   xmlns="http://www.w3.org/2000/svg"
   xmlns:svg="http://www.w3.org/2000/svg">
  <defs
     id="defs6" />
  <g
     id="g10"
     transform="matrix(1.3333333,0,0,-1.3333333,-458.32132,430.3253)">
    <g
       id="g12"
       transform="scale(0.1)">
      <path
         d="m 3523.48,3163.9 c 1.33,8.25 2.73,16.94 3.87,23.96 -7.4,9.79 -13.29,17.6 -18.48,24.45 -15.01,-18.2 -29.51,-35.78 -44.02,-53.36 9.93,-8.02 20.86,-7.63 31.93,-0.65 0.97,6.92 1.9,13.52 2.82,20.12 0.96,-0.04 1.91,-0.08 2.86,-0.13 1.08,-6.02 2.15,-12.06 3.36,-18.85 5.63,1.41 10.6,2.67 17.66,4.46 m -33.14,-35 c -10.03,2.53 -16.59,-3.82 -23.32,-9.34 -8.52,-6.98 -17.78,-11.11 -29.61,-7.95 2.99,1.57 5.95,3.21 9,4.66 3.58,1.72 8.1,2.42 10.73,5.03 10.54,10.5 22.64,17.09 38.15,16.59 0.56,3.08 0.94,5.15 1.59,8.72 -18.35,-6.42 -31.56,1.02 -45.53,11.66 2.73,4.48 4.09,9.09 7.18,11.4 19.99,14.93 33.31,35.16 46.47,57.77 3.41,-3.32 6.7,-5.89 9.22,-9.09 5.93,-7.52 11.61,-15.24 17.17,-23.04 6.05,-8.5 5.63,-28.17 -1.15,-36.29 -2.13,-2.54 -5.74,-4.17 -8.99,-5.37 -5.18,-1.91 -10.63,-3.1 -16.53,-4.75 -0.25,-3.96 -0.48,-7.38 -0.66,-10.34 5.84,-3.34 10.93,-6.25 16.05,-9.18 6.27,-1.04 12.67,-2.1 19.06,-3.16 -0.04,-0.98 -0.07,-1.97 -0.1,-2.95 -2.84,-0.41 -5.66,-0.97 -8.5,-1.15 -3.17,-0.19 -6.37,-0.05 -10.04,-0.05 -1.4,-4.09 -2.8,-8.18 -4.2,-12.28 -1.1,0.08 -2.21,0.15 -3.3,0.22 -0.68,5.55 -1.36,11.09 -2.23,18.23 -2.33,1.1 -5.71,2.7 -9.58,4.54 -6.76,-10.59 -10.9,-23.48 -27.98,-22.24 6.42,7.09 11.63,12.85 16.84,18.6 0.27,0.02 0.55,0.03 0.82,0.04 -0.22,0.19 -0.44,0.36 -0.66,0.54 0.03,-0.27 0.06,-0.55 0.1,-0.82"
         style="fill:#231f20;fill-opacity:1;fill-rule:nonzero;stroke:none"
         id="path7004" />
    </g>
  </g>
</svg>
