<?xml version="1.0" encoding="UTF-8" standalone="no"?>
<!-- John Grümph
     https://legrumph.org/Terrier/public/chibi/de-chorographia
     CC BY-NC 3.0
     https://creativecommons.org/licenses/by-nc/3.0/fr/ -->
<!-- Created with Inkscape (http://www.inkscape.org/) -->

<svg
   version="1.1"
   id="svg2"
   width="5.3778381"
   height="15.351991"
   viewBox="0 0 5.3778381 15.35199"
   xmlns="http://www.w3.org/2000/svg"
   xmlns:svg="http://www.w3.org/2000/svg">
  <defs
     id="defs6" />
  <g
     id="g10"
     transform="matrix(1.3333333,0,0,-1.3333333,-435.86209,455.36662)">
    <g
       id="g12"
       transform="scale(0.1)">
      <path
         d="m 3291.88,3330.77 c 7.94,6.99 11.87,14.5 10.83,23.66 -1.96,17.27 -4.6,34.46 -7,52.1 -9.51,-4.67 -18.3,-26.47 -19.05,-44.67 -0.82,-21.25 0.93,-28.11 8.47,-32.73 2.51,11.46 -3.88,23.41 3.37,34.84 1.09,-10.66 2.16,-21.33 3.38,-33.2 m -9.59,80.26 c 5.96,1.57 10.42,2.74 16.05,4.22 1.71,-4.37 3.73,-7.79 4.34,-11.44 1.91,-11.38 3.25,-22.85 4.91,-34.28 3.93,-27.35 2.02,-34.23 -15.73,-54.92 -0.61,-4.48 -1.27,-9.4 -1.93,-14.31 -0.97,-0.07 -1.93,-0.13 -2.88,-0.19 -0.69,5.45 -1.39,10.89 -2.16,16.97 -18.44,13 -16.87,33.03 -14.57,51.84 1.73,14.34 7.82,28.15 11.97,42.11"
         style="fill:#231f20;fill-opacity:1;fill-rule:nonzero;stroke:none"
         id="path7050" />
    </g>
  </g>
</svg>
