<?xml version="1.0" encoding="UTF-8" standalone="no"?>
<!-- Created with Inkscape (http://www.inkscape.org/) -->

<svg
   version="1.1"
   id="svg2"
   width="11.345337"
   height="15.795411"
   viewBox="0 0 11.345337 15.79541"
   xmlns="http://www.w3.org/2000/svg"
   xmlns:svg="http://www.w3.org/2000/svg">
  <defs
     id="defs6" />
  <g
     id="g10"
     transform="matrix(1.3333333,0,0,-1.3333333,-560.70001,458.1367)">
    <g
       id="g12"
       transform="scale(0.1)">
      <path
         d="m 4250.66,3376.27 c 6.04,0.78 10.45,1.35 15.39,1.98 -0.21,3.48 -0.37,6.01 -0.55,8.95 h -11.89 c -0.89,-3.26 -1.73,-6.4 -2.95,-10.93 m -22.2,-26.44 c 7.09,3.1 14.9,1.36 17.04,10.73 h -18.53 c 0.51,-3.69 0.89,-6.34 1.49,-10.73 m -17.28,32.56 c 18.75,-5.88 28.13,-3.61 32.05,9.28 -10.62,-5.11 -21.89,-0.85 -32.05,-9.28 m 34.27,40.77 c 1.75,-5.81 2.71,-8.93 3.89,-12.82 9.46,2.19 20,-2.62 30.84,5.91 -12.18,4.67 -22.02,8.46 -31.57,12.12 -11.7,-4.87 -22.7,-9.46 -33.7,-14.04 0.22,-0.91 0.45,-1.83 0.68,-2.74 h 24.93 c 1.28,3.04 2.48,5.86 4.93,11.57 m 6.1,-55.85 c 0.99,-16.54 1.38,-32.54 -2.53,-49.75 -10.09,9.7 -0.16,20.32 -4.43,29.22 -6.64,-0.76 -13.05,-1.5 -20.29,-2.32 -1.76,7.15 -3.12,12.78 -4.85,19.82 7.3,1.83 13.61,3.42 20.75,5.2 -11.41,4.18 -24.5,-3.3 -34.48,7.33 v 16.92 c 11.41,1.79 22.16,3.47 32.94,5.16 -0.05,0.73 -0.12,1.45 -0.16,2.18 h -28.75 c -1.57,6.97 -3,13.25 -4.5,19.9 13.73,5.26 25.86,10.13 38.16,14.44 2.8,0.99 6.47,0.68 9.41,-0.18 11.04,-3.23 21.98,-6.83 32.86,-10.6 1.61,-0.56 2.66,-2.73 4.66,-4.91 -3.02,-5.57 -5.96,-11.02 -9.13,-16.88 -10.28,-0.62 -19.92,-1.22 -29.58,-1.81 -0.13,-1.08 -0.27,-2.14 -0.4,-3.22 6.49,-1.33 12.98,-2.64 21.32,-4.34 0.51,-7.01 1.04,-14.27 1.65,-22.74 -8.2,-1.24 -15.09,-2.27 -22.65,-3.42"
         style="fill:#231f20;fill-opacity:1;fill-rule:nonzero;stroke:none"
         id="path6978" />
    </g>
  </g>
</svg>
