<?xml version="1.0" encoding="UTF-8" standalone="no"?>
<!-- Created with Inkscape (http://www.inkscape.org/) -->

<svg
   version="1.1"
   id="svg2"
   width="41.322632"
   height="11.967164"
   viewBox="0 0 41.322632 11.967164"
   xmlns="http://www.w3.org/2000/svg"
   xmlns:svg="http://www.w3.org/2000/svg">
  <defs
     id="defs6" />
  <g
     id="g7842"
     transform="matrix(1.3333333,0,0,-1.3333333,-418.74932,232.11387)">
    <g
       id="g7844"
       transform="scale(0.1)">
      <path
         d="m 3205.07,1678.25 c 3.14,8.85 3.14,8.85 -5.25,11.79 2.13,-4.79 3.7,-8.28 5.25,-11.79 m 10.82,-9.49 c 1.06,-0.38 2.12,-0.77 3.16,-1.15 2.9,5.57 5.8,11.15 9.73,18.77 -5.96,-0.66 -9.3,-1.02 -12.89,-1.41 z m -38.77,32.05 c 7.84,-0.38 17.14,1.47 24.26,-1.63 17.49,-7.62 34.44,-2.71 51.6,-0.88 7.09,0.76 13.98,3.3 20.59,4.93 -11.11,6.6 -20.97,12.65 -31.04,18.34 -3.05,1.72 -6.6,3.13 -10.05,3.48 -11.47,1.19 -23.02,2.27 -34.54,2.58 -14.19,0.35 -26.18,-6.47 -39.96,-11.64 7.2,-5.71 12.48,-9.9 19.14,-15.18 m 58.22,-15.4 c -5.5,-10.59 -11.11,-21.39 -17.82,-34.31 -9.68,13.84 -18.07,25.83 -26.92,38.5 -5.72,1.54 -13.62,2.15 -19.83,5.68 -10.04,5.69 -18.97,13.32 -28.38,20.14 -0.59,1.39 -1.18,2.8 -1.77,4.21 2.84,1.43 5.61,3.07 8.57,4.27 16.19,6.61 31.94,14.92 50.29,13.35 10.32,-0.87 20.75,-1.23 30.91,-3.04 6.11,-1.08 12.47,-3.58 17.47,-7.17 8.17,-5.87 15.66,-11.56 26.53,-12.12 7.25,-0.37 8.64,-5.34 6.79,-19.44 -14.54,-3.19 -29.88,-6.57 -45.84,-10.07"
         style="fill:#231f20;fill-opacity:1;fill-rule:nonzero;stroke:none"
         id="path9060" />
      <path
         d="m 3382.93,1677.51 c 3.37,3.6 5.58,5.98 9.22,9.87 -4.82,-0.38 -7.38,-0.58 -10.53,-0.84 0.42,-2.89 0.73,-5.04 1.31,-9.03 m -20.6,1.72 c -0.1,-0.89 -0.21,-1.78 -0.33,-2.68 4.77,-1.93 9.54,-3.85 16.42,-6.65 -1.66,5.72 -2.68,9.23 -3.8,13.1 -4.84,-1.49 -8.56,-2.63 -12.29,-3.77 m -18.99,2.41 c 11.65,4.75 21.67,9.98 32.31,12.84 10.69,2.86 22.02,3.32 33.05,4.9 5.92,0.84 11.96,1.29 17.71,2.85 5.07,1.36 9.81,4 16.15,6.7 -2.7,2.1 -3.52,3 -4.54,3.47 -1.43,0.65 -3,1.34 -4.5,1.36 -15.02,0.15 -27.62,6.77 -40,14.34 -3.63,2.21 -8.06,4.62 -12.03,4.49 -15.48,-0.55 -30.92,-2.09 -47.37,-3.33 -4.9,-8.62 -9.73,-17.09 -15.54,-27.26 8.84,-7.27 16.68,-13.72 24.76,-20.36 m 107.2,23.98 c -13.17,-14.59 -30.81,-13.31 -47.04,-16.4 -5.64,-6.51 -11.33,-13.09 -17.34,-20.03 1.12,-5.45 2.28,-11.1 3.43,-16.76 -0.93,-0.45 -1.86,-0.89 -2.78,-1.33 -2.1,3.23 -4.2,6.45 -6.59,10.11 -12.26,3.99 -23.33,12.55 -38.58,13.42 -5.56,4.17 -12.52,8.87 -18.89,14.27 -9.79,8.29 -11.42,16.07 -5.53,27.42 3.8,7.33 8.61,14.15 12.82,20.95 17.1,1.37 32.96,3.28 48.84,3.58 5.91,0.12 12.37,-2.67 17.74,-5.63 11.19,-6.22 21.91,-12.5 35.45,-12.82 9.52,-0.23 16.03,-6.13 18.47,-16.78"
         style="fill:#231f20;fill-opacity:1;fill-rule:nonzero;stroke:none"
         id="path9062" />
    </g>
  </g>
</svg>
