<?xml version="1.0" encoding="UTF-8" standalone="no"?>
<!-- John Grümph
     https://legrumph.org/Terrier/public/chibi/de-chorographia
     CC BY-NC 3.0
     https://creativecommons.org/licenses/by-nc/3.0/fr/ -->
<!-- Created with Inkscape (http://www.inkscape.org/) -->

<svg
   version="1.1"
   id="svg2"
   width="39.129517"
   height="10.25177"
   viewBox="0 0 39.129516 10.25177"
   xmlns="http://www.w3.org/2000/svg"
   xmlns:svg="http://www.w3.org/2000/svg">
  <defs
     id="defs6" />
  <g
     id="g7842"
     transform="matrix(1.3333333,0,0,-1.3333333,-587.38225,198.39444)">
    <g
       id="g7844"
       transform="scale(0.1)">
      <path
         d="m 4491.92,1435.17 c 24.13,5.84 28.31,20.54 15.71,37.73 -9.75,5.6 -19.79,10.09 -30.88,2.48 -3.99,-7.44 -7.93,-14.75 -12.01,-22.37 4.16,-7.64 9.14,-13.67 18.97,-16.12 -0.56,6.47 -1.02,11.83 -1.49,17.19 l 2.61,0.82 c 2.28,-6.33 4.55,-12.67 7.09,-19.73 m 2.06,-10.24 c 0.28,-4.61 0.54,-8.74 0.79,-12.89 l -3.4,-0.96 c -1.61,4.13 -3.22,8.26 -5.37,13.79 -5.07,3.22 -11.81,6.73 -17.64,11.38 -13.64,10.88 -14.29,17.26 -5.95,32.51 4.8,8.78 8.15,18.37 20.45,19.11 23.9,1.42 43.92,-14.36 39.07,-41.14 -0.8,-4.44 -4.78,-9.24 -8.62,-11.99 -5.7,-4.09 -12.58,-6.5 -19.33,-9.81"
         style="fill:#231f20;fill-opacity:1;fill-rule:nonzero;stroke:none"
         id="path9324" />
      <path
         d="m 4658.89,1480.98 c -7.1,-2.82 -14.53,-5.77 -23.8,-9.45 6,-8.17 10.39,-14.13 15.89,-21.62 0.27,-3.16 -1.35,-9.84 7.29,-10.05 1.32,1.69 2.71,3.46 4.21,5.37 1.61,-2.21 2.91,-4.01 4.93,-6.74 8.77,7.28 22,8.79 23.59,22.58 -7.68,11.41 -18.5,16.07 -32.11,19.91 m -28.18,-4.06 c 25.99,21.28 50.58,7.91 64.93,-10.57 5.36,-6.91 3.91,-16.2 -3.8,-22.39 -8,-6.44 -17.11,-11.52 -27.39,-18.29 -0.99,-3.45 -2.59,-9.03 -4.2,-14.59 l -2.52,0.26 v 17.56 c -4.55,3.29 -9.64,6.97 -15.16,10.96 1.91,14.21 -15.41,21.7 -11.86,37.06"
         style="fill:#231f20;fill-opacity:1;fill-rule:nonzero;stroke:none"
         id="path9368" />
      <path
         d="m 4608.89,1450.43 c -11.94,8.81 -21.12,9.47 -31.12,2.41 -6.57,-4.64 -9.07,-10.63 -4.68,-19.22 3.27,-0.66 6.89,-1.38 10.91,-2.19 0.66,4.13 1.11,7.07 1.84,11.68 3.16,-4.28 5.36,-7.27 7.62,-10.35 9.15,2.59 15.38,7.05 15.43,17.67 m -16.01,-29.21 c -0.65,-2.18 -1.49,-5.07 -2.99,-10.15 -3,4.67 -4.96,7.68 -6.89,10.69 -15.43,4.55 -21.25,10.09 -21.39,20.36 -0.16,11.74 7.66,20.57 22.05,24.85 10.54,3.14 28.39,-4.49 33.07,-14.14 3.43,-7.03 0.47,-17.5 -7.48,-23.23 -4.43,-3.2 -9.8,-5.09 -16.37,-8.38"
         style="fill:#231f20;fill-opacity:1;fill-rule:nonzero;stroke:none"
         id="path9462" />
      <path
         d="m 4566.4701,1454.33 c -11.51,-2.26 -22.77,2.91 -33.84,-4.43 -0.39,-5.36 -0.79,-10.75 -1.19,-16.12 4.16,-2.36 7.43,-4.2 10.71,-6.06 1.74,6.11 3.22,11.29 4.68,16.45 0.96,-0.18 1.92,-0.34 2.86,-0.5 1.01,-3.06 2.01,-6.13 3.23,-9.78 3.95,1.8 7.11,3.24 10.3,4.69 1.04,5.05 1.99,9.65 3.25,15.75 m -14.1,-29.86 c -1.02,-4.39 -1.95,-8.39 -3.12,-13.39 -4.96,4.32 -8.72,7.96 -12.86,11.11 -4.07,3.1 -8.52,5.69 -13.73,9.12 v 22.92 c 11.93,9.9 43.95,11.8 54.96,3.58 -2.01,-7.23 -4.11,-14.73 -6.6,-23.66 -5.55,-2.87 -12.16,-6.3 -18.65,-9.68"
         style="fill:#231f20;fill-opacity:1;fill-rule:nonzero;stroke:none"
         id="path9466" />
      <path
         d="m 4427.97,1419.43 c 2.45,4.14 3.76,6.37 5.25,8.89 2.12,-1.77 3.81,-3.19 5.37,-4.52 12.54,6.08 12.82,6.54 9.74,19.54 -9.6,0.87 -19.94,1.82 -32.22,2.96 -1.75,-7.09 -3.24,-13.14 -5.06,-20.5 6.47,-2.44 11.36,-4.28 16.92,-6.37 m 4.79,-8.36 c -4.84,1.32 -9.49,2.32 -13.95,3.86 -10.09,3.46 -14.87,11.98 -13.07,22.71 1.6,9.47 9.49,16.52 19.44,16.16 6.7,-0.26 13.41,-1.75 20.01,-3.19 7.04,-1.54 10.87,-6.56 11.87,-13.48 1.02,-6.95 -1.39,-12.61 -7.61,-16.29 -5.44,-3.25 -10.92,-6.41 -16.69,-9.77"
         style="fill:#231f20;fill-opacity:1;fill-rule:nonzero;stroke:none"
         id="path9550" />
    </g>
  </g>
</svg>
