<?xml version="1.0" encoding="UTF-8" standalone="no"?>
<!-- Created with Inkscape (http://www.inkscape.org/) -->

<svg
   version="1.1"
   id="svg2"
   width="57.350037"
   height="17.942688"
   viewBox="0 0 57.350036 17.942687"
   xmlns="http://www.w3.org/2000/svg"
   xmlns:svg="http://www.w3.org/2000/svg">
  <defs
     id="defs6" />
  <g
     id="g10"
     transform="matrix(1.3333333,0,0,-1.3333333,-624.35926,460.28398)">
    <g
       id="g12"
       transform="scale(0.1)">
      <path
         d="m 5066.75,3360.36 c 0.28,-1.62 0.58,-3.23 0.86,-4.85 5.65,1.25 11.32,2.49 16.97,3.74 -0.22,1.18 -0.45,2.37 -0.67,3.56 -5.72,-0.82 -11.45,-1.63 -17.16,-2.45 m -6.81,0.48 c -7.25,-1.51 -14.35,-0.54 -15.53,-11.46 5.59,0.62 10.38,1.14 15.53,1.7 z m 42.45,32.16 c -3.84,6.72 -4.6,7.74 -9.84,6.65 -9.11,-1.89 -18.06,-4.55 -28.78,-7.34 2.64,-5.93 4.74,-10.68 7.03,-15.85 11.41,5.97 21.51,11.25 31.59,16.54 m -96.29,-22.33 h 52.8 c -0.61,5.48 -1.05,9.53 -1.54,14.07 -18.26,-1.77 -34.98,-3.4 -52.25,-5.08 0.45,-4.08 0.69,-6.29 0.99,-8.99 m 26.38,54.31 c 0.88,-7.33 1.72,-14.23 2.59,-21.5 7.12,-0.88 13.25,-1.65 20.35,-2.53 -0.59,4.73 -1.32,8.13 -1.38,11.54 -0.06,3.22 0.56,6.44 0.88,9.67 0.77,0.02 1.53,0.05 2.29,0.07 1.77,-6.99 3.52,-13.96 5.25,-20.83 9.82,-1.43 8.73,7.25 12.42,10.22 -3.53,11.9 -6.86,23.11 -10.62,35.78 -11.18,-7.89 -21.13,-14.91 -31.78,-22.42 m 34.14,-78.38 c -1.59,-9.58 -3.19,-19.26 -4.81,-29.04 -6.8,2.05 -6.8,2.05 -4.27,23.42 -5.97,0.95 -13.23,0.19 -17.53,3.39 -3.77,2.82 -4.21,10.08 -6.89,17.55 -5.03,0 -12.19,-0.7 -19.12,0.25 -4.77,0.64 -10.37,2.51 -13.45,5.83 -2.67,2.87 -4.09,9.23 -2.76,12.79 1.31,3.47 6.53,6.55 10.59,7.61 6.08,1.59 12.67,1.24 19.03,1.75 6.33,0.51 12.66,1.07 19.17,2.19 -7.81,2.58 -18.27,1.14 -19.9,12.59 -1.17,8.2 -1.51,16.53 -2.28,25.47 6.09,4.2 11.53,8.1 17.13,11.78 5.63,3.69 11.42,7.14 15.93,9.95 9.32,-0.11 13.31,-4.8 15.47,-11.27 3.75,-11.27 7.17,-22.66 10.26,-32.48 7.57,-2.08 15.12,-2.8 21.07,-6.25 4,-2.32 5.75,-8.52 8.56,-13.08 -11.58,-6.14 -21.25,-11.26 -31.96,-16.92 13.21,-4.61 13.67,-5.29 12.42,-18.55 -8.1,-2.12 -16.78,-4.39 -26.66,-6.98"
         style="fill:#231f20;fill-opacity:1;fill-rule:nonzero;stroke:none"
         id="path6946" />
      <path
         d="m 4850.47,3370.74 c -0.31,0.1 -0.62,0.19 -0.94,0.28 0.21,-0.32 0.42,-0.64 0.63,-0.97 0.1,0.24 0.2,0.47 0.31,0.69 m 25.78,-30.06 c -6.86,7.03 -7.74,7.14 -17.3,2.41 5.21,-3.99 9.87,-7.94 17.3,-2.41 m -26.91,19.46 c -19.46,3.94 -24.13,3.21 -31.16,-5.21 11.48,1.92 21.32,3.57 31.16,5.21 m 37.47,4.37 -0.53,2.12 c -8.84,-1.05 -17.68,-2.09 -27.2,-3.2 0.19,-2.98 0.34,-5.16 0.51,-7.91 9.57,3.16 18.4,6.07 27.22,8.99 m -36.89,14.55 c -8.79,11.02 -19.95,10.73 -26.43,0 z m -37.62,-32.91 c 0.15,-2.74 0.3,-5.16 0.45,-7.79 h 38.64 v 13.61 c -12.97,-1.93 -25.09,-3.74 -39.09,-5.82 m 43.12,60.89 c 1.09,-0.03 2.18,-0.06 3.26,-0.09 v -26.34 c 13.56,2.72 11.98,13.97 16.9,21.15 -9.01,6.93 -17.45,13.42 -26.1,20.07 -5.47,-3.76 -10.34,-7.11 -15.95,-10.95 0.71,-5.12 1.38,-9.95 1.85,-13.34 7.49,-2.22 13.19,-3.9 19.01,-5.61 0.33,4.88 0.68,9.99 1.03,15.11 m -43.51,-28.8 c 6.09,7.22 10.2,12.08 14.62,17.31 v 21 c 7.29,4.79 15.45,10.15 22.73,14.93 12.07,-9.82 23.05,-18.76 35.31,-28.74 -4.01,-9.39 -7.96,-18.61 -11.99,-28.04 h 19.73 c 1.5,-5.52 2.87,-10.56 4.44,-16.37 -7.4,-2.43 -13.33,-4.38 -18.61,-6.11 2.2,-5.98 4.3,-11.66 6.32,-17.16 -8.04,-6.82 -15.38,-7.92 -23.98,-4.33 -1.2,-3.72 -2.31,-7.21 -4.23,-13.17 -2.74,5.3 -4.37,8.44 -6.06,11.7 -9.51,0 -19.05,-0.21 -28.58,0.05 -13.08,0.37 -16.25,3.75 -17.25,20 1.09,0.82 3.57,2.67 6.55,4.89 0.28,2.87 0.63,6.4 1.09,10.88 3.16,1.63 6.59,3.4 9.59,4.96 -2.12,1.78 -4.81,4.07 -9.68,8.2"
         style="fill:#231f20;fill-opacity:1;fill-rule:nonzero;stroke:none"
         id="path6952" />
      <path
         d="m 4966.45,3390.29 c 0.37,-1.18 0.75,-2.36 1.12,-3.54 2.45,-0.12 4.91,-0.25 7.98,-0.41 -0.16,3.11 -0.28,5.3 -0.51,9.43 -3.72,-2.36 -6.16,-3.93 -8.59,-5.48 m 14.57,-27.41 c -0.36,0.89 -0.72,1.78 -1.09,2.64 -11.52,2.64 -12.79,1.73 -11.52,-9.91 4.59,2.66 8.61,4.95 12.61,7.27 m -12.75,41.39 c 11.07,5.14 10.28,13.5 11.78,22.59 -4.66,-1.02 -7.92,-1.73 -11.78,-2.57 z m -12.52,-50.41 v 13.61 c -7.05,-0.52 -13.18,-0.97 -19.89,-1.45 -1.38,-4.34 -2.47,-7.8 -3.86,-12.16 z m -9.45,62.84 c 0.7,-6.43 1.31,-12.2 1.95,-17.98 -2.98,-3.63 -5.93,-7.27 -9.34,-11.45 2.29,-3.32 4.18,-6.07 7.18,-10.46 5.66,4.51 10.39,8.26 13.39,10.65 v 39.33 c -5.07,-3.88 -8.46,-6.49 -13.18,-10.09 m 15.81,18.96 c 7.73,-0.46 16.05,-0.95 26.07,-1.53 -1.98,-20.72 -3.75,-39.22 -5.66,-59.02 5.21,-1.55 8.93,-6.32 6.8,-14.23 -2.12,-7.88 -9.05,-12 -23.39,-13.27 v -30.05 c -9.07,9.23 -2.98,19.07 -7.09,27.03 -6.86,0 -13.96,-0.39 -21.02,0.11 -6.43,0.46 -13.84,1.5 -14.32,9.75 -0.43,7.57 1.55,15.09 9.27,19.25 1.02,0.55 2.14,0.91 3.82,1.61 -6.57,10.26 -5.61,19.69 3.73,28.24 -5.03,18.41 6.63,26.13 21.79,32.11"
         style="fill:#231f20;fill-opacity:1;fill-rule:nonzero;stroke:none"
         id="path7002" />
      <path
         d="m 4733.19,3359.88 c -0.31,1.28 -0.62,2.57 -0.94,3.87 -4.17,-1.14 -8.34,-2.27 -14.75,-4 7.96,-5.82 12.13,-4.52 15.69,0.13 m 13.98,-1.45 c 6.11,2.09 10.97,3.75 16.56,5.66 -5.67,9.77 -12.08,2.66 -17.44,3.39 -0.82,0.11 -1.82,-1.05 -3.25,-1.94 1.29,-2.22 2.41,-4.14 4.13,-7.11 m 21.14,31.86 c 0.1,1.53 0.22,3.09 0.33,4.61 -11.08,4.05 -21.76,10.12 -35.45,5.76 0.6,-3.93 1.11,-7.3 1.84,-12.07 11.58,0.59 22.43,1.14 33.28,1.7 m -76.13,7.91 c -0.63,-5.5 -1.11,-9.61 -1.77,-15.36 14.14,1.72 26.05,3.18 38.52,4.71 -0.41,5.11 -0.68,8.51 -1.03,12.84 -11.73,-0.71 -22.67,-1.39 -35.72,-2.19 m 73.91,-23.38 c 1.33,-3.27 3.54,-8.69 6.62,-16.35 -10.03,-3.34 -19.13,-6.36 -27.91,-9.29 v -31.14 c -0.9,-0.16 -1.81,-0.33 -2.71,-0.48 -7.57,8.14 -0.58,20.48 -6.57,29.16 h -17.66 c -2.79,5.17 -5.71,10.58 -9.73,18.05 8.03,3.89 14.85,7.18 23.87,11.52 -3.25,1.05 -5.47,2.53 -7.5,2.3 -11.41,-1.3 -22.77,-3.03 -32.8,-4.41 -11.41,10.82 -11.72,16.2 -2.39,32.27 23.44,-0.16 47.53,10.14 72.09,0.2 7.3,-2.94 16.11,-4.56 16.52,-14.69 0.27,-6.67 -7,-10.96 -19.63,-11.87 -7.02,-0.5 -14.1,-0.09 -21.22,-1.89 8.73,-6.09 18.51,3.93 29.02,-3.38"
         style="fill:#231f20;fill-opacity:1;fill-rule:nonzero;stroke:none"
         id="path7008" />
    </g>
  </g>
</svg>
