<?xml version="1.0" encoding="UTF-8" standalone="no"?>
<!-- John Grümph
     https://legrumph.org/Terrier/public/chibi/de-chorographia
     CC BY-NC 3.0
     https://creativecommons.org/licenses/by-nc/3.0/fr/ -->
<!-- Created with Inkscape (http://www.inkscape.org/) -->

<svg
   version="1.1"
   id="svg2"
   width="49.622681"
   height="18.417297"
   viewBox="0 0 49.62268 18.417297"
   xmlns="http://www.w3.org/2000/svg"
   xmlns:svg="http://www.w3.org/2000/svg">
  <defs
     id="defs6" />
  <g
     id="g10"
     transform="matrix(1.3333333,0,0,-1.3333333,-637.19464,393.64134)">
    <g
       id="g12"
       transform="scale(0.1)">
      <path
         d="m 4974.21,2892.32 c 7.95,3.11 13.75,5.36 20.21,7.88 v 19.37 c -21.63,-3.12 -42.48,-6.14 -64.5,-9.32 6.16,-9.77 17.5,-13.5 17.71,-26.05 -2.98,-1.63 -6.06,-3.2 -9.05,-4.93 -2.88,-1.65 -5.67,-3.45 -10.26,-6.27 8.61,-3.86 15.12,-6.77 21.36,-9.55 -0.4,-5.22 -0.66,-8.52 -0.88,-11.47 7.86,-1.18 14.79,-2.21 21.11,-3.16 2.04,-4.16 3.4,-6.93 5.09,-10.37 3.5,1.25 6.73,2.39 9.83,3.51 -0.48,4.72 -0.9,8.83 -1.35,13.17 8.96,1.71 16.96,3.25 25.21,4.83 0.38,8.04 0.71,14.66 1.01,21.06 -11.53,4.61 -25.69,-2.63 -35.49,11.3 m 29.63,2.13 c 5.35,-2.22 10.28,-4.27 15.89,-6.61 -0.73,-12.22 -1.37,-23.18 -2.03,-34.46 -8.59,-2.13 -15.45,-3.86 -22.58,-5.63 0.24,-3.32 0.49,-6.68 0.83,-11.37 -7.37,-2.31 -14.44,-4.52 -20.82,-6.52 -4.84,-4.41 1.71,-14.04 -8.55,-15.68 -6.85,8.16 -1.03,18.14 -4.67,27.11 -6.95,1.09 -14.27,2.23 -22.62,3.55 -0.42,5.36 -0.79,9.93 -1.2,15.07 -8.48,2.48 -17.26,5.55 -18.16,18.88 5.08,3.5 10.78,7.44 16.3,11.23 -1.98,11.75 -20.98,10.39 -19.88,27.25 11.27,2.5 22.32,5.28 33.52,7.35 11.39,2.09 22.88,3.56 34.36,5.13 16.42,2.25 20.34,-1.04 20.38,-17.2 0.02,-5.91 -0.49,-11.84 -0.77,-18.1"
         style="fill:#231f20;fill-opacity:1;fill-rule:nonzero;stroke:none"
         id="path6976" />
      <path
         d="m 4854.36,2911.67 c -4.7,10.64 -2.72,22.68 -14.09,30.36 -7.18,-2.07 -14.68,-4.24 -21.95,-6.33 -2.48,-9.66 -4.69,-18.26 -6.66,-25.91 -5.71,-1.8 -9.41,-2.96 -13.46,-4.24 -0.25,-10.61 1.21,-21.64 -10.43,-27.11 1.57,-5.64 2.93,-10.54 4.25,-15.24 8.55,-4.9 20.55,-1.03 27.05,-11.41 v -13.91 c 7.7,1.74 14.5,3.26 21.52,4.84 0.39,6.71 0.71,12.52 1.07,18.38 11.86,4.85 23.11,9.45 34.68,14.18 -1.14,4.59 -1.86,7.48 -2.48,9.94 -10.29,-0.61 -19.7,-1.17 -28.11,-1.68 -7.77,10.49 -8.04,11.96 -4.95,23.57 3.81,1.28 7.88,2.65 13.56,4.56 m -33.66,-82.01 c -0.56,-5.38 -1.09,-10.39 -1.61,-15.48 -8.64,2.33 -8.68,2.33 -8.84,14.54 -0.09,6.7 -0.02,13.4 -0.02,19.91 -10.5,2.87 -19.5,5.33 -28.19,7.71 -1.15,10.96 -2.13,20.25 -3.08,29.35 3.84,2.44 6.83,4.33 10.68,6.77 0.68,6.63 1.41,13.65 2.25,21.88 4.02,1.45 8.34,3.01 13.29,4.8 1.95,7.85 4.02,16.17 6.41,25.73 11.2,2.7 21.77,5.26 30.86,7.44 16.01,-11.46 16.07,-27.66 19.96,-41.9 0.63,-2.32 -3.45,-6.51 -6.14,-8.97 -2.11,-1.95 -5.45,-2.55 -9.57,-4.33 10.55,-7.17 19.6,1.93 29.3,-0.77 7.82,-6.38 8.68,-15.56 8.71,-24.56 -8.76,-11.61 -22.16,-12.13 -33.17,-17.5 -1.04,-6.2 -2.04,-12.34 -3.22,-19.46 -9.12,-1.7 -17.64,-3.3 -27.62,-5.16"
         style="fill:#231f20;fill-opacity:1;fill-rule:nonzero;stroke:none"
         id="path6984" />
      <path
         d="m 5061.54,2901.73 c 6.48,-4 11.05,-6.83 15.93,-9.82 0.6,-10.63 -11.43,-20.78 0.21,-31.04 6.53,0.3 13.61,0.65 21.2,1 1.57,-6.09 3.02,-11.7 4.8,-18.58 5.11,3.67 9.21,6.63 13.09,9.43 0.86,4.67 1.63,8.85 2.42,13.17 7.11,1.71 13.62,3.27 20.83,5 0.64,3 1.27,5.92 2.29,10.74 -5.89,0 -10.56,-0.21 -15.2,0.05 -7.95,0.45 -15.95,0.81 -23.8,2.04 -2.61,0.41 -4.82,3.38 -8.75,6.35 5.48,2.78 8.58,4.35 11.67,5.95 10.96,5.69 21.95,11.37 32.9,17.14 4.73,2.5 7.32,5.93 3.82,12.32 -17.51,-1.73 -35.15,-3.48 -52.2,-5.17 -1.39,-4.75 -2.34,-8.04 -3.14,-10.76 -8.6,-2.58 -16.21,-4.86 -26.07,-7.82 m -22.72,-1.51 c 12.81,12.38 28.64,10.66 41.74,17.78 0.82,2.57 1.87,5.86 3.66,11.45 21.26,2.23 43.08,4.52 66.91,7.01 v -26.3 c -9.95,-5.72 -20.18,-11.58 -31.89,-18.31 10.35,-1.3 19.09,-2.41 27.07,-3.41 7.52,-18.43 3.9,-23.61 -20.07,-30.29 -0.67,-3.13 -1.39,-6.53 -2.2,-10.34 -5.95,-3.82 -11.91,-7.66 -18.98,-12.21 v -20.9 c -0.95,-0.17 -1.9,-0.34 -2.84,-0.52 -9.02,10.51 -3.31,25.21 -8.64,38 -6.59,0.3 -13.57,0.61 -20.7,0.95 -8,10.47 -10.8,21.39 -3.84,35.24 -9.79,3.83 -19.16,7.51 -30.22,11.85"
         style="fill:#231f20;fill-opacity:1;fill-rule:nonzero;stroke:none"
         id="path6986" />
    </g>
  </g>
</svg>
