<?xml version="1.0" encoding="UTF-8" standalone="no"?>
<!-- John Grümph
     https://legrumph.org/Terrier/public/chibi/de-chorographia
     CC BY-NC 3.0
     https://creativecommons.org/licenses/by-nc/3.0/fr/ -->
<!-- Created with Inkscape (http://www.inkscape.org/) -->

<svg
   version="1.1"
   id="svg2"
   width="14.593506"
   height="10.711121"
   viewBox="0 0 14.593506 10.71112"
   xmlns="http://www.w3.org/2000/svg"
   xmlns:svg="http://www.w3.org/2000/svg">
  <defs
     id="defs6" />
  <g
     id="g7842"
     transform="matrix(1.3333333,0,0,-1.3333333,-377.0783,180.98044)">
    <g
       id="g7844"
       transform="scale(0.1)">
      <path
         d="m 2907.33,1349.66 c -1.87,-8.93 -3.45,-16.48 -5.44,-26.03 h 16.9 c 1.14,-2.75 2.45,-5.91 3.78,-9.18 14.31,8.8 4.27,22.17 -15.24,35.21 m 3.47,-36.06 c -31.02,6.19 -38.7,3.39 -39.35,-15.25 5.35,-1.24 11.04,-2.56 17.45,-4.04 1.01,6.76 1.71,11.49 2.41,16.23 l 2.73,0.35 c 1.89,-5.12 3.79,-10.22 6.25,-16.88 5.22,2.84 10.11,5.49 15.57,8.46 -2.19,4.8 -3.62,7.94 -5.06,11.13 m -57.54,33.48 c -9.53,-10.51 -18.89,-20.16 -14.8,-36.33 4.14,-2.02 8.21,-4 12.37,-6.04 1.91,5.07 3.39,8.96 5.14,13.57 4.95,-4.92 -3.41,-13.03 7.23,-14.27 0.45,4.36 0.84,8.18 1.24,12.1 3.51,3.34 6.93,6.58 10.67,10.12 -0.23,4.3 -0.47,8.54 -0.67,12.35 -7.23,2.9 -13.41,5.38 -21.18,8.5 m 35.51,-20.62 h 3.03 c 2.59,10.19 5.08,20.01 7.7,30.33 5.3,0 9.86,1.42 12,-0.25 9.97,-7.8 21.08,-15.09 25.12,-27.98 1.28,-4.12 1.46,-11.05 -1.01,-13.44 -11.16,-10.85 -17.64,-28.57 -37.18,-26.97 -2.2,-3.6 -4,-6.52 -6.83,-11.13 -2.09,4.48 -3.45,7.39 -4.79,10.27 -8.76,2.77 -17.47,5.52 -27.19,8.61 v -17.2 c -0.8,-0.25 -1.58,-0.5 -2.37,-0.76 -1.54,5.48 -3.08,10.96 -4.94,17.55 -13.58,5.52 -28.68,11.3 -22.99,31.82 3.88,13.96 16.75,29.77 24.45,28.4 8.09,-1.43 17.37,-2.95 23.32,-7.86 5.68,-4.69 7.76,-13.76 11.68,-21.39"
         style="fill:#231f20;fill-opacity:1;fill-rule:nonzero;stroke:none"
         id="path9058" />
    </g>
  </g>
</svg>
