<?xml version="1.0" encoding="UTF-8" standalone="no"?>
<!-- Created with Inkscape (http://www.inkscape.org/) -->

<svg
   version="1.1"
   id="svg2"
   width="12.737671"
   height="11.100037"
   viewBox="0 0 12.737671 11.100036"
   xmlns="http://www.w3.org/2000/svg"
   xmlns:svg="http://www.w3.org/2000/svg">
  <defs
     id="defs6" />
  <g
     id="g7842"
     transform="matrix(1.3333333,0,0,-1.3333333,-390.49565,165.27872)">
    <g
       id="g7844"
       transform="scale(0.1)">
      <path
         d="m 2965.55,1201.91 c 0.57,9.64 1,17.13 1.47,25.34 -5.73,3.75 -12.27,6.84 -19.86,1.55 -8.5,-5.92 -13.23,-13.35 -10.04,-25.44 3.72,-1.15 7.81,-2.41 12.38,-3.81 0.66,4 0.77,6.4 1.5,8.59 0.66,2.04 1.98,3.88 4.05,7.72 1.06,-4.13 1.75,-6.18 2.09,-8.31 0.36,-2.25 0.36,-4.55 0.56,-7.19 2.18,0.19 3.73,0.18 5.21,0.53 1.48,0.38 2.86,1.13 2.64,1.02 m 15.95,-8.11 c -13.55,0.86 -25.45,-2.66 -36.45,-10.48 0.99,-2.73 1.34,-4.3 2.09,-5.66 1.54,-2.75 3.27,-5.41 5.07,-8.34 h 9.04 c 1.43,3.25 2.57,5.91 4.34,9.95 2.34,-4.02 3.89,-6.63 5.39,-9.22 15.56,6.22 17.95,10.91 10.52,23.75 m 23.88,5.5 c 4.28,3.13 8.28,6.02 12.26,8.93 -3.55,10.57 -7.93,20.06 -18.62,21.13 -11.27,1.12 -20.36,-5.23 -27.06,-13.61 1.93,-12.14 9.84,-18.93 23.22,-20.29 0.7,4.27 1.41,8.59 2.41,14.81 3.21,-4.52 5.18,-7.29 7.79,-10.97 m -40.51,-42.96 c -0.69,0.82 -2.35,2.86 -4.05,4.91 -3.52,0.43 -7.05,0.86 -11.09,1.34 -6.94,8.54 -15.61,16.34 -9.48,29.21 -13.68,13.81 -15.18,26.5 -4.55,38.13 11.71,12.82 23.55,12.93 38.96,0.03 9.91,2.88 19.41,12.09 31.04,4.67 10.26,-6.56 16.66,-15.75 18.55,-30.67 -5.95,-4.35 -12.75,-9.35 -20.13,-14.78 -0.55,-3.79 -1.21,-8.39 -1.87,-13 -0.61,-0.2 -1.23,-0.41 -1.86,-0.61 -1.68,3.04 -3.34,6.07 -4.53,8.23 -4.06,-5.34 -7.65,-11.71 -12.81,-16.35 -4.98,-4.49 -11.57,-7.18 -18.18,-11.11"
         style="fill:#231f20;fill-opacity:1;fill-rule:nonzero;stroke:none"
         id="path9072" />
    </g>
  </g>
</svg>
