<?xml version="1.0" encoding="UTF-8" standalone="no"?>
<!-- Created with Inkscape (http://www.inkscape.org/) -->

<svg
   version="1.1"
   id="svg2"
   width="47.84021"
   height="19.656006"
   viewBox="0 0 47.84021 19.656005"
   xmlns="http://www.w3.org/2000/svg"
   xmlns:svg="http://www.w3.org/2000/svg">
  <defs
     id="defs6" />
  <g
     id="g10"
     transform="matrix(1.3333333,0,0,-1.3333333,-713.57978,461.99736)">
    <g
       id="g12"
       transform="scale(0.1)">
      <path
         d="m 5478.48,3347.08 c 0.13,0.43 0.23,0.86 0.36,1.28 h -11.99 c 0.04,-0.42 0.08,-0.85 0.11,-1.28 z m 13.09,11.5 c 5.05,-8.04 9.23,-3.22 13.57,0 z m 13.68,19.02 c -6.95,-0.76 -12.32,-1.36 -18.86,-2.08 1.32,-3.76 2.25,-6.4 3.3,-9.42 6.2,1.02 11.51,1.88 17.31,2.83 -0.66,3.23 -1.09,5.39 -1.75,8.67 m -47.39,12.19 c 6.82,-0.46 12.51,-0.84 19.35,-1.29 -0.34,5.97 -0.59,10.36 -0.91,15.61 -8.09,-1.66 -14.48,-2.97 -21.55,-4.41 1.17,-3.75 1.95,-6.25 3.11,-9.91 m 0.6,-32.2 c 7.63,-0.41 14.97,-0.8 22.52,-1.21 -0.56,6.56 -1.02,11.95 -1.57,18.59 -8.71,-1.48 -16.2,-2.76 -24.57,-4.2 1.45,-5.3 2.37,-8.64 3.62,-13.18 m 45.99,61.33 c -12.95,1.75 -15.93,-7.6 -21.47,-13.71 0.77,-3.75 1.47,-7.15 2.45,-12 8.21,3.82 15.53,7.24 23.64,11.02 -1.79,5.68 -3.18,10.07 -4.62,14.69 m -33.97,33.94 c -3.94,-10.74 -7.43,-20.21 -11.46,-31.18 5.51,-2.24 9.65,-3.93 14.34,-5.83 0.94,9.77 1.67,17.5 2.41,25.21 0.91,-0.06 1.83,-0.12 2.75,-0.19 0.86,-6.5 1.71,-13 2.76,-20.94 4.41,3.47 7.64,6.02 12,9.44 -2.68,8.42 -5.37,16.87 -8.28,26.05 -5.48,-0.97 -9.64,-1.7 -14.52,-2.56 m 45.34,-100.74 c -7.77,-3.25 -14.62,-6.11 -21.52,-9 1.34,-7.78 2.66,-15.41 4.41,-25.56 -13.94,4.81 -6.51,17.67 -14.41,23.86 -7.59,-0.47 -16.91,-1.05 -27.37,-1.69 -3.04,12.24 -5.81,23.39 -8.51,34.29 4.96,2.97 7.95,4.75 11.77,7.03 -10.41,5.31 -14.73,13.22 -13.31,25.21 4.85,1.35 9.72,2.69 16.01,4.44 -12.47,9.23 -11.2,20 -4.51,31.68 2.72,4.75 4.1,10.27 6.58,16.72 6.66,1.29 13.49,2.61 19.89,3.86 11.29,-9.73 10.18,-23.48 16.06,-34.52 10.93,-7.02 14.66,-14.57 13.66,-30.06 -6.22,-3.69 -13.23,-7.85 -21.11,-12.53 6.61,-0.79 12.27,-1.48 19.65,-2.37 0.9,-10.36 1.74,-20.02 2.71,-31.36"
         style="fill:#231f20;fill-opacity:1;fill-rule:nonzero;stroke:none"
         id="path6950" />
      <path
         d="m 5564.98,3341.57 c -11.51,-0.65 -11.51,-0.65 -14.3,-9.64 4.97,0.34 9.48,0.65 14.3,0.98 z m 0,15.55 c -4.97,9.39 -17.06,9.19 -27.19,0 z m 6.76,0.25 c 19.7,-2.1 19.7,-2.1 23.76,6.99 -8.25,0.38 -15.79,0.73 -23.76,1.1 z m 5.8,17.56 c 16.41,-3.27 20.35,-2.56 23.53,4.24 -13.9,6.55 -19.23,5.59 -23.53,-4.24 m -5.99,7.99 c -13.72,0.1 -24.88,1.14 -36.09,-3.53 6.63,-8.82 20.23,-7.61 36.09,3.53 m -13.02,9.92 c 16.39,-2.44 26.85,5.61 37.24,13.13 -8.38,9.02 -15.84,17.04 -23.5,25.27 -6.03,-4.78 -11.6,-9.19 -18.17,-14.4 1.42,-7.67 2.83,-15.36 4.43,-24 m -10.77,-46.06 c -4.21,1.02 -8.41,2.04 -14.7,3.56 -1.53,11.19 -3.13,22.92 -4.93,36.13 6.96,2.1 13.2,3.99 18.73,5.67 0.6,9.62 -1.27,20.15 2.46,28.02 3.78,7.99 13.09,13.34 21.15,20.96 2.65,-1.72 6.08,-3.41 8.87,-5.84 4.79,-4.19 9.12,-8.91 13.77,-13.28 14.59,-13.73 14.65,-18.33 -0.26,-31.47 5.97,-2.56 11.7,-5 19.58,-8.37 -4.44,-10.98 -8.55,-21.14 -13.13,-32.45 h -25.66 v -32.15 c -3.9,3.26 -6.13,5.12 -9.04,7.55 -9.12,-1.87 -18.34,-1.51 -23.98,10.28 2.16,3.6 4.55,7.59 6.92,11.57 0.38,0.01 0.76,0.02 1.13,0.03"
         style="fill:#231f20;fill-opacity:1;fill-rule:nonzero;stroke:none"
         id="path6964" />
      <path
         d="m 5399.5,3413.11 c 0.78,-0.69 1.57,-1.39 2.35,-2.08 4.73,2.2 9.45,4.38 16.02,7.45 -5.66,2.34 -9.11,3.79 -13.52,5.62 -1.86,-4.22 -3.36,-7.61 -4.85,-10.99 m -6.34,-46.98 c 0.68,-7.16 1.2,-12.82 1.81,-19.24 7.06,3.75 11.62,15.64 8.15,19.88 -2.43,-0.15 -5.42,-0.35 -9.96,-0.64 m -4.47,-5.15 c -6.29,9.93 -20.16,6.92 -29.59,-7.16 10.76,2.61 19.58,4.74 29.59,7.16 m -15.14,31.19 c -2.38,-5.95 -4.48,-11.21 -6.95,-17.38 7.73,1.1 14.16,2.02 20.52,2.92 0.01,10.08 -1.7,11.93 -13.57,14.46 m 20.22,-18.14 c 8.12,4.13 15.29,7.77 23.35,11.87 -2.92,6.89 -5.14,12.13 -6.86,16.2 -6.69,0.45 -11.77,0.8 -19.55,1.31 -0.65,-0.52 -3.28,-2.68 -3.78,-3.09 2.67,-10.24 4.48,-17.23 6.84,-26.29 m -29.48,48.64 c -2.03,-8.01 -3.69,-14.62 -5.46,-21.64 h 18.57 c 8.32,12.37 16.1,23.94 24.83,36.92 -6.07,1.77 -9.62,2.81 -14.09,4.1 -2.12,-9.08 -3.96,-17.01 -6.02,-25.86 -6.04,2.19 -11.11,4.04 -17.83,6.48 m 48.7,-48.88 c -1.83,-11.29 -3.46,-21.35 -5.07,-31.33 -5.08,-1.27 -8.83,-2.22 -13.31,-3.35 -1.01,-7.19 -2,-14.37 -3,-21.55 -0.82,0.03 -1.63,0.06 -2.45,0.1 v 17.46 c -4.2,5.78 -7.34,10.09 -10.61,14.58 -7.19,-0.68 -14.95,-1.41 -21.59,-2.05 -9.1,8.79 -1.54,14.09 0.62,20.24 1.7,7.29 3.4,14.59 5.17,22.21 -2.93,1 -6.49,2.21 -10.52,3.58 -1.73,13.65 2.64,25.24 8.7,37.6 5.43,-1.28 10.28,-2.42 15.75,-3.71 2.25,7.66 4.51,15.33 7.09,24.09 8.2,-2.52 14.5,-4.47 20.8,-6.41 0.75,-4.96 1.34,-8.81 2.01,-13.26 6.36,-3 13,-6.14 21.73,-10.25 -4.6,-5.74 -8.1,-10.09 -11.81,-14.71 2.13,-7.78 4.47,-16.31 6.73,-24.55 -4.86,-4.13 -8.15,-6.92 -10.24,-8.69"
         style="fill:#231f20;fill-opacity:1;fill-rule:nonzero;stroke:none"
         id="path6974" />
      <path
         d="m 5658.36,3392.81 c 4.99,3.84 9.48,7.28 14.97,11.49 -3.98,3.08 -6.65,5.13 -9.66,7.43 -5.79,-2.84 -10.92,-5.34 -18.1,-8.85 5.15,-4.06 8.67,-6.83 12.79,-10.07 m 42.17,1.03 c -2.08,5.54 -3.7,9.91 -6.3,16.87 -8.48,-7.33 -15.66,-13.56 -23.03,-19.94 2.12,-3.18 3.38,-5.07 4.79,-7.2 8.04,3.36 15.65,6.54 24.54,10.27 m -7.91,-14.14 c -14.56,-4.86 -25.52,-9.18 -30.83,-22.95 11.3,-2.85 19.44,2.77 29.39,5.32 0.43,5.27 0.85,10.4 1.44,17.63 m -25.81,3.48 c -8.46,3.25 -15.55,5.97 -23.01,8.84 -2.23,-4.18 -4.76,-8.93 -7.42,-13.96 5.99,-4.11 11.43,-7.85 16.78,-11.52 5.56,3.75 10.09,6.8 14.78,9.95 -0.58,3.44 -1.03,6.1 -1.13,6.69 m 12.36,62.28 c -5.66,3.92 -10.51,7.28 -16.08,11.15 -5.18,-7.98 -10.01,-15.47 -15.02,-23.2 3.41,-4.62 6.12,-8.3 9.25,-12.55 7.68,4.52 14.39,8.46 21.13,12.44 0.25,4.31 0.46,7.79 0.72,12.16 m -53.1,-67.58 c 5.57,10.48 10.87,20.48 16.18,30.48 -0.44,0.27 -0.87,0.55 -1.31,0.84 3.33,2.7 6.66,5.41 10.27,8.36 -0.86,1.83 -1.39,3.28 -2.17,4.59 -7.64,12.89 -7.37,14.23 2.3,26.25 4.19,5.21 7.6,11.03 11.37,16.58 19.69,-5.93 25.52,-14.3 23.06,-35.19 -4.31,-3.33 -9.6,-7.38 -15.42,-11.84 2.07,-2.24 4.43,-4.77 7.07,-7.65 6.23,3.4 12.07,6.56 20.07,10.92 4.56,-10.93 8.71,-20.86 13.16,-31.52 -4.37,-2.93 -7.9,-5.32 -10.45,-7.04 -0.52,-9.53 -1.01,-18.37 -1.5,-27.23 -9.69,-3.32 -17.55,-6.02 -26.66,-9.14 v -28.73 c -11.87,7.24 -4.92,18.53 -9.04,30.8 -10.94,8.75 -24.29,19.41 -36.93,29.52"
         style="fill:#231f20;fill-opacity:1;fill-rule:nonzero;stroke:none"
         id="path6980" />
    </g>
  </g>
</svg>
