<?xml version="1.0" encoding="UTF-8" standalone="no"?>
<!-- John Grümph
     https://legrumph.org/Terrier/public/chibi/de-chorographia
     CC BY-NC 3.0
     https://creativecommons.org/licenses/by-nc/3.0/fr/ -->
<!-- Created with Inkscape (http://www.inkscape.org/) -->

<svg
   version="1.1"
   id="svg2"
   width="36.489105"
   height="15.710572"
   viewBox="0 0 36.489105 15.710572"
   xmlns="http://www.w3.org/2000/svg"
   xmlns:svg="http://www.w3.org/2000/svg">
  <defs
     id="defs6" />
  <g
     id="g10"
     transform="matrix(1.3333333,0,0,-1.3333333,-422.76245,430.34788)">
    <g
       id="g12"
       transform="scale(0.1)">
      <path
         d="m 3370.01,3145.92 c 1.07,13.92 2.72,26.16 2.77,38.42 0.06,13.16 -7.2,20.81 -16.87,21.21 -10.11,-22.32 -20.01,-44.19 -30.26,-66.83 7.44,-4.59 14.79,0.65 23.29,2.74 1.21,7.16 2.39,14.17 3.58,21.18 l 2.67,-0.24 c 0.61,-6.04 1.22,-12.1 1.94,-19.3 4.28,0.94 7.94,1.74 12.88,2.82 m -15.44,-14.45 c -2.68,-7.65 -4.98,-14.2 -7.61,-21.68 -8.86,6.65 -0.57,12.46 -2.01,18.96 -12.14,-1.66 -25,-3 -30.5,10.87 12.66,25.6 24.76,50.07 37.82,76.5 5.85,2.08 12.76,-0.63 17.85,-6.82 7.16,-8.73 12.84,-18.5 11.81,-30.45 -1.15,-13.39 -2.77,-26.73 -4.24,-40.55 -8.63,-2.55 -15.78,-4.67 -23.12,-6.83"
         style="fill:#231f20;fill-opacity:1;fill-rule:nonzero;stroke:none"
         id="path7026" />
      <path
         d="m 3308.35,3170.32 c -4.01,18.17 -12.01,33.41 -22.91,47.8 -6.67,-19.28 -22.71,-33.89 -22.85,-56.53 6.48,-2.31 12.82,-4.57 20.27,-7.23 0.64,7.98 1.09,13.64 1.53,19.28 0.69,0.16 1.38,0.3 2.07,0.46 1.88,-4.71 3.76,-9.41 6.12,-15.33 5.68,4.16 10.38,7.6 15.77,11.55 m -16.73,-23.64 c -2.82,-12.97 -1.37,-25.63 -7.05,-36.9 -6,11.29 -0.59,22.51 -1.35,33.56 -6.84,2.64 -13.46,5.17 -20.07,7.75 -7.92,3.11 -11.27,9.51 -9.61,17.25 1.89,8.85 4.74,17.68 8.56,25.89 5.04,10.81 11.43,20.98 17.47,31.86 9,2.94 13.61,2.05 18.08,-6.56 6.41,-12.37 12.33,-25.11 17.11,-38.18 5.16,-14.18 2.43,-20.06 -10.41,-27.94 -4.05,-2.48 -8.39,-4.46 -12.73,-6.73"
         style="fill:#231f20;fill-opacity:1;fill-rule:nonzero;stroke:none"
         id="path7028" />
      <path
         d="m 3225.2,3145.31 c 2.59,25.71 -15.34,55.1 -34.75,57.59 -4.15,-14.2 -8.34,-28.54 -12.66,-43.36 8.44,-4.33 15.73,-8.06 23.1,-11.82 1.86,4.33 3.47,8.05 5.07,11.75 l 2.84,-0.26 c 0.49,-5.48 0.97,-10.96 1.66,-18.92 6,2.05 10.72,3.66 14.74,5.02 m -33.95,70.15 c 6.16,-2.85 11.7,-3.73 14.34,-6.97 11.45,-14.02 24.41,-26.74 28.84,-45.85 4.14,-17.94 -2.27,-33.28 -25.98,-29.85 -2.56,-7.68 -5.11,-15.34 -7.68,-23 -1.22,0.21 -2.45,0.42 -3.7,0.64 -5.75,9.02 5.45,17.73 1.97,28.56 -5.33,2.78 -11.91,6.31 -18.58,9.64 -6.21,3.11 -11.3,7.71 -9.3,14.87 4.14,14.88 9.3,29.45 14.36,44.05 0.86,2.49 3.19,4.49 5.73,7.91"
         style="fill:#231f20;fill-opacity:1;fill-rule:nonzero;stroke:none"
         id="path7040" />
      <path
         d="m 3414.47,3197.75 c -1.03,-2.11 -3.35,-4.61 -3.18,-6.93 1.32,-18.37 -7.14,-32.25 -19.48,-44.53 -3.94,-3.95 -4.52,-8.15 0.16,-13.81 6.64,1.47 13.81,3.04 20.71,4.57 0.68,5.36 1.19,9.49 1.71,13.61 l 1.88,0.36 c 1.8,-3.93 3.61,-7.88 5.41,-11.81 14.67,6.75 17.58,16.7 12.65,41.56 -2.24,11.32 -8.32,16.73 -19.86,16.98 m 4.97,-69.32 c -2.06,-6.88 -3.82,-12.77 -5.58,-18.64 -1.3,0.14 -2.6,0.26 -3.91,0.41 -0.27,4.93 -0.53,9.85 -0.86,16.05 -5.65,-0.71 -12.11,-1.52 -17.93,-2.25 -13.47,11.04 -14.45,18.96 -3.79,30.32 10.21,10.84 16.97,22.7 17,38.31 0,4.62 3.68,10.62 7.53,13.53 5.22,3.93 11.46,1.36 16.42,-2.79 7.6,-6.35 13.03,-13.92 13.9,-24.21 0.57,-6.75 2,-13.46 2.15,-20.21 0.35,-15.29 -4.75,-22.38 -19.18,-28.04 -1.84,-0.71 -3.64,-1.57 -5.75,-2.48"
         style="fill:#231f20;fill-opacity:1;fill-rule:nonzero;stroke:none"
         id="path7044" />
    </g>
  </g>
</svg>
