<?xml version="1.0" encoding="UTF-8" standalone="no"?>
<!-- Created with Inkscape (http://www.inkscape.org/) -->

<svg
   version="1.1"
   id="svg2"
   width="14.448853"
   height="10.72644"
   viewBox="0 0 14.448852 10.72644"
   xmlns="http://www.w3.org/2000/svg"
   xmlns:svg="http://www.w3.org/2000/svg">
  <defs
     id="defs6" />
  <g
     id="g7842"
     transform="matrix(1.3333333,0,0,-1.3333333,-410.92546,180.99576)">
    <g
       id="g7844"
       transform="scale(0.1)">
      <path
         d="m 3166.51,1330.85 c 6.04,3.26 11.38,6.14 17.29,9.34 -9.19,12.34 -20.48,10.16 -31.25,8.15 -5.97,-1.12 -11,-4.57 -9.32,-12.92 4.27,-0.64 8.31,-1.26 12,-1.83 1.27,2.6 2.19,4.47 3.6,7.37 2.76,-3.64 4.6,-6.06 7.68,-10.11 m -63.82,-16.89 c 6.67,-1.48 11.46,-2.53 15.45,-3.41 4.15,5.36 6.98,9.02 9.87,12.76 -12.14,7.53 -27,6.84 -38.16,-1.68 -0.25,-3.1 -0.56,-6.91 -0.95,-11.67 4.37,-0.59 7.74,-1.05 10.87,-1.47 1.49,2.78 2.56,4.78 2.92,5.47 m 38.99,-4.99 c 0.95,0.36 1.9,0.71 2.85,1.07 l 7,-11.67 c 7.19,1.46 12.9,4.05 14.56,11.66 -9.83,9.42 -17.97,10.83 -30.47,5.38 -6.66,-2.9 -10.96,-7.35 -9.8,-16.3 5.27,-0.9 10.12,-1.74 15.86,-2.72 z m -5.02,17.31 c -3.35,23.51 2.94,30.81 25.89,31.18 9.24,0.16 17.38,-2.02 23.76,-9.01 5.5,-6.03 5.39,-10.99 -0.74,-16.49 -2.63,-2.36 -5.75,-4.31 -8.92,-5.93 -3.11,-1.59 -6.56,-2.51 -10.01,-3.78 13.57,-16.23 7,-25.84 -14.03,-34.03 -0.52,-3.32 -1.07,-6.75 -1.62,-10.19 -0.71,-0.33 -1.42,-0.67 -2.14,-1.01 -2.3,3.62 -4.62,7.25 -6.96,10.92 -14.82,3.05 -14.82,3.05 -29.2,14.93 -1.19,-4.37 -2.22,-8.17 -3.98,-14.68 -3.14,5.24 -5.15,8.59 -6.77,11.28 -6.81,2.17 -13.08,4.15 -18.51,5.88 -4.89,21.25 2.23,30.84 21.85,31.79 11.88,0.58 22.92,-1.16 31.38,-10.86"
         style="fill:#231f20;fill-opacity:1;fill-rule:nonzero;stroke:none"
         id="path9064" />
    </g>
  </g>
</svg>
