<?xml version="1.0" encoding="UTF-8" standalone="no"?>
<!-- John Grümph
     https://legrumph.org/Terrier/public/chibi/de-chorographia
     CC BY-NC 3.0
     https://creativecommons.org/licenses/by-nc/3.0/fr/ -->
<!-- Created with Inkscape (http://www.inkscape.org/) -->

<svg
   version="1.1"
   id="svg2"
   width="31.193787"
   height="16.294067"
   viewBox="0 0 31.193787 16.294067"
   xmlns="http://www.w3.org/2000/svg"
   xmlns:svg="http://www.w3.org/2000/svg">
  <defs
     id="defs6" />
  <g
     id="g10"
     transform="matrix(1.3333333,0,0,-1.3333333,-699.08264,365.43669)">
    <g
       id="g12"
       transform="scale(0.1)">
      <path
         d="m 5417.67,2701.39 c -12.82,1.37 -25.21,4.31 -35,-7.66 15.86,-4.04 25.99,-12.7 23.12,-30.17 23.03,1.07 23.03,1.07 28.94,-2.6 0.87,-3.48 1.75,-7.1 2.96,-11.98 4.39,2.96 7.57,5.1 10.84,7.29 -1.49,4.39 -2.73,8.01 -4.14,12.12 4.68,3.89 9.03,7.54 14.57,12.17 -7.29,0.54 -12.75,0.94 -20.21,1.48 -1.02,6.44 -1.97,12.53 -3.18,20.2 11.93,1.56 21.62,2.83 32.26,4.22 v 21.55 c -18.58,5.47 -34.12,-3.4 -50.16,-6.8 z m 19.13,-62.98 c -0.82,-5.7 -1.75,-12.21 -2.84,-19.83 -10.5,4.39 -6.89,11.77 -6.77,17.79 0.14,6.24 0.83,12.46 1.4,20.17 -9.54,-1.41 -17.29,-2.54 -24.91,-3.68 -10.6,5.27 -3.59,15.66 -7.88,23.52 -8.7,4.56 -18.28,9.59 -29.11,15.28 10.79,17.15 25.14,21.49 42.6,21.19 -0.74,4.87 -1.42,9.33 -2.35,15.42 7.07,2.08 13.76,4.24 20.52,6.03 8.5,2.23 17.02,4.38 25.63,6.13 9.86,2 21.74,-4.94 23.05,-14.28 1.38,-9.79 1.98,-19.91 -3.7,-29.59 -8.82,-0.84 -17.68,-1.69 -26.55,-2.54 -0.09,-0.8 -0.18,-1.6 -0.26,-2.4 9.87,-2.15 24.13,2 23.73,-16 -4.6,-3.35 -9.4,-6.84 -14.78,-10.77 0.8,-3.14 1.65,-6.45 3.03,-11.8 -6.44,-4.53 -13.43,-9.45 -20.81,-14.64"
         style="fill:#231f20;fill-opacity:1;fill-rule:nonzero;stroke:none"
         id="path6988" />
      <path
         d="m 5347.95,2702.36 c -12.86,19.57 -29.56,16.57 -41.47,18.78 -9.84,-4.53 -17.1,-7.87 -25.53,-11.75 -0.33,-1.37 -1.14,-4.71 -1.96,-8.07 -6.25,-2.3 -11.98,-4.41 -17.71,-6.53 3.67,-2.43 7.01,-2.9 10.36,-3.11 11.16,-0.75 22.34,-1.22 33.48,-2.16 5.95,-0.5 12.06,-1.45 12.65,-11.02 -12.24,-5.93 -24.58,-11.93 -36.91,-17.95 v -2.8 c 8.1,-0.57 16.19,-1.14 23.65,-1.68 2.61,-4.43 4.54,-7.71 6.55,-11.12 6.26,2.09 11.86,3.94 16.07,5.35 3.75,8.15 6.86,14.91 9.86,21.41 -2.43,5.31 -4.95,10.81 -8.24,18.02 7.13,4.7 13.13,8.63 19.2,12.63 m -104.83,-4.82 c 9.46,4.12 18.03,7.87 27.38,11.96 -0.54,3.43 -1.16,7.45 -1.99,12.75 h 19.25 c -0.2,1.11 -0.4,2.21 -0.6,3.3 7.26,2.13 14.63,6.33 21.77,5.97 16.03,-0.77 31.85,-4 42.14,-18.7 4.58,-6.53 4.43,-12.93 -1.15,-19.71 -2.74,-3.34 -6.13,-6.16 -9.72,-9.7 6.42,-8.3 9.13,-16.41 0.06,-25.14 -2.67,-2.59 -2.54,-8.09 -4.08,-13.63 -7.3,-2.57 -15.4,-5.41 -23.49,-8.28 -0.27,-5.5 -0.51,-10.48 -0.86,-17.79 -11.33,8.29 -6.04,20.04 -11.45,29.5 -12.12,0.13 -28.43,-3.43 -28.9,19.16 8.43,3.81 16.86,7.61 27.5,12.43 -19.09,5.2 -37.8,-1.27 -53.01,9.75 -1.27,0.93 -1.31,3.55 -2.85,8.13"
         style="fill:#231f20;fill-opacity:1;fill-rule:nonzero;stroke:none"
         id="path6990" />
    </g>
  </g>
</svg>
