<?xml version="1.0" encoding="UTF-8" standalone="no"?>
<!-- John Grümph
     https://legrumph.org/Terrier/public/chibi/de-chorographia
     CC BY-NC 3.0
     https://creativecommons.org/licenses/by-nc/3.0/fr/ -->
<!-- Created with Inkscape (http://www.inkscape.org/) -->

<svg
   version="1.1"
   id="svg2"
   width="32.498047"
   height="9.7467041"
   viewBox="0 0 32.498047 9.7467037"
   xmlns="http://www.w3.org/2000/svg"
   xmlns:svg="http://www.w3.org/2000/svg">
  <defs
     id="defs6" />
  <g
     id="g7842"
     transform="matrix(1.3333333,0,0,-1.3333333,-518.69793,197.88938)">
    <g
       id="g7844"
       transform="scale(0.1)">
      <path
         d="m 4004.43,1441.26 c -9.59,9.35 -18.02,17.56 -26.88,26.19 -3.56,-2.93 -8.69,-7.14 -13.44,-11.03 1.78,-8.22 3.36,-15.53 5.1,-23.6 4.09,1.17 7.71,2.2 10.58,3.01 0.77,7.68 1.42,14.06 2.06,20.44 1.12,0.03 2.26,0.06 3.38,0.08 1.35,-7.71 2.7,-15.42 4.38,-24.99 6.19,4.14 10.37,6.93 14.82,9.9 m -27.64,40.16 c 2.63,-1.98 6.43,-4.25 9.52,-7.27 6.23,-6.03 11.96,-12.57 18.07,-18.72 5.09,-5.11 10.62,-9.87 8.6,-20.23 -6.64,-3.88 -14.31,-8.35 -23.33,-13.61 -0.52,-1.96 -1.63,-6 -2.72,-10.05 -0.98,-0.15 -1.96,-0.31 -2.94,-0.47 -1.36,4.39 -2.72,8.78 -4.33,13.95 -6.02,-0.31 -12.69,-0.66 -19.31,-1.02 -2.31,13.7 -4.25,25.31 -6.23,37.08 6.89,6.19 13.88,12.46 22.67,20.34"
         style="fill:#231f20;fill-opacity:1;fill-rule:nonzero;stroke:none"
         id="path9336" />
      <path
         d="m 4111.55,1468.28 c -7.95,-3.12 -15.08,-5.91 -21.75,-8.53 -0.84,-9.09 -1.52,-16.43 -2.23,-24.18 h 11.32 c 0.47,7.13 0.9,13.6 1.33,20.05 1.09,0.21 2.16,0.4 3.23,0.6 2.18,-7.07 4.35,-14.14 7.09,-23.03 5.37,4.37 9.98,8.12 14.9,12.12 -4.75,7.85 -8.65,14.29 -13.89,22.97 m 22.42,-28.59 c -8.17,-5.65 -16.11,-11.14 -24.98,-17.27 -0.49,-2.59 -1.27,-6.69 -2.16,-11.35 -10.42,1.5 -6.24,10.06 -8.56,14.77 -0.77,0.59 -1.35,1.4 -2.01,1.49 -17.86,2.25 -17.86,2.23 -16.47,20.06 1.63,20.79 10.78,28.44 34.89,28.04 7.13,-10.24 15.77,-20.4 19.29,-35.74"
         style="fill:#231f20;fill-opacity:1;fill-rule:nonzero;stroke:none"
         id="path9370" />
      <path
         d="m 3932.13,1440.21 c -4.69,10.23 -8.71,19.02 -13.45,29.38 -7.52,-11.13 -14.04,-20.77 -21.59,-31.91 5.22,-1.24 7.98,-1.89 11.2,-2.66 1.4,6.05 2.57,11.17 3.74,16.26 1.02,-0.03 2.02,-0.05 3.04,-0.08 0.96,-5.81 1.9,-11.6 3.02,-18.38 4.76,2.5 8.84,4.66 14.04,7.39 m -15.29,-17.68 c -0.79,-3.71 -1.58,-7.42 -2.44,-11.46 -9.25,2 -4.15,9.77 -8.05,14.81 -4.14,1.72 -9.51,3.94 -16.11,6.67 -0.37,23.22 18.58,34.59 27.3,51.62 1.39,-0.06 2.78,-0.13 4.17,-0.19 6.3,-15.62 12.6,-31.22 19.27,-47.77 -8.81,-5 -15.98,-9.05 -24.14,-13.68"
         style="fill:#231f20;fill-opacity:1;fill-rule:nonzero;stroke:none"
         id="path9432" />
      <path
         d="m 4021.79,1455.79 c -1.08,-15.91 -0.61,-16.98 7.76,-19.05 0.65,3.43 1.27,6.85 2.22,12.09 3.18,-4.57 5.12,-7.38 7.61,-10.97 3.94,2.25 7.46,4.24 11.85,6.73 -4.73,6.1 -8.57,11.02 -13.21,17 -5.52,-1.96 -10.84,-3.87 -16.23,-5.8 m 41.26,-15.34 c -9.44,-5.45 -15.82,-9.13 -22.75,-13.15 0.47,-4.87 1,-10.15 1.61,-16.23 -11.18,0.59 -8.18,10.07 -12.03,14.89 -13.29,3.69 -19.42,12.92 -18.06,27.21 0.79,8.54 6.52,12.37 13.7,14.63 7.37,2.32 14.86,4.32 20.52,-3.63 5.14,-7.24 10.34,-14.43 17.01,-23.72"
         style="fill:#231f20;fill-opacity:1;fill-rule:nonzero;stroke:none"
         id="path9520" />
    </g>
  </g>
</svg>
