<?xml version="1.0" encoding="UTF-8" standalone="no"?>
<!-- John Grümph
     https://legrumph.org/Terrier/public/chibi/de-chorographia
     CC BY-NC 3.0
     https://creativecommons.org/licenses/by-nc/3.0/fr/ -->
<!-- Created with Inkscape (http://www.inkscape.org/) -->

<svg
   version="1.1"
   id="svg2"
   width="25.524017"
   height="15.589356"
   viewBox="0 0 25.524017 15.589356"
   xmlns="http://www.w3.org/2000/svg"
   xmlns:svg="http://www.w3.org/2000/svg">
  <defs
     id="defs6" />
  <g
     id="g10"
     transform="matrix(1.3333333,0,0,-1.3333333,-478.77054,455.60405)">
    <g
       id="g12"
       transform="scale(0.1)">
      <path
         d="m 3704.04,3407.54 c -6.71,-3.93 -7.93,-8.8 -7.27,-14.91 1.84,-17.01 3.24,-34.06 5.11,-51.07 0.42,-3.82 2.1,-7.52 3.2,-11.27 0.83,0.21 1.67,0.4 2.49,0.61 l 1.2,18.52 c 0.56,-0.04 1.12,-0.08 1.69,-0.11 1.19,-4.05 2.38,-8.08 3.57,-12.11 0.95,-0.09 1.88,-0.18 2.82,-0.28 2.31,13.54 6.05,27.03 6.5,40.63 0.44,13.07 -7.43,22.99 -19.31,29.99 m 3.5,-86.99 c -3.32,1.71 -6.12,3.13 -10.3,5.27 -1.02,4.98 -2.64,10.64 -3.27,16.41 -1.57,14.62 -3,29.27 -3.89,43.95 -0.42,7.06 -0.57,14.46 1.06,21.24 2.4,10.03 9.96,12.37 18.02,6.26 17.05,-12.91 28.61,-32.02 20.98,-55.03 -1.11,-3.38 -1.87,-6.93 -2.34,-10.46 -1.4,-10.6 -4.64,-20.18 -14.07,-26.28 -0.35,-7.5 -0.7,-14.52 -1.03,-21.53 -1.07,-0.1 -2.16,-0.18 -3.23,-0.27 -0.62,6.53 -1.23,13.05 -1.93,20.44"
         style="fill:#231f20;fill-opacity:1;fill-rule:nonzero;stroke:none"
         id="path7048" />
      <path
         d="m 3657.97,3338.66 c 0.77,0.03 1.53,0.05 2.29,0.07 0.98,-5.26 1.97,-10.51 3.03,-16.22 1.4,1.12 2.39,1.5 2.57,2.13 5.48,18.42 9.21,37.19 6.57,56.43 -0.98,7.22 -3.63,14.87 -12.82,16.45 -8.22,-5.54 -11.95,-12.72 -11.22,-22.48 0.96,-12.71 1.15,-25.46 2.12,-38.16 0.31,-4.07 2.04,-8.02 3.11,-12.03 0.53,0.09 1.06,0.19 1.6,0.28 0.91,4.52 1.83,9.02 2.75,13.53 m 1.98,67.67 c 13.15,-4.31 20.99,-14.7 22.15,-27.66 1.72,-19.09 -2.28,-37.38 -8.05,-55.29 -1.45,-4.5 -5.96,-8.02 -10.66,-14.02 v -8.56 c -0.89,-0.24 -1.78,-0.46 -2.68,-0.69 -1.28,4.09 -2.55,8.18 -4.2,13.47 -12.09,5.28 -13.41,17.75 -14.39,29.57 -1.11,13.49 -0.91,27.14 -0.44,40.69 0.39,11.55 9.88,16.48 18.27,22.49"
         style="fill:#231f20;fill-opacity:1;fill-rule:nonzero;stroke:none"
         id="path7054" />
      <path
         d="m 3766,3323.64 c 12.66,26.58 8.09,53.16 -8.92,56.95 -15.98,-20.48 -7.42,-40.78 1.18,-63.62 0.65,8.32 1.11,14.21 1.57,20.12 0.75,0.04 1.5,0.07 2.24,0.11 1.13,-3.88 2.25,-7.75 3.93,-13.56 m -17.22,-9.44 c -2.91,9.87 -5.69,18.94 -8.24,28.07 -4.53,16.27 0.9,30.5 9.42,44 0.59,0.95 1.72,1.66 2.75,2.21 1.39,0.75 2.91,1.22 4.22,1.75 9.55,-0.98 15.35,-6.67 19.28,-14.48 9.02,-17.96 9.02,-49.03 -8,-64.37 -2.86,-2.58 -3.66,-7.45 -5.39,-11.27 -4.93,4.94 -9.86,9.89 -14.04,14.09"
         style="fill:#231f20;fill-opacity:1;fill-rule:nonzero;stroke:none"
         id="path7056" />
      <path
         d="m 3599.44,3333.29 c 0.8,4.13 1.6,8.25 2.39,12.37 l 3.31,-0.44 c 0.32,-6.62 0.65,-13.24 0.95,-19.87 6.36,15.31 12.41,30.28 11.73,47.01 -0.36,8.73 -3.67,14.78 -12.28,19.36 -6.66,-19.46 -7.02,-38.73 -6.1,-58.43 m 3.2,-33.18 c -3.41,7.09 -6.81,14.19 -11.5,23.93 -1.22,22.71 0.43,48 8.4,73.02 4.52,4.26 9.15,3.04 13.44,-0.95 7.54,-7 13.95,-15.07 12.36,-25.98 -2.58,-17.63 -6.16,-35.12 -9.03,-51.03 -5.07,-3.53 -7.96,-5.54 -10.98,-7.64 v -10.6 c -0.9,-0.26 -1.79,-0.5 -2.69,-0.75"
         style="fill:#231f20;fill-opacity:1;fill-rule:nonzero;stroke:none"
         id="path7058" />
    </g>
  </g>
</svg>
