<?xml version="1.0" encoding="UTF-8" standalone="no"?>
<!-- Created with Inkscape (http://www.inkscape.org/) -->

<svg
   version="1.1"
   id="svg2"
   width="11.424316"
   height="9.2904053"
   viewBox="0 0 11.424316 9.2904049"
   xmlns="http://www.w3.org/2000/svg"
   xmlns:svg="http://www.w3.org/2000/svg">
  <defs
     id="defs6" />
  <g
     id="g7842"
     transform="matrix(1.3333333,0,0,-1.3333333,-394.97332,179.55973)">
    <g
       id="g7844"
       transform="scale(0.1)">
      <path
         d="m 3035.83,1335.52 c -6.05,1.79 -11.98,3.54 -18.26,5.39 -2.26,-3.48 -3.91,-6.01 -4.79,-7.36 4.08,-10.36 7.63,-19.41 11.83,-30.11 6.45,4.03 12.09,7.56 17.78,11.11 -2.55,8.13 -4.42,14.12 -6.56,20.97 m -50.73,-5.21 c -4.76,-6.98 -9.1,-13.35 -13.89,-20.38 5.32,-2.42 9.41,-4.28 13.11,-5.95 1.89,3.17 3.11,5.22 5.18,8.7 1.96,-5.24 3.27,-8.76 4.99,-13.37 6.12,6.65 11.58,12.59 16.83,18.3 -5.8,12.69 -14.98,14.06 -26.22,12.7 m -0.62,-36.99 c -5.69,7.24 -19.33,5.78 -22.18,19.73 5.48,8.07 11.66,17.18 18.6,27.39 7.48,-0.63 15.29,-1.3 24.41,-2.07 1.64,1.94 4.12,4.86 6.49,7.65 22.8,3.77 37.56,-8.41 36.08,-30.92 -0.31,-4.83 -5.49,-9.99 -9.6,-13.71 -3.04,-2.75 -7.97,-3.4 -12.66,-5.23 -0.69,-3.36 -1.44,-7.07 -2.5,-12.22 -5.02,5.75 -9.24,10.56 -13.58,15.53 -6.08,-4.52 -10.73,-7.96 -15.77,-11.69 -0.55,-3.08 -1.2,-6.74 -1.87,-10.4 l -2.87,-0.36 c -1.36,4.91 -2.73,9.81 -4.55,16.3"
         style="fill:#231f20;fill-opacity:1;fill-rule:nonzero;stroke:none"
         id="path9164" />
    </g>
  </g>
</svg>
